<svg width="32" height="32" viewBox="0 0 32 32" fill="none" xmlns="http://www.w3.org/2000/svg">
<g clip-path="url(#clip0_2014_15851)">
<path fill-rule="evenodd" clip-rule="evenodd" d="M3 4C2.44772 4 2 4.44772 2 5V19C2 19.5523 2.44772 20 3 20H13C13.5523 20 14 20.4477 14 21C14 21.5523 13.5523 22 13 22H3C1.34315 22 0 20.6569 0 19V5C0 3.34315 1.34315 2 3 2H17C18.6569 2 20 3.34315 20 5V9C20 9.55228 19.5523 10 19 10C18.4477 10 18 9.55228 18 9V5C18 4.44772 17.5523 4 17 4H3Z" fill="#FC1264"/>
<path fill-rule="evenodd" clip-rule="evenodd" d="M14 0C14.5523 0 15 0.447715 15 1V5C15 5.55228 14.5523 6 14 6C13.4477 6 13 5.55228 13 5V1C13 0.447715 13.4477 0 14 0Z" fill="#FC1264"/>
<path fill-rule="evenodd" clip-rule="evenodd" d="M6 0C6.55228 0 7 0.447715 7 1V5C7 5.55228 6.55228 6 6 6C5.44772 6 5 5.55228 5 5V1C5 0.447715 5.44772 0 6 0Z" fill="#FC1264"/>
<path fill-rule="evenodd" clip-rule="evenodd" d="M0 9C0 8.44772 0.447715 8 1 8H19C19.5523 8 20 8.44772 20 9C20 9.55228 19.5523 10 19 10H1C0.447715 10 0 9.55228 0 9Z" fill="#FC1264"/>
<path fill-rule="evenodd" clip-rule="evenodd" d="M18.5047 12.9505C19.6882 11.7078 21.3042 11 23.0001 11C24.696 11 26.3119 11.7078 27.4954 12.9505C28.6774 14.1916 29.3334 15.8649 29.3334 17.6C29.3334 20.7272 29.9706 22.6656 30.5541 23.789C30.847 24.3528 31.131 24.7204 31.3259 24.9364C31.4235 25.0446 31.4995 25.1156 31.544 25.1545C31.5662 25.1739 31.5806 25.1854 31.586 25.1896C31.5862 25.1898 31.5865 25.19 31.5867 25.1901C31.9349 25.4422 32.0834 25.8895 31.9538 26.3006C31.8226 26.7169 31.4365 27 31.0001 27H15.0001C14.5636 27 14.1776 26.7169 14.0463 26.3006C13.9167 25.8895 14.0653 25.4422 14.4135 25.1901C14.4137 25.19 14.4139 25.1898 14.4142 25.1896C14.4195 25.1854 14.4339 25.1739 14.4562 25.1545C14.5006 25.1156 14.5766 25.0446 14.6743 24.9364C14.8691 24.7204 15.1531 24.3528 15.446 23.789C16.0296 22.6656 16.6667 20.7272 16.6667 17.6C16.6667 15.8649 17.3227 14.1916 18.5047 12.9505ZM17.064 25H28.9361C28.8839 24.9077 28.8315 24.8114 28.7793 24.711C28.0296 23.2677 27.3334 21.0061 27.3334 17.6C27.3334 16.3647 26.8656 15.1892 26.0472 14.3299C25.2303 13.4722 24.1332 13 23.0001 13C21.867 13 20.7698 13.4722 19.953 14.3299C19.1346 15.1892 18.6667 16.3647 18.6667 17.6C18.6667 21.0061 17.9706 23.2677 17.2208 24.711C17.1686 24.8114 17.1163 24.9077 17.064 25Z" fill="#FC1264"/>
<path fill-rule="evenodd" clip-rule="evenodd" d="M20.4445 28.1686C20.9037 27.8617 21.5247 27.9852 21.8316 28.4444C21.9313 28.5937 22.0859 28.734 22.2933 28.8377C22.5009 28.9415 22.7451 29 23.0001 29C23.2551 29 23.4993 28.9415 23.7069 28.8377C23.9143 28.734 24.0689 28.5937 24.1687 28.4444C24.4755 27.9852 25.0965 27.8617 25.5557 28.1686C26.0149 28.4754 26.1384 29.0964 25.8316 29.5556C25.5248 30.0146 25.096 30.3792 24.6013 30.6266C24.1069 30.8738 23.5552 31 23.0001 31C22.445 31 21.8933 30.8738 21.3989 30.6266C20.9042 30.3792 20.4754 30.0146 20.1687 29.5556C19.8618 29.0964 19.9853 28.4754 20.4445 28.1686Z" fill="#FC1264"/>
</g>
<defs>
<clipPath id="clip0_2014_15851">
<rect width="32" height="32" fill="white"/>
</clipPath>
</defs>
</svg>
