<svg width="33" height="32" viewBox="0 0 33 32" fill="none" xmlns="http://www.w3.org/2000/svg">
<g clip-path="url(#clip0_1875_16520)">
<path fill-rule="evenodd" clip-rule="evenodd" d="M6.22139 16.7384L4.83821 17.2258C3.27998 17.7748 2.16797 19.2601 2.16797 21C2.16797 23.2091 3.95883 25 6.16797 25H24.5474L24.9205 24.9535C27.8782 24.5847 30.168 22.0582 30.168 19C30.168 15.6863 27.4817 13 24.168 13C23.9604 13 23.7559 13.0105 23.5548 13.0308L22.0977 13.1781L21.5174 11.8334C20.2886 8.98641 17.458 7 14.168 7C9.74969 7 6.16797 10.5817 6.16797 15C6.16797 15.0914 6.16949 15.1823 6.17251 15.2728L6.22139 16.7384ZM25.168 26.9381V27H6.16797C2.85426 27 0.167969 24.3137 0.167969 21C0.167969 18.3855 1.84028 16.1615 4.17362 15.3394C4.16986 15.2267 4.16797 15.1136 4.16797 15C4.16797 9.47715 8.64512 5 14.168 5C18.2844 5 21.82 7.48728 23.3537 11.0409C23.6214 11.0139 23.8931 11 24.168 11C28.5862 11 32.168 14.5817 32.168 19C32.168 23.0796 29.1143 26.446 25.168 26.9381Z" fill="#FC1264"/>
</g>
<defs>
<clipPath id="clip0_1875_16520">
<rect width="32" height="32" fill="white" transform="translate(0.167969)"/>
</clipPath>
</defs>
</svg>
