<svg width="32" height="32" viewBox="0 0 32 32" fill="none" xmlns="http://www.w3.org/2000/svg">
<path fill-rule="evenodd" clip-rule="evenodd" d="M5.40744 2.74045C6.09507 2.05281 7.0277 1.6665 8.00016 1.6665H18.6668C18.932 1.6665 19.1864 1.77186 19.3739 1.9594L27.3739 9.9594C27.5615 10.1469 27.6668 10.4013 27.6668 10.6665V26.6665C27.6668 27.639 27.2805 28.5716 26.5929 29.2592C25.9053 29.9469 24.9726 30.3332 24.0002 30.3332H8.00016C7.0277 30.3332 6.09507 29.9469 5.40744 29.2592C4.7198 28.5716 4.3335 27.639 4.3335 26.6665V5.33317C4.3335 4.36071 4.7198 3.42808 5.40744 2.74045ZM8.00016 3.6665C7.55814 3.6665 7.13421 3.8421 6.82165 4.15466C6.50909 4.46722 6.3335 4.89114 6.3335 5.33317V26.6665C6.3335 27.1085 6.50909 27.5325 6.82165 27.845C7.13421 28.1576 7.55814 28.3332 8.00016 28.3332H24.0002C24.4422 28.3332 24.8661 28.1576 25.1787 27.845C25.4912 27.5325 25.6668 27.1085 25.6668 26.6665V11.0807L18.2526 3.6665H8.00016Z" fill="#FC1264"/>
<path fill-rule="evenodd" clip-rule="evenodd" d="M18.6665 1.6665C19.2188 1.6665 19.6665 2.11422 19.6665 2.6665V9.6665H26.6665C27.2188 9.6665 27.6665 10.1142 27.6665 10.6665C27.6665 11.2188 27.2188 11.6665 26.6665 11.6665H18.6665C18.1142 11.6665 17.6665 11.2188 17.6665 10.6665V2.6665C17.6665 2.11422 18.1142 1.6665 18.6665 1.6665Z" fill="#FC1264"/>
<path fill-rule="evenodd" clip-rule="evenodd" d="M9.6665 17.3335C9.6665 16.7812 10.1142 16.3335 10.6665 16.3335H21.3332C21.8855 16.3335 22.3332 16.7812 22.3332 17.3335C22.3332 17.8858 21.8855 18.3335 21.3332 18.3335H10.6665C10.1142 18.3335 9.6665 17.8858 9.6665 17.3335Z" fill="#FC1264"/>
<path fill-rule="evenodd" clip-rule="evenodd" d="M9.6665 22.6665C9.6665 22.1142 10.1142 21.6665 10.6665 21.6665H21.3332C21.8855 21.6665 22.3332 22.1142 22.3332 22.6665C22.3332 23.2188 21.8855 23.6665 21.3332 23.6665H10.6665C10.1142 23.6665 9.6665 23.2188 9.6665 22.6665Z" fill="#FC1264"/>
<path fill-rule="evenodd" clip-rule="evenodd" d="M9.6665 12C9.6665 11.4477 10.1142 11 10.6665 11H13.3332C13.8855 11 14.3332 11.4477 14.3332 12C14.3332 12.5523 13.8855 13 13.3332 13H10.6665C10.1142 13 9.6665 12.5523 9.6665 12Z" fill="#FC1264"/>
</svg>
