<svg width="33" height="32" viewBox="0 0 33 32" fill="none" xmlns="http://www.w3.org/2000/svg">
<path fill-rule="evenodd" clip-rule="evenodd" d="M16.168 0.333313C16.7203 0.333313 17.168 0.781028 17.168 1.33331V30.6666C17.168 31.2189 16.7203 31.6666 16.168 31.6666C15.6157 31.6666 15.168 31.2189 15.168 30.6666V1.33331C15.168 0.781028 15.6157 0.333313 16.168 0.333313Z" fill="#FC1264"/>
<path fill-rule="evenodd" clip-rule="evenodd" d="M8.8277 7.32642C9.8904 6.26371 11.3317 5.66669 12.8346 5.66669H22.8346C23.3869 5.66669 23.8346 6.1144 23.8346 6.66669C23.8346 7.21897 23.3869 7.66669 22.8346 7.66669H12.8346C11.8622 7.66669 10.9295 8.053 10.2419 8.74063C9.55428 9.42826 9.16797 10.3609 9.16797 11.3334C9.16797 12.3058 9.55428 13.2384 10.2419 13.9261C10.9295 14.6137 11.8622 15 12.8346 15H19.5013C21.0042 15 22.4455 15.597 23.5082 16.6597C24.5709 17.7225 25.168 19.1638 25.168 20.6667C25.168 22.1696 24.5709 23.6109 23.5082 24.6736C22.4455 25.7363 21.0042 26.3334 19.5013 26.3334H8.16797C7.61568 26.3334 7.16797 25.8856 7.16797 25.3334C7.16797 24.7811 7.61568 24.3334 8.16797 24.3334H19.5013C20.4738 24.3334 21.4064 23.947 22.094 23.2594C22.7817 22.5718 23.168 21.6391 23.168 20.6667C23.168 19.6942 22.7817 18.7616 22.094 18.074C21.4064 17.3863 20.4738 17 19.5013 17H12.8346C11.3317 17 9.8904 16.403 8.8277 15.3403C7.76499 14.2776 7.16797 12.8362 7.16797 11.3334C7.16797 9.83046 7.76499 8.38912 8.8277 7.32642Z" fill="#FC1264"/>
</svg>
