<svg width="32" height="32" viewBox="0 0 32 32" fill="none" xmlns="http://www.w3.org/2000/svg">
<path fill-rule="evenodd" clip-rule="evenodd" d="M7.44444 6C7.06135 6 6.69395 6.15218 6.42307 6.42307C6.15218 6.69395 6 7.06135 6 7.44444V24.5858L9.18178 21.404C9.36932 21.2165 9.62367 21.1111 9.88889 21.1111H24.5556C24.9386 21.1111 25.306 20.9589 25.5769 20.688C25.8478 20.4172 26 20.0498 26 19.6667V7.44444C26 7.06135 25.8478 6.69395 25.5769 6.42307C25.306 6.15218 24.9386 6 24.5556 6H7.44444ZM5.00885 5.00885C5.65481 4.3629 6.53092 4 7.44444 4H24.5556C25.4691 4 26.3452 4.3629 26.9911 5.00885C27.6371 5.65481 28 6.53092 28 7.44444V19.6667C28 20.5802 27.6371 21.4563 26.9911 22.1023C26.3452 22.7482 25.4691 23.1111 24.5556 23.1111H10.3031L5.70711 27.7071C5.42111 27.9931 4.99099 28.0787 4.61732 27.9239C4.24364 27.7691 4 27.4045 4 27V7.44444C4 6.53092 4.3629 5.65481 5.00885 5.00885Z" fill="#FC1264"/>
</svg>
