<svg width="32" height="32" viewBox="0 0 32 32" fill="none" xmlns="http://www.w3.org/2000/svg">
<path fill-rule="evenodd" clip-rule="evenodd" d="M15.5528 1.77224C15.8343 1.63148 16.1657 1.63148 16.4472 1.77224L29.7806 8.43891C30.1193 8.6083 30.3333 8.95457 30.3333 9.33334C30.3333 9.71211 30.1193 10.0584 29.7806 10.2278L16.4472 16.8944C16.1657 17.0352 15.8343 17.0352 15.5528 16.8944L2.21946 10.2278C1.88067 10.0584 1.66667 9.71211 1.66667 9.33334C1.66667 8.95457 1.88067 8.6083 2.21946 8.43891L15.5528 1.77224ZM4.90274 9.33334L16 14.882L27.0973 9.33334L16 3.78471L4.90274 9.33334Z" fill="#FC1264"/>
<path fill-rule="evenodd" clip-rule="evenodd" d="M1.77223 22.2195C2.01922 21.7255 2.6199 21.5253 3.11388 21.7722L16 28.2153L28.8861 21.7722C29.3801 21.5253 29.9808 21.7255 30.2278 22.2195C30.4747 22.7134 30.2745 23.3141 29.7805 23.5611L16.4472 30.2278C16.1657 30.3685 15.8343 30.3685 15.5528 30.2278L2.21945 23.5611C1.72547 23.3141 1.52525 22.7134 1.77223 22.2195Z" fill="#FC1264"/>
<path fill-rule="evenodd" clip-rule="evenodd" d="M1.77223 15.5528C2.01922 15.0588 2.6199 14.8586 3.11388 15.1056L16 21.5486L28.8861 15.1056C29.3801 14.8586 29.9808 15.0588 30.2278 15.5528C30.4747 16.0468 30.2745 16.6474 29.7805 16.8944L16.4472 23.5611C16.1657 23.7019 15.8343 23.7019 15.5528 23.5611L2.21945 16.8944C1.72547 16.6474 1.52525 16.0468 1.77223 15.5528Z" fill="#FC1264"/>
</svg>
