<svg width="32" height="32" viewBox="0 0 32 32" fill="none" xmlns="http://www.w3.org/2000/svg">
<path fill-rule="evenodd" clip-rule="evenodd" d="M10.6268 14.0727L5.98061 18.719L13.3133 27.2737C13.787 27.6358 14.5847 28.0878 15.4628 28.2928C16.3699 28.5046 17.2604 28.4354 18.0187 27.8666C18.1918 27.7368 18.4023 27.6666 18.6187 27.6666C19.1484 27.6666 19.7856 27.5289 20.2554 27.2353C20.6815 26.969 20.952 26.5982 20.952 26C20.952 25.5233 21.2885 25.1129 21.7559 25.0194C22.1932 24.9319 22.8746 24.6849 23.4223 24.2599C23.8479 23.9296 24.1469 23.5336 24.2478 23.0433L19.1694 17.9648C18.2319 18.5728 16.9891 19.2233 15.6944 19.5946C14.0701 20.0603 12.0383 20.1671 10.5783 18.7071C10.3907 18.5196 10.2854 18.2652 10.2854 18C10.2854 17.7348 10.3907 17.4804 10.5783 17.2929L14.7784 13.0927C13.949 12.6359 13.2784 12.6416 12.7197 12.7968C11.9654 13.0064 11.2924 13.5196 10.6268 14.0727ZM16.2894 11.6783C14.8207 10.6732 13.4283 10.5243 12.1844 10.8698C10.9517 11.2122 9.9683 12.0181 9.31185 12.5651C9.28863 12.5845 9.2663 12.6048 9.24493 12.6262L3.9116 17.9595C3.54211 18.329 3.51938 18.9207 3.85945 19.3174L11.8594 28.6507C11.9001 28.6982 11.9452 28.7418 11.994 28.7808C12.6427 29.2998 13.7419 29.9448 15.008 30.2404C16.2061 30.5202 17.642 30.5019 18.9473 29.6561C19.6908 29.6091 20.5656 29.3999 21.3154 28.9313C22.0424 28.4769 22.6553 27.7684 22.8701 26.7834C23.4335 26.5912 24.0745 26.2854 24.6484 25.84C25.5077 25.1732 26.2854 24.1304 26.2854 22.6666C26.2854 22.4014 26.18 22.1471 25.9925 21.9595L19.9925 15.9595C19.6406 15.6076 19.0835 15.568 18.6854 15.8666C17.8625 16.4838 16.5046 17.2816 15.143 17.6721C14.2573 17.926 13.4995 17.9763 12.8918 17.8077L17.2713 13.4283C17.6179 13.1819 18.1998 12.8921 18.8205 12.8075C19.4367 12.7234 20.045 12.8405 20.5783 13.3737L26.5783 19.3737L27.9925 17.9595L21.9925 11.9595C20.9257 10.8928 19.6451 10.6765 18.5503 10.8258C17.6503 10.9485 16.8479 11.3168 16.2894 11.6783Z" fill="#FC1264"/>
<path fill-rule="evenodd" clip-rule="evenodd" d="M16 1.66666C16.5523 1.66666 17 2.11437 17 2.66666V6.66666C17 7.21894 16.5523 7.66666 16 7.66666C15.4477 7.66666 15 7.21894 15 6.66666V2.66666C15 2.11437 15.4477 1.66666 16 1.66666Z" fill="#FC1264"/>
<path fill-rule="evenodd" clip-rule="evenodd" d="M8.62622 3.29289C9.01674 2.90237 9.64991 2.90237 10.0404 3.29289L12.7071 5.95956C13.0976 6.35008 13.0976 6.98325 12.7071 7.37377C12.3166 7.7643 11.6834 7.7643 11.2929 7.37377L8.62622 4.70711C8.2357 4.31658 8.2357 3.68342 8.62622 3.29289Z" fill="#FC1264"/>
<path fill-rule="evenodd" clip-rule="evenodd" d="M23.3738 3.29289C22.9832 2.90237 22.3501 2.90237 21.9596 3.29289L19.2929 5.95956C18.9024 6.35008 18.9024 6.98325 19.2929 7.37377C19.6834 7.7643 20.3166 7.7643 20.7071 7.37377L23.3738 4.70711C23.7643 4.31658 23.7643 3.68342 23.3738 3.29289Z" fill="#FC1264"/>
<path fill-rule="evenodd" clip-rule="evenodd" d="M0.958626 16.2425C0.384679 15.6451 0.403684 14.6956 1.00108 14.1216L6.45791 8.87895C7.0553 8.305 8.00486 8.32401 8.57881 8.9214L12.1459 12.6342L10.7037 14.0199L7.48299 10.6676L2.74726 15.2175L5.96797 18.5697L4.52574 19.9554L0.958626 16.2425Z" fill="#FC1264"/>
<path fill-rule="evenodd" clip-rule="evenodd" d="M30.5151 16.2952C31.0536 15.6932 31.0188 14.773 30.4364 14.2134L24.9644 8.95625C24.37 8.38509 23.4259 8.40074 22.8507 8.99129L19.9503 11.9689L21.383 13.3644L23.9369 10.7425L28.7028 15.3214L23.9213 20.6666L25.412 22L30.5151 16.2952Z" fill="#FC1264"/>
</svg>
