<svg width="32" height="32" viewBox="0 0 32 32" fill="none" xmlns="http://www.w3.org/2000/svg">
<path fill-rule="evenodd" clip-rule="evenodd" d="M1.95956 1.95956C2.35009 1.56903 2.98325 1.56903 3.37378 1.95956L13.4884 12.0742C13.879 12.4647 13.879 13.0979 13.4884 13.4884C13.0979 13.879 12.4648 13.879 12.0742 13.4884L1.95956 3.37377C1.56904 2.98325 1.56904 2.35008 1.95956 1.95956Z" fill="#FC1264"/>
<path fill-rule="evenodd" clip-rule="evenodd" d="M14.6667 13C13.7462 13 13 13.7462 13 14.6667C13 15.5871 13.7462 16.3333 14.6667 16.3333C15.5871 16.3333 16.3333 15.5871 16.3333 14.6667C16.3333 13.7462 15.5871 13 14.6667 13ZM11 14.6667C11 12.6416 12.6416 11 14.6667 11C16.6917 11 18.3333 12.6416 18.3333 14.6667C18.3333 16.6917 16.6917 18.3333 14.6667 18.3333C12.6416 18.3333 11 16.6917 11 14.6667Z" fill="#FC1264"/>
<path fill-rule="evenodd" clip-rule="evenodd" d="M24.6262 15.2929C25.0168 14.9024 25.6499 14.9024 26.0404 15.2929L30.0404 19.2929C30.431 19.6834 30.431 20.3166 30.0404 20.7071L20.7071 30.0404C20.3166 30.431 19.6834 30.431 19.2929 30.0404L15.2929 26.0404C14.9024 25.6499 14.9024 25.0168 15.2929 24.6262L24.6262 15.2929ZM17.4142 25.3333L20 27.9191L27.9191 20L25.3333 17.4142L17.4142 25.3333Z" fill="#FC1264"/>
<path fill-rule="evenodd" clip-rule="evenodd" d="M1.95955 1.95956C2.20589 1.71323 2.56266 1.61285 2.9013 1.69459L22.2346 6.36125C22.6132 6.45262 22.9042 6.7554 22.9806 7.13722L24.9806 17.1372C25.0461 17.4651 24.9435 17.804 24.7071 18.0404L18.0404 24.7071C17.804 24.9435 17.4651 25.0462 17.1372 24.9806L7.13721 22.9806C6.75539 22.9042 6.45261 22.6132 6.36125 22.2346L1.69458 2.90131C1.61284 2.56267 1.71322 2.20589 1.95955 1.95956ZM4.0227 4.02271L8.15558 21.1446L17.0047 22.9145L22.9145 17.0047L21.1446 8.15559L4.0227 4.02271Z" fill="#FC1264"/>
</svg>
