<svg width="32" height="32" viewBox="0 0 32 32" fill="none" xmlns="http://www.w3.org/2000/svg">
<path fill-rule="evenodd" clip-rule="evenodd" d="M13 2V6H19V2H13ZM12 0C11.4477 0 11 0.447715 11 1V7C11 7.55228 11.4477 8 12 8H20C20.5523 8 21 7.55228 21 7V1C21 0.447715 20.5523 0 20 0H12Z" fill="#FC1264"/>
<path fill-rule="evenodd" clip-rule="evenodd" d="M13 14V18H19V14H13ZM12 12C11.4477 12 11 12.4477 11 13V19C11 19.5523 11.4477 20 12 20H20C20.5523 20 21 19.5523 21 19V13C21 12.4477 20.5523 12 20 12H12Z" fill="#FC1264"/>
<path fill-rule="evenodd" clip-rule="evenodd" d="M13 26V30H19V26H13ZM12 24C11.4477 24 11 24.4477 11 25V31C11 31.5523 11.4477 32 12 32H20C20.5523 32 21 31.5523 21 31V25C21 24.4477 20.5523 24 20 24H12Z" fill="#FC1264"/>
<path fill-rule="evenodd" clip-rule="evenodd" d="M23.4999 4C23.4999 3.44772 23.9476 3 24.4999 3H29.9999C31.1045 3 31.9999 3.89543 31.9999 5V15C31.9999 16.1046 31.1045 17 29.9999 17H26.7619L27.6401 17.7318C28.0644 18.0853 28.1217 18.7159 27.7681 19.1402C27.4146 19.5645 26.784 19.6218 26.3597 19.2682L23.5441 16.9219C22.9684 16.4421 22.9684 15.5579 23.5441 15.0781L26.3597 12.7318C26.784 12.3782 27.4146 12.4355 27.7681 12.8598C28.1217 13.2841 28.0644 13.9147 27.6401 14.2682L26.7619 15H29.9999V5H24.4999C23.9476 5 23.4999 4.55228 23.4999 4Z" fill="#FC1264"/>
<path fill-rule="evenodd" clip-rule="evenodd" d="M8.50011 16C8.50011 15.4477 8.05239 15 7.50011 15H2.00011C0.895536 15 0.000104904 15.8954 0.000104904 17V27C0.000104904 28.1046 0.895536 29 2.00011 29H5.73806L4.85992 29.7318C4.43564 30.0853 4.37832 30.7159 4.73188 31.1402C5.08545 31.5645 5.71601 31.6218 6.14029 31.2682L8.95592 28.9219C9.53162 28.4421 9.53162 27.5579 8.95592 27.0781L6.14029 24.7318C5.71601 24.3782 5.08545 24.4355 4.73188 24.8598C4.37832 25.2841 4.43564 25.9147 4.85992 26.2682L5.73806 27H2.00011V17H7.50011C8.05239 17 8.50011 16.5523 8.50011 16Z" fill="#FC1264"/>
</svg>
