<svg width="32" height="32" viewBox="0 0 32 32" fill="none" xmlns="http://www.w3.org/2000/svg">
<g clip-path="url(#clip0_7399_55235)">
<path fill-rule="evenodd" clip-rule="evenodd" d="M16 15C15.4477 15 15 15.4477 15 16C15 16.5523 15.4477 17 16 17C16.5523 17 17 16.5523 17 16C17 15.4477 16.5523 15 16 15ZM13 16C13 14.3431 14.3431 13 16 13C17.6569 13 19 14.3431 19 16C19 17.6569 17.6569 19 16 19C14.3431 19 13 17.6569 13 16Z" fill="#FC1264"/>
<path fill-rule="evenodd" clip-rule="evenodd" d="M16 8C15.8312 8 15.6694 8.06705 15.55 8.18639C15.4307 8.30573 15.3636 8.46759 15.3636 8.63636V8.77944C15.3618 9.23775 15.226 9.68551 14.9729 10.0676C14.7199 10.4497 14.3606 10.7495 13.9394 10.93C13.8608 10.9637 13.7784 10.9871 13.6943 10.9998C13.3164 11.1288 12.9107 11.1598 12.5157 11.0881C12.0536 11.0044 11.6273 10.7841 11.2916 10.4558L11.2838 10.4481L11.2347 10.3989C11.1756 10.3398 11.105 10.2924 11.0278 10.2604C10.9505 10.2284 10.8677 10.2119 10.7841 10.2119C10.7005 10.2119 10.6177 10.2284 10.5404 10.2604C10.4631 10.2924 10.393 10.3394 10.3339 10.3985L10.3331 10.3993C10.2739 10.4584 10.227 10.5286 10.1949 10.6059C10.1629 10.6831 10.1464 10.7659 10.1464 10.8495C10.1464 10.9332 10.1629 11.016 10.1949 11.0932C10.227 11.1705 10.2739 11.2407 10.3331 11.2998L10.3904 11.3571C10.7187 11.6927 10.9389 12.1191 11.0227 12.5811C11.1046 13.0328 11.0524 13.4983 10.8729 13.9202C10.7081 14.3503 10.4205 14.7227 10.0455 14.9909C9.662 15.2652 9.2048 15.4178 8.73338 15.4288L8.71 15.4291H8.63636C8.46759 15.4291 8.30573 15.4961 8.18639 15.6155C8.06705 15.7348 8 15.8967 8 16.0655C8 16.2342 8.06705 16.3961 8.18639 16.5154C8.30573 16.6348 8.46759 16.7018 8.63636 16.7018H8.77944C9.23775 16.7036 9.68551 16.8395 10.0676 17.0925C10.4483 17.3446 10.7472 17.702 10.9279 18.1212C11.1158 18.5495 11.1716 19.0241 11.0881 19.4843C11.0044 19.9464 10.7841 20.3727 10.4558 20.7084L10.4481 20.7162L10.3989 20.7653C10.3398 20.8244 10.2924 20.895 10.2604 20.9722C10.2284 21.0495 10.2119 21.1323 10.2119 21.2159C10.2119 21.2995 10.2284 21.3823 10.2604 21.4596C10.2924 21.5369 10.3394 21.607 10.3985 21.6661L10.3993 21.6669C10.4584 21.7261 10.5286 21.773 10.6059 21.8051C10.6831 21.8371 10.7659 21.8536 10.8495 21.8536C10.9332 21.8536 11.016 21.8371 11.0932 21.8051C11.1705 21.773 11.2407 21.7261 11.2998 21.6669L11.3571 21.6096C11.6927 21.2813 12.1191 21.0611 12.5811 20.9773C13.0328 20.8954 13.4983 20.9476 13.9202 21.1271C14.3503 21.2919 14.7227 21.5795 14.9909 21.9545C15.2652 22.338 15.4178 22.7952 15.4288 23.2666L15.4291 23.29V23.3636C15.4291 23.5324 15.4961 23.6943 15.6155 23.8136C15.7348 23.933 15.8967 24 16.0655 24C16.2342 24 16.3961 23.933 16.5154 23.8136C16.6348 23.6943 16.7018 23.5324 16.7018 23.3636V23.2245L16.7018 23.2206C16.7037 22.7623 16.8395 22.3145 17.0925 21.9324C17.3446 21.5518 17.702 21.2528 18.1212 21.0721C18.5495 20.8842 19.0241 20.8284 19.4843 20.9119C19.9464 20.9956 20.3727 21.2159 20.7084 21.5442L20.7162 21.5519L20.7653 21.6011C20.8244 21.6602 20.895 21.7076 20.9722 21.7396C21.0495 21.7716 21.1323 21.7881 21.2159 21.7881C21.2995 21.7881 21.3823 21.7716 21.4596 21.7396C21.5369 21.7076 21.607 21.6606 21.6661 21.6015L21.6669 21.6007C21.7261 21.5416 21.773 21.4714 21.8051 21.3941C21.8371 21.3169 21.8536 21.2341 21.8536 21.1505C21.8536 21.0668 21.8371 20.984 21.8051 20.9068C21.773 20.8295 21.7261 20.7593 21.6669 20.7002L21.6096 20.6429C21.2813 20.3073 21.0611 19.8809 20.9773 19.4189C20.8939 18.9586 20.9497 18.484 21.1375 18.0557C21.3183 17.6366 21.6172 17.2791 21.9978 17.0271C22.3799 16.774 22.8277 16.6382 23.286 16.6364L23.29 16.6364L23.3636 16.6364C23.5324 16.6364 23.6943 16.5693 23.8136 16.45C23.933 16.3306 24 16.1688 24 16C24 15.8312 23.933 15.6694 23.8136 15.55C23.6943 15.4307 23.5324 15.3636 23.3636 15.3636H23.2245L23.2206 15.3636C22.7623 15.3618 22.3145 15.226 21.9324 14.9729C21.5503 14.7199 21.2505 14.3606 21.07 13.9394C21.0363 13.8608 21.0129 13.7784 21.0002 13.6943C20.8712 13.3164 20.8402 12.9107 20.9119 12.5157C20.9956 12.0536 21.2159 11.6273 21.5442 11.2916L21.5519 11.2838L21.6011 11.2347C21.6602 11.1756 21.7076 11.105 21.7396 11.0278C21.7716 10.9505 21.7881 10.8677 21.7881 10.7841C21.7881 10.7005 21.7716 10.6177 21.7396 10.5404C21.7076 10.4631 21.6606 10.393 21.6015 10.3339L21.6007 10.3331C21.5416 10.2739 21.4714 10.227 21.3941 10.1949C21.3169 10.1629 21.2341 10.1464 21.1505 10.1464C21.0668 10.1464 20.984 10.1629 20.9068 10.1949C20.8295 10.227 20.7593 10.2739 20.7002 10.3331L20.6429 10.3904C20.3073 10.7187 19.8809 10.9389 19.4189 11.0227C18.9586 11.1061 18.484 11.0503 18.0557 10.8625C17.6366 10.6817 17.2791 10.3828 17.0271 10.0022C16.774 9.62006 16.6382 9.17229 16.6364 8.71399L16.6364 8.71V8.63636C16.6364 8.46759 16.5693 8.30573 16.45 8.18639C16.3306 8.06705 16.1688 8 16 8ZM22.0545 18.4545L22.9694 18.8583C22.9412 18.9223 22.9327 18.9933 22.9452 19.0621C22.9575 19.1297 22.9893 19.1921 23.0368 19.2417L23.0804 19.2852C23.3255 19.5301 23.5199 19.8208 23.6526 20.1409C23.7853 20.4609 23.8536 20.804 23.8536 21.1505C23.8536 21.4969 23.7853 21.84 23.6526 22.16C23.5199 22.4801 23.3255 22.7708 23.0804 23.0157L22.3741 22.3086L23.0811 23.0149C22.8363 23.26 22.5455 23.4545 22.2255 23.5871C21.9054 23.7198 21.5624 23.7881 21.2159 23.7881C20.8694 23.7881 20.5264 23.7198 20.2063 23.5871C19.8863 23.4545 19.5955 23.26 19.3507 23.0149L19.3072 22.9714C19.2576 22.9239 19.1951 22.892 19.1275 22.8798C19.0587 22.8673 18.9877 22.8757 18.9238 22.904L18.914 22.9083C18.8512 22.9352 18.7977 22.9798 18.76 23.0367C18.7226 23.0932 18.7024 23.1593 18.7018 23.2271V23.3636C18.7018 24.0628 18.4241 24.7334 17.9296 25.2278C17.4352 25.7222 16.7647 26 16.0655 26C15.3662 26 14.6957 25.7222 14.2013 25.2278C13.7069 24.7334 13.4291 24.0628 13.4291 23.3636V23.3055C13.426 23.2381 13.4035 23.1729 13.3641 23.118C13.3233 23.0608 13.2662 23.0173 13.2003 22.9931C13.1805 22.9858 13.161 22.9779 13.1417 22.9694C13.0777 22.9412 13.0067 22.9327 12.9379 22.9452C12.8703 22.9575 12.8079 22.9894 12.7583 23.0368L12.7148 23.0804C12.7146 23.0805 12.7149 23.0802 12.7148 23.0804C12.47 23.3253 12.179 23.52 11.8591 23.6526C11.5391 23.7853 11.196 23.8536 10.8495 23.8536C10.5031 23.8536 10.16 23.7853 9.83998 23.6526C9.51993 23.5199 9.22917 23.3255 8.98432 23.0804C8.73957 22.8357 8.54539 22.5452 8.41286 22.2255C8.28018 21.9054 8.21189 21.5624 8.21189 21.2159C8.21189 20.8694 8.28018 20.5264 8.41286 20.2063C8.54546 19.8865 8.73978 19.5958 8.98471 19.3511C8.98484 19.3509 8.98458 19.3512 8.98471 19.3511L9.02864 19.3071C9.07611 19.2576 9.10797 19.1951 9.12023 19.1275C9.13271 19.0587 9.12428 18.9877 9.09605 18.9238L9.09172 18.914C9.06483 18.8512 9.02023 18.7977 8.96332 18.76C8.90681 18.7226 8.84065 18.7024 8.77289 18.7018H8.63636C7.93716 18.7018 7.26659 18.4241 6.77217 17.9296C6.27776 17.4352 6 16.7647 6 16.0655C6 15.3662 6.27776 14.6957 6.77217 14.2013C7.26659 13.7069 7.93716 13.4291 8.63636 13.4291H8.6945C8.76191 13.426 8.82706 13.4035 8.88204 13.3641C8.93917 13.3233 8.98268 13.2662 9.00692 13.2003C9.01419 13.1805 9.02209 13.161 9.03059 13.1417C9.05883 13.0777 9.06725 13.0067 9.05477 12.9379C9.04252 12.8703 9.01065 12.8079 8.96317 12.7583L8.91965 12.7148C8.67453 12.4699 8.48008 12.1792 8.3474 11.8591C8.21473 11.5391 8.14644 11.196 8.14644 10.8495C8.14644 10.5031 8.21473 10.16 8.3474 9.83998C8.48 9.5201 8.67432 9.22948 8.91926 8.98471C9.16402 8.73978 9.45464 8.54546 9.77452 8.41286C10.0946 8.28018 10.4376 8.21189 10.7841 8.21189C11.1305 8.21189 11.4736 8.28018 11.7937 8.41286C12.1137 8.54553 12.4045 8.73998 12.6493 8.9851L12.6928 9.02863C12.7424 9.0761 12.8049 9.10797 12.8725 9.12023C12.9413 9.13271 13.0123 9.12428 13.0762 9.09605C13.1276 9.0734 13.1805 9.05517 13.2346 9.04148C13.2619 9.01927 13.2858 8.99296 13.3055 8.96332C13.3429 8.90677 13.3631 8.84057 13.3636 8.77277V8.63636C13.3636 7.93716 13.6414 7.26659 14.1358 6.77217C14.6302 6.27776 15.3008 6 16 6C16.6992 6 17.3698 6.27776 17.8642 6.77217C18.3586 7.26659 18.6364 7.93716 18.6364 8.63636V8.70744C18.6369 8.7752 18.6571 8.84135 18.6945 8.89787C18.7322 8.95478 18.7857 8.99943 18.8485 9.02631L18.8583 9.03054C18.9223 9.05878 18.9933 9.06725 19.0621 9.05477C19.1297 9.04252 19.1921 9.01065 19.2417 8.96319L19.2852 8.91965C19.2854 8.91952 19.2851 8.91978 19.2852 8.91965C19.53 8.67471 19.821 8.48 20.1409 8.3474C20.4609 8.21473 20.804 8.14644 21.1505 8.14644C21.4969 8.14644 21.84 8.21473 22.16 8.3474C22.4797 8.47993 22.7702 8.67412 23.0149 8.91886C23.26 9.16371 23.4545 9.45447 23.5871 9.77452C23.7198 10.0946 23.7881 10.4376 23.7881 10.7841C23.7881 11.1306 23.7198 11.4736 23.5871 11.7937C23.4545 12.1135 23.2602 12.4042 23.0153 12.6489C23.0152 12.6491 23.0154 12.6488 23.0153 12.6489L22.9714 12.6928C22.9239 12.7424 22.892 12.8049 22.8798 12.8725C22.8673 12.9413 22.8757 13.0123 22.904 13.0762C22.9266 13.1275 22.9448 13.1805 22.9585 13.2346C22.9807 13.2619 23.007 13.2858 23.0367 13.3055C23.0932 13.3429 23.1594 13.3631 23.2272 13.3636H23.3636C24.0628 13.3636 24.7334 13.6414 25.2278 14.1358C25.7222 14.6302 26 15.3008 26 16C26 16.6992 25.7222 17.3698 25.2278 17.8642C24.7334 18.3586 24.0628 18.6364 23.3636 18.6364H23.2926C23.2248 18.6369 23.1586 18.6571 23.1021 18.6945C23.0452 18.7322 23.0006 18.7857 22.9737 18.8485L22.0545 18.4545Z" fill="#FC1264"/>
<path fill-rule="evenodd" clip-rule="evenodd" d="M16 3C9.45165 3 4.03266 7.84256 3.13165 14.1416C3.05345 14.6883 2.54685 15.0681 2.00013 14.9899C1.45341 14.9117 1.0736 14.4051 1.1518 13.8584C2.19172 6.58826 8.44237 1 16 1C19.1003 1 21.9837 1.94168 24.376 3.55476C24.8339 3.86351 24.9549 4.48503 24.6461 4.94294C24.3373 5.40086 23.7158 5.52177 23.2579 5.21301C21.1855 3.81568 18.6895 3 16 3ZM27.6263 8.13439C28.1043 7.85785 28.7161 8.02121 28.9926 8.49927C30.2695 10.7066 31 13.2695 31 16C31 19.4844 29.8107 22.6938 27.8165 25.2405C27.476 25.6753 26.8475 25.7518 26.4127 25.4113C25.9778 25.0709 25.9014 24.4423 26.2418 24.0075C27.9702 21.8002 29 19.0217 29 16C29 13.6305 28.3669 11.4118 27.2614 9.50073C26.9849 9.02267 27.1482 8.41094 27.6263 8.13439ZM2.21031 18.6314C2.74414 18.4899 3.29166 18.8079 3.43321 19.3417C4.90784 24.9028 9.97669 29 16 29C17.9956 29 19.8836 28.551 21.5709 27.7495C22.0697 27.5125 22.6662 27.7248 22.9032 28.2236C23.1402 28.7225 22.9279 29.319 22.429 29.556C20.4793 30.4822 18.2987 31 16 31C9.04703 31 3.20134 26.2703 1.50002 19.8543C1.35847 19.3205 1.67647 18.773 2.21031 18.6314Z" fill="#FC1264"/>
<path fill-rule="evenodd" clip-rule="evenodd" d="M22.5528 0.105792C23.0468 -0.141197 23.6474 0.059027 23.8944 0.553005L25.8944 4.55301C26.0494 4.86299 26.0329 5.23113 25.8507 5.52595C25.6684 5.82077 25.3466 6.00022 25 6.00022H20C19.4477 6.00022 19 5.5525 19 5.00022C19 4.44793 19.4477 4.00022 20 4.00022H23.382L22.1056 1.44743C21.8586 0.953454 22.0588 0.352781 22.5528 0.105792Z" fill="#FC1264"/>
<path fill-rule="evenodd" clip-rule="evenodd" d="M31.4488 23.6839C31.6235 24.2078 31.3403 24.7741 30.8164 24.9488L26.3164 26.4488C26.0114 26.5504 25.6762 26.4993 25.4154 26.3113C25.1547 26.1234 25.0001 25.8215 25.0001 25.5001L25.0002 21.0006C25.0002 20.4483 25.4479 20.0006 26.0002 20.0006C26.5524 20.0006 27.0002 20.4483 27.0002 21.0006L27.0001 24.1127L30.1839 23.0514C30.7079 22.8768 31.2742 23.1599 31.4488 23.6839Z" fill="#FC1264"/>
<path fill-rule="evenodd" clip-rule="evenodd" d="M1.33042 24.9853C0.786117 24.8918 0.420705 24.3747 0.514251 23.8304L1.31056 19.1971C1.36576 18.8758 1.57405 18.6017 1.86871 18.4624C2.16337 18.3231 2.50743 18.3361 2.7907 18.4973L6.72579 20.7367C7.20579 21.0098 7.37347 21.6204 7.10032 22.1004C6.82716 22.5804 6.2166 22.7481 5.7366 22.4749L3.04024 20.9405L2.48535 24.1692C2.39181 24.7135 1.87473 25.0789 1.33042 24.9853Z" fill="#FC1264"/>
</g>
<defs>
<clipPath id="clip0_7399_55235">
<rect width="32" height="32" fill="white"/>
</clipPath>
</defs>
</svg>
