<svg width="32" height="32" viewBox="0 0 32 32" fill="none" xmlns="http://www.w3.org/2000/svg">
<path fill-rule="evenodd" clip-rule="evenodd" d="M11.9998 27.6665C11.8157 27.6665 11.6665 27.8157 11.6665 27.9998C11.6665 28.1839 11.8157 28.3332 11.9998 28.3332C12.1839 28.3332 12.3332 28.1839 12.3332 27.9998C12.3332 27.8157 12.1839 27.6665 11.9998 27.6665ZM9.6665 27.9998C9.6665 26.7112 10.7112 25.6665 11.9998 25.6665C13.2885 25.6665 14.3332 26.7112 14.3332 27.9998C14.3332 29.2885 13.2885 30.3332 11.9998 30.3332C10.7112 30.3332 9.6665 29.2885 9.6665 27.9998Z" fill="#FC1264"/>
<path fill-rule="evenodd" clip-rule="evenodd" d="M26.6668 27.6665C26.4827 27.6665 26.3335 27.8157 26.3335 27.9998C26.3335 28.1839 26.4827 28.3332 26.6668 28.3332C26.8509 28.3332 27.0002 28.1839 27.0002 27.9998C27.0002 27.8157 26.8509 27.6665 26.6668 27.6665ZM24.3335 27.9998C24.3335 26.7112 25.3782 25.6665 26.6668 25.6665C27.9555 25.6665 29.0002 26.7112 29.0002 27.9998C29.0002 29.2885 27.9555 30.3332 26.6668 30.3332C25.3782 30.3332 24.3335 29.2885 24.3335 27.9998Z" fill="#FC1264"/>
<path fill-rule="evenodd" clip-rule="evenodd" d="M0.333496 1.3335C0.333496 0.781211 0.781211 0.333496 1.3335 0.333496H6.66683C7.14346 0.333496 7.55384 0.669881 7.64738 1.13724L8.82084 7.00016H30.6668C30.9649 7.00016 31.2473 7.13309 31.4373 7.36272C31.6273 7.59235 31.705 7.89474 31.6491 8.18749L29.5144 19.3817C29.3467 20.2257 28.8875 20.9839 28.2172 21.5235C27.5495 22.061 26.7148 22.3475 25.858 22.3335H12.9157C12.0589 22.3475 11.2241 22.061 10.5565 21.5235C9.88628 20.984 9.42714 20.226 9.25942 19.3821C9.25939 19.382 9.25945 19.3823 9.25942 19.3821L7.03024 8.24454C7.02246 8.21356 7.01612 8.18201 7.01131 8.14996L5.84715 2.3335H1.3335C0.781211 2.3335 0.333496 1.88578 0.333496 1.3335ZM9.22114 9.00016L11.221 18.992C11.2972 19.3757 11.5059 19.7203 11.8106 19.9656C12.1153 20.2109 12.4966 20.3412 12.8877 20.3337L12.9068 20.3335H25.8668L25.886 20.3337C26.2771 20.3412 26.6583 20.2109 26.963 19.9656C27.2669 19.721 27.4753 19.3776 27.552 18.9953C27.5522 18.9942 27.5524 18.9931 27.5527 18.992L29.4581 9.00016H9.22114Z" fill="#FC1264"/>
</svg>
