<svg width="33" height="32" viewBox="0 0 33 32" fill="none" xmlns="http://www.w3.org/2000/svg">
<path fill-rule="evenodd" clip-rule="evenodd" d="M3.16797 4C3.16797 3.44772 3.61568 3 4.16797 3H13.5013C14.0536 3 14.5013 3.44772 14.5013 4V13.3333C14.5013 13.8856 14.0536 14.3333 13.5013 14.3333H4.16797C3.61568 14.3333 3.16797 13.8856 3.16797 13.3333V4ZM5.16797 5V12.3333H12.5013V5H5.16797Z" fill="#FC1264"/>
<path fill-rule="evenodd" clip-rule="evenodd" d="M17.8345 4C17.8345 3.44772 18.2822 3 18.8345 3H28.1678C28.7201 3 29.1678 3.44772 29.1678 4V13.3333C29.1678 13.8856 28.7201 14.3333 28.1678 14.3333H18.8345C18.2822 14.3333 17.8345 13.8856 17.8345 13.3333V4ZM19.8345 5V12.3333H27.1678V5H19.8345Z" fill="#FC1264"/>
<path fill-rule="evenodd" clip-rule="evenodd" d="M17.8345 18.6666C17.8345 18.1143 18.2822 17.6666 18.8345 17.6666H28.1678C28.7201 17.6666 29.1678 18.1143 29.1678 18.6666V28C29.1678 28.5522 28.7201 29 28.1678 29H18.8345C18.2822 29 17.8345 28.5522 17.8345 28V18.6666ZM19.8345 19.6666V27H27.1678V19.6666H19.8345Z" fill="#FC1264"/>
<path fill-rule="evenodd" clip-rule="evenodd" d="M3.16797 18.6666C3.16797 18.1143 3.61568 17.6666 4.16797 17.6666H13.5013C14.0536 17.6666 14.5013 18.1143 14.5013 18.6666V28C14.5013 28.5522 14.0536 29 13.5013 29H4.16797C3.61568 29 3.16797 28.5522 3.16797 28V18.6666ZM5.16797 19.6666V27H12.5013V19.6666H5.16797Z" fill="#FC1264"/>
</svg>
