<svg width="33" height="32" viewBox="0 0 33 32" fill="none" xmlns="http://www.w3.org/2000/svg">
<path fill-rule="evenodd" clip-rule="evenodd" d="M13.9207 2.26055C14.0812 1.89942 14.4393 1.66669 14.8345 1.66669C16.1606 1.66669 17.4323 2.19347 18.37 3.13115C19.3077 4.06884 19.8345 5.34061 19.8345 6.66669V11H26.3759C26.9053 10.9949 27.4296 11.1045 27.9127 11.3213C28.3976 11.539 28.8294 11.8594 29.1782 12.2605C29.527 12.6616 29.7844 13.1338 29.9326 13.6442C30.0808 14.1547 30.1162 14.6912 30.0365 15.2168L28.1965 27.2166C28.1965 27.2169 28.1965 27.2164 28.1965 27.2166C28.0638 28.0906 27.6196 28.8881 26.946 29.4606C26.2738 30.032 25.4181 30.3418 24.536 30.3334H5.50114C4.52868 30.3334 3.59605 29.947 2.90841 29.2594C2.22078 28.5718 1.83447 27.6391 1.83447 26.6667V17.3334C1.83447 16.3609 2.22078 15.4283 2.90841 14.7406C3.59605 14.053 4.52868 13.6667 5.50114 13.6667H8.85127L13.9207 2.26055ZM10.5011 14.8789L15.4555 3.73165C16.0195 3.851 16.5419 4.13147 16.9558 4.54537C17.5184 5.10798 17.8345 5.87104 17.8345 6.66669V12C17.8345 12.5523 18.2822 13 18.8345 13H26.3811L26.3925 13C26.6341 12.9972 26.8734 13.047 27.0938 13.146C27.3142 13.2449 27.5105 13.3906 27.669 13.5729C27.8275 13.7552 27.9446 13.9698 28.0119 14.2018C28.0792 14.4337 28.0954 14.6775 28.0592 14.9162C28.0592 14.9161 28.0592 14.9163 28.0592 14.9162L26.2191 26.9167C26.1588 27.3142 25.957 27.6764 25.6507 27.9368C25.3444 28.1971 24.9544 28.338 24.5524 28.3334L10.5011 28.3334V14.8789ZM8.50114 28.3334V15.6667H5.50114C5.05911 15.6667 4.63519 15.8423 4.32263 16.1548C4.01007 16.4674 3.83447 16.8913 3.83447 17.3334V26.6667C3.83447 27.1087 4.01007 27.5326 4.32263 27.8452C4.63519 28.1578 5.05911 28.3334 5.50114 28.3334H8.50114Z" fill="#FC1264"/>
</svg>
