<svg width="33" height="32" viewBox="0 0 33 32" fill="none" xmlns="http://www.w3.org/2000/svg">
<path fill-rule="evenodd" clip-rule="evenodd" d="M10.8134 3.81234C11.6976 3.62583 12.6144 3.6113 13.5129 3.775C14.9128 4.03007 16.2017 4.70571 17.2079 5.71188C18.2141 6.71805 18.8897 8.00697 19.1448 9.40687C19.3998 10.8068 19.2222 12.2512 18.6356 13.5475C18.464 13.9268 18.5452 14.3726 18.8395 14.6669L28.0528 23.8803C28.3957 24.2231 28.5884 24.6882 28.5884 25.1731C28.5884 25.6581 28.3957 26.1231 28.0528 26.466C27.7099 26.8089 27.2449 27.0016 26.76 27.0016C26.275 27.0016 25.81 26.8089 25.4671 26.466L16.2537 17.2527C15.9594 16.9584 15.5136 16.8772 15.1343 17.0488C13.838 17.6354 12.3936 17.813 10.9937 17.558C9.59378 17.3029 8.30486 16.6272 7.29869 15.6211C6.29251 14.6149 5.61687 13.326 5.36181 11.9261C5.1981 11.0276 5.21264 10.1108 5.39915 9.22656L9.28658 13.114C9.72275 13.5415 10.3092 13.781 10.92 13.781C11.5307 13.781 12.1171 13.5415 12.5533 13.114L12.5604 13.107L14.7008 10.9665C15.1283 10.5303 15.3678 9.9439 15.3678 9.33314C15.3678 8.72239 15.1283 8.13598 14.7008 7.69981L14.6938 7.69267L10.8134 3.81234ZM13.8714 1.8074C12.0715 1.47946 10.2145 1.70783 8.54768 2.46208C8.2486 2.59742 8.03499 2.87093 7.97615 3.19389C7.9173 3.51685 8.02072 3.84812 8.25285 4.08025L13.2748 9.1022C13.3344 9.16426 13.3678 9.24701 13.3678 9.33314C13.3678 9.41929 13.3344 9.50204 13.2748 9.5641L11.1509 11.688C11.0889 11.7476 11.0061 11.781 10.92 11.781C10.8338 11.781 10.7511 11.7476 10.689 11.688L5.66706 6.66604C5.43493 6.43391 5.10366 6.3305 4.7807 6.38934C4.45774 6.44818 4.18423 6.66179 4.04889 6.96087C3.29464 8.62765 3.06627 10.4847 3.39421 12.2846C3.72215 14.0845 4.59082 15.7416 5.88447 17.0353C7.17812 18.3289 8.83531 19.1976 10.6352 19.5256C12.2039 19.8114 13.8161 19.6746 15.3079 19.1353L24.0528 27.8802C24.7708 28.5982 25.7446 29.0016 26.76 29.0016C27.7753 29.0016 28.7491 28.5982 29.4671 27.8802C30.185 27.1623 30.5884 26.1885 30.5884 25.1731C30.5884 24.1578 30.185 23.184 29.4671 22.466L20.7222 13.7211C21.2614 12.2293 21.3982 10.6171 21.1124 9.04837C20.7844 7.2485 19.9157 5.59132 18.6221 4.29767C17.3284 3.00401 15.6713 2.13534 13.8714 1.8074Z" fill="#FC1264"/>
</svg>
