<svg width="32" height="32" viewBox="0 0 32 32" fill="none" xmlns="http://www.w3.org/2000/svg">
<path d="M22.7 29C22.1 29 21.7 28.6 21.7 28V25.3C21.7 24.1 21.2 23.1 20.4 22.2C19.6 21.3 18.5 21 17.3 21H6.69999C5.49999 21 4.49999 21.5 3.59999 22.3C2.69999 23.1 2.29999 24.2 2.29999 25.4V28C2.29999 28.6 1.89999 29 1.29999 29C0.699988 29 0.299988 28.6 0.299988 28V25.3C0.299988 23.6 0.999988 22 2.19999 20.8C3.39999 19.7 4.99999 19 6.69999 19H17.4C19.1 19 20.7 19.7 21.9 20.9C23.1 22.1 23.8 23.7 23.8 25.4V28C23.7 28.6 23.2 29 22.7 29Z" fill="#FC1264"/>
<path d="M12 15.7C8.50001 15.7 5.70001 12.9 5.70001 9.4C5.70001 5.9 8.50001 3 12 3C15.5 3 18.3 5.8 18.3 9.3C18.3 12.8 15.5 15.7 12 15.7ZM12 5C9.60001 5 7.70001 6.9 7.70001 9.3C7.70001 11.7 9.60001 13.6 12 13.6C14.4 13.6 16.3 11.7 16.3 9.3C16.3 6.9 14.4 5 12 5Z" fill="#FC1264"/>
<path d="M30.7 29.0001C30.1 29.0001 29.7 28.6001 29.7 28.0001V25.3001C29.7 24.3001 29.4 23.4001 28.8 22.6001C28.2 21.8001 27.4 21.3001 26.5 21.1001C26 21.0001 25.6 20.4001 25.8 19.9001C25.9 19.4001 26.5 19.0001 27 19.2001C28.4 19.5001 29.6 20.3001 30.4 21.5001C31.3 22.6001 31.7 24.0001 31.7 25.4001V28.0001C31.7 28.6001 31.2 29.0001 30.7 29.0001Z" fill="#FC1264"/>
<path d="M21.3 15.5001C20.9 15.5001 20.4 15.2001 20.3 14.7001C20.2 14.2001 20.5 13.6001 21 13.5001C21.9 13.3001 22.8 12.7001 23.3 12.0001C23.8 11.3001 24.2 10.3001 24.2 9.30006C24.2 8.30006 23.9 7.40006 23.3 6.60006C22.7 5.80006 21.9 5.30006 21 5.10006C20.5 5.00006 20.1 4.40006 20.3 3.90006C20.4 3.40006 21 3.00006 21.5 3.20006C22.9 3.50006 24.1 4.30006 24.9 5.50006C25.8 6.60006 26.2 8.00006 26.2 9.40006C26.2 10.8001 25.7 12.2001 24.9 13.3001C24 14.4001 22.8 15.2001 21.5 15.6001C21.5 15.5001 21.4 15.5001 21.3 15.5001Z" fill="#FC1264"/>
</svg>
