<?xml version="1.0" encoding="UTF-8" standalone="no"?>
<svg xmlns="http://www.w3.org/2000/svg"
    xmlns:xlink="http://www.w3.org/1999/xlink" contentStyleType="text/css" height="399px" preserveAspectRatio="none" style="width:683px;height:399px;background:#FFFFFF;" version="1.1" viewBox="0 0 683 399" width="683px" zoomAndPan="magnify">
    <defs/>
    <g>
        <line style="stroke:#181818;stroke-width:0.5;stroke-dasharray:5.0,5.0;" x1="23" x2="23" y1="81.2969" y2="318.2266"/>
        <line style="stroke:#181818;stroke-width:0.5;stroke-dasharray:5.0,5.0;" x1="209" x2="209" y1="81.2969" y2="318.2266"/>
        <line style="stroke:#181818;stroke-width:0.5;stroke-dasharray:5.0,5.0;" x1="409" x2="409" y1="81.2969" y2="318.2266"/>
        <line style="stroke:#181818;stroke-width:0.5;stroke-dasharray:5.0,5.0;" x1="627.5" x2="627.5" y1="81.2969" y2="318.2266"/>
        <text fill="#000000" font-family="sans-serif" font-size="14" lengthAdjust="spacing" textLength="31" x="5" y="77.9951">用户</text>
        <ellipse cx="23.5" cy="13.5" fill="#E2E2F0" rx="8" ry="8" style="stroke:#181818;stroke-width:0.5;"/>
        <path d="M23.5,21.5 L23.5,48.5 M10.5,29.5 L36.5,29.5 M23.5,48.5 L10.5,63.5 M23.5,48.5 L36.5,63.5 " fill="none" style="stroke:#181818;stroke-width:0.5;"/>
        <text fill="#000000" font-family="sans-serif" font-size="14" lengthAdjust="spacing" textLength="31" x="5" y="330.2217">用户</text>
        <ellipse cx="23.5" cy="342.0234" fill="#E2E2F0" rx="8" ry="8" style="stroke:#181818;stroke-width:0.5;"/>
        <path d="M23.5,350.0234 L23.5,377.0234 M10.5,358.0234 L36.5,358.0234 M23.5,377.0234 L10.5,392.0234 M23.5,377.0234 L36.5,392.0234 " fill="none" style="stroke:#181818;stroke-width:0.5;"/>
        <rect fill="#E2E2F0" height="30.2969" rx="2.5" ry="2.5" style="stroke:#181818;stroke-width:0.5;" width="181" x="119" y="50"/>
        <text fill="#000000" font-family="sans-serif" font-size="14" lengthAdjust="spacing" textLength="167" x="126" y="69.9951">Vaadin 客户端（浏览器）</text>
        <rect fill="#E2E2F0" height="30.2969" rx="2.5" ry="2.5" style="stroke:#181818;stroke-width:0.5;" width="181" x="119" y="317.2266"/>
        <text fill="#000000" font-family="sans-serif" font-size="14" lengthAdjust="spacing" textLength="167" x="126" y="337.2217">Vaadin 客户端（浏览器）</text>
        <rect fill="#E2E2F0" height="30.2969" rx="2.5" ry="2.5" style="stroke:#181818;stroke-width:0.5;" width="113" x="353" y="50"/>
        <text fill="#000000" font-family="sans-serif" font-size="14" lengthAdjust="spacing" textLength="99" x="360" y="69.9951">Vaadin 服务端</text>
        <rect fill="#E2E2F0" height="30.2969" rx="2.5" ry="2.5" style="stroke:#181818;stroke-width:0.5;" width="113" x="353" y="317.2266"/>
        <text fill="#000000" font-family="sans-serif" font-size="14" lengthAdjust="spacing" textLength="99" x="360" y="337.2217">Vaadin 服务端</text>
        <rect fill="#E2E2F0" height="30.2969" rx="2.5" ry="2.5" style="stroke:#181818;stroke-width:0.5;" width="100" x="577.5" y="50"/>
        <text fill="#000000" font-family="sans-serif" font-size="14" lengthAdjust="spacing" textLength="86" x="584.5" y="69.9951">Java UI 代码</text>
        <rect fill="#E2E2F0" height="30.2969" rx="2.5" ry="2.5" style="stroke:#181818;stroke-width:0.5;" width="100" x="577.5" y="317.2266"/>
        <text fill="#000000" font-family="sans-serif" font-size="14" lengthAdjust="spacing" textLength="86" x="584.5" y="337.2217">Java UI 代码</text>
        <polygon fill="#181818" points="197.5,108.4297,207.5,112.4297,197.5,116.4297,201.5,112.4297" style="stroke:#181818;stroke-width:1.0;"/>
        <line style="stroke:#181818;stroke-width:1.0;stroke-dasharray:2.0,2.0;" x1="23.5" x2="203.5" y1="112.4297" y2="112.4297"/>
        <text fill="#000000" font-family="sans-serif" font-size="13" lengthAdjust="spacing" textLength="162" x="30.5" y="107.3638">前一自然月</text>
        <polygon fill="#181818" points="397.5,137.5625,407.5,141.5625,397.5,145.5625,401.5,141.5625" style="stroke:#181818;stroke-width:1.0;"/>
        <line style="stroke:#181818;stroke-width:1.0;" x1="209.5" x2="403.5" y1="141.5625" y2="141.5625"/>
        <text fill="#000000" font-family="sans-serif" font-size="13" lengthAdjust="spacing" textLength="129" x="216.5" y="136.4966">按钮点击（RPC）</text>
        <line style="stroke:#181818;stroke-width:1.0;" x1="409.5" x2="451.5" y1="170.6953" y2="170.6953"/>
        <line style="stroke:#181818;stroke-width:1.0;" x1="451.5" x2="451.5" y1="170.6953" y2="183.6953"/>
        <line style="stroke:#181818;stroke-width:1.0;" x1="410.5" x2="451.5" y1="183.6953" y2="183.6953"/>
        <polygon fill="#181818" points="420.5,179.6953,410.5,183.6953,420.5,187.6953,416.5,183.6953" style="stroke:#181818;stroke-width:1.0;"/>
        <text fill="#000000" font-family="sans-serif" font-size="13" lengthAdjust="spacing" textLength="204" x="416.5" y="165.6294"> 用户会话和上下文鉴别</text>
        <polygon fill="#181818" points="615.5,208.8281,625.5,212.8281,615.5,216.8281,619.5,212.8281" style="stroke:#181818;stroke-width:1.0;"/>
        <line style="stroke:#181818;stroke-width:1.0;" x1="409.5" x2="621.5" y1="212.8281" y2="212.8281"/>
        <text fill="#000000" font-family="sans-serif" font-size="13" lengthAdjust="spacing" textLength="128" x="416.5" y="207.7622">调用点击处理器</text>
        <polygon fill="#181818" points="420.5,237.9609,410.5,241.9609,420.5,245.9609,416.5,241.9609" style="stroke:#181818;stroke-width:1.0;"/>
        <line style="stroke:#181818;stroke-width:1.0;" x1="414.5" x2="626.5" y1="241.9609" y2="241.9609"/>
        <text fill="#000000" font-family="sans-serif" font-size="13" lengthAdjust="spacing" textLength="180" x="426.5" y="236.895">更新 Visit 日历时间</text>
        <polygon fill="#181818" points="220.5,267.0938,210.5,271.0938,220.5,275.0938,216.5,271.0938" style="stroke:#181818;stroke-width:1.0;"/>
        <line style="stroke:#181818;stroke-width:1.0;" x1="214.5" x2="408.5" y1="271.0938" y2="271.0938"/>
        <text fill="#000000" font-family="sans-serif" font-size="13" lengthAdjust="spacing" textLength="176" x="226.5" y="266.0278">更新 UI 组件状态</text>
        <polygon fill="#181818" points="34.5,296.2266,24.5,300.2266,34.5,304.2266,30.5,300.2266" style="stroke:#181818;stroke-width:1.0;"/>
        <line style="stroke:#181818;stroke-width:1.0;stroke-dasharray:2.0,2.0;" x1="28.5" x2="208.5" y1="300.2266" y2="300.2266"/>
        <text fill="#000000" font-family="sans-serif" font-size="13" lengthAdjust="spacing" textLength="139" x="40.5" y="295.1606">展示前一自然月</text>
        <!--MD5=[7100d0e7bf60f19ce11b2bb3995326d9]
@startuml
actor User
User - -> "Vaadin Client (Browser)": Previous Calendar month
"Vaadin Client (Browser)" -> "Vaadin Server": Button clicked (RPC)
"Vaadin Server" -> "Vaadin Server": Session & Context identification
"Vaadin Server" -> "Java UI Code": Invoke Click Handler
"Java UI Code" -> "Vaadin Server": Update Visit Calendar Dates
"Vaadin Server" -> "Vaadin Client (Browser)": Update UI component state
"Vaadin Client (Browser)" - -> User: show previous month
@enduml

PlantUML version 1.2022.7beta2(Unknown compile time)
(GPL source distribution)
Java Runtime: Java(TM) SE Runtime Environment
JVM: Java HotSpot(TM) 64-Bit Server VM
Default Encoding: UTF-8
Language: en
Country: US
-->    </g>
</svg>
