<svg width="411" height="314" viewBox="0 0 411 314" fill="none" xmlns="http://www.w3.org/2000/svg">
<path d="M408.324 0.907471H0.546387V262.066H408.324V0.907471Z" fill="#FAF9FF"/>
<path d="M183.817 35.9768H36.6045V187.247H183.817V35.9768Z" fill="white"/>
<path d="M386.09 38.9104H238.877V222.637H386.09V38.9104Z" fill="white"/>
<path d="M384.128 281.054C398.692 281.054 410.499 279.368 410.499 277.287C410.499 275.206 398.692 273.52 384.128 273.52C369.564 273.52 357.757 275.206 357.757 277.287C357.757 279.368 369.564 281.054 384.128 281.054Z" fill="#AEAAD6"/>
<path d="M408.15 0.6763H0.37207V18.0002H408.15V0.6763Z" fill="#342A98"/>
<path d="M13.2456 12.744C15.0189 12.744 16.4564 11.3065 16.4564 9.53319C16.4564 7.75989 15.0189 6.32234 13.2456 6.32234C11.4723 6.32234 10.0347 7.75989 10.0347 9.53319C10.0347 11.3065 11.4723 12.744 13.2456 12.744Z" fill="white"/>
<path d="M25.4335 12.744C27.2068 12.744 28.6443 11.3065 28.6443 9.53319C28.6443 7.75989 27.2068 6.32234 25.4335 6.32234C23.6602 6.32234 22.2227 7.75989 22.2227 9.53319C22.2227 11.3065 23.6602 12.744 25.4335 12.744Z" fill="white"/>
<path d="M37.621 12.744C39.3943 12.744 40.8318 11.3065 40.8318 9.53319C40.8318 7.75989 39.3943 6.32234 37.621 6.32234C35.8477 6.32234 34.4102 7.75989 34.4102 9.53319C34.4102 11.3065 35.8477 12.744 37.621 12.744Z" fill="white"/>
<path d="M353.634 88.1919H352.742V63.7624C352.742 61.9056 352.376 60.067 351.666 58.3515C350.955 56.6361 349.913 55.0774 348.601 53.7644C347.288 52.4515 345.729 51.41 344.013 50.6994C342.298 49.9889 340.459 49.6232 338.603 49.6232H286.845C284.988 49.6232 283.15 49.9889 281.434 50.6994C279.719 51.41 278.16 52.4515 276.847 53.7644C275.534 55.0774 274.493 56.6361 273.782 58.3515C273.072 60.067 272.706 61.9056 272.706 63.7624V197.785C272.706 199.642 273.072 201.48 273.782 203.196C274.493 204.911 275.534 206.47 276.847 207.783C278.16 209.096 279.719 210.137 281.434 210.848C283.15 211.558 284.988 211.924 286.845 211.924H338.603C340.459 211.924 342.298 211.558 344.013 210.848C345.729 210.137 347.288 209.096 348.601 207.783C349.913 206.47 350.955 204.911 351.666 203.196C352.376 201.48 352.742 199.642 352.742 197.785V105.581H353.634V88.1919Z" fill="#11151B"/>
<path d="M338.594 53.3017H331.838C332.148 54.0634 332.267 54.8898 332.183 55.7082C332.099 56.5266 331.815 57.3117 331.356 57.9945C330.897 58.6773 330.278 59.2367 329.552 59.6236C328.826 60.0104 328.016 60.2128 327.193 60.2129H297.542C296.719 60.2128 295.909 60.0104 295.183 59.6236C294.457 59.2367 293.837 58.6772 293.379 57.9945C292.92 57.3117 292.636 56.5266 292.552 55.7082C292.468 54.8899 292.587 54.0634 292.897 53.3017H286.587C285.2 53.3017 283.827 53.5748 282.546 54.1054C281.265 54.6361 280.101 55.4139 279.121 56.3943C278.14 57.3748 277.362 58.5388 276.832 59.8199C276.301 61.101 276.028 62.474 276.028 63.8607V197.687C276.028 199.073 276.301 200.446 276.832 201.727C277.362 203.008 278.14 204.172 279.121 205.153C280.101 206.133 281.265 206.911 282.546 207.442C283.827 207.972 285.2 208.246 286.587 208.246H338.594C339.98 208.246 341.353 207.972 342.634 207.442C343.915 206.911 345.079 206.133 346.06 205.153C347.04 204.172 347.818 203.008 348.349 201.727C348.879 200.446 349.153 199.073 349.153 197.687V63.8607C349.153 61.0602 348.04 58.3745 346.06 56.3943C344.08 54.4141 341.394 53.3017 338.594 53.3017Z" fill="white"/>
<path d="M161.473 131.531H59.1519V136.198H161.473V131.531Z" fill="#AEAAD6"/>
<path d="M161.473 146.6H59.1519V151.267H161.473V146.6Z" fill="#342A98"/>
<path d="M161.473 161.669H59.1519V166.336H161.473V161.669Z" fill="#AEAAD6"/>
<path d="M343.037 141.714H283.303V146.381H343.037V141.714Z" fill="#AEAAD6"/>
<path d="M343.037 156.204H283.303V160.871H343.037V156.204Z" fill="#AEAAD6"/>
<path d="M343.037 170.693H283.303V175.36H343.037V170.693Z" fill="#AEAAD6"/>
<path d="M349.282 243.167V233.211H339.327V243.167H349.282Z" fill="#11151B"/>
<path d="M333.242 243.167V233.211H323.287V243.167H333.242Z" fill="#AEAAD6"/>
<path d="M317.203 243.167V233.211H307.247V243.167H317.203Z" fill="#11151B"/>
<path d="M301.163 243.167V233.211H291.208V243.167H301.163Z" fill="#11151B"/>
<path d="M285.124 243.167V233.211H275.168V243.167H285.124Z" fill="#11151B"/>
<path d="M329.183 81.2321H295.998V114.417H329.183V81.2321Z" fill="#DDD9EC"/>
<path d="M94.0705 281.139C79.5063 281.139 67.6997 279.452 67.6997 277.371C67.6997 275.291 79.5063 273.604 94.0705 273.604C108.635 273.604 120.441 275.291 120.441 277.371C120.441 279.452 108.635 281.139 94.0705 281.139Z" fill="#AEAAD6"/>
<path d="M117.424 160.404L117.854 161.263L119.142 154.82C119.142 154.82 120.861 147.947 117.424 147.947C113.988 147.947 114.847 154.82 114.847 154.82V159.545L117.424 160.404Z" fill="#AEAAD6"/>
<path d="M61.0652 159.524L60.6357 160.384L59.347 153.94C59.347 153.94 57.6289 147.068 61.0652 147.068C64.5016 147.068 63.6425 153.94 63.6425 153.94V158.665L61.0652 159.524Z" fill="#AEAAD6"/>
<path d="M98.5244 208.71L103.678 240.497L101.102 271.424L95.088 268.847L95.947 245.651L89.9332 227.18L88.6448 249.087L91.2217 271.853L83.4901 272.713L77.9058 225.892L78.3353 209.999L98.5244 208.71Z" fill="#11151B"/>
<path d="M98.5243 267.558L101.531 272.283V282.841C101.531 283.145 101.423 283.439 101.226 283.671C101.028 283.902 100.755 284.056 100.455 284.104C98.9815 284.346 96.4153 284.518 95.5174 283.022C94.2288 280.874 95.0879 276.149 95.0879 276.149C95.0879 276.149 93.3697 272.713 94.2288 270.135C95.0879 267.558 95.947 267.128 95.947 267.128L98.5243 267.558Z" fill="#11151B"/>
<path d="M85.6381 271.853L84.779 273.142C84.779 273.142 83.4904 274.431 84.3495 275.29C84.98 275.958 85.5547 276.676 86.0677 277.438C86.0677 277.438 90.7927 278.726 90.7927 277.008V271.424L85.6381 271.853Z" fill="#11151B"/>
<path d="M87.1861 173.75C84.0415 173.75 81.4922 171.201 81.4922 168.056C81.4922 164.911 84.0415 162.362 87.1861 162.362C90.3308 162.362 92.8801 164.911 92.8801 168.056C92.8801 171.201 90.3308 173.75 87.1861 173.75Z" fill="#AEAAD6"/>
<path d="M91.0072 169.836L91.4367 177.998L83.7051 178.427L84.1346 170.266L91.0072 169.836Z" fill="#AEAAD6"/>
<path d="M82.6307 178.642L83.8501 175.663C83.8501 175.663 89.5035 173.487 91.2217 175.635L92.0807 178.212L98.9535 176.494L102.82 185.085L99.383 209.569C99.383 209.569 90.3626 221.167 78.3353 209.999L74.8989 186.803L77.4762 177.783L82.6307 178.642Z" fill="#AEAAD6"/>
<path d="M98.0947 177.353L98.9536 176.494L107.974 170.91L114.418 158.024L119.572 159.742L113.988 175.635L100.242 186.803L98.0947 177.353Z" fill="#AEAAD6"/>
<path d="M82.9599 159.336L82.029 158.871L83.4254 158.405V157.94C83.4254 157.94 90.4077 155.147 91.3387 159.802C92.5402 161.416 93.1891 163.375 93.1891 165.387C93.1891 167.4 92.5402 169.359 91.3387 170.973V172.37L83.8909 173.301L82.9599 170.508C82.9599 170.508 78.3051 162.129 82.9599 159.336Z" fill="#11151B"/>
<path d="M78.3353 179.501L77.4765 177.783L68.8853 172.628L63.6424 157.109L59.5854 158.847L64.1606 177.353L76.6175 188.951L78.3353 179.501Z" fill="#AEAAD6"/>
<path d="M187.669 313.47C221.094 313.47 248.191 312.173 248.191 310.572C248.191 308.972 221.094 307.674 187.669 307.674C154.243 307.674 127.146 308.972 127.146 310.572C127.146 312.173 154.243 313.47 187.669 313.47Z" fill="#AEAAD6"/>
<path d="M193.85 246.183L192.195 247.01C192.195 247.01 185.575 250.044 187.506 251.699C189.437 253.354 194.677 250.044 194.677 250.044L195.78 248.665L193.85 246.183Z" fill="#FFB8B8"/>
<path d="M242.27 245.771L237.154 280.109L229.431 304.105L225.294 302.175L229.155 269.352L218.122 259.974L218.95 246.183L242.27 245.771Z" fill="#11151B"/>
<path d="M224.742 303.002C224.742 303.002 229.431 300.52 229.707 304.106L229.155 307.691C229.155 307.691 230.81 314.035 225.294 312.656C219.777 311.277 223.639 307.14 223.639 307.14L224.742 303.002Z" fill="#11151B"/>
<path d="M221.708 256.94L218.122 259.974C218.122 259.974 218.122 278.73 220.605 281.488C223.087 284.246 238.809 298.313 239.361 298.865C239.912 299.416 242.395 293.348 242.395 293.348L227.5 275.971L228.604 265.214L221.708 256.94Z" fill="#11151B"/>
<path d="M240.74 292.521C240.74 292.521 245.153 291.693 245.153 294.727C245.208 297.126 245.392 299.52 245.705 301.899C245.705 301.899 246.808 311.553 243.222 310.174C239.636 308.795 238.257 299.141 238.257 299.141C238.591 298.338 239.17 297.662 239.912 297.21C241.016 296.658 240.74 292.521 240.74 292.521Z" fill="#11151B"/>
<path d="M226.948 204.809L227.776 215.015L225.57 218.876L219.501 213.084L218.95 205.361L226.948 204.809Z" fill="#FFB8B8"/>
<path d="M221.984 208.119C225.64 208.119 228.604 205.155 228.604 201.499C228.604 197.843 225.64 194.879 221.984 194.879C218.328 194.879 215.364 197.843 215.364 201.499C215.364 205.155 218.328 208.119 221.984 208.119Z" fill="#FFB8B8"/>
<path d="M224.742 214.739L227.5 206.74L232.465 212.257L241.567 247.286L234.672 251.423L231.638 247.01L231.086 252.802L217.57 250.044L216.468 213.084L219.224 209.201L224.742 214.739Z" fill="#DDD9EC"/>
<path d="M220.881 253.906L219.226 209.222L215.64 211.981L209.02 216.394L213.434 232.116L214.812 248.665L220.881 253.906Z" fill="#11151B"/>
<path d="M210.951 216.669L209.02 216.394L203.503 232.667L192.47 246.459L196.608 250.872L209.296 238.459L213.985 228.254L210.951 216.669Z" fill="#11151B"/>
<path d="M241.073 246.435L240.697 248.247C240.697 248.247 238.975 255.322 241.47 254.833C243.966 254.343 244.616 248.179 244.616 248.179L244.218 246.458L241.073 246.435Z" fill="#FFB8B8"/>
<path d="M227.069 206.292L240.74 211.705L239.085 228.254L242.395 246.459L239.085 250.044L226.847 208.637L227.069 206.292Z" fill="#11151B"/>
<path d="M222.33 190.381L224.273 189.41V190.381L225.569 189.734V191.353C225.569 191.353 230.427 194.915 229.455 199.125C228.484 203.335 228.484 203.659 228.484 203.659C228.484 203.659 227.255 195.653 222.398 196.948C217.54 198.244 217.149 198.477 215.853 202.04L215.502 203.568C215.502 203.568 210.024 191.029 222.33 190.381Z" fill="#11151B"/>
<path d="M238.809 211.705H241.015L244.601 231.012V247.838L240.188 247.01L236.603 221.634L238.809 211.705Z" fill="#11151B"/>
<path d="M210.522 252.536H129.195V309.051H210.522V252.536Z" fill="#FDB42B"/>
<path d="M169.858 263.563C166.451 263.563 163.119 264.574 160.286 266.467C157.452 268.36 155.244 271.051 153.94 274.2C152.636 277.348 152.294 280.813 152.959 284.155C153.624 287.497 155.265 290.568 157.675 292.977C160.085 295.387 163.155 297.028 166.497 297.693C169.839 298.358 173.304 298.016 176.452 296.712C179.601 295.408 182.292 293.2 184.185 290.366C186.078 287.533 187.089 284.201 187.089 280.794C187.075 276.228 185.256 271.853 182.027 268.625C178.799 265.396 174.424 263.577 169.858 263.563ZM169.858 268.732C170.881 268.732 171.88 269.036 172.73 269.604C173.58 270.172 174.243 270.979 174.634 271.923C175.025 272.868 175.128 273.907 174.928 274.91C174.729 275.913 174.236 276.834 173.514 277.557C172.791 278.279 171.87 278.772 170.867 278.971C169.864 279.171 168.825 279.068 167.88 278.677C166.936 278.286 166.129 277.623 165.561 276.773C164.993 275.923 164.689 274.924 164.689 273.901C164.694 272.532 165.24 271.22 166.208 270.251C167.177 269.283 168.489 268.737 169.858 268.732ZM169.858 293.617C167.816 293.608 165.808 293.1 164.006 292.139C162.205 291.177 160.665 289.791 159.52 288.1C159.603 284.654 166.412 282.757 169.858 282.757C173.305 282.757 180.114 284.654 180.197 288.1C179.051 289.79 177.511 291.175 175.71 292.136C173.908 293.098 171.9 293.606 169.858 293.617Z" fill="white"/>
<path d="M161.214 53.3642H59.208V111.902H161.214V53.3642Z" fill="#DDD9EC"/>
<path d="M362.916 169.469L363.388 166.421C363.388 166.421 366.143 160.158 363.966 159.821C361.788 159.483 359.972 165.445 359.972 165.445L360.769 171.812L362.916 169.469Z" fill="#FFB8B8"/>
<path d="M385.211 186.751L365.748 182.841L363.486 168.666L357.757 168.223L358.037 186.551L374.948 195.417L385.211 186.751Z" fill="#AEAAD6"/>
<path opacity="0.2" d="M385.211 186.751L365.748 182.841L363.486 168.666L357.757 168.223L358.037 186.551L374.948 195.417L385.211 186.751Z" fill="#11151B"/>
<path d="M332.262 165.72H391.996V161.053H332.262V165.72Z" fill="#342A98"/>
<path d="M359.113 168.424L359.117 165.339C359.117 165.339 360.888 158.731 358.684 158.728C356.481 158.725 355.592 164.894 355.592 164.894L357.347 171.066L359.113 168.424Z" fill="#FFB8B8"/>
<path d="M384.447 177.259L387.118 176.608C388.137 176.61 389.143 176.384 390.065 175.949C390.986 175.513 391.799 174.879 392.445 174.09C393.09 173.302 393.553 172.38 393.798 171.391C394.044 170.402 394.067 169.371 393.865 168.372C393.867 167.192 393.636 166.023 393.185 164.933C392.735 163.842 392.074 162.85 391.241 162.015C390.408 161.179 389.418 160.516 388.328 160.063C387.239 159.61 386.07 159.376 384.89 159.375C383.71 159.373 382.542 159.604 381.451 160.055C380.36 160.505 379.369 161.165 378.533 161.999C377.698 162.832 377.035 163.822 376.582 164.912C376.129 166.001 375.895 167.169 375.893 168.35C375.548 169.552 375.524 170.823 375.825 172.037C376.125 173.251 376.739 174.365 377.605 175.267C378.471 176.169 379.559 176.828 380.76 177.178C381.961 177.527 383.232 177.556 384.447 177.259Z" fill="#11151B"/>
<path d="M368.742 221.761L370.916 245.562L374.852 268.925L381.463 268.933L380.61 246.015L377.119 218.246L368.742 221.761Z" fill="#11151B"/>
<path d="M375.735 267.604L371.325 270.242C371.325 270.242 364.273 271.115 365.592 273.32C366.911 275.525 382.338 274.222 382.339 273.341C382.34 272.46 381.905 267.611 381.024 267.61L375.735 267.604Z" fill="#11151B"/>
<path d="M388.255 219.705C388.255 219.705 388.131 223.108 385.039 228.392L385.459 244.699L401.299 264.991L395.564 269.832L376.201 247.772L371.386 221.324L377.564 215.162L388.255 219.705Z" fill="#11151B"/>
<path d="M399.977 264.99C399.977 264.99 405.265 265.878 404.381 268.08C403.496 270.283 401.28 280.416 395.553 279.087C395.553 279.087 392.908 279.083 393.792 277.322C394.323 276.262 394.913 275.233 395.559 274.239L395.566 268.51L399.977 264.99Z" fill="#11151B"/>
<path d="M381.586 177.707C385.237 177.707 388.196 174.747 388.196 171.096C388.196 167.446 385.237 164.486 381.586 164.486C377.935 164.486 374.975 167.446 374.975 171.096C374.975 174.747 377.935 177.707 381.586 177.707Z" fill="#FFB8B8"/>
<path d="M384.665 175.507L384.656 182.999L377.604 182.99L378.495 175.5L384.665 175.507Z" fill="#FFB8B8"/>
<path d="M375.845 180.344L377.982 179.819L384.659 180.355C384.659 180.355 388.18 183.885 387.738 184.766C387.297 185.647 385.066 207.239 385.066 207.239L389.013 222.668L374.909 223.532L367.859 222.642L369.216 194.879C369.216 194.879 366.141 187.383 370.11 185.185C372.351 184.009 374.309 182.356 375.845 180.344Z" fill="#AEAAD6"/>
<path d="M383.775 182.117L363.945 181.211L359.555 167.543L353.825 167.976L356.887 186.049L374.949 192.242L383.775 182.117Z" fill="#AEAAD6"/>
<path d="M394.346 166.226C396.702 166.226 398.611 164.317 398.611 161.961C398.611 159.606 396.702 157.696 394.346 157.696C391.991 157.696 390.081 159.606 390.081 161.961C390.081 164.317 391.991 166.226 394.346 166.226Z" fill="#11151B"/>
<path d="M390.411 159.668C390.412 159.037 390.552 158.415 390.823 157.845C391.093 157.275 391.486 156.772 391.975 156.372C392.463 155.973 393.034 155.687 393.646 155.534C394.259 155.382 394.897 155.368 395.516 155.493C394.97 155.235 394.376 155.096 393.772 155.085C393.169 155.074 392.57 155.191 392.015 155.429C391.46 155.666 390.962 156.019 390.554 156.464C390.146 156.908 389.837 157.435 389.647 158.008C389.457 158.581 389.392 159.187 389.454 159.788C389.516 160.388 389.706 160.968 390.009 161.49C390.312 162.012 390.723 162.463 391.214 162.814C391.705 163.165 392.265 163.408 392.857 163.527C392.125 163.182 391.506 162.636 391.073 161.953C390.64 161.27 390.41 160.477 390.411 159.668Z" fill="#11151B"/>
<path d="M386.752 162.087L381.002 161.029L376.58 163.8C375.493 164.481 374.624 165.46 374.077 166.62C373.529 167.781 373.326 169.074 373.49 170.346L377.919 169.224L378.911 166.737L380.092 168.673L384.883 177.05L389.735 174.412L392.826 169.568L386.752 162.087Z" fill="#11151B"/>
<path d="M59.4967 52.8616L58.9199 53.8668L160.925 112.404L161.502 111.399L59.4967 52.8616Z" fill="white"/>
<path d="M160.928 52.8655L58.9175 111.395L59.4942 112.4L161.505 53.8707L160.928 52.8655Z" fill="white"/>
<path d="M296.665 80.7742L295.845 81.5938L328.881 114.63L329.701 113.81L296.665 80.7742Z" fill="white"/>
<path d="M328.881 80.7742L295.845 113.81L296.665 114.63L329.701 81.5938L328.881 80.7742Z" fill="white"/>
</svg>
