<svg width="476" height="532" viewBox="0 0 476 532" fill="none" xmlns="http://www.w3.org/2000/svg">
<path d="M24.8748 427.075C20.6479 424.429 15.8718 422.784 10.9117 422.267C8.63074 422.03 6.16484 422.102 4.31542 423.448C4.10387 423.572 3.92874 423.749 3.80783 423.962C3.68692 424.175 3.62454 424.416 3.62702 424.661C3.74035 425.002 3.96931 425.292 4.27432 425.483C7.2391 427.597 10.7257 428.86 14.3568 429.135C17.9879 429.411 21.6252 428.688 24.8748 427.044" fill="#E8E2FF"/>
<path d="M24.5151 426.674C21.2821 424.303 18.2666 421.648 15.5043 418.742C12.7252 415.823 10.7745 412.216 9.85332 408.293C9.66972 407.711 9.61414 407.097 9.69041 406.492C9.76667 405.888 9.97297 405.307 10.2951 404.789C17.4873 410.409 23.1281 417.663 24.5151 426.674Z" fill="#E8E2FF"/>
<path d="M24.803 427.023C24.139 423.114 24.1947 419.117 24.9674 415.228C25.7723 411.299 28.0238 407.815 31.276 405.467C32.5192 408.365 31.9849 411.714 31.1116 414.714C29.7536 419.412 27.6403 423.857 24.8544 427.876" fill="#E8E2FF"/>
<path d="M31.8513 439.64C27.5771 440.164 23.8474 442.425 20.652 445.312C17.4352 448.237 15.1998 452.083 14.251 456.326C18.443 456.069 22.0083 453.11 24.5872 449.791C27.1661 446.473 28.9539 442.836 31.7794 439.733" fill="#E8E2FF"/>
<path d="M33.3821 441.665C31.6968 437.39 31.1055 432.763 31.6617 428.202C32.2179 423.641 33.9041 419.291 36.5672 415.547C39.0023 424.208 38.1084 434.041 33.3821 441.665Z" fill="#E8E2FF"/>
<path d="M42.6908 452.751C38.7858 452.512 34.8967 453.426 31.5078 455.381C28.1189 457.336 25.3797 460.244 23.6314 463.744C23.3951 464.217 23.1794 464.772 23.4979 465.234C23.6619 465.395 23.8627 465.514 24.0828 465.58C24.303 465.647 24.536 465.658 24.7617 465.614C28.5324 465.368 31.8614 463.107 34.615 460.477C37.3685 457.847 39.7522 454.919 42.8346 452.689" fill="#E8E2FF"/>
<path d="M42.3929 452.145C40.39 445.693 40.2653 438.804 42.0333 432.284C42.7423 429.726 43.9136 427.034 46.2767 425.832C46.3628 425.765 46.4644 425.721 46.5719 425.704C46.6794 425.687 46.7895 425.698 46.8919 425.735C46.9944 425.771 47.0858 425.834 47.1579 425.915C47.2299 425.997 47.2803 426.095 47.3042 426.201C48.1113 427.985 48.4643 429.94 48.3316 431.894C48.1979 433.84 47.8988 435.772 47.4377 437.668C46.698 441.192 46.2973 444.983 44.3554 448.025C43.8983 448.756 43.4866 449.514 43.1224 450.295C42.7628 451.066 42.7628 451.323 42.4238 451.96" fill="#E8E2FF"/>
<path d="M67.0416 455.823C65.2127 448.877 67.1443 440.411 71.5213 434.76C71.8501 434.339 72.2713 433.887 72.8056 433.938C73.607 434.01 73.8331 435.089 73.8331 435.901C73.4991 443.042 71.1634 449.946 67.0929 455.823" fill="#E8E2FF"/>
<path d="M69.2607 457.354C73.5721 458.365 78.0515 458.43 82.3902 457.543C86.7289 456.656 90.8237 454.839 94.3923 452.217C90.1875 450.103 85.3806 449.512 80.7888 450.542C76.2372 451.569 72.0862 453.624 69.2607 457.323" fill="#E8E2FF"/>
<path d="M71.1309 452.71C75.8572 445.004 84.9193 439.979 93.9507 439.517C92.9232 443.195 89.8408 446.052 86.4811 447.737C82.9989 449.305 79.3165 450.384 75.5386 450.942C74.0797 451.23 72.0761 451.538 71.1309 452.679" fill="#E8E2FF"/>
<path d="M67.5039 430.27C68.9381 425.931 69.916 421.454 70.4219 416.913C70.9376 412.345 70.0259 407.729 67.8122 403.7C63.4044 412.238 62.9523 422.194 67.4217 430.732" fill="#E8E2FF"/>
<path d="M82.3711 422.76C87.5084 413.379 98.0604 405.889 108.715 404.841C104.605 415.115 93.3957 422.986 82.3711 422.76Z" fill="#E8E2FF"/>
<path d="M79.1143 424.599C86.8099 425.77 93.3651 430.692 100.568 433.671C102.074 434.402 103.747 434.721 105.417 434.596C106.193 434.586 106.947 434.339 107.578 433.887C108.209 433.435 108.686 432.801 108.945 432.069C109.203 431.338 109.231 430.545 109.025 429.797C108.819 429.049 108.388 428.382 107.791 427.887C106.769 426.948 105.571 426.221 104.266 425.75C96.4269 422.482 88.0326 422.4 79.7718 424.383" fill="#E8E2FF"/>
<path d="M74.6653 430.003C76.412 430.496 77.0079 431.4 78.3847 432.582C83.092 436.575 88.6583 439.427 94.6493 440.915C95.2761 441.069 96.0878 441.13 96.396 440.565C96.7042 440 96.3241 439.486 95.9747 439.045C93.3606 435.978 89.9671 433.674 86.1522 432.376C82.402 430.979 79.145 429.294 74.6653 429.654" fill="#E8E2FF"/>
<path d="M69.6412 397.391C72.803 400.303 76.5387 402.52 80.6085 403.902C84.6782 405.284 88.9919 405.8 93.2726 405.416C93.6493 405.415 94.0134 405.28 94.3001 405.036C94.8858 404.388 94.1768 403.392 93.4884 402.847C86.5428 397.443 78.1382 395.193 69.6206 397.391" fill="#E8E2FF"/>
<path d="M75.6003 395.203C79.7773 392.128 84.6227 390.084 89.7406 389.24C94.8584 388.395 100.104 388.773 105.047 390.343C101.197 393.921 96.2515 396.093 91.0122 396.508C85.8382 396.985 80.6206 396.543 75.6003 395.203Z" fill="#E8E2FF"/>
<path d="M73.2268 380.222C72.5487 373.297 72.9905 367.821 72.5076 360.865C72.5076 360.31 72.3535 359.642 71.8295 359.437C71.1103 359.16 70.5041 360.053 70.2677 360.793C69.2593 364.019 69.0008 367.432 69.5118 370.772C70.0229 374.112 71.29 377.292 73.2166 380.068" fill="#E8E2FF"/>
<path d="M72.7336 380.983C77.2755 378.069 81.191 374.28 84.2514 369.835C86.5118 366.753 88.4229 363.023 87.9092 359.211C86.3135 359.255 84.7464 359.646 83.3164 360.355C81.8865 361.065 80.6279 362.077 79.6279 363.321C77.6523 365.829 76.2179 368.718 75.4153 371.808C74.4906 374.89 73.8536 377.973 72.7747 380.983" fill="#E8E2FF"/>
<path d="M84.0049 377.849C94.334 374.03 103.896 368.393 112.239 361.204C108.869 359.848 105.047 360.66 101.636 362.016C93.9814 364.917 87.6568 370.525 83.8611 377.777" fill="#E8E2FF"/>
<path d="M75.8984 384.774C81.0964 385.522 86.3729 385.546 91.5774 384.846C96.7147 384.003 101.472 381.99 106.219 379.986C106.644 379.876 107.012 379.608 107.246 379.236C107.32 379.015 107.325 378.777 107.261 378.553C107.197 378.33 107.066 378.131 106.887 377.983C106.525 377.69 106.099 377.49 105.643 377.397C100.506 375.948 94.9064 376.626 89.8205 378.342C84.9795 379.999 80.324 382.154 75.9293 384.774" fill="#E8E2FF"/>
<path d="M46.1329 397.628C42.5779 390.435 42.8142 382.072 45.8863 374.674C48.0439 377.962 48.3111 382.164 47.9412 386.079C47.5713 389.994 46.3486 394.042 46.2664 397.977" fill="#E8E2FF"/>
<path d="M31.9333 390.456C27.48 390.4 23.0639 391.273 18.9668 393.019C14.8696 394.765 11.1814 397.346 8.13745 400.597C12.6244 401.129 17.1673 400.287 21.1656 398.183C25.1318 396.073 28.8737 393.567 32.334 390.703" fill="#E8E2FF"/>
<path d="M22.378 387.261C18.0319 386.912 13.8604 386.377 9.67864 387.651C7.57035 388.247 5.6149 389.29 3.94495 390.708C2.27499 392.126 0.929586 393.887 0 395.871C4.09678 396.216 8.21074 395.449 11.9082 393.652C15.5828 391.856 19.0871 389.731 22.378 387.302" fill="#E8E2FF"/>
<path d="M36.5261 387.415C32.6115 384.847 28.6044 382.278 24.0527 381.178C19.5011 380.079 14.2303 380.901 11.0554 384.333C14.744 386.501 19.2031 386.747 23.4774 386.747C27.7516 386.747 32.9813 386.747 37.009 388.124" fill="#E8E2FF"/>
<path d="M36.5466 387.62C29.8681 381.055 27.2995 369.27 30.0223 360.3C35.2961 368.376 37.6023 378.033 36.5466 387.62Z" fill="#E8E2FF"/>
<path d="M54.9175 368.993C56.171 366.064 57.0649 362.982 58.1951 360.002C59.2248 356.977 60.8064 354.169 62.8597 351.721C64.9504 349.266 67.9196 347.728 71.1307 347.437C70.1015 351.951 68.1428 356.201 65.3796 359.916C62.6164 363.631 59.1092 366.729 55.0819 369.013" fill="#E8E2FF"/>
<path d="M51.5885 372.907C49.5335 370.03 47.0985 366.136 44.273 363.999C41.4475 361.862 37.7589 360.557 34.3066 361.379C36.0938 364.511 38.586 367.183 41.5858 369.184C44.5856 371.185 48.0103 372.46 51.5885 372.907Z" fill="#E8E2FF"/>
<path d="M52.2563 369.27C50.7594 365.847 49.6531 362.266 48.9581 358.595C48.27 354.893 48.8605 351.067 50.6329 347.745C54.3009 354.68 55.4825 362.129 52.4412 369.321" fill="#E8E2FF"/>
<path d="M54.9482 347.745C57.0032 340.871 63.3117 335.816 70.1135 333.494C70.9518 333.149 71.8613 333.011 72.7643 333.093C73.2162 333.142 73.6437 333.322 73.9929 333.613C74.3421 333.904 74.5975 334.291 74.7268 334.727C74.9734 335.898 74.0076 336.946 73.1034 337.717C67.7948 342.257 61.6177 345.669 54.9482 347.745Z" fill="#E8E2FF"/>
<path d="M55.0203 342.125C55.2874 337.696 55.5649 333.196 57.0033 329.004C58.4417 324.812 61.2261 320.866 65.223 319.027C65.9113 323.507 63.9386 327.956 61.5549 331.809C59.1712 335.662 56.3046 339.289 54.8765 343.584" fill="#E8E2FF"/>
<path d="M54.9175 345.176C53.2017 340.162 53.0167 333.802 50.0166 329.446C47.9617 326.364 44.571 324.309 42.7627 321.083C41.6724 324.183 41.8234 327.585 43.184 330.576C44.5497 333.531 46.4281 336.22 48.7322 338.518C50.9516 340.882 52.8421 342.628 54.897 345.176" fill="#E8E2FF"/>
<path d="M54.9482 492.657C54.8147 492.657 54.7017 459.245 54.6914 418.044C54.6811 376.843 54.7839 343.43 54.9174 343.43C55.051 343.43 55.164 376.832 55.1743 418.044C55.1846 459.255 55.0818 492.657 54.9482 492.657Z" fill="#E8E2FF"/>
<path d="M84.1386 392.624C83.7362 392.82 83.3165 392.978 82.8851 393.097L79.4329 394.258C76.5149 395.285 72.5078 396.693 68.1308 398.47C63.7539 400.248 59.7776 401.82 57.4658 403.823C56.5403 404.59 55.8053 405.56 55.3185 406.659C54.9897 407.44 54.928 407.923 54.8869 407.913C54.8458 407.902 54.8869 407.789 54.8869 407.563C54.937 407.231 55.0196 406.904 55.1335 406.587C55.5583 405.426 56.2643 404.388 57.1884 403.566C58.5809 402.387 60.1386 401.418 61.812 400.69C63.6717 399.826 65.7163 398.922 67.9048 398.028C72.2612 396.241 76.2888 394.854 79.2068 393.919C80.6863 393.456 81.8885 393.117 82.7207 392.891C83.1832 392.755 83.6582 392.665 84.1386 392.624Z" fill="#E8E2FF"/>
<path d="M93.7143 369.075C93.7143 369.075 93.6013 369.219 93.365 369.455L92.2862 370.482L88.2894 374.13L75.0043 385.956C69.8054 390.59 65.3154 395.008 62.2022 398.337C60.6405 400.001 59.4076 401.419 58.5753 402.344L57.5376 403.443C57.4332 403.581 57.3124 403.705 57.178 403.813C57.178 403.813 57.2602 403.659 57.4554 403.381C57.6506 403.104 57.9588 402.714 58.3596 402.22C59.1507 401.193 60.3425 399.806 61.8735 398.111C65.896 393.717 70.1488 389.539 74.6139 385.596C79.8334 380.983 84.5802 376.832 88.0325 373.842C89.7175 372.383 91.1149 371.191 92.1423 370.318L93.2725 369.383C93.407 369.263 93.5553 369.159 93.7143 369.075Z" fill="#E8E2FF"/>
<path d="M69.3533 390.662C69.2197 390.6 70.2985 388.093 71.4082 384.918C72.5178 381.743 73.011 379.072 73.1549 379.092C73.0388 381.141 72.602 383.159 71.8603 385.072C71.3994 386.441 70.8609 387.782 70.2472 389.09C70.0316 389.656 69.7302 390.187 69.3533 390.662Z" fill="#E8E2FF"/>
<path d="M54.979 410.882C54.6794 410.604 54.4107 410.294 54.1776 409.957L52.1227 407.317C50.3966 405.098 48.0129 402.015 45.3415 398.645C42.6701 395.275 40.2042 392.265 38.437 390.076L36.3821 387.477C36.1067 387.158 35.8624 386.814 35.6526 386.449C35.9759 386.706 36.2689 386.999 36.5259 387.323C37.0602 387.898 37.8205 388.751 38.735 389.819C40.5844 391.946 43.0914 394.957 45.7628 398.306C48.4341 401.656 50.787 404.789 52.4412 407.081C53.2632 408.221 53.9208 409.135 54.3728 409.803C54.6144 410.139 54.8178 410.501 54.979 410.882Z" fill="#E8E2FF"/>
<path d="M48.5782 402.662C47.2839 401.238 46.3626 399.516 45.8965 397.648C45.3942 396.01 45.189 394.294 45.2903 392.583H45.4958C45.4685 392.789 45.4023 392.988 45.3006 393.169C45.3006 393.169 45.3006 392.943 45.3006 392.542H45.5163C45.6147 394.209 45.9007 395.86 46.3691 397.463C46.9684 399.252 47.707 400.99 48.5782 402.662Z" fill="#E8E2FF"/>
<path d="M40.3174 392.274C39.7381 391.835 39.1065 391.469 38.4372 391.185C36.7528 390.682 34.9816 390.539 33.2382 390.764C31.4742 390.902 29.7249 391.187 28.0085 391.617C27.3035 391.843 26.5822 392.015 25.8508 392.131C26.4886 391.746 27.1817 391.462 27.9057 391.288C29.6242 390.744 31.3997 390.399 33.1971 390.261C35.0052 390.017 36.8453 390.214 38.5605 390.836C39.2979 391.092 39.9205 391.602 40.3174 392.274Z" fill="#E8E2FF"/>
<path d="M38.3549 389.747C38.3549 389.829 37.2658 389.316 35.4883 388.72C33.1618 387.929 30.7457 387.432 28.2961 387.24C25.8584 387.068 23.4089 387.192 21.0011 387.61C19.1517 387.949 18.0318 388.288 18.001 388.216C17.9701 388.144 18.2681 388.062 18.7613 387.888C19.4703 387.64 20.1944 387.437 20.9292 387.281C25.8126 386.204 30.9052 386.59 35.5705 388.391C36.2742 388.66 36.9605 388.972 37.6254 389.326C37.8867 389.432 38.1321 389.574 38.3549 389.747Z" fill="#E8E2FF"/>
<path d="M54.9176 379.092C54.0743 376.719 53.3879 374.292 52.8626 371.828C52.162 369.404 51.6197 366.936 51.2393 364.441C52.0799 366.819 52.7663 369.249 53.2942 371.715C53.9835 374.139 54.5256 376.603 54.9176 379.092Z" fill="#E8E2FF"/>
<path d="M55.0511 379.092C54.3782 377.592 53.6024 376.14 52.729 374.746C51.7469 373.431 50.6005 372.247 49.3179 371.222C49.8021 371.345 50.2519 371.577 50.633 371.9C51.6007 372.61 52.4414 373.479 53.1195 374.469C54.1547 375.816 54.8205 377.409 55.0511 379.092Z" fill="#E8E2FF"/>
<path d="M54.9483 474.821C54.9483 474.821 54.7941 474.009 54.4243 472.591C53.8651 470.595 53.115 468.658 52.1844 466.806C48.9673 460.775 44.9894 455.181 40.3481 450.162C37.6973 447.141 35.1286 444.295 32.9504 441.562C31.0014 439.16 29.236 436.615 27.6693 433.948C26.6224 432.141 25.7321 430.247 25.0082 428.287C24.7616 427.599 24.5766 427.054 24.4842 426.674C24.4236 426.486 24.3755 426.293 24.3403 426.099C24.3403 426.099 24.628 426.859 25.1828 428.225C25.9722 430.141 26.9029 431.996 27.9673 433.774C29.5599 436.404 31.3421 438.914 33.2998 441.284C35.4882 443.987 38.0569 446.822 40.7077 449.843C46.0608 455.854 50.2528 461.906 52.4926 466.704C53.3889 468.586 54.0779 470.56 54.5476 472.591C54.6789 473.143 54.7784 473.702 54.8455 474.266C54.9019 474.446 54.9364 474.632 54.9483 474.821Z" fill="#E8E2FF"/>
<path d="M81.3334 445.024C80.8901 445.317 80.4266 445.578 79.9463 445.805C78.6965 446.511 77.4982 447.304 76.3605 448.179C74.6817 449.485 73.1082 450.921 71.6548 452.473C70.0006 454.22 68.295 456.244 66.5175 458.422C63.0447 462.779 59.7876 466.642 57.8458 469.724C56.8183 471.255 56.1402 472.54 55.6675 473.444C55.4422 473.924 55.1883 474.391 54.9072 474.841C54.9072 474.841 54.9072 474.697 55.0305 474.44C55.1538 474.184 55.2771 473.824 55.5032 473.362C56.1116 472.048 56.7978 470.772 57.5581 469.54C60.2023 465.577 63.0665 461.766 66.1373 458.124C67.884 455.946 69.5999 453.922 71.2746 452.176C72.7625 450.622 74.3778 449.196 76.1037 447.912C77.2723 447.052 78.5134 446.296 79.8128 445.651C80.2649 445.415 80.6347 445.281 80.8402 445.168C80.9948 445.092 81.1618 445.043 81.3334 445.024Z" fill="#E8E2FF"/>
<path d="M81.8471 454.713C80.8826 454.926 79.904 455.071 78.9189 455.145C76.573 455.383 74.2546 455.841 71.9938 456.511C69.7707 457.239 67.6865 458.336 65.8291 459.758C64.4009 460.868 63.7228 461.813 63.6509 461.731C63.7588 461.481 63.9082 461.252 64.0927 461.053C64.5465 460.486 65.0559 459.966 65.6133 459.501C67.4605 457.957 69.5887 456.785 71.8808 456.049C74.1744 455.364 76.5396 454.947 78.9292 454.806C79.8972 454.69 80.8736 454.659 81.8471 454.713Z" fill="#E8E2FF"/>
<path d="M64.4731 460.672C64.319 460.58 65.6341 458.566 66.6513 455.864C67.6685 453.162 67.8329 450.727 68.0075 450.727C68.0979 451.243 68.0979 451.772 68.0075 452.288C67.8676 453.55 67.5814 454.791 67.1547 455.987C66.7147 457.174 66.1498 458.31 65.4697 459.378C65.2102 459.861 64.8736 460.298 64.4731 460.672Z" fill="#E8E2FF"/>
<path d="M89.8716 419.102C89.718 419.195 89.5564 419.274 89.3887 419.338L88.0119 419.965C87.4057 420.221 86.6762 420.55 85.8542 420.992C85.0322 421.434 84.0664 421.855 83.0698 422.461L81.467 423.366C80.9224 423.684 80.3676 424.054 79.7922 424.393C78.6106 425.102 77.4393 425.986 76.1756 426.879C73.5069 428.902 70.9897 431.117 68.6443 433.507C66.3361 435.935 64.2071 438.527 62.2741 441.264C61.4213 442.548 60.5891 443.761 59.9109 444.952C59.5719 445.548 59.2123 446.113 58.8835 446.668L58.0307 448.302C57.4656 449.329 57.0032 450.295 56.6642 451.138C56.3251 451.98 55.9552 452.72 55.7189 453.326C55.4826 453.932 55.2874 454.354 55.1435 454.723C55.0838 454.89 55.0045 455.048 54.9072 455.196C54.9281 455.018 54.9766 454.845 55.0511 454.682C55.1744 454.312 55.3388 453.84 55.5443 453.254C55.7933 452.499 56.0848 451.758 56.4176 451.035C56.7875 450.172 57.1779 449.186 57.7225 448.148L58.5547 446.494C58.8527 445.928 59.202 445.353 59.5822 444.757C60.2397 443.534 61.072 442.312 61.9248 441.007C65.7372 435.418 70.477 430.522 75.9393 426.53C77.2133 425.636 78.4052 424.763 79.597 424.064C80.1827 423.705 80.7375 423.335 81.3026 423.037L82.926 422.153C83.9534 421.567 84.9192 421.126 85.7617 420.745C86.4773 420.391 87.2113 420.076 87.9605 419.8L89.3681 419.256C89.5268 419.178 89.6967 419.126 89.8716 419.102Z" fill="#E8E2FF"/>
<path d="M68.9937 433.085C69.1869 432.409 69.5898 431.812 70.1444 431.38C71.4265 430.258 73.0649 429.629 74.768 429.602C76.4386 429.595 78.0941 429.92 79.6381 430.558C80.2921 430.763 80.912 431.064 81.4772 431.452C80.8123 431.312 80.1595 431.12 79.5251 430.876C77.9964 430.356 76.393 430.089 74.7782 430.085C73.1794 430.127 71.634 430.669 70.3602 431.637C69.8726 432.088 69.4161 432.572 68.9937 433.085Z" fill="#E8E2FF"/>
<path d="M65.8704 436.312C66.4881 434.948 66.93 433.512 67.1855 432.037C67.2819 430.537 67.1817 429.031 66.8875 427.558C66.9492 427.558 67.2061 427.989 67.4321 428.811C67.7138 429.876 67.794 430.984 67.6684 432.078C67.5153 433.16 67.1672 434.204 66.641 435.161C66.2813 435.962 65.9217 436.342 65.8704 436.312Z" fill="#E8E2FF"/>
<path d="M31.8511 479.639C32.5703 492.4 36.4233 505.387 42.3414 518.518H68.0278C73.6788 505.521 77.2749 492.554 77.8914 479.639H31.8511Z" fill="#E8E2FF"/>
<path d="M73.7816 500.291C73.7816 500.425 65.3154 500.538 54.8661 500.538C44.4169 500.538 35.9609 500.425 35.9609 500.291C35.9609 500.157 44.4272 500.055 54.8867 500.055C65.3462 500.055 73.7816 500.157 73.7816 500.291Z" fill="#FAFAFA"/>
<path d="M73.2063 504.915C73.2063 505.048 65.2641 505.161 55.4724 505.161C45.6808 505.161 37.7283 505.048 37.7283 504.915C37.7283 504.781 45.6705 504.678 55.4724 504.678C65.2744 504.678 73.2063 504.781 73.2063 504.915Z" fill="#FAFAFA"/>
<path d="M42.7729 488.013C43.017 489.979 43.0994 491.962 43.0195 493.942C43.0999 495.921 43.0174 497.904 42.7729 499.87C42.4578 495.924 42.4578 491.959 42.7729 488.013Z" fill="#FAFAFA"/>
<path d="M56.5615 488.013C56.8069 490.058 56.8893 492.12 56.8081 494.178C56.8901 496.236 56.8076 498.298 56.5615 500.343C56.2438 496.239 56.2438 492.117 56.5615 488.013Z" fill="#FAFAFA"/>
<path d="M69.5073 487.911C69.8224 492.08 69.8224 496.266 69.5073 500.435C69.1785 496.267 69.1785 492.079 69.5073 487.911Z" fill="#FAFAFA"/>
<path d="M77.1415 488.013C77.1415 488.147 67.1957 488.26 54.9484 488.26C42.7012 488.26 32.7451 488.147 32.7451 488.013C32.7451 487.88 42.6806 487.777 54.9484 487.777C67.2163 487.777 77.1415 487.88 77.1415 488.013Z" fill="#FAFAFA"/>
<path d="M385.024 293.177C386.999 291.979 389.127 291.053 391.35 290.424L392.651 284.187L403.235 284L404.759 290.237C407.003 290.788 409.163 291.636 411.183 292.758L416.529 289.257L424.146 296.607L420.832 302.078C422.022 304.056 422.945 306.183 423.576 308.403L429.813 309.713L430 320.289L423.763 321.812C423.208 324.057 422.358 326.217 421.233 328.236L424.743 333.582L417.482 341.155L411.976 337.823C409.997 339.02 407.866 339.946 405.641 340.576L404.34 346.813L393.756 347L392.232 340.763C389.991 340.212 387.834 339.364 385.817 338.242L380.471 341.743L372.863 334.393L376.177 328.922C374.981 326.946 374.055 324.819 373.424 322.597L367.187 321.287L367 310.711L373.237 309.188C373.784 306.943 374.633 304.782 375.758 302.764L372.257 297.418L379.607 289.8L385.078 293.115L385.024 293.177ZM390.664 307.272C389.099 308.886 388.049 310.929 387.646 313.141C387.242 315.353 387.505 317.634 388.399 319.697C389.293 321.76 390.78 323.511 392.67 324.728C394.56 325.946 396.769 326.575 399.017 326.536C401.265 326.497 403.451 325.792 405.298 324.511C407.145 323.229 408.57 321.428 409.393 319.335C410.216 317.243 410.399 314.954 409.92 312.757C409.441 310.56 408.321 308.555 406.701 306.996C404.535 304.912 401.631 303.772 398.626 303.824C395.62 303.875 392.758 305.115 390.664 307.272Z" fill="#E8E2FF"/>
<path d="M66.5043 32.9011C68.2041 31.8775 70.0316 31.083 71.9395 30.538L73.0595 25.1644L82.1422 25L83.4573 30.3428C85.3825 30.8134 87.2351 31.5427 88.9645 32.5107L93.5675 29.5105L100.082 35.8088L97.2355 40.5043C98.2597 42.2038 99.0543 44.0315 99.5987 45.9396L104.972 47.0595L105.137 56.1525L99.7939 57.4573C99.3233 59.3858 98.594 61.2418 97.6259 62.9748L100.657 67.5264L94.3484 74.061L89.6529 71.215C87.9543 72.241 86.1264 73.0357 84.2177 73.5781L83.0977 78.962L74.0047 79.1161L72.6999 73.7836C70.7816 73.3111 68.9336 72.5892 67.203 71.6362L62.5897 74.7186L56.0551 68.3998L58.9011 63.7043C57.8733 62.0067 57.0784 60.1785 56.538 58.269L51.1541 57.1491L51 48.0047L56.3325 46.6896C56.8077 44.7658 57.5367 42.9139 58.5004 41.1824L55.49 36.6L61.8088 30.0551L66.5043 32.9011ZM71.3128 45.0149C69.9725 46.4022 69.0738 48.1559 68.7305 50.0541C68.3871 51.9523 68.6146 53.9098 69.384 55.6787C70.1534 57.4476 71.4302 58.9486 73.0528 59.9917C74.6755 61.0348 76.5711 61.5731 78.4998 61.5386C80.4285 61.5041 82.3037 60.8983 83.888 59.7978C85.4723 58.6973 86.6946 57.1516 87.4002 55.3563C88.1058 53.5609 88.263 51.5966 87.852 49.7119C87.4409 47.8272 86.4801 46.1068 85.091 44.7683C84.1704 43.8793 83.0836 43.1805 81.8927 42.7117C80.7019 42.243 79.4304 42.0135 78.1508 42.0364C76.8712 42.0593 75.6087 42.3341 74.4354 42.8452C73.2621 43.3562 72.201 44.0935 71.3128 45.0149Z" fill="#E8E2FF"/>
<path d="M435.699 353.942C436.767 353.303 437.914 352.805 439.11 352.463L439.809 349.103L445.501 349L446.323 352.339C447.528 352.64 448.688 353.096 449.775 353.695L452.652 351.815L456.762 355.771L454.964 358.699C455.603 359.763 456.101 360.907 456.444 362.1L459.803 362.799L459.906 368.491L456.567 369.313C456.266 370.517 455.81 371.678 455.211 372.765L457.091 375.642L453.135 379.752L450.217 377.964C449.157 378.612 448.013 379.11 446.816 379.444L446.118 382.814L440.425 382.916L439.604 379.577C438.397 379.277 437.236 378.818 436.151 378.211L433.274 380.101L429.165 376.145L430.952 373.207C430.304 372.147 429.807 371.003 429.473 369.806L426.103 369.097L426 363.405L429.339 362.593C429.639 361.384 430.099 360.219 430.706 359.131L428.815 356.254L432.771 352.144L435.709 353.922L435.699 353.942ZM438.782 361.525C437.942 362.392 437.38 363.489 437.164 364.677C436.948 365.865 437.09 367.089 437.57 368.197C438.051 369.304 438.849 370.244 439.863 370.898C440.878 371.551 442.064 371.89 443.271 371.87C444.477 371.849 445.651 371.472 446.643 370.785C447.636 370.098 448.402 369.132 448.845 368.009C449.289 366.886 449.389 365.657 449.134 364.477C448.879 363.298 448.28 362.22 447.412 361.381C446.239 360.258 444.67 359.643 443.047 359.67C441.423 359.697 439.876 360.363 438.74 361.525H438.782Z" fill="#E8E2FF"/>
<path d="M188.044 306.078C188.921 305.55 189.863 305.14 190.846 304.857L191.43 302.076L196.121 302L196.79 304.755C197.785 304.994 198.743 305.371 199.635 305.874L202.005 304.314L205.392 307.578L203.919 310.011C204.454 310.885 204.865 311.829 205.138 312.817L207.915 313.393L208 318.09L205.248 318.768C205 319.762 204.624 320.719 204.131 321.616L205.68 323.99L202.378 327.389L199.956 325.914C199.079 326.442 198.137 326.852 197.154 327.135L196.57 329.915L191.879 330L191.21 327.236C190.215 326.996 189.258 326.619 188.365 326.117L185.995 327.677L182.608 324.414L184.081 321.989C183.547 321.112 183.137 320.165 182.862 319.175L180.085 318.598L180 313.902L182.752 313.224C183 312.23 183.376 311.273 183.869 310.375L182.32 308.002L185.58 304.611L188.001 306.078H188.044ZM190.584 312.334C189.891 313.051 189.427 313.959 189.25 314.94C189.073 315.922 189.19 316.935 189.588 317.85C189.985 318.764 190.645 319.541 191.483 320.08C192.322 320.62 193.301 320.898 194.297 320.881C195.294 320.863 196.262 320.549 197.081 319.98C197.9 319.411 198.531 318.612 198.896 317.683C199.26 316.755 199.342 315.739 199.13 314.764C198.918 313.789 198.422 312.899 197.704 312.206C196.735 311.271 195.434 310.758 194.088 310.782C192.742 310.806 191.46 311.364 190.524 312.334H190.584Z" fill="#E8E2FF"/>
<path d="M328.293 331.333C328.139 331.333 328.026 311.678 328.026 287.451C328.026 263.223 328.139 243.558 328.293 243.558C328.447 243.558 328.56 263.203 328.56 287.451C328.56 311.699 328.437 331.333 328.293 331.333Z" fill="#1D1526"/>
<path d="M310.19 419.432C316.573 416.764 319.584 409.428 316.917 403.046C314.25 396.664 306.914 393.652 300.532 396.319C294.149 398.986 291.138 406.322 293.805 412.705C296.472 419.087 303.808 422.099 310.19 419.432Z" fill="#E8E2FF"/>
<path d="M368.168 350.944L246.59 350.872C231.979 350.872 220.133 339.509 220.133 325.494L220.194 33.3782C220.194 19.3637 232.061 8 246.682 8L368.24 8.07192C382.861 8.07192 394.708 19.4459 394.708 33.4604L394.646 325.566C394.667 339.591 382.799 350.955 368.168 350.944Z" fill="#455A64"/>
<path d="M368.137 18.4077H344.568H275.728H246.815C236.541 18.4077 228.27 26.3602 228.26 36.1827V321.302C228.26 331.114 236.551 339.077 246.754 339.077L368.066 339.149C378.34 339.149 386.621 331.196 386.621 321.374L386.683 36.2546C386.673 26.3705 378.371 18.4077 368.137 18.4077Z" fill="white"/>
<path d="M367.12 150.816H271.546V238.428H367.12V150.816Z" fill="#D39059"/>
<path d="M328.293 150.816H247.761V238.428H328.293V150.816Z" fill="#FFC692"/>
<path d="M367.12 194.709C367.12 194.853 358.192 194.976 347.178 194.976C336.163 194.976 327.245 194.853 327.245 194.709C327.245 194.565 336.173 194.442 347.178 194.442C358.182 194.442 367.12 194.575 367.12 194.709Z" fill="#1D1526"/>
<path d="M358.151 232.797H353.116C353.015 232.797 352.919 232.757 352.847 232.685C352.776 232.614 352.736 232.517 352.736 232.417C352.736 232.315 352.776 232.217 352.847 232.144C352.918 232.071 353.014 232.029 353.116 232.026H357.771V227.454C357.771 227.353 357.811 227.256 357.882 227.185C357.953 227.114 358.05 227.074 358.151 227.074C358.253 227.074 358.35 227.113 358.423 227.184C358.496 227.255 358.539 227.352 358.541 227.454V232.468C358.529 232.561 358.482 232.647 358.409 232.708C358.337 232.768 358.245 232.8 358.151 232.797Z" fill="#FFE4D2"/>
<path d="M358.151 221.659C358.1 221.659 358.05 221.649 358.003 221.629C357.956 221.61 357.914 221.581 357.878 221.544C357.843 221.508 357.815 221.465 357.797 221.418C357.778 221.37 357.769 221.32 357.771 221.269V216.029H352.983C352.882 216.029 352.785 215.989 352.714 215.918C352.643 215.846 352.603 215.75 352.603 215.649C352.603 215.547 352.642 215.449 352.713 215.376C352.784 215.303 352.881 215.261 352.983 215.258H358.12C358.224 215.258 358.323 215.299 358.396 215.373C358.469 215.446 358.51 215.545 358.51 215.649V221.289C358.506 221.384 358.467 221.474 358.4 221.542C358.334 221.61 358.245 221.652 358.151 221.659Z" fill="#FFE4D2"/>
<path d="M341.383 221.793C341.281 221.79 341.184 221.748 341.113 221.675C341.042 221.602 341.003 221.504 341.003 221.402V215.649C341.003 215.547 341.042 215.449 341.113 215.376C341.184 215.303 341.281 215.261 341.383 215.258H346.52C346.624 215.258 346.723 215.299 346.796 215.373C346.869 215.446 346.911 215.545 346.911 215.649C346.911 215.7 346.9 215.75 346.881 215.797C346.861 215.843 346.832 215.886 346.796 215.921C346.759 215.957 346.716 215.984 346.669 216.003C346.621 216.021 346.571 216.03 346.52 216.029H341.773V221.402C341.773 221.506 341.732 221.605 341.659 221.679C341.586 221.752 341.486 221.793 341.383 221.793Z" fill="#FFE4D2"/>
<path d="M346.387 232.797H341.383C341.282 232.797 341.185 232.757 341.114 232.686C341.043 232.614 341.003 232.518 341.003 232.417V227.67C341.018 227.579 341.065 227.496 341.135 227.436C341.206 227.376 341.295 227.343 341.388 227.343C341.481 227.343 341.57 227.376 341.641 227.436C341.711 227.496 341.758 227.579 341.773 227.67V232.026H346.387C346.49 232.026 346.589 232.068 346.663 232.141C346.736 232.214 346.777 232.313 346.777 232.417C346.777 232.468 346.767 232.518 346.747 232.565C346.727 232.612 346.698 232.654 346.662 232.689C346.626 232.725 346.582 232.753 346.535 232.771C346.488 232.79 346.437 232.798 346.387 232.797Z" fill="#FFE4D2"/>
<path d="M352.983 229.222H346.654C346.554 229.219 346.458 229.178 346.388 229.108C346.317 229.037 346.276 228.942 346.273 228.842V219.081C346.273 218.979 346.313 218.881 346.384 218.808C346.455 218.735 346.552 218.693 346.654 218.69H352.983C353.086 218.69 353.186 218.732 353.259 218.805C353.332 218.878 353.373 218.977 353.373 219.081V228.842C353.37 228.943 353.328 229.04 353.255 229.111C353.182 229.182 353.085 229.222 352.983 229.222ZM347.044 228.451H352.603V219.461H347.044V228.451Z" fill="#FFE4D2"/>
<path d="M350.445 227.218C350.445 227.362 350.387 227.501 350.285 227.603C350.183 227.705 350.045 227.762 349.9 227.762C349.756 227.762 349.617 227.705 349.515 227.603C349.413 227.501 349.356 227.362 349.356 227.218C349.356 227.073 349.413 226.935 349.515 226.833C349.617 226.731 349.756 226.673 349.9 226.673C350.045 226.673 350.183 226.731 350.285 226.833C350.387 226.935 350.445 227.073 350.445 227.218Z" fill="#FFE4D2"/>
<path d="M350.527 220.941H349.109C349.059 220.942 349.009 220.933 348.962 220.914C348.915 220.896 348.873 220.868 348.837 220.832C348.802 220.797 348.774 220.754 348.755 220.707C348.737 220.661 348.728 220.611 348.729 220.56C348.728 220.51 348.737 220.459 348.755 220.412C348.774 220.364 348.801 220.321 348.837 220.285C348.872 220.248 348.915 220.22 348.961 220.2C349.008 220.18 349.059 220.17 349.109 220.17H350.527C350.631 220.17 350.73 220.211 350.803 220.284C350.877 220.357 350.918 220.457 350.918 220.56C350.918 220.611 350.908 220.661 350.888 220.708C350.868 220.755 350.839 220.797 350.803 220.833C350.766 220.868 350.723 220.896 350.676 220.915C350.629 220.933 350.578 220.942 350.527 220.941Z" fill="#FFE4D2"/>
<path d="M302.894 199.25H262.268C261.944 199.252 261.623 199.189 261.323 199.065C261.023 198.942 260.751 198.76 260.522 198.531C260.292 198.302 260.111 198.029 259.987 197.73C259.864 197.43 259.801 197.108 259.803 196.784C259.803 196.461 259.866 196.141 259.99 195.842C260.114 195.544 260.296 195.272 260.525 195.044C260.754 194.816 261.026 194.635 261.326 194.513C261.625 194.39 261.945 194.327 262.268 194.329H302.894C303.545 194.329 304.17 194.587 304.63 195.048C305.091 195.508 305.35 196.133 305.35 196.784C305.351 197.108 305.288 197.428 305.166 197.727C305.043 198.026 304.862 198.298 304.634 198.527C304.406 198.756 304.135 198.938 303.836 199.062C303.538 199.186 303.217 199.25 302.894 199.25Z" fill="#FFE4D2"/>
<path d="M273.221 201.922H262.269C260.907 201.922 259.803 203.024 259.803 204.383C259.803 205.742 260.907 206.843 262.269 206.843H273.221C274.583 206.843 275.687 205.742 275.687 204.383C275.687 203.024 274.583 201.922 273.221 201.922Z" fill="#FFE4D2"/>
<path d="M271.546 215.402C268.224 215.759 264.872 215.759 261.549 215.402C264.872 215.046 268.224 215.046 271.546 215.402Z" fill="#FFE4D2"/>
<path d="M303.141 227.053H301.63C300.49 227.053 299.565 227.978 299.565 229.118V230.629C299.565 231.769 300.49 232.694 301.63 232.694H303.141C304.281 232.694 305.206 231.769 305.206 230.629V229.118C305.206 227.978 304.281 227.053 303.141 227.053Z" fill="#FFE4D2"/>
<path d="M311.032 227.053H309.521C308.381 227.053 307.456 227.978 307.456 229.118V230.629C307.456 231.769 308.381 232.694 309.521 232.694H311.032C312.172 232.694 313.097 231.769 313.097 230.629V229.118C313.097 227.978 312.172 227.053 311.032 227.053Z" fill="#FFE4D2"/>
<path d="M318.912 226.981H317.402C316.261 226.981 315.336 227.906 315.336 229.047V230.557C315.336 231.698 316.261 232.622 317.402 232.622H318.912C320.053 232.622 320.977 231.698 320.977 230.557V229.047C320.977 227.906 320.053 226.981 318.912 226.981Z" fill="#FFE4D2"/>
<path d="M291.325 166.855H260.049V179.472H291.325V166.855Z" fill="#FFE4D2"/>
<path d="M465.037 117.023H423.867C422.97 117.023 422.11 116.667 421.476 116.033C420.842 115.399 420.486 114.54 420.486 113.643C420.486 113.2 420.574 112.761 420.744 112.351C420.914 111.941 421.163 111.569 421.477 111.256C421.791 110.943 422.164 110.695 422.574 110.527C422.984 110.358 423.423 110.272 423.867 110.273H465.037C465.931 110.273 466.788 110.628 467.42 111.26C468.052 111.892 468.407 112.749 468.407 113.643C468.408 114.086 468.322 114.526 468.153 114.936C467.985 115.346 467.737 115.719 467.423 116.033C467.11 116.347 466.738 116.596 466.329 116.766C465.919 116.936 465.48 117.023 465.037 117.023Z" fill="#E8E2FF"/>
<path d="M465.037 130.277H423.867C422.97 130.277 422.11 129.921 421.476 129.287C420.842 128.653 420.486 127.793 420.486 126.897C420.486 126.453 420.574 126.014 420.744 125.605C420.914 125.195 421.163 124.823 421.477 124.51C421.791 124.197 422.164 123.949 422.574 123.78C422.984 123.612 423.423 123.526 423.867 123.527H465.037C465.931 123.527 466.788 123.882 467.42 124.514C468.052 125.146 468.407 126.003 468.407 126.897C468.408 127.34 468.322 127.78 468.153 128.19C467.985 128.6 467.737 128.973 467.423 129.287C467.11 129.601 466.738 129.85 466.329 130.02C465.919 130.19 465.48 130.277 465.037 130.277Z" fill="#E8E2FF"/>
<path d="M436.268 143.203H423.867C422.97 143.203 422.11 142.847 421.476 142.213C420.842 141.579 420.486 140.719 420.486 139.823C420.486 139.379 420.574 138.94 420.744 138.531C420.914 138.121 421.163 137.749 421.477 137.436C421.791 137.123 422.164 136.875 422.574 136.706C422.984 136.537 423.423 136.451 423.867 136.453H436.268C437.162 136.453 438.019 136.808 438.651 137.44C439.283 138.072 439.638 138.929 439.638 139.823C439.639 140.266 439.553 140.705 439.385 141.116C439.216 141.526 438.968 141.898 438.655 142.212C438.342 142.526 437.97 142.776 437.56 142.946C437.151 143.116 436.711 143.203 436.268 143.203Z" fill="#E8E2FF"/>
<path d="M413.305 101.467C413.407 101.56 402.753 112.954 389.509 126.887C376.265 140.819 365.425 152.049 365.323 151.946C365.22 151.844 375.864 140.459 389.118 126.517C402.373 112.574 413.192 101.365 413.305 101.467Z" fill="#1D1526"/>
<path d="M371.364 151.628C371.366 152.468 371.119 153.289 370.654 153.988C370.189 154.688 369.527 155.233 368.751 155.556C367.976 155.879 367.123 155.964 366.299 155.802C365.475 155.639 364.718 155.236 364.123 154.643C363.529 154.05 363.124 153.293 362.959 152.47C362.795 151.647 362.878 150.793 363.199 150.017C363.52 149.241 364.064 148.578 364.762 148.111C365.46 147.644 366.281 147.395 367.12 147.395C368.244 147.395 369.322 147.841 370.117 148.634C370.913 149.428 371.361 150.504 371.364 151.628Z" fill="#1D1526"/>
<path d="M247.761 203.566C250.105 203.566 252.004 201.666 252.004 199.322C252.004 196.979 250.105 195.079 247.761 195.079C245.417 195.079 243.518 196.979 243.518 199.322C243.518 201.666 245.417 203.566 247.761 203.566Z" fill="#1D1526"/>
<path d="M368.672 230.916C371.015 230.916 372.915 229.017 372.915 226.673C372.915 224.33 371.015 222.43 368.672 222.43C366.328 222.43 364.428 224.33 364.428 226.673C364.428 229.017 366.328 230.916 368.672 230.916Z" fill="#1D1526"/>
<path d="M357.38 73.089H263.029C261.666 73.089 260.36 72.5478 259.396 71.5843C258.433 70.6209 257.892 69.3142 257.892 67.9517C257.892 66.5892 258.433 65.2826 259.396 64.3191C260.36 63.3557 261.666 62.8145 263.029 62.8145H357.38C358.743 62.8145 360.049 63.3557 361.013 64.3191C361.976 65.2826 362.517 66.5892 362.517 67.9517C362.517 69.3142 361.976 70.6209 361.013 71.5843C360.049 72.5478 358.743 73.089 357.38 73.089Z" fill="#E8E2FF"/>
<path d="M338.033 94.2033H282.397C281.034 94.2033 279.727 93.662 278.764 92.6986C277.801 91.7352 277.259 90.4285 277.259 89.066C277.259 87.7035 277.801 86.3968 278.764 85.4334C279.727 84.47 281.034 83.9287 282.397 83.9287H338.033C339.396 83.9287 340.702 84.47 341.666 85.4334C342.629 86.3968 343.171 87.7035 343.171 89.066C343.171 90.4285 342.629 91.7352 341.666 92.6986C340.702 93.662 339.396 94.2033 338.033 94.2033Z" fill="#E8E2FF"/>
<path d="M432.189 87.4121H420.486V99.1148H432.189V87.4121Z" fill="#342A98"/>
<path d="M207.844 104.837H166.674C165.78 104.837 164.923 104.482 164.291 103.85C163.659 103.218 163.304 102.361 163.304 101.467C163.303 101.024 163.389 100.584 163.558 100.174C163.726 99.7644 163.974 99.3916 164.287 99.0776C164.6 98.7636 164.972 98.5144 165.382 98.3444C165.792 98.1744 166.231 98.0869 166.674 98.0869H207.844C208.741 98.0869 209.601 98.4431 210.234 99.077C210.868 99.7109 211.225 100.571 211.225 101.467C211.225 101.911 211.137 102.35 210.967 102.759C210.797 103.169 210.548 103.541 210.234 103.854C209.92 104.167 209.547 104.415 209.137 104.584C208.727 104.752 208.288 104.839 207.844 104.837Z" fill="#E8E2FF"/>
<path d="M207.844 118.092H166.674C165.78 118.092 164.923 117.737 164.291 117.105C163.659 116.473 163.304 115.616 163.304 114.722C163.303 114.279 163.389 113.839 163.558 113.429C163.726 113.019 163.974 112.647 164.287 112.332C164.6 112.018 164.972 111.769 165.382 111.599C165.792 111.429 166.231 111.342 166.674 111.342H207.844C208.741 111.342 209.601 111.698 210.234 112.332C210.868 112.966 211.225 113.826 211.225 114.722C211.225 115.166 211.137 115.605 210.967 116.014C210.797 116.424 210.548 116.796 210.234 117.109C209.92 117.422 209.547 117.67 209.137 117.839C208.727 118.007 208.288 118.094 207.844 118.092Z" fill="#E8E2FF"/>
<path d="M179.075 131.058H166.674C165.78 131.058 164.923 130.703 164.291 130.071C163.659 129.439 163.304 128.582 163.304 127.688C163.303 127.245 163.389 126.805 163.558 126.395C163.726 125.985 163.974 125.612 164.287 125.298C164.6 124.984 164.972 124.735 165.382 124.565C165.792 124.395 166.231 124.308 166.674 124.308H179.075C179.519 124.308 179.958 124.395 180.367 124.565C180.777 124.735 181.149 124.984 181.462 125.298C181.775 125.612 182.023 125.985 182.192 126.395C182.361 126.805 182.447 127.245 182.445 127.688C182.445 128.582 182.09 129.439 181.458 130.071C180.826 130.703 179.969 131.058 179.075 131.058Z" fill="#E8E2FF"/>
<path d="M175.007 75.2261H163.304V86.9288H175.007V75.2261Z" fill="#342A98"/>
<path d="M472.63 244.756H431.418C430.525 244.756 429.667 244.401 429.035 243.769C428.403 243.137 428.048 242.28 428.048 241.386C428.048 240.492 428.403 239.635 429.035 239.003C429.667 238.371 430.525 238.016 431.418 238.016H472.63C473.523 238.016 474.381 238.371 475.013 239.003C475.645 239.635 476 240.492 476 241.386C476 242.28 475.645 243.137 475.013 243.769C474.381 244.401 473.523 244.756 472.63 244.756Z" fill="#E8E2FF"/>
<path d="M472.599 251.271H431.418C429.557 251.271 428.048 252.78 428.048 254.641V254.651C428.048 256.513 429.557 258.021 431.418 258.021H472.599C474.46 258.021 475.969 256.513 475.969 254.651V254.641C475.969 252.78 474.46 251.271 472.599 251.271Z" fill="#E8E2FF"/>
<path d="M443.861 270.987H431.418C430.975 270.987 430.536 270.9 430.126 270.73C429.717 270.56 429.345 270.311 429.032 269.997C428.719 269.683 428.471 269.31 428.302 268.9C428.133 268.49 428.047 268.05 428.048 267.607C428.048 266.713 428.403 265.856 429.035 265.224C429.667 264.592 430.525 264.237 431.418 264.237H443.861C444.756 264.237 445.614 264.592 446.248 265.223C446.881 265.855 447.239 266.712 447.241 267.607C447.241 268.503 446.885 269.363 446.251 269.997C445.617 270.631 444.757 270.987 443.861 270.987Z" fill="#E8E2FF"/>
<path d="M439.751 218.012H428.048V229.714H439.751V218.012Z" fill="#342A98"/>
<path d="M418.853 226.673C418.278 226.751 417.697 226.785 417.117 226.776L412.38 226.858C408.393 226.91 402.866 226.941 396.773 226.941C390.68 226.941 385.152 226.941 381.156 226.858L376.429 226.776C375.849 226.785 375.268 226.751 374.693 226.673C375.268 226.589 375.848 226.551 376.429 226.56L381.156 226.478C385.152 226.427 390.67 226.396 396.773 226.396C402.876 226.396 408.393 226.396 412.38 226.478L417.117 226.56C417.697 226.551 418.278 226.589 418.853 226.673Z" fill="#1D1526"/>
<path d="M192.134 143.84C192.237 143.737 204.782 156.118 220.153 171.478C235.524 186.839 247.894 199.394 247.792 199.507C247.689 199.62 235.144 187.178 219.773 171.858C204.402 156.539 192.001 143.953 192.134 143.84Z" fill="#1D1526"/>
<path d="M238.791 136.679C238.655 136.679 238.524 136.624 238.428 136.528C238.331 136.432 238.277 136.301 238.277 136.165V121C238.28 120.864 238.335 120.735 238.431 120.639C238.526 120.543 238.656 120.488 238.791 120.486H253.987C254.123 120.488 254.252 120.543 254.347 120.639C254.443 120.735 254.498 120.864 254.501 121C254.501 121.136 254.447 121.266 254.35 121.363C254.254 121.459 254.123 121.513 253.987 121.513H239.305V136.165C239.305 136.301 239.251 136.432 239.154 136.528C239.058 136.624 238.927 136.679 238.791 136.679Z" fill="#FC1264"/>
<path d="M372.967 136.688C372.83 136.688 372.7 136.634 372.603 136.538C372.507 136.442 372.453 136.311 372.453 136.175V121.503H357.75C357.614 121.503 357.483 121.448 357.387 121.352C357.29 121.256 357.236 121.125 357.236 120.989C357.236 120.853 357.29 120.722 357.387 120.626C357.483 120.529 357.614 120.475 357.75 120.475H372.967C373.103 120.475 373.234 120.529 373.33 120.626C373.426 120.722 373.48 120.853 373.48 120.989V136.175C373.48 136.311 373.426 136.442 373.33 136.538C373.234 136.634 373.103 136.688 372.967 136.688Z" fill="#FC1264"/>
<path d="M372.967 263.806H357.73C357.593 263.806 357.463 263.751 357.366 263.655C357.27 263.559 357.216 263.428 357.216 263.292C357.216 263.156 357.27 263.025 357.366 262.929C357.463 262.832 357.593 262.778 357.73 262.778H372.402V248.127C372.402 247.99 372.456 247.86 372.552 247.763C372.648 247.667 372.779 247.613 372.915 247.613C373.052 247.613 373.182 247.667 373.279 247.763C373.375 247.86 373.429 247.99 373.429 248.127V263.292C373.43 263.42 373.383 263.543 373.297 263.638C373.212 263.733 373.094 263.793 372.967 263.806Z" fill="#FC1264"/>
<path d="M253.956 263.631H238.791C238.655 263.631 238.524 263.577 238.428 263.481C238.331 263.384 238.277 263.254 238.277 263.118V247.932C238.277 247.795 238.331 247.665 238.428 247.568C238.524 247.472 238.655 247.418 238.791 247.418C238.927 247.418 239.058 247.472 239.154 247.568C239.251 247.665 239.305 247.795 239.305 247.932V262.604H253.956C254.093 262.604 254.223 262.658 254.32 262.754C254.416 262.851 254.47 262.981 254.47 263.118C254.47 263.254 254.416 263.384 254.32 263.481C254.223 263.577 254.093 263.631 253.956 263.631Z" fill="#FC1264"/>
<path d="M245.942 44.8134L254.409 36.491C254.763 36.1265 254.962 35.6381 254.962 35.1296C254.962 34.6211 254.763 34.1327 254.409 33.7682C254.041 33.4153 253.551 33.2183 253.042 33.2183C252.533 33.2183 252.043 33.4153 251.676 33.7682L243.209 42.0906C242.855 42.4551 242.656 42.9435 242.656 43.452C242.656 43.9605 242.855 44.4489 243.209 44.8134C243.578 45.1639 244.067 45.3594 244.576 45.3594C245.084 45.3594 245.574 45.1639 245.942 44.8134Z" fill="#E8E2FF"/>
<path d="M254.337 42.1629L246.014 33.6966C245.647 33.3652 245.167 33.1872 244.672 33.1993C244.178 33.2115 243.707 33.4128 243.356 33.7619C243.006 34.111 242.803 34.5812 242.789 35.0756C242.775 35.5701 242.951 36.051 243.281 36.4194L251.604 44.8856C251.971 45.2171 252.451 45.3951 252.945 45.383C253.44 45.3708 253.911 45.1694 254.261 44.8204C254.612 44.4713 254.815 44.0011 254.829 43.5066C254.843 43.0122 254.667 42.5312 254.337 42.1629Z" fill="#E8E2FF"/>
<path d="M386.94 238.427C386.94 238.581 351.339 238.694 307.446 238.694C263.553 238.694 227.941 238.581 227.941 238.427C227.941 238.273 263.522 238.16 307.446 238.16C351.37 238.16 386.94 238.283 386.94 238.427Z" fill="#1D1526"/>
<path d="M379 377.606H225.261V518.524H379V377.606Z" fill="#D39059"/>
<path d="M316.537 377.606H187V518.524H316.537V377.606Z" fill="#FFC692"/>
<path d="M316.557 518.786C316.412 518.786 316.305 487.177 316.305 448.201C316.305 409.225 316.412 377.616 316.557 377.616C316.702 377.616 316.808 409.215 316.808 448.201C316.808 487.187 316.673 518.786 316.557 518.786Z" fill="#1D1526"/>
<path d="M378.991 448.201C378.991 448.336 364.632 448.452 346.928 448.452C329.224 448.452 314.855 448.336 314.855 448.201C314.855 448.065 329.204 447.949 346.928 447.949C364.651 447.949 378.991 448.056 378.991 448.201Z" fill="#1D1526"/>
<path d="M364.574 509.822H356.471C356.214 509.822 355.968 509.72 355.787 509.539C355.606 509.358 355.504 509.112 355.504 508.855C355.504 508.599 355.606 508.353 355.787 508.172C355.968 507.99 356.214 507.888 356.471 507.888H363.607V500.801C363.607 500.544 363.708 500.299 363.89 500.117C364.071 499.936 364.317 499.834 364.574 499.834C364.83 499.834 365.076 499.936 365.257 500.117C365.439 500.299 365.54 500.544 365.54 500.801V508.855C365.54 509.112 365.439 509.358 365.257 509.539C365.076 509.72 364.83 509.822 364.574 509.822Z" fill="#FFE4D2"/>
<path d="M364.574 491.916C364.317 491.916 364.071 491.814 363.89 491.633C363.709 491.451 363.607 491.205 363.607 490.949V482.865H356.258C356.002 482.865 355.756 482.764 355.575 482.582C355.393 482.401 355.292 482.155 355.292 481.899C355.292 481.642 355.393 481.396 355.575 481.215C355.756 481.033 356.002 480.932 356.258 480.932H364.574C364.83 480.932 365.076 481.033 365.258 481.215C365.439 481.396 365.541 481.642 365.541 481.899V490.949C365.541 491.205 365.439 491.451 365.258 491.633C365.076 491.814 364.83 491.916 364.574 491.916Z" fill="#FFE4D2"/>
<path d="M337.597 492.108C337.34 492.108 337.094 492.007 336.913 491.825C336.731 491.644 336.63 491.398 336.63 491.142V481.879C336.63 481.622 336.731 481.376 336.913 481.195C337.094 481.014 337.34 480.912 337.597 480.912H345.864C346.12 480.912 346.366 481.014 346.547 481.195C346.729 481.376 346.831 481.622 346.831 481.879C346.831 482.135 346.729 482.381 346.547 482.562C346.366 482.744 346.12 482.845 345.864 482.845H338.563V491.142C338.563 491.398 338.462 491.644 338.28 491.825C338.099 492.007 337.853 492.108 337.597 492.108Z" fill="#FFE4D2"/>
<path d="M345.651 509.823H337.597C337.34 509.823 337.094 509.721 336.913 509.54C336.731 509.358 336.63 509.112 336.63 508.856V501.217C336.63 500.961 336.731 500.715 336.913 500.534C337.094 500.352 337.34 500.25 337.597 500.25C337.853 500.25 338.099 500.352 338.28 500.534C338.462 500.715 338.563 500.961 338.563 501.217V507.889H345.651C345.907 507.889 346.153 507.991 346.335 508.172C346.516 508.354 346.618 508.6 346.618 508.856C346.618 509.112 346.516 509.358 346.335 509.54C346.153 509.721 345.907 509.823 345.651 509.823Z" fill="#FFE4D2"/>
<path d="M356.258 504.059H346.077C345.82 504.059 345.574 503.958 345.393 503.776C345.212 503.595 345.11 503.349 345.11 503.093V487.4C345.11 487.143 345.212 486.897 345.393 486.716C345.574 486.535 345.82 486.433 346.077 486.433H356.258C356.515 486.433 356.761 486.535 356.942 486.716C357.123 486.897 357.225 487.143 357.225 487.4V503.093C357.225 503.349 357.123 503.595 356.942 503.776C356.761 503.958 356.515 504.059 356.258 504.059ZM347.044 502.126H355.291V488.366H347.044V502.126Z" fill="#FFE4D2"/>
<path d="M351.288 501.372C351.774 501.372 352.168 500.978 352.168 500.492C352.168 500.006 351.774 499.612 351.288 499.612C350.802 499.612 350.408 500.006 350.408 500.492C350.408 500.978 350.802 501.372 351.288 501.372Z" fill="#FFE4D2"/>
<path d="M352.332 490.746H350.041C349.784 490.746 349.538 490.644 349.357 490.463C349.176 490.281 349.074 490.035 349.074 489.779C349.074 489.522 349.176 489.277 349.357 489.095C349.538 488.914 349.784 488.812 350.041 488.812H352.332C352.589 488.812 352.835 488.914 353.016 489.095C353.197 489.277 353.299 489.522 353.299 489.779C353.299 490.035 353.197 490.281 353.016 490.463C352.835 490.644 352.589 490.746 352.332 490.746Z" fill="#FFE4D2"/>
<path d="M275.676 455.511H210.332C209.282 455.508 208.276 455.089 207.535 454.346C206.793 453.603 206.377 452.596 206.377 451.546C206.377 450.498 206.794 449.492 207.535 448.75C208.277 448.008 209.283 447.592 210.332 447.592H275.676C276.725 447.592 277.732 448.008 278.475 448.75C279.219 449.491 279.637 450.497 279.64 451.546C279.637 452.597 279.219 453.604 278.476 454.347C277.733 455.09 276.726 455.508 275.676 455.511Z" fill="#FFE4D2"/>
<path d="M227.958 467.742H210.332C209.282 467.74 208.276 467.321 207.535 466.578C206.793 465.835 206.377 464.828 206.377 463.778C206.377 462.729 206.794 461.723 207.535 460.982C208.277 460.24 209.283 459.823 210.332 459.823H227.958C229.008 459.823 230.015 460.24 230.758 460.981C231.501 461.722 231.92 462.728 231.923 463.778C231.92 464.829 231.502 465.835 230.759 466.578C230.016 467.321 229.009 467.74 227.958 467.742Z" fill="#FFE4D2"/>
<path d="M225.261 481.491C222.59 481.746 219.906 481.83 217.225 481.743C214.545 481.83 211.861 481.746 209.19 481.491C211.861 481.243 214.545 481.159 217.225 481.24C219.906 481.159 222.59 481.243 225.261 481.491Z" fill="#FFE4D2"/>
<path d="M277.464 500.231H272.272C271.199 500.231 270.329 501.101 270.329 502.174V507.367C270.329 508.44 271.199 509.31 272.272 509.31H277.464C278.538 509.31 279.408 508.44 279.408 507.367V502.174C279.408 501.101 278.538 500.231 277.464 500.231Z" fill="#FFE4D2"/>
<path d="M290.15 500.231H284.958C283.884 500.231 283.014 501.101 283.014 502.174V507.367C283.014 508.44 283.884 509.31 284.958 509.31H290.15C291.223 509.31 292.093 508.44 292.093 507.367V502.174C292.093 501.101 291.223 500.231 290.15 500.231Z" fill="#FFE4D2"/>
<path d="M302.836 500.114H297.644C296.57 500.114 295.7 500.984 295.7 502.058V507.25C295.7 508.323 296.57 509.194 297.644 509.194H302.836C303.909 509.194 304.78 508.323 304.78 507.25V502.058C304.78 500.984 303.909 500.114 302.836 500.114Z" fill="#FFE4D2"/>
<path d="M267.699 411.487H207.798V432.005H267.699V411.487Z" fill="#FFE4D2"/>
<path d="M406.253 441.792C412.675 446.426 412.993 456.176 407.661 461.612C405.349 463.975 408.976 467.612 411.288 465.239C413.113 463.363 414.52 461.12 415.414 458.66C416.309 456.2 416.671 453.578 416.476 450.967C416.286 448.277 415.503 445.662 414.183 443.31C412.864 440.958 411.04 438.928 408.842 437.364C408.253 437.027 407.556 436.935 406.899 437.106C406.243 437.277 405.679 437.697 405.329 438.278C405.001 438.87 404.914 439.566 405.087 440.22C405.259 440.875 405.677 441.438 406.253 441.792Z" fill="#FC1264"/>
<path d="M414.237 435.299C424.512 442.655 425.282 458.293 416.61 467.15C414.299 469.503 417.926 473.14 420.248 470.777C424.303 466.535 426.861 461.086 427.535 455.257C428.208 449.427 426.959 443.538 423.977 438.484C422.123 435.489 419.676 432.905 416.785 430.891C416.196 430.55 415.496 430.456 414.838 430.629C414.179 430.803 413.616 431.229 413.271 431.816C412.94 432.406 412.851 433.102 413.021 433.757C413.191 434.412 413.609 434.975 414.186 435.33L414.237 435.299Z" fill="#FC1264"/>
<path d="M422.898 427.737C433.851 435.545 437.221 450.536 432.238 462.67C430.831 466.017 428.798 469.065 426.248 471.65C423.926 474.003 427.553 477.64 429.885 475.277C435.187 469.725 438.523 462.588 439.382 454.959C440.241 447.331 438.576 439.631 434.642 433.038C432.274 429.222 429.161 425.923 425.487 423.339C424.897 423.004 424.199 422.913 423.542 423.086C422.885 423.258 422.322 423.681 421.974 424.264C421.646 424.856 421.559 425.552 421.732 426.206C421.904 426.861 422.322 427.423 422.898 427.778V427.737Z" fill="#FC1264"/>
<path d="M121.595 483.172L120.879 517.571L166.154 518.64C166.007 514.548 142.79 505.787 142.79 505.787L144.21 483.763L121.595 483.172Z" fill="#B6C6E4"/>
<g opacity="0.6">
<path d="M128.834 503.605C128.407 503.703 128.033 503.959 127.786 504.321C127.539 504.684 127.439 505.126 127.504 505.559C127.627 505.987 127.904 506.355 128.282 506.59C128.66 506.825 129.112 506.911 129.55 506.832C130.005 506.726 130.402 506.451 130.662 506.063C130.921 505.674 131.023 505.202 130.948 504.741C130.783 504.299 130.457 503.936 130.035 503.726C129.613 503.515 129.127 503.472 128.675 503.605" fill="white"/>
</g>
<g opacity="0.6">
<path d="M120.879 517.571L121.095 514.105L164.427 516.378C164.427 516.378 166.427 517.253 166.154 518.651L120.879 517.571Z" fill="white"/>
</g>
<path d="M143.528 505.581C143.528 505.786 142.392 505.865 141.255 506.502C140.119 507.138 139.551 508.013 139.346 507.934C139.142 507.854 139.505 506.638 140.858 505.877C142.21 505.115 143.585 505.388 143.528 505.581Z" fill="#1D1526"/>
<path d="M148.233 507.514C148.233 507.718 147.313 508.059 146.54 508.923C145.767 509.786 145.517 510.718 145.301 510.707C145.085 510.696 144.972 509.502 145.96 508.434C146.949 507.366 148.233 507.355 148.233 507.514Z" fill="#1D1526"/>
<path d="M150.79 512.992C150.585 512.992 150.301 511.98 150.903 510.844C151.506 509.707 152.551 509.287 152.642 509.457C152.733 509.628 152.074 510.23 151.597 511.173C151.119 512.117 151.006 512.969 150.79 512.992Z" fill="#1D1526"/>
<path d="M87.2752 486.024L82.9454 520.117L38 514.537C38.75 510.514 63.0013 505.253 63.0013 505.253L64.8309 483.251L87.2752 486.024Z" fill="#B6C6E4"/>
<g opacity="0.6">
<path d="M77.1157 505.173C77.5233 505.336 77.8553 505.646 78.0466 506.041C78.2379 506.436 78.2747 506.889 78.1498 507.31C77.9666 507.731 77.6281 508.065 77.2048 508.243C76.7814 508.421 76.3059 508.428 75.877 508.264C75.4422 508.093 75.0887 507.763 74.8883 507.341C74.6878 506.919 74.6553 506.437 74.7974 505.992C75.0348 505.572 75.4246 505.26 75.8859 505.12C76.3472 504.981 76.8446 505.024 77.2748 505.242" fill="white"/>
</g>
<g opacity="0.6">
<path d="M82.9453 520.162L83.2408 516.753L40.0568 512.696C40.0568 512.696 37.9544 513.264 38.0226 514.628L82.9453 520.162Z" fill="white"/>
</g>
<path d="M62.2967 504.991C62.2967 505.195 63.365 505.423 64.3536 506.229C65.3423 507.036 65.831 507.968 66.0355 507.911C66.2401 507.855 66.0355 506.616 64.8991 505.639C63.7627 504.661 62.2626 504.786 62.2967 504.991Z" fill="#1D1526"/>
<path d="M57.3872 506.242C57.3077 506.435 58.2168 506.912 58.8646 507.878C59.5123 508.844 59.6032 509.81 59.8191 509.821C60.0351 509.833 60.3192 508.685 59.501 507.548C58.6827 506.412 57.3872 506.048 57.3872 506.242Z" fill="#1D1526"/>
<path d="M53.9783 511.241C54.1715 511.321 54.6033 510.321 54.1829 509.105C53.7624 507.889 52.8419 507.32 52.7169 507.514C52.5919 507.707 53.1601 508.355 53.501 509.355C53.8419 510.355 53.8078 511.196 53.9783 511.241Z" fill="#1D1526"/>
<path d="M160.881 300.446L86.2183 302.833C86.2183 302.833 69.5924 413.804 70.0584 421.509L59.8306 502.002L89.6502 503.047C89.6502 503.047 94.3437 476.91 97.6052 459.079C99.7758 447.192 103.753 429.76 104.821 419.827C105.89 409.895 120.731 341.585 120.731 341.585C120.731 341.585 122.016 421.055 122.05 424.362C122.084 427.669 118.64 502.991 118.64 502.991H148.244C149.778 489.354 153.403 434.987 154.188 423.998C155.608 404.145 162.54 347.04 163.199 332.709C163.859 318.379 160.881 300.446 160.881 300.446Z" fill="#1D1526"/>
<path d="M97.5484 312.356C97.2594 311.244 97.1368 310.095 97.1848 308.947C97.0744 307.809 97.1242 306.662 97.3325 305.538C97.6226 306.65 97.7451 307.799 97.6962 308.947C97.8065 310.085 97.7568 311.232 97.5484 312.356Z" fill="#455A64"/>
<path d="M100.265 311.55C100.102 310.572 100.102 309.573 100.265 308.595C100.274 307.607 100.451 306.627 100.787 305.697C100.961 306.675 100.961 307.675 100.787 308.652C100.788 309.641 100.611 310.623 100.265 311.55Z" fill="#455A64"/>
<path d="M148.756 312.891C148.193 310.76 148.381 308.5 149.29 306.493C149.266 307.563 149.163 308.63 148.983 309.686C148.987 310.758 148.911 311.83 148.756 312.891Z" fill="#455A64"/>
<path d="M124.982 339.812C124.983 339.375 125.04 338.94 125.152 338.517L125.743 335.005C126.243 332.039 126.811 327.925 127.186 323.357C127.561 318.788 127.652 314.641 127.641 311.64C127.641 310.209 127.641 309.015 127.641 308.072C127.597 307.637 127.597 307.2 127.641 306.765C127.737 307.194 127.791 307.632 127.8 308.072C127.88 308.913 127.948 310.129 127.993 311.629C128.111 315.556 128.009 319.487 127.686 323.402C127.369 327.315 126.838 331.207 126.095 335.062C125.8 336.551 125.539 337.733 125.334 338.551C125.258 338.982 125.14 339.404 124.982 339.812Z" fill="#455A64"/>
<path d="M122.425 307.606C121.851 307.713 121.328 308.004 120.936 308.436C120.739 308.663 120.593 308.929 120.509 309.218C120.424 309.506 120.403 309.809 120.447 310.106C120.544 310.454 120.737 310.768 121.003 311.012C121.27 311.256 121.599 311.42 121.954 311.487C122.309 311.553 122.675 311.518 123.012 311.387C123.348 311.255 123.641 311.032 123.857 310.743C124.006 310.483 124.098 310.195 124.125 309.897C124.152 309.598 124.115 309.298 124.016 309.016C123.811 308.469 123.432 308.006 122.936 307.697C122.936 307.697 123.129 307.697 123.436 307.822C123.854 308.065 124.178 308.441 124.357 308.891C124.504 309.224 124.573 309.588 124.557 309.952C124.541 310.317 124.441 310.673 124.266 310.993C124.003 311.366 123.638 311.656 123.215 311.827C122.792 311.998 122.329 312.044 121.881 311.959C121.432 311.874 121.018 311.661 120.687 311.347C120.356 311.033 120.123 310.629 120.016 310.186C119.969 309.823 120.006 309.454 120.124 309.107C120.243 308.76 120.439 308.445 120.697 308.186C121.031 307.837 121.47 307.609 121.948 307.538C122.254 307.504 122.425 307.584 122.425 307.606Z" fill="#455A64"/>
<path d="M89.9232 430.044C87.3552 429.259 84.8388 428.314 82.3888 427.215C79.8677 426.28 77.4115 425.179 75.0361 423.919C77.6087 424.697 80.1291 425.639 82.582 426.737C85.0975 427.681 87.5497 428.785 89.9232 430.044Z" fill="#455A64"/>
<path d="M164.825 305.435C164.563 304.481 158.608 255.217 158.608 255.217L161.699 191.282L135.096 181.952L130.88 178.736L104.14 179.088L101.117 183.634L75.7974 195.078L82.8545 247.467L84.8319 291.298L86.707 307.504L161.711 311.981L164.825 305.435Z" fill="#AEAAD6"/>
<path d="M105.493 163.287C106.759 168.613 105.789 180.226 105.528 182.285C105.266 184.344 111.218 190.114 117.881 190.61C129.672 190.852 132.078 184.955 130.705 180.785C129.332 176.615 105.493 163.287 105.493 163.287Z" fill="#FCAF9D"/>
<path d="M137.672 154.297C138.798 157.602 140.196 162.821 139.606 165.519C139.017 168.218 138.387 173.675 138.838 176.179C139.288 178.683 137.291 180.588 131.96 181.811C126.628 183.035 119.139 181.506 115.495 177.862C111.85 174.218 111.972 173.594 110.657 169.952C109.876 167.746 108.569 165.766 106.847 164.183L100.311 152.004C97.8993 149.364 95.9188 134.524 101.316 135.498C100.556 131.77 105.532 124.881 114.355 124.863C123.178 124.845 129.541 128.424 133.961 130.165C138.382 131.905 140.499 134.09 140.056 135.819C139.612 137.547 138.453 138.114 138.401 138.478C138.822 141.481 137.742 149.301 137.742 149.301L137.672 154.297Z" fill="#1D1526"/>
<path d="M113.811 138.853C112.646 139.512 112.263 138.67 112.09 138.69C110.891 139.589 109.758 140.542 110.753 144.252C111.748 147.961 111.893 149.761 110.876 150.174C109.86 150.587 108.042 152.731 108.834 152.992C109.626 153.253 110.286 153.354 109.391 153.753C108.495 154.152 108.732 154.705 109.486 154.619C110.24 154.534 109.192 157.3 111.466 158.744C113.74 160.187 114.41 163.582 115.625 166.092C116.84 168.601 121.312 170.733 125.274 168.284C129.236 165.835 132.449 165.058 134.774 165.854C137.099 166.65 138.209 166.051 138.89 164.738C139.57 163.425 139.09 159.603 138.327 156.409C137.564 153.215 138.229 150.721 138.36 148.707C138.49 146.693 136.442 139.8 134.597 137.461C132.752 135.122 131.76 135.754 130.661 136.939C129.561 138.124 123.907 141.849 113.811 138.853Z" fill="#FCAF9D"/>
<path d="M137.329 169.32C135.709 167.442 132.101 170.776 129.824 170.562C121.037 169.734 124.051 172.554 124.581 174.036C125.264 175.944 126.16 177.836 127.83 177.317C130.09 176.603 131.202 175.873 133.65 176.183C136.099 176.493 138.183 170.559 137.329 169.32Z" fill="#FCAF9D"/>
<path d="M109.943 138.304C109.916 138.314 109.888 138.317 109.86 138.314C107.359 137.33 104.784 136.545 102.158 135.965C102.136 135.96 102.114 135.951 102.095 135.938C102.076 135.926 102.059 135.909 102.047 135.89C102.021 135.852 102.012 135.804 102.021 135.759C102.03 135.713 102.057 135.673 102.096 135.647C102.134 135.621 102.182 135.612 102.227 135.621C104.873 136.208 107.469 136.998 109.992 137.986C110.026 138.003 110.053 138.03 110.071 138.063C110.089 138.097 110.095 138.135 110.09 138.172C110.085 138.21 110.068 138.245 110.042 138.273C110.017 138.301 109.983 138.319 109.945 138.327L109.943 138.304Z" fill="#FCAF9D"/>
<path d="M112.383 150.493C112.357 150.502 112.328 150.506 112.3 150.502C112.3 150.502 111.359 149.929 107.686 149.193C107.663 149.188 107.641 149.179 107.622 149.167C107.603 149.154 107.587 149.137 107.574 149.118C107.561 149.099 107.552 149.078 107.548 149.055C107.544 149.032 107.544 149.009 107.548 148.987C107.552 148.963 107.56 148.941 107.573 148.922C107.585 148.902 107.602 148.885 107.621 148.872C107.641 148.859 107.662 148.85 107.686 148.846C107.709 148.842 107.732 148.843 107.755 148.849C111.457 149.574 112.392 150.156 112.468 150.147C112.489 150.155 112.509 150.167 112.526 150.183C112.542 150.199 112.555 150.218 112.564 150.239C112.573 150.261 112.577 150.284 112.577 150.307C112.576 150.33 112.571 150.352 112.561 150.373C112.549 150.41 112.525 150.442 112.493 150.463C112.461 150.485 112.422 150.495 112.383 150.493Z" fill="#FCAF9D"/>
<path d="M112.263 152.029C112.237 152.04 112.208 152.043 112.18 152.039C112.18 152.039 111.239 151.473 107.565 150.729C107.542 150.726 107.52 150.718 107.5 150.705C107.481 150.693 107.464 150.676 107.451 150.657C107.438 150.637 107.429 150.615 107.425 150.592C107.421 150.569 107.422 150.546 107.428 150.523C107.432 150.501 107.441 150.479 107.454 150.46C107.467 150.441 107.483 150.424 107.503 150.411C107.522 150.398 107.543 150.39 107.566 150.385C107.589 150.381 107.612 150.381 107.634 150.385C111.339 151.133 112.273 151.7 112.312 151.71C112.346 151.727 112.373 151.755 112.391 151.788C112.409 151.822 112.415 151.86 112.41 151.897C112.405 151.935 112.388 151.97 112.362 151.998C112.337 152.025 112.303 152.044 112.266 152.052L112.263 152.029Z" fill="#FCAF9D"/>
<path d="M106.804 164.303C109.833 161.022 106.318 150.491 100.616 150.903C97.647 151.118 97.3026 155.489 98.3737 159.265C99.3823 162.751 102.573 165.744 106.804 164.303Z" fill="#FCAF9D"/>
<g style="mix-blend-mode:multiply">
<path d="M105.021 163.71L104.954 163.718C102.673 163.1 102.184 161.844 102.094 161.16C102.042 160.695 102.126 160.225 102.336 159.806C102.545 159.387 102.872 159.037 103.276 158.799C103.625 158.597 104.02 158.49 104.422 158.49C104.824 158.49 105.219 158.596 105.565 158.798C105.086 156.306 103.51 153.976 101.844 153.403C101.478 153.26 101.078 153.229 100.694 153.313C100.309 153.397 99.9577 153.594 99.6836 153.877C99.6673 153.893 99.6477 153.906 99.6262 153.914C99.6046 153.922 99.5816 153.926 99.5585 153.925C99.5355 153.924 99.5129 153.919 99.4922 153.908C99.4715 153.898 99.4532 153.884 99.4383 153.866C99.4035 153.838 99.3812 153.796 99.3763 153.751C99.3714 153.706 99.3841 153.661 99.4119 153.625C99.7346 153.3 100.145 153.076 100.592 152.979C101.039 152.882 101.504 152.917 101.931 153.08C103.818 153.727 105.547 156.337 105.947 159.144C105.951 159.178 105.945 159.213 105.93 159.244C105.915 159.275 105.891 159.301 105.861 159.318C105.831 159.336 105.796 159.344 105.762 159.341C105.727 159.339 105.694 159.327 105.667 159.306C105.358 159.049 104.979 158.892 104.578 158.855C104.178 158.819 103.775 158.905 103.424 159.103C103.078 159.309 102.798 159.612 102.618 159.973C102.439 160.334 102.367 160.739 102.412 161.139C102.478 161.742 102.934 162.834 105.026 163.405C105.07 163.418 105.106 163.448 105.128 163.489C105.15 163.529 105.154 163.576 105.141 163.62C105.129 163.643 105.112 163.663 105.091 163.679C105.071 163.694 105.047 163.705 105.021 163.71Z" fill="#EBA492"/>
</g>
<g style="mix-blend-mode:multiply">
<path d="M121.372 158.951C121.33 158.947 121.291 158.929 121.261 158.9C121.231 158.87 121.212 158.831 121.208 158.79C121.203 158.748 121.213 158.706 121.236 158.671C121.259 158.636 121.293 158.609 121.333 158.596C121.854 158.575 122.363 158.425 122.813 158.161C122.85 158.134 122.896 158.123 122.941 158.129C122.986 158.135 123.026 158.159 123.054 158.195C123.068 158.212 123.079 158.232 123.086 158.253C123.092 158.275 123.094 158.298 123.092 158.32C123.089 158.343 123.082 158.364 123.071 158.384C123.06 158.404 123.045 158.421 123.027 158.434C122.53 158.749 121.959 158.927 121.372 158.951Z" fill="#EBA492"/>
</g>
<g style="mix-blend-mode:multiply">
<path d="M133.524 156.989C133.478 156.994 133.432 156.981 133.396 156.952C133.36 156.923 133.337 156.881 133.331 156.835C133.328 156.789 133.342 156.744 133.371 156.708C133.4 156.673 133.441 156.649 133.486 156.642C134.008 156.622 134.517 156.472 134.967 156.206C135.005 156.179 135.051 156.167 135.098 156.173C135.144 156.18 135.186 156.203 135.215 156.239C135.229 156.257 135.24 156.277 135.247 156.298C135.253 156.32 135.255 156.342 135.253 156.365C135.25 156.387 135.243 156.409 135.232 156.429C135.221 156.448 135.206 156.465 135.188 156.479C134.686 156.79 134.113 156.965 133.524 156.989Z" fill="#EBA492"/>
</g>
<g style="mix-blend-mode:multiply">
<path d="M127.593 166.447C127.323 166.484 127.048 166.448 126.798 166.342C126.547 166.236 126.33 166.065 126.169 165.846C125.963 165.529 125.847 165.161 125.833 164.783C125.82 164.404 125.91 164.029 126.093 163.696C126.103 163.676 126.117 163.657 126.135 163.642C126.152 163.626 126.172 163.615 126.194 163.607C126.216 163.6 126.239 163.597 126.262 163.598C126.285 163.6 126.308 163.606 126.328 163.616C126.369 163.635 126.401 163.67 126.417 163.712C126.433 163.754 126.432 163.801 126.414 163.843C126.257 164.118 126.177 164.43 126.184 164.747C126.19 165.063 126.283 165.371 126.451 165.639C126.585 165.811 126.763 165.944 126.966 166.023C127.17 166.102 127.392 166.124 127.607 166.087C127.63 166.082 127.653 166.082 127.675 166.087C127.697 166.092 127.718 166.102 127.737 166.116C127.755 166.13 127.77 166.147 127.78 166.168C127.791 166.188 127.797 166.21 127.799 166.233C127.802 166.256 127.801 166.279 127.796 166.301C127.79 166.323 127.781 166.344 127.767 166.363C127.753 166.381 127.736 166.397 127.717 166.409C127.697 166.421 127.675 166.429 127.653 166.433L127.593 166.447Z" fill="#EBA492"/>
</g>
<path d="M122.034 158.184C122.604 158.119 122.977 157.247 122.866 156.236C122.755 155.226 122.202 154.459 121.632 154.523C121.062 154.588 120.69 155.46 120.801 156.471C120.912 157.482 121.464 158.249 122.034 158.184Z" fill="#1D1526"/>
<path d="M119.502 156.91C119.471 156.923 119.437 156.927 119.404 156.921C119.364 156.898 119.335 156.861 119.322 156.817C119.308 156.773 119.312 156.726 119.332 156.685C120.123 155.19 120.898 154.384 121.704 154.208C122.023 154.159 122.35 154.184 122.657 154.281C122.965 154.379 123.246 154.546 123.477 154.771C123.496 154.784 123.511 154.802 123.522 154.821C123.533 154.841 123.54 154.863 123.543 154.885C123.545 154.908 123.543 154.931 123.536 154.953C123.53 154.974 123.519 154.995 123.504 155.012C123.473 155.046 123.43 155.068 123.384 155.073C123.339 155.078 123.293 155.067 123.255 155.04C123.064 154.851 122.831 154.709 122.575 154.626C122.319 154.542 122.047 154.519 121.781 154.559C121.079 154.707 120.354 155.484 119.641 156.856C119.623 156.875 119.602 156.889 119.577 156.898C119.553 156.908 119.528 156.912 119.502 156.91Z" fill="#1D1526"/>
<path d="M134.195 156.228C134.766 156.163 135.138 155.291 135.027 154.28C134.916 153.27 134.364 152.503 133.793 152.567C133.223 152.632 132.851 153.504 132.962 154.515C133.073 155.526 133.625 156.293 134.195 156.228Z" fill="#1D1526"/>
<path d="M131.662 154.955C131.632 154.969 131.597 154.973 131.564 154.966C131.543 154.956 131.525 154.942 131.509 154.924C131.494 154.907 131.483 154.886 131.476 154.864C131.469 154.842 131.467 154.818 131.47 154.795C131.473 154.772 131.481 154.75 131.492 154.73C132.276 153.235 133.058 152.429 133.864 152.253C134.183 152.203 134.508 152.228 134.815 152.326C135.121 152.424 135.4 152.592 135.63 152.816C135.648 152.83 135.664 152.847 135.675 152.867C135.686 152.887 135.693 152.909 135.696 152.931C135.698 152.954 135.696 152.977 135.689 152.998C135.683 153.02 135.672 153.04 135.657 153.058C135.626 153.092 135.583 153.114 135.537 153.119C135.492 153.124 135.446 153.112 135.408 153.086C135.215 152.896 134.981 152.754 134.724 152.671C134.467 152.587 134.194 152.565 133.926 152.605C133.232 152.753 132.499 153.531 131.794 154.902C131.758 154.935 131.711 154.954 131.662 154.955Z" fill="#1D1526"/>
<path d="M125.006 147.803C124.101 149.58 122.836 150.519 119.766 150.339C117.241 150.272 114.777 151.134 112.839 152.761C114.663 149.328 116.19 147.917 119.288 148.36C121.21 148.614 123.166 148.424 125.006 147.803Z" fill="#1D1526"/>
<path d="M130.611 147.664C131.65 148.701 132.726 149.236 134.76 148.478C136.794 147.72 137.958 148.643 137.958 148.643C137.065 146.496 137.124 146.268 130.611 147.664Z" fill="#1D1526"/>
<g style="mix-blend-mode:multiply">
<path d="M125.005 149.499C124.972 149.501 124.94 149.494 124.911 149.479C124.883 149.464 124.858 149.441 124.841 149.413C124.824 149.386 124.815 149.354 124.814 149.321C124.814 149.289 124.822 149.257 124.838 149.228C125.569 148.04 125.362 147.065 124.273 145.961C124.238 145.932 124.216 145.891 124.211 145.846C124.206 145.801 124.219 145.756 124.246 145.72C124.26 145.702 124.277 145.687 124.297 145.676C124.317 145.664 124.339 145.657 124.361 145.655C124.384 145.652 124.407 145.654 124.428 145.661C124.45 145.667 124.47 145.678 124.487 145.693C125.734 146.908 125.928 148.053 125.108 149.396C125.087 149.441 125.05 149.478 125.005 149.499Z" fill="#EBA492"/>
</g>
<g style="mix-blend-mode:multiply">
<path d="M129.602 175.493C129.563 175.497 129.524 175.488 129.491 175.469C129.457 175.449 129.43 175.42 129.414 175.385C129.397 175.342 129.398 175.294 129.417 175.252C129.435 175.21 129.469 175.177 129.511 175.159C130.465 174.691 131.529 174.499 132.584 174.605C132.607 174.609 132.628 174.618 132.647 174.631C132.666 174.643 132.683 174.66 132.696 174.679C132.708 174.698 132.717 174.72 132.722 174.742C132.726 174.765 132.726 174.788 132.721 174.811C132.717 174.834 132.708 174.855 132.695 174.874C132.682 174.894 132.666 174.91 132.647 174.923C132.627 174.936 132.606 174.945 132.583 174.949C132.561 174.954 132.537 174.954 132.515 174.949C131.529 174.868 130.539 175.052 129.646 175.481L129.602 175.493Z" fill="#EBA492"/>
</g>
<path d="M133.753 162.471C133.205 161.797 132.747 161.054 132.39 160.262C132.009 159.397 131.69 158.506 131.433 157.595C131.244 156.83 130.953 156.094 130.567 155.406C130.208 154.845 130.366 154.339 130.631 153.493C130.888 152.709 131.067 151.902 131.167 151.084C131.17 151.038 131.155 150.992 131.125 150.956C131.096 150.92 131.055 150.896 131.009 150.889C130.962 150.887 130.917 150.902 130.88 150.931C130.844 150.96 130.82 151.002 130.813 151.048C130.729 151.845 130.56 152.631 130.308 153.393C130.038 154.269 129.841 154.902 130.291 155.598C130.653 156.269 130.932 156.983 131.119 157.722C131.376 158.649 131.7 159.555 132.088 160.433C132.459 161.249 132.93 162.015 133.49 162.714C133.764 163.056 133.96 163.309 133.92 163.428C133.83 163.789 131.782 164.791 129.101 164.966C129.079 164.967 129.056 164.973 129.036 164.983C129.015 164.994 128.997 165.008 128.982 165.025C128.967 165.042 128.955 165.062 128.948 165.084C128.94 165.106 128.937 165.129 128.939 165.152C128.945 165.197 128.968 165.237 129.002 165.267C129.036 165.297 129.079 165.313 129.124 165.314L129.735 165.244C130.916 165.12 132.073 164.819 133.167 164.352C133.667 164.6 133.607 164.957 133.604 164.996C133.594 165.041 133.602 165.087 133.626 165.126C133.651 165.164 133.689 165.192 133.733 165.202L133.794 165.195C133.83 165.19 133.864 165.174 133.891 165.149C133.919 165.125 133.938 165.092 133.946 165.056C133.968 164.881 133.942 164.704 133.869 164.544C133.796 164.384 133.68 164.247 133.534 164.15C133.834 164.015 134.078 163.78 134.223 163.485C134.321 163.199 134.096 162.95 133.753 162.471Z" fill="#1D1526"/>
<g style="mix-blend-mode:multiply">
<path d="M136.091 170.01C136.17 169.825 136.249 169.64 136.326 169.44C132.692 171.153 128.646 171.789 124.668 171.272C124.803 171.456 124.942 171.609 125.082 171.769C128.84 172.172 132.64 171.565 136.091 170.01Z" fill="#EBA492"/>
</g>
<path d="M125.232 171.717C128.877 172.068 132.556 171.511 135.94 170.097C134.198 174.002 131.013 173.958 131.013 173.958C129.937 174.116 128.838 173.992 127.825 173.6C126.812 173.207 125.919 172.558 125.232 171.717Z" fill="white"/>
<path d="M161.699 191.282C161.699 191.282 167.927 192.157 171.563 203.067C175.2 213.977 183.746 253.615 184.291 256.342C184.837 259.07 182.473 267.775 172.927 271.673C167.793 273.896 162.177 274.776 156.608 274.23V254.16L160.608 249.797L159.086 242.728L161.699 191.282Z" fill="#AEAAD6"/>
<path d="M178.61 250.864C178.285 250.757 177.969 250.624 177.666 250.466C177.053 250.205 176.178 249.819 175.064 249.41C173.772 248.922 172.441 248.541 171.086 248.273C170.288 248.116 169.479 248.013 168.666 247.966C167.799 247.901 166.927 247.955 166.075 248.125C163.041 248.708 160.297 250.312 158.302 252.671C157.736 253.402 157.284 254.214 156.961 255.08C156.768 255.717 156.677 256.069 156.654 256.069C156.639 255.979 156.639 255.887 156.654 255.796C156.654 255.626 156.734 255.376 156.813 255.046C157.105 254.148 157.543 253.303 158.109 252.546C160.102 250.104 162.889 248.439 165.984 247.841C166.859 247.669 167.754 247.619 168.643 247.694C169.468 247.743 170.288 247.85 171.098 248.012C172.467 248.299 173.809 248.702 175.109 249.216C176.246 249.648 177.087 250.069 177.678 250.353C177.973 250.501 178.2 250.626 178.348 250.717C178.443 250.75 178.532 250.8 178.61 250.864Z" fill="#1D1526"/>
<path d="M172.973 247.126C172.973 247.126 172.223 246.842 170.973 246.58C169.336 246.241 167.645 246.276 166.023 246.681C164.402 247.086 162.893 247.852 161.609 248.921C160.62 249.739 160.143 250.387 160.097 250.353C160.18 250.183 160.287 250.026 160.415 249.887C160.738 249.478 161.095 249.098 161.484 248.751C162.756 247.607 164.289 246.792 165.949 246.376C167.609 245.96 169.345 245.956 171.007 246.364C171.508 246.482 171.998 246.642 172.473 246.842C172.651 246.914 172.819 247.009 172.973 247.126Z" fill="#1D1526"/>
<path d="M159.665 207.636C159.745 207.636 159.665 217.398 159.54 229.432C159.415 241.467 159.211 251.24 159.131 251.24C159.052 251.24 159.131 241.478 159.256 229.432C159.381 217.386 159.574 207.636 159.665 207.636Z" fill="#1D1526"/>
<path d="M160.143 252.058L145.187 251.819C144.684 251.814 144.188 251.943 143.751 252.192C143.314 252.442 142.95 252.803 142.699 253.24L132.471 275.388L132.857 276.877H150.245L160.404 254.092L160.143 252.058Z" fill="#1D1526"/>
<path d="M160.006 254.99L159.45 256.24L156.427 262.365C156.427 262.365 148.585 261.661 147.335 261.501C146.085 261.342 145.438 262.638 145.358 263.422C145.39 264.032 145.621 264.615 146.017 265.081C143.77 264.405 141.597 263.507 139.528 262.399C137.88 261.263 137.062 261.979 137.062 261.979C136.82 261.761 136.534 261.597 136.224 261.499C135.913 261.401 135.585 261.371 135.261 261.411C134.938 261.45 134.627 261.559 134.35 261.73C134.072 261.901 133.834 262.129 133.653 262.399C134.231 264.407 135.031 266.343 136.039 268.172C136.698 269.184 140.312 272.718 140.585 273.082C140.858 273.445 143.631 274.218 146.835 275.991C147.701 276.496 148.704 276.713 149.701 276.611C150.698 276.509 151.636 276.093 152.381 275.423C152.532 275.433 152.684 275.433 152.836 275.423C153.574 275.343 155.54 273.445 156.04 273.513C156.54 273.582 156.938 273.445 157.927 272.377C159.756 269.866 161.218 267.107 162.268 264.183C162.836 262.229 162.507 261.729 162.336 261.604C163.255 262.039 164.237 262.327 165.245 262.456C167.291 262.786 168.359 261.32 168.53 258.513C168.7 255.706 162.302 255.728 160.006 254.99Z" fill="#FCAF9D"/>
<path d="M158.938 267.729C158.776 267.801 158.603 267.843 158.426 267.854C157.949 267.943 157.467 268.004 156.983 268.036C155.376 268.142 153.762 268.023 152.188 267.684C150.601 267.348 149.071 266.79 147.642 266.025C147.213 265.797 146.8 265.543 146.403 265.263C146.251 265.169 146.11 265.059 145.983 264.934C145.983 264.934 146.642 265.32 147.721 265.865C149.144 266.572 150.648 267.102 152.199 267.445C153.752 267.777 155.34 267.914 156.926 267.854C158.188 267.843 158.938 267.729 158.938 267.729Z" fill="#FF9A6C"/>
<path d="M159.086 262.161C158.519 262.448 157.891 262.592 157.256 262.581C156.628 262.645 155.993 262.56 155.404 262.331C155.404 262.252 156.233 262.331 157.245 262.331C158.256 262.331 159.063 262.047 159.086 262.161Z" fill="#FF9A6C"/>
<path d="M162.802 261.9C162.802 261.968 161.665 261.491 160.245 261.104C158.824 260.718 157.62 260.536 157.631 260.456C158.538 260.448 159.44 260.586 160.302 260.866C161.188 261.065 162.034 261.415 162.802 261.9Z" fill="#FF9A6C"/>
<path d="M162.086 256.626C162.154 256.626 161.87 257.502 161.859 258.592C161.836 259.048 161.882 259.503 161.995 259.945C162.109 260.274 162.336 260.354 162.313 260.388C162.29 260.422 162.245 260.388 162.154 260.388C162.013 260.313 161.901 260.193 161.836 260.047C161.655 259.593 161.577 259.103 161.609 258.615C161.568 257.92 161.734 257.228 162.086 256.626Z" fill="#FF9A6C"/>
<path d="M154.54 272.525H154.301H153.597C152.995 272.525 152.119 272.445 151.051 272.32C149.785 272.189 148.536 271.927 147.324 271.536C146.604 271.303 145.908 271.002 145.244 270.638C144.562 270.263 143.88 269.831 143.187 269.388C140.062 267.388 137.278 265.593 135.494 264.422C135.578 263.719 135.938 263.077 136.494 262.638C136.638 262.522 136.794 262.423 136.96 262.342L137.13 262.286C136.927 262.412 136.734 262.552 136.551 262.706C136.047 263.151 135.727 263.766 135.653 264.433V264.365C137.482 265.502 140.278 267.263 143.403 269.252C144.096 269.695 144.767 270.138 145.449 270.502C146.094 270.862 146.771 271.163 147.472 271.4C148.671 271.788 149.904 272.065 151.154 272.229C152.222 272.366 153.085 272.445 153.688 272.502L154.381 272.582C154.431 272.556 154.485 272.537 154.54 272.525Z" fill="#FF9A6C"/>
<path d="M151.892 275.196C151.645 275.187 151.398 275.161 151.154 275.116C150.688 275.048 150.017 274.923 149.176 274.741C147.004 274.283 144.878 273.629 142.824 272.786C141.692 272.306 140.633 271.671 139.676 270.9C138.906 270.261 138.188 269.561 137.528 268.809C136.971 268.173 136.539 267.673 136.244 267.252C136.083 267.068 135.938 266.871 135.812 266.661C135.996 266.825 136.167 267.004 136.323 267.195C136.63 267.548 137.085 268.07 137.664 268.684C138.33 269.417 139.052 270.097 139.824 270.718C140.767 271.471 141.811 272.087 142.926 272.548C144.969 273.385 147.074 274.061 149.222 274.571C150.04 274.775 150.71 274.923 151.176 275.014C151.42 275.051 151.66 275.112 151.892 275.196Z" fill="#FF9A6C"/>
<path d="M78.7408 207.897C78.118 206.417 77.5903 204.899 77.1611 203.351C76.6391 201.839 76.2027 200.299 75.8542 198.737C76.4747 200.218 77.0023 201.736 77.4339 203.283C77.9623 204.793 78.3987 206.334 78.7408 207.897Z" fill="#1D1526"/>
<path d="M161.472 194.339C161.458 194.789 161.409 195.237 161.324 195.68C161.199 196.612 161.052 197.703 160.892 198.919C160.733 200.135 160.631 201.191 160.517 202.157C160.492 202.609 160.427 203.058 160.324 203.498C160.27 203.045 160.27 202.588 160.324 202.135C160.324 201.305 160.461 200.146 160.62 198.873C160.779 197.6 160.972 196.464 161.142 195.646C161.191 195.197 161.302 194.757 161.472 194.339Z" fill="#1D1526"/>
<path d="M135.357 269.468C135.012 269.808 134.631 270.109 134.221 270.366C133.482 270.911 132.391 271.672 131.016 272.57C127.425 274.908 123.703 277.036 119.868 278.946C116.029 280.845 112.083 282.519 108.049 283.957C106.492 284.503 105.231 284.923 104.344 285.173C103.895 285.336 103.43 285.454 102.958 285.525C103.373 285.287 103.816 285.1 104.276 284.969L107.924 283.639C110.981 282.503 115.163 280.707 119.64 278.491C124.118 276.275 128.039 273.945 130.823 272.286L134.118 270.229C134.505 269.935 134.92 269.68 135.357 269.468Z" fill="#1D1526"/>
<path d="M110.129 323.687C110.129 323.687 104.276 318.936 102.583 316.777C100.89 314.618 99.7873 313.368 99.7873 313.368C99.7873 313.368 92.7756 311.266 90.1959 308.3C87.6163 305.333 83.3774 301.061 83.3774 301.061L75.0815 309.777C75.0815 309.777 79.8659 317.539 80.2636 320.107C80.6614 322.675 83.5252 329.71 83.5252 329.71L99.435 320.175C99.435 320.175 102.844 324.925 105.004 325.448C106.879 325.869 109.992 327.164 110.129 323.687Z" fill="#FCAF9D"/>
<path d="M75.7975 195.078C75.7975 195.078 70.0472 196.544 64.3537 217.977C59.2058 237.296 52.2168 274.662 52.4554 278.412C52.6941 282.162 74.9111 315.914 74.9111 315.914L79.7068 317.618L90.0255 309.038C90.0255 309.038 93.4347 303.447 92.4347 302.083C91.4346 300.72 87.1958 297.867 87.1958 297.867L78.7408 274.548L83.4342 243.66L75.7975 195.078Z" fill="#AEAAD6"/>
<path d="M70.0469 273.048C70.2541 273.017 70.4647 273.017 70.6719 273.048L72.422 273.286L78.786 274.252H78.911V274.377L83.7407 287.548C85.059 291.23 86.2977 294.685 87.3773 297.674L87.2977 297.571C87.991 298.162 88.6842 298.651 89.2978 299.265C89.8699 299.837 90.3355 300.507 90.6729 301.242C91.2207 302.435 91.4177 303.76 91.2411 305.061C91.1077 305.885 90.863 306.688 90.5138 307.447C90.4205 307.724 90.2986 307.991 90.1502 308.242C90.1949 307.951 90.2711 307.665 90.3774 307.39C90.6553 306.629 90.8497 305.841 90.957 305.038C91.0742 303.792 90.8461 302.538 90.2979 301.413C89.9667 300.732 89.5207 300.113 88.9797 299.583C88.4114 299.037 87.6841 298.526 86.9909 297.958V297.89L83.2975 287.787L78.5359 274.548L78.7064 274.684L72.3765 273.548L70.6492 273.195C70.4428 273.173 70.2403 273.123 70.0469 273.048Z" fill="#1D1526"/>
<path d="M81.0021 218.261C81.1498 218.261 82.1385 234.012 83.1613 253.49C84.1841 272.969 84.9341 288.719 84.775 288.719C84.6159 288.719 83.6386 272.969 82.6044 253.49C81.5703 234.012 80.843 218.261 81.0021 218.261Z" fill="#1D1526"/>
<path d="M123.062 196.725C122.77 196.829 122.462 196.879 122.152 196.873C121.309 196.94 120.462 196.94 119.618 196.873C116.823 196.696 114.093 195.948 111.599 194.673C109.104 193.399 106.898 191.625 105.118 189.463C104.58 188.81 104.09 188.119 103.652 187.395C103.478 187.138 103.34 186.859 103.242 186.566C103.322 186.509 104.004 187.645 105.402 189.225C109.073 193.371 114.175 195.977 119.686 196.521C121.743 196.748 123.062 196.634 123.062 196.725Z" fill="#1D1526"/>
<path d="M134.914 183.066C135.259 183.731 135.45 184.465 135.471 185.214C135.653 187.025 135.368 188.853 134.641 190.522C133.915 192.192 132.773 193.647 131.323 194.748C130.761 195.248 130.092 195.613 129.368 195.817C129.368 195.737 130.073 195.339 131.084 194.453C132.405 193.322 133.451 191.905 134.144 190.311C134.837 188.716 135.159 186.985 135.085 185.248C135.039 183.907 134.835 183.089 134.914 183.066Z" fill="#1D1526"/>
<path d="M470.894 518H5.10599C3.7518 518 2.45306 518.738 1.49551 520.05C0.537933 521.363 0 523.143 0 525C-0.00177002 525.92 0.129089 526.831 0.385071 527.682C0.641052 528.532 1.01706 529.305 1.49155 529.955C1.96603 530.606 2.52966 531.121 3.14993 531.472C3.77023 531.823 4.43497 532.002 5.10599 532H470.894C471.565 532.002 472.23 531.823 472.85 531.472C473.47 531.121 474.034 530.606 474.508 529.955C474.983 529.305 475.359 528.532 475.615 527.682C475.871 526.831 476.002 525.92 476 525C476 523.143 475.462 521.363 474.504 520.05C473.547 518.738 472.248 518 470.894 518Z" fill="#AEAAD6"/>
</svg>
