<svg width="476" height="512" viewBox="0 0 476 512" fill="none" xmlns="http://www.w3.org/2000/svg">
<g clip-path="url(#clip0_5421_51948)">
<path d="M0 504.994C0 501.157 2.08736 498 4.6239 498H465.376C467.932 498 470 501.157 470 504.994C470 508.831 467.906 512 465.376 512H4.6239C2.08736 511.939 0 508.782 0 504.994Z" fill="#AEAAD6"/>
<path fill-rule="evenodd" clip-rule="evenodd" d="M300.188 75.4905C302.806 77.6071 303.211 81.4449 301.095 84.0623L253.739 142.621L296.352 142.595C299.718 142.593 302.449 145.32 302.451 148.687C302.453 152.053 299.725 154.783 296.359 154.785L240.969 154.818C238.62 154.82 236.479 153.471 235.466 151.351C234.453 149.231 234.749 146.718 236.226 144.891L291.616 76.3972C293.733 73.7797 297.571 73.3738 300.188 75.4905Z" fill="#B6C6E4"/>
<path fill-rule="evenodd" clip-rule="evenodd" d="M236.245 10.1502C236.245 6.784 238.974 4.05518 242.34 4.05518H296.356C298.704 4.05518 300.844 5.40477 301.856 7.52439C302.868 9.644 302.572 12.1564 301.095 13.9827L253.739 72.5411L296.352 72.5157C299.718 72.5137 302.449 75.2409 302.451 78.6071C302.453 81.9733 299.725 84.7037 296.359 84.7057L240.969 84.7387C238.62 84.7402 236.479 83.3911 235.466 81.2712C234.453 79.1513 234.749 76.638 236.226 74.8112L283.588 16.2452H242.34C238.974 16.2452 236.245 13.5164 236.245 10.1502Z" fill="#B6C6E4"/>
<path fill-rule="evenodd" clip-rule="evenodd" d="M300.173 152.649C302.797 154.757 303.215 158.594 301.106 161.218L254.262 219.511L296.392 219.765C299.758 219.786 302.47 222.531 302.45 225.897C302.43 229.263 299.685 231.976 296.318 231.955L241.57 231.625C239.231 231.611 237.106 230.26 236.102 228.148C235.098 226.036 235.39 223.535 236.855 221.712L291.604 153.582C293.713 150.958 297.549 150.54 300.173 152.649Z" fill="#B6C6E4"/>
<path fill-rule="evenodd" clip-rule="evenodd" d="M304.141 236.359L252.264 268.794L304.141 301.228L298.151 310.81L238.611 273.584C236.96 272.552 235.957 270.741 235.957 268.794C235.957 266.846 236.96 265.035 238.611 264.003L298.151 226.777L304.141 236.359Z" fill="#B7BAC4"/>
<path fill-rule="evenodd" clip-rule="evenodd" d="M300.15 306.957C302.784 309.053 303.221 312.888 301.125 315.522L254.309 374.361L296.316 374.092C299.682 374.071 302.429 376.782 302.45 380.148C302.472 383.514 299.76 386.261 296.394 386.282L241.645 386.632C239.298 386.647 237.151 385.314 236.125 383.203C235.099 381.092 235.375 378.579 236.837 376.743L291.586 307.932C293.682 305.298 297.516 304.861 300.15 306.957Z" fill="#B6C6E4"/>
<path fill-rule="evenodd" clip-rule="evenodd" d="M300.141 384.113C302.779 386.204 303.223 390.037 301.132 392.676L254.328 451.744L296.285 451.263C299.651 451.224 302.411 453.922 302.45 457.288C302.488 460.653 299.791 463.413 296.425 463.452L241.676 464.08C239.326 464.107 237.17 462.78 236.134 460.67C235.099 458.56 235.369 456.042 236.829 454.2L291.578 385.105C293.669 382.467 297.502 382.023 300.141 384.113Z" fill="#B6C6E4"/>
<path fill-rule="evenodd" clip-rule="evenodd" d="M240.906 -2.06396C244.272 -2.06396 247.001 0.66486 247.001 4.03103V501.11C247.001 504.476 244.272 507.205 240.906 507.205C237.54 507.205 234.811 504.476 234.811 501.11V4.03103C234.811 0.66486 237.54 -2.06396 240.906 -2.06396Z" fill="#B6C6E4"/>
<path fill-rule="evenodd" clip-rule="evenodd" d="M298.522 -2.06396C301.888 -2.06396 304.617 0.66486 304.617 4.03103V501.11C304.617 504.476 301.888 507.205 298.522 507.205C295.156 507.205 292.427 504.476 292.427 501.11V4.03103C292.427 0.66486 295.156 -2.06396 298.522 -2.06396Z" fill="#B6C6E4"/>
<path d="M340.658 18.9457H288.248V140.82H340.658V18.9457Z" fill="#FFC692"/>
<path d="M296.144 18.9457H251.59V140.813H296.144V18.9457Z" fill="#D88850"/>
<path opacity="0.8" d="M258.198 93.8491H253.639V97.999H258.198V93.8491Z" fill="#C2D8EF"/>
<path opacity="0.2" d="M281.39 93.8491H273.778V97.999H281.39V93.8491Z" fill="#1D1526"/>
<path opacity="0.2" d="M286.378 93.8491H282.46V97.999H286.378V93.8491Z" fill="#1D1526"/>
<path opacity="0.2" d="M281.39 52.8851H273.778V57.0351H281.39V52.8851Z" fill="#1D1526"/>
<path opacity="0.2" d="M286.378 52.8851H282.46V57.0351H286.378V52.8851Z" fill="#1D1526"/>
<path opacity="0.2" d="M281.39 134.74H273.778V138.89H281.39V134.74Z" fill="#1D1526"/>
<path opacity="0.2" d="M286.378 134.74H282.46V138.89H286.378V134.74Z" fill="#1D1526"/>
<path opacity="0.8" d="M258.198 134.972H253.639V139.122H258.198V134.972Z" fill="#C2D8EF"/>
<path opacity="0.8" d="M258.198 53.1957H253.639V57.3457H258.198V53.1957Z" fill="#C2D8EF"/>
<path d="M256.235 18.9457H210.069V140.813H256.235V18.9457Z" fill="#BA6145"/>
<path d="M211.728 18.9457H180.99V140.813H211.728V18.9457Z" fill="#CC8271"/>
<path d="M241.045 59.0704H236.168V64.3965H241.045V59.0704Z" fill="#A86951"/>
<path opacity="0.3" d="M199.716 93.8491H195.797V97.999H199.716V93.8491Z" fill="#1D1526"/>
<path opacity="0.3" d="M204.704 93.8491H200.786V97.999H204.704V93.8491Z" fill="#1D1526"/>
<path opacity="0.3" d="M209.541 93.8491H205.623V97.999H209.541V93.8491Z" fill="#1D1526"/>
<path opacity="0.3" d="M199.716 52.8851H195.797V57.0351H199.716V52.8851Z" fill="#1D1526"/>
<path opacity="0.3" d="M204.704 52.8851H200.786V57.0351H204.704V52.8851Z" fill="#1D1526"/>
<path opacity="0.3" d="M209.541 52.8851H205.623V57.0351H209.541V52.8851Z" fill="#1D1526"/>
<path opacity="0.3" d="M199.716 134.74H195.797V138.89H199.716V134.74Z" fill="#1D1526"/>
<path opacity="0.3" d="M204.704 134.74H200.786V138.89H204.704V134.74Z" fill="#1D1526"/>
<path opacity="0.3" d="M209.541 134.74H205.623V138.89H209.541V134.74Z" fill="#1D1526"/>
<path d="M241.481 18.9457H236.604V23.4591H241.481V18.9457Z" fill="#A86951"/>
<path d="M241.481 99.6776H236.604V106.339H241.481V99.6776Z" fill="#A86951"/>
<path d="M298.939 18.9457H248.703V140.813H298.939V18.9457Z" fill="#FFC692"/>
<path d="M248.604 18.9457H214.371V140.813H248.604V18.9457Z" fill="#CC8271"/>
<path opacity="0.3" d="M236.592 93.8491H232.673V97.999H236.592V93.8491Z" fill="#1D1526"/>
<path opacity="0.3" d="M241.587 93.8491H237.668V97.999H241.587V93.8491Z" fill="#1D1526"/>
<path opacity="0.3" d="M246.423 93.8491H242.505V97.999H246.423V93.8491Z" fill="#1D1526"/>
<path opacity="0.3" d="M236.592 52.8851H232.673V57.0351H236.592V52.8851Z" fill="#1D1526"/>
<path opacity="0.3" d="M241.587 52.8851H237.668V57.0351H241.587V52.8851Z" fill="#1D1526"/>
<path opacity="0.3" d="M246.423 52.8851H242.505V57.0351H246.423V52.8851Z" fill="#1D1526"/>
<path opacity="0.3" d="M236.592 134.74H232.673V138.89H236.592V134.74Z" fill="#1D1526"/>
<path opacity="0.3" d="M241.587 134.74H237.668V138.89H241.587V134.74Z" fill="#1D1526"/>
<path opacity="0.3" d="M246.423 134.74H242.505V138.89H246.423V134.74Z" fill="#1D1526"/>
<g style="mix-blend-mode:multiply" opacity="0.5">
<path fill-rule="evenodd" clip-rule="evenodd" d="M181.069 102.255V98.1446H340.665V102.255H181.069Z" fill="#C9804F"/>
</g>
<g style="mix-blend-mode:multiply" opacity="0.5">
<path fill-rule="evenodd" clip-rule="evenodd" d="M181.069 57.5176H340.651V61.6276H181.069V57.5176Z" fill="#C9804F"/>
</g>
<g style="mix-blend-mode:multiply" opacity="0.5">
<path fill-rule="evenodd" clip-rule="evenodd" d="M297.624 18.5822V141.692H293.514V18.5822H297.624Z" fill="#C9804F"/>
</g>
<g style="mix-blend-mode:multiply" opacity="0.5">
<g style="mix-blend-mode:multiply">
<path d="M263.814 142.135V95.8779C263.817 92.8388 265.027 89.9253 267.176 87.777C269.325 85.6286 272.239 84.4211 275.278 84.4193H332.016C335.054 84.4211 337.968 85.6286 340.118 87.777C342.267 89.9253 343.476 92.8388 343.48 95.8779V142.135C343.476 145.174 342.267 148.088 340.118 150.236C337.968 152.384 335.054 153.592 332.016 153.594H275.278C272.239 153.592 269.325 152.384 267.176 150.236C265.027 148.088 263.817 145.174 263.814 142.135ZM275.278 90.7103C273.902 90.712 272.583 91.2589 271.61 92.2312C270.636 93.2034 270.088 94.5218 270.084 95.8977V142.155C270.086 143.532 270.634 144.852 271.607 145.826C272.581 146.799 273.901 147.347 275.278 147.349H332.016C333.392 147.347 334.712 146.799 335.686 145.826C336.66 144.852 337.207 143.532 337.209 142.155V95.8977C337.206 94.5218 336.657 93.2034 335.684 92.2312C334.71 91.2589 333.391 90.712 332.016 90.7103H275.278Z" fill="#4D5D7A"/>
</g>
</g>
<path d="M281.145 149.503H184.049V156.078H281.145V149.503Z" fill="#FC1264"/>
<path d="M347.253 140.866H332.432V145.452H347.253V140.866Z" fill="#FFCE78"/>
<path d="M332.643 140.866H243.285V145.591H332.643V140.866Z" fill="#CC865E"/>
<path d="M314.249 145.459H325.468L329.069 140.873H325.475L314.249 145.459Z" fill="#72504C"/>
<path d="M293.072 145.459H304.291L307.892 140.873H304.218L293.072 145.459Z" fill="#72504C"/>
<path d="M270.963 145.459H282.183L285.79 140.873H282.473L270.963 145.459Z" fill="#72504C"/>
<path d="M249.364 145.459H260.583L264.191 140.873H260.874L249.364 145.459Z" fill="#72504C"/>
<path d="M304.013 140.866H289.193V145.452H304.013V140.866Z" fill="#FFCE78"/>
<path d="M325.633 140.866H310.812V145.452H325.633V140.866Z" fill="#FFCE78"/>
<path d="M282.394 140.866H267.574V145.452H282.394V140.866Z" fill="#FFCE78"/>
<path d="M251.114 140.807H176.563V145.578H251.114V140.807Z" fill="#C48E47"/>
<path d="M225.848 149.027H215.831V162.039H225.848V149.027Z" fill="#72504C"/>
<path d="M195.771 149.027H185.754V162.039H195.771V149.027Z" fill="#72504C"/>
<path d="M333.482 158.404H252.528V163.288H333.482V158.404Z" fill="#72504C"/>
<path d="M333.483 150.27H323.724V163.281H333.483V150.27Z" fill="#B87A53"/>
<path d="M323.723 163.281L333.383 150.19H323.723V158.543L322.19 160.704L323.723 163.281Z" fill="#72504C"/>
<path d="M262.287 150.27H252.528V163.281H262.287V150.27Z" fill="#72504C"/>
<path d="M299.785 150.27H290.025V163.281H299.785V150.27Z" fill="#B87A53"/>
<path d="M291.453 158.404H214.305V163.288H291.453V158.404Z" fill="#72504C"/>
<path d="M291.453 150.27H281.694V163.281H291.453V150.27Z" fill="#B87A53"/>
<path d="M253.949 150.27H244.19V163.281H253.949V150.27Z" fill="#B87A53"/>
<path d="M333.41 163.281H347.239V147.944L333.41 150.27V163.281Z" fill="#EFBB67"/>
<path d="M291.38 163.281H305.209V148.195L291.38 150.27V163.281Z" fill="#EFBB67"/>
<path d="M245.954 163.281H259.777V148.069L245.954 150.27V163.281Z" fill="#EFBB67"/>
<path d="M236.4 163.281H246.159V150.27L236.4 148.327V163.281Z" fill="#B87A53"/>
<path d="M176.623 163.281H186.382V150.27L176.623 147.944V163.281Z" fill="#B87A53"/>
<path d="M206.515 163.281H216.267V150.27L206.515 147.435V163.281Z" fill="#B87A53"/>
<path d="M347.239 145.393H245.954V150.27H347.239V145.393Z" fill="#EFBB67"/>
<path d="M246.152 145.393H176.623V150.27H246.152V145.393Z" fill="#B87A53"/>
<path d="M246.152 158.404H176.623V163.288H246.152V158.404Z" fill="#B87A53"/>
<path d="M281.628 163.281L291.288 150.19H281.628V158.424L279.685 160.935L281.628 163.281Z" fill="#72504C"/>
<path d="M260.973 140.866H246.152V145.499H260.973V140.866Z" fill="#FFCE78"/>
<path d="M283.2 150.157H271.201V156.224H283.2V150.157Z" fill="#FFC943"/>
<path d="M328.851 150.336H316.852V156.402H328.851V150.336Z" fill="#FFC943"/>
<path d="M317.162 150.336H305.163V156.402H317.162V150.336Z" fill="#F5A838"/>
<g style="mix-blend-mode:multiply" opacity="0.5">
<path d="M310.74 149.503V104.131L318.986 95.7986H321.88H330.443V99.2745H321.88V149.503V156.078H311.876H278.284V149.503H310.74Z" fill="#4D5D7A"/>
</g>
<g style="mix-blend-mode:multiply" opacity="0.5">
<path d="M256.453 140.813V104.131L263.84 95.7986H266.728H275.291V99.2745H266.728V141.283L256.453 140.813Z" fill="#4D5D7A"/>
</g>
<path d="M318.418 149.503V94.0209H325.805H328.692H337.255V99.2744H328.692V149.503V156.078H318.689H317.816L318.418 149.503Z" fill="#FC1264"/>
<path d="M333.628 94.0209H336.515H342.039V99.2744H336.515L326.241 99.6379V94.0209H333.628Z" fill="#F4B2C8"/>
<path d="M326.241 149.503V99.6379L336.515 99.2744V149.503V156.078H326.518H326.485V149.503H326.241Z" fill="#F4B2C8"/>
<path d="M281.145 95.3558H271.148V156.078H281.145V95.3558Z" fill="#F4B2C8"/>
<path d="M271.254 94.2787H263.761V152.523H271.254V94.2787Z" fill="#FC1264"/>
<path d="M270.389 149.503H259.771V156.078H270.389V149.503Z" fill="#FC1264"/>
<path d="M286.147 94.0209H268.908V102.83H286.147V94.0209Z" fill="#F4B2C8"/>
<path fill-rule="evenodd" clip-rule="evenodd" d="M265.921 101.739C265.921 99.1187 268.045 96.9943 270.666 96.9943H342.436C345.056 96.9943 347.181 99.1187 347.181 101.739C347.181 104.36 345.056 106.484 342.436 106.484H270.666C268.045 106.484 265.921 104.36 265.921 101.739Z" fill="#5C6F92"/>
<path fill-rule="evenodd" clip-rule="evenodd" d="M266.496 140.404C266.496 137.783 268.62 135.659 271.241 135.659H342.435C345.056 135.659 347.18 137.783 347.18 140.404C347.18 143.024 345.056 145.149 342.435 145.149H271.241C268.62 145.149 266.496 143.024 266.496 140.404Z" fill="#5C6F92"/>
<path fill-rule="evenodd" clip-rule="evenodd" d="M285.07 282.539C285.07 279.269 287.721 276.619 290.99 276.619H336.826C340.095 276.619 342.746 279.269 342.746 282.539C342.746 285.808 340.095 288.459 336.826 288.459H290.99C287.721 288.459 285.07 285.808 285.07 282.539Z" fill="#38455C"/>
<path fill-rule="evenodd" clip-rule="evenodd" d="M278.866 80.7257C276.889 80.7257 275.285 82.3285 275.285 84.3069V145.459C275.285 147.437 276.889 149.04 278.866 149.04H335.604C337.58 149.04 339.184 147.437 339.184 145.459V84.3069C339.184 82.3285 337.58 80.7257 335.604 80.7257H278.866ZM265.795 84.3069C265.795 77.0884 271.647 71.2357 278.866 71.2357H335.604C342.823 71.2357 348.674 77.0884 348.674 84.3069V145.459C348.674 152.677 342.823 158.53 335.604 158.53H278.866C271.647 158.53 265.795 152.677 265.795 145.459V84.3069Z" fill="#5C6F92"/>
<path d="M307.099 187.883H259.05V299.621H307.099V187.883Z" fill="#FFC692"/>
<path d="M266.298 187.883H225.445V299.621H266.298V187.883Z" fill="#D88850"/>
<path opacity="0.8" d="M231.504 256.562H227.321V260.368H231.504V256.562Z" fill="#C2D8EF"/>
<path opacity="0.2" d="M252.766 256.562H245.789V260.368H252.766V256.562Z" fill="#1D1526"/>
<path opacity="0.2" d="M257.345 256.562H253.751V260.368H257.345V256.562Z" fill="#1D1526"/>
<path opacity="0.2" d="M252.766 219.001H245.789V222.807H252.766V219.001Z" fill="#1D1526"/>
<path opacity="0.2" d="M257.345 219.001H253.751V222.807H257.345V219.001Z" fill="#1D1526"/>
<path opacity="0.2" d="M252.766 294.05H245.789V297.856H252.766V294.05Z" fill="#1D1526"/>
<path opacity="0.2" d="M257.345 294.05H253.751V297.856H257.345V294.05Z" fill="#1D1526"/>
<path opacity="0.8" d="M231.504 294.261H227.321V298.068H231.504V294.261Z" fill="#C2D8EF"/>
<path opacity="0.8" d="M231.504 219.285H227.321V223.092H231.504V219.285Z" fill="#C2D8EF"/>
<path d="M229.706 187.883H187.379V299.621H229.706V187.883Z" fill="#BA6145"/>
<path d="M188.899 187.883H160.719V299.621H188.899V187.883Z" fill="#D88850"/>
<path d="M215.778 224.677H211.305V229.561H215.778V224.677Z" fill="#A86951"/>
<path opacity="0.3" d="M177.884 256.562H174.29V260.368H177.884V256.562Z" fill="#1D1526"/>
<path opacity="0.3" d="M182.464 256.562H178.869V260.368H182.464V256.562Z" fill="#1D1526"/>
<path opacity="0.3" d="M186.89 256.562H183.296V260.368H186.89V256.562Z" fill="#1D1526"/>
<path opacity="0.3" d="M177.884 219.001H174.29V222.807H177.884V219.001Z" fill="#1D1526"/>
<path opacity="0.3" d="M182.464 219.001H178.869V222.807H182.464V219.001Z" fill="#1D1526"/>
<path opacity="0.3" d="M186.89 219.001H183.296V222.807H186.89V219.001Z" fill="#1D1526"/>
<path opacity="0.3" d="M177.884 294.05H174.29V297.856H177.884V294.05Z" fill="#1D1526"/>
<path opacity="0.3" d="M182.464 294.05H178.869V297.856H182.464V294.05Z" fill="#1D1526"/>
<path opacity="0.3" d="M186.89 294.05H183.296V297.856H186.89V294.05Z" fill="#1D1526"/>
<path d="M216.174 187.883H211.701V192.02H216.174V187.883Z" fill="#A86951"/>
<path d="M216.174 261.901H211.701V268.007H216.174V261.901Z" fill="#A86951"/>
<path d="M268.856 187.883H222.795V299.621H268.856V187.883Z" fill="#FFC692"/>
<path d="M222.709 187.883H191.317V299.621H222.709V187.883Z" fill="#CC8271"/>
<path opacity="0.3" d="M211.695 256.562H208.101V260.368H211.695V256.562Z" fill="#1D1526"/>
<path opacity="0.3" d="M216.274 256.562H212.679V260.368H216.274V256.562Z" fill="#1D1526"/>
<path opacity="0.3" d="M220.707 256.562H217.113V260.368H220.707V256.562Z" fill="#1D1526"/>
<path opacity="0.3" d="M211.695 219.001H208.101V222.807H211.695V219.001Z" fill="#1D1526"/>
<path opacity="0.3" d="M216.274 219.001H212.679V222.807H216.274V219.001Z" fill="#1D1526"/>
<path opacity="0.3" d="M220.707 219.001H217.113V222.807H220.707V219.001Z" fill="#1D1526"/>
<path opacity="0.3" d="M211.695 294.05H208.101V297.856H211.695V294.05Z" fill="#1D1526"/>
<path opacity="0.3" d="M216.274 294.05H212.679V297.856H216.274V294.05Z" fill="#1D1526"/>
<path opacity="0.3" d="M220.707 294.05H217.113V297.856H220.707V294.05Z" fill="#1D1526"/>
<g style="mix-blend-mode:multiply" opacity="0.5">
<path fill-rule="evenodd" clip-rule="evenodd" d="M160.785 264.269V260.499H307.112V264.269H160.785Z" fill="#C9804F"/>
</g>
<g style="mix-blend-mode:multiply" opacity="0.5">
<path fill-rule="evenodd" clip-rule="evenodd" d="M160.785 223.248H307.106V227.018H160.785V223.248Z" fill="#C9804F"/>
</g>
<path d="M312.491 299.535H298.972V303.718H312.491V299.535Z" fill="#FFD797"/>
<path d="M299.17 299.535H217.688V303.843H299.17V299.535Z" fill="#CC865E"/>
<path d="M282.394 303.718H292.622L295.906 299.535H292.629L282.394 303.718Z" fill="#72504C"/>
<path d="M263.081 303.718H273.309L276.599 299.535H273.249L263.081 303.718Z" fill="#72504C"/>
<path d="M242.921 303.718H253.156L256.44 299.535H253.421L242.921 303.718Z" fill="#72504C"/>
<path d="M223.231 303.718H233.46L236.744 299.535H233.724L223.231 303.718Z" fill="#72504C"/>
<path d="M273.064 299.535H259.545V303.718H273.064V299.535Z" fill="#FFD797"/>
<path d="M292.774 299.535H279.255V303.718H292.774V299.535Z" fill="#FFD797"/>
<path d="M253.348 299.535H239.829V303.718H253.348V299.535Z" fill="#FFD797"/>
<path d="M224.817 299.535H156.84V303.889H224.817V299.535Z" fill="#C48E47"/>
<path d="M201.784 306.969H192.646V318.837H201.784V306.969Z" fill="#72504C"/>
<path d="M174.363 306.969H165.225V318.837H174.363V306.969Z" fill="#72504C"/>
<path d="M299.93 315.526H226.112V319.974H299.93V315.526Z" fill="#72504C"/>
<path d="M299.93 308.105H291.03V319.974H299.93V308.105Z" fill="#B87A53"/>
<path d="M291.03 319.974L299.844 308.033H291.03V315.652L289.636 317.621L291.03 319.974Z" fill="#72504C"/>
<path d="M235.012 308.105H226.112V319.974H235.012V308.105Z" fill="#72504C"/>
<path d="M269.206 308.105H260.306V319.974H269.206V308.105Z" fill="#B87A53"/>
<path d="M261.6 315.526H191.258V319.974H261.6V315.526Z" fill="#72504C"/>
<path d="M261.607 308.105H252.707V319.974H261.607V308.105Z" fill="#B87A53"/>
<path d="M227.414 308.105H218.514V319.974H227.414V308.105Z" fill="#B87A53"/>
<path d="M299.864 319.974H312.471V305.984L299.864 308.105V319.974Z" fill="#EFBB67"/>
<path d="M261.541 319.974H274.148V306.216L261.541 308.106V319.974Z" fill="#EFBB67"/>
<path d="M220.119 319.974H232.719V306.103L220.119 308.106V319.974Z" fill="#EFBB67"/>
<path d="M211.404 319.974H220.304V308.105L211.404 306.334V319.974Z" fill="#B87A53"/>
<path d="M156.899 319.974H165.8V308.105L156.899 305.984V319.974Z" fill="#B87A53"/>
<path d="M184.148 319.974H193.049V308.106L184.148 305.522V319.974Z" fill="#B87A53"/>
<path d="M312.477 303.658H220.119V308.106H312.477V303.658Z" fill="#EFBB67"/>
<path d="M220.304 303.658H156.899V308.106H220.304V303.658Z" fill="#B87A53"/>
<path d="M220.304 315.526H156.899V319.974H220.304V315.526Z" fill="#B87A53"/>
<path d="M252.641 319.974L261.455 308.033H252.641V315.546L250.876 317.833L252.641 319.974Z" fill="#72504C"/>
<path d="M233.817 299.535H220.298V303.757H233.817V299.535Z" fill="#FFD797"/>
<g style="mix-blend-mode:multiply" opacity="0.5">
<path fill-rule="evenodd" clip-rule="evenodd" d="M265.606 188.181V299.396H261.836V188.181H265.606Z" fill="#C9804F"/>
</g>
<path d="M208.755 187.883H160.706V299.621H208.755V187.883Z" fill="#FFC692"/>
<path d="M167.954 187.883H127.1V299.621H167.954V187.883Z" fill="#D88850"/>
<path opacity="0.8" d="M133.159 256.562H128.977V260.368H133.159V256.562Z" fill="#C2D8EF"/>
<path opacity="0.2" d="M154.422 256.562H147.444V260.368H154.422V256.562Z" fill="#1D1526"/>
<path opacity="0.2" d="M159.001 256.562H155.406V260.368H159.001V256.562Z" fill="#1D1526"/>
<path opacity="0.2" d="M154.422 219.001H147.444V222.807H154.422V219.001Z" fill="#1D1526"/>
<path opacity="0.2" d="M159.001 219.001H155.406V222.807H159.001V219.001Z" fill="#1D1526"/>
<path opacity="0.2" d="M154.422 294.05H147.444V297.856H154.422V294.05Z" fill="#1D1526"/>
<path opacity="0.2" d="M159.001 294.05H155.406V297.856H159.001V294.05Z" fill="#1D1526"/>
<path opacity="0.8" d="M133.159 294.261H128.977V298.068H133.159V294.261Z" fill="#C2D8EF"/>
<path opacity="0.8" d="M133.159 219.285H128.977V223.092H133.159V219.285Z" fill="#C2D8EF"/>
<path d="M131.355 187.883H89.0283V299.621H131.355V187.883Z" fill="#BA6145"/>
<path d="M90.5478 187.883H62.3672V299.621H90.5478V187.883Z" fill="#CC8271"/>
<path d="M117.427 224.677H112.954V229.561H117.427V224.677Z" fill="#A86951"/>
<path opacity="0.3" d="M79.5397 256.562H75.9453V260.368H79.5397V256.562Z" fill="#1D1526"/>
<path opacity="0.3" d="M84.1125 256.562H80.5181V260.368H84.1125V256.562Z" fill="#1D1526"/>
<path opacity="0.3" d="M88.5461 256.562H84.9517V260.368H88.5461V256.562Z" fill="#1D1526"/>
<path opacity="0.3" d="M79.5397 219.001H75.9453V222.807H79.5397V219.001Z" fill="#1D1526"/>
<path opacity="0.3" d="M84.1125 219.001H80.5181V222.807H84.1125V219.001Z" fill="#1D1526"/>
<path opacity="0.3" d="M88.5461 219.001H84.9517V222.807H88.5461V219.001Z" fill="#1D1526"/>
<path opacity="0.3" d="M79.5397 294.05H75.9453V297.856H79.5397V294.05Z" fill="#1D1526"/>
<path opacity="0.3" d="M84.1125 294.05H80.5181V297.856H84.1125V294.05Z" fill="#1D1526"/>
<path opacity="0.3" d="M88.5461 294.05H84.9517V297.856H88.5461V294.05Z" fill="#1D1526"/>
<path d="M117.83 187.883H113.357V192.02H117.83V187.883Z" fill="#A86951"/>
<path d="M117.83 261.901H113.357V268.007H117.83V261.901Z" fill="#A86951"/>
<path d="M170.511 187.883H124.451V299.621H170.511V187.883Z" fill="#FFC692"/>
<path d="M124.364 187.883H92.9727V299.621H124.364V187.883Z" fill="#CC8271"/>
<path opacity="0.3" d="M113.35 256.562H109.756V260.368H113.35V256.562Z" fill="#1D1526"/>
<path opacity="0.3" d="M117.929 256.562H114.334V260.368H117.929V256.562Z" fill="#1D1526"/>
<path opacity="0.3" d="M122.362 256.562H118.768V260.368H122.362V256.562Z" fill="#1D1526"/>
<path opacity="0.3" d="M113.35 219.001H109.756V222.807H113.35V219.001Z" fill="#1D1526"/>
<path opacity="0.3" d="M117.929 219.001H114.334V222.807H117.929V219.001Z" fill="#1D1526"/>
<path opacity="0.3" d="M122.362 219.001H118.768V222.807H122.362V219.001Z" fill="#1D1526"/>
<path opacity="0.3" d="M113.35 294.05H109.756V297.856H113.35V294.05Z" fill="#1D1526"/>
<path opacity="0.3" d="M117.929 294.05H114.334V297.856H117.929V294.05Z" fill="#1D1526"/>
<path opacity="0.3" d="M122.362 294.05H118.768V297.856H122.362V294.05Z" fill="#1D1526"/>
<g style="mix-blend-mode:multiply" opacity="0.5">
<path fill-rule="evenodd" clip-rule="evenodd" d="M62.4399 264.269V260.499H208.768V264.269H62.4399Z" fill="#C9804F"/>
</g>
<g style="mix-blend-mode:multiply" opacity="0.5">
<path fill-rule="evenodd" clip-rule="evenodd" d="M62.4399 223.248H208.754V227.018H62.4399V223.248Z" fill="#C9804F"/>
</g>
<path d="M214.139 299.535H200.621V303.718H214.139V299.535Z" fill="#FFD797"/>
<path d="M200.819 299.535H119.336V303.843H200.819V299.535Z" fill="#CC865E"/>
<path d="M184.043 303.718H194.278L197.562 299.535H194.284L184.043 303.718Z" fill="#72504C"/>
<path d="M164.736 303.718H174.964L178.248 299.535H174.898L164.736 303.718Z" fill="#72504C"/>
<path d="M144.577 303.718H154.805L158.095 299.535H155.069L144.577 303.718Z" fill="#72504C"/>
<path d="M124.88 303.718H135.115L138.399 299.535H135.379L124.88 303.718Z" fill="#72504C"/>
<path d="M174.713 299.535H161.194V303.718H174.713V299.535Z" fill="#FFD797"/>
<path d="M194.429 299.535H180.911V303.718H194.429V299.535Z" fill="#FFD797"/>
<path d="M155.003 299.535H141.484V303.718H155.003V299.535Z" fill="#FFD797"/>
<path d="M126.473 299.535H58.4956V303.889H126.473V299.535Z" fill="#C48E47"/>
<path d="M103.439 306.969H94.3008V318.837H103.439V306.969Z" fill="#72504C"/>
<path d="M76.0184 306.969H66.8804V318.837H76.0184V306.969Z" fill="#72504C"/>
<path d="M201.586 315.526H127.768V319.974H201.586V315.526Z" fill="#72504C"/>
<path d="M201.585 308.105H192.685V319.974H201.585V308.105Z" fill="#B87A53"/>
<path d="M192.685 319.974L201.493 308.033H192.685V315.652L191.285 317.621L192.685 319.974Z" fill="#72504C"/>
<path d="M136.668 308.105H127.768V319.974H136.668V308.105Z" fill="#72504C"/>
<path d="M170.861 308.105H161.961V319.974H170.861V308.105Z" fill="#B87A53"/>
<path d="M163.256 315.526H92.9136V319.974H163.256V315.526Z" fill="#72504C"/>
<path d="M163.262 308.105H154.362V319.974H163.262V308.105Z" fill="#B87A53"/>
<path d="M129.062 308.105H120.162V319.974H129.062V308.105Z" fill="#B87A53"/>
<path d="M201.52 319.974H214.126V305.984L201.52 308.105V319.974Z" fill="#EFBB67"/>
<path d="M163.196 319.974H175.803V306.216L163.196 308.106V319.974Z" fill="#EFBB67"/>
<path d="M121.768 319.974H134.375V306.103L121.768 308.106V319.974Z" fill="#EFBB67"/>
<path d="M113.06 319.974H121.953V308.105L113.06 306.334V319.974Z" fill="#B87A53"/>
<path d="M58.5547 319.974H67.4483V308.105L58.5547 305.984V319.974Z" fill="#B87A53"/>
<path d="M85.8037 319.974H94.7039V308.106L85.8037 305.522V319.974Z" fill="#B87A53"/>
<path d="M214.126 303.658H121.768V308.106H214.126V303.658Z" fill="#EFBB67"/>
<path d="M121.959 303.658H58.5547V308.106H121.959V303.658Z" fill="#B87A53"/>
<path d="M121.959 315.526H58.5547V319.974H121.959V315.526Z" fill="#B87A53"/>
<path d="M154.296 319.974L163.11 308.033H154.296V315.546L152.525 317.833L154.296 319.974Z" fill="#72504C"/>
<path d="M135.465 299.535H121.946V303.757H135.465V299.535Z" fill="#FFD797"/>
<g style="mix-blend-mode:multiply" opacity="0.5">
<path fill-rule="evenodd" clip-rule="evenodd" d="M167.255 188.181V299.396H163.485V188.181H167.255Z" fill="#C9804F"/>
</g>
<path d="M208.755 31.8382H160.706V143.576H208.755V31.8382Z" fill="#FFC692"/>
<path d="M167.954 31.8382H127.1V143.576H167.954V31.8382Z" fill="#D88850"/>
<path opacity="0.8" d="M133.159 100.517H128.977V104.323H133.159V100.517Z" fill="#C2D8EF"/>
<path opacity="0.2" d="M154.422 100.517H147.444V104.323H154.422V100.517Z" fill="#1D1526"/>
<path opacity="0.2" d="M159.001 100.517H155.406V104.323H159.001V100.517Z" fill="#1D1526"/>
<path opacity="0.2" d="M154.422 62.956H147.444V66.7623H154.422V62.956Z" fill="#1D1526"/>
<path opacity="0.2" d="M159.001 62.956H155.406V66.7623H159.001V62.956Z" fill="#1D1526"/>
<path opacity="0.2" d="M154.422 138.005H147.444V141.811H154.422V138.005Z" fill="#1D1526"/>
<path opacity="0.2" d="M159.001 138.005H155.406V141.811H159.001V138.005Z" fill="#1D1526"/>
<path opacity="0.8" d="M133.159 138.216H128.977V142.023H133.159V138.216Z" fill="#C2D8EF"/>
<path opacity="0.8" d="M133.159 63.2401H128.977V67.0464H133.159V63.2401Z" fill="#C2D8EF"/>
<path d="M131.355 31.8382H89.0283V143.576H131.355V31.8382Z" fill="#BA6145"/>
<path d="M90.5478 31.8382H62.3672V143.576H90.5478V31.8382Z" fill="#CC8271"/>
<path d="M117.427 68.6324H112.954V73.5158H117.427V68.6324Z" fill="#A86951"/>
<path opacity="0.3" d="M79.5397 100.517H75.9453V104.323H79.5397V100.517Z" fill="#1D1526"/>
<path opacity="0.3" d="M84.1125 100.517H80.5181V104.323H84.1125V100.517Z" fill="#1D1526"/>
<path opacity="0.3" d="M88.5461 100.517H84.9517V104.323H88.5461V100.517Z" fill="#1D1526"/>
<path opacity="0.3" d="M79.5397 62.9561H75.9453V66.7624H79.5397V62.9561Z" fill="#1D1526"/>
<path opacity="0.3" d="M84.1125 62.956H80.5181V66.7623H84.1125V62.956Z" fill="#1D1526"/>
<path opacity="0.3" d="M88.5461 62.956H84.9517V66.7623H88.5461V62.956Z" fill="#1D1526"/>
<path opacity="0.3" d="M79.5397 138.005H75.9453V141.811H79.5397V138.005Z" fill="#1D1526"/>
<path opacity="0.3" d="M84.1125 138.005H80.5181V141.811H84.1125V138.005Z" fill="#1D1526"/>
<path opacity="0.3" d="M88.5461 138.005H84.9517V141.811H88.5461V138.005Z" fill="#1D1526"/>
<path d="M117.83 31.8382H113.357V35.9749H117.83V31.8382Z" fill="#A86951"/>
<path d="M117.83 105.856H113.357V111.962H117.83V105.856Z" fill="#A86951"/>
<path d="M170.511 31.8382H124.451V143.576H170.511V31.8382Z" fill="#FFC692"/>
<path d="M124.364 31.8382H92.9727V143.576H124.364V31.8382Z" fill="#CC8271"/>
<path opacity="0.3" d="M113.35 100.517H109.756V104.323H113.35V100.517Z" fill="#1D1526"/>
<path opacity="0.3" d="M117.929 100.517H114.334V104.323H117.929V100.517Z" fill="#1D1526"/>
<path opacity="0.3" d="M122.362 100.517H118.768V104.323H122.362V100.517Z" fill="#1D1526"/>
<path opacity="0.3" d="M113.35 62.956H109.756V66.7623H113.35V62.956Z" fill="#1D1526"/>
<path opacity="0.3" d="M117.929 62.956H114.334V66.7623H117.929V62.956Z" fill="#1D1526"/>
<path opacity="0.3" d="M122.362 62.956H118.768V66.7623H122.362V62.956Z" fill="#1D1526"/>
<path opacity="0.3" d="M113.35 138.005H109.756V141.811H113.35V138.005Z" fill="#1D1526"/>
<path opacity="0.3" d="M117.929 138.005H114.334V141.811H117.929V138.005Z" fill="#1D1526"/>
<path opacity="0.3" d="M122.362 138.005H118.768V141.811H122.362V138.005Z" fill="#1D1526"/>
<g style="mix-blend-mode:multiply" opacity="0.5">
<path fill-rule="evenodd" clip-rule="evenodd" d="M62.4399 108.224V104.454H208.768V108.224H62.4399Z" fill="#C9804F"/>
</g>
<g style="mix-blend-mode:multiply" opacity="0.5">
<path fill-rule="evenodd" clip-rule="evenodd" d="M62.4399 67.2034H208.754V70.9734H62.4399V67.2034Z" fill="#C9804F"/>
</g>
<path d="M214.139 143.49H200.621V147.673H214.139V143.49Z" fill="#FFD797"/>
<path d="M200.819 143.49H119.336V147.798H200.819V143.49Z" fill="#CC865E"/>
<path d="M184.043 147.673H194.278L197.562 143.49H194.284L184.043 147.673Z" fill="#72504C"/>
<path d="M164.736 147.673H174.964L178.248 143.49H174.898L164.736 147.673Z" fill="#72504C"/>
<path d="M144.577 147.673H154.805L158.095 143.49H155.069L144.577 147.673Z" fill="#72504C"/>
<path d="M124.88 147.673H135.115L138.399 143.49H135.379L124.88 147.673Z" fill="#72504C"/>
<path d="M174.713 143.49H161.194V147.673H174.713V143.49Z" fill="#FFD797"/>
<path d="M194.429 143.49H180.911V147.673H194.429V143.49Z" fill="#FFD797"/>
<path d="M155.003 143.49H141.484V147.673H155.003V143.49Z" fill="#FFD797"/>
<path d="M126.473 143.49H58.4956V147.844H126.473V143.49Z" fill="#C48E47"/>
<path d="M103.439 150.924H94.3008V162.792H103.439V150.924Z" fill="#72504C"/>
<path d="M76.0184 150.924H66.8804V162.792H76.0184V150.924Z" fill="#72504C"/>
<path d="M201.586 159.481H127.768V163.929H201.586V159.481Z" fill="#72504C"/>
<path d="M201.585 152.06H192.685V163.929H201.585V152.06Z" fill="#B87A53"/>
<path d="M192.685 163.929L201.493 151.994H192.685V159.607L191.285 161.576L192.685 163.929Z" fill="#72504C"/>
<path d="M136.668 152.06H127.768V163.929H136.668V152.06Z" fill="#72504C"/>
<path d="M170.861 152.06H161.961V163.929H170.861V152.06Z" fill="#B87A53"/>
<path d="M163.256 159.481H92.9136V163.929H163.256V159.481Z" fill="#72504C"/>
<path d="M163.262 152.06H154.362V163.929H163.262V152.06Z" fill="#B87A53"/>
<path d="M129.062 152.06H120.162V163.929H129.062V152.06Z" fill="#B87A53"/>
<path d="M201.52 163.929H214.126V149.939L201.52 152.06V163.929Z" fill="#EFBB67"/>
<path d="M163.196 163.929H175.803V150.17L163.196 152.06V163.929Z" fill="#EFBB67"/>
<path d="M121.768 163.929H134.375V150.058L121.768 152.06V163.929Z" fill="#EFBB67"/>
<path d="M113.06 163.929H121.953V152.06L113.06 150.289V163.929Z" fill="#B87A53"/>
<path d="M58.5547 163.929H67.4483V152.06L58.5547 149.939V163.929Z" fill="#B87A53"/>
<path d="M85.8037 163.929H94.7039V152.06L85.8037 149.477V163.929Z" fill="#B87A53"/>
<path d="M214.126 147.613H121.768V152.06H214.126V147.613Z" fill="#EFBB67"/>
<path d="M121.959 147.613H58.5547V152.06H121.959V147.613Z" fill="#B87A53"/>
<path d="M121.959 159.481H58.5547V163.929H121.959V159.481Z" fill="#B87A53"/>
<path d="M154.296 163.929L163.11 151.994H154.296V159.501L152.525 161.788L154.296 163.929Z" fill="#72504C"/>
<path d="M135.465 143.49H121.946V147.712H135.465V143.49Z" fill="#FFD797"/>
<g style="mix-blend-mode:multiply" opacity="0.5">
<path fill-rule="evenodd" clip-rule="evenodd" d="M167.255 32.1356V143.357H163.485V32.1356H167.255Z" fill="#C9804F"/>
</g>
<path d="M239.254 163.189H40.6753V176.286H239.254V163.189Z" fill="#768BB1"/>
<path d="M322.792 163.189H125.884V176.286H322.792V163.189Z" fill="#B6C6E4"/>
<path d="M239.254 318.963H40.6753V332.06H239.254V318.963Z" fill="#768BB1"/>
<path d="M322.792 318.963H125.884V332.06H322.792V318.963Z" fill="#B6C6E4"/>
<path d="M155.499 437.051H44.0518V350.451H167.947L155.499 437.051Z" fill="#CC8271"/>
<path d="M306.313 350.451H136.522V437.051H306.313V350.451Z" fill="#FFC692"/>
<g style="mix-blend-mode:multiply" opacity="0.5">
<path fill-rule="evenodd" clip-rule="evenodd" d="M85.1221 436.152V350.451H90.5821V436.152H85.1221Z" fill="#A86951"/>
</g>
<path opacity="0.3" fill-rule="evenodd" clip-rule="evenodd" d="M199.435 436.152V350.451H206.405V436.152H199.435Z" fill="#A86951"/>
<path opacity="0.3" fill-rule="evenodd" clip-rule="evenodd" d="M255.188 436.152V350.451H262.158V436.152H255.188Z" fill="#A86951"/>
<path d="M236.539 351.032H228.425V358.532H236.539V351.032Z" fill="#CC8271"/>
<path d="M172.889 351.032H164.775V358.532H172.889V351.032Z" fill="#CC8271"/>
<path d="M287.924 351.032H279.811V358.532H287.924V351.032Z" fill="#CC8271"/>
<path d="M238.104 436.436H39.5254V449.533H238.104V436.436Z" fill="#768BB1"/>
<path d="M321.635 436.436H128.369V449.533H321.635V436.436Z" fill="#B6C6E4"/>
<path fill-rule="evenodd" clip-rule="evenodd" d="M111.672 75.7409C114.151 78.018 114.315 81.8737 112.038 84.3528L58.0879 143.089L107.488 142.596C110.854 142.562 113.61 145.263 113.644 148.629C113.677 151.995 110.976 154.751 107.61 154.785L44.1458 155.419C41.7167 155.444 39.5051 154.023 38.5169 151.804C37.5288 149.585 37.9527 146.991 39.596 145.202L103.06 76.1067C105.337 73.6276 109.193 73.4638 111.672 75.7409Z" fill="#B6C6E4"/>
<path fill-rule="evenodd" clip-rule="evenodd" d="M39.5492 11.3991C39.5492 8.03296 42.278 5.30414 45.6442 5.30414H107.549C109.967 5.30414 112.157 6.73373 113.129 8.94769C114.102 11.1617 113.674 13.7412 112.038 15.5222L58.0879 74.2588L107.488 73.765C110.854 73.7313 113.61 76.4327 113.644 79.7988C113.677 83.1648 110.976 85.9207 107.61 85.9544L44.1458 86.5888C41.7167 86.613 39.5051 85.1925 38.5169 82.9734C37.5288 80.7542 37.9527 78.1601 39.596 76.371L93.6749 17.4941H45.6442C42.278 17.4941 39.5492 14.7653 39.5492 11.3991Z" fill="#B6C6E4"/>
<path fill-rule="evenodd" clip-rule="evenodd" d="M111.672 152.911C114.151 155.188 114.315 159.044 112.038 161.523L58.0874 220.254L107.489 219.766C110.855 219.732 113.61 222.434 113.644 225.8C113.677 229.166 110.975 231.922 107.609 231.955L44.1452 232.583C41.7161 232.607 39.5047 231.186 38.5167 228.967C37.5288 226.748 37.9529 224.154 39.5962 222.365L103.06 153.277C105.338 150.798 109.193 150.634 111.672 152.911Z" fill="#B6C6E4"/>
<path fill-rule="evenodd" clip-rule="evenodd" d="M111.672 230.074C114.151 232.352 114.315 236.207 112.038 238.686L58.0101 297.508L106.97 297.312C110.336 297.299 113.076 300.017 113.089 303.383C113.102 306.749 110.384 309.489 107.018 309.502L44.1092 309.753C41.6866 309.763 39.4883 308.337 38.5095 306.121C37.5307 303.905 37.9572 301.319 39.596 299.535L103.06 230.44C105.337 227.961 109.193 227.797 111.672 230.074Z" fill="#B6C6E4"/>
<path fill-rule="evenodd" clip-rule="evenodd" d="M111.672 307.238C114.151 309.515 114.315 313.371 112.038 315.85L58.0879 374.586L107.488 374.093C110.854 374.059 113.61 376.76 113.644 380.126C113.677 383.492 110.976 386.248 107.61 386.282L44.1458 386.916C41.7167 386.941 39.5051 385.52 38.5169 383.301C37.5288 381.082 37.9527 378.488 39.596 376.699L103.06 307.604C105.337 305.125 109.193 304.961 111.672 307.238Z" fill="#B6C6E4"/>
<path fill-rule="evenodd" clip-rule="evenodd" d="M111.687 384.415C114.158 386.701 114.309 390.557 112.024 393.028L58.0555 451.391L107.533 451.262C110.899 451.254 113.635 453.975 113.644 457.342C113.652 460.708 110.931 463.444 107.564 463.452L44.1003 463.618C41.6755 463.624 39.4776 462.192 38.5032 459.972C37.5288 457.752 37.9632 455.165 39.6094 453.385L103.074 384.752C105.359 382.281 109.215 382.13 111.687 384.415Z" fill="#B6C6E4"/>
<path fill-rule="evenodd" clip-rule="evenodd" d="M43.3841 -2.06396C46.7502 -2.06396 49.4791 0.66486 49.4791 4.03103V501.11C49.4791 504.476 46.7502 507.205 43.3841 507.205C40.0179 507.205 37.2891 504.476 37.2891 501.11V4.03103C37.2891 0.66486 40.0179 -2.06396 43.3841 -2.06396Z" fill="#B6C6E4"/>
<path fill-rule="evenodd" clip-rule="evenodd" d="M109.716 -2.06396C113.082 -2.06396 115.811 0.66486 115.811 4.03103V501.11C115.811 504.476 113.082 507.205 109.716 507.205C106.35 507.205 103.621 504.476 103.621 501.11V4.03103C103.621 0.66486 106.35 -2.06396 109.716 -2.06396Z" fill="#B6C6E4"/>
<g style="mix-blend-mode:multiply" opacity="0.5">
<path d="M218.686 176.286H303.234L309.418 163.189H224.863L218.686 176.286Z" fill="#4D5D7A"/>
</g>
<path fill-rule="evenodd" clip-rule="evenodd" d="M282.889 250.667C282.889 248.047 285.013 245.922 287.634 245.922H333.469C336.09 245.922 338.214 248.047 338.214 250.667C338.214 253.288 336.09 255.412 333.469 255.412H287.634C285.013 255.412 282.889 253.288 282.889 250.667Z" fill="#5C6F92"/>
<path d="M337.645 114.017H339.257H344.59V354.561H339.257H332.313V114.017H337.645Z" fill="#B6C6E4"/>
<path d="M285.506 114.017H287.118H292.45V364.4H287.118H280.174V114.017H285.506Z" fill="#B6C6E4"/>
<path d="M334.289 114.017H335.901H341.233V354.561H335.901H332.313V114.017H334.289Z" fill="#38455C"/>
<path fill-rule="evenodd" clip-rule="evenodd" d="M292.952 370.857C292.952 368.236 295.076 366.112 297.697 366.112H343.532C346.153 366.112 348.277 368.236 348.277 370.857C348.277 373.477 346.153 375.602 343.532 375.602H297.697C295.076 375.602 292.952 373.477 292.952 370.857Z" fill="#5C6F92"/>
<path d="M282.149 114.017H283.762H289.094V364.4H283.762H280.174V114.017H282.149Z" fill="#38455C"/>
<path d="M372.407 313.676H376.979C378.109 313.676 379.034 315.137 379.034 316.914V332.39C379.034 334.168 378.109 335.622 376.979 335.622H372.407" fill="#B6C6E4"/>
<path d="M368.396 335.562H365.931C364.868 335.562 364.002 334.194 364.002 332.529V316.709C364.002 315.044 364.868 313.676 365.931 313.676H368.396V335.562Z" fill="#FC1264"/>
<path d="M367.742 313.676H372.314C373.444 313.676 374.369 315.137 374.369 316.914V332.39C374.369 334.168 373.444 335.622 372.314 335.622H367.742" fill="#38455C"/>
<path fill-rule="evenodd" clip-rule="evenodd" d="M448.483 313.855V414.682H438.403V313.855H448.483Z" fill="#B6C6E4"/>
<path fill-rule="evenodd" clip-rule="evenodd" d="M438.111 312.665C440.731 312.665 442.856 314.789 442.856 317.41V418.244C442.856 420.864 440.731 422.989 438.111 422.989C435.49 422.989 433.366 420.864 433.366 418.244V317.41C433.366 314.789 435.49 312.665 438.111 312.665Z" fill="#5C6F92"/>
<path d="M367.623 450.743H368.231C377.561 450.743 385.126 462.637 385.126 477.288C385.126 477.843 385.126 478.391 385.126 478.94C384.584 492.817 377.244 503.852 368.264 503.852H359.787C359.787 503.852 357.25 450.763 359.787 450.763H367.623" fill="#1D1526"/>
<path d="M458.891 458.164C459.01 458.157 459.129 458.157 459.248 458.164C467.104 458.454 473.421 468.552 473.421 480.982C473.421 493.59 466.913 503.819 458.885 503.819H450.916V458.164" fill="#5C6F92"/>
<path d="M450.89 499.101C446.489 499.101 441.514 492.321 441.124 482.224C441.124 481.821 441.124 481.404 441.124 480.995C441.124 470.329 446.284 462.895 450.916 462.895H451.095C455.647 463.067 460.715 470.541 460.715 480.988C460.689 491.647 455.528 499.101 450.89 499.101Z" fill="#1D1526"/>
<path d="M450.883 467.626C451.088 467.66 452.204 468.228 453.414 470.323C455.026 473.078 455.951 476.931 455.951 480.995C455.951 489.691 452.059 494.211 450.89 494.37C449.819 494.211 446.159 490.074 445.842 482.059C445.842 481.649 445.842 481.299 445.842 480.995C445.842 476.97 446.76 473.065 448.372 470.329C449.575 468.267 450.658 467.686 450.896 467.626H450.883ZM450.896 458.164C442.875 458.164 436.36 468.38 436.36 480.995C436.36 481.464 436.36 481.94 436.36 482.409C436.829 494.363 443.132 503.833 450.857 503.833C458.878 503.833 465.393 493.603 465.393 480.995C465.393 468.565 459.083 458.468 451.22 458.177C451.101 458.17 450.982 458.17 450.863 458.177L450.896 458.164Z" fill="#1D1526"/>
<path fill-rule="evenodd" clip-rule="evenodd" d="M378.535 315.423C381.007 311.624 385.15 306.809 391.298 306.809H402.22C405.815 306.809 408.73 309.724 408.73 313.319C408.73 316.915 405.815 319.829 402.22 319.829H391.716C391.467 320.002 390.689 320.618 389.446 322.526C387.536 325.461 385.498 330.014 383.436 336.002C379.343 347.889 375.64 363.971 372.514 380.339C369.4 396.643 366.906 412.975 365.19 425.246C364.332 431.376 363.67 436.482 363.223 440.05C363 441.834 362.83 443.233 362.717 444.183C362.66 444.658 362.618 445.02 362.589 445.262L362.558 445.533L362.552 445.588C362.544 445.659 362.535 445.73 362.525 445.802C355.27 451.341 349.609 444.17 349.61 444.157L349.612 444.143L349.623 444.043L349.657 443.754C349.687 443.5 349.731 443.126 349.789 442.64C349.905 441.667 350.077 440.243 350.304 438.432C350.758 434.812 351.428 429.644 352.295 423.442C354.028 411.05 356.556 394.488 359.725 377.896C362.882 361.368 366.722 344.551 371.125 331.763C373.312 325.414 375.76 319.685 378.535 315.423Z" fill="#5C6F92"/>
<path fill-rule="evenodd" clip-rule="evenodd" d="M395.449 313.319C395.449 309.58 398.48 306.549 402.219 306.549H447.559C451.298 306.549 454.329 309.58 454.329 313.319C454.329 317.058 451.298 320.089 447.559 320.089H402.219C398.48 320.089 395.449 317.058 395.449 313.319Z" fill="#B6C6E4"/>
<path d="M361.564 499.101C354.395 499.101 349.4 487.596 349.4 477.294C349.4 464.64 355.512 455.804 361.214 455.487H361.564C368.733 455.487 373.728 466.986 373.728 477.294C373.728 477.79 373.728 478.279 373.728 478.774C373.266 489.777 367.709 499.101 361.564 499.101Z" fill="#1D1526"/>
<path d="M361.604 460.186C364.167 460.252 368.997 466.893 368.997 477.268C368.997 477.644 368.997 478.067 368.997 478.55C368.614 488.363 363.982 494.37 361.59 494.37C359.04 494.37 354.157 487.709 354.157 477.268C354.157 466.265 359.304 460.311 361.511 460.192H361.63L361.604 460.186ZM361.59 450.729C361.392 450.729 361.181 450.729 360.983 450.729C351.937 451.225 344.695 462.902 344.695 477.255C344.695 491.925 352.254 503.819 361.59 503.819C370.57 503.819 377.911 492.81 378.453 478.907C378.453 478.358 378.453 477.81 378.453 477.255C378.453 462.591 370.887 450.71 361.557 450.71L361.59 450.729Z" fill="#1D1526"/>
<path d="M362.78 278.97H351.316V287.957H362.78V278.97Z" fill="#B6C6E4"/>
<path d="M351.316 278.97H352.928H358.26V484.649H352.928H345.984H340.651L345.984 278.97H351.316Z" fill="#B6C6E4"/>
<path d="M356.562 278.97H345.098V287.957H356.562V278.97Z" fill="#38455C"/>
<path d="M345.098 278.97H346.711H352.043V484.649H346.711H339.766V278.97H345.098Z" fill="#38455C"/>
<path d="M349.453 278.97H339.766V287.957H349.453V278.97Z" fill="#38455C"/>
<path d="M310.641 278.97H299.177V287.957H310.641V278.97Z" fill="#B6C6E4"/>
<path d="M299.177 278.97H300.789H306.121V494.482H300.789H293.845H288.513L293.845 278.97H299.177Z" fill="#B6C6E4"/>
<path d="M442.161 408.827H405.391C400.64 408.827 396.788 412.679 396.788 417.431V441.201C396.788 445.952 400.64 449.804 405.391 449.804H442.161C446.912 449.804 450.764 445.952 450.764 441.201V417.431C450.764 412.679 446.912 408.827 442.161 408.827Z" fill="#B6C6E4"/>
<path d="M416.571 456.981C416.309 457.677 415.849 458.28 415.248 458.717C414.646 459.154 413.93 459.405 413.188 459.439H354.54C354.214 459.447 353.89 459.384 353.591 459.254C353.291 459.124 353.024 458.93 352.808 458.686C352.591 458.441 352.43 458.153 352.337 457.84C352.244 457.527 352.22 457.198 352.267 456.875L354.401 438.815C354.573 437.407 354.97 435.121 355.293 433.74L359.152 417.219C359.476 415.838 360.355 415.686 361.134 416.896L371.891 434.077C372.344 434.717 372.936 435.246 373.623 435.625C374.309 436.003 375.073 436.222 375.856 436.264H420.786C421.091 436.235 421.399 436.287 421.678 436.413C421.957 436.539 422.199 436.736 422.379 436.984C422.559 437.233 422.672 437.523 422.705 437.828C422.739 438.133 422.692 438.441 422.57 438.722L416.571 456.981Z" fill="#B6C6E4"/>
<path d="M467.666 456.28V478.927H365.39C365.39 478.365 365.39 477.823 365.39 477.274C365.39 458.454 355.69 462.631 343.718 462.631H343.116V443.335H363.48L375.486 456.28H467.666Z" fill="#FFC943"/>
<path d="M376.034 478.927C375.413 461.217 368.105 446.89 358.782 444.564C357.89 444.327 356.97 444.207 356.047 444.207H342.924V478.96L376.034 478.927Z" fill="#8D7120"/>
<path fill-rule="evenodd" clip-rule="evenodd" d="M334.29 443.038C334.29 440.163 336.62 437.833 339.495 437.833H356.403C356.467 437.833 356.531 437.834 356.594 437.836C357.658 437.875 358.716 438.011 359.755 438.243C366.291 439.641 371.491 444.415 375.018 450.343C378.586 456.34 380.758 463.988 381.096 472.231C381.099 472.302 381.1 472.373 381.1 472.444V479.918C381.1 482.792 378.77 485.123 375.895 485.123C373.021 485.123 370.69 482.792 370.69 479.918V472.553C370.4 465.839 368.626 459.959 366.072 455.666C363.469 451.292 360.362 449.013 357.564 448.42C357.542 448.416 357.521 448.411 357.5 448.406C357.103 448.317 356.7 448.262 356.295 448.243H339.495C336.62 448.243 334.29 445.912 334.29 443.038Z" fill="#485959"/>
<path d="M304.423 278.97H292.959V287.957H304.423V278.97Z" fill="#38455C"/>
<path d="M292.959 278.97H294.571H299.904V494.482H294.571H287.627V278.97H292.959Z" fill="#38455C"/>
<path d="M297.313 278.97H287.627V287.957H297.313V278.97Z" fill="#38455C"/>
<path d="M314.374 437.077C314.303 437.27 314.281 437.478 314.311 437.681C314.341 437.885 314.421 438.077 314.545 438.242C314.668 438.406 314.831 438.537 315.018 438.622C315.206 438.707 315.411 438.744 315.616 438.729H340.282C340.777 438.705 341.255 438.539 341.658 438.251C342.061 437.963 342.372 437.564 342.555 437.103L353.992 403.514C354.296 402.615 354.798 401.155 355.102 400.256L356.985 394.738C357.125 394.233 357.152 393.704 357.067 393.187C356.981 392.67 356.784 392.178 356.49 391.745L350.583 384.053C350.236 383.651 349.813 383.323 349.337 383.088C348.862 382.854 348.344 382.716 347.814 382.685H329.109C328.636 382.707 328.185 382.886 327.825 383.193C327.466 383.501 327.22 383.92 327.126 384.383L323.697 404.36C323.539 405.292 323.188 406.798 322.924 407.71L320.598 415.713L319.64 419.017L314.374 437.077Z" fill="#B6C6E4"/>
<path opacity="0.5" d="M313.898 438.729H342.006L354.553 401.882L320.096 417.365L313.898 438.729Z" fill="#5C6F92"/>
<path d="M317.387 437.051C317.516 437.202 317.684 437.315 317.873 437.378C318.062 437.44 318.264 437.45 318.458 437.406C318.652 437.361 318.83 437.265 318.974 437.126C319.117 436.988 319.219 436.813 319.27 436.621L335.597 394.719C335.757 394.225 335.803 393.7 335.73 393.186C335.656 392.672 335.466 392.181 335.174 391.752L329.267 384.06C329.157 383.887 329.004 383.745 328.823 383.648C328.643 383.551 328.44 383.502 328.235 383.506C328.03 383.51 327.829 383.567 327.653 383.671C327.476 383.775 327.329 383.922 327.225 384.099L305.421 414.893C305.147 415.328 304.983 415.823 304.944 416.336C304.905 416.848 304.992 417.363 305.196 417.834L311.87 431.123C312.412 432.121 313.098 433.033 313.905 433.832L317.387 437.051Z" fill="#38455C"/>
<path d="M457.365 479.098H309.352V488.931H457.365V479.098Z" fill="#1D1526"/>
<path d="M363.038 426.887C363.038 428.87 365.086 429.445 367.564 430.119C368.03 430.25 368.513 430.315 368.997 430.31C371.099 430.31 372.579 430.931 373.365 429.365C373.456 429.15 373.536 428.929 373.603 428.704L374.64 404.281L397.383 404.499C398.813 404.499 400.184 403.931 401.195 402.919C402.207 401.908 402.775 400.537 402.775 399.107C402.775 397.676 402.207 396.305 401.195 395.294C400.184 394.282 398.813 393.714 397.383 393.714H369.44C368.257 393.71 367.106 394.097 366.165 394.814C365.223 395.53 364.545 396.538 364.234 397.679L363.196 425.837C363.096 426.178 363.042 426.531 363.038 426.887Z" fill="#AF3131"/>
<path d="M397.449 322.392C397.211 321.315 396.385 319.749 393.749 319.511C391.112 319.273 391.033 321.414 391.271 321.804C391.568 322.237 391.887 322.654 392.229 323.053L394.713 323.608L397.449 322.392Z" fill="#FFF1AA"/>
<path d="M380.97 389.445C380.97 389.445 380.917 389.346 380.858 389.221C380.856 389.265 380.866 389.308 380.885 389.347C380.905 389.386 380.934 389.42 380.97 389.445Z" fill="#FFE536"/>
<g style="mix-blend-mode:multiply" opacity="0.5">
<path d="M388.674 354.085C388.674 354.382 389.084 355.407 388.146 354.673C387.941 354.53 387.719 354.412 387.485 354.323C386.517 353.989 385.495 353.841 384.472 353.887C384.025 353.9 383.582 353.964 383.15 354.078C383.755 353.703 384.429 353.453 385.133 353.345C385.5 353.112 385.926 352.988 386.362 352.988C386.948 352.932 387.539 352.932 388.126 352.988H388.198V353.252H388.82C388.74 353.728 388.674 354.085 388.674 354.085Z" fill="#E09F2B"/>
</g>
<path fill-rule="evenodd" clip-rule="evenodd" d="M351.773 366.513C352.952 367.983 355.03 369.522 357.801 370.534C360.573 371.546 363.153 371.709 365.002 371.344C366.934 370.963 367.395 370.206 367.475 369.987C367.555 369.768 367.69 368.892 366.458 367.356C365.279 365.885 363.201 364.346 360.43 363.334C357.659 362.322 355.078 362.16 353.229 362.525C351.297 362.906 350.836 363.662 350.756 363.881C350.676 364.1 350.541 364.976 351.773 366.513ZM345.586 371.473C343.413 368.761 341.91 364.987 343.307 361.161C344.704 357.335 348.285 355.417 351.694 354.744C355.187 354.055 359.247 354.46 363.15 355.885C367.052 357.31 370.418 359.617 372.645 362.395C374.819 365.107 376.321 368.881 374.924 372.708C373.527 376.534 369.946 378.452 366.537 379.124C363.044 379.813 358.984 379.409 355.082 377.983C351.179 376.558 347.814 374.251 345.586 371.473Z" fill="#5C6F92"/>
<path d="M382.054 365.544L379.715 369.713L376.636 364.737L377.25 363.634L378.876 362.504L382.054 365.544Z" fill="#E5785C"/>
<path d="M387.65 353.583C387.65 353.583 387.577 355.387 390.518 355.387C392.271 355.38 393.963 354.739 395.282 353.583V344.642L387.65 344.219V353.583Z" fill="#FFB287"/>
<path fill-rule="evenodd" clip-rule="evenodd" d="M346.713 396.988C347.671 393.424 350.903 390.947 354.593 390.947H380.547C385.054 390.947 388.707 394.6 388.707 399.107C388.707 403.613 385.054 407.267 380.547 407.267H360.849L353.131 435.971C351.96 440.323 347.484 442.903 343.132 441.732C338.779 440.562 336.2 436.085 337.37 431.733L346.713 396.988Z" fill="#17124B"/>
<path d="M411.424 400.507H357.6V411.992H411.424V400.507Z" fill="#1D1526"/>
<path d="M391.707 415.706L404.327 457.82C401.506 461.732 410.512 460.899 414.285 460.899L460.814 465.089C464.587 465.089 467.679 460.258 467.679 454.318V415.329C467.679 409.382 464.587 404.538 460.814 404.538H399.365C395.592 404.538 393.319 407.743 390.478 411.655L391.707 415.706Z" fill="#342A98"/>
<path d="M390.498 411.622L391.72 415.706L467.706 443.705V415.29C467.706 409.343 464.613 404.499 460.841 404.499H399.392C395.599 404.505 393.326 407.724 390.498 411.622Z" fill="#AEAAD6"/>
<path d="M412.236 388.137H377.884C376.195 388.137 374.825 389.507 374.825 391.197V398.089C374.825 399.779 376.195 401.148 377.884 401.148H412.236C413.926 401.148 415.296 399.779 415.296 398.089V391.197C415.296 389.507 413.926 388.137 412.236 388.137Z" fill="#B6C6E4"/>
<path d="M410.981 359.312C411.266 359.308 411.548 359.364 411.81 359.477C412.072 359.589 412.307 359.756 412.501 359.965C412.694 360.175 412.841 360.422 412.932 360.692C413.023 360.963 413.056 361.249 413.029 361.533L411.153 384.106C411.093 384.707 410.814 385.266 410.369 385.675C409.925 386.085 409.345 386.316 408.741 386.326H380.99C380.701 386.327 380.415 386.269 380.149 386.156C379.883 386.043 379.643 385.878 379.443 385.67C379.242 385.462 379.086 385.215 378.982 384.946C378.879 384.676 378.832 384.388 378.842 384.099L379.635 361.539C379.664 360.943 379.919 360.38 380.349 359.966C380.779 359.552 381.351 359.318 381.948 359.312H410.981Z" fill="#B6C6E4"/>
<path d="M317.532 313.676H322.105C323.234 313.676 324.159 315.137 324.159 316.914V332.39C324.159 334.168 323.234 335.622 322.105 335.622H317.532" fill="#B6C6E4"/>
<path d="M313.297 335.562H310.832C309.775 335.562 308.903 334.194 308.903 332.529V316.709C308.903 315.044 309.775 313.676 310.832 313.676H313.297V335.562Z" fill="#FC1264"/>
<path d="M312.643 313.676H317.215C318.345 313.676 319.276 315.137 319.276 316.914V332.39C319.276 334.168 318.345 335.622 317.215 335.622H312.643" fill="#5C6F92"/>
<path d="M387.062 408.827H350.292C345.541 408.827 341.689 412.679 341.689 417.431V441.201C341.689 445.952 345.541 449.804 350.292 449.804H387.062C391.813 449.804 395.665 445.952 395.665 441.201V417.431C395.665 412.679 391.813 408.827 387.062 408.827Z" fill="#5C6F92"/>
<path d="M380.527 398.089C380.524 398.899 380.201 399.675 379.628 400.248C379.055 400.822 378.279 401.145 377.468 401.148H354.395C353.585 401.145 352.809 400.822 352.236 400.248C351.663 399.675 351.339 398.899 351.336 398.089V396.952C351.372 396.083 351.674 395.246 352.201 394.553C352.728 393.861 353.455 393.347 354.283 393.08L369.354 388.943C371.321 388.454 373.335 388.183 375.361 388.137H377.455C378.265 388.14 379.041 388.464 379.614 389.037C380.187 389.61 380.511 390.386 380.514 391.197L380.527 398.089Z" fill="#38455C"/>
<path fill-rule="evenodd" clip-rule="evenodd" d="M398.122 313.855V414.682H388.042V313.855H398.122Z" fill="#B6C6E4"/>
<path d="M380.587 359.312C380.868 359.31 381.147 359.368 381.404 359.482C381.662 359.596 381.892 359.764 382.08 359.974C382.267 360.184 382.408 360.432 382.492 360.701C382.577 360.969 382.603 361.253 382.569 361.533L380.699 384.106C380.686 384.661 380.472 385.192 380.096 385.601C379.721 386.009 379.209 386.267 378.657 386.326C378.089 386.258 377.557 386.01 377.139 385.617C376.722 385.225 376.441 384.709 376.338 384.146L373.893 372.813C373.659 371.396 373.81 369.942 374.329 368.603L377.567 361.334C377.851 360.764 378.279 360.277 378.809 359.923C379.338 359.568 379.951 359.358 380.587 359.312Z" fill="#38455C"/>
<path d="M361.471 456.981C361.21 457.676 360.751 458.279 360.151 458.715C359.551 459.152 358.836 459.404 358.095 459.439H299.448C299.121 459.447 298.797 459.384 298.497 459.254C298.198 459.124 297.93 458.93 297.713 458.686C297.496 458.442 297.335 458.153 297.241 457.841C297.147 457.528 297.122 457.198 297.168 456.875L299.316 438.815C299.481 437.407 299.877 435.121 300.201 433.74L304.06 417.219C304.383 415.838 305.262 415.686 306.042 416.896L316.799 434.077C317.252 434.717 317.844 435.246 318.53 435.625C319.217 436.003 319.98 436.222 320.763 436.264H365.694C365.998 436.237 366.305 436.289 366.583 436.416C366.862 436.543 367.102 436.74 367.282 436.988C367.461 437.236 367.573 437.526 367.606 437.83C367.639 438.134 367.592 438.442 367.471 438.722L361.471 456.981Z" fill="#5C6F92"/>
<path fill-rule="evenodd" clip-rule="evenodd" d="M322.906 315.262C325.688 311.251 330.039 306.809 336.205 306.809H403.369C406.964 306.809 409.879 309.724 409.879 313.319C409.879 316.915 406.964 319.829 403.369 319.829H336.341C336.191 319.893 335.243 320.32 333.603 322.683C331.596 325.577 329.486 330.082 327.382 336.043C323.205 347.878 319.575 363.915 316.59 380.269C313.617 396.554 311.333 412.871 309.791 425.137C309.021 431.264 308.437 436.368 308.046 439.937C307.851 441.721 307.704 443.12 307.606 444.071C307.557 444.546 307.52 444.909 307.496 445.152L307.469 445.425L307.46 445.511C307.46 445.512 307.46 445.512 303.843 445.16L307.46 445.511C307.112 449.09 303.928 451.709 300.35 451.361C296.772 451.012 294.153 447.829 294.501 444.251L300.981 444.881C294.501 444.251 294.501 444.249 294.502 444.248L294.512 444.146L294.54 443.855C294.566 443.6 294.604 443.225 294.654 442.737C294.755 441.76 294.905 440.333 295.103 438.519C295.5 434.893 296.092 429.719 296.873 423.512C298.432 411.111 300.75 394.537 303.781 377.931C306.8 361.395 310.575 344.541 315.104 331.709C317.354 325.336 319.922 319.562 322.906 315.262Z" fill="#5C6F92"/>
<path fill-rule="evenodd" clip-rule="evenodd" d="M388.344 309.11C390.964 309.11 393.089 311.234 393.089 313.855V414.682C393.089 417.303 390.964 419.427 388.344 419.427C385.723 419.427 383.599 417.303 383.599 414.682V313.855C383.599 311.234 385.723 309.11 388.344 309.11Z" fill="#5C6F92"/>
<path d="M412.573 456.862V479.508H310.304C310.304 478.946 310.304 478.404 310.304 477.856C310.304 459.036 300.604 463.212 288.631 463.212C288.426 463.212 288.228 463.212 288.023 463.212V443.923H308.387L320.393 456.862H412.573Z" fill="#17124B"/>
<path d="M412.573 454.318C412.573 460.265 409.487 465.102 405.715 465.102L359.185 457.285C355.412 457.285 346.4 461.732 349.234 457.827L379.523 411.622C382.364 407.717 387.775 404.519 391.548 404.519H405.695C409.468 404.519 412.553 409.376 412.553 415.303L412.573 454.318Z" fill="#17124B"/>
<path d="M364.623 479.508C365.244 464.514 372.552 452.414 381.875 450.392C382.772 450.188 383.69 450.086 384.61 450.088H412.533V479.508H364.623Z" fill="#5C6F92"/>
<path d="M394.898 458.164C395.019 458.157 395.141 458.157 395.262 458.164C403.118 458.454 409.428 468.552 409.428 480.982C409.428 493.59 402.926 503.819 394.892 503.819H386.93V458.164" fill="#5C6F92"/>
<path d="M386.903 499.101C382.503 499.101 377.527 492.321 377.131 482.224C377.131 481.821 377.131 481.404 377.131 480.995C377.131 470.329 382.298 462.895 386.93 462.895H387.108C391.661 463.067 396.728 470.541 396.728 480.988C396.702 491.647 391.535 499.101 386.903 499.101Z" fill="#E8E2FF"/>
<path d="M386.897 467.626C387.102 467.66 388.218 468.228 389.427 470.323C391.04 473.078 391.965 476.931 391.965 480.995C391.965 489.691 388.073 494.211 386.903 494.37C385.833 494.211 382.166 490.074 381.855 482.059C381.855 481.649 381.855 481.299 381.855 480.995C381.855 476.97 382.78 473.065 384.393 470.329C385.595 468.267 386.679 467.686 386.917 467.626H386.897ZM386.917 458.164C378.889 458.164 372.38 468.38 372.38 480.995C372.38 481.464 372.38 481.94 372.38 482.409C372.849 494.363 379.153 503.833 386.877 503.833C394.898 503.833 401.413 493.603 401.413 480.995C401.413 468.565 395.097 458.468 387.24 458.177C387.122 458.17 387.002 458.17 386.884 458.177L386.917 458.164Z" fill="#1D1526"/>
<path d="M302.752 450.743C302.95 450.743 303.155 450.743 303.353 450.743C312.682 450.743 320.255 462.637 320.255 477.288C320.255 477.843 320.255 478.391 320.215 478.94C319.673 492.817 312.332 503.852 303.353 503.852H289.576C289.576 503.852 287.039 450.763 289.576 450.763H302.752" fill="#1D1526"/>
<path d="M289.576 499.101C282.414 499.101 277.418 487.596 277.418 477.294C277.418 464.64 283.524 455.804 289.233 455.487H289.576C296.752 455.487 301.747 466.986 301.747 477.294C301.747 477.79 301.747 478.279 301.714 478.768C301.298 489.777 295.728 499.101 289.576 499.101Z" fill="#E8E2FF"/>
<path d="M289.616 460.186C292.186 460.252 297.016 466.893 297.016 477.268C297.016 477.644 297.016 478.067 297.016 478.55C296.633 488.363 292.001 494.37 289.602 494.37C287.026 494.37 282.136 487.682 282.136 477.268C282.136 466.265 287.283 460.311 289.49 460.192H289.602L289.616 460.186ZM289.563 450.729C289.365 450.729 289.16 450.729 288.962 450.729C279.909 451.225 272.674 462.902 272.674 477.255C272.674 491.925 280.233 503.819 289.563 503.819C298.549 503.819 305.89 492.81 306.432 478.907C306.432 478.358 306.432 477.81 306.432 477.255C306.432 462.591 298.866 450.71 289.53 450.71L289.563 450.729Z" fill="#1D1526"/>
<path d="M287.958 443.038H304.859C305.513 443.065 306.162 443.162 306.795 443.328C316.145 445.311 320.182 457.443 320.796 472.444V479.918H310.053C310.053 476.138 311.771 461.884 304.278 452.163C296.871 442.535 288.367 443.051 288.367 443.051" fill="#617272"/>
<path fill-rule="evenodd" clip-rule="evenodd" d="M282.752 443.038C282.752 440.163 285.083 437.833 287.957 437.833H304.859C304.932 437.833 305.004 437.834 305.076 437.837C306.06 437.878 307.038 438.021 307.992 438.262C314.843 439.762 319.219 444.924 321.84 450.919C324.46 456.91 325.677 464.417 325.997 472.231C326 472.302 326.001 472.373 326.001 472.444V479.918C326.001 482.792 323.671 485.123 320.796 485.123H310.053C307.178 485.123 304.848 482.792 304.848 479.918C304.848 479.191 304.882 478.378 304.92 477.473C305.016 475.188 305.137 472.316 304.794 468.769C304.332 463.982 303.054 459.101 300.155 455.341L300.152 455.337C297.104 451.374 293.983 449.669 291.816 448.906C290.709 448.516 289.806 448.357 289.233 448.293C288.947 448.261 288.746 448.253 288.648 448.251C288.621 448.251 288.602 448.251 288.591 448.251C288.388 448.26 288.186 448.257 287.988 448.243H287.957C285.083 448.243 282.752 445.912 282.752 443.038Z" fill="#B6C6E4"/>
<path fill-rule="evenodd" clip-rule="evenodd" d="M266.756 443.038C266.756 440.163 269.086 437.833 271.961 437.833H288.378L288.378 437.874C289.505 437.927 290.629 438.024 291.748 438.163C291.894 438.182 292.039 438.206 292.182 438.236C298.733 439.626 303.945 444.405 307.477 450.343C311.045 456.34 313.217 463.988 313.555 472.231C313.558 472.302 313.559 472.373 313.559 472.444V479.918C313.559 482.792 311.229 485.123 308.354 485.123C305.48 485.123 303.149 482.792 303.149 479.918V472.553C302.859 465.839 301.085 459.959 298.531 455.666C295.989 451.393 292.965 449.12 290.218 448.464C289.16 448.34 288.096 448.266 287.031 448.243H271.961C269.086 448.243 266.756 445.912 266.756 443.038Z" fill="#38455C"/>
<path fill-rule="evenodd" clip-rule="evenodd" d="M296.48 325.245C296.948 325.945 296.76 326.892 296.06 327.36L293.166 329.297C292.466 329.765 291.519 329.577 291.051 328.877C290.582 328.177 290.77 327.23 291.47 326.762L294.364 324.825C295.064 324.357 296.011 324.545 296.48 325.245Z" fill="#FC1264"/>
<path fill-rule="evenodd" clip-rule="evenodd" d="M296.48 320.798C296.948 321.498 296.76 322.445 296.06 322.913L293.166 324.849C292.466 325.318 291.519 325.13 291.051 324.43C290.582 323.73 290.77 322.783 291.47 322.314L294.364 320.378C295.064 319.91 296.011 320.098 296.48 320.798Z" fill="#FC1264"/>
<path fill-rule="evenodd" clip-rule="evenodd" d="M296.48 316.357C296.948 317.057 296.76 318.004 296.06 318.472L293.166 320.409C292.466 320.877 291.519 320.689 291.051 319.989C290.582 319.289 290.77 318.342 291.47 317.874L294.364 315.937C295.064 315.469 296.011 315.657 296.48 316.357Z" fill="#FC1264"/>
<path fill-rule="evenodd" clip-rule="evenodd" d="M296.48 311.91C296.948 312.61 296.76 313.557 296.06 314.025L293.166 315.961C292.466 316.43 291.519 316.242 291.051 315.542C290.582 314.842 290.77 313.895 291.47 313.426L294.364 311.49C295.064 311.022 296.011 311.21 296.48 311.91Z" fill="#FC1264"/>
<path fill-rule="evenodd" clip-rule="evenodd" d="M296.48 307.469C296.948 308.169 296.76 309.116 296.06 309.585L293.166 311.521C292.466 311.989 291.519 311.801 291.051 311.101C290.582 310.401 290.77 309.454 291.47 308.986L294.364 307.05C295.064 306.581 296.011 306.769 296.48 307.469Z" fill="#FC1264"/>
<path d="M406.091 427.165C406.091 430.469 404.34 433.198 402.18 433.198C400.019 433.198 398.407 430.693 398.281 427.541C398.281 427.416 398.281 427.29 398.281 427.165C398.281 423.861 400.032 421.138 402.186 421.138H402.285C404.373 421.217 406.091 423.887 406.091 427.165Z" fill="#5C6F92"/>
<path d="M399.609 335.919H406.937C407.717 335.919 408.351 334.935 408.351 333.732V322.306C408.351 321.104 407.69 320.119 406.937 320.119H399.609V335.919Z" fill="#F4B2C8"/>
<path d="M399.087 335.919H400.898C401.678 335.919 402.318 334.935 402.318 333.732V322.306C402.318 321.104 401.658 320.119 400.898 320.119H399.087V335.919Z" fill="#FC1264"/>
<path d="M399.57 320.119H396.2C395.368 320.119 394.687 321.17 394.687 322.452V333.613C394.687 334.902 395.348 335.952 396.2 335.952H399.57" fill="#38455C"/>
<path d="M449.674 335.919H457.001C457.781 335.919 458.415 334.935 458.415 333.732V322.306C458.415 321.104 457.755 320.119 457.001 320.119H449.674V335.919Z" fill="#F4B2C8"/>
<path d="M449.152 335.919H450.962C451.742 335.919 452.383 334.935 452.383 333.732V322.306C452.383 321.104 451.722 320.119 450.962 320.119H449.152V335.919Z" fill="#FC1264"/>
<path d="M449.634 320.119H446.271C445.432 320.119 444.751 321.17 444.751 322.452V333.613C444.751 334.902 445.412 335.952 446.271 335.952H449.634" fill="#38455C"/>
<path d="M475 458.098H412.448V479.501H475V458.098Z" fill="#5C6F92"/>
<path d="M475 458.098H421.302V479.501H475V458.098Z" fill="#B6C6E4"/>
<path d="M437.41 431.05H448.643C453.526 431.05 457.484 427.204 457.484 423.444C457.484 418.336 457.741 417.424 453.651 417.424H432.865C428.332 417.424 428.59 418.085 428.59 423.444C428.59 427.204 432.547 431.05 437.41 431.05Z" fill="#342A98"/>
<path d="M431.84 431.05H443.027C447.91 431.05 451.868 427.204 451.868 423.444C451.868 418.336 452.125 417.424 448.035 417.424H427.275C422.742 417.424 423 418.085 423 423.444C423 427.204 426.958 431.05 431.84 431.05Z" fill="#1D1526"/>
</g>
<defs>
<clipPath id="clip0_5421_51948">
<rect width="476" height="512" fill="white"/>
</clipPath>
</defs>
</svg>
