<svg width="476" height="460" viewBox="0 0 476 460" fill="none" xmlns="http://www.w3.org/2000/svg">
<g clip-path="url(#clip0_5426_52846)">
<path d="M261.278 87.2297H18.3745C9.8834 87.2297 3 94.1081 3 102.593V409.635C3 418.12 9.8834 424.999 18.3745 424.999H261.278C269.769 424.999 276.652 418.12 276.652 409.635V102.593C276.652 94.1081 269.769 87.2297 261.278 87.2297Z" fill="#C6C2ED"/>
<path d="M263.893 405.193V107.037C263.893 103.139 260.731 99.9799 256.831 99.9799L22.8199 99.9799C18.9197 99.9799 15.758 103.139 15.758 107.037L15.758 405.193C15.758 409.09 18.9197 412.25 22.8199 412.25H256.831C260.731 412.25 263.893 409.09 263.893 405.193Z" fill="#F2F1FB"/>
<path d="M276.652 179.041V166.291L3.00009 166.291V179.041L276.652 179.041Z" fill="#C6C2ED"/>
<path d="M276.653 269.817V257.067H3.00104V269.817H276.653Z" fill="#C6C2ED"/>
<path d="M276.652 360.595V347.845H3.00006V360.595H276.652Z" fill="#C6C2ED"/>
<path d="M103 112.535H32.7778V166.094H103V112.535Z" fill="#C6C2ED"/>
<path d="M102.999 112.535H90.2925V166.094H102.999V112.535Z" fill="#C6C2ED"/>
<path d="M55.4719 128.059H36.3574V137.876H55.4719V128.059Z" fill="#C6C2ED"/>
<path d="M92.9679 111.251H30.7827V122.076H92.9679V111.251Z" fill="#C6C2ED"/>
<path d="M104.17 111.251H92.9678V122.076H104.17V111.251Z" fill="#C6C2ED"/>
<path d="M103 125.929L32.7778 123.442V122.076H103V125.929Z" fill="#C6C2ED"/>
<path d="M64.6096 166.094H61.8747L60.5083 111.251H63.2421L64.6096 166.094Z" fill="#C6C2ED"/>
<path d="M98.569 111.251L97.2256 166.094H98.1872L99.7275 111.251H98.569Z" fill="#C6C2ED"/>
<path d="M75.1807 155.04H73.0967V162.433H75.1807V155.04Z" fill="#C6C2ED"/>
<path d="M76.8306 155.04H76.1567V162.433H76.8306V155.04Z" fill="#C6C2ED"/>
<path d="M77.7554 155.04H77.4185V162.433H77.7554V155.04Z" fill="#C6C2ED"/>
<path d="M80.7085 155.04H80.3716V162.433H80.7085V155.04Z" fill="#C6C2ED"/>
<path d="M81.6328 155.04H81.2959V162.433H81.6328V155.04Z" fill="#C6C2ED"/>
<path d="M85.1004 155.04H84.4746V162.433H85.1004V155.04Z" fill="#C6C2ED"/>
<path d="M78.8712 155.04H78.1558V162.433H78.8712V155.04Z" fill="#C6C2ED"/>
<path d="M83.226 155.04H82.1123V162.433H83.226V155.04Z" fill="#C6C2ED"/>
<path d="M150.589 133.693H108.107V166.094H150.589V133.693Z" fill="#C6C2ED"/>
<path d="M150.59 133.693H142.902V166.094H150.59V133.693Z" fill="#C6C2ED"/>
<path d="M121.837 143.084H110.273V149.023H121.837V143.084Z" fill="#C6C2ED"/>
<path d="M144.522 132.915H106.901V139.465H144.522V132.915Z" fill="#C6C2ED"/>
<path d="M151.298 132.915H144.521V139.465H151.298V132.915Z" fill="#C6C2ED"/>
<path d="M150.589 141.795L108.107 140.29V139.465H150.589V141.795Z" fill="#C6C2ED"/>
<path d="M127.366 166.094H125.71L124.883 132.915H126.538L127.366 166.094Z" fill="#C6C2ED"/>
<path d="M147.909 132.915L147.097 166.094H147.678L148.61 132.915H147.909Z" fill="#C6C2ED"/>
<path d="M133.76 159.406H132.499V163.878H133.76V159.406Z" fill="#C6C2ED"/>
<path d="M134.759 159.406H134.351V163.878H134.759V159.406Z" fill="#C6C2ED"/>
<path d="M135.318 159.406H135.114V163.878H135.318V159.406Z" fill="#C6C2ED"/>
<path d="M137.104 159.406H136.901V163.878H137.104V159.406Z" fill="#C6C2ED"/>
<path d="M137.663 159.406H137.46V163.878H137.663V159.406Z" fill="#C6C2ED"/>
<path d="M139.761 159.406H139.383V163.878H139.761V159.406Z" fill="#C6C2ED"/>
<path d="M135.994 159.406H135.561V163.878H135.994V159.406Z" fill="#C6C2ED"/>
<path d="M138.628 159.406H137.954V163.878H138.628V159.406Z" fill="#C6C2ED"/>
<path d="M105.523 199.94H31.3047V256.546H105.523V199.94Z" fill="#C6C2ED"/>
<path d="M105.523 199.94H92.0928V256.546H105.523V199.94Z" fill="#C6C2ED"/>
<path d="M55.2919 216.347H35.0898V226.723H55.2919V216.347Z" fill="#C6C2ED"/>
<path d="M94.9211 198.582H29.1973V210.023H94.9211V198.582Z" fill="#C6C2ED"/>
<path d="M106.761 198.582H94.9209V210.023H106.761V198.582Z" fill="#C6C2ED"/>
<path d="M105.523 214.095L31.3047 211.467V210.023H105.523V214.095Z" fill="#C6C2ED"/>
<path d="M64.9492 256.546H62.0589L60.6138 198.582H63.504L64.9492 256.546Z" fill="#C6C2ED"/>
<path d="M100.84 198.582L99.4194 256.546H100.437L102.065 198.582H100.84Z" fill="#C6C2ED"/>
<path d="M76.1212 244.864H73.918V252.677H76.1212V244.864Z" fill="#C6C2ED"/>
<path d="M77.8645 244.864H77.1523V252.677H77.8645V244.864Z" fill="#C6C2ED"/>
<path d="M78.843 244.864H78.4863V252.677H78.843V244.864Z" fill="#C6C2ED"/>
<path d="M81.9636 244.864H81.6069V252.677H81.9636V244.864Z" fill="#C6C2ED"/>
<path d="M82.9421 244.864H82.5854V252.677H82.9421V244.864Z" fill="#C6C2ED"/>
<path d="M86.6062 244.864H85.9443V252.677H86.6062V244.864Z" fill="#C6C2ED"/>
<path d="M80.022 244.864H79.2661V252.677H80.022V244.864Z" fill="#C6C2ED"/>
<path d="M84.6244 244.864H83.4473V252.677H84.6244V244.864Z" fill="#C6C2ED"/>
<path d="M213.77 304.025H156.315V347.845H213.77V304.025Z" fill="#C6C2ED"/>
<path d="M213.77 304.025H203.373V347.845H213.77V304.025Z" fill="#C6C2ED"/>
<path d="M174.883 316.726H159.244V324.759H174.883V316.726Z" fill="#C6C2ED"/>
<path d="M205.562 302.973H154.684V311.83H205.562V302.973Z" fill="#C6C2ED"/>
<path d="M214.729 302.973H205.562V311.83H214.729V302.973Z" fill="#C6C2ED"/>
<path d="M213.77 314.983L156.315 312.948V311.83H213.77V314.983Z" fill="#C6C2ED"/>
<path d="M182.361 347.845H180.122L179.004 302.973H181.242L182.361 347.845Z" fill="#C6C2ED"/>
<path d="M210.146 302.973L209.045 347.845H209.832L211.092 302.973H210.146Z" fill="#C6C2ED"/>
<path d="M191.01 338.801H189.304V344.85H191.01V338.801Z" fill="#C6C2ED"/>
<path d="M192.359 338.801H191.808V344.85H192.359V338.801Z" fill="#C6C2ED"/>
<path d="M193.116 338.801H192.84V344.85H193.116V338.801Z" fill="#C6C2ED"/>
<path d="M195.532 338.801H195.256V344.85H195.532V338.801Z" fill="#C6C2ED"/>
<path d="M196.288 338.801H196.013V344.85H196.288V338.801Z" fill="#C6C2ED"/>
<path d="M199.125 338.801H198.613V344.85H199.125V338.801Z" fill="#C6C2ED"/>
<path d="M194.029 338.801H193.443V344.85H194.029V338.801Z" fill="#C6C2ED"/>
<path d="M197.592 338.801H196.681V344.85H197.592V338.801Z" fill="#C6C2ED"/>
<path d="M139.408 224.947H97.9771V256.546H139.408V224.947Z" fill="#C6C2ED"/>
<path d="M139.408 224.947H131.911V256.546H139.408V224.947Z" fill="#C6C2ED"/>
<path d="M111.367 234.106H100.09V239.899H111.367V234.106Z" fill="#C6C2ED"/>
<path d="M133.49 224.189H96.8013V230.575H133.49V224.189Z" fill="#C6C2ED"/>
<path d="M140.099 224.189H133.489V230.575H140.099V224.189Z" fill="#C6C2ED"/>
<path d="M139.408 232.848L97.9771 231.382V230.576H139.408V232.848Z" fill="#C6C2ED"/>
<path d="M116.758 256.546H115.145L114.337 224.189H115.951L116.758 256.546Z" fill="#C6C2ED"/>
<path d="M136.793 224.189L136 256.546H136.568L137.477 224.189H136.793Z" fill="#C6C2ED"/>
<path d="M122.994 250.025H121.765V254.386H122.994V250.025Z" fill="#C6C2ED"/>
<path d="M123.969 250.025H123.57V254.386H123.969V250.025Z" fill="#C6C2ED"/>
<path d="M124.515 250.025H124.315V254.386H124.515V250.025Z" fill="#C6C2ED"/>
<path d="M126.256 250.025H126.057V254.386H126.256V250.025Z" fill="#C6C2ED"/>
<path d="M126.801 250.025H126.602V254.386H126.801V250.025Z" fill="#C6C2ED"/>
<path d="M128.847 250.025H128.478V254.386H128.847V250.025Z" fill="#C6C2ED"/>
<path d="M125.172 250.025H124.75V254.386H125.172V250.025Z" fill="#C6C2ED"/>
<path d="M127.74 250.025H127.084V254.386H127.74V250.025Z" fill="#C6C2ED"/>
<path d="M243.312 107.995H164.999V166.094H243.312V107.995Z" fill="#C6C2ED"/>
<path d="M243.311 107.995H229.14V166.094H243.311V107.995Z" fill="#C6C2ED"/>
<path d="M185.013 111.885H168.992V125.627H185.013V111.885Z" fill="#C6C2ED"/>
<path d="M191.854 107.995V119.702L194.078 117.08L196.002 119.06L198.796 117.156L200.629 119.702L204.156 117.156L205.525 119.06V107.995H191.854Z" fill="#C6C2ED"/>
<path d="M238.661 107.995V115.995L238.34 115.368L237.965 115.956L237.286 115.408L236.81 116.244L236.091 115.34L235.623 115.956V107.995H238.661Z" fill="#C6C2ED"/>
<path d="M215.037 112.206H213.681V121.557H215.037V112.206Z" fill="#C6C2ED"/>
<path d="M216.111 112.206H215.672V121.557H216.111V112.206Z" fill="#C6C2ED"/>
<path d="M216.931 112.206H216.492V121.557H216.931V112.206Z" fill="#C6C2ED"/>
<path d="M221.491 112.206H221.053V121.557H221.491V112.206Z" fill="#C6C2ED"/>
<path d="M222.313 112.206H221.874V121.557H222.313V112.206Z" fill="#C6C2ED"/>
<path d="M219.295 112.206H217.868V121.557H219.295V112.206Z" fill="#C6C2ED"/>
<path d="M220.376 112.206H219.911V121.557H220.376V112.206Z" fill="#C6C2ED"/>
<path d="M223.76 112.206H223.036V121.557H223.76V112.206Z" fill="#C6C2ED"/>
<path d="M222.417 198.446H144.104V256.546H222.417V198.446Z" fill="#C6C2ED"/>
<path d="M222.417 198.446H208.247V256.546H222.417V198.446Z" fill="#C6C2ED"/>
<path d="M164.119 202.337H148.098V216.079H164.119V202.337Z" fill="#C6C2ED"/>
<path d="M170.958 198.446V210.154L173.184 207.533L175.107 209.512L177.902 207.608L179.734 210.154L183.261 207.608L184.632 209.512V198.446H170.958Z" fill="#C6C2ED"/>
<path d="M217.768 198.446V206.447L217.448 205.82L217.071 206.408L216.393 205.86L215.916 206.696L215.197 205.792L214.729 206.408V198.446H217.768Z" fill="#C6C2ED"/>
<path d="M194.143 202.658H192.788V212.009H194.143V202.658Z" fill="#C6C2ED"/>
<path d="M195.216 202.658H194.777V212.009H195.216V202.658Z" fill="#C6C2ED"/>
<path d="M196.037 202.658H195.598V212.009H196.037V202.658Z" fill="#C6C2ED"/>
<path d="M200.598 202.658H200.159V212.009H200.598V202.658Z" fill="#C6C2ED"/>
<path d="M201.418 202.658H200.979V212.009H201.418V202.658Z" fill="#C6C2ED"/>
<path d="M198.401 202.658H196.973V212.009H198.401V202.658Z" fill="#C6C2ED"/>
<path d="M199.481 202.658H199.016V212.009H199.481V202.658Z" fill="#C6C2ED"/>
<path d="M202.866 202.658H202.142V212.009H202.866V202.658Z" fill="#C6C2ED"/>
<path d="M149.999 289.746H71.686V347.845H149.999V289.746Z" fill="#C6C2ED"/>
<path d="M149.998 289.746H135.827V347.845H149.998V289.746Z" fill="#C6C2ED"/>
<path d="M91.7009 293.637H75.6797V307.379H91.7009V293.637Z" fill="#C6C2ED"/>
<path d="M98.5405 289.746V301.453L100.765 298.832L102.689 300.812L105.483 298.909L107.316 301.453L110.841 298.909L112.212 300.812V289.746H98.5405Z" fill="#C6C2ED"/>
<path d="M145.349 289.746V297.746L145.028 297.12L144.652 297.708L143.973 297.16L143.498 297.996L142.778 297.091L142.31 297.708V289.746H145.349Z" fill="#C6C2ED"/>
<path d="M121.724 293.958H120.369V303.308H121.724V293.958Z" fill="#C6C2ED"/>
<path d="M122.798 293.958H122.359V303.308H122.798V293.958Z" fill="#C6C2ED"/>
<path d="M123.618 293.958H123.18V303.308H123.618V293.958Z" fill="#C6C2ED"/>
<path d="M128.179 293.958H127.74V303.308H128.179V293.958Z" fill="#C6C2ED"/>
<path d="M129 293.958H128.561V303.308H129V293.958Z" fill="#C6C2ED"/>
<path d="M125.982 293.958H124.555V303.308H125.982V293.958Z" fill="#C6C2ED"/>
<path d="M127.062 293.958H126.597V303.308H127.062V293.958Z" fill="#C6C2ED"/>
<path d="M130.447 293.958H129.723V303.308H130.447V293.958Z" fill="#C6C2ED"/>
<path d="M144.303 109.367H110.515V132.915H144.303V109.367Z" fill="#C6C2ED"/>
<path d="M148.182 109.367H139.246V132.915H148.182V109.367Z" fill="#C6C2ED"/>
<path d="M135.081 121.893H123.009V129.525H135.081V121.893Z" fill="#C6C2ED"/>
<path d="M65.1871 315.444H22.7051V347.845H65.1871V315.444Z" fill="#C6C2ED"/>
<path d="M65.1888 315.444H57.501V347.845H65.1888V315.444Z" fill="#C6C2ED"/>
<path d="M36.435 324.835H24.8716V330.775H36.435V324.835Z" fill="#C6C2ED"/>
<path d="M59.1191 314.667H21.4985V321.216H59.1191V314.667Z" fill="#C6C2ED"/>
<path d="M65.8966 314.667H59.1191V321.216H65.8966V314.667Z" fill="#C6C2ED"/>
<path d="M65.1871 323.546L22.7051 322.042V321.216H65.1871V323.546Z" fill="#C6C2ED"/>
<path d="M41.9626 347.845H40.3085L39.4814 314.667H41.1355L41.9626 347.845Z" fill="#C6C2ED"/>
<path d="M62.5078 314.667L61.6938 347.845H62.2758L63.2079 314.667H62.5078Z" fill="#C6C2ED"/>
<path d="M48.3585 341.159H47.0972V345.631H48.3585V341.159Z" fill="#C6C2ED"/>
<path d="M49.3563 341.159H48.9482V345.631H49.3563V341.159Z" fill="#C6C2ED"/>
<path d="M49.9159 341.159H49.7124V345.631H49.9159V341.159Z" fill="#C6C2ED"/>
<path d="M51.7015 341.159H51.498V345.631H51.7015V341.159Z" fill="#C6C2ED"/>
<path d="M52.2621 341.159H52.0586V345.631H52.2621V341.159Z" fill="#C6C2ED"/>
<path d="M54.3595 341.159H53.981V345.631H54.3595V341.159Z" fill="#C6C2ED"/>
<path d="M50.5919 341.159H50.1587V345.631H50.5919V341.159Z" fill="#C6C2ED"/>
<path d="M53.2256 341.159H52.5518V345.631H53.2256V341.159Z" fill="#C6C2ED"/>
<path d="M58.901 291.119H25.1123V314.668H58.901V291.119Z" fill="#C6C2ED"/>
<path d="M62.7795 291.119H53.8433V314.668H62.7795V291.119Z" fill="#C6C2ED"/>
<path d="M49.6797 303.644H37.6074V311.276H49.6797V303.644Z" fill="#C6C2ED"/>
<path d="M239.351 388.672H205.562V412.22H239.351V388.672Z" fill="#C6C2ED"/>
<path d="M243.229 388.672H234.293V412.22H243.229V388.672Z" fill="#C6C2ED"/>
<path d="M230.129 401.198H218.057V408.83H230.129V401.198Z" fill="#C6C2ED"/>
<path d="M248.826 142.545H215.037V166.094H248.826V142.545Z" fill="#C6C2ED"/>
<path d="M252.704 142.545H243.768V166.094H252.704V142.545Z" fill="#C6C2ED"/>
<path d="M239.604 155.071H227.532V162.703H239.604V155.071Z" fill="#C6C2ED"/>
<path d="M83.0895 373.427H32.2271V412.219H83.0895V373.427Z" fill="#C6C2ED"/>
<path d="M83.0895 373.427H73.8862V412.219H83.0895V373.427Z" fill="#C6C2ED"/>
<path d="M48.6661 384.671H34.8213V391.782H48.6661V384.671Z" fill="#C6C2ED"/>
<path d="M75.823 372.497H30.7827V380.338H75.823V372.497Z" fill="#C6C2ED"/>
<path d="M83.9388 372.497H75.8242V380.338H83.9388V372.497Z" fill="#C6C2ED"/>
<path d="M83.0895 383.128L32.2271 381.327V380.338H83.0895V383.128Z" fill="#C6C2ED"/>
<path d="M55.2847 412.22H53.3035L52.3135 372.497H54.2936L55.2847 412.22Z" fill="#C6C2ED"/>
<path d="M79.8813 372.497L78.9077 412.22H79.6035L80.7193 372.497H79.8813Z" fill="#C6C2ED"/>
<path d="M62.9398 404.214H61.4302V409.569H62.9398V404.214Z" fill="#C6C2ED"/>
<path d="M64.1349 404.214H63.647V409.569H64.1349V404.214Z" fill="#C6C2ED"/>
<path d="M64.8055 404.214H64.5615V409.569H64.8055V404.214Z" fill="#C6C2ED"/>
<path d="M66.9437 404.214H66.6997V409.569H66.9437V404.214Z" fill="#C6C2ED"/>
<path d="M67.6131 404.214H67.3691V409.569H67.6131V404.214Z" fill="#C6C2ED"/>
<path d="M70.1264 404.214H69.6724V409.569H70.1264V404.214Z" fill="#C6C2ED"/>
<path d="M65.6138 404.214H65.0952V409.569H65.6138V404.214Z" fill="#C6C2ED"/>
<path d="M68.7672 404.214H67.9609V409.569H68.7672V404.214Z" fill="#C6C2ED"/>
<path d="M117.558 388.751H86.7886V412.219H117.558V388.751Z" fill="#C6C2ED"/>
<path d="M117.56 388.751H111.992V412.219H117.56V388.751Z" fill="#C6C2ED"/>
<path d="M96.7329 395.553H88.3579V399.855H96.7329V395.553Z" fill="#C6C2ED"/>
<path d="M113.165 388.188H85.916V392.932H113.165V388.188Z" fill="#C6C2ED"/>
<path d="M118.072 388.188H113.164V392.932H118.072V388.188Z" fill="#C6C2ED"/>
<path d="M117.558 394.622L86.7886 393.531V392.933H117.558V394.622Z" fill="#C6C2ED"/>
<path d="M100.738 412.22H99.5399L98.9404 388.188H100.138L100.738 412.22Z" fill="#C6C2ED"/>
<path d="M115.617 388.188L115.029 412.22H115.45L116.125 388.188H115.617Z" fill="#C6C2ED"/>
<path d="M105.37 407.377H104.456V410.616H105.37V407.377Z" fill="#C6C2ED"/>
<path d="M106.093 407.377H105.798V410.616H106.093V407.377Z" fill="#C6C2ED"/>
<path d="M106.498 407.377H106.35V410.616H106.498V407.377Z" fill="#C6C2ED"/>
<path d="M107.792 407.377H107.644V410.616H107.792V407.377Z" fill="#C6C2ED"/>
<path d="M108.197 407.377H108.049V410.616H108.197V407.377Z" fill="#C6C2ED"/>
<path d="M109.716 407.377H109.442V410.616H109.716V407.377Z" fill="#C6C2ED"/>
<path d="M106.988 407.377H106.674V410.616H106.988V407.377Z" fill="#C6C2ED"/>
<path d="M108.895 407.377H108.407V410.616H108.895V407.377Z" fill="#C6C2ED"/>
<path d="M184.717 370.138H127.995V412.22H184.717V370.138Z" fill="#C6C2ED"/>
<path d="M184.717 370.138H174.454V412.22H184.717V370.138Z" fill="#C6C2ED"/>
<path d="M142.492 372.956H130.888V382.909H142.492V372.956Z" fill="#C6C2ED"/>
<path d="M147.447 370.138V378.618L149.057 376.72L150.451 378.153L152.476 376.774L153.803 378.618L156.357 376.774L157.349 378.153V370.138H147.447Z" fill="#C6C2ED"/>
<path d="M181.35 370.138V375.933L181.118 375.48L180.846 375.905L180.353 375.508L180.009 376.114L179.488 375.459L179.149 375.905V370.138H181.35Z" fill="#C6C2ED"/>
<path d="M164.238 373.189H163.257V379.962H164.238V373.189Z" fill="#C6C2ED"/>
<path d="M165.015 373.189H164.697V379.962H165.015V373.189Z" fill="#C6C2ED"/>
<path d="M165.61 373.189H165.293V379.962H165.61V373.189Z" fill="#C6C2ED"/>
<path d="M168.913 373.189H168.596V379.962H168.913V373.189Z" fill="#C6C2ED"/>
<path d="M169.508 373.189H169.19V379.962H169.508V373.189Z" fill="#C6C2ED"/>
<path d="M167.322 373.189H166.289V379.962H167.322V373.189Z" fill="#C6C2ED"/>
<path d="M168.105 373.189H167.768V379.962H168.105V373.189Z" fill="#C6C2ED"/>
<path d="M170.556 373.189H170.032V379.962H170.556V373.189Z" fill="#C6C2ED"/>
<path d="M113.007 371.132H88.5332V388.188H113.007V371.132Z" fill="#C6C2ED"/>
<path d="M115.816 371.132H109.343V388.188H115.816V371.132Z" fill="#C6C2ED"/>
<path d="M106.326 380.205H97.582V385.734H106.326V380.205Z" fill="#C6C2ED"/>
<path d="M193.194 395.164H168.72V412.22H193.194V395.164Z" fill="#C6C2ED"/>
<path d="M196.003 395.164H189.529V412.22H196.003V395.164Z" fill="#C6C2ED"/>
<path d="M186.513 404.236H177.769V409.765H186.513V404.236Z" fill="#C6C2ED"/>
<path d="M255.659 229.048H219.605V256.546H255.659V229.048Z" fill="#C6C2ED"/>
<path d="M255.658 229.048H249.134V256.546H255.658V229.048Z" fill="#C6C2ED"/>
<path d="M231.257 237.019H221.443V242.059H231.257V237.019Z" fill="#C6C2ED"/>
<path d="M250.509 228.388H218.581V233.946H250.509V228.388Z" fill="#C6C2ED"/>
<path d="M256.261 228.388H250.509V233.946H256.261V228.388Z" fill="#C6C2ED"/>
<path d="M255.659 235.924L219.605 234.647V233.946H255.659V235.924Z" fill="#C6C2ED"/>
<path d="M235.949 256.546H234.546L233.843 228.388H235.247L235.949 256.546Z" fill="#C6C2ED"/>
<path d="M253.384 228.388L252.694 256.546H253.188L253.979 228.388H253.384Z" fill="#C6C2ED"/>
<path d="M241.375 250.871H240.305V254.666H241.375V250.871Z" fill="#C6C2ED"/>
<path d="M242.223 250.871H241.877V254.666H242.223V250.871Z" fill="#C6C2ED"/>
<path d="M242.698 250.871H242.525V254.666H242.698V250.871Z" fill="#C6C2ED"/>
<path d="M244.214 250.871H244.041V254.666H244.214V250.871Z" fill="#C6C2ED"/>
<path d="M244.688 250.871H244.516V254.666H244.688V250.871Z" fill="#C6C2ED"/>
<path d="M246.47 250.871H246.148V254.666H246.47V250.871Z" fill="#C6C2ED"/>
<path d="M243.272 250.871H242.904V254.666H243.272V250.871Z" fill="#C6C2ED"/>
<path d="M245.506 250.871H244.935V254.666H245.506V250.871Z" fill="#C6C2ED"/>
<path d="M255.659 320.348H219.605V347.846H255.659V320.348Z" fill="#C6C2ED"/>
<path d="M255.658 320.348H249.134V347.846H255.658V320.348Z" fill="#C6C2ED"/>
<path d="M231.257 328.318H221.443V333.358H231.257V328.318Z" fill="#C6C2ED"/>
<path d="M250.509 319.688H218.581V325.245H250.509V319.688Z" fill="#C6C2ED"/>
<path d="M256.261 319.688H250.509V325.245H256.261V319.688Z" fill="#C6C2ED"/>
<path d="M255.659 327.223L219.605 325.947V325.246H255.659V327.223Z" fill="#C6C2ED"/>
<path d="M235.949 347.845H234.546L233.843 319.688H235.247L235.949 347.845Z" fill="#C6C2ED"/>
<path d="M253.384 319.688L252.694 347.845H253.188L253.979 319.688H253.384Z" fill="#C6C2ED"/>
<path d="M241.375 342.17H240.305V345.965H241.375V342.17Z" fill="#C6C2ED"/>
<path d="M242.223 342.17H241.877V345.965H242.223V342.17Z" fill="#C6C2ED"/>
<path d="M242.698 342.17H242.525V345.965H242.698V342.17Z" fill="#C6C2ED"/>
<path d="M244.214 342.17H244.041V345.965H244.214V342.17Z" fill="#C6C2ED"/>
<path d="M244.688 342.17H244.516V345.965H244.688V342.17Z" fill="#C6C2ED"/>
<path d="M246.47 342.17H246.148V345.965H246.47V342.17Z" fill="#C6C2ED"/>
<path d="M243.272 342.17H242.904V345.965H243.272V342.17Z" fill="#C6C2ED"/>
<path d="M245.506 342.17H244.935V345.965H245.506V342.17Z" fill="#C6C2ED"/>
<path d="M453.655 0H148.019C137.336 0 128.675 8.65447 128.675 19.3303V405.67C128.675 416.346 137.336 425 148.019 425H453.655C464.338 425 472.999 416.346 472.999 405.67V19.3303C472.999 8.65447 464.338 0 453.655 0Z" fill="white"/>
<path d="M456.946 400.077V24.922C456.946 20.018 452.967 16.0424 448.06 16.0424L153.616 16.0424C148.708 16.0424 144.73 20.018 144.73 24.922V400.077C144.73 404.981 148.708 408.957 153.616 408.957H448.06C452.967 408.957 456.946 404.981 456.946 400.077Z" fill="#F2F1FB"/>
<path d="M472.999 115.522V99.4791L128.674 99.4791V115.522L472.999 115.522Z" fill="white"/>
<path d="M473 229.742V213.699L128.676 213.699V229.742L473 229.742Z" fill="white"/>
<path d="M472.999 343.962V327.92H128.674V343.962H472.999Z" fill="white"/>
<path d="M254.499 31.8411H166.142V99.2309H254.499V31.8411Z" fill="white"/>
<path d="M254.5 31.8411H238.511V99.2309H254.5V31.8411Z" fill="#C6C2ED"/>
<path d="M194.698 51.3737H170.648V63.7269H194.698V51.3737Z" fill="#E8E2FF"/>
<path d="M241.877 30.2239H163.633V43.8455H241.877V30.2239Z" fill="white"/>
<path d="M255.974 30.2239H241.877V43.8455H255.974V30.2239Z" fill="#C6C2ED"/>
<path d="M254.499 48.6926L166.142 45.5633V43.8456H254.499V48.6926Z" fill="#C6C2ED"/>
<path d="M206.197 99.2309H202.756L201.035 30.2239H204.476L206.197 99.2309Z" fill="#E8E2FF"/>
<path d="M248.925 30.2239L247.233 99.2309H248.443L250.382 30.2239H248.925Z" fill="white"/>
<path d="M219.496 85.3228H216.874V94.6244H219.496V85.3228Z" fill="#C6C2ED"/>
<path d="M221.572 85.3228H220.725V94.6244H221.572V85.3228Z" fill="#C6C2ED"/>
<path d="M222.737 85.3228H222.312V94.6244H222.737V85.3228Z" fill="#C6C2ED"/>
<path d="M226.451 85.3228H226.027V94.6244H226.451V85.3228Z" fill="#C6C2ED"/>
<path d="M227.616 85.3228H227.191V94.6244H227.616V85.3228Z" fill="#C6C2ED"/>
<path d="M231.979 85.3228H231.191V94.6244H231.979V85.3228Z" fill="#C6C2ED"/>
<path d="M224.141 85.3228H223.24V94.6244H224.141V85.3228Z" fill="#C6C2ED"/>
<path d="M229.618 85.3228H228.218V94.6244H229.618V85.3228Z" fill="#C6C2ED"/>
<path d="M314.38 58.4622H260.926V99.2309H314.38V58.4622Z" fill="white"/>
<path d="M314.38 58.4622H304.708V99.2309H314.38V58.4622Z" fill="#C6C2ED"/>
<path d="M278.201 70.2786H263.652V77.752H278.201V70.2786Z" fill="#E8E2FF"/>
<path d="M306.745 57.4836H259.409V65.7246H306.745V57.4836Z" fill="white"/>
<path d="M315.273 57.4836H306.745V65.7246H315.273V57.4836Z" fill="#C6C2ED"/>
<path d="M314.38 68.6571L260.926 66.7633V65.7246H314.38V68.6571Z" fill="#C6C2ED"/>
<path d="M285.158 99.2309H283.076L282.036 57.4836H284.117L285.158 99.2309Z" fill="#E8E2FF"/>
<path d="M311.008 57.4836L309.985 99.2309H310.717L311.889 57.4836H311.008Z" fill="white"/>
<path d="M293.203 90.8171H291.617V96.4449H293.203V90.8171Z" fill="#C6C2ED"/>
<path d="M294.46 90.8171H293.947V96.4449H294.46V90.8171Z" fill="#C6C2ED"/>
<path d="M295.165 90.8171H294.908V96.4449H295.165V90.8171Z" fill="#C6C2ED"/>
<path d="M297.412 90.8171H297.155V96.4449H297.412V90.8171Z" fill="#C6C2ED"/>
<path d="M298.117 90.8171H297.86V96.4449H298.117V90.8171Z" fill="#C6C2ED"/>
<path d="M300.756 90.8171H300.279V96.4449H300.756V90.8171Z" fill="#C6C2ED"/>
<path d="M296.014 90.8171H295.469V96.4449H296.014V90.8171Z" fill="#C6C2ED"/>
<path d="M299.328 90.8171H298.48V96.4449H299.328V90.8171Z" fill="#C6C2ED"/>
<path d="M257.675 141.818H164.29V213.042H257.675V141.818Z" fill="white"/>
<path d="M257.675 141.818H240.776V213.042H257.675V141.818Z" fill="#C6C2ED"/>
<path d="M194.47 162.461H169.051V175.518H194.47V162.461Z" fill="#E8E2FF"/>
<path d="M244.334 140.109H161.637V154.506H244.334V140.109Z" fill="white"/>
<path d="M259.233 140.109H244.334V154.506H259.233V140.109Z" fill="#C6C2ED"/>
<path d="M257.675 159.628L164.29 156.321V154.506H257.675V159.628Z" fill="#C6C2ED"/>
<path d="M206.624 213.042H202.986L201.167 140.109H204.805L206.624 213.042Z" fill="#E8E2FF"/>
<path d="M251.783 140.109L249.996 213.042H251.274L253.322 140.109H251.783Z" fill="white"/>
<path d="M220.679 198.343H217.907V208.173H220.679V198.343Z" fill="#C6C2ED"/>
<path d="M222.874 198.343H221.978V208.173H222.874V198.343Z" fill="#C6C2ED"/>
<path d="M224.104 198.343H223.656V208.173H224.104V198.343Z" fill="#C6C2ED"/>
<path d="M228.032 198.343H227.583V208.173H228.032V198.343Z" fill="#C6C2ED"/>
<path d="M229.261 198.343H228.812V208.173H229.261V198.343Z" fill="#C6C2ED"/>
<path d="M233.872 198.343H233.04V208.173H233.872V198.343Z" fill="#C6C2ED"/>
<path d="M225.588 198.343H224.637V208.173H225.588V198.343Z" fill="#C6C2ED"/>
<path d="M231.378 198.343H229.897V208.173H231.378V198.343Z" fill="#C6C2ED"/>
<path d="M393.878 272.783H321.584V327.92H393.878V272.783Z" fill="white"/>
<path d="M393.878 272.783H380.795V327.92H393.878V272.783Z" fill="#C6C2ED"/>
<path d="M344.948 288.764H325.271V298.871H344.948V288.764Z" fill="#E8E2FF"/>
<path d="M383.55 271.46H319.531V282.605H383.55V271.46Z" fill="white"/>
<path d="M395.083 271.46H383.55V282.605H395.083V271.46Z" fill="#C6C2ED"/>
<path d="M393.878 286.571L321.584 284.01V282.605H393.878V286.571Z" fill="#C6C2ED"/>
<path d="M354.356 327.92H351.54L350.133 271.46H352.948L354.356 327.92Z" fill="#E8E2FF"/>
<path d="M389.317 271.46L387.933 327.92H388.923L390.508 271.46H389.317Z" fill="white"/>
<path d="M365.237 316.541H363.091V324.152H365.237V316.541Z" fill="#C6C2ED"/>
<path d="M366.936 316.541H366.243V324.152H366.936V316.541Z" fill="#C6C2ED"/>
<path d="M367.888 316.541H367.542V324.152H367.888V316.541Z" fill="#C6C2ED"/>
<path d="M370.929 316.541H370.583V324.152H370.929V316.541Z" fill="#C6C2ED"/>
<path d="M371.881 316.541H371.534V324.152H371.881V316.541Z" fill="#C6C2ED"/>
<path d="M375.45 316.541H374.806V324.152H375.45V316.541Z" fill="#C6C2ED"/>
<path d="M369.04 316.541H368.302V324.152H369.04V316.541Z" fill="#C6C2ED"/>
<path d="M373.521 316.541H372.375V324.152H373.521V316.541Z" fill="#C6C2ED"/>
<path d="M300.31 173.283H248.18V213.042H300.31V173.283Z" fill="white"/>
<path d="M300.31 173.283H290.877V213.042H300.31V173.283Z" fill="#C6C2ED"/>
<path d="M265.027 184.807H250.838V192.096H265.027V184.807Z" fill="#E8E2FF"/>
<path d="M292.863 172.329H246.7V180.366H292.863V172.329Z" fill="white"/>
<path d="M301.18 172.329H292.863V180.366H301.18V172.329Z" fill="#C6C2ED"/>
<path d="M300.31 183.225L248.18 181.379V180.366H300.31V183.225Z" fill="#C6C2ED"/>
<path d="M271.811 213.042H269.782L268.767 172.329H270.796L271.811 213.042Z" fill="#E8E2FF"/>
<path d="M297.022 172.329L296.023 213.042H296.737L297.881 172.329H297.022Z" fill="white"/>
<path d="M279.657 204.836H278.11V210.324H279.657V204.836Z" fill="#C6C2ED"/>
<path d="M280.883 204.836H280.383V210.324H280.883V204.836Z" fill="#C6C2ED"/>
<path d="M281.571 204.836H281.32V210.324H281.571V204.836Z" fill="#C6C2ED"/>
<path d="M283.762 204.836H283.512V210.324H283.762V204.836Z" fill="#C6C2ED"/>
<path d="M284.449 204.836H284.199V210.324H284.449V204.836Z" fill="#C6C2ED"/>
<path d="M287.023 204.836H286.558V210.324H287.023V204.836Z" fill="#C6C2ED"/>
<path d="M282.399 204.836H281.867V210.324H282.399V204.836Z" fill="#C6C2ED"/>
<path d="M285.63 204.836H284.804V210.324H285.63V204.836Z" fill="#C6C2ED"/>
<path d="M431.046 26.1269H332.51V99.2309H431.046V26.1269Z" fill="white"/>
<path d="M431.047 26.1269H413.216V99.2309H431.047V26.1269Z" fill="#C6C2ED"/>
<path d="M357.694 31.0221H337.536V48.3132H357.694V31.0221Z" fill="#E8E2FF"/>
<path d="M366.301 26.1269V40.8584L369.1 37.5596L371.519 40.0503L375.037 37.6547L377.342 40.8584L381.779 37.6547L383.504 40.0503V26.1269H366.301Z" fill="#E8E2FF"/>
<path d="M425.197 26.1269V36.1939L424.793 35.4056L424.321 36.1447L423.466 35.4559L422.867 36.5077L421.962 35.3695L421.374 36.1447V26.1269H425.197Z" fill="white"/>
<path d="M395.471 31.4256H393.766V43.1917H395.471V31.4256Z" fill="#C6C2ED"/>
<path d="M396.821 31.4256H396.27V43.1917H396.821V31.4256Z" fill="#C6C2ED"/>
<path d="M397.854 31.4256H397.302V43.1917H397.854V31.4256Z" fill="#C6C2ED"/>
<path d="M403.592 31.4256H403.041V43.1917H403.592V31.4256Z" fill="#C6C2ED"/>
<path d="M404.625 31.4256H404.073V43.1917H404.625V31.4256Z" fill="#C6C2ED"/>
<path d="M400.83 31.4256H399.034V43.1917H400.83V31.4256Z" fill="#C6C2ED"/>
<path d="M402.188 31.4256H401.603V43.1917H402.188V31.4256Z" fill="#C6C2ED"/>
<path d="M406.446 31.4256H405.536V43.1917H406.446V31.4256Z" fill="#C6C2ED"/>
<path d="M404.756 139.938H306.219V213.042H404.756V139.938Z" fill="white"/>
<path d="M404.757 139.938H386.926V213.042H404.757V139.938Z" fill="#C6C2ED"/>
<path d="M331.403 144.834H311.245V162.125H331.403V144.834Z" fill="#E8E2FF"/>
<path d="M340.011 139.938V154.67L342.81 151.371L345.229 153.862L348.747 151.466L351.052 154.67L355.489 151.466L357.214 153.862V139.938H340.011Z" fill="#E8E2FF"/>
<path d="M398.907 139.938V150.005L398.503 149.217L398.03 149.956L397.176 149.267L396.577 150.319L395.672 149.181L395.083 149.956V139.938H398.907Z" fill="white"/>
<path d="M369.181 145.237H367.476V157.003H369.181V145.237Z" fill="#C6C2ED"/>
<path d="M370.53 145.237H369.979V157.003H370.53V145.237Z" fill="#C6C2ED"/>
<path d="M371.564 145.237H371.012V157.003H371.564V145.237Z" fill="#C6C2ED"/>
<path d="M377.302 145.237H376.751V157.003H377.302V145.237Z" fill="#C6C2ED"/>
<path d="M378.335 145.237H377.783V157.003H378.335V145.237Z" fill="#C6C2ED"/>
<path d="M374.54 145.237H372.744V157.003H374.54V145.237Z" fill="#C6C2ED"/>
<path d="M375.898 145.237H375.312V157.003H375.898V145.237Z" fill="#C6C2ED"/>
<path d="M380.156 145.237H379.246V157.003H380.156V145.237Z" fill="#C6C2ED"/>
<path d="M313.635 254.816H215.099V327.92H313.635V254.816Z" fill="white"/>
<path d="M313.636 254.816H295.805V327.92H313.636V254.816Z" fill="#C6C2ED"/>
<path d="M240.282 259.712H220.124V277.003H240.282V259.712Z" fill="#E8E2FF"/>
<path d="M248.889 254.816V269.547L251.688 266.249L254.107 268.74L257.625 266.345L259.931 269.547L264.368 266.345L266.092 268.74V254.816H248.889Z" fill="#E8E2FF"/>
<path d="M307.785 254.816V264.883L307.382 264.095L306.908 264.834L306.055 264.145L305.455 265.197L304.55 264.058L303.962 264.834V254.816H307.785Z" fill="white"/>
<path d="M278.06 260.116H276.355V271.882H278.06V260.116Z" fill="#C6C2ED"/>
<path d="M279.41 260.116H278.858V271.882H279.41V260.116Z" fill="#C6C2ED"/>
<path d="M280.442 260.116H279.891V271.882H280.442V260.116Z" fill="#C6C2ED"/>
<path d="M286.182 260.116H285.63V271.882H286.182V260.116Z" fill="#C6C2ED"/>
<path d="M287.213 260.116H286.662V271.882H287.213V260.116Z" fill="#C6C2ED"/>
<path d="M283.418 260.116H281.622V271.882H283.418V260.116Z" fill="#C6C2ED"/>
<path d="M284.777 260.116H284.191V271.882H284.777V260.116Z" fill="#C6C2ED"/>
<path d="M289.035 260.116H288.125V271.882H289.035V260.116Z" fill="#C6C2ED"/>
<path d="M306.471 27.8545H263.956V57.4836H306.471V27.8545Z" fill="white"/>
<path d="M311.35 27.8545H300.106V57.4836H311.35V27.8545Z" fill="#C6C2ED"/>
<path d="M294.866 43.6149H279.677V53.2182H294.866V43.6149Z" fill="#E8E2FF"/>
<path d="M206.923 287.151H153.469V327.92H206.923V287.151Z" fill="white"/>
<path d="M206.923 287.151H197.25V327.92H206.923V287.151Z" fill="#C6C2ED"/>
<path d="M170.744 298.968H156.195V306.441H170.744V298.968Z" fill="#E8E2FF"/>
<path d="M199.287 286.173H151.951V294.414H199.287V286.173Z" fill="white"/>
<path d="M207.815 286.173H199.287V294.414H207.815V286.173Z" fill="#C6C2ED"/>
<path d="M206.923 297.346L153.469 295.453V294.414H206.923V297.346Z" fill="#C6C2ED"/>
<path d="M177.701 327.92H175.619L174.579 286.173H176.66L177.701 327.92Z" fill="#E8E2FF"/>
<path d="M203.55 286.173L202.527 327.92H203.259L204.431 286.173H203.55Z" fill="white"/>
<path d="M185.746 319.506H184.16V325.134H185.746V319.506Z" fill="#C6C2ED"/>
<path d="M187.003 319.506H186.49V325.134H187.003V319.506Z" fill="#C6C2ED"/>
<path d="M187.707 319.506H187.45V325.134H187.707V319.506Z" fill="#C6C2ED"/>
<path d="M189.955 319.506H189.698V325.134H189.955V319.506Z" fill="#C6C2ED"/>
<path d="M190.659 319.506H190.402V325.134H190.659V319.506Z" fill="#C6C2ED"/>
<path d="M193.299 319.506H192.822V325.134H193.299V319.506Z" fill="#C6C2ED"/>
<path d="M188.557 319.506H188.012V325.134H188.557V319.506Z" fill="#C6C2ED"/>
<path d="M191.871 319.506H191.023V325.134H191.871V319.506Z" fill="#C6C2ED"/>
<path d="M199.014 256.543H156.499V286.173H199.014V256.543Z" fill="white"/>
<path d="M203.893 256.543H192.649V286.173H203.893V256.543Z" fill="#C6C2ED"/>
<path d="M187.409 272.304H172.219V281.907H187.409V272.304Z" fill="#E8E2FF"/>
<path d="M426.065 379.29H383.55V408.919H426.065V379.29Z" fill="white"/>
<path d="M430.944 379.29H419.7V408.919H430.944V379.29Z" fill="#C6C2ED"/>
<path d="M414.461 395.051H399.271V404.654H414.461V395.051Z" fill="#E8E2FF"/>
<path d="M437.987 69.6007H395.472V99.2298H437.987V69.6007Z" fill="#E8E2FF"/>
<path d="M442.866 69.6007H431.622V99.2298H442.866V69.6007Z" fill="#C6C2ED"/>
<path d="M426.382 85.3621H411.192V94.9655H426.382V85.3621Z" fill="white"/>
<path d="M229.448 360.11H165.451V408.92H229.448V360.11Z" fill="white"/>
<path d="M229.449 360.11H217.868V408.92H229.449V360.11Z" fill="#C6C2ED"/>
<path d="M186.133 374.256H168.713V383.204H186.133V374.256Z" fill="#E8E2FF"/>
<path d="M220.305 358.938H163.633V368.803H220.305V358.938Z" fill="white"/>
<path d="M230.516 358.938H220.306V368.803H230.516V358.938Z" fill="#C6C2ED"/>
<path d="M229.448 372.315L165.451 370.049V368.804H229.448V372.315Z" fill="#C6C2ED"/>
<path d="M194.461 408.919H191.969L190.723 358.938H193.215L194.461 408.919Z" fill="#E8E2FF"/>
<path d="M225.41 358.938L224.185 408.919H225.062L226.466 358.938H225.41Z" fill="white"/>
<path d="M204.094 398.846H202.195V405.583H204.094V398.846Z" fill="#C6C2ED"/>
<path d="M205.6 398.846H204.985V405.583H205.6V398.846Z" fill="#C6C2ED"/>
<path d="M206.442 398.846H206.135V405.583H206.442V398.846Z" fill="#C6C2ED"/>
<path d="M209.133 398.846H208.825V405.583H209.133V398.846Z" fill="#C6C2ED"/>
<path d="M209.975 398.846H209.668V405.583H209.975V398.846Z" fill="#C6C2ED"/>
<path d="M213.136 398.846H212.565V405.583H213.136V398.846Z" fill="#C6C2ED"/>
<path d="M207.459 398.846H206.807V405.583H207.459V398.846Z" fill="#C6C2ED"/>
<path d="M211.426 398.846H210.412V405.583H211.426V398.846Z" fill="#C6C2ED"/>
<path d="M272.819 379.391H234.103V408.919H272.819V379.391Z" fill="white"/>
<path d="M272.819 379.391H265.813V408.919H272.819V379.391Z" fill="#C6C2ED"/>
<path d="M246.616 387.949H236.078V393.362H246.616V387.949Z" fill="#E8E2FF"/>
<path d="M267.289 378.682H233.003V384.651H267.289V378.682Z" fill="white"/>
<path d="M273.465 378.682H267.288V384.651H273.465V378.682Z" fill="#C6C2ED"/>
<path d="M272.819 386.775L234.103 385.403V384.651H272.819V386.775Z" fill="#C6C2ED"/>
<path d="M251.654 408.919H250.145L249.392 378.682H250.9L251.654 408.919Z" fill="#E8E2FF"/>
<path d="M270.377 378.682L269.635 408.919H270.166L271.015 378.682H270.377Z" fill="white"/>
<path d="M257.481 402.826H256.332V406.902H257.481V402.826Z" fill="#C6C2ED"/>
<path d="M258.391 402.826H258.019V406.902H258.391V402.826Z" fill="#C6C2ED"/>
<path d="M258.901 402.826H258.715V406.902H258.901V402.826Z" fill="#C6C2ED"/>
<path d="M260.529 402.826H260.343V406.902H260.529V402.826Z" fill="#C6C2ED"/>
<path d="M261.039 402.826H260.853V406.902H261.039V402.826Z" fill="#C6C2ED"/>
<path d="M262.952 402.826H262.606V406.902H262.952V402.826Z" fill="#C6C2ED"/>
<path d="M259.517 402.826H259.122V406.902H259.517V402.826Z" fill="#C6C2ED"/>
<path d="M261.916 402.826H261.303V406.902H261.916V402.826Z" fill="#C6C2ED"/>
<path d="M357.322 355.97H285.951V408.919H357.322V355.97Z" fill="white"/>
<path d="M357.322 355.97H344.407V408.919H357.322V355.97Z" fill="#C6C2ED"/>
<path d="M304.191 359.516H289.59V372.04H304.191V359.516Z" fill="#E8E2FF"/>
<path d="M310.424 355.97V366.641L312.453 364.25L314.205 366.056L316.752 364.32L318.423 366.641L321.637 364.32L322.885 366.056V355.97H310.424Z" fill="#E8E2FF"/>
<path d="M353.084 355.97V363.262L352.791 362.691L352.449 363.226L351.831 362.727L351.396 363.489L350.741 362.665L350.314 363.226V355.97H353.084Z" fill="white"/>
<path d="M331.553 359.809H330.318V368.331H331.553V359.809Z" fill="#C6C2ED"/>
<path d="M332.531 359.809H332.132V368.331H332.531V359.809Z" fill="#C6C2ED"/>
<path d="M333.279 359.809H332.88V368.331H333.279V359.809Z" fill="#C6C2ED"/>
<path d="M337.435 359.809H337.036V368.331H337.435V359.809Z" fill="#C6C2ED"/>
<path d="M338.183 359.809H337.784V368.331H338.183V359.809Z" fill="#C6C2ED"/>
<path d="M335.434 359.809H334.133V368.331H335.434V359.809Z" fill="#C6C2ED"/>
<path d="M336.419 359.809H335.995V368.331H336.419V359.809Z" fill="#C6C2ED"/>
<path d="M339.503 359.809H338.844V368.331H339.503V359.809Z" fill="#C6C2ED"/>
<path d="M267.091 357.222H236.297V378.682H267.091V357.222Z" fill="white"/>
<path d="M270.625 357.222H262.48V378.682H270.625V357.222Z" fill="#C6C2ED"/>
<path d="M258.686 368.637H247.684V375.592H258.686V368.637Z" fill="#E8E2FF"/>
<path d="M367.987 387.459H337.193V408.919H367.987V387.459Z" fill="#E8E2FF"/>
<path d="M371.52 387.459H363.376V408.919H371.52V387.459Z" fill="#C6C2ED"/>
<path d="M359.581 398.874H348.579V405.829H359.581V398.874Z" fill="white"/>
<path d="M446.584 178.443H401.22V213.041H446.584V178.443Z" fill="white"/>
<path d="M446.584 178.443H438.375V213.041H446.584V178.443Z" fill="#C6C2ED"/>
<path d="M415.881 188.471H403.533V194.814H415.881V188.471Z" fill="#E8E2FF"/>
<path d="M440.104 177.613H399.932V184.606H440.104V177.613Z" fill="white"/>
<path d="M447.341 177.613H440.104V184.606H447.341V177.613Z" fill="#C6C2ED"/>
<path d="M446.584 187.095L401.22 185.489V184.606H446.584V187.095Z" fill="#C6C2ED"/>
<path d="M421.783 213.042H420.018L419.134 177.613H420.901L421.783 213.042Z" fill="#E8E2FF"/>
<path d="M443.722 177.613L442.854 213.042H443.475L444.469 177.613H443.722Z" fill="white"/>
<path d="M428.613 205.901H427.266V210.677H428.613V205.901Z" fill="#C6C2ED"/>
<path d="M429.679 205.901H429.243V210.677H429.679V205.901Z" fill="#C6C2ED"/>
<path d="M430.276 205.901H430.058V210.677H430.276V205.901Z" fill="#C6C2ED"/>
<path d="M432.183 205.901H431.965V210.677H432.183V205.901Z" fill="#C6C2ED"/>
<path d="M432.781 205.901H432.563V210.677H432.781V205.901Z" fill="#C6C2ED"/>
<path d="M435.021 205.901H434.617V210.677H435.021V205.901Z" fill="#C6C2ED"/>
<path d="M430.998 205.901H430.535V210.677H430.998V205.901Z" fill="#C6C2ED"/>
<path d="M433.809 205.901H433.09V210.677H433.809V205.901Z" fill="#C6C2ED"/>
<path d="M446.584 293.321H401.22V327.92H446.584V293.321Z" fill="white"/>
<path d="M446.584 293.321H438.375V327.92H446.584V293.321Z" fill="#C6C2ED"/>
<path d="M415.881 303.349H403.533V309.692H415.881V303.349Z" fill="#E8E2FF"/>
<path d="M440.104 292.49H399.932V299.484H440.104V292.49Z" fill="white"/>
<path d="M447.341 292.49H440.104V299.484H447.341V292.49Z" fill="#C6C2ED"/>
<path d="M446.584 301.973L401.22 300.366V299.485H446.584V301.973Z" fill="#C6C2ED"/>
<path d="M421.783 327.92H420.018L419.134 292.491H420.901L421.783 327.92Z" fill="#E8E2FF"/>
<path d="M443.722 292.491L442.854 327.92H443.475L444.469 292.491H443.722Z" fill="white"/>
<path d="M428.613 320.78H427.266V325.556H428.613V320.78Z" fill="#C6C2ED"/>
<path d="M429.679 320.78H429.243V325.556H429.679V320.78Z" fill="#C6C2ED"/>
<path d="M430.276 320.78H430.058V325.556H430.276V320.78Z" fill="#C6C2ED"/>
<path d="M432.183 320.78H431.965V325.556H432.183V320.78Z" fill="#C6C2ED"/>
<path d="M432.781 320.78H432.563V325.556H432.781V320.78Z" fill="#C6C2ED"/>
<path d="M435.021 320.78H434.617V325.556H435.021V320.78Z" fill="#C6C2ED"/>
<path d="M430.998 320.78H430.535V325.556H430.998V320.78Z" fill="#C6C2ED"/>
<path d="M433.809 320.78H433.09V325.556H433.809V320.78Z" fill="#C6C2ED"/>
<path d="M42.8447 453.733C42.8447 456.453 127.357 460 231.609 460C335.861 460 420.373 456.995 420.373 454.273C420.373 451.551 335.861 450.537 231.609 450.537C127.357 450.537 42.8447 451.012 42.8447 453.733Z" fill="#C6C2ED"/>
<path d="M350.26 404.412L361.638 416.059L366.49 416.196C373.868 421.686 359.403 426.224 352.723 430.104C351.707 426.079 347.464 417.34 340.37 411.794L350.26 404.412Z" fill="#FCAF9D"/>
<path d="M366.489 416.196C374.913 417.479 378.303 421.969 378.303 421.969C373.305 431.123 365.849 441.874 359.375 449.652C353.46 456.76 337.774 452.819 336.125 451.476C335.252 447.464 343.247 445.884 345.786 444.852C347.096 444.32 349.146 441.832 349.312 440.644C350.287 433.668 347.067 430.052 350.475 425.886C357.019 423.477 362.707 429.844 366.489 416.196Z" fill="#342A98"/>
<path d="M346.766 444.216C346.766 444.216 350.856 445.231 353.298 442.79C355.741 440.348 355.758 426.264 355.737 425.684C355.732 425.565 355.682 425.454 355.598 425.371C355.514 425.288 355.401 425.239 355.283 425.235C355.227 425.233 355.171 425.242 355.118 425.263C355.066 425.283 355.018 425.315 354.978 425.355C354.939 425.395 354.908 425.443 354.888 425.495C354.867 425.548 354.858 425.604 354.861 425.661C354.861 425.796 355.079 440.248 352.628 442.4C350.319 444.425 347.32 443.71 347.32 443.71L346.766 444.216Z" fill="white"/>
<path d="M382 421.924C380.773 427.008 374.903 431.601 373.921 433.336C371.101 438.317 366.007 445.619 363.237 449.006C357.178 456.413 339.764 457.136 337.471 454.85L336.119 451.476C343.027 451.476 360.506 455.868 367.305 430.366C368.229 426.902 374.844 422.987 377.036 420.302C377.826 420.279 380.474 420.367 382 421.924Z" fill="#EAEAEA"/>
<path d="M266.12 417.603L264.373 433.794L267.356 437.624C267.815 446.809 255.783 439.346 248.534 436.661C250.994 433.315 251.855 424.055 251.619 415.053L266.12 417.603Z" fill="#FCAF9D"/>
<path d="M267.357 437.624C271.724 444.94 270.421 450.412 270.421 450.412C250.82 454.179 220.98 454.721 220.962 450.265C221.628 444.955 225.798 446.062 233.785 443.897C243.136 441.361 243.393 431.461 249.697 431.435C255.715 434.95 254.419 443.387 267.357 437.624Z" fill="#342A98"/>
<path d="M233.078 445.459C239.878 445.91 252.646 435.85 253.197 435.364C253.285 435.285 253.339 435.175 253.349 435.058C253.36 434.94 253.326 434.823 253.254 434.729C253.22 434.684 253.177 434.647 253.128 434.619C253.078 434.592 253.024 434.575 252.968 434.57C252.912 434.565 252.855 434.571 252.801 434.589C252.748 434.607 252.699 434.635 252.657 434.673C252.52 434.794 237.934 446.76 231.203 444.521C230.169 444.183 230.013 445.474 233.078 445.459Z" fill="white"/>
<path d="M272.809 453.236C268.105 455.524 260.831 453.92 258.867 454.267C253.23 455.262 244.357 455.986 239.979 455.994C230.22 456.015 220.754 454.399 220.747 453.245L220.842 449.456C239.494 455.194 251.421 448.302 256.947 447.272C260.471 446.617 267.435 448.393 270.901 448.376C271.421 448.969 273.038 451.068 272.809 453.236Z" fill="#EAEAEA"/>
<path d="M257.084 244.797C257.084 244.797 256.429 266.337 254.507 280.699C250.503 310.661 246.377 352.361 246.377 352.361C246.24 377.167 246.049 417.967 250.324 419.328C253.098 420.718 264.326 421.643 267.37 420.444C271.438 421.281 274.559 389.98 275.113 373.132C275.659 356.405 279.352 349.547 279.352 349.547L291.915 300.056L299.373 242.756L257.084 244.797Z" fill="#768BB1"/>
<path d="M319.375 244.706C320.957 253.292 322.937 268.342 321.649 291.031L326.786 340.621C326.786 340.621 337.04 358.872 340.368 364.76C343.696 370.649 357.931 402.869 355.338 405.464C355.338 405.464 353.727 414.039 341.414 415.981C336.695 417.258 310.874 380.854 298.906 359.404C296.89 355.568 272.725 295.337 269.394 247.224L319.375 244.706Z" fill="#B6C6E4"/>
<path d="M321.246 254.965L321.807 266.461C315.438 271.118 283.439 277.136 263.349 273.255L262.021 260.668L321.246 254.965Z" fill="#768BB1"/>
<path d="M250.604 416.011C250.159 421.427 249.676 425.729 250.288 427.686C250.678 428.938 264.708 431.726 265.427 429.482C266.503 426.128 266.503 426.128 267.719 419.392L250.604 416.011Z" fill="#B6C6E4"/>
<path d="M341.416 415.981C344.659 419.224 346.57 421.759 348.381 422.729C349.538 423.348 361.786 415.312 360.431 413.387C358.605 410.794 359.196 411.12 355.341 405.464L341.416 415.981Z" fill="#768BB1"/>
<path d="M223.908 225.638C232.36 222.581 240.561 218.104 248.467 211.971C253.953 188.136 260.1 152.801 271.14 148.032L288.401 169.353C288.401 169.353 269.645 218.328 261.862 226.112C255.681 232.292 228.235 237.061 228.235 237.061L223.908 225.638Z" fill="#FFAE92"/>
<path d="M273.851 147.096C261.652 150.945 256.507 157.022 248.23 207.472C251.758 214.838 266.627 212.167 276.635 210.795L290.8 180.396L273.851 147.096Z" fill="#342A98"/>
<path d="M275.792 214.247C267.44 216.352 252.583 213.994 247.988 207.833L248.901 202.671C253.584 209.495 267.924 211.914 277.54 209.624L275.792 214.247Z" fill="#17124B"/>
<path d="M256.676 233.314C255.709 246.278 255.164 260.007 255.164 260.007C273.397 266.953 304.186 270.556 322.31 262.866C322.31 238.272 325.819 212.403 328.86 188.615C336.135 168.183 325.954 154.22 319.523 147.597C295.743 137.398 282.629 143.818 271.144 148.034C260.368 151.99 259.346 180.669 258.553 204.907C258.172 216.379 257.212 226.095 256.676 233.314Z" fill="#342A98"/>
<path d="M328.86 188.612C325.823 212.403 322.31 238.272 322.31 262.863C304.186 270.552 267.275 268.576 255.164 260.003C255.164 260.003 256.249 239.055 257.211 226.091C289.181 233.12 314.133 223.211 328.86 188.612Z" fill="#342A98"/>
<path d="M324.02 184.195L316.269 181.343C307.401 184.937 323.103 226.118 307.243 266.583C312.929 265.892 318.726 264.605 322.304 262.871L324.02 184.195Z" fill="#342A98"/>
<path d="M285.57 155.376C283.793 159.238 283.763 163.519 283.616 167.879H279.095C279.288 163.458 279.436 158.413 281.072 155.376H285.57Z" fill="#17124B"/>
<path d="M301.8 122.446L300.755 135.132L303.45 141.674L307.247 143.933C298.67 145.77 282.625 156.579 282.625 156.579C279.559 153.194 277.623 149.482 278.292 145.012L279.739 142.743L278.409 131.902C276.107 119.851 300.944 113.058 301.8 122.446Z" fill="#FFAE92"/>
<path d="M282.625 156.579L287.571 150.228C291.862 145.936 302.389 144.999 303.434 138.903L306.157 141.333L310.196 143.407C308.098 149.085 304.507 153.511 299.583 157.019C296.072 156.409 295.034 156.357 291.894 153.216L282.625 156.579Z" fill="#17124B"/>
<path d="M282.625 156.579L279.559 149.312C279.559 149.312 279.057 147.096 279.164 145.885C279.356 143.719 279.739 142.744 279.739 142.744L275.723 144.53L273.851 147.096C270.855 151.327 270.058 154.212 270.109 156.579C273.821 156.143 275.305 154.77 277.184 153.647L282.625 156.579Z" fill="#17124B"/>
<path d="M285.802 222.631L325.627 216.128L316.273 181.341L319.519 147.6C334.949 151.384 340.273 173.707 343.727 190.809C347.13 207.665 347.81 224.381 345.775 229.673C342.718 237.607 286.148 235.091 286.148 235.091L285.802 222.631Z" fill="#FCAF9D"/>
<path d="M316.604 146.407C332.267 150.775 336.007 159.382 340.253 174.251C342.603 182.481 346.012 199.303 347.406 210.285C340.556 214.124 332.195 215.561 322.536 214.934L312.523 179.749L316.604 146.407Z" fill="#342A98"/>
<path d="M322.038 215.885C329.766 218.338 343.509 217.093 348.241 211.152L347.118 206.277C342.256 211.976 329.381 213.375 320.949 211.16L322.038 215.885Z" fill="#17124B"/>
<path d="M216.96 240.73C215.565 238.433 214 230.98 214 230.98L218.502 227.279C220.753 225.473 224.566 225.099 234.468 227.095C239.279 226.469 239.797 230.911 239.949 233.427H229.669C229.532 235.231 229.315 236.531 228.763 238.751H238.802L235.672 243.557L227.523 247.713C226.138 246.242 225.936 244.798 226.798 243.557C226.82 243.92 217.733 242.004 216.96 240.73Z" fill="#F29981"/>
<path d="M288.913 222.254C286.372 223.071 282.395 222.394 278.494 221.798C278.494 221.798 265.631 221.789 265.075 222.584C265.075 222.584 263.915 230.795 266.159 237.01C266.705 238.006 267.332 238.641 268.038 238.889L269.852 239.245L272.273 238.808L274.566 239.245L277.314 238.808C277.314 238.808 280.521 240.118 281.6 238.013C282.037 237.19 282.386 236.323 282.642 235.427C282.642 235.427 288.21 234.881 288.479 234.843C295.827 233.834 293.068 223.095 288.913 222.254Z" fill="#FCAF9D"/>
<path d="M276.186 224.508C276.204 224.402 276.262 224.308 276.348 224.244C276.434 224.18 276.541 224.153 276.647 224.167C276.753 224.181 276.85 224.236 276.916 224.32C276.982 224.404 277.013 224.511 277.002 224.617C276.148 231.245 277.394 238.794 277.171 238.837C277.144 238.839 275.317 231.257 276.186 224.508Z" fill="#E87A6B"/>
<path d="M272.273 238.813C272.075 238.813 270.729 228.736 271.048 224.53C271.052 224.476 271.065 224.423 271.089 224.375C271.113 224.327 271.146 224.284 271.187 224.248C271.228 224.213 271.275 224.186 271.326 224.17C271.377 224.153 271.431 224.146 271.485 224.151C271.593 224.159 271.694 224.21 271.765 224.291C271.835 224.373 271.871 224.48 271.864 224.588C271.553 228.734 272.295 238.813 272.273 238.813Z" fill="#E87A6B"/>
<path d="M268.038 238.889C267.847 238.889 266.223 229.018 266.554 224.531C266.567 224.426 266.619 224.331 266.701 224.264C266.783 224.197 266.887 224.164 266.992 224.171C267.097 224.179 267.196 224.227 267.267 224.305C267.338 224.383 267.376 224.486 267.374 224.591C267.047 229.002 268.04 238.477 268.038 238.889Z" fill="#E87A6B"/>
<path d="M273.224 120.611C272.602 123.449 271.934 127.894 272.673 130.07C273.413 132.246 274.443 136.699 274.305 138.812C274.166 140.924 275.995 142.313 280.517 142.826C285.039 143.339 291.088 141.375 293.76 138.022C296.433 134.668 296.273 134.164 297.021 131.03C297.46 129.133 298.356 127.374 299.631 125.904L303.896 115.224C305.643 112.816 305.894 100.361 301.523 101.67C301.803 98.5172 297.045 93.2866 289.75 94.0961C282.454 94.9056 277.528 98.4596 274.037 100.312C270.545 102.164 268.998 104.168 269.527 105.556C270.055 106.944 271.067 107.304 271.143 107.6C271.076 110.123 272.7 116.487 272.7 116.487L273.224 120.611Z" fill="#1D1526"/>
<path d="M291.507 105.612C292.532 106.048 292.769 105.317 292.915 105.317C293.99 105.948 295.015 106.63 294.539 109.79C294.063 112.95 294.112 114.451 294.991 114.698C295.87 114.944 297.574 116.547 296.943 116.837C296.312 117.127 295.776 117.272 296.554 117.518C297.331 117.765 297.187 118.244 296.556 118.244C295.924 118.243 297.049 120.433 295.304 121.838C293.559 123.244 293.322 126.114 292.553 128.302C291.783 130.491 288.285 132.671 284.781 131.017C281.277 129.362 278.547 129.02 276.7 129.896C274.852 130.771 273.878 130.38 273.193 129.358C272.508 128.335 272.548 125.131 272.88 122.419C273.213 119.706 272.429 117.706 272.133 116.054C271.838 114.401 272.886 108.51 274.193 106.404C275.5 104.298 276.379 104.727 277.399 105.604C278.418 106.482 283.441 109.033 291.507 105.612Z" fill="#FCAF9D"/>
<path d="M274.913 133C276.077 131.296 279.371 133.716 281.234 133.325C288.421 131.82 286.192 134.433 285.892 135.708C285.506 137.349 284.942 138.997 283.513 138.725C281.578 138.345 280.591 137.846 278.595 138.331C276.6 138.816 274.323 134.105 274.913 133Z" fill="#FCAF9D"/>
<path d="M294.654 104.798C294.677 104.803 294.7 104.803 294.723 104.798C296.699 103.75 298.754 102.86 300.871 102.135C300.889 102.13 300.906 102.12 300.921 102.108C300.935 102.096 300.947 102.08 300.956 102.063C300.974 102.029 300.977 101.989 300.965 101.952C300.953 101.915 300.927 101.885 300.893 101.867C300.858 101.849 300.818 101.846 300.782 101.857C298.649 102.59 296.577 103.486 294.583 104.539C294.557 104.556 294.537 104.581 294.525 104.61C294.514 104.639 294.512 104.672 294.52 104.702C294.527 104.733 294.545 104.76 294.569 104.781C294.593 104.801 294.622 104.814 294.654 104.816L294.654 104.798Z" fill="#FCAF9D"/>
<path d="M293.776 115.102C293.798 115.108 293.822 115.108 293.845 115.102C293.845 115.102 294.57 114.541 297.538 113.588C297.556 113.583 297.573 113.573 297.588 113.561C297.602 113.549 297.614 113.533 297.623 113.516C297.632 113.499 297.637 113.481 297.639 113.462C297.64 113.443 297.638 113.423 297.632 113.405C297.627 113.386 297.618 113.369 297.606 113.354C297.594 113.338 297.578 113.326 297.561 113.317C297.544 113.308 297.525 113.303 297.505 113.302C297.486 113.301 297.467 113.304 297.448 113.31C294.455 114.256 293.737 114.824 293.674 114.824C293.656 114.833 293.641 114.845 293.629 114.86C293.617 114.874 293.608 114.891 293.603 114.91C293.597 114.928 293.596 114.947 293.598 114.966C293.601 114.985 293.607 115.004 293.617 115.02C293.631 115.049 293.654 115.073 293.682 115.088C293.711 115.103 293.744 115.108 293.776 115.102Z" fill="#FCAF9D"/>
<path d="M294.018 116.362C294.041 116.368 294.065 116.368 294.087 116.362C294.087 116.362 294.812 115.806 297.78 114.848C297.799 114.843 297.816 114.834 297.832 114.822C297.847 114.81 297.859 114.795 297.868 114.777C297.877 114.76 297.882 114.741 297.883 114.722C297.884 114.702 297.881 114.683 297.874 114.665C297.868 114.646 297.859 114.629 297.847 114.615C297.834 114.6 297.819 114.588 297.802 114.579C297.785 114.57 297.766 114.565 297.747 114.563C297.728 114.562 297.709 114.564 297.691 114.57C294.698 115.535 293.979 116.09 293.948 116.103C293.921 116.12 293.901 116.145 293.889 116.174C293.878 116.204 293.876 116.236 293.884 116.266C293.892 116.297 293.909 116.324 293.933 116.345C293.957 116.365 293.986 116.378 294.018 116.381L294.018 116.362Z" fill="#FCAF9D"/>
<path d="M299.678 125.999C296.868 123.57 298.79 114.535 303.542 114.342C306.017 114.242 306.71 117.824 306.177 121.046C305.669 124.022 303.311 126.796 299.678 125.999Z" fill="#FCAF9D"/>
<g style="mix-blend-mode:multiply">
<path d="M301.096 125.343L301.153 125.343C302.98 124.619 303.267 123.534 303.278 122.961C303.278 122.571 303.164 122.19 302.952 121.863C302.739 121.536 302.436 121.278 302.08 121.119C301.773 120.984 301.436 120.933 301.104 120.971C300.771 121.008 300.455 121.133 300.187 121.333C300.351 119.227 301.436 117.153 302.759 116.523C303.049 116.371 303.377 116.308 303.702 116.342C304.028 116.376 304.337 116.505 304.59 116.713C304.605 116.725 304.622 116.734 304.641 116.739C304.659 116.744 304.679 116.745 304.698 116.742C304.717 116.739 304.735 116.732 304.751 116.722C304.767 116.712 304.781 116.698 304.792 116.682C304.818 116.655 304.832 116.619 304.832 116.581C304.832 116.544 304.817 116.507 304.791 116.48C304.494 116.242 304.134 116.094 303.755 116.056C303.376 116.018 302.995 116.09 302.658 116.265C301.158 116.976 299.973 119.296 299.904 121.654C299.904 121.683 299.912 121.711 299.927 121.735C299.943 121.759 299.965 121.778 299.992 121.79C300.018 121.801 300.047 121.805 300.076 121.8C300.104 121.795 300.13 121.781 300.151 121.761C300.382 121.52 300.681 121.355 301.009 121.287C301.336 121.22 301.677 121.254 301.986 121.384C302.292 121.522 302.551 121.746 302.734 122.028C302.916 122.31 303.013 122.638 303.013 122.973C303.015 123.478 302.74 124.423 301.064 125.091C301.029 125.106 301.001 125.134 300.987 125.17C300.973 125.205 300.974 125.244 300.989 125.28C301.001 125.297 301.017 125.312 301.035 125.323C301.054 125.334 301.075 125.341 301.096 125.343Z" fill="#EBA492"/>
</g>
<g style="mix-blend-mode:multiply">
<path d="M287.135 122.935C287.169 122.928 287.199 122.91 287.221 122.883C287.243 122.856 287.255 122.822 287.255 122.787C287.255 122.752 287.243 122.718 287.221 122.691C287.199 122.664 287.168 122.646 287.134 122.639C286.701 122.67 286.267 122.594 285.869 122.417C285.837 122.398 285.798 122.393 285.761 122.403C285.725 122.412 285.693 122.435 285.674 122.468C285.663 122.483 285.656 122.501 285.653 122.519C285.65 122.538 285.65 122.557 285.654 122.575C285.659 122.593 285.666 122.61 285.677 122.626C285.688 122.641 285.702 122.654 285.719 122.663C286.159 122.877 286.647 122.971 287.135 122.935Z" fill="#EBA492"/>
</g>
<g style="mix-blend-mode:multiply">
<path d="M276.905 122.449C276.944 122.449 276.981 122.434 277.008 122.407C277.035 122.38 277.05 122.343 277.05 122.304C277.048 122.266 277.032 122.23 277.005 122.203C276.978 122.176 276.942 122.16 276.904 122.159C276.471 122.191 276.037 122.115 275.64 121.937C275.606 121.918 275.566 121.913 275.529 121.922C275.491 121.932 275.459 121.955 275.438 121.988C275.428 122.003 275.42 122.021 275.417 122.039C275.414 122.058 275.414 122.077 275.418 122.095C275.423 122.113 275.431 122.131 275.442 122.146C275.453 122.161 275.467 122.174 275.483 122.184C275.926 122.393 276.416 122.485 276.905 122.449Z" fill="#EBA492"/>
</g>
<g style="mix-blend-mode:multiply">
<path d="M282.692 129.715C282.919 129.72 283.142 129.665 283.34 129.554C283.537 129.443 283.701 129.281 283.813 129.085C283.954 128.803 284.016 128.489 283.991 128.174C283.967 127.86 283.858 127.558 283.675 127.3C283.665 127.284 283.651 127.27 283.636 127.259C283.62 127.248 283.602 127.24 283.583 127.236C283.564 127.232 283.545 127.231 283.526 127.235C283.507 127.238 283.489 127.246 283.473 127.256C283.441 127.276 283.418 127.307 283.408 127.343C283.399 127.38 283.404 127.419 283.423 127.451C283.579 127.664 283.674 127.915 283.698 128.177C283.723 128.439 283.675 128.703 283.56 128.94C283.466 129.095 283.331 129.221 283.171 129.306C283.01 129.39 282.829 129.429 282.647 129.418C282.628 129.416 282.609 129.419 282.591 129.425C282.573 129.431 282.556 129.441 282.543 129.454C282.529 129.467 282.518 129.483 282.511 129.501C282.504 129.519 282.501 129.538 282.502 129.557C282.501 129.576 282.504 129.595 282.511 129.613C282.517 129.631 282.528 129.647 282.54 129.661C282.553 129.675 282.569 129.687 282.586 129.695C282.604 129.703 282.622 129.707 282.641 129.708L282.692 129.715Z" fill="#EBA492"/>
</g>
<path d="M286.516 122.363C286.038 122.363 285.649 121.677 285.646 120.83C285.644 119.984 286.029 119.298 286.506 119.299C286.984 119.299 287.373 119.985 287.375 120.831C287.378 121.677 286.993 122.363 286.516 122.363Z" fill="#1D1526"/>
<path d="M288.49 121.073C288.516 121.082 288.545 121.082 288.572 121.073C288.602 121.051 288.623 121.017 288.63 120.98C288.637 120.942 288.629 120.904 288.609 120.871C287.815 119.709 287.099 119.115 286.417 119.046C286.148 119.035 285.881 119.086 285.635 119.195C285.39 119.304 285.174 119.469 285.003 119.676C284.989 119.689 284.979 119.705 284.971 119.722C284.964 119.74 284.96 119.758 284.96 119.777C284.96 119.796 284.964 119.815 284.971 119.832C284.979 119.85 284.99 119.865 285.004 119.878C285.033 119.904 285.07 119.918 285.108 119.918C285.147 119.918 285.184 119.904 285.212 119.878C285.353 119.704 285.532 119.565 285.736 119.472C285.939 119.379 286.162 119.335 286.386 119.342C286.98 119.399 287.652 119.974 288.369 121.042C288.386 121.055 288.405 121.065 288.426 121.071C288.447 121.076 288.469 121.077 288.49 121.073Z" fill="#1D1526"/>
<path d="M276.279 121.883C275.802 121.883 275.413 121.197 275.41 120.351C275.407 119.505 275.792 118.819 276.27 118.819C276.747 118.819 277.136 119.505 277.139 120.352C277.142 121.198 276.757 121.884 276.279 121.883Z" fill="#1D1526"/>
<path d="M278.254 120.594C278.281 120.603 278.31 120.603 278.336 120.594C278.353 120.583 278.367 120.57 278.378 120.554C278.389 120.538 278.396 120.52 278.4 120.501C278.403 120.482 278.403 120.462 278.398 120.444C278.394 120.425 278.385 120.407 278.374 120.392C277.586 119.23 276.864 118.636 276.181 118.566C275.913 118.554 275.647 118.605 275.402 118.715C275.158 118.824 274.943 118.989 274.774 119.196C274.76 119.209 274.749 119.225 274.742 119.242C274.735 119.26 274.731 119.279 274.731 119.297C274.731 119.316 274.735 119.335 274.742 119.352C274.75 119.37 274.761 119.386 274.775 119.399C274.804 119.424 274.841 119.438 274.879 119.438C274.917 119.438 274.955 119.424 274.983 119.399C275.125 119.224 275.305 119.084 275.51 118.991C275.714 118.898 275.938 118.854 276.163 118.863C276.751 118.92 277.429 119.495 278.14 120.562C278.173 120.586 278.214 120.597 278.254 120.594Z" fill="#1D1526"/>
<path d="M283.088 114.059C284.003 115.443 285.136 116.101 287.657 115.666C289.738 115.374 291.856 115.856 293.61 117.021C291.782 114.353 290.388 113.328 287.867 113.985C286.302 114.374 284.667 114.4 283.088 114.059Z" fill="#1D1526"/>
<path d="M278.442 114.468C277.68 115.422 276.84 115.965 275.088 115.528C273.336 115.092 272.459 115.963 272.459 115.963C272.997 114.105 272.927 113.922 278.442 114.468Z" fill="#1D1526"/>
<g style="mix-blend-mode:multiply">
<path d="M283.248 115.461C283.275 115.459 283.301 115.45 283.324 115.435C283.346 115.42 283.364 115.399 283.376 115.375C283.387 115.35 283.392 115.323 283.389 115.296C283.387 115.269 283.377 115.243 283.361 115.221C282.646 114.307 282.725 113.482 283.523 112.467C283.549 112.44 283.564 112.404 283.563 112.366C283.563 112.329 283.549 112.293 283.522 112.266C283.509 112.252 283.494 112.241 283.476 112.233C283.459 112.226 283.44 112.222 283.421 112.222C283.402 112.222 283.384 112.226 283.366 112.233C283.349 112.241 283.333 112.252 283.321 112.266C282.404 113.387 282.35 114.351 283.154 115.385C283.175 115.421 283.209 115.448 283.248 115.461Z" fill="#EBA492"/>
</g>
<g style="mix-blend-mode:multiply">
<path d="M281.876 137.382C281.909 137.381 281.94 137.37 281.966 137.351C281.992 137.332 282.011 137.305 282.021 137.274C282.031 137.237 282.026 137.198 282.007 137.165C281.988 137.132 281.957 137.108 281.92 137.097C281.088 136.799 280.19 136.74 279.328 136.926C279.31 136.932 279.293 136.941 279.278 136.953C279.263 136.966 279.251 136.981 279.242 136.998C279.234 137.015 279.228 137.033 279.227 137.053C279.225 137.072 279.228 137.091 279.234 137.109C279.239 137.128 279.249 137.145 279.261 137.159C279.273 137.174 279.289 137.186 279.306 137.195C279.323 137.204 279.341 137.209 279.361 137.211C279.38 137.212 279.399 137.21 279.417 137.204C280.224 137.045 281.06 137.104 281.838 137.376L281.876 137.382Z" fill="#EBA492"/>
</g>
<path d="M277.227 127.003C277.618 126.394 277.927 125.738 278.148 125.049C278.382 124.298 278.563 123.532 278.69 122.755C278.775 122.105 278.947 121.469 279.201 120.864C279.446 120.367 279.268 119.963 278.969 119.288C278.684 118.664 278.461 118.014 278.301 117.347C278.295 117.309 278.303 117.269 278.324 117.237C278.345 117.204 278.377 117.181 278.414 117.17C278.452 117.164 278.492 117.173 278.524 117.193C278.557 117.214 278.581 117.247 278.591 117.284C278.735 117.935 278.948 118.569 279.228 119.175C279.533 119.875 279.755 120.379 279.448 120.997C279.211 121.586 279.047 122.202 278.961 122.831C278.836 123.621 278.652 124.4 278.414 125.163C278.184 125.872 277.866 126.55 277.468 127.179C277.273 127.488 277.135 127.715 277.179 127.81C277.288 128.1 279.074 128.737 281.306 128.631C281.325 128.63 281.344 128.633 281.362 128.64C281.38 128.646 281.397 128.656 281.411 128.669C281.425 128.682 281.436 128.697 281.445 128.715C281.453 128.732 281.457 128.751 281.458 128.77C281.457 128.807 281.442 128.843 281.417 128.871C281.392 128.899 281.357 128.916 281.32 128.921L280.809 128.921C279.82 128.928 278.836 128.788 277.888 128.503C277.498 128.755 277.581 129.045 277.587 129.077C277.599 129.113 277.597 129.152 277.581 129.186C277.564 129.22 277.535 129.247 277.499 129.26L277.449 129.26C277.418 129.259 277.389 129.249 277.364 129.231C277.339 129.213 277.32 129.187 277.31 129.159C277.275 129.016 277.28 128.867 277.326 128.728C277.371 128.589 277.454 128.465 277.566 128.371C277.305 128.287 277.082 128.116 276.934 127.885C276.826 127.658 276.989 127.431 277.227 127.003Z" fill="#1D1526"/>
<g style="mix-blend-mode:multiply">
<path d="M276 133.455C275.917 133.309 275.835 133.163 275.752 133.005C278.917 134.082 282.321 134.23 285.561 133.43C285.467 133.595 285.366 133.734 285.265 133.88C282.196 134.565 278.998 134.418 276 133.455Z" fill="#EBA492"/>
</g>
<path d="M285.137 133.851C282.156 134.482 279.063 134.366 276.133 133.513C277.938 136.579 280.567 136.245 280.567 136.245C281.472 136.275 282.368 136.07 283.169 135.65C283.97 135.231 284.648 134.611 285.137 133.851Z" fill="white"/>
<path d="M279.762 238.246H227.496C227.12 238.246 226.748 238.164 226.407 238.005C226.066 237.846 225.763 237.615 225.521 237.327C225.278 237.039 225.101 236.701 225.003 236.338C224.904 235.974 224.886 235.594 224.949 235.222L224.959 235.17C225.06 234.567 225.372 234.02 225.838 233.626C226.304 233.231 226.894 233.015 227.505 233.014H279.763C280.449 233.014 281.107 233.287 281.593 233.773C282.078 234.259 282.35 234.918 282.35 235.604V235.657C282.35 235.997 282.283 236.334 282.153 236.648C282.023 236.963 281.832 237.248 281.592 237.488C281.352 237.729 281.066 237.92 280.752 238.049C280.438 238.179 280.102 238.246 279.762 238.246Z" fill="#17124B"/>
<path d="M255.103 249.49C256.852 244.848 259.635 238.089 268.048 238.089H281.477C281.809 238.089 282.137 238.023 282.443 237.896C282.749 237.769 283.027 237.583 283.261 237.349C283.495 237.114 283.681 236.836 283.808 236.53C283.935 236.223 284 235.895 284 235.563C284 235.231 283.935 234.903 283.808 234.597C283.681 234.29 283.495 234.012 283.261 233.777C283.027 233.543 282.749 233.357 282.443 233.23C282.137 233.103 281.809 233.038 281.477 233.038H262.813C254.676 233.038 251.551 237.587 247.629 246.318L255.103 249.49Z" fill="#B6C6E4"/>
<path d="M143.625 451.77C149.821 445.568 149.821 435.512 143.625 429.31C137.43 423.108 127.386 423.108 121.191 429.31C114.996 435.512 114.996 445.568 121.191 451.77C127.386 457.972 137.43 457.972 143.625 451.77Z" fill="#151426"/>
<path d="M126.205 441.296C126.355 442.524 126.864 443.68 127.67 444.618C128.476 445.556 129.541 446.234 130.732 446.566C131.922 446.898 133.184 446.869 134.358 446.482C135.532 446.096 136.565 445.37 137.327 444.396C138.089 443.422 138.545 442.244 138.638 441.01C138.73 439.777 138.456 438.543 137.849 437.466C137.241 436.388 136.328 435.515 135.226 434.957C134.123 434.399 132.879 434.181 131.653 434.331C130.008 434.532 128.51 435.378 127.489 436.684C126.467 437.991 126.006 439.649 126.205 441.296Z" fill="#768BB1"/>
<path d="M169.079 446.304C169.876 446.304 170.656 446.069 171.321 445.628C171.986 445.187 172.507 444.56 172.818 443.825L255.103 249.49C255.311 248.998 255.42 248.471 255.425 247.937C255.429 247.403 255.329 246.874 255.129 246.379C254.929 245.884 254.634 245.433 254.26 245.053C253.886 244.672 253.441 244.369 252.95 244.16C252.459 243.952 251.932 243.842 251.399 243.838C250.866 243.833 250.337 243.934 249.843 244.134C249.348 244.334 248.898 244.63 248.518 245.004C248.138 245.378 247.835 245.824 247.627 246.315L165.343 440.654C165.082 441.271 164.978 441.944 165.039 442.612C165.101 443.281 165.327 443.923 165.696 444.482C166.066 445.042 166.569 445.501 167.159 445.819C167.749 446.137 168.408 446.304 169.079 446.304Z" fill="#B6C6E4"/>
<path d="M149.283 301.003L214.271 329.469L253.603 239.468L188.614 211.002L149.283 301.003Z" fill="#D39059"/>
<path d="M149.284 301.001L187.62 317.793L226.952 227.792L188.616 211L149.284 301.001Z" fill="#FFC692"/>
<path d="M164.13 307.503L172.868 311.33L212.2 221.329L203.462 217.502L164.13 307.503Z" fill="#EAA871"/>
<path d="M197.098 321.949L205.616 325.68L244.948 235.679L236.43 231.948L197.098 321.949Z" fill="#B2805F"/>
<path d="M183.06 238.701L194.855 243.867L203.647 223.748L191.853 218.582L183.06 238.701Z" fill="#FFE4D2"/>
<path d="M206.386 274.937L232.694 287.001L236.621 278.417L210.313 266.353L206.386 274.937Z" fill="#B2805F"/>
<path d="M168.262 257.458L206.383 274.94L210.311 266.356L172.189 248.874L168.262 257.458Z" fill="#EAA871"/>
<path d="M115.611 285.784L174.569 313.471L201.515 255.961L142.557 228.274L115.611 285.784Z" fill="#DBB8A1"/>
<path d="M115.611 285.783L150.389 302.115L177.335 244.605L142.556 228.273L115.611 285.783Z" fill="#F2D6C4"/>
<path d="M129.078 292.108L137.005 295.831L163.951 238.321L156.023 234.598L129.078 292.108Z" fill="#DBB8A1"/>
<path d="M158.99 306.154L166.717 309.783L193.663 252.273L185.935 248.644L158.99 306.154Z" fill="#C9A693"/>
<path d="M138.697 250.305L149.397 255.33L155.421 242.474L144.72 237.449L138.697 250.305Z" fill="#F9E5D9"/>
<path d="M81.2137 312.664L198.498 363.621L214.774 326.074L97.4898 275.117L81.2137 312.664Z" fill="#BC865E"/>
<path d="M81.2153 312.662L153.289 343.976L169.565 306.43L97.4914 275.115L81.2153 312.662Z" fill="#E5AE80"/>
<path d="M181.992 334.141L200.875 342.346L207.215 327.721L188.331 319.516L181.992 334.141Z" fill="#DBB8A1"/>
<path d="M55.8732 386.183L167.738 437.552L201.828 363.145L89.9632 311.777L55.8732 386.183Z" fill="#C66959"/>
<path d="M89.9021 311.781L55.877 386.218L110.722 411.345L144.747 336.908L89.9021 311.781Z" fill="#FFA480"/>
<path d="M100.599 362.764L118.079 370.791L131.763 340.924L114.283 332.897L100.599 362.764Z" fill="#FFDCD2"/>
<path d="M71.9834 393.594L77.5621 396.274L112.976 322.358L107.358 319.761L71.9834 393.594Z" fill="#FFC9B8"/>
<path d="M134.673 422.275L143.062 426.304L178.472 352.412L170.083 348.383L134.673 422.275Z" fill="#EAAD9D"/>
<path d="M169.083 446.303C170.004 446.302 170.897 445.988 171.616 445.411C172.335 444.835 172.837 444.031 173.039 443.132C173.242 442.232 173.132 441.29 172.73 440.461C172.327 439.632 171.654 438.964 170.823 438.568L83.9259 397.234C83.8417 397.194 83.7554 397.156 83.6679 397.125L49.1994 383.561C47.2028 382.772 44.9963 383.716 44.0297 385.641C41.0063 391.662 45.4315 394.867 47.3275 395.881L129.795 442.065C130.078 442.216 130.377 442.333 130.688 442.414L168.065 446.172C168.397 446.259 168.739 446.303 169.083 446.303Z" fill="#17124B"/>
<path d="M169.081 458.12C177.842 458.12 184.944 451.01 184.944 442.239C184.944 433.468 177.842 426.357 169.081 426.357C160.32 426.357 153.217 433.468 153.217 442.239C153.217 451.01 160.32 458.12 169.081 458.12Z" fill="#252542"/>
<path d="M175.323 442.457C175.445 439.005 172.749 436.107 169.3 435.985C165.852 435.862 162.957 438.562 162.835 442.014C162.713 445.467 165.409 448.365 168.858 448.487C172.306 448.609 175.201 445.91 175.323 442.457Z" fill="#B6C6E4"/>
<path d="M80.6022 429.18C79.1044 429.181 77.6244 428.855 76.2656 428.223L49.0084 415.568C47.7059 414.963 46.5429 414.095 45.5931 413.017C44.6433 411.939 43.9275 410.675 43.491 409.306C43.0544 407.937 42.9067 406.492 43.057 405.062C43.2074 403.633 43.6527 402.25 44.3646 401.002L48.5984 393.576C48.7302 393.344 48.9062 393.141 49.1164 392.978C49.3266 392.815 49.5669 392.695 49.8235 392.624C50.08 392.554 50.3479 392.535 50.6118 392.569C50.8757 392.602 51.1305 392.687 51.3615 392.819C51.5925 392.951 51.7954 393.127 51.9584 393.338C52.1214 393.548 52.2414 393.789 52.3116 394.046C52.3817 394.302 52.4006 394.571 52.3673 394.835C52.3339 395.099 52.2489 395.354 52.1171 395.585L47.8833 403.013C47.4496 403.774 47.1783 404.616 47.0867 405.487C46.9951 406.358 47.0852 407.239 47.3512 408.073C47.6172 408.908 48.0533 409.678 48.6321 410.335C49.2108 410.992 49.9194 411.521 50.7131 411.89L77.9659 424.544C79.3543 425.183 80.9263 425.298 82.3928 424.869C83.8593 424.44 85.1218 423.495 85.948 422.208L93.1068 411.001C93.2479 410.772 93.433 410.573 93.6514 410.417C93.8698 410.26 94.1171 410.149 94.3789 410.089C94.6408 410.029 94.9119 410.022 95.1766 410.068C95.4412 410.113 95.6941 410.212 95.9206 410.356C96.147 410.501 96.3425 410.689 96.4956 410.91C96.6487 411.131 96.7564 411.38 96.8124 411.643C96.8685 411.906 96.8717 412.178 96.8219 412.442C96.7722 412.706 96.6705 412.958 96.5227 413.182L89.3639 424.39C88.4218 425.86 87.1256 427.069 85.5945 427.906C84.0635 428.743 82.3467 429.181 80.6022 429.18Z" fill="#768BB1"/>
</g>
<defs>
<clipPath id="clip0_5426_52846">
<rect width="476" height="460" fill="white"/>
</clipPath>
</defs>
</svg>
