<svg width="476" height="460" viewBox="0 0 476 460" fill="none" xmlns="http://www.w3.org/2000/svg">
<g clip-path="url(#clip0_5430_48873)">
<path d="M470.894 446H5.10599C3.7518 446 2.45306 446.738 1.49551 448.05C0.537933 449.363 0 451.143 0 453C-0.00177002 453.92 0.129089 454.831 0.385071 455.682C0.641052 456.532 1.01706 457.305 1.49155 457.955C1.96603 458.606 2.52966 459.121 3.14993 459.472C3.77023 459.823 4.43497 460.002 5.10599 460H470.894C471.565 460.002 472.23 459.823 472.85 459.472C473.47 459.121 474.034 458.606 474.508 457.955C474.983 457.305 475.359 456.532 475.615 455.682C475.871 454.831 476.002 453.92 476 453C476 451.143 475.462 449.363 474.504 448.05C473.547 446.738 472.248 446 470.894 446Z" fill="#AEAAD6"/>
<path d="M49.0396 72.673V418.075C49.0306 418.49 49.1036 418.903 49.2545 419.291C49.4053 419.678 49.6311 420.031 49.9189 420.331C50.2066 420.63 50.5507 420.87 50.9314 421.037C51.312 421.203 51.7217 421.293 52.1371 421.3H256.647C259.236 421.3 261.333 419.118 261.333 416.424V72.673C261.333 72.0571 261.212 71.4473 260.976 70.8783C260.74 70.3094 260.394 69.7925 259.958 69.3573C259.523 68.922 259.005 68.577 258.436 68.3418C257.867 68.1067 257.257 67.986 256.641 67.9868H53.7259C53.1105 67.9868 52.5011 68.108 51.9325 68.3435C51.364 68.579 50.8474 68.9242 50.4122 69.3594C49.9771 69.7945 49.6319 70.3111 49.3964 70.8797C49.1609 71.4483 49.0396 72.0576 49.0396 72.673Z" fill="white"/>
<path d="M241.225 431.76L246.998 436.247L248.483 437.393V435.525L246.998 434.373L242.131 430.593C241.977 430.473 241.782 430.419 241.588 430.442C241.395 430.466 241.218 430.565 241.097 430.717C240.978 430.873 240.925 431.07 240.949 431.265C240.973 431.459 241.072 431.637 241.225 431.76Z" fill="white"/>
<path d="M25 432.689L25 56.601C25 49.0039 31.1586 42.8452 38.7557 42.8452L271.614 42.8452C279.211 42.8452 285.37 49.0039 285.37 56.601V432.689C285.37 440.286 279.211 446.445 271.614 446.445H38.7557C31.1586 446.445 25 440.286 25 432.689Z" fill="#463B56"/>
<path d="M35.3017 58.439V432.641C35.3017 433.101 35.3923 433.557 35.5685 433.982C35.7447 434.406 36.0029 434.792 36.3284 435.117C36.6539 435.442 37.0403 435.7 37.4654 435.875C37.8905 436.051 38.3461 436.141 38.806 436.14H269.776C270.47 436.141 271.158 436.005 271.799 435.739C272.441 435.474 273.024 435.085 273.515 434.594C274.007 434.104 274.396 433.521 274.662 432.88C274.928 432.238 275.065 431.551 275.065 430.857V58.439C275.065 57.7437 274.929 57.0551 274.663 56.4127C274.397 55.7703 274.007 55.1866 273.515 54.6951C273.023 54.2035 272.439 53.8138 271.796 53.5482C271.154 53.2825 270.465 53.1462 269.77 53.147H40.6026C39.198 53.1462 37.8506 53.7032 36.8566 54.6956C35.8625 55.6879 35.3033 57.0344 35.3017 58.439Z" fill="#E8E2FF"/>
<path d="M49.9869 69.8312C50.4236 69.2534 50.9888 68.7852 51.6378 68.4636C52.2867 68.142 53.0015 67.9757 53.7258 67.9781H256.623C257.347 67.9769 258.061 68.1436 258.709 68.4652C259.357 68.7868 259.922 69.2543 260.359 69.8312C260.996 70.6456 261.339 71.6512 261.333 72.685V416.424C261.34 417.513 260.986 418.573 260.326 419.438C259.899 420.014 259.344 420.482 258.704 420.805C258.064 421.128 257.357 421.297 256.641 421.297H52.131C51.5385 421.293 50.9598 421.117 50.4642 420.792C49.9687 420.467 49.5772 420.007 49.3365 419.465C49.1379 419.028 49.0366 418.553 49.0395 418.072V72.6702C49.0336 71.6453 49.3667 70.6472 49.9869 69.8312Z" fill="white"/>
<path d="M49.1109 72.67V92.4008H261.256V72.67C261.26 71.6384 260.919 70.6349 260.288 69.8191C259.848 69.2494 259.284 68.7882 258.639 68.471C257.993 68.1539 257.283 67.9892 256.564 67.9897H53.7912C53.1762 67.9894 52.5672 68.1101 51.9988 68.3451C51.4305 68.5801 50.9139 68.9247 50.4788 69.3593C50.0436 69.7939 49.6983 70.31 49.4626 70.8781C49.2269 71.4461 49.1054 72.055 49.105 72.67H49.1109Z" fill="#768BB1"/>
<path d="M64.3841 79.1885H65.8096V84.9972H64.3841V79.1885Z" fill="white"/>
<path d="M68.1912 80.8516H69.6167V84.9973H68.1912V80.8516Z" fill="white"/>
<path d="M60.6155 77.4541H62.041V84.9942H60.6155V77.4541Z" fill="white"/>
<path d="M56.9124 75.3906H58.3379V84.9947H56.9124V75.3906Z" fill="white"/>
<path d="M240.578 78.7373H249.249C249.94 78.7373 250.5 79.2971 250.5 79.9876V80.4003C250.5 81.0908 249.94 81.6506 249.249 81.6506H240.578C239.887 81.6506 239.327 81.0908 239.327 80.4003V79.9876C239.327 79.2971 239.887 78.7373 240.578 78.7373Z" fill="white"/>
<path d="M242.353 77.2051H252.207C252.897 77.2051 253.457 77.7648 253.457 78.4553V81.9358C253.457 82.6263 252.897 83.1861 252.207 83.1861H242.353C241.663 83.1861 241.103 82.6263 241.103 81.9358V78.4553C241.103 77.7648 241.663 77.2051 242.353 77.2051Z" fill="white"/>
<path d="M242.22 77.9263H246.514V82.461H242.22V77.9263Z" fill="#768BB1"/>
<path d="M95.2427 174.885C95.1844 183.567 96.8441 192.175 100.126 200.214C103.409 208.252 108.248 215.561 114.367 221.721C120.486 227.881 127.763 232.77 135.779 236.106C143.795 239.442 152.392 241.16 161.074 241.16C169.756 241.16 178.353 239.442 186.369 236.106C194.385 232.77 201.662 227.881 207.781 221.721C213.9 215.561 218.739 208.252 222.022 200.214C225.304 192.175 226.964 183.567 226.905 174.885C226.905 138.53 197.428 109.052 161.07 109.052C124.711 109.052 95.2427 138.53 95.2427 174.885Z" fill="#AEAAD6"/>
<path d="M89.3504 174.885C89.3487 181.517 90.3499 188.111 92.3202 194.444C93.0777 196.9 93.9862 199.307 95.0404 201.651C95.0391 201.654 95.0384 201.657 95.0384 201.66C95.0384 201.663 95.0391 201.666 95.0404 201.669C99.6188 211.921 106.736 220.836 115.719 227.571C116.473 228.139 117.238 228.688 118.014 229.216C118.403 229.48 118.798 229.745 119.202 230.003C119.52 230.217 119.844 230.422 120.167 230.624C122.074 231.825 124.042 232.928 126.062 233.926C128.085 234.922 130.158 235.814 132.272 236.599C132.866 236.816 133.442 237.021 134.054 237.222C134.888 237.519 135.732 237.775 136.584 238.024C137.84 238.393 139.105 238.731 140.391 239.025C141.739 239.322 143.099 239.601 144.477 239.83C146.683 240.193 148.907 240.44 151.138 240.572C152.475 240.655 153.823 240.697 155.183 240.697C156.603 240.697 158.01 240.652 159.406 240.56C160.048 240.519 160.686 240.474 161.316 240.415C163.549 240.209 165.77 239.888 167.971 239.453C168.63 239.325 169.283 239.188 169.931 239.037C170.578 238.886 171.157 238.74 171.763 238.589C174.568 237.871 177.321 236.965 180.004 235.877C180.598 235.634 181.192 235.387 181.759 235.129C183.343 234.428 184.898 233.664 186.425 232.836C187.316 232.367 188.174 231.865 189.035 231.351H189.059C189.76 230.921 190.455 230.484 191.138 230.036C204.652 221.213 214.459 207.738 218.7 192.166C218.711 192.145 218.718 192.122 218.717 192.098C220.024 187.263 220.771 182.295 220.945 177.291C220.98 176.495 220.992 175.705 220.992 174.915C220.993 172.176 220.823 169.439 220.484 166.721C217.14 139.777 197.502 117.878 171.748 111.188C170.257 110.802 168.746 110.468 167.214 110.187C166.501 110.053 165.788 109.928 165.063 109.822C163.596 109.599 162.094 109.43 160.609 109.311C158.813 109.156 156.995 109.079 155.153 109.079C154.619 109.079 154.075 109.079 153.541 109.103C152.638 109.121 151.739 109.162 150.844 109.228C150.384 109.251 149.924 109.281 149.472 109.329C148.31 109.424 147.157 109.553 146.013 109.718C145.377 109.798 144.742 109.893 144.112 110.015C113.037 115.229 89.3504 142.292 89.3504 174.885Z" fill="#E8E2FF"/>
<path d="M155.183 300.228C143.414 300.228 133.873 290.446 133.873 278.379C133.873 266.313 143.414 256.531 155.183 256.531C166.953 256.531 176.494 266.313 176.494 278.379C176.494 290.446 166.953 300.228 155.183 300.228Z" fill="#E8E2FF"/>
<path d="M149.954 267.576V276.912C149.954 278.299 150.505 279.63 151.485 280.61C152.466 281.591 153.796 282.142 155.183 282.142C156.57 282.142 157.901 281.591 158.881 280.61C159.862 279.63 160.413 278.299 160.413 276.912V276.262H155.593C155.538 276.263 155.484 276.254 155.432 276.233C155.381 276.213 155.335 276.182 155.296 276.143C155.238 276.086 155.198 276.012 155.183 275.931C155.167 275.851 155.175 275.768 155.207 275.692C155.239 275.617 155.293 275.553 155.362 275.508C155.431 275.464 155.511 275.441 155.593 275.442H160.404V273.851H155.584C155.529 273.852 155.474 273.842 155.423 273.821C155.372 273.8 155.326 273.769 155.287 273.729C155.248 273.69 155.216 273.644 155.195 273.593C155.174 273.542 155.164 273.487 155.166 273.432C155.165 273.378 155.176 273.324 155.196 273.274C155.216 273.224 155.246 273.179 155.285 273.14C155.323 273.102 155.368 273.071 155.418 273.051C155.468 273.03 155.521 273.019 155.575 273.019H160.404V271.436H155.584C155.476 271.435 155.372 271.391 155.295 271.313C155.219 271.236 155.175 271.132 155.174 271.023C155.174 270.97 155.185 270.916 155.206 270.867C155.226 270.817 155.256 270.772 155.295 270.734C155.333 270.696 155.378 270.665 155.427 270.645C155.477 270.624 155.531 270.614 155.584 270.614H160.404V269.031H155.584C155.529 269.032 155.474 269.021 155.423 269C155.372 268.979 155.326 268.948 155.287 268.909C155.229 268.851 155.19 268.777 155.174 268.697C155.158 268.617 155.166 268.533 155.198 268.458C155.23 268.383 155.284 268.318 155.353 268.274C155.422 268.229 155.502 268.206 155.584 268.208H160.404V267.561C160.404 266.174 159.853 264.844 158.872 263.863C157.892 262.882 156.561 262.331 155.174 262.331C153.787 262.331 152.457 262.882 151.477 263.863C150.496 264.844 149.945 266.174 149.945 267.561L149.954 267.576Z" fill="white"/>
<path d="M155.169 286.324C157.453 286.324 159.643 285.416 161.258 283.801C162.873 282.186 163.781 279.996 163.781 277.712L163.81 275.487C163.812 275.384 163.793 275.282 163.755 275.186C163.717 275.091 163.661 275.003 163.589 274.929C163.518 274.856 163.432 274.796 163.337 274.756C163.243 274.715 163.141 274.693 163.038 274.691C162.832 274.691 162.635 274.772 162.488 274.917C162.341 275.061 162.257 275.258 162.254 275.464L162.222 277.703C162.222 278.626 162.04 279.54 161.687 280.393C161.333 281.246 160.816 282.02 160.163 282.673C159.51 283.326 158.735 283.844 157.882 284.197C157.029 284.55 156.115 284.732 155.192 284.732C154.269 284.732 153.355 284.55 152.502 284.197C151.649 283.844 150.875 283.326 150.222 282.673C149.569 282.02 149.051 281.246 148.698 280.393C148.345 279.54 148.163 278.626 148.163 277.703L148.193 275.654C148.194 275.551 148.176 275.448 148.138 275.353C148.1 275.257 148.043 275.17 147.972 275.096C147.9 275.022 147.814 274.963 147.72 274.922C147.625 274.881 147.524 274.859 147.421 274.858C147.214 274.857 147.016 274.938 146.868 275.082C146.721 275.227 146.637 275.423 146.634 275.63L146.604 277.709C146.603 279.985 147.504 282.169 149.108 283.784C150.713 285.398 152.892 286.311 155.169 286.324Z" fill="white"/>
<path d="M154.298 285.534H156.071V292.818H154.298V285.534Z" fill="white"/>
<path d="M158.402 292.212H151.967C151.383 292.212 150.822 292.445 150.409 292.858C149.996 293.271 149.764 293.832 149.764 294.416H160.609C160.609 294.126 160.552 293.84 160.441 293.572C160.33 293.304 160.167 293.061 159.962 292.857C159.758 292.652 159.514 292.49 159.247 292.379C158.979 292.269 158.692 292.212 158.402 292.212Z" fill="white"/>
<path d="M219.463 300.228C207.693 300.228 198.152 290.446 198.152 278.379C198.152 266.313 207.693 256.531 219.463 256.531C231.232 256.531 240.773 266.313 240.773 278.379C240.773 290.446 231.232 300.228 219.463 300.228Z" fill="#E8E2FF"/>
<path d="M208.977 273.961C214.322 271.615 224.033 271.525 229.949 273.961C233.513 275.422 235.912 277.307 235.888 280.631C235.865 283.954 234.62 284.367 232.559 284.557C230.498 284.747 229.293 284.188 228.66 283.704C227.472 282.781 227.437 278.994 226.941 278.219C226.445 277.444 225.866 277.272 223.79 276.77C223.389 276.679 222.98 276.625 222.569 276.61C221.619 276.559 217.289 276.559 216.333 276.61C215.921 276.625 215.511 276.679 215.109 276.77C213.031 277.272 212.454 277.447 211.958 278.219C211.463 278.991 211.415 282.781 210.239 283.704C209.618 284.188 208.401 284.747 206.34 284.557C204.279 284.367 203.026 283.963 203.011 280.631C202.996 277.299 205.461 275.505 208.977 273.961Z" fill="white"/>
<path d="M90.9036 300.228C79.1341 300.228 69.5929 290.446 69.5929 278.379C69.5929 266.313 79.1341 256.531 90.9036 256.531C102.673 256.531 112.214 266.313 112.214 278.379C112.214 290.446 102.673 300.228 90.9036 300.228Z" fill="#768BB1"/>
<path d="M82.0364 276.821H89.3864V269.286C89.3852 268.877 89.5452 268.483 89.8319 268.191C89.971 268.047 90.1377 267.933 90.3219 267.856C90.5061 267.778 90.7041 267.738 90.9039 267.739C91.1048 267.742 91.3032 267.783 91.4879 267.862C91.6725 267.942 91.8398 268.056 91.9802 268.2C92.1206 268.343 92.2313 268.513 92.306 268.7C92.3807 268.886 92.4179 269.086 92.4156 269.286V276.821H99.7656C99.995 276.82 100.222 276.872 100.428 276.972C100.687 277.103 100.904 277.304 101.055 277.551C101.206 277.799 101.285 278.084 101.283 278.374C101.286 278.677 101.2 278.974 101.036 279.229C100.872 279.484 100.637 279.685 100.36 279.808C100.172 279.889 99.9699 279.931 99.7656 279.93H92.4156V287.464C92.4162 287.874 92.2587 288.269 91.976 288.566C91.8369 288.709 91.6702 288.823 91.486 288.901C91.3018 288.979 91.1038 289.018 90.9039 289.017C90.497 289.012 90.1088 288.845 89.8244 288.554C89.5399 288.263 89.3825 287.871 89.3864 287.464V279.93H82.0364C81.8367 279.93 81.6391 279.889 81.455 279.812C81.2709 279.735 81.1041 279.621 80.9643 279.479C80.6822 279.18 80.5249 278.785 80.5248 278.374C80.52 277.968 80.6764 277.576 80.9597 277.285C81.2431 276.994 81.6302 276.827 82.0364 276.821Z" fill="white"/>
<path d="M69.593 325.209H237.358V398.065H69.593V325.209Z" fill="#E8E2FF"/>
<path d="M69.5929 325.209H153.476V398.065H69.5929V325.209Z" fill="#768BB1"/>
<path d="M216.425 382.174C218.172 382.174 219.88 381.656 221.333 380.685C222.786 379.715 223.918 378.335 224.587 376.721C225.256 375.107 225.431 373.331 225.09 371.617C224.75 369.903 223.908 368.329 222.673 367.093C221.438 365.857 219.864 365.016 218.15 364.675C216.437 364.333 214.66 364.508 213.046 365.176C211.432 365.844 210.051 366.976 209.08 368.429C208.109 369.881 207.591 371.589 207.59 373.336C207.592 375.679 208.523 377.926 210.179 379.583C211.836 381.24 214.082 382.172 216.425 382.174ZM216.425 367.447C217.59 367.447 218.73 367.792 219.699 368.439C220.669 369.086 221.424 370.006 221.871 371.083C222.317 372.16 222.434 373.345 222.207 374.488C221.979 375.631 221.418 376.681 220.594 377.506C219.77 378.33 218.72 378.891 217.577 379.118C216.433 379.345 215.248 379.228 214.172 378.782C213.095 378.336 212.175 377.58 211.528 376.611C210.88 375.641 210.535 374.502 210.536 373.336C210.538 371.775 211.159 370.279 212.263 369.175C213.367 368.071 214.864 367.45 216.425 367.447Z" fill="#768BB1"/>
<path d="M210.955 379.751L216.425 391.389L221.898 379.751H210.955Z" fill="#768BB1"/>
<path d="M164.401 374.343H199.313V377.194H164.401V374.343Z" fill="white"/>
<path d="M181.302 378.697H199.313V381.548H181.302V378.697Z" fill="white"/>
<path d="M164.401 338.181H199.313V341.032H164.401V338.181Z" fill="white"/>
<path d="M181.302 342.535H199.313V345.386H181.302V342.535Z" fill="white"/>
<path d="M216.425 351.675C216.695 351.675 216.959 351.675 217.221 351.643C219.565 351.464 221.769 350.452 223.432 348.79C225.095 347.127 226.108 344.924 226.287 342.579C226.308 342.318 226.317 342.051 226.317 341.783C226.317 341.516 226.317 341.249 226.287 340.984C226.108 338.64 225.095 336.436 223.432 334.774C221.769 333.111 219.565 332.099 217.221 331.921C216.691 331.879 216.159 331.879 215.629 331.921C213.284 332.099 211.081 333.111 209.419 334.774C207.756 336.437 206.744 338.64 206.565 340.984C206.545 341.249 206.533 341.513 206.533 341.783C206.533 342.054 206.533 342.318 206.565 342.579C206.741 344.928 207.753 347.136 209.419 348.802C211.084 350.468 213.292 351.481 215.641 351.658C215.893 351.658 216.157 351.675 216.425 351.675ZM216.425 333.617C216.647 333.617 216.867 333.617 217.084 333.64C219.02 333.788 220.839 334.624 222.211 335.997C223.584 337.369 224.42 339.188 224.568 341.124C224.583 341.341 224.591 341.561 224.591 341.783C224.591 342.006 224.591 342.223 224.568 342.443C224.419 344.378 223.583 346.196 222.211 347.568C220.838 348.94 219.019 349.776 217.084 349.923C216.645 349.956 216.204 349.956 215.765 349.923C213.832 349.776 212.015 348.942 210.643 347.571C209.271 346.201 208.434 344.385 208.285 342.451C208.267 342.232 208.258 342.015 208.258 341.792C208.258 341.569 208.258 341.35 208.285 341.133C208.432 339.197 209.267 337.379 210.639 336.006C212.011 334.633 213.83 333.797 215.765 333.649C215.982 333.625 216.202 333.617 216.425 333.617Z" fill="#768BB1"/>
<path d="M215.697 332.782V334.563C215.697 334.756 215.774 334.942 215.91 335.078C216.047 335.214 216.232 335.291 216.425 335.291C216.618 335.291 216.803 335.214 216.939 335.078C217.076 334.942 217.152 334.756 217.152 334.563V332.782C216.912 332.761 216.671 332.752 216.425 332.752C216.178 332.752 215.938 332.761 215.697 332.782Z" fill="#768BB1"/>
<path d="M215.697 348.984V350.766C215.938 350.787 216.181 350.796 216.425 350.796C216.668 350.796 216.912 350.796 217.152 350.766V348.984C217.152 348.791 217.076 348.606 216.939 348.47C216.803 348.333 216.618 348.257 216.425 348.257C216.232 348.257 216.047 348.333 215.91 348.47C215.774 348.606 215.697 348.791 215.697 348.984Z" fill="#768BB1"/>
<path d="M207.397 341.783C207.397 342.027 207.397 342.27 207.423 342.511H209.223C209.416 342.511 209.601 342.434 209.738 342.298C209.874 342.161 209.951 341.976 209.951 341.783C209.951 341.59 209.874 341.405 209.738 341.269C209.601 341.132 209.416 341.056 209.223 341.056H207.423C207.406 341.293 207.397 341.537 207.397 341.783Z" fill="#768BB1"/>
<path d="M222.902 341.783C222.901 341.976 222.977 342.16 223.112 342.297C223.25 342.433 223.436 342.51 223.629 342.511H225.426C225.447 342.27 225.456 342.027 225.456 341.783C225.456 341.54 225.456 341.293 225.426 341.056H223.629C223.534 341.055 223.439 341.074 223.35 341.11C223.262 341.147 223.181 341.2 223.114 341.268C223.046 341.336 222.993 341.416 222.956 341.504C222.92 341.593 222.901 341.688 222.902 341.783Z" fill="#768BB1"/>
<path d="M215.344 341.783C215.344 341.994 215.406 342.201 215.524 342.377C215.641 342.553 215.808 342.69 216.004 342.771C216.199 342.852 216.414 342.873 216.621 342.832C216.829 342.79 217.019 342.688 217.169 342.539C217.318 342.389 217.42 342.199 217.461 341.992C217.503 341.784 217.481 341.569 217.401 341.374C217.32 341.178 217.183 341.012 217.007 340.894C216.831 340.777 216.624 340.714 216.413 340.714C216.129 340.714 215.857 340.827 215.657 341.027C215.456 341.228 215.344 341.499 215.344 341.783Z" fill="#768BB1"/>
<path d="M216.425 336.672C216.571 336.672 216.711 336.73 216.814 336.833C216.917 336.936 216.975 337.076 216.975 337.222V341.115C216.975 341.261 216.917 341.4 216.814 341.504C216.711 341.607 216.571 341.664 216.425 341.664C216.28 341.664 216.14 341.607 216.037 341.504C215.934 341.4 215.876 341.261 215.876 341.115V337.222C215.876 337.076 215.934 336.936 216.037 336.833C216.14 336.73 216.28 336.672 216.425 336.672Z" fill="#768BB1"/>
<path d="M210.447 341.783C210.447 341.638 210.504 341.498 210.608 341.395C210.711 341.292 210.85 341.234 210.996 341.234H215.816C215.962 341.234 216.101 341.292 216.204 341.395C216.307 341.498 216.365 341.638 216.365 341.783C216.365 341.929 216.307 342.069 216.204 342.172C216.101 342.275 215.962 342.333 215.816 342.333H210.996C210.85 342.333 210.711 342.275 210.608 342.172C210.504 342.069 210.447 341.929 210.447 341.783Z" fill="#768BB1"/>
<path d="M94.7188 378.455C85.4315 369.167 85.4315 354.11 94.7188 344.823C104.006 335.535 119.064 335.535 128.351 344.823C137.638 354.11 137.638 369.167 128.351 378.455C119.064 387.742 104.006 387.742 94.7188 378.455Z" fill="white"/>
<path d="M99.3587 360.617L109.165 368.725L135.839 338L140.284 341.792L109.426 378.008L95.5664 365.197L99.3587 360.617Z" fill="#41B883"/>
<g filter="url(#filter0_d_5430_48873)">
<path d="M244.2 29.4507L204.436 52.4096L244.2 75.3685V29.4507Z" fill="#AEAAD6"/>
<path d="M244.2 20.6069H119.686V59.3618H244.2V20.6069Z" fill="#AEAAD6"/>
<path d="M231.252 38.3745H132.633V41.2848H231.252V38.3745Z" fill="white"/>
<path d="M184.684 47.6226H132.633V50.5329H184.684V47.6226Z" fill="white"/>
<path d="M231.252 29.4355H132.633V32.3459H231.252V29.4355Z" fill="white"/>
</g>
<g filter="url(#filter1_dddd_5430_48873)">
<path d="M70.5664 12.8765L113.443 37.632L70.5664 62.3847V12.8765Z" fill="#FAFAFF"/>
<path d="M204.824 4H70.5664V45.7899H204.824V4Z" fill="#FAFAFF"/>
<path d="M190.463 23.1606H130.222V26.2937H190.463V23.1606Z" fill="#AEAAD6"/>
<path d="M162.016 33.1211H130.222V36.2541H162.016V33.1211Z" fill="#AEAAD6"/>
<path d="M190.463 13.5356H130.222V16.6687H190.463V13.5356Z" fill="#AEAAD6"/>
<path d="M84.9248 13.5356V36.254H123.255V13.5356H84.9248ZM104.109 25.8897L88.239 15.5224H120.015L104.109 25.8897ZM86.9175 34.2613V15.7689L104.053 29.1326L121.277 15.8223V34.2673L86.9175 34.2613Z" fill="#AEAAD6"/>
</g>
<path d="M300.057 109.472L301.946 108.558C298.382 101.193 290.031 96.2691 280.683 96.0107C273.312 95.8088 266.428 98.4667 261.771 103.304L263.289 104.76C267.521 100.347 273.843 97.9292 280.623 98.1103C289.197 98.3479 296.826 102.808 300.057 109.472Z" fill="#FC1264"/>
<path d="M295.296 106.877L300.318 107.581L304.312 104.454L302.673 116.35L295.296 106.877Z" fill="#FC1264"/>
<path d="M291.231 117.223L292.947 116.009C289.072 110.535 282.648 106.889 275.325 105.998C266.039 104.869 257.055 108.504 252.437 115.257L254.172 116.445C258.353 110.331 266.552 107.049 275.07 108.083C281.808 108.902 287.7 112.234 291.231 117.223Z" fill="#FC1264"/>
<path d="M250.703 110.85L254.192 114.533L259.262 114.58L250.566 122.86L250.703 110.85Z" fill="#FC1264"/>
<path d="M343.762 105.853H338.072V-61.4316H343.762V105.853Z" fill="#615370"/>
<path d="M364.245 105.853H359.693V-61.4316H364.245V105.853Z" fill="#615370"/>
<path d="M341.018 114.236C337.593 114.236 334.816 111.459 334.816 108.034C334.816 104.609 337.593 101.833 341.018 101.833C344.443 101.833 347.219 104.609 347.219 108.034C347.219 111.459 344.443 114.236 341.018 114.236Z" fill="#524660"/>
<path d="M361.981 114.236C358.556 114.236 355.779 111.459 355.779 108.034C355.779 104.609 358.556 101.833 361.981 101.833C365.406 101.833 368.182 104.609 368.182 108.034C368.182 111.459 365.406 114.236 361.981 114.236Z" fill="#524660"/>
<path d="M344.908 180.011H358.091V207.162H344.908V180.011Z" fill="#524660"/>
<path d="M340.633 213.488C343.698 212.322 344.141 208.841 344.191 207.435V206.837H360.943C361.733 206.828 362.497 207.123 363.076 207.66C363.656 208.196 364.008 208.935 364.059 209.723C364.079 210.134 364.014 210.545 363.87 210.931C363.726 211.316 363.505 211.669 363.22 211.966C362.936 212.264 362.594 212.501 362.215 212.662C361.837 212.824 361.429 212.907 361.018 212.907C360.063 213.051 359.175 213.484 358.473 214.147C357.371 215.266 357.016 216.807 356.76 217.506C356.368 218.584 354.85 222.204 352.599 224.066C350.349 225.928 343.691 230.825 343.691 230.825L343.752 230.869C342.566 231.956 341.633 233.291 341.02 234.778C340.407 236.266 340.13 237.871 340.206 239.478C340.283 241.085 340.713 242.656 341.465 244.078C342.216 245.501 343.272 246.741 344.557 247.71C345.841 248.678 347.323 249.353 348.898 249.685C350.472 250.017 352.1 249.998 353.667 249.631C355.233 249.263 356.7 248.555 357.962 247.557C359.224 246.559 360.251 245.296 360.97 243.856L361.018 243.893C361.802 242.602 363.431 240.213 365.178 237.405C366.838 234.721 368.84 232.263 371.133 230.095C371.937 229.341 372.64 228.743 373.184 228.3C373.514 227.917 373.92 227.606 374.377 227.388C375.067 227.061 375.842 226.961 376.592 227.102C377.342 227.242 378.028 227.616 378.553 228.17C379.078 228.724 379.414 229.43 379.514 230.187C379.614 230.943 379.472 231.712 379.108 232.383L379.216 232.288C379.216 232.288 379.162 232.342 379.074 232.444C378.937 232.687 378.773 232.914 378.584 233.119C377.857 234.267 377.578 235.642 377.8 236.982C377.868 237.398 377.932 237.81 377.969 238.229C378.054 239.169 378.179 240.757 378.179 241.758C378.179 257.942 364.881 271.061 348.48 271.061C332.079 271.061 318.784 257.942 318.784 241.758C318.801 228.253 328.051 216.888 340.633 213.488Z" fill="#524660"/>
<path d="M315.766 128.714L322.224 147.427L328.274 164.953L334.955 184.321H368.044L369.382 180.438V180.434L372.359 171.816L375.911 161.519L378.885 152.901L382.876 141.337L385.85 132.719L387.232 128.714L368.044 107.994V107.961H368.013L360.764 107.954L351.825 107.947H349.051L334.955 107.937L334.184 108.772L328.601 114.818L321.934 122.036L316.347 128.086L315.766 128.714Z" fill="#615370"/>
<path d="M349.051 107.947L351.826 110.684L382.877 141.336L385.851 132.719L360.765 107.954L351.826 107.947H349.051Z" fill="#E8E2FF"/>
<path d="M328.602 114.817L347.237 133.208L351.826 137.743L353.195 139.092L375.912 161.518L378.886 152.901L351.826 126.189L334.185 108.771L328.602 114.817Z" fill="#E8E2FF"/>
<path d="M316.347 128.084L351.826 163.106L369.382 180.433L372.359 171.815L351.826 151.548L321.934 122.035L316.347 128.084Z" fill="#E8E2FF"/>
<path d="M322.224 147.426L328.274 164.952L344.911 181.376L347.892 184.32H359.598L358.091 182.833L355.232 180.011L352.028 176.848L351.825 176.648L346.955 171.839L322.224 147.426Z" fill="#E8E2FF"/>
<path d="M351.501 139.416C348.978 139.416 346.932 137.37 346.932 134.847C346.932 132.323 348.978 130.278 351.501 130.278C354.025 130.278 356.07 132.323 356.07 134.847C356.07 137.37 354.025 139.416 351.501 139.416Z" fill="#FC1264"/>
<path d="M348.272 175.543C346.488 173.758 346.488 170.866 348.272 169.081C350.056 167.297 352.949 167.297 354.734 169.081C356.518 170.866 356.518 173.759 354.734 175.543C352.949 177.327 350.056 177.327 348.272 175.543Z" fill="#FC1264"/>
<g style="mix-blend-mode:multiply" opacity="0.5">
<g style="mix-blend-mode:multiply">
<path d="M315.766 128.714L322.225 147.427L328.274 164.953L334.955 184.321H344.911V207.163H351.826V107.947H349.051L334.955 107.937L334.185 108.772L328.602 114.818L321.934 122.036L316.348 128.086L315.766 128.714Z" fill="#AEAAD6"/>
</g>
</g>
<path d="M444.907 296.519L447.793 290.463L351.538 244.604L343.066 246.013L344.167 252.63L350.558 251.565L444.907 296.519Z" fill="#41374F"/>
<path d="M325.075 256.774L327.986 262.817L258.132 296.466L255.221 290.422L325.075 256.774Z" fill="#41374F"/>
<path d="M255 286.066H448V447.144H255V286.066Z" fill="#FFC692"/>
<path d="M397.574 286.066H448V447.144H397.574V286.066Z" fill="#D39059"/>
<path d="M404.987 292.846L444.717 439.481L441.762 440.282L402.032 293.646L404.987 292.846Z" fill="#B2805F"/>
<path d="M440.639 292.94L443.595 293.741L403.865 440.376L400.909 439.576L440.639 292.94Z" fill="#B2805F"/>
<path d="M290.4 434.335H261.556V429.702H290.4V434.335Z" fill="#B2805F"/>
<path d="M267.605 411.402H270.907V428.134H267.605V411.402Z" fill="#B2805F"/>
<path d="M264.32 412.865L269.258 404.217L274.195 412.865H264.32Z" fill="#B2805F"/>
<path d="M281.049 411.402H284.351V428.134H281.049V411.402Z" fill="#B2805F"/>
<path d="M277.764 412.865L282.701 404.217L287.639 412.865H277.764Z" fill="#B2805F"/>
<path d="M330.349 413.896C334.192 411.946 339.325 413.876 339.325 413.876C340.423 413.401 341.604 413.149 342.799 413.134C343.995 413.119 345.181 413.341 346.291 413.788C346.291 413.788 343.661 406.127 330.349 405.238C317.041 406.127 314.412 413.788 314.412 413.788C315.521 413.341 316.707 413.119 317.903 413.134C319.099 413.149 320.279 413.401 321.377 413.876C321.377 413.876 326.507 411.946 330.349 413.896Z" fill="#B2805F"/>
<path d="M330.691 432.778H329.9V404.606C329.9 404.504 329.94 404.407 330.012 404.335C330.083 404.263 330.18 404.222 330.282 404.221H330.387C330.488 404.222 330.585 404.263 330.657 404.335C330.728 404.407 330.769 404.504 330.769 404.606V432.487L330.691 432.778Z" fill="#B2805F"/>
<path d="M330.769 430.895V432.321C330.768 432.475 330.742 432.628 330.691 432.774C330.543 433.223 330.259 433.614 329.878 433.894C329.497 434.173 329.038 434.326 328.565 434.332H328.464C327.891 434.338 327.337 434.131 326.909 433.75C326.573 433.444 326.338 433.044 326.233 432.601C326.217 432.533 326.216 432.461 326.232 432.392C326.247 432.323 326.278 432.259 326.322 432.203C326.366 432.148 326.422 432.103 326.485 432.073C326.549 432.042 326.619 432.027 326.69 432.027C326.788 432.029 326.884 432.063 326.962 432.124C327.04 432.185 327.096 432.269 327.122 432.365C327.193 432.657 327.359 432.917 327.594 433.104C327.829 433.292 328.119 433.395 328.42 433.399H328.568C328.918 433.393 329.252 433.251 329.5 433.004C329.747 432.757 329.89 432.424 329.897 432.074V431.3V430.871L330.769 430.895Z" fill="#B2805F"/>
<path d="M376.99 418.969C379.569 418.969 382.043 417.944 383.867 416.12C385.691 414.296 386.716 411.822 386.716 409.243V404.217H367.273V409.243C367.273 411.82 368.297 414.293 370.119 416.116C371.94 417.94 374.412 418.966 376.99 418.969Z" fill="#B2805F"/>
<path d="M378.193 432.216H375.79V414.913H378.193V432.216Z" fill="#B2805F"/>
<path d="M381.819 434.339H372.167C371.458 434.339 370.883 433.764 370.883 433.055V433.041C370.883 432.332 371.458 431.757 372.167 431.757H381.819C382.528 431.757 383.103 432.332 383.103 433.041V433.055C383.103 433.764 382.528 434.339 381.819 434.339Z" fill="#B2805F"/>
<path d="M316.993 286.066H328.342V296.425H316.993V286.066Z" fill="#B2805F"/>
<path d="M378.108 306.509H354.989V295.333H378.108V306.509Z" fill="#B2805F"/>
<path d="M169.975 129.495C170.635 129.86 171.208 130.364 171.654 130.972C172.101 131.58 172.409 132.278 172.559 133.017C172.709 133.757 172.696 134.52 172.522 135.253C172.347 135.987 172.015 136.674 171.549 137.267L171.436 137.41C168.894 140.564 163.058 145.131 151.2 141.707C147.758 140.746 144.531 139.133 141.697 136.955C141.021 136.44 140.481 135.767 140.126 134.995C139.771 134.222 139.611 133.374 139.661 132.525C139.711 131.676 139.969 130.853 140.412 130.127C140.855 129.402 141.47 128.796 142.202 128.364C143.61 127.512 144.738 126.407 145.13 125.243C145.795 123.265 145.783 110.691 145.365 104.318C145.225 102.174 144.86 97.8828 144.86 97.8828L164.689 108.354C164.689 108.354 164.513 113.625 164.439 117.899C164.398 120.432 164.466 122.609 164.481 123.146C164.564 125.771 167.335 127.978 169.975 129.495Z" fill="#FCAF9D"/>
<path d="M165.123 114.903C165.123 114.903 164.7 120.293 164.623 124.5C163.267 124.939 162.063 125.084 160.562 124.982C149.755 124.251 145.123 107 145.123 107L165.123 114.903Z" fill="#D47C74"/>
<path d="M187.318 216.494C187.404 217.937 187.16 224.785 178.409 225.204C175.866 225.326 172.867 225.48 169.586 225.625L152.851 226.427C148.212 226.635 143.597 226.855 139.366 227.057C137.106 227.161 134.959 227.262 132.972 227.354C126.198 227.651 120.843 225.317 121.057 221.483C121.651 211.023 123.596 133.006 123.62 133.006C124.615 132.641 130.483 130.743 135.701 129.08C138.671 128.136 141.412 127.256 142.935 126.761C143.559 126.565 143.978 126.431 144.123 126.38L144.717 126.196L144.768 126.232L144.993 126.401C147.761 128.575 150.591 129.882 153.451 130.321C154.335 130.457 155.23 130.511 156.124 130.482C157.1 130.456 158.071 130.327 159.019 130.096C159.714 129.942 160.396 129.735 161.059 129.478C162.64 128.864 164.137 128.053 165.514 127.063C165.758 126.885 166.001 126.707 166.245 126.517L170.266 127.592L178.842 129.894L186.091 131.824C186.168 131.375 185.316 170.481 185.708 178.392C185.711 178.754 187.3 216.185 187.318 216.494Z" fill="#342A98"/>
<path d="M187.948 158.346C188.132 160.09 188.325 161.83 188.524 163.538C188.972 167.217 188.752 170.962 189.952 173.893C190.077 174.19 196.417 181.002 196.417 181.002C196.417 181.002 198.119 182.749 200.575 184.863C200.72 184.997 200.872 185.127 201.038 185.261L201.13 185.344C201.766 185.864 202.449 186.416 203.159 186.96C204.974 188.375 206.924 189.611 208.979 190.648C210.014 191.176 211.112 191.569 212.246 191.818C213.706 192.116 215.193 192.258 216.683 192.243C217.497 192.239 218.31 192.177 219.115 192.056L219.349 191.949C221.033 191.163 222.649 190.239 224.181 189.187C223.421 185.971 219.872 174.567 217.963 171.018C217.936 170.977 217.52 170.409 216.81 169.444L215.982 168.331C215.388 167.508 214.639 166.525 213.802 165.42C207.233 156.669 194.576 140.154 188.619 134.039C187.214 132.554 186.629 145.713 187.948 158.346Z" fill="#FCAF9D"/>
<path d="M260.898 151.291L260.557 151.733C260.26 152.098 259.812 152.678 259.212 153.438C259.167 153.485 259.123 153.542 259.069 153.61C256.331 157.04 250.855 163.793 244.776 170.537C242.483 173.1 240.09 175.708 237.648 178.238C233.066 182.434 228.401 186.336 224.374 189.054L224.32 189.089C224.286 189.119 224.249 189.146 224.211 189.169C222.678 190.222 221.062 191.147 219.379 191.934C218.138 192.15 216.874 192.206 215.619 192.104C214.138 191.972 212.675 191.68 211.257 191.233C210.147 190.868 209.089 190.364 208.106 189.734C208.017 189.37 207.95 189.001 207.907 188.629C207.856 188.332 207.827 188.002 207.8 187.679C207.77 187.287 207.752 186.895 207.755 186.515C207.75 184.39 208.153 182.283 208.943 180.311C209.136 179.848 209.329 179.387 209.555 178.912C209.781 178.437 209.977 177.997 210.226 177.555C210.476 177.059 210.746 176.56 211.04 176.07C211.289 175.651 211.571 175.221 211.845 174.79C212.052 174.493 212.257 174.196 212.477 173.938C212.656 173.674 212.855 173.424 213.071 173.189C213.215 172.981 213.373 172.782 213.543 172.595C214.273 171.796 215.043 171.033 215.851 170.312C215.886 170.288 215.907 170.267 215.94 170.243C216.115 170.071 216.314 169.902 216.501 169.73C216.623 169.626 216.733 169.525 216.855 169.409L217.529 168.836C218.298 168.162 219.147 167.452 220.053 166.698C220.119 166.637 220.189 166.579 220.261 166.525C220.46 166.377 220.647 166.228 220.855 166.044C222.586 164.613 224.552 163.075 226.571 161.459C226.628 161.432 226.68 161.397 226.726 161.355C235.98 154.109 246.985 146.091 250.187 143.768C250.418 143.587 250.617 143.448 250.76 143.344C250.938 143.219 251.057 143.127 251.092 143.115C251.128 143.103 251.092 143.091 251.092 143.091L251.161 143.148L257.857 148.734L260.898 151.291Z" fill="#FCAF9D"/>
<path d="M187.948 158.347C188.132 160.09 188.325 161.83 188.524 163.538C188.972 167.217 188.752 170.962 189.952 173.893C190.077 174.19 196.417 181.003 196.417 181.003C196.417 181.003 198.119 182.749 200.575 184.863L216 168.331C215.406 167.508 214.657 166.525 213.82 165.421C207.251 156.669 194.594 140.154 188.637 134.04L187.948 158.347Z" fill="#D47C74"/>
<path d="M186.053 131.809C188.556 132.948 190.755 134.664 192.467 136.816C194.653 139.551 215.88 164.354 215.88 164.354L195.033 186.698L184.407 177.195L186.053 131.809Z" fill="#342A98"/>
<path d="M117.577 229.234C117.966 229.498 118.361 229.763 118.765 230.021C119.082 230.235 119.406 230.44 119.73 230.642C121.637 231.843 123.604 232.946 125.625 233.944C127.648 234.939 129.721 235.832 131.834 236.617C132.428 236.833 133.005 237.038 133.616 237.24C134.451 237.537 135.294 237.793 136.146 238.042C137.403 238.41 138.668 238.749 139.954 239.043C141.302 239.34 142.662 239.619 144.04 239.848C146.246 240.21 148.469 240.458 150.701 240.59C152.037 240.673 153.386 240.715 154.746 240.715C156.165 240.715 157.573 240.669 158.969 240.578C159.61 240.537 160.249 240.492 160.878 240.433C163.112 240.227 165.333 239.905 167.533 239.471C168.193 239.343 168.846 239.206 169.493 239.055C170.141 238.903 170.72 238.758 171.326 238.606C174.129 237.882 176.88 236.971 179.561 235.877C180.155 235.634 180.749 235.387 181.316 235.129C182.9 234.428 184.455 233.664 185.981 232.836C186.872 232.367 187.73 231.865 188.592 231.351L188.737 232.789L188.779 233.163L188.743 232.789L188.615 231.334L188.191 226.555L188.048 224.972L187.751 221.75L187.576 219.737H187.229H186.822L186.189 219.755L177.102 219.96H177.045L154.63 220.491H154.098L136.954 220.889H136.919L129.456 221.067L125.663 221.162L121.051 221.266L119.368 221.314L118.402 221.332L117.889 226.226L117.577 229.234Z" fill="#B6C6E4"/>
<path d="M168.689 233.166L167.521 239.491C168.181 239.364 168.834 239.227 169.482 239.076L170.571 233.136L171.833 226.306L171.643 226.27L171.433 226.235L170.013 225.97V226.018L168.689 233.166Z" fill="#768BB1"/>
<path d="M158.957 240.59C159.598 240.548 160.237 240.504 160.866 240.444L161.932 234.354L162.12 233.264L162.256 232.491L163.364 226.196L163.394 226.015L162.945 225.937L161.579 225.697L161.526 225.994L161.484 226.222L161.053 228.672L160.777 230.258L160.382 232.518L160.249 233.29L160.059 234.38L158.957 240.59Z" fill="#768BB1"/>
<path d="M133.025 233.81C132.691 234.773 132.294 235.714 131.838 236.625C132.432 236.842 133.008 237.047 133.619 237.249C134.145 236.18 134.596 235.076 134.968 233.944C134.991 233.884 135.009 233.84 135.027 233.78C135.25 233.091 135.455 232.373 135.621 231.63C135.944 230.263 136.165 228.873 136.28 227.473L134.843 227.354L134.43 227.318C134.377 227.96 134.302 228.592 134.207 229.198C133.968 230.77 133.581 232.316 133.052 233.816L133.025 233.81Z" fill="#768BB1"/>
<path d="M178.551 226.683C178.575 228.786 178.742 230.886 179.053 232.967C179.053 233.026 179.071 233.085 179.077 233.145V233.16C179.207 234.027 179.374 234.941 179.57 235.877C180.164 235.633 180.757 235.387 181.325 235.128C181.173 234.374 181.028 233.644 180.939 232.931C180.618 230.867 180.436 228.783 180.395 226.695H178.958L178.551 226.683Z" fill="#768BB1"/>
<path d="M188.767 232.791L188.622 231.354C187.76 231.871 186.896 232.373 186.011 232.839L180.963 232.934L179.095 232.969H179.071L172.051 233.1H171.997L170.589 233.124L168.707 233.156H167.97L162.138 233.263L160.255 233.299L155.702 233.382L153.692 233.424L151.925 233.453L142.062 233.635L136.859 233.73L135.024 233.765H134.965L133.055 233.801L125.631 233.935C123.61 232.936 121.643 231.834 119.736 230.632C119.412 230.43 119.089 230.225 118.771 230.012C118.376 229.753 117.981 229.489 117.583 229.225L117.88 226.255L118.723 226.237L121.99 226.178L124.716 226.127L132.301 225.991L134.769 225.943L141.866 225.812L153.228 225.607H153.505L165.948 225.379H165.977L167.774 225.349L171.804 225.272L178.934 225.147H179.231L187.579 224.987H187.968H188.072L188.215 226.57L188.645 231.348L188.767 232.791Z" fill="#768BB1"/>
<path d="M142.066 234.991L134.966 235.122L134.774 224.628L141.873 224.498L142.066 234.991Z" fill="#768BB1"/>
<path d="M179.108 234.313L172.008 234.443L171.816 223.95L178.915 223.82L179.108 234.313Z" fill="#768BB1"/>
<path d="M153.199 226.413C153.261 226.127 153.374 225.855 153.534 225.611C153.754 225.275 154.052 224.998 154.403 224.804C154.754 224.61 155.147 224.505 155.548 224.497L159.705 224.42L165.761 224.31H165.808C166.201 224.311 166.588 224.406 166.936 224.587C167.284 224.768 167.584 225.031 167.81 225.352C167.892 225.457 167.961 225.572 168.015 225.694C168.174 226.008 168.259 226.355 168.264 226.707L168.359 231.776C168.367 232.265 168.227 232.745 167.958 233.154C167.741 233.491 167.444 233.769 167.093 233.963C166.742 234.157 166.349 234.262 165.948 234.268L161.939 234.345L160.053 234.38L155.741 234.458H155.696C155.302 234.457 154.914 234.362 154.565 234.18C154.215 233.999 153.913 233.737 153.686 233.415C153.402 233.016 153.246 232.539 153.24 232.049L153.145 226.983C153.14 226.791 153.158 226.6 153.199 226.413ZM155.696 232.625L160.365 232.536L162.25 232.501L165.9 232.438C165.98 232.438 166.06 232.422 166.134 232.391C166.208 232.359 166.274 232.313 166.33 232.255C166.385 232.197 166.429 232.128 166.457 232.053C166.485 231.978 166.498 231.898 166.494 231.818L166.405 226.754C166.401 226.594 166.334 226.441 166.218 226.33C166.103 226.219 165.948 226.158 165.787 226.16L163.361 226.202L161.469 226.237L155.574 226.344C155.494 226.344 155.415 226.36 155.342 226.392C155.268 226.423 155.201 226.469 155.146 226.527C155.09 226.584 155.047 226.653 155.019 226.727C154.99 226.802 154.977 226.882 154.98 226.962L155.004 228.542L155.037 230.443L155.067 232.022C155.067 232.18 155.129 232.331 155.241 232.442C155.352 232.554 155.503 232.616 155.661 232.616V233.383L155.696 232.625Z" fill="#E8E2FF"/>
<path d="M160.427 230.35L154.226 230.463L154.191 228.56L160.392 228.447C160.644 228.443 160.888 228.539 161.069 228.715C161.25 228.89 161.355 229.13 161.36 229.382C161.362 229.507 161.34 229.631 161.294 229.747C161.249 229.864 161.181 229.97 161.094 230.06C161.007 230.149 160.904 230.221 160.79 230.271C160.675 230.321 160.552 230.348 160.427 230.35Z" fill="#E8E2FF"/>
<path d="M182.002 169.795L172.089 160.58L170.248 127.598L178.824 129.9L182.002 169.795Z" fill="#B6C6E4"/>
<path d="M148.973 171.746L141.602 181.986L135.689 129.086C138.659 128.142 141.4 127.263 142.923 126.767L148.973 171.746Z" fill="#B6C6E4"/>
<path d="M187.826 221.744L160.43 223.636L118.403 221.37L136.328 214.198L139.502 165.727V165.664C139.528 165.249 139.577 164.835 139.651 164.426C140.069 161.893 141.356 159.585 143.291 157.897C145.225 156.21 147.687 155.249 150.253 155.178L170.236 154.602C173.069 154.519 175.825 155.525 177.938 157.414C180.05 159.304 181.357 161.931 181.589 164.755V164.892L185.637 213.215L187.196 215.591L187.826 221.744Z" fill="#B6C6E4"/>
<path d="M181.604 164.892L139.502 165.664C139.528 165.249 139.577 164.835 139.651 164.426L181.444 163.674C181.51 164.037 181.559 164.403 181.589 164.77L181.604 164.892Z" fill="#768BB1"/>
<path d="M150.181 159.653C150.187 159.974 150.098 160.289 149.924 160.559C149.751 160.829 149.501 161.041 149.207 161.169C148.913 161.297 148.588 161.335 148.272 161.278C147.956 161.221 147.665 161.072 147.434 160.849C147.203 160.626 147.044 160.34 146.976 160.026C146.908 159.713 146.934 159.386 147.052 159.088C147.169 158.789 147.373 158.532 147.637 158.35C147.9 158.167 148.212 158.067 148.533 158.061C148.746 158.057 148.958 158.095 149.156 158.173C149.354 158.25 149.535 158.367 149.688 158.514C149.841 158.662 149.964 158.839 150.049 159.035C150.133 159.23 150.178 159.44 150.181 159.653Z" fill="#768BB1"/>
<path d="M173.948 159.219C173.954 159.54 173.864 159.855 173.691 160.125C173.518 160.395 173.268 160.608 172.974 160.736C172.68 160.864 172.354 160.902 172.039 160.845C171.723 160.787 171.431 160.638 171.2 160.415C170.97 160.192 170.81 159.906 170.742 159.593C170.674 159.279 170.701 158.952 170.818 158.654C170.936 158.356 171.14 158.099 171.403 157.916C171.667 157.733 171.979 157.633 172.3 157.628C172.729 157.621 173.144 157.784 173.453 158.083C173.762 158.381 173.94 158.79 173.948 159.219Z" fill="#768BB1"/>
<path d="M148.744 170.026L176.814 169.513L177.027 181.127C177.099 185.303 175.512 189.336 172.613 192.342C169.715 195.349 165.742 197.083 161.567 197.164H161.27C157.15 197.143 153.201 195.516 150.261 192.629C147.322 189.742 145.625 185.822 145.531 181.703L145.442 176.655L145.317 170.092L148.744 170.026ZM147.238 181.674C147.255 183.528 147.64 185.361 148.369 187.066C149.099 188.772 150.159 190.316 151.488 191.609C152.818 192.902 154.39 193.919 156.115 194.601C157.84 195.283 159.682 195.617 161.537 195.583C163.391 195.549 165.221 195.147 166.919 194.402C168.617 193.657 170.152 192.583 171.432 191.242C172.713 189.9 173.716 188.319 174.382 186.588C175.048 184.857 175.365 183.011 175.314 181.157L175.13 171.25L148.976 171.734L147.06 171.77L147.113 174.336L147.238 181.674Z" fill="#768BB1"/>
<path d="M94.1249 189.431H94.1695L115.038 196.49L115.186 194.174L115.347 194.194L125.354 165.195L124.562 156.348C123.05 147.528 123.053 136.748 123.053 136.748C121.013 137.744 119.075 138.937 117.268 140.312C115.905 142.094 114.799 144.06 113.983 146.15C112.261 150.539 94.511 188.391 94.511 188.391C94.3833 188.751 94.2556 189.089 94.1249 189.431Z" fill="#D47C74"/>
<path d="M128.99 173.688L118.403 195.501L115.293 194.2L115.192 194.164L106.245 190.437L95.5537 185.983L92.5662 184.741C92.5662 184.741 110.239 146.432 113.523 141.915C117.539 136.388 123.638 133.006 123.638 133.006C123.638 133.006 125.304 139.361 125.83 143.13C128.108 159.344 128.99 173.688 128.99 173.688Z" fill="#342A98"/>
<path d="M247.478 146.075C247.478 146.075 252.022 136.736 255.105 132.349C257.564 128.851 260.418 123.648 261.469 121.691C261.512 121.61 261.576 121.543 261.655 121.496C261.733 121.449 261.823 121.424 261.914 121.424C262.006 121.424 262.096 121.449 262.174 121.496C262.252 121.543 262.317 121.61 262.36 121.691C262.865 122.662 263.497 124.405 262.823 126.229C262.229 127.847 260.703 131.75 260.129 133.261C260.091 133.365 260.087 133.48 260.12 133.586C260.153 133.692 260.22 133.785 260.311 133.849C260.401 133.913 260.511 133.946 260.622 133.942C260.733 133.937 260.84 133.896 260.925 133.825L273.864 122.065C274.166 121.815 274.553 121.69 274.945 121.717C275.336 121.744 275.702 121.921 275.967 122.211C276.222 122.492 276.363 122.857 276.363 123.237C276.363 123.616 276.222 123.982 275.967 124.263L268.359 133.469L270.155 147.566L266.722 150.643C265.038 152.166 260.219 154.925 257.991 155.377L247.478 146.075Z" fill="#FCAF9D"/>
<path d="M271.821 139.352L262.96 143.807C262.905 143.834 262.845 143.846 262.784 143.841C262.724 143.836 262.666 143.815 262.616 143.779C262.567 143.744 262.529 143.695 262.505 143.639C262.481 143.584 262.473 143.522 262.482 143.462C262.633 142.357 263.168 140.053 265.015 139.049C266.978 138.051 268.993 137.159 271.052 136.376L272.139 138.328C272.186 138.416 272.215 138.512 272.225 138.611C272.234 138.711 272.224 138.811 272.194 138.906C272.165 139.001 272.116 139.09 272.052 139.166C271.988 139.243 271.91 139.306 271.821 139.352Z" fill="#FCAF9D"/>
<path d="M269.92 147.611L263.253 150.964C263.18 151.001 263.098 151.018 263.016 151.011C262.933 151.004 262.855 150.975 262.788 150.926C262.722 150.878 262.67 150.812 262.639 150.736C262.608 150.659 262.599 150.576 262.612 150.495C262.805 149.325 263.381 147.246 265.112 146.308C267.075 145.309 269.091 144.417 271.15 143.635C271.337 143.975 271.454 144.35 271.493 144.736C271.533 145.122 271.494 145.513 271.379 145.884C271.264 146.255 271.076 146.599 270.826 146.896C270.575 147.193 270.267 147.436 269.92 147.611Z" fill="#FCAF9D"/>
<path d="M270.809 144.122L261.793 148.297C261.715 148.334 261.628 148.348 261.543 148.337C261.458 148.326 261.378 148.29 261.312 148.234C261.247 148.178 261.2 148.104 261.176 148.021C261.152 147.939 261.153 147.851 261.178 147.769C261.615 146.364 262.663 143.754 264.608 142.696C266.771 141.588 268.991 140.597 271.26 139.727L271.869 140.825C272.415 141.82 271.815 143.617 270.809 144.122Z" fill="#FCAF9D"/>
<path d="M271.272 136.213L263.372 140.187C263.299 140.224 263.217 140.24 263.135 140.234C263.053 140.227 262.974 140.198 262.908 140.149C262.841 140.101 262.789 140.035 262.758 139.958C262.727 139.882 262.718 139.799 262.731 139.718C262.924 138.548 263.5 136.469 265.232 135.53C266.716 134.72 268.703 133.876 269.983 133.357C270.338 133.213 270.734 133.204 271.095 133.332C271.456 133.46 271.758 133.716 271.943 134.051C272.045 134.236 272.109 134.44 272.131 134.651C272.153 134.861 272.131 135.074 272.069 135.276C272.006 135.478 271.903 135.665 271.766 135.826C271.629 135.987 271.461 136.119 271.272 136.213Z" fill="#FCAF9D"/>
<path d="M271.082 144.561C271.082 144.561 271.955 143.584 272.133 142.539C272.222 141.975 272.155 141.398 271.94 140.87C272.193 140.173 272.364 139.45 272.451 138.714C272.438 137.951 272.329 137.193 272.127 136.457C272.215 135.514 272.128 134.562 271.872 133.65C271.56 132.715 270.814 132.463 270.188 132.617C269.561 132.771 268.058 133.641 268.058 133.641L271.082 144.561Z" fill="#F6A49D"/>
<path d="M263.346 150.961C263.878 150.948 264.394 150.778 264.831 150.474L264.534 150.061C264.486 150.097 263.319 150.907 262.455 150.109C262.386 150.05 262.331 149.977 262.292 149.896C262.252 149.815 262.23 149.726 262.226 149.636C262.211 149.232 262.523 148.665 263.079 148.074C263.129 148.019 263.161 147.948 263.168 147.873C263.176 147.798 263.159 147.723 263.121 147.658C263.082 147.593 263.023 147.543 262.954 147.514C262.884 147.485 262.807 147.48 262.734 147.498C262.024 147.685 261.576 147.691 261.317 147.516C261.206 147.414 261.117 147.289 261.057 147.151C260.996 147.012 260.966 146.862 260.967 146.711C260.902 146.117 261.831 145.054 263.39 143.949C263.454 143.906 263.502 143.842 263.525 143.768C263.549 143.695 263.547 143.615 263.521 143.543C263.494 143.47 263.444 143.409 263.379 143.368C263.313 143.327 263.236 143.309 263.159 143.317C263.015 143.346 262.868 143.345 262.724 143.314C262.581 143.283 262.446 143.224 262.327 143.139C262.149 142.969 262.075 142.64 262.087 142.072C262.087 141.603 262.621 141.027 263.533 140.49C263.6 140.451 263.652 140.39 263.68 140.318C263.708 140.245 263.711 140.166 263.687 140.092C263.664 140.016 263.616 139.95 263.551 139.905C263.486 139.859 263.407 139.837 263.328 139.842C262.823 139.872 262.485 139.759 262.324 139.51C262.069 139.115 262.247 138.375 262.52 137.858C262.841 137.244 265.009 135.901 266.381 135.147L266.14 134.705C265.775 134.904 262.577 136.679 262.069 137.621C261.742 138.239 261.505 139.174 261.897 139.783C262.002 139.939 262.142 140.069 262.305 140.164C262.468 140.258 262.65 140.315 262.838 140.329C262.199 140.775 261.591 141.375 261.576 142.064C261.576 142.58 261.606 143.156 261.977 143.507C262.181 143.686 262.439 143.79 262.71 143.804C261.686 144.576 260.355 145.779 260.462 146.753C260.46 146.979 260.509 147.203 260.606 147.408C260.703 147.612 260.844 147.792 261.021 147.935C261.335 148.151 261.766 148.208 262.378 148.098C262.012 148.552 261.689 149.117 261.709 149.66C261.715 149.817 261.752 149.972 261.819 150.114C261.887 150.256 261.983 150.382 262.102 150.486C262.441 150.797 262.886 150.967 263.346 150.961Z" fill="#D47C74"/>
<path d="M113.623 196C111.623 201.833 107.323 214.6 106.123 219C104.623 217.5 100.944 213.201 98.123 208.5C94.8226 203 94.1565 199.683 92.623 197L96.123 190L113.623 196Z" fill="#FCAF9D"/>
<path d="M171.595 100.781C172.371 103.58 173.281 107.983 172.662 110.196C172.043 112.409 171.257 116.912 171.511 119.014C171.765 121.115 170.014 122.602 165.527 123.362C161.04 124.122 154.894 122.491 152.042 119.289C149.19 116.087 149.321 115.574 148.403 112.486C147.861 110.616 146.871 108.908 145.517 107.511L140.674 97.0795C138.797 94.7707 137.866 82.3483 142.302 83.4165C141.849 80.2836 146.314 74.8006 153.643 75.2097C160.972 75.6189 166.085 78.8981 169.673 80.5565C173.26 82.2148 174.914 84.1317 174.463 85.5462C174.011 86.9608 173.021 87.3756 172.96 87.6757C173.166 90.1907 171.893 96.634 171.893 96.634L171.595 100.781Z" fill="#1D1526"/>
<path d="M152.518 86.8049C151.519 87.2961 151.242 86.5786 151.097 86.5866C150.057 87.2759 149.071 88.0128 149.719 91.142C150.367 94.2712 150.4 95.773 149.537 96.0672C148.673 96.3614 147.059 98.0554 147.704 98.3102C148.35 98.5651 148.893 98.6803 148.131 98.9689C147.368 99.2576 147.537 99.7283 148.168 99.6934C148.798 99.6585 147.795 101.906 149.614 103.214C151.433 104.522 151.827 107.375 152.715 109.518C153.604 111.661 157.216 113.647 160.624 111.803C164.032 109.959 166.739 109.468 168.632 110.242C170.524 111.015 171.475 110.571 172.104 109.513C172.732 108.454 172.517 105.257 172.036 102.567C171.556 99.8771 172.229 97.8372 172.434 96.1706C172.639 94.5041 171.27 88.6793 169.85 86.6478C168.43 84.6164 167.575 85.0933 166.605 86.0251C165.635 86.9569 160.76 89.7791 152.518 86.8049Z" fill="#FCAF9D"/>
<path d="M170.586 113.243C169.331 111.606 166.174 114.202 164.293 113.914C157.034 112.804 159.403 115.291 159.771 116.548C160.247 118.166 160.9 119.78 162.312 119.43C164.223 118.945 165.182 118.392 167.201 118.768C169.22 119.143 171.236 114.314 170.586 113.243Z" fill="#FCAF9D"/>
<path d="M149.332 86.1632C149.309 86.1701 149.286 86.1714 149.263 86.1671C147.233 85.2296 145.131 84.4532 142.979 83.8452C142.96 83.8404 142.943 83.832 142.927 83.8205C142.912 83.8089 142.899 83.7945 142.89 83.778C142.87 83.7447 142.865 83.7049 142.874 83.6675C142.884 83.63 142.909 83.598 142.942 83.5783C142.975 83.5587 143.015 83.5531 143.053 83.5628C145.222 84.1776 147.34 84.9593 149.388 85.9008C149.415 85.9165 149.437 85.9404 149.45 85.9691C149.463 85.9977 149.467 86.0298 149.461 86.0607C149.455 86.0916 149.439 86.12 149.416 86.1417C149.393 86.1635 149.364 86.1776 149.333 86.1821L149.332 86.1632Z" fill="#FCAF9D"/>
<path d="M150.772 96.4045C150.75 96.4114 150.726 96.4127 150.703 96.4084C150.703 96.4084 149.948 95.8871 146.933 95.0986C146.914 95.0939 146.897 95.0855 146.882 95.074C146.866 95.0625 146.853 95.0481 146.844 95.0316C146.834 95.0151 146.828 94.9968 146.825 94.9778C146.823 94.9588 146.824 94.9395 146.829 94.9209C146.833 94.9019 146.841 94.8839 146.852 94.8681C146.863 94.8522 146.878 94.839 146.895 94.8291C146.911 94.8192 146.93 94.813 146.949 94.8108C146.969 94.8085 146.988 94.8104 147.007 94.8162C150.047 95.597 150.796 96.1249 150.859 96.1214C150.876 96.129 150.892 96.1402 150.905 96.1542C150.918 96.1682 150.928 96.1848 150.934 96.2029C150.941 96.2209 150.943 96.2401 150.942 96.2592C150.94 96.2783 150.935 96.2969 150.926 96.3138C150.914 96.3438 150.892 96.369 150.864 96.3854C150.837 96.4018 150.804 96.4085 150.772 96.4045Z" fill="#FCAF9D"/>
<path d="M150.599 97.6755C150.577 97.6832 150.553 97.6846 150.53 97.6793C150.53 97.6793 149.775 97.1644 146.76 96.3696C146.741 96.3657 146.723 96.3579 146.707 96.3466C146.691 96.3353 146.678 96.3208 146.668 96.304C146.658 96.2873 146.652 96.2687 146.65 96.2494C146.648 96.23 146.65 96.2105 146.656 96.1919C146.66 96.1734 146.669 96.1559 146.68 96.1406C146.692 96.1252 146.707 96.1123 146.723 96.1026C146.74 96.0928 146.758 96.0865 146.777 96.0838C146.796 96.0812 146.815 96.0823 146.834 96.0872C149.875 96.8869 150.623 97.4022 150.655 97.4131C150.682 97.4288 150.704 97.4527 150.717 97.4813C150.73 97.51 150.734 97.542 150.728 97.573C150.722 97.6039 150.706 97.6322 150.683 97.654C150.66 97.6758 150.631 97.6899 150.6 97.6944L150.599 97.6755Z" fill="#FCAF9D"/>
<path d="M145.474 107.608C148.148 105.029 145.735 96.1122 140.978 96.1796C138.502 96.2155 138.006 99.8302 138.714 103.018C139.384 105.962 141.891 108.602 145.474 107.608Z" fill="#FCAF9D"/>
<g style="mix-blend-mode:multiply">
<path d="M144.023 107.03L143.966 107.033C142.102 106.41 141.756 105.343 141.714 104.771C141.693 104.382 141.785 103.995 141.98 103.657C142.175 103.319 142.463 103.045 142.81 102.867C143.109 102.715 143.442 102.646 143.776 102.665C144.11 102.684 144.433 102.791 144.711 102.976C144.432 100.883 143.236 98.8713 141.88 98.3149C141.583 98.1788 141.252 98.1337 140.928 98.1853C140.605 98.2369 140.304 98.3828 140.062 98.6048C140.048 98.6176 140.031 98.6272 140.013 98.6332C139.995 98.6391 139.975 98.6412 139.956 98.6393C139.937 98.6373 139.919 98.6315 139.902 98.6221C139.885 98.6126 139.871 98.5998 139.859 98.5845C139.832 98.5589 139.815 98.5236 139.813 98.486C139.811 98.4484 139.824 98.4115 139.849 98.383C140.132 98.1284 140.484 97.9615 140.86 97.9026C141.236 97.8437 141.621 97.8953 141.967 98.0512C143.504 98.6797 144.814 100.931 145.011 103.282C145.013 103.31 145.007 103.339 144.993 103.364C144.978 103.389 144.957 103.409 144.931 103.422C144.906 103.435 144.877 103.44 144.848 103.437C144.82 103.433 144.793 103.421 144.771 103.402C144.527 103.174 144.219 103.025 143.889 102.976C143.558 102.927 143.219 102.979 142.918 103.126C142.62 103.281 142.373 103.518 142.207 103.81C142.04 104.101 141.961 104.434 141.979 104.769C142.005 105.273 142.331 106.202 144.042 106.776C144.077 106.79 144.106 106.817 144.122 106.851C144.138 106.886 144.14 106.925 144.127 106.961C144.116 106.98 144.101 106.995 144.083 107.007C144.065 107.019 144.044 107.027 144.023 107.03Z" fill="#EBA492"/>
</g>
<g style="mix-blend-mode:multiply">
<path d="M157.832 103.863C157.798 103.858 157.766 103.841 157.743 103.815C157.719 103.789 157.705 103.756 157.704 103.721C157.702 103.687 157.712 103.652 157.733 103.624C157.753 103.596 157.783 103.575 157.817 103.567C158.251 103.574 158.68 103.474 159.067 103.276C159.099 103.256 159.137 103.248 159.174 103.256C159.211 103.263 159.244 103.285 159.265 103.316C159.276 103.331 159.284 103.348 159.289 103.366C159.293 103.384 159.294 103.403 159.29 103.422C159.287 103.44 159.28 103.458 159.27 103.474C159.26 103.49 159.247 103.503 159.231 103.514C158.803 103.751 158.321 103.871 157.832 103.863Z" fill="#EBA492"/>
</g>
<g style="mix-blend-mode:multiply">
<path d="M168.02 102.818C167.981 102.82 167.944 102.807 167.915 102.781C167.886 102.755 167.869 102.719 167.867 102.681C167.867 102.643 167.881 102.606 167.906 102.577C167.932 102.549 167.967 102.531 168.005 102.528C168.439 102.536 168.869 102.436 169.255 102.237C169.288 102.216 169.327 102.209 169.365 102.216C169.403 102.223 169.437 102.245 169.46 102.277C169.471 102.292 169.479 102.309 169.483 102.327C169.487 102.345 169.488 102.364 169.485 102.383C169.482 102.401 169.475 102.419 169.464 102.435C169.454 102.45 169.441 102.464 169.425 102.474C168.994 102.708 168.51 102.826 168.02 102.818Z" fill="#EBA492"/>
</g>
<g style="mix-blend-mode:multiply">
<path d="M162.639 110.389C162.413 110.407 162.186 110.364 161.983 110.264C161.78 110.164 161.608 110.011 161.484 109.821C161.328 109.548 161.25 109.237 161.257 108.922C161.264 108.607 161.357 108.299 161.525 108.032C161.534 108.015 161.547 108 161.562 107.988C161.577 107.977 161.595 107.968 161.613 107.963C161.632 107.957 161.651 107.956 161.67 107.958C161.689 107.961 161.708 107.967 161.724 107.977C161.757 107.995 161.782 108.025 161.793 108.06C161.805 108.096 161.802 108.135 161.785 108.169C161.641 108.39 161.559 108.646 161.55 108.909C161.54 109.172 161.602 109.432 161.729 109.662C161.832 109.812 161.973 109.931 162.138 110.007C162.304 110.082 162.487 110.111 162.667 110.09C162.686 110.088 162.706 110.089 162.724 110.094C162.742 110.099 162.759 110.108 162.774 110.121C162.788 110.133 162.8 110.149 162.808 110.166C162.816 110.183 162.82 110.202 162.82 110.221C162.821 110.24 162.819 110.259 162.814 110.277C162.808 110.296 162.799 110.313 162.787 110.327C162.775 110.342 162.76 110.354 162.743 110.363C162.726 110.372 162.708 110.378 162.689 110.38L162.639 110.389Z" fill="#EBA492"/>
</g>
<path d="M158.419 103.257C158.895 103.231 159.247 102.524 159.203 101.679C159.159 100.834 158.738 100.171 158.261 100.197C157.784 100.223 157.433 100.93 157.476 101.775C157.52 102.62 157.942 103.283 158.419 103.257Z" fill="#1D1526"/>
<path d="M156.377 102.078C156.351 102.087 156.322 102.089 156.295 102.082C156.263 102.061 156.241 102.029 156.232 101.992C156.223 101.955 156.228 101.916 156.247 101.882C156.976 100.679 157.658 100.047 158.336 99.9395C158.604 99.9137 158.873 99.9502 159.124 100.046C159.375 100.142 159.6 100.294 159.782 100.492C159.796 100.504 159.808 100.519 159.816 100.536C159.825 100.553 159.83 100.571 159.83 100.59C159.831 100.609 159.829 100.628 159.822 100.646C159.815 100.664 159.805 100.68 159.792 100.694C159.765 100.72 159.728 100.736 159.69 100.739C159.652 100.741 159.614 100.729 159.584 100.705C159.434 100.539 159.248 100.41 159.039 100.328C158.831 100.246 158.606 100.214 158.383 100.234C157.792 100.324 157.153 100.934 156.495 102.039C156.48 102.054 156.461 102.065 156.44 102.072C156.42 102.078 156.398 102.08 156.377 102.078Z" fill="#1D1526"/>
<path d="M168.613 102.218C169.09 102.192 169.441 101.486 169.398 100.641C169.354 99.7956 168.932 99.1319 168.456 99.1583C167.979 99.1847 167.628 99.8911 167.671 100.736C167.715 101.581 168.137 102.245 168.613 102.218Z" fill="#1D1526"/>
<path d="M166.571 101.039C166.545 101.049 166.516 101.051 166.489 101.043C166.472 101.034 166.457 101.021 166.445 101.006C166.433 100.991 166.425 100.973 166.421 100.954C166.416 100.936 166.415 100.916 166.419 100.897C166.422 100.878 166.43 100.86 166.441 100.844C167.163 99.6403 167.852 99.0078 168.53 98.9007C168.797 98.8746 169.066 98.9109 169.316 99.0068C169.565 99.1028 169.789 99.2557 169.969 99.4534C169.984 99.4656 169.996 99.4807 170.004 99.4976C170.012 99.5145 170.017 99.533 170.018 99.5519C170.019 99.5708 170.016 99.5897 170.01 99.6075C170.003 99.6252 169.993 99.6415 169.98 99.6552C169.952 99.6821 169.916 99.6981 169.878 99.7002C169.839 99.7023 169.802 99.6904 169.772 99.6667C169.621 99.5 169.433 99.3706 169.224 99.2889C169.014 99.2073 168.788 99.1755 168.564 99.196C167.98 99.2852 167.335 99.8964 166.683 101.001C166.651 101.027 166.612 101.041 166.571 101.039Z" fill="#1D1526"/>
<path d="M161.387 94.7777C160.549 96.2102 159.453 96.929 156.912 96.6324C154.818 96.455 152.73 97.0522 151.042 98.3109C152.722 95.547 154.058 94.4478 156.611 94.9653C158.195 95.2687 159.829 95.2046 161.387 94.7777Z" fill="#1D1526"/>
<path d="M166.049 94.9319C166.862 95.843 167.729 96.3396 169.455 95.8075C171.181 95.2755 172.104 96.0983 172.104 96.0983C171.465 94.2723 171.525 94.0854 166.049 94.9319Z" fill="#1D1526"/>
<g style="mix-blend-mode:multiply">
<path d="M161.303 96.1869C161.276 96.1867 161.25 96.1793 161.227 96.1654C161.203 96.1515 161.184 96.1316 161.172 96.1078C161.159 96.084 161.153 96.0572 161.154 96.0301C161.155 96.0031 161.163 95.9768 161.178 95.954C161.842 95.0021 161.717 94.1821 160.865 93.2128C160.838 93.1872 160.821 93.1519 160.819 93.1144C160.818 93.0768 160.83 93.0398 160.855 93.0114C160.867 92.997 160.882 92.9852 160.899 92.9768C160.916 92.9683 160.935 92.9634 160.953 92.9624C160.972 92.9614 160.991 92.9642 161.009 92.9707C161.027 92.9772 161.043 92.9873 161.056 93.0003C162.033 94.0699 162.14 95.0298 161.394 96.1061C161.374 96.1429 161.342 96.1715 161.303 96.1869Z" fill="#EBA492"/>
</g>
<g style="mix-blend-mode:multiply">
<path d="M163.872 118C163.84 118.001 163.808 117.992 163.781 117.974C163.754 117.956 163.734 117.931 163.722 117.9C163.71 117.864 163.713 117.825 163.73 117.791C163.748 117.756 163.777 117.73 163.813 117.718C164.628 117.375 165.521 117.267 166.392 117.405C166.411 117.41 166.428 117.418 166.443 117.43C166.459 117.441 166.472 117.456 166.481 117.472C166.491 117.489 166.497 117.507 166.5 117.526C166.502 117.545 166.501 117.564 166.496 117.583C166.492 117.602 166.483 117.619 166.472 117.634C166.46 117.65 166.446 117.663 166.429 117.672C166.412 117.682 166.394 117.689 166.375 117.691C166.356 117.694 166.337 117.693 166.318 117.688C165.503 117.573 164.672 117.678 163.91 117.991L163.872 118Z" fill="#EBA492"/>
</g>
<path d="M167.947 107.382C167.524 106.796 167.179 106.157 166.92 105.482C166.646 104.744 166.423 103.989 166.254 103.221C166.134 102.576 165.927 101.95 165.64 101.361C165.369 100.877 165.524 100.464 165.785 99.7744C166.036 99.1354 166.224 98.4738 166.346 97.799C166.35 97.7605 166.34 97.7219 166.318 97.6906C166.295 97.6592 166.262 97.6373 166.224 97.629C166.185 97.6251 166.147 97.6355 166.115 97.6581C166.084 97.6808 166.062 97.7143 166.053 97.7521C165.946 98.4102 165.767 99.0549 165.521 99.6753C165.255 100.391 165.061 100.906 165.401 101.506C165.67 102.081 165.867 102.687 165.987 103.311C166.156 104.093 166.382 104.861 166.662 105.61C166.93 106.305 167.285 106.964 167.717 107.571C167.928 107.869 168.078 108.088 168.039 108.185C167.947 108.48 166.198 109.215 163.963 109.231C163.944 109.231 163.925 109.235 163.908 109.242C163.89 109.25 163.874 109.261 163.861 109.274C163.847 109.288 163.837 109.304 163.83 109.322C163.822 109.339 163.819 109.358 163.819 109.377C163.822 109.415 163.839 109.45 163.866 109.476C163.892 109.503 163.928 109.518 163.965 109.521L164.475 109.493C165.463 109.446 166.438 109.252 167.369 108.916C167.773 109.146 167.706 109.441 167.701 109.472C167.691 109.509 167.695 109.548 167.714 109.581C167.732 109.614 167.762 109.639 167.799 109.65L167.849 109.647C167.88 109.645 167.909 109.633 167.933 109.614C167.956 109.594 167.974 109.568 167.982 109.539C168.009 109.395 167.996 109.246 167.943 109.11C167.89 108.973 167.8 108.854 167.684 108.766C167.939 108.669 168.153 108.485 168.288 108.247C168.384 108.014 168.208 107.797 167.947 107.382Z" fill="#1D1526"/>
<g style="mix-blend-mode:multiply">
<path d="M169.526 113.757C169.6 113.607 169.675 113.457 169.748 113.295C166.647 114.543 163.257 114.877 159.977 114.256C160.08 114.415 160.189 114.549 160.297 114.689C163.399 115.205 166.584 114.883 169.526 113.757Z" fill="#EBA492"/>
</g>
<path d="M160.424 114.653C163.435 115.12 166.517 114.834 169.395 113.822C167.761 116.983 165.118 116.793 165.118 116.793C164.216 116.872 163.31 116.717 162.487 116.342C161.665 115.967 160.954 115.385 160.424 114.653Z" fill="white"/>
</g>
<defs>
<filter id="filter0_d_5430_48873" x="114.686" y="17.6069" width="134.515" height="64.7617" filterUnits="userSpaceOnUse" color-interpolation-filters="sRGB">
<feFlood flood-opacity="0" result="BackgroundImageFix"/>
<feColorMatrix in="SourceAlpha" type="matrix" values="0 0 0 0 0 0 0 0 0 0 0 0 0 0 0 0 0 0 127 0" result="hardAlpha"/>
<feOffset dy="2"/>
<feGaussianBlur stdDeviation="2.5"/>
<feColorMatrix type="matrix" values="0 0 0 0 0.203922 0 0 0 0 0.164706 0 0 0 0 0.596078 0 0 0 0.2 0"/>
<feBlend mode="normal" in2="BackgroundImageFix" result="effect1_dropShadow_5430_48873"/>
<feBlend mode="normal" in="SourceGraphic" in2="effect1_dropShadow_5430_48873" result="shape"/>
</filter>
<filter id="filter1_dddd_5430_48873" x="45.0849" y="2.7037" width="185.221" height="123.681" filterUnits="userSpaceOnUse" color-interpolation-filters="sRGB">
<feFlood flood-opacity="0" result="BackgroundImageFix"/>
<feColorMatrix in="SourceAlpha" type="matrix" values="0 0 0 0 0 0 0 0 0 0 0 0 0 0 0 0 0 0 127 0" result="hardAlpha"/>
<feOffset dy="1.85185"/>
<feGaussianBlur stdDeviation="1.57407"/>
<feColorMatrix type="matrix" values="0 0 0 0 0.203922 0 0 0 0 0.164706 0 0 0 0 0.596078 0 0 0 0.0168519 0"/>
<feBlend mode="normal" in2="BackgroundImageFix" result="effect1_dropShadow_5430_48873"/>
<feColorMatrix in="SourceAlpha" type="matrix" values="0 0 0 0 0 0 0 0 0 0 0 0 0 0 0 0 0 0 127 0" result="hardAlpha"/>
<feOffset dy="8.14815"/>
<feGaussianBlur stdDeviation="3.25926"/>
<feColorMatrix type="matrix" values="0 0 0 0 0.203922 0 0 0 0 0.164706 0 0 0 0 0.596078 0 0 0 0.0274815 0"/>
<feBlend mode="normal" in2="effect1_dropShadow_5430_48873" result="effect2_dropShadow_5430_48873"/>
<feColorMatrix in="SourceAlpha" type="matrix" values="0 0 0 0 0 0 0 0 0 0 0 0 0 0 0 0 0 0 127 0" result="hardAlpha"/>
<feOffset dy="20"/>
<feGaussianBlur stdDeviation="6.5"/>
<feColorMatrix type="matrix" values="0 0 0 0 0.203922 0 0 0 0 0.164706 0 0 0 0 0.596078 0 0 0 0.035 0"/>
<feBlend mode="normal" in2="effect2_dropShadow_5430_48873" result="effect3_dropShadow_5430_48873"/>
<feColorMatrix in="SourceAlpha" type="matrix" values="0 0 0 0 0 0 0 0 0 0 0 0 0 0 0 0 0 0 127 0" result="hardAlpha"/>
<feOffset dy="38.5185"/>
<feGaussianBlur stdDeviation="12.7407"/>
<feColorMatrix type="matrix" values="0 0 0 0 0.203922 0 0 0 0 0.164706 0 0 0 0 0.596078 0 0 0 0.0425185 0"/>
<feBlend mode="normal" in2="effect3_dropShadow_5430_48873" result="effect4_dropShadow_5430_48873"/>
<feBlend mode="normal" in="SourceGraphic" in2="effect4_dropShadow_5430_48873" result="shape"/>
</filter>
<clipPath id="clip0_5430_48873">
<rect width="476" height="460" fill="white"/>
</clipPath>
</defs>
</svg>
