<svg width="576" height="332" viewBox="0 0 576 332" fill="none" xmlns="http://www.w3.org/2000/svg">
<g clip-path="url(#clip0_3880_44765)">
<path d="M205.031 379.505C143.523 365.828 83.7922 339.914 44.8009 292.998C-0.274405 238.755 -11.1053 160.369 18.8067 97.6545C44.119 44.5347 102.766 7.93833 165.051 1.13391C196.22 -2.26829 228.432 1.90508 256.686 14.7427C288.028 29.032 308.366 53.8114 331.566 76.9351C354.498 99.7639 381.361 120.415 416.889 120.257C433.323 120.188 449.382 116.083 465.669 114.042C535.682 105.241 574.62 170.314 575.957 227.04C577.414 286.919 541.966 346.379 483.64 373.732C418.441 404.352 339.308 398.931 269.175 390.063C261.031 389.031 252.888 387.908 244.758 386.74C231.587 384.835 218.269 382.453 205.031 379.505Z" fill="#C8CEFF" fill-opacity="0.2"/>
<path d="M98.1013 269.363C95.9051 266.423 93.7709 263.261 90.6183 261.393C87.4657 259.524 82.9139 259.329 80.4963 262.092C79.7834 262.996 79.2853 264.05 79.0398 265.175C78.7943 266.299 78.8079 267.465 79.0794 268.583C79.6388 270.826 80.6415 272.934 82.0284 274.782C86.5624 281.488 92.8178 286.851 100.138 290.306C103.765 291.983 107.626 293.1 111.588 293.618C113.591 293.878 115.61 293.979 117.628 293.919C118.885 293.919 123.827 293.158 123.827 293.158C118.609 290.249 113.837 286.604 109.658 282.336C105.708 278.103 101.564 274.003 98.1013 269.363Z" fill="#AEAAD6"/>
<path d="M72.4735 180.195C69.9319 168.984 69.3209 157.091 72.3938 145.96C72.8666 143.849 73.7711 141.859 75.0505 140.115C75.6979 139.247 76.5482 138.551 77.527 138.088C78.5058 137.625 79.5833 137.408 80.665 137.458C83.9947 137.821 86.0669 141.31 86.7842 144.543C88.3959 151.866 85.8986 159.376 84.1984 166.682C81.895 176.283 81.0855 186.182 81.7985 196.029C81.9933 198.473 82.2855 200.909 82.684 203.326C82.8612 204.38 84.0478 211.748 84.0478 211.748C84.0478 211.748 78.4776 199.474 77.8489 197.862C75.6618 192.101 73.8659 186.199 72.4735 180.195Z" fill="#AEAAD6"/>
<path d="M91.9909 182.533C92.7629 180.092 94.1721 177.9 96.0733 176.184C96.5941 175.707 97.2156 175.353 97.8917 175.15C98.5677 174.946 99.2811 174.897 99.9787 175.006C100.562 175.176 101.102 175.471 101.561 175.87C102.02 176.269 102.386 176.763 102.635 177.317C103.329 178.852 103.513 180.568 103.158 182.215C102.803 183.847 102.24 185.427 101.484 186.917C98.1721 194.001 93.7886 200.493 90.9814 207.772C90.7157 208.463 89.2102 213.085 89.2102 213.085C89.2102 213.085 88.7675 208.365 88.7586 207.71C88.6361 203.665 88.7573 199.617 89.1217 195.587C89.4968 191.128 90.4616 186.738 91.9909 182.533Z" fill="#AEAAD6"/>
<path d="M67.8063 231.115C62.732 226.129 58.1714 220.099 57.1795 213.05C56.8163 211.126 57.0067 209.139 57.7286 207.32C58.1064 206.42 58.7291 205.644 59.526 205.081C60.3228 204.517 61.2618 204.189 62.2361 204.132C64.5828 204.132 66.4071 206.125 67.8329 208.002C71.878 213.529 75.5892 219.292 78.9467 225.262L84.0032 233.843L86.5802 238.226C87.1116 239.112 90.1845 243.761 90.1845 243.761C90.1845 243.761 76.2811 238.085 74.8819 237.093C72.3686 235.291 70.0026 233.292 67.8063 231.115Z" fill="#AEAAD6"/>
<path d="M105.814 248.145C104.211 243.044 102.848 237.739 103.344 232.417C103.444 230.652 103.927 228.929 104.761 227.369C105.184 226.594 105.765 225.916 106.467 225.379C107.169 224.842 107.975 224.458 108.834 224.252C111.836 223.65 114.794 226.023 115.919 228.822C117.043 231.62 116.902 234.826 116.689 237.881C116.335 242.955 115.954 248.038 115.476 253.104C115.228 255.663 114.962 258.222 114.661 260.773C114.387 263.093 113.97 269.159 113.97 269.159C113.97 269.159 110.561 261.543 109.357 258.435C108.099 255.043 106.895 251.616 105.814 248.145Z" fill="#AEAAD6"/>
<path d="M93.4519 221.657C94.3765 217.483 96.3172 213.602 99.1018 210.358C100.306 209.029 102.086 207.807 103.769 208.418C104.412 208.725 104.955 209.207 105.337 209.808C105.719 210.41 105.924 211.106 105.93 211.819C106.142 214.803 104.282 217.504 102.511 219.922L97.3484 227.006L94.8334 230.433C94.2578 231.213 92.3096 234.418 92.3096 234.418C92.3096 234.418 92.5752 229.433 92.7524 227.511C92.8763 226.271 92.8498 224.978 93.0446 223.756C93.1509 223.003 93.3103 222.348 93.4519 221.657Z" fill="#AEAAD6"/>
<path d="M68.1251 202.042C66.1951 199.465 64.8201 196.516 64.0869 193.381C63.7858 191.734 63.9364 189.733 65.3621 188.856C66.0058 188.546 66.7312 188.447 67.4344 188.574C68.1375 188.701 68.7823 189.048 69.2763 189.564C70.2431 190.623 70.979 191.872 71.4371 193.231C73.447 197.944 75.7236 202.538 78.2559 206.992C79.4869 209.162 80.7798 211.305 82.1258 213.404C83.3391 215.281 86.7042 220.09 86.7042 220.09C86.7042 220.09 77.8486 213.519 76.4317 212.075C73.3449 209.007 70.563 205.647 68.1251 202.042Z" fill="#AEAAD6"/>
<path d="M79.478 249.5C78.3799 248.614 77.2818 247.516 77.2729 246.126C77.2729 244.354 79.1946 243 80.9923 243.017C82.79 243.035 84.4372 243.991 85.9603 244.948C88.8827 246.784 91.7371 248.714 94.5237 250.739C97.1096 252.617 104.167 257.638 104.167 257.638C104.167 257.638 98.4468 256.708 96.7376 256.38C94.6477 255.982 92.5755 255.495 90.5387 254.919C86.5411 253.831 82.7873 251.992 79.478 249.5Z" fill="#AEAAD6"/>
<path d="M153.423 314.659C116.039 284.493 90.0636 242.476 79.7881 195.551" stroke="#342A98" stroke-linecap="round" stroke-linejoin="round"/>
<path d="M98.4376 247.427C88.7932 244.191 80.4041 238.016 74.4478 229.769" stroke="#342A98" stroke-linecap="round" stroke-linejoin="round"/>
<path d="M116.875 276.801C114.006 269.241 111.862 261.424 110.473 253.458" stroke="#342A98" stroke-linecap="round" stroke-linejoin="round"/>
<path d="M130.912 294.318C123.081 293.492 115.5 291.082 108.631 287.234" stroke="#342A98" stroke-linecap="round" stroke-linejoin="round"/>
<path d="M89.556 227.741C88.6704 218.567 88.9892 208.684 91.4953 199.819" stroke="#342A98" stroke-linecap="round" stroke-linejoin="round"/>
<path d="M136.211 190.317C135.865 262.933 192.798 325.87 265.033 329.971C339.19 334.177 399.382 275.066 397.708 198.845C396.061 123.82 334.913 63.2922 262.811 62.6369C192.515 61.9993 136.547 118.746 136.211 190.317Z" fill="#17124B"/>
<path d="M141.418 190.937C141.117 256.159 192.24 312.667 257.108 316.35C323.702 320.132 377.757 267.016 376.251 198.571C374.772 131.224 319.868 76.8855 255.115 76.2745C191.992 75.7077 141.763 126.672 141.418 190.937Z" fill="white"/>
<path d="M390.748 199.093C388.977 123.776 327.235 63.0531 255 62.6014C184.784 62.1587 128.728 119.083 128.285 190.539C128.019 233.843 148.175 273.87 179.833 300.038C180.949 300.959 182.077 301.863 183.216 302.748C204.473 319.4 230.281 329.213 257.232 330.891C331.761 335.31 392.554 275.694 390.748 199.093ZM257.028 301.898C235.915 300.71 215.651 293.183 198.882 280.299C197.701 279.443 196.568 278.558 195.481 277.643C170.5 257.08 154.515 225.598 154.621 191.389C154.807 134.562 199.44 89.3897 255.221 90.045C312.278 90.7181 360.603 138.893 361.834 198.146C363.056 258.178 315.466 305.024 256.984 301.872L257.028 301.898Z" fill="#342A98"/>
<path d="M180.834 192.221C180.834 149.997 214.043 116.505 255.451 117.223C297.56 117.949 332.938 153.655 333.691 197.207C334.444 241.193 299.632 275.588 256.753 273.516C214.592 271.488 180.816 234.861 180.834 192.221ZM207.737 193.107C207.817 220.462 229.575 243.761 256.514 244.903C283.745 246.063 305.796 224.19 305.406 196.295C305.016 168.568 282.594 145.64 255.682 145.029C229.053 144.418 207.667 165.92 207.737 193.098V193.107Z" fill="#342A98"/>
<path d="M234.526 193.975C234.597 206.178 244.311 216.45 256.284 216.893C268.257 217.336 277.989 207.692 277.856 195.383C277.724 183.073 267.876 172.916 255.912 172.579C243.948 172.243 234.455 181.807 234.526 193.975Z" fill="#FC1264"/>
<g style="mix-blend-mode:multiply">
<path d="M390.757 199.093C390.188 176.806 384.349 154.97 373.72 135.373C363.09 115.776 347.971 98.9744 329.6 86.3433C345.181 108.847 353.829 135.421 354.475 162.785C356.246 239.413 295.488 299.029 220.95 294.583C196.722 293.092 173.364 284.998 153.408 271.178C176.734 304.936 214.273 328.297 257.232 330.865C331.769 335.31 392.563 275.694 390.757 199.093Z" fill="#E8E2FF"/>
</g>
<g style="mix-blend-mode:soft-light" opacity="0.4">
<path d="M221.5 90.6421C238.747 84.4602 251.327 75.541 249.599 70.7206C247.872 65.9002 232.49 67.004 215.243 73.186C197.997 79.3679 185.416 88.2871 187.144 93.1075C188.872 97.9278 204.254 96.8241 221.5 90.6421Z" fill="white"/>
</g>
<g style="mix-blend-mode:soft-light" opacity="0.4">
<path d="M184.403 96.9082C186.926 99.2461 182.18 108.421 173.776 117.462C165.372 126.504 156.578 131.888 154.054 129.55C151.53 127.212 156.277 118.038 164.681 108.987C173.085 99.9368 181.879 94.5969 184.403 96.9082Z" fill="white"/>
</g>
<g style="mix-blend-mode:multiply">
<path d="M259.144 194.072L198.881 280.299L183.216 302.704C182.071 301.818 180.943 300.915 179.833 299.994L195.481 277.607L255.611 191.584C255.772 191.351 255.977 191.152 256.216 190.998C256.454 190.845 256.72 190.74 256.999 190.69C257.278 190.64 257.564 190.645 257.841 190.706C258.118 190.766 258.38 190.881 258.613 191.043C259.081 191.374 259.399 191.875 259.499 192.439C259.598 193.003 259.471 193.584 259.144 194.054V194.072Z" fill="#E8E2FF"/>
</g>
<path d="M130.339 56.8276V24.2566C130.337 23.9293 130.438 23.6097 130.626 23.3421C130.815 23.0745 131.081 22.8722 131.39 22.7631C131.699 22.6541 132.033 22.6438 132.348 22.7337C132.663 22.8236 132.942 23.0092 133.146 23.2648L167.55 65.8869C167.81 66.2113 167.931 66.625 167.887 67.0381L165.106 93.7113L130.339 56.8276Z" fill="#F4B2C8"/>
<path d="M129.639 57.4917L97.0949 56.1634C96.7684 56.1516 96.4463 56.241 96.1725 56.4193C95.8988 56.5977 95.6869 56.8562 95.5657 57.1596C95.4445 57.463 95.4201 57.7964 95.4957 58.1143C95.5712 58.4321 95.7432 58.7188 95.988 58.9352L137.175 95.0484C137.329 95.185 137.509 95.2897 137.703 95.3566C137.898 95.4235 138.104 95.4512 138.309 95.4381L165.106 93.7112L129.639 57.4917Z" fill="#FC1264"/>
<path d="M257.249 194.577C257.671 194.577 258.083 194.454 258.436 194.222C258.788 193.991 259.065 193.662 259.233 193.275C259.401 192.888 259.451 192.46 259.379 192.045C259.307 191.63 259.114 191.245 258.826 190.937L131.863 56.1457C131.668 55.9393 131.434 55.7733 131.175 55.6571C130.916 55.5409 130.637 55.4769 130.353 55.4687C130.07 55.4605 129.787 55.5082 129.522 55.6092C129.257 55.7101 129.014 55.8624 128.807 56.0572C128.601 56.2519 128.435 56.4855 128.319 56.7444C128.203 57.0034 128.139 57.2827 128.13 57.5664C128.122 57.8501 128.17 58.1327 128.271 58.3979C128.372 58.6632 128.524 58.9059 128.719 59.1123L255.682 193.895C255.882 194.11 256.125 194.282 256.395 194.399C256.664 194.516 256.955 194.577 257.249 194.577Z" fill="#162A45"/>
<path d="M325.234 299.782C314.972 306.092 306.941 315.452 302.262 326.553C301.182 329.165 302.953 332.105 305.627 332.105H447.379C447.977 332.077 448.559 331.912 449.083 331.624C449.606 331.335 450.057 330.93 450.399 330.439C450.741 329.949 450.966 329.387 451.057 328.796C451.147 328.205 451.101 327.601 450.922 327.031C449.204 320.788 444.422 309.789 431.129 299.968C430.527 299.523 429.797 299.284 429.048 299.286H327.022C326.392 299.286 325.774 299.457 325.234 299.782Z" fill="#162A45"/>
<path d="M368.042 124.52L383.15 106.277C384.192 104.975 385.669 104.091 387.309 103.787C388.95 103.483 390.645 103.779 392.085 104.621C422.584 122.235 444.262 151.034 450.187 182.87C456.439 216.477 444.776 252.032 419.378 276.793C421.849 258.054 416.137 238.395 409.477 220.294C397.416 187.581 386.639 154.815 368.042 124.52Z" fill="#768BB1"/>
<path d="M426.586 296.124C419.847 295.805 413.179 295.593 406.528 295.407L400.728 295.265C375.551 294.734 350.755 294.858 325.074 294.539C324.64 286.126 331.193 253.449 360.753 235.339C371.469 228.768 375.675 214.227 374.178 201.095L374.001 201.157C360.099 205.802 345.203 206.621 330.874 203.53C328.581 208.843 324.277 213.59 318.919 214.697C316.191 215.231 313.364 214.908 310.827 213.771C308.29 212.634 306.167 210.739 304.75 208.347C304.258 207.478 303.864 206.558 303.573 205.602C302.413 201.253 302.759 196.64 304.556 192.513C306.619 187.492 310.152 183.357 313.703 179.389C326.535 165.008 340.332 151.654 354.12 138.335C350.251 134.624 346.257 129.807 342.387 126.096C341.05 124.812 339.606 123.316 339.482 121.385C339.488 120.354 339.807 119.349 340.397 118.503C340.987 117.657 341.82 117.01 342.785 116.647C344.694 116.061 346.714 115.927 348.683 116.258C356.652 117.003 364.551 118.365 372.31 120.331C375.746 121.223 379.132 122.274 382.467 123.484C391.819 126.794 400.512 131.729 408.149 138.06C428.986 155.63 439.498 184.535 440.817 212.873C442.137 241.211 435.291 269.309 426.586 296.124Z" fill="#B6C6E4"/>
<g style="mix-blend-mode:multiply">
<path d="M426.587 296.124C419.847 295.806 413.179 295.593 406.529 295.407L400.728 295.265C411.195 273.693 419.927 250.916 422.867 226.864C426.029 200.811 421.743 172.934 407.06 151.884C397.912 138.778 385.381 129.036 372.328 120.331C375.764 121.223 379.15 122.274 382.486 123.484C391.837 126.794 400.531 131.729 408.167 138.06C429.004 155.63 439.516 184.535 440.835 212.873C442.155 241.211 435.292 269.309 426.587 296.124Z" fill="#CBE3F8"/>
</g>
<g style="mix-blend-mode:multiply">
<path d="M373.984 201.157C360.081 205.802 345.185 206.621 330.857 203.53C338.483 202.47 345.975 200.606 353.209 197.969C360.523 195.197 367.484 190.707 372.142 184.048C373.593 189.629 374.214 195.394 373.984 201.157Z" fill="#CBE3F8"/>
</g>
<path d="M433.396 304.538C396.723 307.097 359.915 307.097 323.241 304.538C321.904 304.399 320.67 303.76 319.786 302.748C318.902 301.735 318.434 300.426 318.477 299.082C318.435 297.728 318.913 296.409 319.811 295.395C320.71 294.381 321.962 293.749 323.312 293.627C359.955 291.599 396.682 291.599 433.325 293.627C434.675 293.749 435.927 294.381 436.826 295.395C437.725 296.409 438.202 297.728 438.161 299.082C438.204 300.426 437.736 301.735 436.852 302.748C435.968 303.76 434.733 304.399 433.396 304.538Z" fill="#768BB1"/>
<path d="M122.971 312.791C116.752 316.342 111.798 321.748 108.802 328.253C108.649 328.6 108.585 328.98 108.616 329.358C108.646 329.735 108.77 330.1 108.977 330.418C109.183 330.736 109.466 330.998 109.798 331.179C110.131 331.361 110.504 331.457 110.883 331.459H198.439C198.794 331.459 199.144 331.375 199.461 331.216C199.778 331.056 200.053 330.825 200.265 330.54C200.476 330.256 200.618 329.925 200.68 329.576C200.741 329.226 200.72 328.867 200.617 328.527C199.555 324.923 196.597 318.574 188.379 312.897C188.001 312.638 187.553 312.499 187.095 312.499H124.052C123.673 312.505 123.302 312.606 122.971 312.791Z" fill="#162A45"/>
<path d="M174.449 257.541H134.865C147.918 290.776 119.81 311.879 119.81 311.879H189.539C189.539 311.879 161.396 290.776 174.449 257.541Z" fill="#B6C6E4"/>
<g style="mix-blend-mode:multiply">
<path d="M189.512 311.887H173.873C173.873 311.887 153.063 290.776 162.715 257.541H174.449C161.387 290.776 189.512 311.887 189.512 311.887Z" fill="#CBE3F8"/>
</g>
<path d="M173.849 251.357C184.449 240.758 184.449 223.572 173.849 212.972C163.249 202.372 146.063 202.372 135.464 212.972C124.864 223.572 124.864 240.758 135.464 251.357C146.063 261.957 163.249 261.957 173.849 251.357Z" fill="#B6C6E4"/>
<g style="mix-blend-mode:multiply">
<path d="M181.79 232.169C181.802 237.979 179.95 243.639 176.505 248.317C173.061 252.995 168.206 256.445 162.655 258.159C157.104 259.873 151.15 259.76 145.667 257.838C140.185 255.916 135.464 252.285 132.199 247.481C137.424 251.047 143.73 252.676 150.028 252.088C156.327 251.5 162.222 248.732 166.697 244.26C171.171 239.789 173.944 233.895 174.537 227.597C175.129 221.299 173.504 214.992 169.941 209.764C173.591 212.252 176.578 215.594 178.643 219.498C180.707 223.403 181.788 227.752 181.79 232.169Z" fill="#CBE3F8"/>
</g>
<g style="mix-blend-mode:soft-light" opacity="0.4">
<path d="M145.971 224.917C150.814 219.703 152.698 213.58 150.179 211.24C147.66 208.9 141.692 211.229 136.848 216.443C132.005 221.657 130.121 227.78 132.64 230.12C135.159 232.46 141.128 230.131 145.971 224.917Z" fill="white"/>
</g>
<path d="M177.602 259.577C162.321 260.578 146.992 260.578 131.712 259.577C131.174 259.541 130.671 259.303 130.303 258.91C129.934 258.517 129.729 257.999 129.728 257.461C129.725 256.916 129.932 256.391 130.307 255.995C130.681 255.599 131.194 255.363 131.738 255.336C147.007 254.547 162.306 254.547 177.575 255.336C178.118 255.365 178.63 255.602 179.004 255.997C179.378 256.393 179.586 256.917 179.585 257.461C179.584 257.999 179.379 258.517 179.011 258.91C178.642 259.303 178.139 259.541 177.602 259.577Z" fill="#768BB1"/>
<path d="M186.741 314.739C165.372 316.138 143.934 316.138 122.564 314.739C121.812 314.69 121.106 314.355 120.591 313.804C120.077 313.253 119.791 312.527 119.792 311.773C119.792 311.011 120.083 310.279 120.608 309.726C121.132 309.174 121.848 308.845 122.609 308.806C143.96 307.699 165.354 307.699 186.706 308.806C187.465 308.847 188.18 309.177 188.704 309.729C189.228 310.28 189.521 311.012 189.522 311.773C189.523 312.528 189.236 313.256 188.72 313.807C188.203 314.359 187.495 314.692 186.741 314.739Z" fill="#768BB1"/>
<path d="M231.134 313.933C231.134 313.003 231.807 312.994 231.798 313.933L231.736 320.017C231.736 320.947 231.054 320.956 231.063 320.017L231.134 313.933Z" fill="#F2942F"/>
<path d="M233.861 313.933C233.861 313.003 234.543 312.994 234.534 313.933L234.472 320.017C234.472 320.947 233.791 320.956 233.799 320.017C233.841 317.992 233.861 315.964 233.861 313.933Z" fill="#F2942F"/>
<path d="M236.669 313.933C236.669 313.003 237.342 312.994 237.333 313.933L237.271 320.017C237.271 320.947 236.598 320.956 236.607 320.017L236.669 313.933Z" fill="#F2942F"/>
<path d="M177.008 321.708H128.276C127.532 321.708 126.93 322.311 126.93 323.055V330.113C126.93 330.856 127.532 331.459 128.276 331.459H177.008C177.752 331.459 178.354 330.856 178.354 330.113V323.055C178.354 322.311 177.752 321.708 177.008 321.708Z" fill="#FEE7C9"/>
<path d="M153.107 323.683C153.107 322.754 152.425 322.754 152.443 323.683L152.505 329.776C152.505 330.662 153.178 330.706 153.169 329.776L153.107 323.683Z" fill="#FDB42B"/>
<path d="M150.335 323.683C150.335 322.754 149.662 322.754 149.671 323.683L149.733 329.776C149.733 330.662 150.406 330.706 150.397 329.776L150.335 323.683Z" fill="#FDB42B"/>
<path d="M147.573 323.683C147.573 322.754 146.891 322.754 146.899 323.683C146.899 325.714 146.92 327.745 146.961 329.776C146.961 330.662 147.643 330.706 147.635 329.776L147.573 323.683Z" fill="#FDB42B"/>
<path d="M144.8 323.683C144.8 322.754 144.127 322.754 144.136 323.683L144.198 329.776C144.198 330.662 144.871 330.706 144.862 329.776L144.8 323.683Z" fill="#FDB42B"/>
<path d="M142.029 323.683C142.029 322.754 141.355 322.754 141.364 323.683C141.364 325.711 141.364 327.739 141.426 329.776C141.426 330.662 142.099 330.706 142.091 329.776L142.029 323.683Z" fill="#FDB42B"/>
<path d="M139.266 323.683C139.266 322.754 138.584 322.754 138.593 323.683L138.655 329.776C138.655 330.662 139.337 330.706 139.328 329.776L139.266 323.683Z" fill="#FDB42B"/>
<path d="M136.494 323.683C136.494 322.754 135.821 322.754 135.83 323.683C135.83 325.714 135.85 327.745 135.892 329.776C135.892 330.662 136.565 330.706 136.556 329.776C136.538 327.739 136.512 325.729 136.494 323.683Z" fill="#FDB42B"/>
<path d="M133.722 323.683C133.722 322.754 133.049 322.754 133.058 323.683C133.058 325.711 133.058 327.739 133.12 329.776C133.12 330.662 133.793 330.706 133.784 329.776L133.722 323.683Z" fill="#FDB42B"/>
<path d="M130.959 323.683C130.959 322.754 130.277 322.754 130.286 323.683L130.348 329.776C130.348 330.662 131.03 330.706 131.021 329.776C130.997 327.739 130.976 325.708 130.959 323.683Z" fill="#FDB42B"/>
<path d="M155.046 323.683C155.046 322.754 155.728 322.754 155.719 323.683C155.719 325.714 155.699 327.745 155.657 329.776C155.657 330.662 154.976 330.706 154.984 329.776L155.046 323.683Z" fill="#FDB42B"/>
<path d="M157.836 323.683C157.836 322.754 158.509 322.754 158.5 323.683C158.5 325.714 158.48 327.745 158.438 329.776C158.438 330.662 157.765 330.706 157.774 329.776L157.836 323.683Z" fill="#FDB42B"/>
<path d="M160.608 323.683C160.608 322.754 161.281 322.754 161.272 323.683L161.246 329.776C161.246 330.662 160.564 330.706 160.581 329.776C160.575 327.739 160.584 325.708 160.608 323.683Z" fill="#FDB42B"/>
<path d="M163.371 323.683C163.371 322.754 164.053 322.754 164.044 323.683C164.044 325.714 164.023 327.745 163.982 329.776C163.982 330.662 163.3 330.706 163.309 329.776C163.338 327.739 163.359 325.708 163.371 323.683Z" fill="#FDB42B"/>
<path d="M166.143 323.683C166.143 322.754 166.816 322.754 166.807 323.683C166.807 325.714 166.786 327.745 166.745 329.776C166.745 330.662 166.072 330.706 166.081 329.776L166.143 323.683Z" fill="#FDB42B"/>
<path d="M168.914 323.683C168.914 322.754 169.587 322.754 169.579 323.683L169.517 329.776C169.517 330.662 168.835 330.706 168.852 329.776C168.87 327.739 168.891 325.708 168.914 323.683Z" fill="#FDB42B"/>
<path d="M171.677 323.683C171.677 322.754 172.359 322.754 172.35 323.683L172.288 329.776C172.288 330.662 171.606 330.706 171.615 329.776C171.645 327.739 171.666 325.708 171.677 323.683Z" fill="#FDB42B"/>
<path d="M174.449 323.683C174.449 322.754 175.122 322.754 175.113 323.683C175.113 325.714 175.093 327.745 175.051 329.776C175.051 330.662 174.378 330.706 174.387 329.776C174.405 327.739 174.432 325.729 174.449 323.683Z" fill="#FDB42B"/>
<path d="M208.508 302.208H159.775C159.032 302.208 158.429 302.811 158.429 303.555V310.612C158.429 311.356 159.032 311.959 159.775 311.959H208.508C209.251 311.959 209.854 311.356 209.854 310.612V303.555C209.854 302.811 209.251 302.208 208.508 302.208Z" fill="#FEE7C9"/>
<path d="M184.606 304.183C184.606 303.253 183.924 303.244 183.933 304.183L183.995 310.267C183.995 311.153 184.677 311.153 184.668 310.267L184.606 304.183Z" fill="#FDB42B"/>
<path d="M181.835 304.183C181.835 303.253 181.162 303.244 181.17 304.183L181.232 310.267C181.232 311.153 181.906 311.153 181.897 310.267C181.879 308.242 181.858 306.214 181.835 304.183Z" fill="#FDB42B"/>
<path d="M179.072 304.183C179.072 303.253 178.39 303.244 178.399 304.183C178.399 306.211 178.399 308.239 178.461 310.267C178.461 311.153 179.142 311.153 179.134 310.267L179.072 304.183Z" fill="#FDB42B"/>
<path d="M176.3 304.183C176.3 303.253 175.618 303.244 175.627 304.183L175.689 310.267C175.689 311.153 176.371 311.153 176.362 310.267C176.344 308.239 176.3 306.246 176.3 304.183Z" fill="#FDB42B"/>
<path d="M173.528 304.183C173.528 303.253 172.855 303.244 172.864 304.183L172.926 310.267C172.926 311.153 173.599 311.153 173.59 310.267C173.572 308.242 173.552 306.214 173.528 304.183Z" fill="#FDB42B"/>
<path d="M170.765 304.183C170.765 303.253 170.083 303.244 170.092 304.183C170.092 306.211 170.136 308.239 170.154 310.267C170.154 311.153 170.836 311.153 170.827 310.267L170.765 304.183Z" fill="#FDB42B"/>
<path d="M167.993 304.183C167.993 303.253 167.312 303.244 167.32 304.183C167.32 306.208 167.341 308.236 167.382 310.267C167.382 311.153 168.064 311.153 168.055 310.267L167.993 304.183Z" fill="#FDB42B"/>
<path d="M165.221 304.183C165.221 303.253 164.548 303.244 164.557 304.183L164.619 310.267C164.619 311.153 165.292 311.153 165.283 310.267C165.266 308.242 165.245 306.214 165.221 304.183Z" fill="#FDB42B"/>
<path d="M162.459 304.183C162.459 303.253 161.777 303.244 161.786 304.183C161.786 306.211 161.786 308.239 161.848 310.267C161.848 311.153 162.53 311.153 162.521 310.267C162.497 308.242 162.476 306.214 162.459 304.183Z" fill="#FDB42B"/>
<path d="M186.564 304.183C186.564 303.253 187.245 303.244 187.237 304.183L187.166 310.267C187.166 311.153 186.493 311.153 186.502 310.267C186.519 308.239 186.546 306.246 186.564 304.183Z" fill="#FDB42B"/>
<path d="M189.336 304.183C189.336 303.253 190.009 303.244 190 304.183C190 306.211 190 308.239 189.938 310.267C189.938 311.153 189.265 311.153 189.274 310.267C189.291 308.242 189.312 306.214 189.336 304.183Z" fill="#FDB42B"/>
<path d="M192.098 304.183C192.098 303.253 192.78 303.244 192.771 304.183C192.771 306.208 192.751 308.236 192.709 310.267C192.709 311.153 192.027 311.153 192.036 310.267L192.098 304.183Z" fill="#FDB42B"/>
<path d="M194.896 304.183C194.896 303.253 195.578 303.244 195.569 304.183L195.498 310.267C195.498 311.153 194.825 311.153 194.834 310.267C194.825 308.239 194.896 306.246 194.896 304.183Z" fill="#FDB42B"/>
<path d="M197.642 304.183C197.642 303.253 198.315 303.244 198.306 304.183L198.244 310.267C198.244 311.153 197.571 311.153 197.58 310.267C197.598 308.242 197.619 306.214 197.642 304.183Z" fill="#FDB42B"/>
<path d="M200.405 304.183C200.405 303.253 201.087 303.244 201.078 304.183C201.078 306.208 201.057 308.236 201.016 310.267C201.016 311.153 200.334 311.153 200.343 310.267L200.405 304.183Z" fill="#FDB42B"/>
<path d="M203.177 304.183C203.177 303.253 203.859 303.244 203.841 304.183C203.841 306.208 203.82 308.236 203.779 310.267C203.779 311.153 203.106 311.153 203.115 310.267L203.177 304.183Z" fill="#FDB42B"/>
<path d="M205.948 304.183C205.948 303.253 206.621 303.244 206.612 304.183L206.55 310.267C206.55 311.153 205.877 311.153 205.886 310.267C205.904 308.242 205.925 306.214 205.948 304.183Z" fill="#FDB42B"/>
<path d="M239.228 311.958H190.495C189.752 311.958 189.149 312.561 189.149 313.305V320.362C189.149 321.106 189.752 321.709 190.495 321.709H239.228C239.971 321.709 240.574 321.106 240.574 320.362V313.305C240.574 312.561 239.971 311.958 239.228 311.958Z" fill="#FEE7C9"/>
<path d="M215.327 313.933C215.327 313.003 214.645 312.994 214.662 313.933L214.724 320.017C214.724 320.947 215.397 320.956 215.389 320.017C215.371 317.989 215.344 315.988 215.327 313.933Z" fill="#FDB42B"/>
<path d="M212.555 313.933C212.555 313.003 211.882 312.994 211.891 313.933L211.953 320.017C211.953 320.947 212.626 320.956 212.617 320.017C212.611 317.992 212.59 315.964 212.555 313.933Z" fill="#FDB42B"/>
<path d="M209.792 313.933C209.792 313.003 209.11 312.994 209.119 313.933C209.119 315.964 209.139 317.992 209.181 320.017C209.181 320.947 209.863 320.956 209.854 320.017L209.792 313.933Z" fill="#FDB42B"/>
<path d="M207.02 313.933C207.02 313.003 206.338 312.994 206.356 313.933L206.418 320.017C206.418 320.947 207.091 320.956 207.082 320.017L207.02 313.933Z" fill="#FDB42B"/>
<path d="M204.248 313.933C204.248 313.003 203.575 312.994 203.584 313.933L203.646 320.017C203.646 320.947 204.319 320.956 204.31 320.017C204.293 317.992 204.272 315.964 204.248 313.933Z" fill="#FDB42B"/>
<path d="M201.485 313.933C201.485 313.003 200.803 312.994 200.812 313.933C200.812 315.964 200.833 317.992 200.874 320.017C200.874 320.947 201.556 320.956 201.547 320.017L201.485 313.933Z" fill="#FDB42B"/>
<path d="M198.714 313.933C198.714 313.003 198.032 312.994 198.05 313.933L198.112 320.017C198.112 320.947 198.785 320.956 198.776 320.017L198.714 313.933Z" fill="#FDB42B"/>
<path d="M195.942 313.933C195.942 313.003 195.269 312.994 195.277 313.933C195.277 315.961 195.277 317.989 195.339 320.017C195.339 320.947 196.012 320.956 196.004 320.017L195.942 313.933Z" fill="#FDB42B"/>
<path d="M193.179 313.933C193.179 313.003 192.497 312.994 192.506 313.933L192.568 320.017C192.568 320.947 193.25 320.956 193.241 320.017L193.179 313.933Z" fill="#FDB42B"/>
<path d="M217.284 313.933C217.284 313.003 217.966 312.994 217.957 313.933C217.957 315.964 217.936 317.992 217.895 320.017C217.895 320.947 217.213 320.956 217.222 320.017C217.251 317.992 217.272 315.964 217.284 313.933Z" fill="#FDB42B"/>
<path d="M220.056 313.933C220.056 313.003 220.729 312.994 220.72 313.933C220.72 315.964 220.699 317.992 220.658 320.017C220.658 320.947 219.985 320.956 219.994 320.017L220.056 313.933Z" fill="#FDB42B"/>
<path d="M222.828 313.933C222.828 313.003 223.501 312.994 223.492 313.933C223.492 315.961 223.492 317.989 223.43 320.017C223.43 320.947 222.748 320.956 222.757 320.017C222.783 317.989 222.801 315.988 222.828 313.933Z" fill="#FDB42B"/>
<path d="M225.59 313.933C225.59 313.003 226.272 312.994 226.263 313.933L226.201 320.017C226.201 320.947 225.52 320.956 225.528 320.017C225.558 317.992 225.579 315.964 225.59 313.933Z" fill="#FDB42B"/>
<path d="M228.362 313.933C228.362 313.003 229.035 312.994 229.026 313.933C229.026 315.964 229.005 317.992 228.964 320.017C228.964 320.947 228.291 320.956 228.3 320.017C228.318 317.989 228.344 315.988 228.362 313.933Z" fill="#FDB42B"/>
<path d="M206.143 282.699H157.411C156.668 282.699 156.065 283.302 156.065 284.046V291.103C156.065 291.847 156.668 292.45 157.411 292.45H206.143C206.887 292.45 207.49 291.847 207.49 291.103V284.046C207.49 283.302 206.887 282.699 206.143 282.699Z" fill="#FEE7C9"/>
<path d="M182.242 284.674C182.242 283.745 181.56 283.745 181.569 284.674L181.64 290.767C181.64 291.697 182.313 291.697 182.304 290.767C182.286 288.73 182.26 286.702 182.242 284.674Z" fill="#FDB42B"/>
<path d="M179.47 284.674C179.47 283.745 178.797 283.745 178.806 284.674L178.868 290.767C178.868 291.697 179.541 291.697 179.532 290.767L179.47 284.674Z" fill="#FDB42B"/>
<path d="M176.707 284.674C176.707 283.745 176.025 283.745 176.034 284.674L176.096 290.767C176.096 291.697 176.778 291.697 176.769 290.767L176.707 284.674Z" fill="#FDB42B"/>
<path d="M173.936 284.674C173.936 283.745 173.254 283.745 173.271 284.674L173.333 290.767C173.333 291.697 174.006 291.697 173.997 290.767L173.936 284.674Z" fill="#FDB42B"/>
<path d="M171.164 284.674C171.164 283.745 170.491 283.745 170.5 284.674L170.562 290.767C170.562 291.697 171.235 291.697 171.226 290.767L171.164 284.674Z" fill="#FDB42B"/>
<path d="M168.401 284.674C168.401 283.745 167.719 283.745 167.728 284.674C167.728 286.705 167.748 288.736 167.79 290.767C167.79 291.697 168.471 291.697 168.463 290.767L168.401 284.674Z" fill="#FDB42B"/>
<path d="M165.673 284.674C165.673 283.745 164.991 283.745 165.009 284.674L165.071 290.767C165.071 291.697 165.744 291.697 165.735 290.767L165.673 284.674Z" fill="#FDB42B"/>
<path d="M162.857 284.674C162.857 283.745 162.184 283.745 162.193 284.674C162.193 286.702 162.237 288.73 162.255 290.767C162.255 291.697 162.928 291.697 162.919 290.767C162.901 288.73 162.881 286.699 162.857 284.674Z" fill="#FDB42B"/>
<path d="M160.094 284.674C160.094 283.745 159.413 283.745 159.421 284.674L159.483 290.767C159.483 291.697 160.165 291.697 160.156 290.767L160.094 284.674Z" fill="#FDB42B"/>
<path d="M184.199 284.674C184.199 283.745 184.881 283.745 184.872 284.674C184.872 286.705 184.851 288.736 184.81 290.767C184.81 291.697 184.128 291.697 184.137 290.767L184.199 284.674Z" fill="#FDB42B"/>
<path d="M186.971 284.674C186.971 283.745 187.644 283.745 187.635 284.674L187.573 290.767C187.573 291.697 186.9 291.697 186.909 290.767C186.921 288.73 186.941 286.699 186.971 284.674Z" fill="#FDB42B"/>
<path d="M189.734 284.674C189.734 283.745 190.416 283.745 190.407 284.674C190.407 286.702 190.363 288.73 190.345 290.767C190.345 291.697 189.663 291.697 189.672 290.767C189.701 288.73 189.722 286.699 189.734 284.674Z" fill="#FDB42B"/>
<path d="M192.505 284.674C192.505 283.745 193.187 283.745 193.178 284.674C193.178 286.705 193.158 288.736 193.116 290.767C193.116 291.697 192.435 291.697 192.443 290.767L192.505 284.674Z" fill="#FDB42B"/>
<path d="M195.277 284.674C195.277 283.745 195.95 283.745 195.942 284.674L195.88 290.767C195.88 291.697 195.207 291.697 195.215 290.767C195.233 288.73 195.254 286.699 195.277 284.674Z" fill="#FDB42B"/>
<path d="M198.04 284.674C198.04 283.745 198.722 283.745 198.713 284.674L198.651 290.767C198.651 291.697 197.969 291.697 197.978 290.767C198.002 288.73 198.022 286.699 198.04 284.674Z" fill="#FDB42B"/>
<path d="M200.813 284.674C200.813 283.745 201.494 283.745 201.486 284.674C201.486 286.705 201.465 288.736 201.424 290.767C201.424 291.697 200.742 291.697 200.751 290.767C200.768 288.73 200.795 286.702 200.813 284.674Z" fill="#FDB42B"/>
<path d="M203.584 284.674C203.584 283.745 204.257 283.745 204.248 284.674L204.186 290.767C204.186 291.697 203.513 291.697 203.522 290.767L203.584 284.674Z" fill="#FDB42B"/>
<path d="M187.165 311.958H138.433C137.69 311.958 137.087 312.561 137.087 313.305V320.362C137.087 321.106 137.69 321.709 138.433 321.709H187.165C187.909 321.709 188.512 321.106 188.512 320.362V313.305C188.512 312.561 187.909 311.958 187.165 311.958Z" fill="#FDB42B"/>
<path d="M163.264 313.933C163.264 313.003 162.591 312.994 162.6 313.933C162.6 315.964 162.621 317.992 162.662 320.017C162.662 320.947 163.335 320.956 163.326 320.017C163.309 317.989 163.282 315.988 163.264 313.933Z" fill="#E78E1A"/>
<path d="M160.493 313.933C160.493 313.003 159.82 312.994 159.829 313.933L159.891 320.017C159.891 320.947 160.564 320.956 160.555 320.017L160.493 313.933Z" fill="#E78E1A"/>
<path d="M157.703 313.933C157.703 313.003 157.021 312.994 157.03 313.933L157.092 320.017C157.092 320.947 157.774 320.956 157.765 320.017C157.759 317.992 157.738 315.964 157.703 313.933Z" fill="#E78E1A"/>
<path d="M154.958 313.933C154.958 313.003 154.285 312.994 154.294 313.933L154.356 320.017C154.356 320.947 155.029 320.956 155.02 320.017L154.958 313.933Z" fill="#E78E1A"/>
<path d="M152.186 313.933C152.186 313.003 151.513 312.994 151.522 313.933L151.584 320.017C151.584 320.947 152.257 320.956 152.248 320.017L152.186 313.933Z" fill="#E78E1A"/>
<path d="M149.423 313.933C149.423 313.003 148.741 312.994 148.75 313.933L148.812 320.017C148.812 320.947 149.494 320.956 149.485 320.017L149.423 313.933Z" fill="#E78E1A"/>
<path d="M146.651 313.933C146.651 313.003 145.978 312.994 145.987 313.933L146.049 320.017C146.049 320.947 146.722 320.956 146.713 320.017L146.651 313.933Z" fill="#E78E1A"/>
<path d="M143.88 313.933C143.88 313.003 143.207 312.994 143.215 313.933C143.215 315.961 143.215 317.989 143.277 320.017C143.277 320.947 143.95 320.956 143.942 320.017L143.88 313.933Z" fill="#E78E1A"/>
<path d="M141.116 313.933C141.116 313.003 140.435 312.994 140.443 313.933L140.505 320.017C140.505 320.947 141.187 320.956 141.178 320.017L141.116 313.933Z" fill="#E78E1A"/>
<path d="M165.222 313.933C165.222 313.003 165.904 312.994 165.895 313.933L165.833 320.017C165.833 320.947 165.151 320.956 165.16 320.017C165.189 317.992 165.21 315.964 165.222 313.933Z" fill="#E78E1A"/>
<path d="M167.993 313.933C167.993 313.003 168.666 312.994 168.657 313.933L168.595 320.017C168.595 320.947 167.922 320.956 167.931 320.017C167.949 317.989 167.976 315.988 167.993 313.933Z" fill="#E78E1A"/>
<path d="M170.765 313.933C170.765 313.003 171.438 312.994 171.429 313.933C171.429 315.961 171.429 317.989 171.367 320.017C171.367 320.947 170.694 320.956 170.703 320.017C170.721 317.992 170.742 315.964 170.765 313.933Z" fill="#E78E1A"/>
<path d="M173.528 313.933C173.528 313.003 174.21 312.994 174.201 313.933C174.201 315.964 174.18 317.992 174.139 320.017C174.139 320.947 173.457 320.956 173.466 320.017L173.528 313.933Z" fill="#E78E1A"/>
<path d="M176.3 313.933C176.3 313.003 176.973 312.994 176.964 313.933L176.902 320.017C176.902 320.947 176.229 320.956 176.238 320.017C176.3 317.989 176.3 315.988 176.3 313.933Z" fill="#E78E1A"/>
<path d="M179.071 313.933C179.071 313.003 179.744 312.994 179.736 313.933L179.674 320.017C179.674 320.947 179.001 320.956 179.009 320.017C179.027 317.992 179.048 315.964 179.071 313.933Z" fill="#E78E1A"/>
<path d="M181.835 313.933C181.835 313.003 182.516 312.994 182.508 313.933C182.508 315.964 182.487 317.992 182.446 320.017C182.446 320.947 181.764 320.956 181.773 320.017L181.835 313.933Z" fill="#E78E1A"/>
<path d="M184.607 313.933C184.607 313.003 185.28 312.994 185.271 313.933C185.271 315.964 185.25 317.992 185.209 320.017C185.209 320.947 184.536 320.956 184.545 320.017L184.607 313.933Z" fill="#E78E1A"/>
<path d="M217.602 292.449H168.87C168.127 292.449 167.524 293.052 167.524 293.796V300.853C167.524 301.597 168.127 302.199 168.87 302.199H217.602C218.346 302.199 218.949 301.597 218.949 300.853V293.796C218.949 293.052 218.346 292.449 217.602 292.449Z" fill="#FDB42B"/>
<path d="M193.701 294.424C193.701 293.539 193.028 293.539 193.037 294.424L193.099 300.517C193.099 301.447 193.772 301.447 193.763 300.517L193.701 294.424Z" fill="#E78E1A"/>
<path d="M190.938 294.424C190.938 293.539 190.256 293.539 190.265 294.424L190.327 300.517C190.327 301.447 191.009 301.447 191 300.517C190.974 298.489 190.956 296.452 190.938 294.424Z" fill="#E78E1A"/>
<path d="M188.167 294.424C188.167 293.539 187.494 293.539 187.503 294.424L187.565 300.517C187.565 301.447 188.238 301.447 188.229 300.517L188.167 294.424Z" fill="#E78E1A"/>
<path d="M185.394 294.424C185.394 293.539 184.721 293.539 184.73 294.424L184.792 300.517C184.792 301.447 185.465 301.447 185.456 300.517L185.394 294.424Z" fill="#E78E1A"/>
<path d="M182.632 294.424C182.632 293.539 181.95 293.539 181.959 294.424C181.959 296.452 181.959 298.489 182.021 300.517C182.021 301.447 182.702 301.447 182.694 300.517L182.632 294.424Z" fill="#E78E1A"/>
<path d="M179.842 294.424C179.842 293.539 179.169 293.539 179.178 294.424L179.24 300.517C179.24 301.447 179.913 301.447 179.904 300.517L179.842 294.424Z" fill="#E78E1A"/>
<path d="M177.088 294.424C177.088 293.539 176.415 293.539 176.424 294.424C176.424 296.452 176.424 298.489 176.486 300.517C176.486 301.447 177.159 301.447 177.15 300.517L177.088 294.424Z" fill="#E78E1A"/>
<path d="M174.325 294.424C174.325 293.539 173.643 293.539 173.652 294.424L173.714 300.517C173.714 301.447 174.396 301.447 174.387 300.517L174.325 294.424Z" fill="#E78E1A"/>
<path d="M171.553 294.424C171.553 293.539 170.88 293.539 170.889 294.424C170.889 296.452 170.889 298.489 170.951 300.517C170.951 301.447 171.624 301.447 171.615 300.517L171.553 294.424Z" fill="#E78E1A"/>
<path d="M195.667 294.424C195.667 293.539 196.34 293.539 196.331 294.424C196.331 296.452 196.287 298.489 196.269 300.517C196.269 301.447 195.596 301.447 195.605 300.517L195.667 294.424Z" fill="#E78E1A"/>
<path d="M198.439 294.424C198.439 293.539 199.121 293.539 199.112 294.424L199.05 300.517C199.05 301.447 198.368 301.447 198.377 300.517C198.439 298.489 198.439 296.452 198.439 294.424Z" fill="#E78E1A"/>
<path d="M201.202 294.424C201.202 293.539 201.875 293.539 201.866 294.424L201.804 300.517C201.804 301.447 201.131 301.447 201.14 300.517C201.157 298.489 201.184 296.452 201.202 294.424Z" fill="#E78E1A"/>
<path d="M203.974 294.424C203.974 293.539 204.647 293.539 204.638 294.424C204.638 296.452 204.594 298.489 204.576 300.517C204.576 301.447 203.903 301.447 203.912 300.517C203.929 298.489 203.947 296.452 203.974 294.424Z" fill="#E78E1A"/>
<path d="M206.737 294.424C206.737 293.539 207.419 293.539 207.41 294.424C207.41 296.452 207.41 298.489 207.348 300.517C207.348 301.447 206.666 301.447 206.675 300.517L206.737 294.424Z" fill="#E78E1A"/>
<path d="M209.508 294.424C209.508 293.539 210.181 293.539 210.173 294.424L210.111 300.517C210.111 301.447 209.438 301.447 209.446 300.517C209.464 298.489 209.491 296.452 209.508 294.424Z" fill="#E78E1A"/>
<path d="M212.281 294.424C212.281 293.539 212.954 293.539 212.945 294.424L212.883 300.517C212.883 301.447 212.201 301.447 212.219 300.517C212.236 298.489 212.254 296.452 212.281 294.424Z" fill="#E78E1A"/>
<path d="M215.043 294.424C215.043 293.539 215.725 293.539 215.716 294.424C215.716 296.452 215.716 298.489 215.654 300.517C215.654 301.447 214.972 301.447 214.981 300.517L215.043 294.424Z" fill="#E78E1A"/>
<path d="M224.519 272.949H175.786C175.043 272.949 174.44 273.552 174.44 274.295V281.353C174.44 282.097 175.043 282.699 175.786 282.699H224.519C225.262 282.699 225.865 282.097 225.865 281.353V274.295C225.865 273.552 225.262 272.949 224.519 272.949Z" fill="#FDB42B"/>
<path d="M200.618 274.924C200.618 273.994 199.945 273.994 199.954 274.924C199.954 276.952 199.954 278.98 200.016 281.008C200.016 281.938 200.689 281.947 200.68 281.008L200.618 274.924Z" fill="#E78E1A"/>
<path d="M197.854 274.924C197.854 273.994 197.172 273.994 197.181 274.924L197.243 281.008C197.243 281.938 197.925 281.947 197.916 281.008C197.893 278.977 197.872 276.949 197.854 274.924Z" fill="#E78E1A"/>
<path d="M195.082 274.924C195.082 273.994 194.401 273.994 194.418 274.924L194.48 281.008C194.48 281.938 195.153 281.947 195.144 281.008C195.127 278.98 195.1 276.952 195.082 274.924Z" fill="#E78E1A"/>
<path d="M192.311 274.924C192.311 273.994 191.638 273.994 191.647 274.924C191.647 276.952 191.647 278.98 191.709 281.008C191.709 281.938 192.382 281.947 192.373 281.008L192.311 274.924Z" fill="#E78E1A"/>
<path d="M189.583 274.924C189.583 273.994 188.901 273.994 188.91 274.924C188.91 276.955 188.931 278.983 188.972 281.008C188.972 281.938 189.654 281.947 189.645 281.008L189.583 274.924Z" fill="#E78E1A"/>
<path d="M186.776 274.924C186.776 273.994 186.094 273.994 186.112 274.924L186.174 281.008C186.174 281.938 186.847 281.947 186.838 281.008C186.821 278.98 186.794 276.952 186.776 274.924Z" fill="#E78E1A"/>
<path d="M184.004 274.924C184.004 273.994 183.331 273.994 183.34 274.924C183.34 276.952 183.34 278.98 183.402 281.008C183.402 281.938 184.075 281.947 184.066 281.008L184.004 274.924Z" fill="#E78E1A"/>
<path d="M181.241 274.924C181.241 273.994 180.56 273.994 180.568 274.924L180.63 281.008C180.63 281.938 181.312 281.947 181.303 281.008L181.241 274.924Z" fill="#E78E1A"/>
<path d="M178.469 274.924C178.469 273.994 177.787 273.994 177.805 274.924C177.805 276.955 177.826 278.983 177.867 281.008C177.867 281.938 178.54 281.947 178.531 281.008C178.513 278.98 178.487 276.952 178.469 274.924Z" fill="#E78E1A"/>
<path d="M202.583 274.924C202.583 273.994 203.256 273.994 203.247 274.924C203.247 276.952 203.203 278.98 203.186 281.008C203.186 281.938 202.504 281.947 202.521 281.008L202.583 274.924Z" fill="#E78E1A"/>
<path d="M205.346 274.924C205.346 273.994 206.028 273.994 206.019 274.924C206.019 276.955 205.999 278.983 205.957 281.008C205.957 281.938 205.275 281.947 205.284 281.008C205.308 278.977 205.329 276.949 205.346 274.924Z" fill="#E78E1A"/>
<path d="M208.118 274.924C208.118 273.994 208.791 273.994 208.782 274.924L208.72 281.008C208.72 281.938 208.047 281.947 208.056 281.008C208.074 278.98 208.101 276.952 208.118 274.924Z" fill="#E78E1A"/>
<path d="M210.89 274.924C210.89 273.994 211.563 273.994 211.554 274.924C211.554 276.952 211.51 278.98 211.492 281.008C211.492 281.938 210.81 281.947 210.828 281.008C210.834 278.977 210.855 276.949 210.89 274.924Z" fill="#E78E1A"/>
<path d="M213.653 274.924C213.653 273.994 214.335 273.994 214.326 274.924L214.264 281.008C214.264 281.938 213.582 281.947 213.591 281.008L213.653 274.924Z" fill="#E78E1A"/>
<path d="M216.424 274.924C216.424 273.994 217.097 273.994 217.088 274.924L217.035 281.008C217.035 281.938 216.362 281.947 216.371 281.008C216.38 278.98 216.407 276.952 216.424 274.924Z" fill="#E78E1A"/>
<path d="M219.197 274.924C219.197 273.994 219.87 273.994 219.861 274.924L219.799 281.008C219.799 281.938 219.117 281.947 219.135 281.008L219.197 274.924Z" fill="#E78E1A"/>
<path d="M221.96 274.924C221.96 273.994 222.641 273.994 222.633 274.924L222.571 281.008C222.571 281.938 221.889 281.947 221.898 281.008L221.96 274.924Z" fill="#E78E1A"/>
<path d="M229.965 321.708H181.232C180.489 321.708 179.886 322.311 179.886 323.055V330.113C179.886 330.856 180.489 331.459 181.232 331.459H229.965C230.708 331.459 231.311 330.856 231.311 330.113V323.055C231.311 322.311 230.708 321.708 229.965 321.708Z" fill="#FDB42B"/>
<path d="M206.064 323.683C206.064 322.754 205.382 322.754 205.391 323.683L205.453 329.776C205.453 330.662 206.135 330.706 206.126 329.776C206.108 327.739 206.081 325.729 206.064 323.683Z" fill="#E78E1A"/>
<path d="M203.292 323.683C203.292 322.754 202.619 322.754 202.628 323.683C202.628 325.714 202.648 327.745 202.69 329.776C202.69 330.662 203.363 330.706 203.354 329.776L203.292 323.683Z" fill="#E78E1A"/>
<path d="M200.529 323.683C200.529 322.754 199.847 322.754 199.856 323.683L199.918 329.776C199.918 330.662 200.599 330.706 200.591 329.776L200.529 323.683Z" fill="#E78E1A"/>
<path d="M197.757 323.683C197.757 322.754 197.075 322.754 197.084 323.683C197.084 325.714 197.105 327.745 197.146 329.776C197.146 330.662 197.828 330.706 197.819 329.776L197.757 323.683Z" fill="#E78E1A"/>
<path d="M194.985 323.683C194.985 322.754 194.312 322.754 194.321 323.683L194.383 329.776C194.383 330.662 195.056 330.706 195.047 329.776L194.985 323.683Z" fill="#E78E1A"/>
<path d="M192.24 323.683C192.24 322.754 191.558 322.754 191.567 323.683C191.567 325.711 191.611 327.739 191.629 329.776C191.629 330.662 192.311 330.706 192.302 329.776C192.261 327.739 192.24 325.708 192.24 323.683Z" fill="#E78E1A"/>
<path d="M189.45 323.683C189.45 322.754 188.769 322.754 188.777 323.683L188.839 329.776C188.839 330.662 189.521 330.706 189.512 329.776L189.45 323.683Z" fill="#E78E1A"/>
<path d="M186.679 323.683C186.679 322.754 186.006 322.754 186.015 323.683L186.077 329.776C186.077 330.662 186.75 330.706 186.741 329.776C186.723 327.739 186.703 325.708 186.679 323.683Z" fill="#E78E1A"/>
<path d="M183.916 323.683C183.916 322.754 183.234 322.754 183.243 323.683L183.305 329.776C183.305 330.662 183.987 330.706 183.978 329.776L183.916 323.683Z" fill="#E78E1A"/>
<path d="M208.021 323.683C208.021 322.754 208.702 322.754 208.694 323.683C208.694 325.714 208.673 327.745 208.632 329.776C208.632 330.662 207.95 330.706 207.959 329.776C207.976 327.739 208.003 325.729 208.021 323.683Z" fill="#E78E1A"/>
<path d="M210.837 323.683C210.837 322.754 211.51 322.754 211.501 323.683C211.501 325.714 211.48 327.745 211.439 329.776C211.439 330.662 210.766 330.706 210.775 329.776L210.837 323.683Z" fill="#E78E1A"/>
<path d="M213.555 323.683C213.555 322.754 214.237 322.754 214.228 323.683C214.228 325.711 214.184 327.739 214.166 329.776C214.166 330.662 213.484 330.706 213.493 329.776L213.555 323.683Z" fill="#E78E1A"/>
<path d="M216.328 323.683C216.328 322.754 217.01 322.754 217.001 323.683L216.939 329.776C216.939 330.662 216.257 330.706 216.266 329.776C216.283 327.739 216.31 325.729 216.328 323.683Z" fill="#E78E1A"/>
<path d="M219.099 323.683C219.099 322.754 219.772 322.754 219.763 323.683C219.763 325.714 219.743 327.745 219.701 329.776C219.701 330.662 219.028 330.706 219.037 329.776C219.055 327.739 219.076 325.708 219.099 323.683Z" fill="#E78E1A"/>
<path d="M221.862 323.683C221.862 322.754 222.544 322.754 222.535 323.683C222.535 325.711 222.491 327.739 222.473 329.776C222.473 330.662 221.792 330.706 221.8 329.776L221.862 323.683Z" fill="#E78E1A"/>
<path d="M224.634 323.683C224.634 322.754 225.316 322.754 225.307 323.683L225.245 329.776C225.245 330.662 224.563 330.706 224.572 329.776C224.59 327.739 224.616 325.729 224.634 323.683Z" fill="#E78E1A"/>
<path d="M227.406 323.683C227.406 322.754 228.079 322.754 228.07 323.683L228.008 329.776C228.008 330.662 227.335 330.706 227.344 329.776C227.362 327.739 227.382 325.708 227.406 323.683Z" fill="#E78E1A"/>
<path d="M431.731 332.105H421.574C428.49 319.122 428.587 301.11 423.292 287.091C421.45 282.221 418.864 277.598 419.006 272.037C419.017 269.979 419.6 267.965 420.688 266.219C424.142 260.967 429.65 263.562 431.979 268.061C433.75 271.444 434.06 275.597 434.096 279.573C434.096 282.407 434.034 285.276 434.282 288.074C434.494 290.412 436.938 291.519 438.249 289.846C438.562 289.46 438.826 289.038 439.037 288.588C439.812 286.675 440.171 284.62 440.091 282.557C440.162 273.471 437.549 264.722 435.477 255.99C433.405 247.259 431.829 237.863 434.06 229.202C435.69 222.738 440.764 216.282 446.555 219.576C447.389 220.065 448.125 220.705 448.725 221.462C451.382 224.774 452.188 229.22 452.595 233.586C453.63 244.775 452.484 256.059 449.221 266.812C448.548 268.982 447.786 271.24 448.539 273.551C448.667 274.086 448.945 274.573 449.341 274.956C449.736 275.339 450.232 275.601 450.771 275.712C452.542 275.889 453.427 273.941 454.1 272.223C458.13 261.392 460.113 249.65 463.204 238.385C466.295 227.121 470.758 215.883 478.453 208.48C481.323 205.717 484.705 203.503 488.513 203.778C489.394 203.837 490.256 204.06 491.055 204.433C495.961 206.735 496.528 212.678 495.917 217.814C494.482 230.026 487.752 240.316 480.782 249.366C475.053 256.805 468.863 264.067 464.577 272.701C463.195 275.499 465.737 278.723 468.119 277.226C468.914 276.711 469.656 276.118 470.333 275.455C472.662 273.232 474.451 270.328 476.399 267.627C481.071 261.049 486.989 255.452 493.818 251.155C496.926 249.225 500.291 247.613 503.904 248.366C505.243 248.633 506.474 249.285 507.447 250.243C511.919 254.671 509.776 262.446 506.411 267.379C501.389 274.711 494.163 279.387 486.751 282.637C479.339 285.887 471.581 287.95 464.116 291.023C462.593 291.661 461.008 292.387 460.113 294.132C459.85 294.633 459.697 295.185 459.667 295.751C459.636 296.316 459.728 296.882 459.936 297.408C460.902 299.604 463.434 299.179 465.347 298.533L486.893 291.094C490.249 289.934 493.694 288.765 497.227 289.854C498.565 290.255 499.762 291.026 500.681 292.077C505.029 297.045 501.965 304.998 497.67 309.08C491.471 314.951 483.2 316.554 475.31 316.714C467.419 316.873 459.485 315.828 451.683 317.201C443.881 318.573 435.574 323.816 431.731 332.105Z" fill="#AEAAD6"/>
<path opacity="0.5" d="M427.498 329.74C441.293 307.467 453.537 284.269 464.143 260.312C471.484 243.761 478.418 226.28 490.231 214.033" stroke="#342A98" stroke-linecap="round" stroke-linejoin="round"/>
<path opacity="0.5" d="M439.949 308.788C459.561 309.216 479.044 305.511 497.13 297.914" stroke="#342A98" stroke-linecap="round" stroke-linejoin="round"/>
<path opacity="0.5" d="M452.436 285.728C470.271 283.399 487.371 273.631 500.141 258.47" stroke="#342A98" stroke-linecap="round" stroke-linejoin="round"/>
<path opacity="0.5" d="M442.995 227.431C441.367 249.608 442.911 271.904 447.583 293.645" stroke="#342A98" stroke-linecap="round" stroke-linejoin="round"/>
<path opacity="0.5" d="M425.629 269.673C427.584 284.907 431.229 299.877 436.495 314.305" stroke="#342A98" stroke-linecap="round" stroke-linejoin="round"/>
<path d="M324.056 332.725L231.851 331.768C231.093 331.762 230.367 331.461 229.826 330.928C229.286 330.396 228.974 329.675 228.955 328.917L226.556 221.232C226.546 220.843 226.615 220.455 226.757 220.092C226.9 219.73 227.114 219.399 227.386 219.12C227.658 218.841 227.984 218.62 228.343 218.468C228.702 218.317 229.088 218.239 229.478 218.239L311.835 218.363C312.553 218.367 313.244 218.633 313.779 219.111C314.314 219.589 314.656 220.246 314.74 220.958L326.961 329.448C327.011 329.859 326.973 330.276 326.85 330.671C326.727 331.067 326.521 331.431 326.247 331.741C325.972 332.051 325.635 332.299 325.257 332.468C324.879 332.638 324.47 332.725 324.056 332.725Z" fill="#768BB1"/>
<path d="M289.651 217.247C287.494 216.557 285.255 216.152 282.992 216.043C281.395 216.012 279.833 215.56 278.467 214.732C277.947 214.332 277.527 213.818 277.237 213.231C276.946 212.643 276.795 211.996 276.793 211.341C276.787 210.721 276.867 210.104 277.032 209.507C277.602 208.485 277.858 207.318 277.767 206.151C277.475 202.281 273.561 199.164 269.018 199.164C264.475 199.164 261.048 202.281 261.234 206.142C261.267 206.747 261.389 207.344 261.597 207.913C261.799 208.47 262.07 209 262.403 209.49C262.648 210.088 262.815 210.717 262.899 211.358C262.994 211.979 262.933 212.613 262.721 213.203C262.509 213.794 262.153 214.323 261.685 214.741C260.57 215.627 258.914 215.875 257.346 216.034C255.147 216.131 252.972 216.53 250.882 217.221C249.66 217.666 248.614 218.492 247.897 219.576C247.778 219.762 247.712 219.975 247.703 220.195C247.695 220.415 247.746 220.634 247.851 220.827C247.956 221.021 248.111 221.182 248.3 221.296C248.489 221.409 248.704 221.47 248.924 221.471H270.523H291.945C292.176 221.473 292.402 221.41 292.599 221.288C292.795 221.166 292.953 220.992 293.054 220.784C293.155 220.577 293.195 220.345 293.169 220.115C293.144 219.886 293.054 219.668 292.91 219.488C292.042 218.465 290.917 217.691 289.651 217.247ZM265.848 206.178C265.741 204.46 267.282 203.078 269.292 203.078C271.303 203.078 273.038 204.469 273.162 206.178C273.213 206.808 273.037 207.436 272.666 207.949L272.534 208.099C272.479 208.171 272.42 208.239 272.356 208.303L272.162 208.489C272.043 208.588 271.919 208.679 271.79 208.764L271.621 208.861L271.232 209.038L271.09 209.1C270.905 209.164 270.716 209.214 270.523 209.251H270.373C270.156 209.287 269.937 209.304 269.717 209.304C269.128 209.31 268.544 209.189 268.005 208.951C267.466 208.713 266.984 208.362 266.591 207.922C266.166 207.433 265.906 206.823 265.848 206.178Z" fill="#162A45"/>
<path d="M307.363 224.925C307.958 224.926 308.531 225.148 308.973 225.547C309.414 225.946 309.693 226.494 309.754 227.086L317.104 295.212C317.74 300.756 316.561 306.357 313.742 311.173C310.924 315.989 306.619 319.76 301.474 321.921L301.164 322.054C297.792 323.46 294.189 324.231 290.537 324.329C289.997 324.329 289.448 324.329 288.908 324.329L237.324 323.825C236.699 323.82 236.1 323.573 235.653 323.135C235.207 322.697 234.949 322.103 234.933 321.478L232.276 227.245C232.266 226.918 232.323 226.592 232.444 226.288C232.565 225.984 232.746 225.708 232.978 225.476C233.209 225.245 233.486 225.063 233.79 224.943C234.094 224.822 234.42 224.765 234.747 224.775L307.363 224.925Z" fill="white"/>
<path d="M316.794 292.635L317.069 295.212C317.705 300.756 316.526 306.357 313.707 311.173C310.889 315.989 306.584 319.76 301.439 321.921L301.129 322.054C297.757 323.46 294.154 324.232 290.502 324.33C291.439 324.107 292.311 323.669 293.049 323.05C293.787 322.432 294.371 321.65 294.755 320.766C295.138 319.882 295.31 318.922 295.258 317.96C295.205 316.999 294.929 316.062 294.452 315.226C300.766 314.792 306.292 311.604 310.542 307.548C312.781 305.546 314.535 303.059 315.67 300.278C316.494 297.817 316.875 295.229 316.794 292.635Z" fill="#A1C5EB"/>
<path d="M301.74 267.68L260.924 266.99C259.578 266.99 259.684 268.867 261.031 268.893L301.917 269.593C303.281 269.611 303.095 267.707 301.74 267.68Z" fill="#A1C5EB"/>
<path d="M285.924 272.79L261.633 272.507C261.499 272.504 261.367 272.528 261.244 272.579C261.121 272.629 261.009 272.704 260.917 272.8C260.824 272.896 260.752 273.01 260.706 273.134C260.659 273.259 260.639 273.392 260.646 273.525C260.654 273.658 260.689 273.788 260.749 273.907C260.809 274.025 260.893 274.131 260.995 274.215C261.098 274.3 261.217 274.363 261.345 274.4C261.473 274.436 261.607 274.446 261.739 274.428L286.074 274.721C287.438 274.738 287.287 272.808 285.924 272.79Z" fill="#A1C5EB"/>
<path d="M252.839 262.199C252.748 262.046 252.618 261.921 252.463 261.835C252.307 261.749 252.131 261.707 251.954 261.712C248.028 261.712 244.105 261.611 240.185 261.41C240.074 261.406 239.963 261.421 239.857 261.455H239.768C239.534 261.455 239.308 261.548 239.142 261.714C238.976 261.88 238.883 262.105 238.883 262.34L239.334 275.881C239.325 275.933 239.325 275.987 239.334 276.04C239.338 276.174 239.368 276.306 239.423 276.429C239.478 276.551 239.557 276.661 239.655 276.753C239.753 276.844 239.869 276.915 239.994 276.962C240.12 277.008 240.254 277.029 240.388 277.023L252.273 277.182C252.91 277.439 253.796 277.182 253.76 276.359C253.548 271.801 253.341 267.279 253.14 262.792C253.121 262.563 253.013 262.35 252.839 262.199ZM241.327 275.128L240.946 263.323C244.329 263.494 247.709 263.58 251.086 263.58C251.251 267.453 251.422 271.346 251.599 275.261L241.327 275.128Z" fill="#A1C5EB"/>
<path d="M297.232 296.629L263.28 295.62C261.889 295.62 261.996 297.595 263.386 297.639L297.409 298.693C298.808 298.693 298.623 296.674 297.232 296.629Z" fill="#A1C5EB"/>
<path d="M308.505 302.341L264.015 301.456C262.624 301.456 262.73 303.466 264.13 303.493L308.709 304.378C310.117 304.414 309.913 302.368 308.505 302.341Z" fill="#A1C5EB"/>
<path d="M254.23 290.864C254.139 290.699 254.004 290.563 253.839 290.47C253.675 290.378 253.488 290.334 253.3 290.342C249.273 290.342 245.241 290.227 241.203 289.997C241.086 289.992 240.969 290.007 240.858 290.041H240.751C240.627 290.034 240.502 290.054 240.386 290.099C240.27 290.144 240.164 290.213 240.076 290.302C239.988 290.391 239.92 290.497 239.876 290.614C239.833 290.73 239.814 290.855 239.821 290.98L240.3 305.299C240.3 305.361 240.3 305.414 240.344 305.467C240.346 305.608 240.376 305.746 240.432 305.875C240.489 306.003 240.57 306.12 240.671 306.217C240.772 306.314 240.892 306.39 241.022 306.441C241.153 306.492 241.293 306.516 241.433 306.512L253.663 306.707C254.318 306.973 255.221 306.707 255.186 305.822C254.968 300.992 254.749 296.21 254.531 291.476C254.523 291.359 254.493 291.245 254.441 291.14C254.39 291.035 254.318 290.941 254.23 290.864ZM242.407 304.476L241.965 291.989C245.436 292.184 248.91 292.284 252.388 292.29C252.565 296.376 252.745 300.508 252.928 304.688L242.407 304.476Z" fill="#A1C5EB"/>
<path d="M296.993 235.286L257.541 234.817C256.23 234.817 256.328 236.588 257.639 236.588L297.161 237.075C298.507 237.102 298.312 235.304 296.993 235.286Z" fill="#A1C5EB"/>
<path d="M301.04 241.6L258.338 240.591C257.028 240.591 257.125 242.362 258.436 242.362L301.217 243.371C302.546 243.424 302.369 241.6 301.04 241.6Z" fill="#A1C5EB"/>
<path d="M289.927 247.436L258.932 247.25C258.811 247.257 258.694 247.288 258.585 247.34C258.477 247.393 258.379 247.466 258.299 247.556C258.137 247.738 258.054 247.977 258.068 248.22C258.083 248.463 258.193 248.69 258.374 248.852C258.556 249.014 258.795 249.097 259.038 249.083L290.033 249.269C291.423 249.278 291.255 247.445 289.927 247.436Z" fill="#A1C5EB"/>
<path d="M251.573 235.065C251.48 234.916 251.349 234.795 251.193 234.714C251.037 234.633 250.863 234.595 250.687 234.604C246.868 234.604 243.051 234.519 239.237 234.348C239.128 234.333 239.018 234.333 238.909 234.348H238.812C238.584 234.347 238.366 234.434 238.201 234.591C238.036 234.748 237.938 234.962 237.926 235.189L238.36 248.012C238.355 248.065 238.355 248.118 238.36 248.171C238.383 248.423 238.503 248.657 238.694 248.822C238.886 248.987 239.135 249.072 239.387 249.057L250.953 249.181C251.573 249.42 252.432 249.181 252.396 248.393C252.202 244.071 252.007 239.788 251.812 235.543C251.79 235.361 251.706 235.192 251.573 235.065ZM240.388 247.33L239.99 236.154C243.284 236.305 246.569 236.384 249.864 236.384C250.014 240.042 250.182 243.726 250.342 247.445L240.388 247.33Z" fill="#A1C5EB"/>
<path d="M253.734 234.781L246.259 242.362L245.418 243.247C245.164 243.581 244.866 243.879 244.533 244.133C244.276 244.266 244.462 244.266 244.205 244.133C243.948 244 243.886 243.823 243.78 243.717L242.753 242.734L238.679 238.82C237.794 237.934 236.385 239.218 237.28 240.086L242.035 244.664C242.586 245.396 243.381 245.905 244.276 246.099C244.714 246.085 245.142 245.97 245.529 245.765C245.916 245.559 246.251 245.267 246.507 244.912L255.221 236.057C256.063 235.198 254.566 233.931 253.734 234.781Z" fill="#FC1264"/>
<path d="M364.693 59.5321L363.468 59.3966L360.465 59.0906C360.933 54.5076 360.481 49.8774 359.136 45.4714L363.224 44.2288C361.754 39.359 359.336 34.8275 356.11 30.8946L352.802 33.5917C349.895 30.0186 346.305 27.0607 342.242 24.891L344.247 21.1351C339.763 18.7393 334.855 17.2421 329.797 16.7275L329.358 20.9715C326.748 20.7034 324.116 20.7347 321.513 21.0647C319.557 21.3137 317.625 21.7276 315.739 22.302L314.496 18.2146C313.645 18.472 312.809 18.7569 311.988 19.0694C308.062 20.5506 304.405 22.6644 301.163 25.3271L303.859 28.6354C300.397 31.4509 297.513 34.9088 295.363 38.8188C295.294 38.9437 295.226 39.0691 295.158 39.1952L294.455 38.8188L291.405 37.1902C291.117 37.7266 290.842 38.2695 290.58 38.8188C288.658 42.8545 287.447 47.1917 287 51.6395L287.035 51.6456L289.829 51.9306L291.243 52.0792C291.159 52.9041 291.104 53.7345 291.079 54.5705C291.025 56.3923 291.117 58.2154 291.351 60.0228C291.601 61.9445 292.01 63.8423 292.573 65.6966L289.563 66.6112L288.484 66.9409C288.803 67.9927 289.163 69.0204 289.563 70.0241C291.029 73.7265 293.058 77.1806 295.578 80.2646L298.886 77.5684C301.806 81.1384 305.401 84.097 309.467 86.2744L307.461 90.0321C311.938 92.4285 316.841 93.9264 321.893 94.4414L321.997 93.4986L322.331 90.2C326.919 90.6664 331.553 90.2126 335.962 88.8651L337.205 92.9534C342.071 91.4863 346.599 89.0714 350.528 85.8479L347.83 82.5396C351.408 79.6313 354.371 76.0398 356.546 71.9746L360.303 73.9796C362.699 69.4949 364.196 64.5854 364.709 59.5268L364.693 59.5321ZM343.449 62.4675C342.411 65.1274 340.782 67.5166 338.685 69.4549C336.588 71.3931 334.078 72.8296 331.345 73.656C321.372 76.6864 310.832 71.0583 307.797 61.0701C307.403 59.7796 307.15 58.4505 307.04 57.1058C306.33 48.4429 311.712 40.1555 320.367 37.5261C323.759 36.4941 327.374 36.4383 330.797 37.365C334.22 38.2917 337.313 40.1635 339.721 42.7661C342.13 45.3686 343.757 48.5968 344.416 52.0811C345.075 55.5653 344.74 59.1648 343.449 62.4675ZM364.693 59.5321L363.468 59.3966L360.465 59.0906C360.933 54.5076 360.481 49.8774 359.136 45.4714L363.224 44.2288C361.754 39.359 359.336 34.8275 356.11 30.8946L352.802 33.5917C349.895 30.0186 346.305 27.0607 342.242 24.891L344.247 21.1351C339.763 18.7393 334.855 17.2421 329.797 16.7275L329.358 20.9715C326.748 20.7034 324.116 20.7347 321.513 21.0647C319.557 21.3137 317.625 21.7276 315.739 22.302L314.496 18.2146C313.645 18.472 312.809 18.7569 311.988 19.0694C308.062 20.5506 304.405 22.6644 301.163 25.3271L303.859 28.6354C300.397 31.4509 297.513 34.9088 295.363 38.8188C295.294 38.9437 295.226 39.0691 295.158 39.1952L294.455 38.8188L291.405 37.1902C291.117 37.7266 290.842 38.2695 290.58 38.8188C288.658 42.8545 287.447 47.1917 287 51.6395L287.035 51.6456L289.829 51.9306L291.243 52.0792C291.159 52.9041 291.104 53.7345 291.079 54.5705C291.025 56.3923 291.117 58.2154 291.351 60.0228C291.601 61.9445 292.01 63.8423 292.573 65.6966L289.563 66.6112L288.484 66.9409C288.803 67.9927 289.163 69.0204 289.563 70.0241C291.029 73.7265 293.058 77.1806 295.578 80.2646L298.886 77.5684C301.806 81.1384 305.401 84.097 309.467 86.2744L307.461 90.0321C311.938 92.4285 316.841 93.9264 321.893 94.4414L321.997 93.4986L322.331 90.2C326.919 90.6664 331.553 90.2126 335.962 88.8651L337.205 92.9534C342.071 91.4863 346.599 89.0714 350.528 85.8479L347.83 82.5396C351.408 79.6313 354.371 76.0398 356.546 71.9746L360.303 73.9796C362.699 69.4949 364.196 64.5854 364.709 59.5268L364.693 59.5321ZM343.449 62.4675C342.411 65.1274 340.782 67.5166 338.685 69.4549C336.588 71.3931 334.078 72.8296 331.345 73.656C321.372 76.6864 310.832 71.0583 307.797 61.0701C307.403 59.7796 307.15 58.4505 307.04 57.1058C306.33 48.4429 311.712 40.1555 320.367 37.5261C323.759 36.4941 327.374 36.4383 330.797 37.365C334.22 38.2917 337.313 40.1635 339.721 42.7661C342.13 45.3686 343.757 48.5968 344.416 52.0811C345.075 55.5653 344.74 59.1648 343.449 62.4675Z" fill="#AEAAD6"/>
<path d="M358.763 60.4773L358.921 58.9313C359.037 57.8176 359.096 56.6987 359.097 55.579C359.093 52.3067 358.606 49.0529 357.65 45.9233L357.2 44.4371L361.258 43.206C359.999 39.5747 358.181 36.1625 355.868 33.0929L352.574 35.7786L351.593 34.5677C348.819 31.1521 345.388 28.3266 341.504 26.2574L340.144 25.5214L342.132 21.798C338.676 20.1255 334.981 18.9983 331.18 18.4563L330.747 22.6704L329.203 22.5121C326.712 22.2553 324.2 22.2848 321.716 22.6H321.712C319.842 22.8374 317.996 23.2328 316.193 23.7819L314.709 24.233L313.478 20.1746C313.164 20.2837 312.852 20.3971 312.544 20.515L312.21 20.6495C309.052 21.8764 306.078 23.532 303.371 25.5697L306.054 28.8631L304.843 29.8436C301.758 32.3455 299.154 35.3872 297.156 38.8204C296.943 39.1851 296.735 39.5556 296.533 39.932L295.8 41.295L292.072 39.3041C290.395 42.7599 289.268 46.4558 288.73 50.2587L289.986 50.3862L292.951 50.6896L292.792 52.2338C292.713 53.0059 292.661 53.786 292.637 54.5669C292.627 54.9081 292.62 55.2484 292.62 55.5887C292.622 57.0043 292.713 58.4183 292.895 59.8221C293.134 61.6586 293.525 63.4722 294.063 65.2445L294.514 66.7298L290.456 67.9609C290.632 68.4622 290.816 68.959 291.01 69.448C292.227 72.519 293.847 75.4142 295.828 78.0572L299.107 75.383L300.086 76.586C302.873 80.0032 306.31 82.8327 310.2 84.9104L311.563 85.6429L309.577 89.3654C313.029 91.0366 316.72 92.1638 320.517 92.7071L320.944 88.493L322.49 88.6513C323.6 88.7649 324.716 88.8218 325.832 88.8219C329.113 88.8211 332.375 88.3348 335.514 87.3788L336.999 86.9277L338.23 90.9861C341.855 89.7279 345.261 87.9111 348.325 85.6016L345.641 82.3091L346.858 81.3303C350.279 78.5552 353.11 75.1228 355.183 71.2358L355.916 69.8718L359.641 71.8601C361.313 68.4032 362.44 64.7082 362.983 60.9064L358.763 60.4773ZM344.894 63.0337C343.392 66.8613 340.772 70.1479 337.376 72.4657C333.979 74.7834 329.964 76.0249 325.852 76.0285C316.801 76.0285 308.948 70.1981 306.312 61.5185C305.887 60.122 305.612 58.6843 305.492 57.2297C305.473 56.9887 305.457 56.7469 305.446 56.5051C305.432 56.1926 305.424 55.8816 305.424 55.572C305.424 46.5213 311.25 38.6718 319.916 36.038C321.848 35.4493 323.857 35.1494 325.877 35.1481H326.048C326.664 35.1542 327.293 35.1877 327.911 35.2492C331.262 35.5924 334.477 36.7548 337.273 38.634C337.632 38.8761 337.984 39.1288 338.328 39.392C341.754 42.0261 344.257 45.6795 345.475 49.8262C346.693 53.973 346.564 58.3993 345.107 62.4682C345.039 62.6573 344.968 62.8455 344.894 63.0337Z" stroke="white" stroke-width="0.5" stroke-miterlimit="10"/>
<path d="M277.988 34.7859L277.278 34.7075L275.54 34.5303C275.811 31.8765 275.549 29.1954 274.77 26.6441L277.137 25.9246C276.286 23.1047 274.886 20.4808 273.018 18.2034L271.103 19.7652C269.419 17.6961 267.341 15.9834 264.988 14.727L266.149 12.5522C263.552 11.1649 260.71 10.2979 257.782 10L257.527 12.4575C256.016 12.3022 254.492 12.3204 252.985 12.5114C251.852 12.6556 250.733 12.8953 249.641 13.2279L248.922 10.8611C248.429 11.0101 247.945 11.1751 247.469 11.356C245.196 12.2137 243.079 13.4378 241.201 14.9796L242.762 16.8952C240.758 18.5255 239.087 20.5278 237.843 22.7919C237.803 22.8642 237.763 22.9369 237.724 23.0098L237.317 22.7919L235.551 21.8488C235.384 22.1595 235.225 22.4738 235.073 22.7919C233.96 25.1288 233.259 27.6402 233 30.2157L233.02 30.2193L234.638 30.3843L235.457 30.4703C235.408 30.9479 235.376 31.4288 235.362 31.9129C235.331 32.9678 235.384 34.0235 235.52 35.07C235.664 36.1828 235.901 37.2817 236.227 38.3554L234.484 38.885L233.86 39.076C234.044 39.685 234.252 40.2801 234.484 40.8613C235.333 43.0051 236.508 45.0052 237.967 46.791L239.883 45.2298C241.573 47.297 243.655 49.0102 246.009 50.271L244.848 52.4469C247.441 53.8345 250.279 54.7018 253.205 55L253.265 54.4542L253.459 52.5441C256.115 52.8142 258.798 52.5514 261.351 51.7711L262.071 54.1385C264.889 53.2889 267.511 51.8906 269.786 50.024L268.224 48.1084C270.295 46.4243 272.011 44.3447 273.27 41.9907L275.446 43.1517C276.833 40.5548 277.7 37.712 277.998 34.7828L277.988 34.7859ZM265.687 36.4856C265.086 38.0258 264.142 39.4093 262.928 40.5317C261.714 41.654 260.261 42.4858 258.678 42.9643C252.903 44.7191 246.8 41.4601 245.042 35.6765C244.815 34.9292 244.668 34.1596 244.604 33.381C244.193 28.3647 247.309 23.5659 252.321 22.0434C254.285 21.4458 256.379 21.4135 258.361 21.9501C260.343 22.4867 262.133 23.5705 263.528 25.0776C264.923 26.5846 265.865 28.4539 266.247 30.4714C266.628 32.4889 266.434 34.5732 265.687 36.4856ZM277.988 34.7859L277.278 34.7075L275.54 34.5303C275.811 31.8765 275.549 29.1954 274.77 26.6441L277.137 25.9246C276.286 23.1047 274.886 20.4808 273.018 18.2034L271.103 19.7652C269.419 17.6961 267.341 15.9834 264.988 14.727L266.149 12.5522C263.552 11.1649 260.71 10.2979 257.782 10L257.527 12.4575C256.016 12.3022 254.492 12.3204 252.985 12.5114C251.852 12.6556 250.733 12.8953 249.641 13.2279L248.922 10.8611C248.429 11.0101 247.945 11.1751 247.469 11.356C245.196 12.2137 243.079 13.4378 241.201 14.9796L242.762 16.8952C240.758 18.5255 239.087 20.5278 237.843 22.7919C237.803 22.8642 237.763 22.9369 237.724 23.0098L237.317 22.7919L235.551 21.8488C235.384 22.1595 235.225 22.4738 235.073 22.7919C233.96 25.1288 233.259 27.6402 233 30.2157L233.02 30.2193L234.638 30.3843L235.457 30.4703C235.408 30.9479 235.376 31.4288 235.362 31.9129C235.331 32.9678 235.384 34.0235 235.52 35.07C235.664 36.1828 235.901 37.2817 236.227 38.3554L234.484 38.885L233.86 39.076C234.044 39.685 234.252 40.2801 234.484 40.8613C235.333 43.0051 236.508 45.0052 237.967 46.791L239.883 45.2298C241.573 47.297 243.655 49.0102 246.009 50.271L244.848 52.4469C247.441 53.8345 250.279 54.7018 253.205 55L253.265 54.4542L253.459 52.5441C256.115 52.8142 258.798 52.5514 261.351 51.7711L262.071 54.1385C264.889 53.2889 267.511 51.8906 269.786 50.024L268.224 48.1084C270.295 46.4243 272.011 44.3447 273.27 41.9907L275.446 43.1517C276.833 40.5548 277.7 37.712 277.998 34.7828L277.988 34.7859ZM265.687 36.4856C265.086 38.0258 264.142 39.4093 262.928 40.5317C261.714 41.654 260.261 42.4858 258.678 42.9643C252.903 44.7191 246.8 41.4601 245.042 35.6765C244.815 34.9292 244.668 34.1596 244.604 33.381C244.193 28.3647 247.309 23.5659 252.321 22.0434C254.285 21.4458 256.379 21.4135 258.361 21.9501C260.343 22.4867 262.133 23.5705 263.528 25.0776C264.923 26.5846 265.865 28.4539 266.247 30.4714C266.628 32.4889 266.434 34.5732 265.687 36.4856Z" fill="#AEAAD6"/>
<path d="M274.555 35.3331L274.646 34.4379C274.713 33.7931 274.747 33.1452 274.748 32.4968C274.746 30.602 274.463 28.7179 273.91 26.9057L273.649 26.0451L275.999 25.3322C275.27 23.2296 274.217 21.2537 272.878 19.4763L270.971 21.0314L270.403 20.3302C268.796 18.3525 266.81 16.7163 264.561 15.5182L263.773 15.092L264.924 12.936C262.923 11.9675 260.784 11.3148 258.583 11.001L258.332 13.4411L257.438 13.3495C255.996 13.2008 254.541 13.2179 253.102 13.4004H253.1C252.017 13.5379 250.948 13.7668 249.905 14.0848L249.045 14.346L248.332 11.996C248.15 12.0591 247.97 12.1248 247.791 12.193L247.598 12.271C245.769 12.9814 244.047 13.94 242.48 15.12L244.033 17.027L243.332 17.5948C241.546 19.0435 240.038 20.8048 238.881 22.7928C238.758 23.0039 238.637 23.2185 238.52 23.4364L238.096 24.2257L235.937 23.0729C234.966 25.0739 234.314 27.214 234.002 29.4161L234.729 29.4899L236.446 29.6656L236.354 30.5598C236.308 31.0069 236.278 31.4586 236.264 31.9107C236.258 32.1083 236.255 32.3054 236.255 32.5024C236.255 33.3221 236.309 34.1409 236.414 34.9538C236.552 36.0172 236.778 37.0674 237.09 38.0936L237.351 38.9536L235.002 39.6665C235.103 39.9568 235.21 40.2445 235.322 40.5276C236.027 42.3059 236.965 43.9824 238.112 45.5128L240.011 43.9643L240.578 44.6609C242.191 46.6396 244.182 48.278 246.434 49.4811L247.224 49.9053L246.073 52.0607C248.072 53.0284 250.209 53.6812 252.408 53.9957L252.655 51.5556L253.551 51.6473C254.193 51.713 254.839 51.746 255.486 51.746C257.385 51.7456 259.275 51.464 261.092 50.9104L261.952 50.6492L262.665 52.9992C264.764 52.2707 266.736 51.2187 268.51 49.8813L266.956 47.9748L267.661 47.4081C269.642 45.8011 271.281 43.8136 272.482 41.5628L272.906 40.7731L275.063 41.9244C276.031 39.9226 276.684 37.7831 276.998 35.5816L274.555 35.3331ZM266.524 36.8134C265.654 39.0298 264.137 40.9329 262.17 42.275C260.203 43.6171 257.878 44.336 255.497 44.338C250.256 44.338 245.709 40.962 244.183 35.9361C243.937 35.1274 243.778 34.2949 243.708 33.4526C243.697 33.3131 243.688 33.1731 243.682 33.033C243.673 32.8521 243.669 32.672 243.669 32.4928C243.669 27.252 247.042 22.7067 252.06 21.1816C253.179 20.8407 254.342 20.6671 255.512 20.6663H255.611C255.967 20.6699 256.332 20.6892 256.689 20.7249C258.63 20.9236 260.492 21.5967 262.11 22.6848C262.319 22.825 262.522 22.9714 262.721 23.1238C264.706 24.6491 266.155 26.7645 266.86 29.1657C267.565 31.5669 267.491 34.1299 266.647 36.486C266.608 36.5955 266.567 36.7045 266.524 36.8134Z" stroke="white" stroke-width="0.5" stroke-miterlimit="10"/>
<path d="M495.806 60.3937C495.807 53.7161 494.018 47.1602 490.627 41.4073C487.235 35.6544 482.365 30.9144 476.521 27.6798C470.678 24.4451 464.074 22.8339 457.397 23.0135C450.72 23.1931 444.213 25.157 438.552 28.7011C432.891 32.2452 428.282 37.2402 425.205 43.1671C422.128 49.094 420.695 55.7365 421.054 62.4045C421.413 69.0725 423.552 75.5226 427.248 81.0847C430.945 86.6469 436.063 91.118 442.072 94.0336C444.078 95.0104 445.768 96.5314 446.949 98.423C448.13 100.315 448.756 102.5 448.753 104.73V112.153H468.053V104.737C468.041 102.518 468.654 100.341 469.822 98.4539C470.99 96.5671 472.666 95.0472 474.658 94.0683C480.994 91.0125 486.34 86.2316 490.081 80.2749C493.822 74.3182 495.807 67.4273 495.806 60.3937Z" fill="#FDB42B"/>
<path d="M484.036 33.176C491.176 45.506 491.607 62.3676 484.155 74.0442C480.081 80.6166 474.53 86.1481 467.943 90.1986C461.356 94.2492 453.914 96.707 446.209 97.3766C447.855 99.475 448.75 102.064 448.754 104.73V112.153H468.053V104.737C468.041 102.518 468.654 100.341 469.822 98.4539C470.99 96.567 472.666 95.0472 474.658 94.0683C480.121 91.434 484.862 87.5103 488.47 82.6358C492.079 77.7612 494.447 72.0822 495.37 66.0886C496.293 60.095 495.744 53.9669 493.769 48.233C491.795 42.499 488.454 37.3314 484.036 33.176Z" fill="#E78E1A"/>
<path d="M461.574 135.93H454.719C453.612 135.93 452.551 135.491 451.769 134.709C450.987 133.927 450.547 132.866 450.547 131.76V111.569H465.738V131.809C465.725 132.905 465.281 133.952 464.502 134.724C463.722 135.495 462.67 135.929 461.574 135.93Z" fill="#1D1526"/>
<path d="M469.061 103.889H447.21V131.698H469.061V103.889Z" fill="#AEAAD6"/>
<path d="M455.4 103.889H449.838V131.698H455.4V103.889Z" fill="#504EA0"/>
<path d="M466.398 26.9275C459.337 25.1767 451.904 25.6908 445.151 28.397C438.398 31.1033 432.668 35.8645 428.772 42.0066C424.876 48.1487 423.011 55.3604 423.442 62.6208C423.872 69.8811 426.576 76.8221 431.171 82.461C427.57 74.4055 428.32 64.7723 432.214 56.8489C436.107 48.9254 442.899 42.6562 450.603 38.3748C458.306 34.0933 466.961 31.7093 475.631 30.2637L466.398 26.9275Z" fill="white"/>
<path d="M446.967 110.645C446.904 110.644 446.844 110.621 446.797 110.581C446.75 110.54 446.719 110.484 446.709 110.422C446.699 110.355 446.716 110.287 446.757 110.232C446.797 110.177 446.858 110.141 446.925 110.131L469.228 106.801C469.262 106.795 469.297 106.797 469.331 106.805C469.365 106.813 469.397 106.828 469.425 106.848C469.453 106.869 469.476 106.896 469.494 106.926C469.511 106.956 469.523 106.989 469.527 107.024C469.532 107.058 469.53 107.092 469.521 107.125C469.513 107.158 469.497 107.189 469.477 107.216C469.456 107.244 469.43 107.266 469.4 107.283C469.371 107.3 469.338 107.311 469.304 107.316L447.008 110.645H446.967Z" fill="#1D1526"/>
<path d="M446.967 114.419C446.904 114.418 446.844 114.396 446.797 114.355C446.75 114.314 446.719 114.258 446.709 114.197C446.699 114.129 446.716 114.061 446.757 114.006C446.797 113.952 446.858 113.915 446.925 113.905L469.228 110.576C469.262 110.571 469.296 110.572 469.329 110.581C469.362 110.589 469.393 110.604 469.421 110.624C469.448 110.644 469.471 110.67 469.489 110.699C469.507 110.728 469.518 110.761 469.523 110.795C469.528 110.828 469.527 110.863 469.518 110.896C469.51 110.929 469.495 110.96 469.475 110.988C469.455 111.015 469.429 111.038 469.4 111.056C469.371 111.073 469.338 111.085 469.304 111.09L447.008 114.419H446.967Z" fill="#1D1526"/>
<path d="M446.967 118.2C446.904 118.199 446.845 118.176 446.797 118.136C446.75 118.095 446.719 118.039 446.709 117.977C446.699 117.909 446.716 117.84 446.756 117.784C446.797 117.728 446.857 117.691 446.925 117.679L469.228 114.349C469.262 114.343 469.296 114.344 469.33 114.352C469.363 114.36 469.395 114.374 469.423 114.394C469.451 114.414 469.474 114.44 469.492 114.469C469.51 114.498 469.522 114.531 469.527 114.565C469.537 114.634 469.519 114.704 469.477 114.76C469.436 114.816 469.373 114.853 469.304 114.864L447.008 118.186L446.967 118.2Z" fill="#1D1526"/>
<path d="M446.967 121.995C446.904 121.994 446.845 121.971 446.797 121.931C446.75 121.89 446.719 121.834 446.709 121.772C446.699 121.704 446.716 121.635 446.756 121.579C446.797 121.523 446.857 121.486 446.925 121.474L469.228 118.151C469.262 118.145 469.296 118.146 469.33 118.154C469.363 118.162 469.395 118.176 469.423 118.196C469.451 118.216 469.474 118.242 469.492 118.271C469.51 118.3 469.522 118.333 469.527 118.367C469.537 118.436 469.519 118.506 469.477 118.562C469.436 118.618 469.373 118.655 469.304 118.666L447.008 121.995H446.967Z" fill="#1D1526"/>
<path d="M446.967 125.748C446.904 125.747 446.844 125.724 446.797 125.684C446.75 125.643 446.719 125.587 446.709 125.526C446.699 125.458 446.716 125.39 446.757 125.335C446.797 125.28 446.858 125.244 446.925 125.234L469.228 121.904C469.262 121.899 469.296 121.901 469.329 121.909C469.362 121.918 469.393 121.932 469.421 121.953C469.448 121.973 469.471 121.999 469.489 122.028C469.507 122.057 469.518 122.09 469.523 122.123C469.528 122.157 469.527 122.192 469.518 122.225C469.51 122.258 469.495 122.289 469.475 122.316C469.455 122.344 469.429 122.367 469.4 122.385C469.371 122.402 469.338 122.414 469.304 122.419L447.008 125.748H446.967Z" fill="#1D1526"/>
</g>
<defs>
<clipPath id="clip0_3880_44765">
<rect width="576" height="332" fill="white"/>
</clipPath>
</defs>
</svg>
