<svg width="475" height="548" viewBox="0 0 475 548" fill="none" xmlns="http://www.w3.org/2000/svg">
<path d="M168.014 465.545C117.114 454.246 67.6852 432.836 35.4189 394.074C-1.88213 349.259 -10.845 284.496 13.908 232.682C34.8545 188.794 83.3868 158.559 134.929 152.937C160.722 150.126 187.378 153.574 210.759 164.18C236.696 175.986 253.526 196.459 272.724 215.563C291.701 234.425 313.931 251.487 343.332 251.355C356.931 251.299 370.22 247.907 383.698 246.221C441.636 238.95 473.858 292.713 474.964 339.58C476.17 389.052 446.836 438.177 398.57 460.776C344.615 486.074 279.131 481.596 221.094 474.269C214.355 473.416 207.616 472.488 200.889 471.523C189.989 469.949 178.968 467.982 168.014 465.545Z" fill="#C8CEFF" fill-opacity="0.2"/>
<g filter="url(#filter0_dddd_3880_45103)">
<path fill-rule="evenodd" clip-rule="evenodd" d="M73.2293 498.932H430C425.454 498.932 421.094 496.601 417.879 492.453C414.665 488.304 412.859 482.677 412.859 476.81V31.5831C412.842 23.2254 410.265 15.2154 405.691 9.29921C401.117 3.38301 394.916 0.0403891 388.44 0L80.6131 0C74.1281 0.0224564 67.9136 3.35717 63.328 9.2753C58.7423 15.1934 56.1584 23.2137 56.141 31.5831V476.878C56.141 482.745 54.3351 488.372 51.1205 492.521C47.906 496.669 43.5461 499 39 499L73.2293 498.932Z" fill="white"/>
</g>
<path d="M282.42 69H243V79.9947H282.42V69Z" fill="#342A98"/>
<path d="M381 87.3623H243V91.9168H381V87.3623Z" fill="#E8E2FF"/>
<path d="M381 98.1509H243V102.705H381V98.1509Z" fill="#E8E2FF"/>
<path d="M305.993 108.929H243V113.484H305.993V108.929Z" fill="#E8E2FF"/>
<path d="M305.993 120H243V124.555H305.993V120Z" fill="#E8E2FF"/>
<path d="M97.4241 376H76V386.995H97.4241V376Z" fill="#342A98"/>
<path d="M151 394.362H76V398.917H151V394.362Z" fill="#E8E2FF"/>
<path d="M151 405.151H76V409.705H151V405.151Z" fill="#E8E2FF"/>
<path d="M110.235 415.929H76V420.484H110.235V415.929Z" fill="#E8E2FF"/>
<path d="M110.235 427H76V431.555H110.235V427Z" fill="#E8E2FF"/>
<path d="M386.973 220.299L385.019 220.083L380.228 219.594C380.974 212.282 380.253 204.894 378.106 197.864L384.63 195.881C382.284 188.111 378.426 180.88 373.278 174.605L368 178.908C363.361 173.207 357.632 168.488 351.149 165.026L354.348 159.033C347.194 155.21 339.362 152.821 331.291 152L330.59 158.772C326.425 158.344 322.225 158.394 318.072 158.92C314.95 159.318 311.868 159.978 308.858 160.895L306.875 154.373C305.517 154.783 304.183 155.238 302.873 155.737C296.609 158.1 290.774 161.473 285.599 165.721L289.901 171C284.378 175.493 279.775 181.01 276.345 187.249C276.235 187.448 276.126 187.648 276.018 187.849L274.895 187.249L270.029 184.65C269.569 185.506 269.131 186.372 268.713 187.249C265.645 193.688 263.713 200.609 263 207.705L263.056 207.715L267.514 208.17L269.771 208.407C269.636 209.723 269.548 211.048 269.508 212.382C269.423 215.289 269.569 218.198 269.943 221.082C270.342 224.148 270.994 227.176 271.892 230.135L267.089 231.594L265.369 232.12C265.878 233.799 266.451 235.438 267.089 237.04C269.43 242.947 272.667 248.459 276.687 253.38L281.966 249.078C286.625 254.774 292.363 259.495 298.85 262.969L295.649 268.965C302.794 272.788 310.617 275.178 318.679 276L318.845 274.496L319.378 269.233C326.697 269.977 334.092 269.253 341.128 267.103L343.111 273.626C350.876 271.285 358.101 267.432 364.371 262.288L360.066 257.01C365.775 252.369 370.503 246.639 373.974 240.152L379.968 243.351C383.792 236.195 386.18 228.362 387 220.29L386.973 220.299ZM353.075 224.983C351.418 229.227 348.819 233.039 345.473 236.132C342.127 239.224 338.122 241.516 333.761 242.835C317.847 247.67 301.028 238.69 296.185 222.753C295.557 220.694 295.152 218.573 294.977 216.427C293.845 202.605 302.432 189.382 316.243 185.186C321.657 183.54 327.424 183.45 332.886 184.929C338.348 186.408 343.283 189.394 347.126 193.547C350.97 197.7 353.566 202.851 354.618 208.41C355.67 213.969 355.136 219.713 353.075 224.983ZM386.973 220.299L385.019 220.083L380.228 219.594C380.974 212.282 380.253 204.894 378.106 197.864L384.63 195.881C382.284 188.111 378.426 180.88 373.278 174.605L368 178.908C363.361 173.207 357.632 168.488 351.149 165.026L354.348 159.033C347.194 155.21 339.362 152.821 331.291 152L330.59 158.772C326.425 158.344 322.225 158.394 318.072 158.92C314.95 159.318 311.868 159.978 308.858 160.895L306.875 154.373C305.517 154.783 304.183 155.238 302.873 155.737C296.609 158.1 290.774 161.473 285.599 165.721L289.901 171C284.378 175.493 279.775 181.01 276.345 187.249C276.235 187.448 276.126 187.648 276.018 187.849L274.895 187.249L270.029 184.65C269.569 185.506 269.131 186.372 268.713 187.249C265.645 193.688 263.713 200.609 263 207.705L263.056 207.715L267.514 208.17L269.771 208.407C269.636 209.723 269.548 211.048 269.508 212.382C269.423 215.289 269.569 218.198 269.943 221.082C270.342 224.148 270.994 227.176 271.892 230.135L267.089 231.594L265.369 232.12C265.878 233.799 266.451 235.438 267.089 237.04C269.43 242.947 272.667 248.459 276.687 253.38L281.966 249.078C286.625 254.774 292.363 259.495 298.85 262.969L295.649 268.965C302.794 272.788 310.617 275.178 318.679 276L318.845 274.496L319.378 269.233C326.697 269.977 334.092 269.253 341.128 267.103L343.111 273.626C350.876 271.285 358.101 267.432 364.371 262.288L360.066 257.01C365.775 252.369 370.503 246.639 373.974 240.152L379.968 243.351C383.792 236.195 386.18 228.362 387 220.29L386.973 220.299ZM353.075 224.983C351.418 229.227 348.819 233.039 345.473 236.132C342.127 239.224 338.122 241.516 333.761 242.835C317.847 247.67 301.028 238.69 296.185 222.753C295.557 220.694 295.152 218.573 294.977 216.427C293.845 202.605 302.432 189.382 316.243 185.186C321.657 183.54 327.424 183.45 332.886 184.929C338.348 186.408 343.283 189.394 347.126 193.547C350.97 197.7 353.566 202.851 354.618 208.41C355.67 213.969 355.136 219.713 353.075 224.983Z" fill="#867FCE"/>
<path d="M377.295 221.78L377.546 219.323C377.73 217.553 377.824 215.775 377.826 213.996C377.82 208.795 377.044 203.624 375.526 198.651L374.81 196.289L381.259 194.332C379.259 188.562 376.369 183.139 372.694 178.261L367.459 182.529L365.901 180.604C361.491 175.176 356.039 170.686 349.867 167.398L347.705 166.228L350.865 160.311C345.372 157.653 339.501 155.861 333.461 155L332.773 161.697L330.319 161.445C326.36 161.037 322.368 161.084 318.421 161.585H318.414C315.443 161.963 312.509 162.591 309.644 163.464L307.285 164.18L305.329 157.731C304.829 157.904 304.335 158.084 303.845 158.272L303.313 158.485C298.295 160.435 293.568 163.066 289.267 166.305L293.531 171.539L291.607 173.097C286.704 177.073 282.565 181.907 279.391 187.363C279.052 187.942 278.722 188.531 278.4 189.129L277.236 191.296L271.311 188.132C268.647 193.623 266.855 199.497 266 205.541L267.996 205.743L272.708 206.225L272.455 208.68C272.329 209.907 272.247 211.146 272.209 212.387C272.192 212.929 272.183 213.47 272.183 214.011C272.185 216.261 272.33 218.508 272.619 220.739C272.999 223.658 273.62 226.54 274.474 229.356L275.191 231.717L268.743 233.673C269.023 234.47 269.315 235.259 269.624 236.036C271.557 240.917 274.132 245.518 277.281 249.718L282.491 245.468L284.047 247.38C288.476 252.811 293.938 257.308 300.119 260.609L302.286 261.774L299.129 267.689C304.616 270.345 310.48 272.137 316.514 273L317.194 266.303L319.65 266.555C321.415 266.735 323.187 266.825 324.961 266.826C330.175 266.824 335.36 266.052 340.347 264.532L342.708 263.815L344.664 270.265C350.425 268.265 355.837 265.378 360.706 261.708L356.441 256.475L358.375 254.92C363.812 250.51 368.311 245.055 371.605 238.878L372.77 236.71L378.689 239.87C381.347 234.376 383.139 228.504 384 222.462L377.295 221.78ZM355.255 225.843C352.867 231.926 348.704 237.149 343.306 240.832C337.909 244.516 331.527 246.489 324.993 246.494C310.61 246.494 298.13 237.229 293.94 223.435C293.266 221.216 292.829 218.931 292.638 216.619C292.607 216.236 292.582 215.852 292.565 215.467C292.542 214.971 292.53 214.477 292.53 213.985C292.53 199.601 301.787 187.127 315.56 182.941C318.631 182.005 321.823 181.529 325.034 181.527H325.305C326.283 181.537 327.284 181.59 328.265 181.687C333.59 182.233 338.7 184.08 343.142 187.067C343.714 187.451 344.273 187.853 344.819 188.271C350.265 192.457 354.242 198.263 356.178 204.853C358.114 211.443 357.909 218.478 355.593 224.944C355.485 225.245 355.372 225.544 355.255 225.843Z" fill="#867FCE" stroke="white" stroke-width="2" stroke-miterlimit="10"/>
<path d="M441.982 148.005L440.894 147.885L438.229 147.613C438.644 143.544 438.243 139.433 437.048 135.521L440.678 134.418C439.373 130.094 437.226 126.07 434.361 122.579L431.425 124.973C428.844 121.801 425.656 119.175 422.048 117.248L423.829 113.913C419.848 111.786 415.49 110.457 410.999 110L410.609 113.768C408.292 113.53 405.955 113.558 403.644 113.851C401.907 114.072 400.192 114.439 398.517 114.949L397.414 111.32C396.658 111.549 395.916 111.802 395.187 112.079C391.701 113.394 388.455 115.271 385.575 117.635L387.969 120.573C384.896 123.072 382.335 126.143 380.426 129.614C380.365 129.725 380.305 129.836 380.244 129.948L379.619 129.614L376.912 128.168C376.656 128.644 376.412 129.126 376.179 129.614C374.473 133.197 373.397 137.048 373.001 140.997L373.032 141.003L375.513 141.256L376.768 141.388C376.693 142.12 376.644 142.857 376.622 143.6C376.575 145.217 376.656 146.836 376.864 148.441C377.086 150.147 377.449 151.832 377.949 153.478L375.276 154.29L374.319 154.583C374.602 155.517 374.921 156.429 375.276 157.321C376.578 160.608 378.38 163.675 380.617 166.413L383.554 164.019C386.146 167.189 389.339 169.815 392.948 171.749L391.167 175.085C395.143 177.213 399.496 178.543 403.982 179L404.074 178.163L404.371 175.234C408.443 175.648 412.558 175.245 416.473 174.049L417.576 177.679C421.897 176.376 425.917 174.232 429.406 171.37L427.01 168.433C430.187 165.85 432.817 162.662 434.749 159.052L438.084 160.833C440.212 156.851 441.541 152.492 441.997 148L441.982 148.005ZM423.12 150.611C422.198 152.973 420.752 155.094 418.89 156.815C417.029 158.536 414.8 159.811 412.374 160.545C403.519 163.236 394.16 158.239 391.466 149.371C391.116 148.225 390.891 147.045 390.793 145.851C390.163 138.159 394.942 130.801 402.626 128.466C405.638 127.55 408.848 127.501 411.887 128.323C414.926 129.146 417.672 130.808 419.81 133.119C421.949 135.43 423.393 138.296 423.979 141.389C424.564 144.483 424.267 147.679 423.12 150.611ZM441.982 148.005L440.894 147.885L438.229 147.613C438.644 143.544 438.243 139.433 437.048 135.521L440.678 134.418C439.373 130.094 437.226 126.07 434.361 122.579L431.425 124.973C428.844 121.801 425.656 119.175 422.048 117.248L423.829 113.913C419.848 111.786 415.49 110.457 410.999 110L410.609 113.768C408.292 113.53 405.955 113.558 403.644 113.851C401.907 114.072 400.192 114.439 398.517 114.949L397.414 111.32C396.658 111.549 395.916 111.802 395.187 112.079C391.701 113.394 388.455 115.271 385.575 117.635L387.969 120.573C384.896 123.072 382.335 126.143 380.426 129.614C380.365 129.725 380.305 129.836 380.244 129.948L379.619 129.614L376.912 128.168C376.656 128.644 376.412 129.126 376.179 129.614C374.473 133.197 373.397 137.048 373.001 140.997L373.032 141.003L375.513 141.256L376.768 141.388C376.693 142.12 376.644 142.857 376.622 143.6C376.575 145.217 376.656 146.836 376.864 148.441C377.086 150.147 377.449 151.832 377.949 153.478L375.276 154.29L374.319 154.583C374.602 155.517 374.921 156.429 375.276 157.321C376.578 160.608 378.38 163.675 380.617 166.413L383.554 164.019C386.146 167.189 389.339 169.815 392.948 171.749L391.167 175.085C395.143 177.213 399.496 178.543 403.982 179L404.074 178.163L404.371 175.234C408.443 175.648 412.558 175.245 416.473 174.049L417.576 177.679C421.897 176.376 425.917 174.232 429.406 171.37L427.01 168.433C430.187 165.85 432.817 162.662 434.749 159.052L438.084 160.833C440.212 156.851 441.541 152.492 441.997 148L441.982 148.005ZM423.12 150.611C422.198 152.973 420.752 155.094 418.89 156.815C417.029 158.536 414.8 159.811 412.374 160.545C403.519 163.236 394.16 158.239 391.466 149.371C391.116 148.225 390.891 147.045 390.793 145.851C390.163 138.159 394.942 130.801 402.626 128.466C405.638 127.55 408.848 127.501 411.887 128.323C414.926 129.146 417.672 130.808 419.81 133.119C421.949 135.43 423.393 138.296 423.979 141.389C424.564 144.483 424.267 147.679 423.12 150.611Z" fill="#867FCE"/>
<path fill-rule="evenodd" clip-rule="evenodd" d="M86.6945 14.4131C88.0722 14.4105 89.4196 14.8166 90.5664 15.5801C91.7131 16.3436 92.6075 17.4301 93.1365 18.7021C93.6656 19.9741 93.8053 21.3745 93.5382 22.7259C93.271 24.0774 92.6089 25.3193 91.6357 26.2943C90.6625 27.2694 89.4219 27.9338 88.0709 28.2035C86.72 28.4733 85.3193 28.3362 84.0463 27.8096C82.7733 27.283 81.6851 26.3906 80.9195 25.2453C80.1538 24.1 79.7451 22.7533 79.7451 21.3757C79.7434 20.462 79.9219 19.5569 80.2703 18.7122C80.6188 17.8676 81.1304 17.0999 81.7759 16.4532C82.4214 15.8065 83.1881 15.2934 84.0321 14.9433C84.8761 14.5933 85.7808 14.4131 86.6945 14.4131Z" fill="#FC1264"/>
<path fill-rule="evenodd" clip-rule="evenodd" d="M109.587 14.4131C110.964 14.4131 112.31 14.8214 113.455 15.5865C114.6 16.3516 115.493 17.439 116.019 18.7112C116.546 19.9835 116.684 21.3834 116.416 22.734C116.147 24.0847 115.484 25.3253 114.51 26.299C113.536 27.2727 112.296 27.9359 110.945 28.2045C109.595 28.4732 108.195 28.3353 106.922 27.8083C105.65 27.2813 104.563 26.3889 103.798 25.2439C103.033 24.0989 102.624 22.7528 102.624 21.3757C102.623 20.4609 102.801 19.5547 103.151 18.7092C103.5 17.8636 104.013 17.0954 104.66 16.4485C105.307 15.8016 106.075 15.2888 106.92 14.9396C107.766 14.5903 108.672 14.4114 109.587 14.4131Z" fill="#FDB42B"/>
<path fill-rule="evenodd" clip-rule="evenodd" d="M132.466 14.4131C133.843 14.4105 135.191 14.8166 136.337 15.5801C137.484 16.3436 138.379 17.4301 138.908 18.7021C139.437 19.9741 139.576 21.3745 139.309 22.7259C139.042 24.0774 138.38 25.3193 137.407 26.2943C136.433 27.2694 135.193 27.9338 133.842 28.2035C132.491 28.4733 131.09 28.3362 129.817 27.8096C128.544 27.283 127.456 26.3906 126.69 25.2453C125.925 24.1 125.516 22.7533 125.516 21.3757C125.514 20.462 125.693 19.5569 126.041 18.7122C126.39 17.8676 126.901 17.0999 127.547 16.4532C128.192 15.8065 128.959 15.2934 129.803 14.9433C130.647 14.5933 131.552 14.4131 132.466 14.4131Z" fill="#41B883"/>
<path fill-rule="evenodd" clip-rule="evenodd" d="M445.356 476.879C446.613 476.879 447.842 476.506 448.887 475.808C449.932 475.109 450.747 474.117 451.228 472.955C451.709 471.794 451.835 470.516 451.59 469.283C451.345 468.05 450.739 466.918 449.85 466.029C448.962 465.14 447.829 464.534 446.596 464.289C445.363 464.044 444.085 464.17 442.924 464.651C441.762 465.132 440.77 465.947 440.071 466.992C439.373 468.037 439 469.266 439 470.523C439.003 472.208 439.674 473.822 440.865 475.014C442.057 476.205 443.671 476.876 445.356 476.879Z" fill="#E8E2FF"/>
<path fill-rule="evenodd" clip-rule="evenodd" d="M456.169 441.512C456.715 441.515 457.25 441.355 457.705 441.053C458.161 440.751 458.516 440.321 458.726 439.817C458.936 439.313 458.992 438.757 458.886 438.222C458.78 437.686 458.517 437.193 458.131 436.807C457.745 436.421 457.253 436.158 456.717 436.052C456.181 435.946 455.626 436.002 455.122 436.212C454.617 436.423 454.187 436.778 453.885 437.233C453.583 437.688 453.424 438.223 453.426 438.769C453.43 439.496 453.72 440.191 454.233 440.705C454.747 441.218 455.443 441.509 456.169 441.512Z" fill="#E8E2FF"/>
<path fill-rule="evenodd" clip-rule="evenodd" d="M9.33627 416.673C9.99668 416.672 10.6422 416.476 11.1912 416.109C11.7401 415.742 12.1677 415.22 12.4198 414.61C12.6719 414 12.7372 413.328 12.6074 412.681C12.4776 412.033 12.1586 411.439 11.6907 410.972C11.2228 410.506 10.6271 410.19 9.97902 410.063C9.33099 409.935 8.65977 410.003 8.05038 410.258C7.441 410.512 6.92086 410.942 6.55586 411.492C6.19086 412.043 5.99742 412.689 6.00003 413.349C6.00002 413.787 6.08641 414.22 6.25423 414.624C6.42206 415.028 6.66801 415.395 6.97799 415.704C7.28796 416.013 7.65585 416.257 8.06054 416.423C8.46524 416.59 8.89878 416.674 9.33627 416.673Z" fill="#E8E2FF"/>
<path d="M20.6373 444.101C24.337 444.101 27.3362 441.102 27.3362 437.402C27.3362 433.702 24.337 430.703 20.6373 430.703C16.9377 430.703 13.9385 433.702 13.9385 437.402C13.9385 441.102 16.9377 444.101 20.6373 444.101Z" fill="#E8E2FF"/>
<path fill-rule="evenodd" clip-rule="evenodd" d="M449.8 222.626C450.752 222.629 451.684 222.349 452.478 221.822C453.271 221.294 453.89 220.543 454.256 219.664C454.622 218.785 454.72 217.817 454.535 216.882C454.351 215.948 453.894 215.089 453.221 214.414C452.549 213.74 451.691 213.28 450.757 213.093C449.823 212.907 448.855 213.001 447.974 213.365C447.094 213.729 446.342 214.346 445.812 215.138C445.283 215.93 445 216.861 445 217.813C445.003 219.086 445.51 220.307 446.409 221.208C447.308 222.11 448.527 222.619 449.8 222.626Z" fill="#E8E2FF"/>
<path fill-rule="evenodd" clip-rule="evenodd" d="M26.9453 47.0503C27.7622 47.0503 28.5608 46.8079 29.2398 46.3538C29.9188 45.8997 30.4479 45.2543 30.7599 44.4993C31.0719 43.7444 31.1528 42.9138 30.9925 42.1128C30.8322 41.3118 30.4378 40.5764 29.8592 39.9996C29.2806 39.4229 28.544 39.0309 27.7425 38.8731C26.9409 38.7154 26.1106 38.799 25.3567 39.1134C24.6027 39.4278 23.959 39.9589 23.5071 40.6394C23.0551 41.3199 22.8153 42.1192 22.8179 42.9361C22.8179 43.4775 22.9247 44.0135 23.1323 44.5136C23.3399 45.0136 23.6441 45.4677 24.0276 45.8499C24.411 46.2322 24.8661 46.5349 25.3668 46.7409C25.8675 46.9469 26.4039 47.0521 26.9453 47.0503Z" fill="#E8E2FF"/>
<path opacity="0.45" d="M200.437 76.6951H87.1096C80.8537 76.6951 75.7822 81.7665 75.7822 88.0225V201.363C75.7822 207.619 80.8537 212.69 87.1096 212.69H200.437C206.693 212.69 211.764 207.619 211.764 201.363V88.0225C211.764 81.7665 206.693 76.6951 200.437 76.6951Z" fill="#867FCE"/>
<path fill-rule="evenodd" clip-rule="evenodd" d="M83.4701 69.0204V70.9721C82.2246 70.9238 80.9773 70.9678 79.7383 71.1039L79.435 69.1919C80.7729 69.0224 82.1226 68.965 83.4701 69.0204ZM73.0921 72.027C72.3643 72.6185 71.6973 73.2811 71.1009 74.005L72.6174 75.2314C73.127 74.6097 73.6968 74.0399 74.3185 73.5303L73.0921 72.027ZM68.2658 80.361C68.1067 81.6998 68.0538 83.0491 68.1076 84.3962H70.0064C69.9574 83.1463 70.0015 81.8945 70.1383 80.6511L68.213 80.361H68.2658ZM68.1076 94.2731H70.0064V98.2291H68.1076V94.2731ZM68.1076 108.119H70.0064V112.075H68.1076V108.119ZM68.1076 121.952H70.0064V125.908H68.1076V121.952ZM68.1076 135.798H70.0064V139.754H68.1076V135.798ZM68.1076 149.631H70.0064V153.587H68.1076V149.631ZM68.1076 163.477H70.0064V167.433H68.1076V163.477ZM68.1076 177.31H70.0064V181.266H68.1076V177.31ZM68.1076 191.156H70.0064V195.112H68.1076V191.156ZM68.1076 204.989H70.0064C69.9511 206.235 69.9952 207.482 70.1383 208.721L68.213 209.037C68.0543 207.694 68.0014 206.341 68.0548 204.989H68.1076ZM71.1141 215.38C71.7024 216.107 72.3654 216.77 73.0921 217.358L74.3185 215.855C73.7029 215.347 73.1416 214.777 72.6438 214.154L71.1405 215.38H71.1141ZM79.4482 220.207C80.7825 220.366 82.1274 220.419 83.4701 220.365V218.413C82.2246 218.462 80.9772 218.418 79.7383 218.281L79.4482 220.207ZM93.3602 220.365V218.413H97.3162V220.365H93.3602ZM107.206 220.365V218.413H111.162V220.365H107.206ZM121.039 220.365V218.413H124.995V220.365H121.039ZM134.885 220.365V218.413H138.841V220.365H134.885ZM148.718 220.365V218.413H152.674V220.365H148.718ZM162.564 220.365V218.413H166.52V220.365H162.564ZM176.397 220.365V218.413H180.353V220.365H176.397ZM190.243 220.365V218.413H194.199V220.365H190.243ZM204.076 220.365V218.413C205.322 218.462 206.569 218.418 207.808 218.281L208.111 220.193C206.773 220.363 205.424 220.42 204.076 220.365ZM214.467 217.358C215.194 216.77 215.857 216.107 216.445 215.38L214.929 214.154C214.423 214.779 213.853 215.349 213.228 215.855L214.467 217.358ZM219.28 209.024C219.444 207.686 219.501 206.336 219.452 204.989H217.5C217.552 206.239 217.503 207.492 217.355 208.734L219.28 209.024ZM219.452 195.112H217.5V191.156H219.452V195.112ZM219.452 181.266H217.5V177.31H219.452V181.266ZM219.452 167.433H217.5V163.477H219.452V167.433ZM219.452 153.587H217.5V149.631H219.452V153.587ZM219.452 139.754H217.5V135.798H219.452V139.754ZM219.452 125.908H217.5V121.952H219.452V125.908ZM219.452 112.075H217.5V108.119H219.452V112.075ZM219.452 98.2291H217.5V94.2731H219.452V98.2291ZM219.452 84.3962H217.5C217.551 83.1504 217.503 81.9024 217.355 80.6643L219.28 80.3478C219.45 81.6902 219.508 83.0443 219.452 84.3962ZM216.445 74.005C215.856 73.2749 215.188 72.6116 214.454 72.027L213.241 73.5435C213.861 74.0452 214.427 74.611 214.929 75.2314L216.445 74.005ZM208.111 69.1919C206.773 69.0284 205.424 68.971 204.076 69.0204V70.9721C205.326 70.9231 206.578 70.9671 207.821 71.1039L208.111 69.1919ZM194.186 69.0204V70.9721H190.23V69.0204H194.186ZM180.353 69.0204V70.9721H176.397V69.0204H180.353ZM166.507 69.0204V70.9721H162.551V69.0204H166.507ZM152.674 69.0204V70.9721H148.718V69.0204H152.674ZM138.828 69.0204V70.9721H134.872V69.0204H138.828ZM124.995 69.0204V70.9721H121.039V69.0204H124.995ZM111.149 69.0204V70.9721H107.193V69.0204H111.149ZM97.3162 69.0204V70.9721H93.3602V69.0204H97.3162Z" fill="#342A98"/>
<g filter="url(#filter1_dddd_3880_45103)">
<path d="M172.422 89H46.5785C39.6316 89 34 94.6316 34 101.578V227.422C34 234.368 39.6316 240 46.5785 240H172.422C179.368 240 185 234.368 185 227.422V101.578C185 94.6316 179.368 89 172.422 89Z" fill="#FAFAFF"/>
<path d="M46.5785 90H172.422C178.816 90 184 95.1838 184 101.578V227.422C184 233.816 178.816 239 172.422 239H46.5785C40.1838 239 35 233.816 35 227.422V101.578C35 95.1839 40.1838 90 46.5785 90Z" stroke="#AEAAD6" stroke-width="2"/>
</g>
<path d="M94.5117 204.498L71 191.826V123.143L94.5117 135.815V204.498Z" fill="#E8E2FF"/>
<path d="M94.5117 204.498L118.023 191.826V123.143L94.5117 135.815V204.498Z" fill="#AEAAD6"/>
<path d="M141.535 204.498L118.023 191.826V123.143L141.535 135.815V204.498Z" fill="#E8E2FF"/>
<path d="M151.028 138.421C151.049 135.539 150.453 132.685 149.282 130.053C148.111 127.422 146.391 125.074 144.239 123.168C142.087 121.263 139.553 119.845 136.808 119.009C134.064 118.174 131.173 117.941 128.331 118.326C125.489 118.711 122.762 119.705 120.336 121.241C117.909 122.778 115.839 124.82 114.266 127.23C112.692 129.641 111.652 132.363 111.216 135.212C110.78 138.061 110.957 140.972 111.737 143.746C113.104 148.755 131.036 169.406 131.036 169.406C131.036 169.406 148.969 148.755 150.336 143.746C150.8 142.01 151.032 140.219 151.028 138.421ZM131.005 145.927C129.528 145.93 128.083 145.492 126.853 144.669C125.624 143.847 124.664 142.676 124.097 141.304C123.529 139.933 123.379 138.424 123.666 136.967C123.952 135.51 124.662 134.171 125.705 133.12C126.748 132.069 128.079 131.353 129.527 131.062C130.976 130.771 132.477 130.919 133.842 131.486C135.208 132.054 136.374 133.016 137.195 134.25C138.016 135.485 138.455 136.936 138.455 138.421C138.455 139.408 138.261 140.386 137.885 141.297C137.509 142.209 136.957 143.037 136.262 143.734C135.568 144.431 134.743 144.984 133.835 145.36C132.928 145.736 131.955 145.929 130.974 145.927H131.005Z" fill="#41B883"/>
<path fill-rule="evenodd" clip-rule="evenodd" d="M128.967 166.99C124.209 161.39 112.816 147.698 111.737 143.746C110.957 140.972 110.78 138.061 111.216 135.212C111.652 132.363 112.692 129.641 114.266 127.231C115.839 124.82 117.909 122.778 120.336 121.242C122.762 119.705 125.489 118.711 128.331 118.326C131.173 117.941 134.064 118.174 136.808 119.009C139.553 119.845 142.087 121.263 144.239 123.169C146.391 125.074 148.111 127.422 149.282 130.053C150.453 132.685 151.049 135.539 151.028 138.422C151.032 140.219 150.8 142.01 150.336 143.746C149.257 147.698 137.864 161.39 133.106 166.99C131.834 168.487 131.037 169.406 131.037 169.406C131.037 169.406 130.239 168.487 128.967 166.99ZM131.037 169.406C128.662 171.468 128.661 171.468 128.661 171.468L128.607 171.405L128.454 171.228C128.321 171.074 128.125 170.847 127.876 170.557C127.379 169.977 126.668 169.145 125.811 168.131C124.098 166.105 121.796 163.346 119.448 160.425C117.105 157.511 114.691 154.404 112.764 151.689C111.802 150.333 110.937 149.04 110.256 147.895C109.619 146.825 109 145.652 108.707 144.592C107.808 141.388 107.603 138.027 108.107 134.736C108.611 131.444 109.813 128.298 111.632 125.511C113.451 122.725 115.845 120.362 118.653 118.584C121.461 116.806 124.618 115.655 127.908 115.209C131.199 114.763 134.547 115.033 137.724 116C140.902 116.968 143.835 118.609 146.324 120.814C148.814 123.018 150.802 125.733 152.156 128.774C153.507 131.811 154.195 135.103 154.173 138.429C154.177 140.498 153.909 142.559 153.375 144.558L153.371 144.575C153.08 145.639 152.458 146.819 151.817 147.895C151.136 149.04 150.271 150.333 149.309 151.689C147.382 154.404 144.968 157.511 142.625 160.425C140.277 163.346 137.975 166.105 136.262 168.131C135.405 169.145 134.694 169.977 134.197 170.557C133.948 170.847 133.752 171.074 133.619 171.228L133.466 171.405L133.413 171.467C133.412 171.467 133.411 171.468 131.037 169.406ZM131.037 169.406L133.411 171.468L131.037 174.203L128.661 171.468L131.037 169.406ZM131.008 145.927C131.978 145.924 132.939 145.732 133.835 145.36C134.743 144.984 135.568 144.431 136.263 143.734C136.957 143.037 137.509 142.209 137.885 141.297C138.261 140.386 138.455 139.408 138.455 138.422C138.455 136.937 138.016 135.485 137.195 134.25C136.374 133.016 135.208 132.054 133.843 131.486C132.478 130.919 130.976 130.771 129.527 131.062C128.079 131.353 126.749 132.069 125.705 133.12C124.662 134.171 123.952 135.51 123.666 136.967C123.379 138.424 123.529 139.933 124.097 141.305C124.664 142.676 125.624 143.847 126.853 144.669C128.073 145.486 129.505 145.923 130.97 145.927C130.971 145.927 130.973 145.927 130.974 145.927C130.982 145.927 130.989 145.927 130.997 145.927C131 145.927 131.003 145.927 131.005 145.927C131.006 145.927 131.007 145.927 131.008 145.927ZM128.602 142.055C129.308 142.527 130.134 142.779 130.977 142.781H131.002C131.56 142.78 132.113 142.669 132.631 142.454C133.155 142.237 133.632 141.918 134.035 141.513C134.438 141.109 134.758 140.628 134.977 140.098C135.196 139.567 135.309 138.997 135.309 138.422C135.309 137.555 135.054 136.71 134.576 135.992C134.099 135.275 133.423 134.718 132.635 134.391C131.847 134.063 130.981 133.978 130.146 134.146C129.311 134.313 128.542 134.727 127.937 135.336C127.332 135.946 126.919 136.724 126.752 137.574C126.585 138.423 126.673 139.303 127.003 140.102C127.334 140.9 127.891 141.579 128.602 142.055Z" fill="white"/>
<g filter="url(#filter2_dddd_3880_45103)">
<path d="M205.752 242.141L190.114 226.34L201.351 215.075C201.582 214.838 201.747 214.544 201.83 214.223C201.913 213.902 201.91 213.565 201.823 213.245C201.735 212.925 201.566 212.634 201.331 212.401C201.097 212.167 200.806 212 200.487 211.915L161.322 202.056C161.008 201.977 160.679 201.982 160.367 202.069C160.055 202.157 159.771 202.324 159.543 202.555C159.315 202.786 159.151 203.073 159.066 203.387C158.981 203.701 158.978 204.031 159.058 204.347L168.787 243.721C168.869 244.042 169.034 244.337 169.266 244.574C169.497 244.812 169.786 244.984 170.105 245.074C170.423 245.163 170.759 245.167 171.08 245.085C171.4 245.003 171.693 244.837 171.93 244.605L183.152 233.324L198.868 249.124C199.156 249.382 199.528 249.524 199.913 249.524C200.299 249.524 200.67 249.382 200.958 249.124L205.815 244.242C206.062 243.945 206.193 243.567 206.181 243.179C206.17 242.792 206.017 242.422 205.752 242.141Z" fill="white"/>
<path d="M205.752 242.141L190.114 226.34L201.351 215.075C201.582 214.838 201.747 214.544 201.83 214.223C201.913 213.902 201.91 213.565 201.823 213.245C201.735 212.925 201.566 212.634 201.331 212.401C201.097 212.167 200.806 212 200.487 211.915L161.322 202.056C161.008 201.977 160.679 201.982 160.367 202.069C160.055 202.157 159.771 202.324 159.543 202.555C159.315 202.786 159.151 203.073 159.066 203.387C158.981 203.701 158.978 204.031 159.058 204.347L168.787 243.721C168.869 244.042 169.034 244.337 169.266 244.574C169.497 244.812 169.786 244.984 170.105 245.074C170.423 245.163 170.759 245.167 171.08 245.085C171.4 245.003 171.693 244.837 171.93 244.605L183.152 233.324L198.868 249.124C199.156 249.382 199.528 249.524 199.913 249.524C200.299 249.524 200.67 249.382 200.958 249.124L205.815 244.242C206.062 243.945 206.193 243.567 206.181 243.179C206.17 242.792 206.017 242.422 205.752 242.141Z" stroke="#342A98" stroke-width="2"/>
</g>
<path d="M325.544 457H138.249C134.246 457 131 460.246 131 464.249V518.875C131 522.879 134.246 526.124 138.249 526.124H325.544C329.548 526.124 332.794 522.879 332.794 518.875V464.249C332.794 460.246 329.548 457 325.544 457Z" fill="#E8E2FF"/>
<path d="M323 470H141V474.108H323V470Z" fill="#342A98"/>
<path d="M323 479.731H141V483.84H323V479.731Z" fill="#342A98"/>
<path d="M253.781 489.454H141V493.562H253.781V489.454Z" fill="#342A98"/>
<path d="M323 489.454H262.18V493.562H323V489.454Z" fill="#342A98"/>
<path d="M222.593 499.186H141V503.294H222.593V499.186Z" fill="#342A98"/>
<path d="M322.999 499.186H231.321V503.294H322.999V499.186Z" fill="#342A98"/>
<path d="M283.177 508.917H141V513.026H283.177V508.917Z" fill="#342A98"/>
<path fill-rule="evenodd" clip-rule="evenodd" d="M130.436 450.264V452.376H126.155H125.099V450.321L130.436 450.264ZM125.17 458.641H127.282V462.851H125.227V458.641H125.17ZM125.17 469.172H127.282V473.453H125.227V469.172H125.17ZM125.17 479.704H127.282V483.985H125.227V479.704H125.17ZM125.17 490.235H127.282V494.516H125.227V490.235H125.17ZM125.17 500.781H127.282V504.99H125.227V500.781H125.17ZM125.17 511.312H127.282V515.522H125.227V511.312H125.17ZM125.17 521.843H127.282V526.053H125.227V521.843H125.17ZM129.451 530.148V528.094H133.732V530.191L129.451 530.148ZM139.997 530.148V528.094H144.278V530.191L139.997 530.148ZM150.528 530.148V528.094H154.738V530.191L150.528 530.148ZM161.059 530.148V528.094H165.34V530.191L161.059 530.148ZM171.591 530.148V528.094H175.872V530.191L171.591 530.148ZM182.122 530.148V528.094H186.403V530.191L182.122 530.148ZM192.668 530.148V528.094H196.877V530.191L192.668 530.148ZM203.199 530.148V528.094H207.494V530.191L203.199 530.148ZM213.73 530.148V528.094H217.94V530.191L213.73 530.148ZM224.262 530.148V528.094H228.543V530.191L224.262 530.148ZM234.793 530.148V528.094H239.074V530.191L234.793 530.148ZM245.339 530.148V528.094H249.548V530.191L245.339 530.148ZM255.87 530.148V528.094H260.08V530.191L255.87 530.148ZM266.401 530.148V528.094H270.682V530.191L266.401 530.148ZM276.933 530.148V528.094H281.214V530.191L276.933 530.148ZM287.464 530.148V528.094H291.745V530.191L287.464 530.148ZM297.995 530.148V528.094H302.276V530.191L297.995 530.148ZM308.541 530.148V528.094H312.822V530.191L308.541 530.148ZM319.072 530.148V528.094H323.353V530.191L319.072 530.148ZM329.604 530.148V528.094H333.885V530.191L329.604 530.148ZM339.593 527.551H337.638V523.342H339.735V527.551H339.593ZM339.593 517.02H337.638V512.739H339.735V517.02H339.593ZM339.593 506.489H337.638V502.208H339.735V506.489H339.593ZM339.593 495.943H337.638V491.662H339.735V495.943H339.593ZM339.593 485.412H337.638V481.202H339.735V485.412H339.593ZM339.593 474.88H337.638V470.671H339.735V474.88H339.593ZM339.593 464.349H337.638V460.139H339.735V464.349H339.593ZM339.593 453.818H337.638V452.391H336.967V450.279H339.735V453.889L339.593 453.818ZM330.503 450.264V452.376H326.222V450.264H330.503ZM319.971 450.264V452.376H315.69V450.264H319.971ZM309.426 450.264V452.376H305.216V450.264H309.426ZM298.894 450.264V452.376H294.613V450.264H298.894ZM288.363 450.264V452.376H284.082V450.264H288.363ZM277.832 450.264V452.376H273.622V450.264H277.832ZM267.3 450.264V452.376H263.019V450.264H267.3ZM256.755 450.264V452.376H252.474V450.264H256.755ZM246.223 450.264V452.376H241.942V450.264H246.223ZM235.692 450.264V452.376H231.411V450.264H235.692ZM225.161 450.264V452.376H220.951V450.264H225.161ZM214.629 450.264V452.376H210.348V450.264H214.629ZM204.084 450.264V452.376H199.803V450.264H204.084ZM193.552 450.264V452.376H189.271V450.264H193.552ZM183.021 450.264V452.376H178.954V450.264H183.021ZM172.49 450.264V452.376H168.28V450.264H172.49ZM161.958 450.264V452.376H157.677V450.264H161.958ZM151.427 450.264V452.376H147.146V450.264H151.427ZM140.881 450.264V452.376H136.6V450.264H140.881Z" fill="#342A98"/>
<path d="M339.736 456.529C343.195 456.529 346 453.724 346 450.265C346 446.805 343.195 444 339.736 444C336.276 444 333.471 446.805 333.471 450.265C333.471 453.724 336.276 456.529 339.736 456.529Z" fill="#867FCE"/>
<path d="M125.227 456.529C128.687 456.529 131.492 453.724 131.492 450.265C131.492 446.805 128.687 444 125.227 444C121.767 444 118.962 446.805 118.962 450.265C118.962 453.724 121.767 456.529 125.227 456.529Z" fill="#867FCE"/>
<path d="M339.736 536.413C343.195 536.413 346 533.608 346 530.149C346 526.689 343.195 523.884 339.736 523.884C336.276 523.884 333.471 526.689 333.471 530.149C333.471 533.608 336.276 536.413 339.736 536.413Z" fill="#867FCE"/>
<path d="M125.227 536.413C128.687 536.413 131.492 533.608 131.492 530.149C131.492 526.689 128.687 523.884 125.227 523.884C121.767 523.884 118.962 526.689 118.962 530.149C118.962 533.608 121.767 536.413 125.227 536.413Z" fill="#867FCE"/>
<path d="M115.191 280.341C121.636 280.341 126.861 275.116 126.861 268.67C126.861 262.225 121.636 257 115.191 257C108.746 257 103.521 262.225 103.521 268.67C103.521 275.116 108.746 280.341 115.191 280.341Z" fill="#342A98"/>
<path fill-rule="evenodd" clip-rule="evenodd" d="M115.191 317.303C117.197 317.303 119.158 316.708 120.826 315.593C122.494 314.478 123.794 312.894 124.561 311.04C125.328 309.186 125.528 307.147 125.136 305.179C124.744 303.212 123.776 301.405 122.357 299.987C120.937 298.57 119.129 297.605 117.161 297.215C115.193 296.825 113.154 297.028 111.301 297.798C109.449 298.567 107.866 299.869 106.753 301.538C105.64 303.208 105.048 305.17 105.051 307.176C105.058 309.862 106.129 312.436 108.029 314.334C109.93 316.232 112.505 317.3 115.191 317.303Z" fill="#AEAAD6"/>
<path fill-rule="evenodd" clip-rule="evenodd" d="M115.191 348.741C116.652 348.741 118.079 348.308 119.294 347.496C120.508 346.685 121.455 345.531 122.013 344.182C122.572 342.833 122.719 341.348 122.434 339.915C122.149 338.483 121.445 337.167 120.413 336.134C119.38 335.102 118.064 334.398 116.632 334.113C115.199 333.828 113.714 333.975 112.365 334.534C111.016 335.092 109.862 336.039 109.051 337.253C108.239 338.468 107.806 339.895 107.806 341.356C107.806 343.315 108.584 345.193 109.969 346.578C111.354 347.963 113.232 348.741 115.191 348.741Z" fill="#E8E2FF"/>
<g style="mix-blend-mode:multiply" opacity="0.45">
<path d="M389.514 304H187.247C181.588 304 177 308.588 177 314.247V416.776C177 422.436 181.588 427.023 187.247 427.023H389.514C395.174 427.023 399.761 422.436 399.761 416.776V314.247C399.761 308.588 395.174 304 389.514 304Z" fill="#867FCE"/>
</g>
<path d="M176.247 295H378.514C383.621 295 387.761 299.14 387.761 304.247V406.776C387.761 411.883 383.621 416.023 378.514 416.023H176.247C171.14 416.023 167 411.883 167 406.776V304.247C167 299.14 171.14 295 176.247 295Z" fill="white" stroke="#AEAAD6" stroke-width="2"/>
<path fill-rule="evenodd" clip-rule="evenodd" d="M169.161 365.371C169.036 364.936 169.084 364.468 169.296 364.068C169.508 363.667 169.867 363.364 170.297 363.222C170.728 363.08 171.196 363.11 171.605 363.306C172.014 363.502 172.33 363.849 172.489 364.274C172.489 364.274 178.036 381.583 192.768 377.801C199.043 376.191 202.061 364.023 205.282 351.068C209.624 333.616 214.288 314.84 228.901 314.84C245.673 314.84 249.896 332.59 254.19 350.627C258.27 367.805 262.421 385.221 277.81 385.221C293.198 385.221 299.342 368.365 305.115 352.738C310.507 338.197 315.517 324.646 327.339 324.646C339.876 324.646 344.612 331.91 349.634 339.628C354.656 347.347 360.203 355.864 375.997 355.864C376.472 355.864 376.927 356.052 377.262 356.388C377.598 356.723 377.786 357.179 377.786 357.653C377.786 358.128 377.598 358.583 377.262 358.918C376.927 359.254 376.472 359.442 375.997 359.442C358.306 359.442 352.318 350.245 346.688 341.549C342.214 334.654 337.979 328.165 327.339 328.165C317.963 328.165 313.37 340.607 308.42 353.955C302.228 370.656 295.548 388.74 277.81 388.74C259.642 388.74 255.145 369.964 250.755 351.438C246.795 334.738 242.894 318.383 228.901 318.383C217.032 318.383 212.713 335.763 208.693 351.927C205.21 365.944 201.942 379.113 193.627 381.237C175.698 385.817 169.173 365.431 169.161 365.371Z" fill="#AEAAD6"/>
<path fill-rule="evenodd" clip-rule="evenodd" d="M189.13 385.233C190.145 385.233 191.136 384.932 191.98 384.369C192.823 383.805 193.481 383.004 193.869 382.067C194.257 381.129 194.359 380.098 194.161 379.103C193.963 378.108 193.475 377.194 192.757 376.477C192.04 375.759 191.126 375.271 190.131 375.073C189.136 374.875 188.105 374.976 187.167 375.365C186.23 375.753 185.429 376.41 184.865 377.254C184.302 378.097 184.001 379.089 184.001 380.104C184.001 380.777 184.133 381.444 184.391 382.067C184.649 382.689 185.027 383.254 185.503 383.731C185.979 384.207 186.545 384.585 187.167 384.843C187.79 385.1 188.457 385.233 189.13 385.233Z" fill="#FC1264"/>
<path d="M228.961 321.711C231.787 321.711 234.079 319.42 234.079 316.594C234.079 313.767 231.787 311.476 228.961 311.476C226.135 311.476 223.844 313.767 223.844 316.594C223.844 319.42 226.135 321.711 228.961 321.711Z" fill="#41B883"/>
<path fill-rule="evenodd" clip-rule="evenodd" d="M306.237 360.051C307.252 360.053 308.246 359.754 309.091 359.191C309.937 358.628 310.596 357.827 310.986 356.89C311.375 355.952 311.478 354.92 311.28 353.923C311.083 352.927 310.594 352.012 309.876 351.294C309.158 350.576 308.243 350.087 307.247 349.89C306.25 349.692 305.218 349.795 304.28 350.184C303.343 350.574 302.542 351.234 301.979 352.079C301.416 352.924 301.117 353.918 301.119 354.933C301.123 356.289 301.663 357.589 302.622 358.548C303.581 359.507 304.881 360.047 306.237 360.051Z" fill="#41B883"/>
<path d="M377.823 362.723C380.649 362.723 382.94 360.432 382.94 357.605C382.94 354.779 380.649 352.488 377.823 352.488C374.996 352.488 372.705 354.779 372.705 357.605C372.705 360.432 374.996 362.723 377.823 362.723Z" fill="#FC1264"/>
<path fill-rule="evenodd" clip-rule="evenodd" d="M315.577 362.389H327.232V358.87H315.577V362.389ZM315.577 356.102H324.082V352.583H315.577V356.102Z" fill="#41B883"/>
<path fill-rule="evenodd" clip-rule="evenodd" d="M209.409 316.009H196.681V319.528H209.409V316.009ZM209.409 322.296H200.904V325.874H209.409V322.296Z" fill="#41B883"/>
<path fill-rule="evenodd" clip-rule="evenodd" d="M359.965 397.734H376.844C377.255 397.726 377.663 397.8 378.045 397.952C378.427 398.104 378.774 398.33 379.068 398.618C379.361 398.905 379.594 399.249 379.753 399.628C379.912 400.006 379.994 400.413 379.994 400.824C379.99 401.642 379.664 402.426 379.085 403.005C378.506 403.584 377.722 403.91 376.904 403.913H359.965C359.146 403.91 358.362 403.584 357.784 403.005C357.205 402.426 356.878 401.642 356.875 400.824C356.875 400.004 357.201 399.219 357.78 398.639C358.36 398.06 359.145 397.734 359.965 397.734Z" fill="#FDB42B"/>
<path fill-rule="evenodd" clip-rule="evenodd" d="M368.9 405.846H376.844C377.255 405.838 377.663 405.912 378.045 406.064C378.427 406.216 378.774 406.442 379.068 406.73C379.361 407.017 379.594 407.361 379.753 407.739C379.912 408.118 379.994 408.525 379.994 408.936C379.99 409.754 379.664 410.538 379.085 411.117C378.506 411.696 377.722 412.022 376.904 412.025H368.9C368.081 412.022 367.297 411.696 366.718 411.117C366.14 410.538 365.813 409.754 365.81 408.936C365.813 408.117 366.14 407.333 366.718 406.754C367.297 406.176 368.081 405.849 368.9 405.846Z" fill="#FDB42B"/>
<defs>
<filter id="filter0_dddd_3880_45103" x="13.5185" y="-1.2963" width="441.963" height="564.296" filterUnits="userSpaceOnUse" color-interpolation-filters="sRGB">
<feFlood flood-opacity="0" result="BackgroundImageFix"/>
<feColorMatrix in="SourceAlpha" type="matrix" values="0 0 0 0 0 0 0 0 0 0 0 0 0 0 0 0 0 0 127 0" result="hardAlpha"/>
<feOffset dy="1.85185"/>
<feGaussianBlur stdDeviation="1.57407"/>
<feColorMatrix type="matrix" values="0 0 0 0 0.203922 0 0 0 0 0.164706 0 0 0 0 0.596078 0 0 0 0.0168519 0"/>
<feBlend mode="normal" in2="BackgroundImageFix" result="effect1_dropShadow_3880_45103"/>
<feColorMatrix in="SourceAlpha" type="matrix" values="0 0 0 0 0 0 0 0 0 0 0 0 0 0 0 0 0 0 127 0" result="hardAlpha"/>
<feOffset dy="8.14815"/>
<feGaussianBlur stdDeviation="3.25926"/>
<feColorMatrix type="matrix" values="0 0 0 0 0.203922 0 0 0 0 0.164706 0 0 0 0 0.596078 0 0 0 0.0274815 0"/>
<feBlend mode="normal" in2="effect1_dropShadow_3880_45103" result="effect2_dropShadow_3880_45103"/>
<feColorMatrix in="SourceAlpha" type="matrix" values="0 0 0 0 0 0 0 0 0 0 0 0 0 0 0 0 0 0 127 0" result="hardAlpha"/>
<feOffset dy="20"/>
<feGaussianBlur stdDeviation="6.5"/>
<feColorMatrix type="matrix" values="0 0 0 0 0.203922 0 0 0 0 0.164706 0 0 0 0 0.596078 0 0 0 0.035 0"/>
<feBlend mode="normal" in2="effect2_dropShadow_3880_45103" result="effect3_dropShadow_3880_45103"/>
<feColorMatrix in="SourceAlpha" type="matrix" values="0 0 0 0 0 0 0 0 0 0 0 0 0 0 0 0 0 0 127 0" result="hardAlpha"/>
<feOffset dy="38.5185"/>
<feGaussianBlur stdDeviation="12.7407"/>
<feColorMatrix type="matrix" values="0 0 0 0 0.203922 0 0 0 0 0.164706 0 0 0 0 0.596078 0 0 0 0.0425185 0"/>
<feBlend mode="normal" in2="effect3_dropShadow_3880_45103" result="effect4_dropShadow_3880_45103"/>
<feBlend mode="normal" in="SourceGraphic" in2="effect4_dropShadow_3880_45103" result="shape"/>
</filter>
<filter id="filter1_dddd_3880_45103" x="8.51852" y="87.7037" width="201.963" height="216.296" filterUnits="userSpaceOnUse" color-interpolation-filters="sRGB">
<feFlood flood-opacity="0" result="BackgroundImageFix"/>
<feColorMatrix in="SourceAlpha" type="matrix" values="0 0 0 0 0 0 0 0 0 0 0 0 0 0 0 0 0 0 127 0" result="hardAlpha"/>
<feOffset dy="1.85185"/>
<feGaussianBlur stdDeviation="1.57407"/>
<feColorMatrix type="matrix" values="0 0 0 0 0.203922 0 0 0 0 0.164706 0 0 0 0 0.596078 0 0 0 0.0168519 0"/>
<feBlend mode="normal" in2="BackgroundImageFix" result="effect1_dropShadow_3880_45103"/>
<feColorMatrix in="SourceAlpha" type="matrix" values="0 0 0 0 0 0 0 0 0 0 0 0 0 0 0 0 0 0 127 0" result="hardAlpha"/>
<feOffset dy="8.14815"/>
<feGaussianBlur stdDeviation="3.25926"/>
<feColorMatrix type="matrix" values="0 0 0 0 0.203922 0 0 0 0 0.164706 0 0 0 0 0.596078 0 0 0 0.0274815 0"/>
<feBlend mode="normal" in2="effect1_dropShadow_3880_45103" result="effect2_dropShadow_3880_45103"/>
<feColorMatrix in="SourceAlpha" type="matrix" values="0 0 0 0 0 0 0 0 0 0 0 0 0 0 0 0 0 0 127 0" result="hardAlpha"/>
<feOffset dy="20"/>
<feGaussianBlur stdDeviation="6.5"/>
<feColorMatrix type="matrix" values="0 0 0 0 0.203922 0 0 0 0 0.164706 0 0 0 0 0.596078 0 0 0 0.035 0"/>
<feBlend mode="normal" in2="effect2_dropShadow_3880_45103" result="effect3_dropShadow_3880_45103"/>
<feColorMatrix in="SourceAlpha" type="matrix" values="0 0 0 0 0 0 0 0 0 0 0 0 0 0 0 0 0 0 127 0" result="hardAlpha"/>
<feOffset dy="38.5185"/>
<feGaussianBlur stdDeviation="12.7407"/>
<feColorMatrix type="matrix" values="0 0 0 0 0.203922 0 0 0 0 0.164706 0 0 0 0 0.596078 0 0 0 0.0425185 0"/>
<feBlend mode="normal" in2="effect3_dropShadow_3880_45103" result="effect4_dropShadow_3880_45103"/>
<feBlend mode="normal" in="SourceGraphic" in2="effect4_dropShadow_3880_45103" result="shape"/>
</filter>
<filter id="filter2_dddd_3880_45103" x="132.519" y="199.704" width="100.145" height="114.82" filterUnits="userSpaceOnUse" color-interpolation-filters="sRGB">
<feFlood flood-opacity="0" result="BackgroundImageFix"/>
<feColorMatrix in="SourceAlpha" type="matrix" values="0 0 0 0 0 0 0 0 0 0 0 0 0 0 0 0 0 0 127 0" result="hardAlpha"/>
<feOffset dy="1.85185"/>
<feGaussianBlur stdDeviation="1.57407"/>
<feColorMatrix type="matrix" values="0 0 0 0 0.203922 0 0 0 0 0.164706 0 0 0 0 0.596078 0 0 0 0.0168519 0"/>
<feBlend mode="normal" in2="BackgroundImageFix" result="effect1_dropShadow_3880_45103"/>
<feColorMatrix in="SourceAlpha" type="matrix" values="0 0 0 0 0 0 0 0 0 0 0 0 0 0 0 0 0 0 127 0" result="hardAlpha"/>
<feOffset dy="8.14815"/>
<feGaussianBlur stdDeviation="3.25926"/>
<feColorMatrix type="matrix" values="0 0 0 0 0.203922 0 0 0 0 0.164706 0 0 0 0 0.596078 0 0 0 0.0274815 0"/>
<feBlend mode="normal" in2="effect1_dropShadow_3880_45103" result="effect2_dropShadow_3880_45103"/>
<feColorMatrix in="SourceAlpha" type="matrix" values="0 0 0 0 0 0 0 0 0 0 0 0 0 0 0 0 0 0 127 0" result="hardAlpha"/>
<feOffset dy="20"/>
<feGaussianBlur stdDeviation="6.5"/>
<feColorMatrix type="matrix" values="0 0 0 0 0.203922 0 0 0 0 0.164706 0 0 0 0 0.596078 0 0 0 0.035 0"/>
<feBlend mode="normal" in2="effect2_dropShadow_3880_45103" result="effect3_dropShadow_3880_45103"/>
<feColorMatrix in="SourceAlpha" type="matrix" values="0 0 0 0 0 0 0 0 0 0 0 0 0 0 0 0 0 0 127 0" result="hardAlpha"/>
<feOffset dy="38.5185"/>
<feGaussianBlur stdDeviation="12.7407"/>
<feColorMatrix type="matrix" values="0 0 0 0 0.203922 0 0 0 0 0.164706 0 0 0 0 0.596078 0 0 0 0.0425185 0"/>
<feBlend mode="normal" in2="effect3_dropShadow_3880_45103" result="effect4_dropShadow_3880_45103"/>
<feBlend mode="normal" in="SourceGraphic" in2="effect4_dropShadow_3880_45103" result="shape"/>
</filter>
</defs>
</svg>
