<svg width="534" height="368" viewBox="0 0 534 368" fill="none" xmlns="http://www.w3.org/2000/svg">
<path d="M29.2025 121.287C-0.102171 196.908 42.1707 352.849 270.031 366.873C497.891 380.897 552.431 206.597 476 149C399.569 91.4026 322.847 177.163 308.5 89.9999C284.386 -56.5 79.9618 -9.70416 29.2025 121.287Z" fill="#C8CEFF" fill-opacity="0.2"/>
<path d="M338.131 256.324C357.447 255.655 384.318 246.908 400.517 221.868C416.716 196.828 441 192.692 442.479 174.716C443.959 156.74 416.176 141.45 379.638 166.007C343.099 190.563 324.323 211.802 324.323 211.802L338.131 256.324Z" fill="#AEAAD6"/>
<path opacity="0.5" d="M331.571 235.169C373.152 223.421 386.895 184.726 411.431 178.824" stroke="#342A98" stroke-width="1.5" stroke-linecap="round" stroke-linejoin="round"/>
<path d="M349.063 83.0505H205.534C200.067 83.0505 195.634 87.4783 195.634 92.9402V343.193C195.634 348.655 200.067 353.083 205.534 353.083H349.063C354.531 353.083 358.963 348.655 358.963 343.193V92.9402C358.963 87.4783 354.531 83.0505 349.063 83.0505Z" fill="white"/>
<path d="M194.344 121.762C190.147 120.996 186.145 119.399 182.576 117.063C179.006 114.727 175.941 111.701 173.561 108.163C171.182 104.625 169.535 100.646 168.72 96.4624C167.905 92.2783 167.936 87.9735 168.813 83.8018C172.535 65.9001 147.218 48.7419 157.276 26.4344C167.334 4.12692 200.709 20.3091 211.753 57.5719C222.797 94.8348 217.149 115.423 217.149 115.423L194.344 121.762Z" fill="#AEAAD6"/>
<path opacity="0.5" d="M179.113 42.6165C179.113 42.6165 202.16 67.7961 205.11 118.787" stroke="#342A98" stroke-width="1.5" stroke-linecap="round" stroke-linejoin="round"/>
<path d="M225.678 49.5708C225.678 49.5708 226.925 60.1576 222.273 73.4398" stroke="#AEAAD6" stroke-width="1.5" stroke-linecap="round" stroke-linejoin="round"/>
<path d="M157.756 107.645C157.756 107.645 169.461 117.023 184.683 116.289" stroke="#AEAAD6" stroke-width="1.5" stroke-linecap="round" stroke-linejoin="round"/>
<path d="M340 309.714C353.361 313.757 367.169 313.023 375.813 308.785C384.456 304.546 392.728 307.93 387.229 318.163C380.604 330.479 357.595 331.176 341.405 324.958L340 309.714Z" fill="#867FCE"/>
<path d="M340.773 317.614C340.773 317.614 355.055 322.94 369.961 319.268" stroke="#AEAAD6" stroke-width="1.5" stroke-linecap="round" stroke-linejoin="round"/>
<path d="M227 335.636C227 335.636 230.229 356.503 242.938 364.311C252.503 370.194 259.314 361.002 251.954 353.083C245.144 345.758 242.38 339.029 243.301 331.993L227 335.636Z" fill="#867FCE"/>
<path d="M235.801 331.993C235.801 331.993 233.01 340.042 241.011 350.703" stroke="#AEAAD6" stroke-width="1.5" stroke-linecap="round" stroke-linejoin="round"/>
<path d="M182.698 230.264C166.915 207.752 108.75 217.599 106.098 191.343C103.447 165.087 154.92 154.59 202 182.613V235L182.698 230.264Z" fill="#AEAAD6"/>
<path opacity="0.5" d="M126.529 186.346C126.529 186.346 179.001 197.077 199.413 217.661" stroke="#342A98" stroke-width="1.5" stroke-linecap="round" stroke-linejoin="round"/>
<path d="M339.758 68.179H196.229C190.761 68.179 186.329 72.6067 186.329 78.0686V328.321C186.329 333.783 190.761 338.211 196.229 338.211H339.758C345.226 338.211 349.658 333.783 349.658 328.321V78.0686C349.658 72.6067 345.226 68.179 339.758 68.179Z" fill="#AEAAD6" stroke="#AEAAD6" stroke-width="1.5" stroke-linecap="round" stroke-linejoin="round"/>
<path d="M334.213 68.179H190.684C185.216 68.179 180.784 72.6067 180.784 78.0686V328.321C180.784 333.783 185.216 338.211 190.684 338.211H334.213C339.681 338.211 344.113 333.783 344.113 328.321V78.0686C344.113 72.6067 339.681 68.179 334.213 68.179Z" fill="white" stroke="#AEAAD6" stroke-width="1.5" stroke-linecap="round" stroke-linejoin="round"/>
<path d="M190.684 338.211H334.213C335.517 338.217 336.81 337.966 338.016 337.472C339.223 336.977 340.319 336.25 341.244 335.331C342.168 334.412 342.901 333.32 343.402 332.117C343.902 330.914 344.16 329.624 344.16 328.321V307.278H180.784V328.321C180.784 329.62 181.04 330.906 181.538 332.106C182.035 333.306 182.764 334.396 183.684 335.314C184.603 336.233 185.694 336.961 186.896 337.458C188.097 337.955 189.384 338.211 190.684 338.211Z" fill="#FDB42B" stroke="#AEAAD6" stroke-width="1.5" stroke-linecap="round" stroke-linejoin="round"/>
<path d="M262.448 331.733C267.207 331.733 271.064 327.879 271.064 323.126C271.064 318.372 267.207 314.519 262.448 314.519C257.69 314.519 253.833 318.372 253.833 323.126C253.833 327.879 257.69 331.733 262.448 331.733Z" fill="white"/>
<path d="M334.213 68.1789H190.684C189.382 68.1789 188.094 68.4354 186.891 68.9335C185.689 69.4317 184.597 70.1618 183.677 71.0821C182.758 72.0024 182.029 73.0949 181.532 74.2969C181.036 75.4989 180.782 76.7869 180.784 78.0872V84.7794H344.16V78.0872C344.162 76.783 343.906 75.4912 343.407 74.2861C342.908 73.081 342.175 71.9865 341.25 71.0656C340.326 70.1447 339.228 69.4156 338.02 68.9201C336.813 68.4247 335.519 68.1728 334.213 68.1789Z" fill="#FDB42B" stroke="#AEAAD6" stroke-width="1.5" stroke-linecap="round" stroke-linejoin="round"/>
<path d="M243.198 74.6481H281.699C282.321 74.6481 282.917 74.8948 283.357 75.3341C283.797 75.7734 284.044 76.3691 284.044 76.9904C284.045 77.2987 283.985 77.6043 283.868 77.8896C283.751 78.1748 283.578 78.4341 283.36 78.6526C283.143 78.8711 282.884 79.0445 282.599 79.1628C282.313 79.2811 282.008 79.3419 281.699 79.3419H243.198C242.58 79.3322 241.991 79.0801 241.557 78.6402C241.124 78.2002 240.881 77.6076 240.881 76.9904C240.883 76.3747 241.127 75.7845 241.56 75.3465C241.994 74.9086 242.581 74.6578 243.198 74.6481Z" fill="white"/>
<path d="M331.497 76.9904C331.497 76.5249 331.358 76.0698 331.099 75.6829C330.84 75.296 330.472 74.9946 330.041 74.8169C329.611 74.6392 329.137 74.5932 328.68 74.6847C328.223 74.7762 327.804 75.001 327.475 75.3309C327.146 75.6607 326.922 76.0805 326.833 76.5373C326.743 76.9941 326.791 77.4672 326.97 77.8967C327.15 78.3263 327.453 78.6929 327.842 78.9502C328.23 79.2074 328.686 79.3438 329.152 79.3419C329.461 79.3419 329.766 79.2811 330.051 79.1628C330.336 79.0445 330.595 78.8711 330.813 78.6526C331.031 78.4341 331.203 78.1748 331.321 77.8896C331.438 77.6043 331.498 77.2987 331.497 76.9904Z" fill="white"/>
<path d="M234.843 104.28H196.192V114.197H234.843V104.28Z" fill="#867FCE"/>
<path d="M331.497 120.843H196.192V124.951H331.497V120.843Z" fill="#E8E2FF"/>
<path d="M331.497 130.575H196.192V134.683H331.497V130.575Z" fill="#E8E2FF"/>
<path d="M257.955 140.297H196.192V144.405H257.955V140.297Z" fill="#E8E2FF"/>
<path d="M331.497 264.067H196.192V268.175H331.497V264.067Z" fill="#E8E2FF"/>
<path d="M331.497 273.798H196.192V277.906H331.497V273.798Z" fill="#E8E2FF"/>
<path d="M215.583 283.521H196.192V287.629H215.583V283.521Z" fill="#E8E2FF"/>
<path d="M233.475 234.193H196.192V244.111H233.475V234.193Z" fill="#867FCE"/>
<path d="M258.867 247.503H196.192V257.421H258.867V247.503Z" fill="#867FCE"/>
<path d="M310.701 234.193H236.796V244.111H310.701V234.193Z" fill="#867FCE"/>
<path d="M208.204 158.152H196.192V168.07H208.204V158.152Z" fill="#867FCE"/>
<path d="M249.599 158.152H211.861V168.07H249.599V158.152Z" fill="#867FCE"/>
<path d="M256.978 174.716H196.192V178.824H256.978V174.716Z" fill="#E8E2FF"/>
<path d="M256.978 184.447H196.192V188.556H256.978V184.447Z" fill="#E8E2FF"/>
<path d="M256.978 194.17H196.192V198.278H256.978V194.17Z" fill="#E8E2FF"/>
<path d="M256.978 203.901H196.192V208.01H256.978V203.901Z" fill="#E8E2FF"/>
<path d="M234.973 213.633H196.192V217.741H234.973V213.633Z" fill="#E8E2FF"/>
<path d="M331.394 159.324H267.743V217.741H331.394V159.324Z" fill="white" stroke="#AEAAD6" stroke-width="1.5" stroke-linecap="round" stroke-linejoin="round"/>
<path d="M270.385 156.684H265.101V161.963H270.385V156.684Z" fill="white" stroke="#AEAAD6" stroke-width="1.5" stroke-linecap="round" stroke-linejoin="round"/>
<path d="M334.138 156.684H328.854V161.963H334.138V156.684Z" fill="white" stroke="#AEAAD6" stroke-width="1.5" stroke-linecap="round" stroke-linejoin="round"/>
<path d="M270.385 215.102H265.101V220.381H270.385V215.102Z" fill="white" stroke="#AEAAD6" stroke-width="1.5" stroke-linecap="round" stroke-linejoin="round"/>
<path d="M334.138 215.102H328.854V220.381H334.138V215.102Z" fill="white" stroke="#AEAAD6" stroke-width="1.5" stroke-linecap="round" stroke-linejoin="round"/>
<path d="M314.711 188.528C314.711 185.537 313.823 182.613 312.16 180.126C310.496 177.639 308.132 175.701 305.366 174.556C302.6 173.412 299.556 173.112 296.619 173.696C293.683 174.279 290.986 175.72 288.868 177.834C286.751 179.949 285.31 182.644 284.725 185.577C284.141 188.511 284.441 191.552 285.587 194.315C286.733 197.078 288.673 199.44 291.162 201.102C293.652 202.763 296.579 203.65 299.573 203.65" fill="white"/>
<path d="M314.711 188.528C314.711 185.537 313.823 182.613 312.16 180.126C310.496 177.639 308.132 175.701 305.366 174.556C302.6 173.412 299.556 173.112 296.619 173.696C293.683 174.279 290.986 175.72 288.868 177.834C286.751 179.949 285.31 182.644 284.725 185.577C284.141 188.511 284.441 191.552 285.587 194.315C286.733 197.078 288.673 199.44 291.162 201.102C293.652 202.763 296.579 203.65 299.573 203.65" stroke="#41B883" stroke-width="1.5" stroke-linecap="round" stroke-linejoin="round"/>
<path d="M299.573 198.232C304.938 198.232 309.287 193.887 309.287 188.528C309.287 183.169 304.938 178.824 299.573 178.824C294.208 178.824 289.859 183.169 289.859 188.528C289.859 193.887 294.208 198.232 299.573 198.232Z" fill="#41B883"/>
<path d="M280.015 166.007H274.795V170.115H280.015V166.007Z" fill="#E8E2FF"/>
<path d="M293.339 208.921H274.795V213.029H293.339V208.921Z" fill="#E8E2FF"/>
<g style="mix-blend-mode:multiply" opacity="0.45">
<g style="mix-blend-mode:multiply" opacity="0.45">
<path d="M495.22 12.0291H326.076C322.14 12.0291 318.949 15.2167 318.949 19.1489V68.3833C318.949 72.3155 322.14 75.5032 326.076 75.5032H495.22C499.157 75.5032 502.348 72.3155 502.348 68.3833V19.1489C502.348 15.2167 499.157 12.0291 495.22 12.0291Z" fill="#867FCE"/>
</g>
</g>
<path d="M490.271 7.08423H321.127C317.191 7.08423 314 10.2719 314 14.204V63.4385C314 67.3707 317.191 70.5583 321.127 70.5583H490.271C494.207 70.5583 497.398 67.3707 497.398 63.4385V14.204C497.398 10.2719 494.207 7.08423 490.271 7.08423Z" fill="white"/>
<path d="M490.271 7.08423H321.127C317.191 7.08423 314 10.2719 314 14.204V63.4385C314 67.3707 317.191 70.5583 321.127 70.5583H490.271C494.207 70.5583 497.398 67.3707 497.398 63.4385V14.204C497.398 10.2719 494.207 7.08423 490.271 7.08423Z" stroke="#AEAAD6" stroke-width="1.5" stroke-linecap="round" stroke-linejoin="round"/>
<path d="M322.681 20.1367L327.975 14.8573" stroke="#AEAAD6" stroke-width="1.5" stroke-linecap="round" stroke-linejoin="round"/>
<path d="M322.681 15.1056L327.975 20.385" stroke="#AEAAD6" stroke-width="1.5" stroke-linecap="round" stroke-linejoin="round"/>
<path d="M480.985 16.2769H337.428V20.3851H480.985V16.2769Z" fill="#867FCE"/>
<path d="M480.985 26.0084H337.428V30.1167H480.985V26.0084Z" fill="#E8E2FF"/>
<path d="M426.387 35.7307H337.428V39.839H426.387V35.7307Z" fill="#E8E2FF"/>
<path d="M480.986 35.7307H433.012V39.839H480.986V35.7307Z" fill="#867FCE"/>
<path d="M401.787 45.4625H337.428V49.5708H401.787V45.4625Z" fill="#867FCE"/>
<path d="M480.985 45.4625H408.671V49.5708H480.985V45.4625Z" fill="#E8E2FF"/>
<path d="M449.574 55.1941H337.428V59.3024H449.574V55.1941Z" fill="#E8E2FF"/>
<path d="M289 96C289 77.669 324 78.5563 324 62" stroke="#342A98" stroke-width="1.5" stroke-linecap="round" stroke-linejoin="round"/>
<path d="M323.652 59C322.95 59 322.277 59.2778 321.78 59.7726C321.283 60.2674 321.002 60.9388 321 61.6397C321.002 62.3407 321.283 63.0121 321.78 63.5069C322.277 64.0016 322.95 64.2794 323.652 64.2794C324.353 64.2794 325.025 64.0013 325.52 63.5063C326.016 63.0112 326.294 62.3398 326.294 61.6397C326.294 60.9396 326.016 60.2682 325.52 59.7732C325.025 59.2781 324.353 59 323.652 59Z" fill="#342A98" stroke="#342A98" stroke-width="1.5" stroke-linecap="round" stroke-linejoin="round"/>
<path d="M288.994 95.5242C288.293 95.5242 287.621 95.8023 287.126 96.2973C286.63 96.7924 286.352 97.4638 286.352 98.1639C286.352 98.8648 286.63 99.5372 287.125 100.034C287.62 100.53 288.292 100.81 288.994 100.813C289.697 100.81 290.37 100.531 290.866 100.034C291.363 99.5381 291.643 98.8657 291.646 98.1639C291.643 97.4629 291.363 96.7915 290.866 96.2968C290.369 95.802 289.696 95.5242 288.994 95.5242Z" fill="#342A98" stroke="#342A98" stroke-width="1.5" stroke-linecap="round" stroke-linejoin="round"/>
<g style="mix-blend-mode:multiply" opacity="0.45">
<g style="mix-blend-mode:multiply" opacity="0.45">
<path d="M140.049 79.9448H37.0773C33.1411 79.9448 29.9502 83.1325 29.9502 87.0646V136.299C29.9502 140.231 33.1411 143.419 37.0773 143.419H140.049C143.985 143.419 147.176 140.231 147.176 136.299V87.0646C147.176 83.1325 143.985 79.9448 140.049 79.9448Z" fill="#867FCE"/>
</g>
</g>
<path d="M135.099 75H32.1271C28.1909 75 25 78.1877 25 82.1198V131.354C25 135.286 28.1909 138.474 32.1271 138.474H135.099C139.035 138.474 142.226 135.286 142.226 131.354V82.1198C142.226 78.1877 139.035 75 135.099 75Z" fill="white"/>
<path d="M135.099 75H32.1271C28.1909 75 25 78.1877 25 82.1198V131.354C25 135.286 28.1909 138.474 32.1271 138.474H135.099C139.035 138.474 142.226 135.286 142.226 131.354V82.1198C142.226 78.1877 139.035 75 135.099 75Z" stroke="#AEAAD6" stroke-width="1.5" stroke-linecap="round" stroke-linejoin="round"/>
<path d="M33.6812 88.3008L38.9753 83.0214" stroke="#AEAAD6" stroke-width="1.5" stroke-linecap="round" stroke-linejoin="round"/>
<path d="M33.6812 83.0214L38.9753 88.3008" stroke="#AEAAD6" stroke-width="1.5" stroke-linecap="round" stroke-linejoin="round"/>
<path d="M55.1162 118.329L78.0951 94.8016L92.0529 118.329L115.057 107.652" stroke="#FC1264" stroke-width="1.5" stroke-linecap="round" stroke-linejoin="round"/>
<path d="M57.9281 118.329C57.9306 117.77 57.7667 117.222 57.4573 116.756C57.1479 116.29 56.7069 115.927 56.1903 115.712C55.6736 115.496 55.1046 115.439 54.5555 115.548C54.0064 115.656 53.5019 115.925 53.1061 116.321C52.7103 116.716 52.4411 117.22 52.3325 117.769C52.2239 118.317 52.2809 118.886 52.4963 119.402C52.7116 119.918 53.0756 120.358 53.5421 120.668C54.0085 120.977 54.5564 121.14 55.1162 121.138C55.8619 121.138 56.5771 120.842 57.1045 120.315C57.6318 119.788 57.9281 119.074 57.9281 118.329Z" fill="white" stroke="#FC1264" stroke-width="1.5" stroke-linecap="round" stroke-linejoin="round"/>
<path d="M117.869 107.652C117.869 107.094 117.702 106.548 117.39 106.085C117.078 105.622 116.635 105.262 116.118 105.051C115.6 104.841 115.032 104.789 114.485 104.903C113.938 105.016 113.437 105.29 113.046 105.689C112.655 106.089 112.393 106.595 112.292 107.144C112.19 107.693 112.255 108.26 112.478 108.772C112.7 109.284 113.071 109.718 113.541 110.019C114.012 110.32 114.562 110.474 115.121 110.461C115.855 110.444 116.554 110.141 117.068 109.616C117.582 109.091 117.869 108.386 117.869 107.652Z" fill="white" stroke="#FC1264" stroke-width="1.5" stroke-linecap="round" stroke-linejoin="round"/>
<path d="M94.8651 118.329C94.8651 117.773 94.7001 117.23 94.3912 116.768C94.0822 116.306 93.643 115.946 93.1292 115.734C92.6154 115.521 92.05 115.465 91.5046 115.574C90.9591 115.682 90.4581 115.95 90.0648 116.343C89.6716 116.735 89.4037 117.236 89.2952 117.781C89.1867 118.326 89.2424 118.89 89.4553 119.404C89.6681 119.917 90.0285 120.356 90.4909 120.664C90.9533 120.973 91.497 121.138 92.0531 121.138C92.7989 121.138 93.5141 120.842 94.0415 120.315C94.5688 119.788 94.8651 119.074 94.8651 118.329Z" fill="white" stroke="#FC1264" stroke-width="1.5" stroke-linecap="round" stroke-linejoin="round"/>
<path d="M80.9324 94.8016C80.9324 94.246 80.7675 93.7029 80.4585 93.241C80.1496 92.779 79.7104 92.419 79.1966 92.2064C78.6828 91.9938 78.1174 91.9381 77.5719 92.0465C77.0265 92.1549 76.5254 92.4225 76.1322 92.8153C75.7389 93.2082 75.4711 93.7087 75.3626 94.2536C75.2541 94.7985 75.3098 95.3633 75.5226 95.8766C75.7355 96.3899 76.0959 96.8286 76.5583 97.1372C77.0207 97.4459 77.5644 97.6106 78.1205 97.6106C78.8663 97.6106 79.5815 97.3147 80.1088 96.7879C80.6362 96.2611 80.9324 95.5466 80.9324 94.8016Z" fill="white" stroke="#FC1264" stroke-width="1.5" stroke-linecap="round" stroke-linejoin="round"/>
<path d="M134 129C190.071 129 187.357 163 238 163" stroke="#342A98" stroke-width="1.5" stroke-linecap="round" stroke-linejoin="round"/>
<path d="M243.672 162.67C243.672 162.323 243.604 161.98 243.471 161.66C243.338 161.339 243.144 161.048 242.898 160.803C242.653 160.558 242.362 160.364 242.041 160.231C241.72 160.098 241.377 160.03 241.03 160.03C240.681 160.028 240.336 160.094 240.013 160.226C239.69 160.357 239.397 160.551 239.149 160.797C238.902 161.042 238.706 161.334 238.572 161.655C238.438 161.977 238.369 162.321 238.369 162.67C238.369 163.37 238.647 164.041 239.143 164.536C239.638 165.031 240.31 165.309 241.011 165.309C241.36 165.312 241.705 165.245 242.028 165.114C242.351 164.982 242.644 164.788 242.892 164.543C243.139 164.297 243.335 164.006 243.469 163.684C243.603 163.363 243.672 163.018 243.672 162.67Z" fill="#342A98" stroke="#342A98" stroke-width="1.5" stroke-linecap="round" stroke-linejoin="round"/>
<path d="M136.322 128.64C136.322 128.29 136.253 127.944 136.118 127.621C135.982 127.298 135.784 127.006 135.535 126.76C135.286 126.515 134.99 126.321 134.665 126.19C134.34 126.06 133.993 125.995 133.643 126C132.942 126 132.27 126.278 131.774 126.773C131.278 127.268 131 127.94 131 128.64C130.998 128.988 131.064 129.333 131.196 129.656C131.328 129.978 131.522 130.271 131.767 130.519C132.013 130.766 132.305 130.962 132.627 131.096C132.949 131.229 133.294 131.298 133.643 131.298C133.994 131.303 134.343 131.238 134.669 131.106C134.996 130.975 135.292 130.779 135.542 130.532C135.791 130.284 135.989 129.989 136.123 129.665C136.257 129.34 136.325 128.991 136.322 128.64Z" fill="#342A98" stroke="#342A98" stroke-width="1.5" stroke-linecap="round" stroke-linejoin="round"/>
<g style="mix-blend-mode:multiply" opacity="0.45">
<g style="mix-blend-mode:multiply" opacity="0.45">
<path d="M102.009 215.945H13.0773C9.14113 215.945 5.9502 219.132 5.9502 223.065V349.418C5.9502 353.35 9.14113 356.538 13.0773 356.538H102.009C105.945 356.538 109.136 353.35 109.136 349.418V223.065C109.136 219.132 105.945 215.945 102.009 215.945Z" fill="#867FCE"/>
</g>
</g>
<path d="M97.0583 211H8.12715C4.19093 211 1 214.188 1 218.12V344.473C1 348.405 4.19093 351.593 8.12715 351.593H97.0583C100.995 351.593 104.185 348.405 104.185 344.473V218.12C104.185 214.188 100.995 211 97.0583 211Z" fill="white"/>
<path d="M97.0583 211H8.12715C4.19093 211 1 214.188 1 218.12V344.473C1 348.405 4.19093 351.593 8.12715 351.593H97.0583C100.995 351.593 104.185 348.405 104.185 344.473V218.12C104.185 214.188 100.995 211 97.0583 211Z" stroke="#AEAAD6" stroke-width="1.5" stroke-linecap="round" stroke-linejoin="round"/>
<path d="M9.68115 224.301L14.966 219.021" stroke="#AEAAD6" stroke-width="1.5" stroke-linecap="round" stroke-linejoin="round"/>
<path d="M9.68115 219.021L14.966 224.301" stroke="#AEAAD6" stroke-width="1.5" stroke-linecap="round" stroke-linejoin="round"/>
<path d="M63.8231 262.14V265.923C60.4867 268.11 56.5832 269.275 52.5927 269.275C48.6021 269.275 44.6986 268.11 41.3623 265.923V262.14C41.3623 259.164 42.5455 256.311 44.6516 254.207C46.7577 252.103 49.6142 250.921 52.5927 250.921C55.5712 250.921 58.4276 252.103 60.5338 254.207C62.6399 256.311 63.8231 259.164 63.8231 262.14ZM52.5927 248.681C53.8532 248.681 55.0855 248.308 56.1336 247.608C57.1817 246.908 57.9986 245.914 58.481 244.751C58.9634 243.587 59.0896 242.307 58.8437 241.072C58.5978 239.837 57.9908 238.702 57.0994 237.812C56.2081 236.922 55.0724 236.315 53.8361 236.07C52.5997 235.824 51.3183 235.95 50.1536 236.432C48.989 236.914 47.9936 237.73 47.2933 238.777C46.593 239.824 46.2192 241.055 46.2192 242.314C46.2192 244.003 46.8907 245.622 48.0859 246.816C49.2812 248.01 50.9023 248.681 52.5927 248.681Z" fill="#342A98"/>
<path fill-rule="evenodd" clip-rule="evenodd" d="M52.5929 228.985C41.6461 228.985 32.7732 237.85 32.7732 248.783C32.7732 259.717 41.6461 268.582 52.5929 268.582C63.5397 268.582 72.4126 259.717 72.4126 248.783C72.4126 237.85 63.5397 228.985 52.5929 228.985ZM31.3804 248.783C31.3804 237.079 40.8782 227.592 52.5929 227.592C64.3076 227.592 73.8055 237.079 73.8055 248.783C73.8055 260.488 64.3076 269.975 52.5929 269.975C40.8782 269.975 31.3804 260.488 31.3804 248.783Z" fill="#342A98"/>
<path d="M14.966 286.799H9.68115V292.078H14.966V286.799Z" fill="white" stroke="#AEAAD6" stroke-width="1.5" stroke-linecap="round" stroke-linejoin="round"/>
<path d="M90.3402 287.97H21.4507V292.078H90.3402V287.97Z" fill="#E8E2FF"/>
<path d="M90.3402 297.702H21.4507V301.81H90.3402V297.702Z" fill="#E8E2FF"/>
<path d="M65.4045 307.433H21.4507V311.542H65.4045V307.433Z" fill="#E8E2FF"/>
<path d="M14.966 320.864H9.68115V326.144H14.966V320.864Z" fill="white" stroke="#AEAAD6" stroke-width="1.5" stroke-linecap="round" stroke-linejoin="round"/>
<path d="M90.3402 322.036H21.4507V326.144H90.3402V322.036Z" fill="#E8E2FF"/>
<path d="M81.9849 331.767H21.4507V335.875H81.9849V331.767Z" fill="#867FCE"/>
<path d="M92.5 275C170.676 275 158 315.5 240.5 276.5" stroke="#342A98" stroke-width="1.5" stroke-linecap="round" stroke-linejoin="round"/>
<path d="M243.672 275.694C243.672 276.395 243.394 277.068 242.899 277.564C242.403 278.061 241.731 278.341 241.03 278.343C240.328 278.341 239.656 278.061 239.161 277.564C238.665 277.068 238.387 276.395 238.387 275.694C238.387 274.994 238.666 274.323 239.161 273.828C239.657 273.333 240.329 273.055 241.03 273.055C241.73 273.055 242.403 273.333 242.898 273.828C243.394 274.323 243.672 274.994 243.672 275.694Z" fill="#342A98" stroke="#342A98" stroke-width="1.5" stroke-linecap="round" stroke-linejoin="round"/>
<path d="M95.2849 274.649C95.2849 275.349 95.0065 276.021 94.5109 276.516C94.0154 277.011 93.3433 277.289 92.6424 277.289C91.9416 277.289 91.2695 277.011 90.774 276.516C90.2784 276.021 90 275.349 90 274.649C89.9999 273.955 90.2729 273.288 90.7602 272.792C91.2474 272.297 91.91 272.012 92.6052 272C92.9558 271.996 93.3036 272.062 93.6286 272.194C93.9535 272.325 94.2492 272.52 94.4984 272.766C94.7476 273.012 94.9454 273.306 95.0804 273.629C95.2154 273.952 95.2849 274.299 95.2849 274.649Z" fill="#342A98" stroke="#342A98" stroke-width="1.5" stroke-linecap="round" stroke-linejoin="round"/>
<g style="mix-blend-mode:multiply" opacity="0.45">
<g style="mix-blend-mode:multiply" opacity="0.45">
<path d="M526.048 242.945H423.077C419.141 242.945 415.95 246.133 415.95 250.065V299.299C415.95 303.231 419.141 306.419 423.077 306.419H526.048C529.984 306.419 533.175 303.231 533.175 299.299V250.065C533.175 246.133 529.984 242.945 526.048 242.945Z" fill="#867FCE"/>
</g>
</g>
<path d="M521.099 238H418.127C414.191 238 411 241.188 411 245.12V294.354C411 298.286 414.191 301.474 418.127 301.474H521.099C525.035 301.474 528.226 298.286 528.226 294.354V245.12C528.226 241.188 525.035 238 521.099 238Z" fill="white"/>
<path d="M521.099 238H418.127C414.191 238 411 241.188 411 245.12V294.354C411 298.286 414.191 301.474 418.127 301.474H521.099C525.035 301.474 528.226 298.286 528.226 294.354V245.12C528.226 241.188 525.035 238 521.099 238Z" stroke="#AEAAD6" stroke-width="1.5" stroke-linecap="round" stroke-linejoin="round"/>
<path d="M419.681 251.31L424.975 246.021" stroke="#AEAAD6" stroke-width="1.5" stroke-linecap="round" stroke-linejoin="round"/>
<path d="M419.681 246.021L424.975 251.31" stroke="#AEAAD6" stroke-width="1.5" stroke-linecap="round" stroke-linejoin="round"/>
<path d="M438.62 274.332C437.22 274.332 436.128 273.945 435.344 273.17C434.569 272.395 434.182 271.289 434.182 269.852V264.364H436.45V269.768C436.45 271.523 437.178 272.4 438.634 272.4C439.343 272.4 439.884 272.19 440.258 271.77C440.631 271.341 440.818 270.673 440.818 269.768V264.364H443.058V269.852C443.058 271.289 442.666 272.395 441.882 273.17C441.107 273.945 440.02 274.332 438.62 274.332ZM449.597 266.52C450.297 266.52 450.931 266.683 451.501 267.01C452.079 267.327 452.532 267.78 452.859 268.368C453.185 268.947 453.349 269.623 453.349 270.398C453.349 271.173 453.185 271.854 452.859 272.442C452.532 273.021 452.079 273.473 451.501 273.8C450.931 274.117 450.297 274.276 449.597 274.276C448.635 274.276 447.879 273.973 447.329 273.366V276.88H445.145V266.632H447.231V267.5C447.772 266.847 448.561 266.52 449.597 266.52ZM449.219 272.484C449.779 272.484 450.236 272.297 450.591 271.924C450.955 271.541 451.137 271.033 451.137 270.398C451.137 269.763 450.955 269.259 450.591 268.886C450.236 268.503 449.779 268.312 449.219 268.312C448.659 268.312 448.197 268.503 447.833 268.886C447.478 269.259 447.301 269.763 447.301 270.398C447.301 271.033 447.478 271.541 447.833 271.924C448.197 272.297 448.659 272.484 449.219 272.484ZM462.581 266.632V272.904C462.581 274.285 462.221 275.312 461.503 275.984C460.784 276.656 459.734 276.992 458.353 276.992C457.625 276.992 456.934 276.903 456.281 276.726C455.627 276.549 455.086 276.292 454.657 275.956L455.525 274.388C455.842 274.649 456.243 274.855 456.729 275.004C457.214 275.163 457.699 275.242 458.185 275.242C458.941 275.242 459.496 275.069 459.851 274.724C460.215 274.388 460.397 273.875 460.397 273.184V272.862C459.827 273.487 459.034 273.8 458.017 273.8C457.326 273.8 456.691 273.651 456.113 273.352C455.543 273.044 455.091 272.615 454.755 272.064C454.419 271.513 454.251 270.879 454.251 270.16C454.251 269.441 454.419 268.807 454.755 268.256C455.091 267.705 455.543 267.281 456.113 266.982C456.691 266.674 457.326 266.52 458.017 266.52C459.109 266.52 459.939 266.879 460.509 267.598V266.632H462.581ZM458.451 272.008C459.029 272.008 459.501 271.84 459.865 271.504C460.238 271.159 460.425 270.711 460.425 270.16C460.425 269.609 460.238 269.166 459.865 268.83C459.501 268.485 459.029 268.312 458.451 268.312C457.872 268.312 457.396 268.485 457.023 268.83C456.649 269.166 456.463 269.609 456.463 270.16C456.463 270.711 456.649 271.159 457.023 271.504C457.396 271.84 457.872 272.008 458.451 272.008ZM466.7 267.626C466.961 267.262 467.311 266.987 467.75 266.8C468.198 266.613 468.711 266.52 469.29 266.52V268.536C469.047 268.517 468.884 268.508 468.8 268.508C468.174 268.508 467.684 268.685 467.33 269.04C466.975 269.385 466.798 269.908 466.798 270.608V274.164H464.614V266.632H466.7V267.626ZM473.585 266.52C474.752 266.52 475.648 266.8 476.273 267.36C476.898 267.911 477.211 268.746 477.211 269.866V274.164H475.167V273.226C474.756 273.926 473.991 274.276 472.871 274.276C472.292 274.276 471.788 274.178 471.359 273.982C470.939 273.786 470.617 273.515 470.393 273.17C470.169 272.825 470.057 272.433 470.057 271.994C470.057 271.294 470.318 270.743 470.841 270.342C471.373 269.941 472.19 269.74 473.291 269.74H475.027C475.027 269.264 474.882 268.9 474.593 268.648C474.304 268.387 473.87 268.256 473.291 268.256C472.89 268.256 472.493 268.321 472.101 268.452C471.718 268.573 471.392 268.741 471.121 268.956L470.337 267.43C470.748 267.141 471.238 266.917 471.807 266.758C472.386 266.599 472.978 266.52 473.585 266.52ZM473.417 272.806C473.79 272.806 474.122 272.722 474.411 272.554C474.7 272.377 474.906 272.12 475.027 271.784V271.014H473.529C472.633 271.014 472.185 271.308 472.185 271.896C472.185 272.176 472.292 272.4 472.507 272.568C472.731 272.727 473.034 272.806 473.417 272.806ZM486.942 263.776V274.164H484.856V273.296C484.314 273.949 483.53 274.276 482.504 274.276C481.794 274.276 481.15 274.117 480.572 273.8C480.002 273.483 479.554 273.03 479.228 272.442C478.901 271.854 478.738 271.173 478.738 270.398C478.738 269.623 478.901 268.942 479.228 268.354C479.554 267.766 480.002 267.313 480.572 266.996C481.15 266.679 481.794 266.52 482.504 266.52C483.465 266.52 484.216 266.823 484.758 267.43V263.776H486.942ZM482.882 272.484C483.432 272.484 483.89 272.297 484.254 271.924C484.618 271.541 484.8 271.033 484.8 270.398C484.8 269.763 484.618 269.259 484.254 268.886C483.89 268.503 483.432 268.312 482.882 268.312C482.322 268.312 481.86 268.503 481.496 268.886C481.132 269.259 480.95 269.763 480.95 270.398C480.95 271.033 481.132 271.541 481.496 271.924C481.86 272.297 482.322 272.484 482.882 272.484ZM488.963 266.632H491.147V274.164H488.963V266.632ZM490.055 265.582C489.654 265.582 489.327 265.465 489.075 265.232C488.823 264.999 488.697 264.709 488.697 264.364C488.697 264.019 488.823 263.729 489.075 263.496C489.327 263.263 489.654 263.146 490.055 263.146C490.456 263.146 490.783 263.258 491.035 263.482C491.287 263.706 491.413 263.986 491.413 264.322C491.413 264.686 491.287 264.989 491.035 265.232C490.783 265.465 490.456 265.582 490.055 265.582ZM497.752 266.52C498.685 266.52 499.437 266.8 500.006 267.36C500.585 267.92 500.874 268.751 500.874 269.852V274.164H498.69V270.188C498.69 269.591 498.559 269.147 498.298 268.858C498.037 268.559 497.659 268.41 497.164 268.41C496.613 268.41 496.175 268.583 495.848 268.928C495.521 269.264 495.358 269.768 495.358 270.44V274.164H493.174V266.632H495.26V267.514C495.549 267.197 495.909 266.954 496.338 266.786C496.767 266.609 497.239 266.52 497.752 266.52ZM510.706 266.632V272.904C510.706 274.285 510.346 275.312 509.628 275.984C508.909 276.656 507.859 276.992 506.478 276.992C505.75 276.992 505.059 276.903 504.406 276.726C503.752 276.549 503.211 276.292 502.782 275.956L503.65 274.388C503.967 274.649 504.368 274.855 504.854 275.004C505.339 275.163 505.824 275.242 506.31 275.242C507.066 275.242 507.621 275.069 507.976 274.724C508.34 274.388 508.522 273.875 508.522 273.184V272.862C507.952 273.487 507.159 273.8 506.142 273.8C505.451 273.8 504.816 273.651 504.238 273.352C503.668 273.044 503.216 272.615 502.88 272.064C502.544 271.513 502.376 270.879 502.376 270.16C502.376 269.441 502.544 268.807 502.88 268.256C503.216 267.705 503.668 267.281 504.238 266.982C504.816 266.674 505.451 266.52 506.142 266.52C507.234 266.52 508.064 266.879 508.634 267.598V266.632H510.706ZM506.576 272.008C507.154 272.008 507.626 271.84 507.99 271.504C508.363 271.159 508.55 270.711 508.55 270.16C508.55 269.609 508.363 269.166 507.99 268.83C507.626 268.485 507.154 268.312 506.576 268.312C505.997 268.312 505.521 268.485 505.148 268.83C504.774 269.166 504.588 269.609 504.588 270.16C504.588 270.711 504.774 271.159 505.148 271.504C505.521 271.84 505.997 272.008 506.576 272.008Z" fill="#342A98"/>
<path d="M302 254C365.619 254 362.54 291 420 291" stroke="#342A98" stroke-width="1.5" stroke-linecap="round" stroke-linejoin="round"/>
<path d="M423.294 290.64C423.294 289.94 423.016 289.268 422.52 288.773C422.025 288.278 421.353 288 420.652 288C419.95 288 419.277 288.278 418.78 288.773C418.283 289.267 418.002 289.939 418 290.64C418.002 291.341 418.283 292.012 418.78 292.507C419.277 293.002 419.95 293.279 420.652 293.279C421.353 293.279 422.025 293.001 422.52 292.506C423.016 292.011 423.294 291.34 423.294 290.64Z" fill="#342A98" stroke="#342A98" stroke-width="1.5" stroke-linecap="round" stroke-linejoin="round"/>
<path d="M302.29 253.684C302.29 252.984 302.011 252.313 301.516 251.818C301.02 251.323 300.348 251.045 299.647 251.045C298.947 251.045 298.274 251.323 297.779 251.818C297.283 252.313 297.005 252.984 297.005 253.684C297.005 254.384 297.283 255.056 297.779 255.551C298.274 256.046 298.947 256.324 299.647 256.324C300.348 256.324 301.02 256.046 301.516 255.551C302.011 255.056 302.29 254.384 302.29 253.684Z" fill="#342A98" stroke="#342A98" stroke-width="1.5" stroke-linecap="round" stroke-linejoin="round"/>
<g style="mix-blend-mode:multiply" opacity="0.45">
<g style="mix-blend-mode:multiply" opacity="0.45">
<path d="M432.663 330.459H309.548C305.611 330.459 302.42 333.647 302.42 337.579V342.58C302.42 346.512 305.611 349.699 309.548 349.699H432.663C436.599 349.699 439.79 346.512 439.79 342.58V337.579C439.79 333.647 436.599 330.459 432.663 330.459Z" fill="#867FCE"/>
</g>
</g>
<path d="M427.713 325.514H304.598C300.662 325.514 297.471 328.702 297.471 332.634V337.635C297.471 341.567 300.662 344.754 304.598 344.754H427.713C431.649 344.754 434.84 341.567 434.84 337.635V332.634C434.84 328.702 431.649 325.514 427.713 325.514Z" stroke="#AEAAD6" stroke-width="1.5" stroke-linecap="round" stroke-linejoin="round"/>
<path d="M427.713 325.514H304.597C300.661 325.514 297.47 328.702 297.47 332.634V337.635C297.47 341.567 300.661 344.755 304.597 344.755H427.713C431.649 344.755 434.84 341.567 434.84 337.635V332.634C434.84 328.702 431.649 325.514 427.713 325.514Z" fill="white"/>
<path d="M306.151 337.83L311.446 332.551" stroke="#AEAAD6" stroke-width="1.5" stroke-linecap="round" stroke-linejoin="round"/>
<path d="M306.151 332.551L311.446 337.83" stroke="#AEAAD6" stroke-width="1.5" stroke-linecap="round" stroke-linejoin="round"/>
<path d="M423.665 331.993H323.336C322.502 331.993 321.702 332.324 321.112 332.913C320.522 333.502 320.191 334.301 320.191 335.134C320.191 335.968 320.522 336.767 321.112 337.356C321.702 337.945 322.502 338.276 323.336 338.276H423.665C424.499 338.276 425.299 337.945 425.889 337.356C426.478 336.767 426.81 335.968 426.81 335.134C426.807 334.302 426.475 333.504 425.886 332.916C425.297 332.327 424.498 331.995 423.665 331.993Z" fill="#E8E2FF"/>
<path d="M404.088 331.993H323.336C322.502 331.993 321.702 332.324 321.112 332.913C320.522 333.502 320.191 334.301 320.191 335.134C320.191 335.968 320.522 336.767 321.112 337.356C321.702 337.945 322.502 338.276 323.336 338.276H404.088V331.993Z" fill="#FC1264"/>
<path d="M265.593 323.702C281.346 323.702 280.583 335.636 294.818 335.636" stroke="#342A98" stroke-width="1.5" stroke-linecap="round" stroke-linejoin="round"/>
<path d="M300.113 335.636C300.113 334.936 299.835 334.265 299.339 333.77C298.844 333.275 298.171 332.997 297.471 332.997C296.769 332.997 296.096 333.275 295.599 333.769C295.102 334.264 294.821 334.935 294.819 335.636C294.821 336.337 295.102 337.009 295.599 337.504C296.096 337.998 296.769 338.276 297.471 338.276C298.171 338.276 298.844 337.998 299.339 337.503C299.835 337.008 300.113 336.337 300.113 335.636Z" fill="#342A98" stroke="#342A98" stroke-width="1.5" stroke-linecap="round" stroke-linejoin="round"/>
<path d="M265.594 323.702C265.591 323.001 265.311 322.33 264.814 321.835C264.317 321.34 263.643 321.062 262.942 321.062C262.241 321.062 261.569 321.34 261.073 321.835C260.578 322.33 260.299 323.002 260.299 323.702C260.299 324.402 260.578 325.073 261.073 325.568C261.569 326.063 262.241 326.342 262.942 326.342C263.643 326.342 264.317 326.064 264.814 325.569C265.311 325.074 265.591 324.403 265.594 323.702Z" fill="#342A98" stroke="#342A98" stroke-width="1.5" stroke-linecap="round" stroke-linejoin="round"/>
<g style="mix-blend-mode:multiply" opacity="0.45">
<g style="mix-blend-mode:multiply" opacity="0.45">
<path d="M466.59 95.9448H416.077C412.141 95.9448 408.95 99.1325 408.95 103.065V192.685C408.95 196.617 412.141 199.805 416.077 199.805H466.59C470.526 199.805 473.717 196.617 473.717 192.685V103.065C473.717 99.1325 470.526 95.9448 466.59 95.9448Z" fill="#867FCE"/>
</g>
</g>
<path d="M461.641 91H411.127C407.191 91 404 94.1876 404 98.1198V187.74C404 191.672 407.191 194.86 411.127 194.86H461.641C465.577 194.86 468.768 191.672 468.768 187.74V98.1198C468.768 94.1876 465.577 91 461.641 91Z" fill="white"/>
<path d="M461.641 91H411.127C407.191 91 404 94.1876 404 98.1198V187.74C404 191.672 407.191 194.86 411.127 194.86H461.641C465.577 194.86 468.768 191.672 468.768 187.74V98.1198C468.768 94.1876 465.577 91 461.641 91Z" stroke="#AEAAD6" stroke-width="1.5" stroke-linecap="round" stroke-linejoin="round"/>
<path d="M412.681 104.301L417.975 99.0214" stroke="#AEAAD6" stroke-width="1.5" stroke-linecap="round" stroke-linejoin="round"/>
<path d="M412.681 99.0214L417.975 104.301" stroke="#AEAAD6" stroke-width="1.5" stroke-linecap="round" stroke-linejoin="round"/>
<path d="M419.235 144.209L430.268 148.551V145.588L423.168 142.906L430.268 140.199V137.262L419.235 141.578V144.209ZM438.066 132.154L432.677 150.16H435.307L440.722 132.154H438.066ZM443.104 145.588V148.551L454.137 144.209V141.578L443.104 137.262V140.199L450.204 142.906L443.104 145.588Z" fill="#342A98"/>
<path d="M317 209C354.016 209 352.032 195.833 393.016 195.833C398.312 195.833 403.391 194.942 407.138 193.356C410.885 191.77 412.994 189.618 413 187.374V184" stroke="#342A98" stroke-width="1.5" stroke-linecap="round" stroke-linejoin="round"/>
<path d="M311.595 209.144C311.595 208.444 311.873 207.772 312.369 207.277C312.864 206.782 313.536 206.504 314.237 206.504C314.938 206.504 315.61 206.782 316.106 207.277C316.601 207.772 316.88 208.444 316.88 209.144C316.88 209.844 316.601 210.515 316.106 211.01C315.61 211.505 314.938 211.783 314.237 211.783C313.536 211.783 312.864 211.505 312.369 211.01C311.873 210.515 311.595 209.844 311.595 209.144Z" fill="#342A98" stroke="#342A98" stroke-width="1.5" stroke-linecap="round" stroke-linejoin="round"/>
<path d="M410 184.64C410 183.94 410.278 183.268 410.774 182.773C411.27 182.278 411.942 182 412.642 182C413.343 182 414.015 182.278 414.511 182.773C415.006 183.268 415.285 183.94 415.285 184.64C415.285 185.341 415.007 186.013 414.511 186.51C414.016 187.006 413.344 187.286 412.642 187.289C411.941 187.286 411.269 187.006 410.773 186.51C410.278 186.013 410 185.341 410 184.64Z" fill="#342A98" stroke="#342A98" stroke-width="1.5" stroke-linecap="round" stroke-linejoin="round"/>
</svg>
