<svg width="476" height="432" viewBox="0 0 476 432" fill="none" xmlns="http://www.w3.org/2000/svg">
<g clip-path="url(#clip0_4943_45402)">
<path d="M154.628 56.4849H130.979V72.9187L157.568 73.987L154.628 56.4849Z" fill="#AEAAD6"/>
<path d="M201.125 8.65112L155.297 57.2876L174.136 65.4373L215.288 27.2249L201.125 8.65112Z" fill="#AEAAD6"/>
<path d="M325.652 10.7912L213.816 0.367188L213.417 28.1589L315.896 47.2668L325.652 10.7912Z" fill="#E8E2FF"/>
<path d="M410.492 157.497L311.62 43.6589L340.48 20.1436L450.041 132.376L410.492 157.497Z" fill="#E8E2FF"/>
<path d="M413.167 149.478L293.364 443.102L342 457L461.799 163.375L413.167 149.478Z" fill="#AEAAD6"/>
<path d="M350.501 362.567C350.435 362.567 350.37 362.553 350.31 362.527C350.247 362.501 350.19 362.464 350.142 362.416C350.093 362.368 350.055 362.312 350.029 362.249C350.003 362.187 349.989 362.12 349.989 362.052C349.989 361.984 350.002 361.917 350.027 361.855L401.466 236.505C401.78 235.735 401.933 234.909 401.915 234.078C401.898 233.247 401.71 232.429 401.364 231.673C401.017 230.918 400.52 230.241 399.902 229.685C399.284 229.13 398.558 228.707 397.77 228.442C396.86 228.139 396.021 227.654 395.303 227.018C394.586 226.381 394.005 225.605 393.595 224.738C393.185 223.871 392.956 222.929 392.92 221.971C392.884 221.012 393.043 220.056 393.386 219.16L417.372 156.65C417.396 156.587 417.432 156.53 417.478 156.481C417.524 156.433 417.58 156.394 417.641 156.366C417.702 156.339 417.768 156.324 417.836 156.322C417.903 156.32 417.969 156.332 418.032 156.356C418.095 156.38 418.152 156.416 418.201 156.462C418.249 156.509 418.288 156.564 418.316 156.625C418.343 156.686 418.358 156.753 418.36 156.82C418.362 156.887 418.35 156.953 418.326 157.016L394.334 219.52C394.039 220.286 393.903 221.105 393.934 221.925C393.964 222.746 394.161 223.552 394.512 224.294C394.862 225.037 395.36 225.701 395.974 226.246C396.589 226.79 397.307 227.205 398.086 227.465C399.01 227.772 399.86 228.265 400.585 228.915C401.31 229.565 401.893 230.356 402.299 231.241C402.705 232.126 402.924 233.084 402.944 234.058C402.963 235.031 402.783 235.997 402.413 236.898L350.975 362.248C350.937 362.342 350.871 362.423 350.787 362.48C350.702 362.537 350.603 362.567 350.501 362.567Z" fill="#E8E2FF"/>
<path d="M334.87 359.359C334.808 359.359 334.746 359.348 334.688 359.326C334.624 359.302 334.565 359.265 334.515 359.218C334.465 359.172 334.425 359.115 334.397 359.053C334.37 358.99 334.355 358.922 334.353 358.854C334.352 358.785 334.364 358.717 334.389 358.654L352.382 311.287C352.874 309.99 353.845 308.93 355.095 308.327C356.345 307.724 357.779 307.623 359.101 308.045C360.166 308.381 361.32 308.301 362.328 307.819C363.336 307.338 364.124 306.492 364.533 305.452L389.315 241.924C389.541 241.346 389.642 240.727 389.612 240.108C389.582 239.488 389.421 238.882 389.139 238.33C388.858 237.777 388.463 237.29 387.981 236.901C387.498 236.512 386.938 236.229 386.338 236.072L384.047 235.467C383.925 235.424 383.823 235.337 383.762 235.223C383.701 235.108 383.685 234.975 383.719 234.85C383.752 234.725 383.831 234.616 383.94 234.547C384.05 234.478 384.182 234.452 384.309 234.476L386.597 235.081C387.336 235.275 388.025 235.624 388.62 236.103C389.215 236.583 389.702 237.183 390.049 237.864C390.395 238.545 390.594 239.292 390.632 240.055C390.67 240.818 390.546 241.581 390.269 242.293L365.48 305.855C364.976 307.137 364.005 308.179 362.762 308.772C361.519 309.365 360.098 309.464 358.785 309.05C357.713 308.708 356.551 308.791 355.538 309.28C354.525 309.77 353.738 310.628 353.339 311.68L335.347 359.047C335.307 359.14 335.241 359.22 335.156 359.276C335.071 359.331 334.971 359.36 334.87 359.359Z" fill="#E8E2FF"/>
<path d="M401.61 293.22C401.545 293.221 401.482 293.209 401.422 293.187L398.576 292.071C396.759 291.355 395.297 289.952 394.506 288.166C393.716 286.38 393.661 284.354 394.354 282.527L416.69 224.055C416.991 223.268 417.133 222.429 417.108 221.586C417.083 220.744 416.892 219.915 416.545 219.147C416.198 218.379 415.702 217.687 415.086 217.112C414.471 216.536 413.747 216.089 412.958 215.794C411.146 215.106 409.674 213.738 408.854 211.982C408.035 210.225 407.933 208.219 408.57 206.388L417.751 180.296C417.772 180.231 417.806 180.172 417.85 180.12C417.895 180.068 417.949 180.026 418.01 179.996C418.071 179.966 418.137 179.948 418.205 179.944C418.273 179.939 418.341 179.949 418.405 179.971C418.469 179.993 418.528 180.028 418.579 180.074C418.63 180.12 418.67 180.175 418.699 180.236C418.728 180.298 418.745 180.365 418.747 180.433C418.75 180.501 418.739 180.568 418.715 180.632L409.544 206.754C408.999 208.331 409.088 210.059 409.794 211.57C410.501 213.082 411.768 214.26 413.327 214.854C414.243 215.193 415.082 215.711 415.796 216.377C416.511 217.043 417.086 217.844 417.489 218.734C417.892 219.623 418.115 220.584 418.144 221.56C418.174 222.536 418.009 223.509 417.661 224.421L395.324 282.894C394.728 284.467 394.775 286.213 395.456 287.752C396.137 289.291 397.397 290.5 398.963 291.117L401.808 292.232C401.92 292.275 402.013 292.356 402.071 292.46C402.13 292.564 402.15 292.686 402.128 292.803C402.106 292.921 402.043 293.027 401.951 293.103C401.859 293.179 401.743 293.221 401.623 293.22H401.61Z" fill="#E8E2FF"/>
<path d="M410.626 269.171C410.56 269.172 410.495 269.159 410.434 269.134C410.371 269.109 410.313 269.072 410.265 269.025C410.216 268.977 410.177 268.92 410.151 268.858C410.125 268.795 410.111 268.728 410.111 268.66C410.112 268.592 410.125 268.525 410.152 268.462L437.759 199.7C438.182 198.632 438.39 197.491 438.372 196.342C438.354 195.193 438.11 194.059 437.653 193.005C437.197 191.95 436.537 190.996 435.712 190.197C434.887 189.397 433.913 188.768 432.844 188.345C431.776 187.922 430.635 187.714 429.486 187.732C428.338 187.75 427.204 187.995 426.149 188.451C425.095 188.907 424.141 189.567 423.341 190.392C422.542 191.217 421.913 192.192 421.49 193.26L418.131 201.897C418.081 202.023 417.983 202.125 417.859 202.18C417.735 202.234 417.594 202.237 417.467 202.187C417.341 202.138 417.239 202.04 417.184 201.916C417.13 201.791 417.127 201.651 417.177 201.524L420.536 192.887C421.49 190.477 423.363 188.545 425.741 187.515C428.12 186.486 430.811 186.444 433.221 187.398C435.631 188.352 437.563 190.225 438.592 192.604C439.622 194.982 439.664 197.673 438.71 200.083L411.103 268.842C411.066 268.938 411 269.021 410.915 269.08C410.83 269.139 410.729 269.17 410.626 269.171Z" fill="#E8E2FF"/>
<path d="M376.29 350.675C376.228 350.675 376.167 350.664 376.109 350.641C376.044 350.618 375.985 350.582 375.935 350.535C375.885 350.488 375.844 350.432 375.817 350.369C375.789 350.306 375.774 350.238 375.773 350.17C375.771 350.101 375.784 350.033 375.81 349.969L382.24 332.817C382.424 332.332 382.509 331.815 382.49 331.297C382.471 330.779 382.348 330.27 382.129 329.8C381.91 329.33 381.598 328.909 381.213 328.562C380.829 328.214 380.378 327.948 379.888 327.778C379.266 327.564 378.693 327.228 378.204 326.789C377.714 326.349 377.318 325.816 377.039 325.221C376.759 324.625 376.603 323.98 376.578 323.322C376.553 322.665 376.661 322.01 376.895 321.395L388.653 290.355C388.677 290.291 388.713 290.232 388.76 290.183C388.807 290.133 388.864 290.093 388.926 290.066C388.989 290.038 389.056 290.023 389.125 290.022C389.193 290.021 389.261 290.034 389.324 290.059C389.389 290.083 389.447 290.119 389.497 290.166C389.547 290.213 389.587 290.27 389.615 290.332C389.642 290.395 389.657 290.463 389.658 290.531C389.659 290.6 389.646 290.667 389.62 290.731L377.862 321.771C377.678 322.256 377.593 322.772 377.612 323.291C377.631 323.809 377.754 324.318 377.973 324.788C378.193 325.257 378.504 325.679 378.889 326.026C379.274 326.373 379.724 326.64 380.214 326.81C380.834 327.023 381.405 327.357 381.893 327.794C382.381 328.231 382.776 328.762 383.056 329.355C383.335 329.947 383.493 330.59 383.519 331.245C383.546 331.899 383.441 332.553 383.21 333.166L376.777 350.319C376.745 350.422 376.68 350.512 376.592 350.576C376.504 350.64 376.399 350.675 376.29 350.675Z" fill="#E8E2FF"/>
<g style="mix-blend-mode:multiply">
<path d="M247.221 78.3071H62.3036C57.4334 78.3071 53.4854 82.2552 53.4854 87.1254V306.248C53.4854 311.118 57.4334 315.066 62.3036 315.066H247.221C252.092 315.066 256.04 311.118 256.04 306.248V87.1254C256.04 82.2552 252.092 78.3071 247.221 78.3071Z" fill="#CBD8EE"/>
</g>
<rect x="44.3081" y="67.9099" width="202.904" height="237.169" fill="#FAFAFF"/>
<path d="M81.2773 107.225C82.4467 102.27 79.3781 97.3056 74.4232 96.1361C69.4684 94.9667 64.5037 98.0353 63.3343 102.99C62.1648 107.945 65.2335 112.91 70.1883 114.079C75.1431 115.249 80.1078 112.18 81.2773 107.225Z" fill="#B6C6E4"/>
<path d="M188.396 102.716H94.1399C93.1603 102.716 92.3662 103.51 92.3662 104.49V111.766C92.3662 112.746 93.1603 113.54 94.1399 113.54H188.396C189.376 113.54 190.17 112.746 190.17 111.766V104.49C190.17 103.51 189.376 102.716 188.396 102.716Z" fill="#B6C6E4"/>
<path d="M81.2802 128.735C82.4497 123.781 79.381 118.816 74.4262 117.646C69.4713 116.477 64.5066 119.546 63.3372 124.5C62.1678 129.455 65.2364 134.42 70.1912 135.589C75.1461 136.759 80.1108 133.69 81.2802 128.735Z" fill="#B6C6E4"/>
<path d="M150.116 124.226H94.1399C93.1603 124.226 92.3662 125.02 92.3662 125.999V133.276C92.3662 134.255 93.1603 135.049 94.1399 135.049H150.116C151.096 135.049 151.89 134.255 151.89 133.276V125.999C151.89 125.02 151.096 124.226 150.116 124.226Z" fill="#B6C6E4"/>
<path d="M223.871 124.226H167.894C166.915 124.226 166.121 125.02 166.121 125.999V133.276C166.121 134.255 166.915 135.049 167.894 135.049H223.871C224.851 135.049 225.645 134.255 225.645 133.276V125.999C225.645 125.02 224.851 124.226 223.871 124.226Z" fill="#B6C6E4"/>
<path d="M72.3245 157.359C77.4154 157.359 81.5425 153.232 81.5425 148.141C81.5425 143.05 77.4154 138.923 72.3245 138.923C67.2335 138.923 63.1064 143.05 63.1064 148.141C63.1064 153.232 67.2335 157.359 72.3245 157.359Z" fill="#B6C6E4"/>
<path d="M188.396 145.736H94.1399C93.1603 145.736 92.3662 146.53 92.3662 147.509V154.786C92.3662 155.765 93.1603 156.559 94.1399 156.559H188.396C189.376 156.559 190.17 155.765 190.17 154.786V147.509C190.17 146.53 189.376 145.736 188.396 145.736Z" fill="#B6C6E4"/>
<path d="M104.826 178.471H92V191.297H104.826V178.471Z" fill="#CBD8EE"/>
<path d="M157.537 177H111.041V181.811H157.537V177Z" fill="#CBD8EE"/>
<path d="M192.209 188.267H111.041V193.078H192.209V188.267Z" fill="#CBD8EE"/>
<g style="mix-blend-mode:multiply">
<path d="M104.826 210.224H92V223.05H104.826V210.224Z" fill="#CBD8EE"/>
</g>
<g style="mix-blend-mode:multiply">
<path d="M157.537 208.756H111.041V213.566H157.537V208.756Z" fill="#CBD8EE"/>
</g>
<g style="mix-blend-mode:multiply">
<path d="M192.209 220.023H111.041V224.834H192.209V220.023Z" fill="#CBD8EE"/>
</g>
<g style="mix-blend-mode:multiply">
<path d="M104.826 241.979H92V254.805H104.826V241.979Z" fill="#CBD8EE"/>
</g>
<g style="mix-blend-mode:multiply">
<path d="M157.537 240.511H111.041V245.322H157.537V240.511Z" fill="#CBD8EE"/>
</g>
<g style="mix-blend-mode:multiply">
<path d="M192.209 251.779H111.041V256.589H192.209V251.779Z" fill="#CBD8EE"/>
</g>
<path d="M357.815 383H272.038C263.108 383 254.544 386.547 248.23 392.862C241.915 399.176 238.368 407.741 238.368 416.671H391.486C391.486 412.249 390.616 407.87 388.924 403.785C387.232 399.7 384.752 395.988 381.625 392.861C378.498 389.734 374.786 387.254 370.701 385.562C366.616 383.87 362.237 383 357.815 383Z" fill="#E8E2FF"/>
<path d="M388.013 410.792H242.913C240.035 410.791 237.185 411.358 234.527 412.459C231.868 413.56 229.452 415.174 227.417 417.209C225.382 419.244 223.768 421.66 222.667 424.318C221.566 426.977 221 429.827 221 432.705H409.926C409.926 429.827 409.359 426.977 408.258 424.318C407.157 421.66 405.543 419.244 403.508 417.209C401.473 415.174 399.058 413.56 396.399 412.459C393.74 411.358 390.89 410.791 388.013 410.792Z" fill="#AEAAD6"/>
<path d="M457.022 174.098C467.667 163.453 467.667 146.195 457.022 135.55C446.378 124.905 429.119 124.905 418.474 135.55C407.83 146.195 407.829 163.453 418.474 174.098C429.119 184.743 446.378 184.743 457.022 174.098Z" fill="#9087B7"/>
<path d="M323.378 50.0685C334.298 50.0685 343.151 41.2158 343.151 30.2955C343.151 19.3751 334.298 10.5225 323.378 10.5225C312.457 10.5225 303.604 19.3751 303.604 30.2955C303.604 41.2158 312.457 50.0685 323.378 50.0685Z" fill="#9087B7"/>
<path d="M227.318 17.4456C229.081 9.97722 224.456 2.49398 216.987 0.731292C209.519 -1.0314 202.036 3.59395 200.273 11.0623C198.51 18.5307 203.136 26.0139 210.604 27.7766C218.073 29.5393 225.556 24.9139 227.318 17.4456Z" fill="#9087B7"/>
<path d="M167.577 72.8493C174.327 70.0534 177.533 62.3148 174.737 55.5647C171.941 48.8147 164.202 45.6093 157.452 48.4052C150.702 51.2012 147.497 58.9398 150.293 65.6898C153.088 72.4399 160.827 75.6453 167.577 72.8493Z" fill="#9087B7"/>
<rect y="427" width="476" height="5" rx="2.5" fill="#E8E2FF"/>
<g style="mix-blend-mode:multiply">
<path d="M126.492 283.592H14.5422C12.1061 283.592 10.1313 285.567 10.1313 288.003V351.642C10.1313 354.078 12.1061 356.053 14.5422 356.053H126.492C128.928 356.053 130.903 354.078 130.903 351.642V288.003C130.903 285.567 128.928 283.592 126.492 283.592Z" fill="#AEAAD6"/>
</g>
<path d="M122.327 276H4.44453C3.64675 276 3 276.647 3 277.444V347.016C3 347.814 3.64675 348.461 4.44453 348.461H122.327C123.125 348.461 123.771 347.814 123.771 347.016V277.444C123.771 276.647 123.125 276 122.327 276Z" fill="#342A98"/>
<path d="M15.4258 314.25L47.1379 297.917V302.62L20.4144 316.017V316.151L47.1379 329.548V334.251L15.4258 317.915V314.25Z" fill="white"/>
<path d="M51.5991 337.006L70.6667 287.459H75.316L56.1678 337.006H51.5991Z" fill="white"/>
<path d="M111.345 318.009L79.6328 334.275V329.571L106.561 316.174V316.04L79.6328 302.643V297.94L111.345 314.202V318.009Z" fill="white"/>
<path d="M305.943 390.01L310.685 393.971L305.187 402.567L300.445 398.599L305.943 390.01Z" fill="#F49D8B"/>
<path d="M305.666 431.799L325.66 400.512C325.274 399.909 324.769 399.391 324.174 398.991C321.656 397.112 316.863 395.274 313.917 393.979C313.573 393.837 313.254 393.695 312.968 393.561C312.572 393.386 312.188 393.185 311.818 392.959C309.636 391.581 308.78 393.736 308.78 393.736C309.871 398.883 302.904 399.501 303.097 402.567C303.097 402.567 303.173 403.879 303.836 407.789C304.499 411.698 303.273 416.853 302.484 421.406C301.469 427.255 302.577 429.836 303.752 430.947C304.26 431.46 304.943 431.764 305.666 431.799Z" fill="#1D1526"/>
<path d="M305.666 431.8L325.66 400.512C325.274 399.909 324.769 399.392 324.174 398.992L303.752 430.956C304.261 431.466 304.944 431.767 305.666 431.8Z" fill="#414F50"/>
<path d="M323.586 403.703L324.182 402.776C323.114 402.938 322.024 402.888 320.975 402.628C319.926 402.369 318.939 401.905 318.072 401.264C316.905 400.406 315.929 399.316 315.207 398.063C314.484 396.811 314.031 395.423 313.875 393.987C313.531 393.845 313.212 393.703 312.926 393.569C313.032 395.224 313.501 396.836 314.3 398.291C315.099 399.746 316.209 401.009 317.551 401.991C319.292 403.262 321.434 403.87 323.586 403.703Z" fill="#414F50"/>
<path d="M306.027 408.457C306.107 408.331 306.138 408.181 306.115 408.033C306.091 407.886 306.014 407.753 305.899 407.658C305.783 407.564 305.636 407.514 305.487 407.52C305.337 407.526 305.195 407.585 305.086 407.688L303.349 409.359C303.242 409.472 303.183 409.622 303.183 409.777C303.183 409.932 303.242 410.082 303.349 410.195C303.464 410.298 303.614 410.354 303.769 410.354C303.923 410.354 304.073 410.298 304.188 410.195L305.926 408.524C305.961 408.503 305.994 408.481 306.027 408.457Z" fill="white"/>
<path d="M305.96 411.114C306.04 410.988 306.072 410.837 306.048 410.69C306.025 410.543 305.948 410.409 305.832 410.315C305.716 410.22 305.57 410.171 305.42 410.177C305.271 410.182 305.128 410.242 305.02 410.345L303.282 412.016C303.179 412.131 303.122 412.28 303.122 412.434C303.122 412.588 303.179 412.737 303.282 412.852C303.397 412.956 303.547 413.014 303.702 413.014C303.857 413.014 304.007 412.956 304.122 412.852L305.859 411.181C305.895 411.162 305.929 411.139 305.96 411.114Z" fill="white"/>
<path d="M305.766 413.763C305.841 413.649 305.875 413.513 305.861 413.377C305.847 413.242 305.787 413.116 305.691 413.019C305.577 412.913 305.427 412.854 305.271 412.854C305.115 412.854 304.965 412.913 304.851 413.019L303.114 414.69C303.011 414.805 302.954 414.954 302.954 415.108C302.954 415.262 303.011 415.411 303.114 415.525C303.228 415.63 303.378 415.688 303.534 415.688C303.689 415.688 303.839 415.63 303.953 415.525L305.691 413.854C305.719 413.826 305.744 413.796 305.766 413.763Z" fill="white"/>
<path d="M305.422 416.536C305.503 416.41 305.534 416.26 305.511 416.112C305.487 415.965 305.41 415.832 305.295 415.737C305.179 415.642 305.032 415.593 304.883 415.599C304.733 415.604 304.591 415.664 304.482 415.767L302.745 417.438C302.681 417.492 302.628 417.557 302.59 417.632C302.553 417.706 302.531 417.787 302.526 417.87C302.521 417.953 302.533 418.037 302.561 418.115C302.59 418.193 302.634 418.265 302.691 418.325C302.749 418.386 302.818 418.434 302.895 418.467C302.972 418.5 303.055 418.517 303.138 418.517C303.222 418.516 303.304 418.499 303.381 418.466C303.458 418.433 303.527 418.385 303.584 418.324L305.322 416.653C305.362 416.62 305.396 416.58 305.422 416.536Z" fill="white"/>
<path d="M304.809 419.402C304.882 419.286 304.914 419.149 304.9 419.013C304.887 418.877 304.828 418.749 304.734 418.65C304.62 418.543 304.47 418.484 304.314 418.484C304.158 418.484 304.008 418.543 303.894 418.65L302.157 420.321C302.048 420.433 301.987 420.582 301.987 420.738C301.987 420.894 302.048 421.044 302.157 421.156C302.271 421.261 302.421 421.318 302.576 421.318C302.732 421.318 302.882 421.261 302.996 421.156L304.734 419.485C304.762 419.46 304.787 419.432 304.809 419.402Z" fill="white"/>
<path d="M248.537 334.294V334.503C248.537 334.503 248.722 334.854 249.075 335.497C257.041 350.038 265.894 364.08 275.582 377.545C277.496 380.169 279.468 382.767 281.458 385.298C282.297 386.41 283.229 387.512 284.127 388.59C287.206 392.487 290.89 395.872 295.039 398.616C295.433 398.874 295.836 399.117 296.239 399.367C297.011 399.844 297.809 400.303 298.64 400.763L299.84 401.414C299.84 401.414 305.833 395.14 308.629 389.058L306.589 385.716C306.345 385.307 306.077 384.881 305.8 384.421L302.887 379.609C298.061 371.58 291.547 360.552 289.121 355.439C287.342 351.697 285.235 347.544 282.868 343.459C282.415 342.682 281.961 341.905 281.491 341.136L281.332 340.869C278.117 335.589 274.525 330.568 270.747 326.875L279.326 276.514L279.863 273.356L260.91 266.673L259.827 266.288L255.294 264.76C255.294 264.76 254.933 266.43 254.371 269.254C254.304 269.597 254.237 269.956 254.161 270.332C251.651 283.248 246.028 315.547 248.537 334.294Z" fill="#504EA0"/>
<path d="M295.047 398.616C295.442 398.875 295.845 399.117 296.248 399.367L303.592 389.701L304.264 388.807L306.597 385.733C306.354 385.324 306.085 384.897 305.808 384.438L303.525 387.446L302.845 388.34L295.047 398.616Z" fill="#AEAAD6"/>
<path d="M248.538 334.294V334.503C248.538 334.503 248.722 334.854 249.075 335.497C251.835 334.95 254.476 333.918 256.873 332.448C257.003 332.351 257.091 332.209 257.12 332.05C257.148 331.891 257.115 331.727 257.026 331.591C256.937 331.456 256.799 331.359 256.642 331.321C256.484 331.283 256.317 331.307 256.176 331.387C253.828 332.808 251.239 333.793 248.538 334.294Z" fill="#AEAAD6"/>
<path d="M265.779 328.647C265.879 328.738 275.381 338.146 302.82 388.34L303.568 389.701L304.239 388.807C303.996 388.348 303.744 387.897 303.5 387.446C278.034 340.911 268.246 329.8 266.71 328.129C268.943 319.891 275.792 277.743 276.086 275.93C276.107 275.796 276.074 275.659 275.994 275.549C275.914 275.439 275.793 275.366 275.658 275.345C275.523 275.324 275.386 275.357 275.276 275.437C275.166 275.517 275.092 275.637 275.071 275.771C275.003 276.214 267.776 320.71 265.644 328.129C265.617 328.219 265.615 328.315 265.639 328.406C265.663 328.497 265.711 328.581 265.779 328.647Z" fill="#37307D"/>
<path d="M311.08 252.395C311.08 252.395 312.507 265.871 309.401 273.373C306.295 280.875 266.458 277.007 256.302 270.257C252.105 267.491 261.002 241.943 261.002 241.943L311.08 252.395Z" fill="#504EA0"/>
<path d="M254.162 270.332C254.761 270.226 255.35 270.072 255.924 269.872C256.85 269.563 257.732 269.139 258.552 268.611C259.399 268.065 260.184 267.429 260.893 266.714C265.283 262.303 266.576 255.628 266.635 255.302C266.648 255.237 266.648 255.17 266.635 255.104C266.622 255.039 266.596 254.977 266.559 254.921C266.521 254.866 266.473 254.819 266.417 254.782C266.361 254.746 266.298 254.721 266.232 254.709C266.166 254.697 266.098 254.698 266.032 254.712C265.966 254.726 265.904 254.753 265.849 254.791C265.793 254.829 265.746 254.877 265.71 254.934C265.673 254.99 265.648 255.053 265.636 255.118C265.636 255.194 264.268 262.136 259.811 266.33C259.251 266.863 258.641 267.342 257.989 267.759C257.205 268.262 256.359 268.661 255.471 268.945C255.102 269.062 254.732 269.162 254.355 269.246L254.162 270.332Z" fill="#37307D"/>
<path d="M278.755 274.1C278.753 274.231 278.803 274.359 278.894 274.454C278.985 274.549 279.11 274.605 279.242 274.609C279.308 274.614 279.375 274.606 279.438 274.584C279.501 274.563 279.559 274.53 279.608 274.487C279.658 274.443 279.699 274.39 279.729 274.331C279.758 274.272 279.775 274.208 279.779 274.142C279.872 272.304 279.981 270.416 280.098 268.536C280.098 268.202 280.098 267.867 280.166 267.542C280.568 261.384 281.072 255.336 281.458 251.075C281.458 250.724 281.525 250.39 281.551 250.072C281.634 249.137 281.718 248.301 281.786 247.566L280.77 247.407C280.703 248.109 280.627 248.944 280.535 249.914C280.535 250.239 280.476 250.574 280.443 250.916C280.065 255.143 279.561 261.142 279.158 267.258L279.083 268.268C278.965 270.232 278.848 272.187 278.755 274.1Z" fill="#37307D"/>
<path d="M277.295 267.6C277.874 267.867 278.471 268.093 279.083 268.277C279.401 268.377 279.746 268.461 280.098 268.536C280.417 268.598 280.739 268.64 281.064 268.661C281.636 268.706 282.212 268.614 282.742 268.394C283.048 268.247 283.313 268.029 283.516 267.759C283.719 267.488 283.854 267.173 283.909 266.84C284.278 264.935 285.059 257.099 285.588 251.551C285.588 251.209 285.647 250.874 285.68 250.549C285.764 249.663 285.84 248.878 285.898 248.168C285.563 248.168 285.218 248.092 284.883 248.042C284.816 248.736 284.74 249.554 284.656 250.448C284.656 250.774 284.597 251.1 284.564 251.451C284.035 256.982 283.263 264.818 282.885 266.648C282.86 266.828 282.79 266.998 282.681 267.144C282.573 267.29 282.429 267.407 282.264 267.483C281.562 267.704 280.809 267.704 280.107 267.483C279.762 267.408 279.418 267.308 279.099 267.207C278.618 267.053 278.147 266.869 277.689 266.656C277.568 266.6 277.431 266.592 277.304 266.634C277.178 266.676 277.072 266.764 277.009 266.882C276.97 266.946 276.947 267.018 276.94 267.092C276.934 267.167 276.945 267.242 276.973 267.311C277 267.381 277.044 267.443 277.1 267.493C277.155 267.544 277.222 267.58 277.295 267.6Z" fill="#37307D"/>
<path d="M294.393 407.931L293.386 415.918H283.154L282.558 407.513L294.393 407.931Z" fill="#F49D8B"/>
<path d="M281.475 269.53V406.611L281.626 408.783H296.818C296.978 407.789 297.347 406.193 297.826 404.138L298.161 402.726C300.142 394.371 303.534 380.052 304.129 367.637C304.969 349.892 304.742 326.9 304.742 326.9C306.48 313.709 309.199 285.128 310.551 270.524C310.551 270.173 310.618 269.839 310.643 269.505L311.382 261.501C308.931 260.49 304.499 261.184 299.781 262.52L298.749 262.813C292.85 264.674 287.079 266.918 281.475 269.53Z" fill="#504EA0"/>
<path d="M281.475 402.726V404.138H297.826L298.161 402.726H281.475Z" fill="#AEAAD6"/>
<path d="M281.475 329.966V331.278C283.353 331.7 285.274 331.899 287.199 331.871C289.478 331.86 291.754 331.682 294.007 331.336C294.173 331.309 294.323 331.216 294.421 331.079C294.519 330.942 294.559 330.772 294.531 330.605C294.503 330.439 294.41 330.291 294.273 330.193C294.135 330.095 293.964 330.056 293.797 330.083C293.721 330.1 286.284 331.303 281.475 329.966Z" fill="#AEAAD6"/>
<path d="M295.283 404.138H296.324C296.407 403.695 296.491 403.227 296.592 402.726C297.935 395.624 300.395 382.349 301.628 373.736C303.441 361.672 302.602 328.354 302.602 327.051C303.953 315.58 306.707 276.289 306.732 275.888C306.744 275.817 306.742 275.745 306.725 275.675C306.707 275.606 306.675 275.541 306.631 275.484C306.586 275.428 306.531 275.381 306.467 275.348C306.403 275.314 306.333 275.295 306.261 275.29C306.19 275.285 306.118 275.296 306.05 275.32C305.983 275.345 305.921 275.384 305.87 275.434C305.818 275.484 305.778 275.545 305.751 275.611C305.725 275.678 305.713 275.749 305.716 275.821C305.716 276.213 302.929 315.572 301.586 326.967C301.582 326.992 301.582 327.017 301.586 327.042C301.586 327.385 302.485 361.463 300.688 373.585C299.404 382.266 296.919 395.683 295.585 402.726C295.459 403.227 295.367 403.703 295.283 404.138Z" fill="#37307D"/>
<path d="M279.259 429.527V429.795C279.259 430.204 279.259 430.572 279.309 430.881C279.309 431.574 279.393 432 279.393 432H302.451C302.518 431.267 302.518 430.528 302.451 429.795C302.3 427.455 301.519 423.746 298.338 421.298C293.981 417.956 295.66 418.65 294.77 417.121C294.67 416.945 293.881 414.347 293.797 414.172C293.05 412.584 292.361 411.833 288.223 411.833C282.75 411.833 282.264 414.481 281.684 415.876C281.306 416.932 281 418.012 280.77 419.109C280.635 419.694 280.493 420.312 280.358 420.939C280.022 422.526 279.704 424.172 279.519 425.492C279.314 426.827 279.227 428.177 279.259 429.527Z" fill="#1D1526"/>
<path d="M279.258 429.528V429.795C279.258 430.204 279.258 430.572 279.309 430.881C280.405 430.123 281.241 429.046 281.701 427.798C283.128 423.93 280.929 419.285 280.861 419.093H280.811C280.677 419.678 280.534 420.296 280.4 420.922C280.92 422.501 281.516 425.158 280.685 427.405C280.39 428.218 279.9 428.946 279.258 429.528Z" fill="#414F50"/>
<path d="M279.258 429.794C279.258 431.106 279.393 432 279.393 432H302.45C302.518 431.266 302.518 430.528 302.45 429.794H279.258Z" fill="#414F50"/>
<path d="M287.493 418.984H287.661C289.406 418.523 291.237 418.485 292.999 418.875C293.085 418.902 293.175 418.911 293.264 418.902C293.353 418.893 293.439 418.867 293.518 418.824C293.596 418.781 293.665 418.723 293.72 418.653C293.775 418.582 293.816 418.502 293.839 418.416C293.867 418.331 293.877 418.241 293.869 418.152C293.86 418.063 293.834 417.976 293.791 417.898C293.747 417.82 293.688 417.751 293.617 417.696C293.546 417.642 293.464 417.602 293.377 417.58C291.39 417.128 289.322 417.162 287.35 417.681C287.192 417.717 287.052 417.81 286.959 417.943C286.866 418.076 286.826 418.239 286.847 418.4C286.868 418.561 286.948 418.708 287.072 418.813C287.196 418.918 287.355 418.973 287.518 418.967L287.493 418.984Z" fill="white"/>
<path d="M286.972 416.453C287.028 416.461 287.085 416.461 287.14 416.453C288.889 415.997 290.721 415.96 292.487 416.344C292.572 416.372 292.662 416.383 292.751 416.375C292.84 416.367 292.926 416.341 293.005 416.299C293.083 416.257 293.153 416.199 293.208 416.129C293.263 416.059 293.304 415.979 293.327 415.893C293.353 415.808 293.363 415.718 293.354 415.63C293.345 415.541 293.318 415.455 293.275 415.377C293.232 415.299 293.173 415.231 293.103 415.176C293.032 415.121 292.951 415.081 292.865 415.058C290.879 414.614 288.815 414.651 286.846 415.166C286.758 415.186 286.674 415.224 286.601 415.278C286.528 415.332 286.467 415.4 286.422 415.479C286.377 415.558 286.349 415.645 286.34 415.735C286.331 415.825 286.34 415.916 286.368 416.002C286.412 416.128 286.493 416.239 286.6 416.32C286.708 416.4 286.838 416.447 286.972 416.453Z" fill="white"/>
<path d="M288.476 421.056C288.531 421.064 288.588 421.064 288.644 421.056C290.392 420.6 292.225 420.563 293.99 420.947C294.159 420.994 294.338 420.972 294.49 420.886C294.642 420.801 294.754 420.659 294.8 420.492C294.847 420.324 294.825 420.146 294.74 419.994C294.654 419.843 294.511 419.732 294.343 419.686C292.356 419.233 290.287 419.267 288.316 419.786C288.229 419.808 288.147 419.847 288.076 419.902C288.004 419.956 287.945 420.025 287.901 420.103C287.857 420.181 287.829 420.267 287.82 420.357C287.811 420.446 287.82 420.536 287.846 420.621C287.891 420.751 287.976 420.863 288.089 420.941C288.203 421.019 288.338 421.06 288.476 421.056Z" fill="white"/>
<path d="M289.633 423.42C289.689 423.428 289.746 423.428 289.801 423.42C291.55 422.965 293.382 422.928 295.148 423.311C295.316 423.358 295.496 423.336 295.648 423.251C295.8 423.165 295.911 423.023 295.958 422.856C296.005 422.689 295.983 422.51 295.897 422.359C295.811 422.207 295.669 422.096 295.501 422.05C293.513 421.597 291.445 421.631 289.474 422.15C289.322 422.193 289.189 422.288 289.102 422.42C289.014 422.551 288.976 422.709 288.996 422.866C289.015 423.022 289.09 423.166 289.207 423.273C289.324 423.379 289.475 423.44 289.633 423.445V423.42Z" fill="white"/>
<path d="M295.929 255.302C296.478 257.937 297.429 260.473 298.749 262.821C300.002 265.166 301.808 267.173 304.012 268.669C305.961 269.921 308.232 270.582 310.551 270.574C310.551 270.223 310.618 269.889 310.643 269.555C308.493 269.579 306.383 268.975 304.575 267.817C302.583 266.47 300.941 264.672 299.782 262.571C298.46 260.265 297.5 257.772 296.936 255.177C296.91 255.045 296.833 254.929 296.722 254.852C296.61 254.776 296.474 254.745 296.34 254.768C296.217 254.79 296.107 254.857 296.031 254.956C295.955 255.055 295.919 255.178 295.929 255.302Z" fill="#37307D"/>
<path d="M259.484 178.524L258.862 181.122L258.199 183.813C257.746 185.609 257.284 187.397 256.798 189.176C255.824 192.735 254.783 196.252 253.625 199.653C253.339 200.488 253.037 201.324 252.735 202.159C252.433 202.995 252.122 203.83 251.795 204.665C251.148 206.286 250.477 207.874 249.755 209.369C249.075 210.804 248.313 212.198 247.472 213.546C246.796 214.638 246.009 215.657 245.122 216.587C244.828 216.89 244.511 217.169 244.173 217.423C244.024 217.527 243.867 217.619 243.703 217.698H243.644H243.846C244.16 217.728 244.472 217.781 244.778 217.857L245.097 217.949C245.179 217.972 245.261 218 245.34 218.033C245.506 218.093 245.666 218.169 245.818 218.258C245.886 218.3 245.886 218.308 245.818 218.3C245.759 218.269 245.703 218.233 245.651 218.191C245.168 217.839 244.711 217.454 244.282 217.038C243.745 216.537 243.183 215.952 242.604 215.368C241.445 214.148 240.287 212.786 239.12 211.391C234.445 205.802 229.82 199.619 225.035 193.754L214.963 199.661C215.173 200.154 215.366 200.597 215.576 201.056C215.785 201.516 215.979 201.967 216.188 202.418C216.608 203.32 217.028 204.214 217.481 205.108C218.362 206.888 219.286 208.642 220.251 210.388C222.165 213.88 224.23 217.314 226.538 220.723C227.696 222.394 228.93 224.115 230.298 225.827C230.995 226.663 231.725 227.54 232.548 228.417C233.453 229.409 234.432 230.331 235.477 231.174C235.78 231.417 236.115 231.667 236.493 231.926C236.904 232.213 237.33 232.478 237.769 232.72C238.348 233.045 238.951 233.324 239.573 233.555C239.75 233.622 239.96 233.697 240.161 233.756L240.824 233.948C241.377 234.075 241.938 234.162 242.503 234.207H242.738H244.156C244.635 234.207 245.113 234.165 245.583 234.107C246.526 234.002 247.459 233.818 248.37 233.555C250.063 233.069 251.679 232.349 253.171 231.417C254.463 230.599 255.669 229.656 256.772 228.601C258.641 226.804 260.289 224.794 261.683 222.611C262.933 220.684 264.054 218.677 265.04 216.604C265.989 214.607 266.82 212.627 267.558 210.639C268.297 208.651 268.96 206.671 269.565 204.691C270.765 200.73 271.73 196.77 272.519 192.794C272.916 190.811 273.266 188.82 273.568 186.82C273.719 185.826 273.87 184.823 273.988 183.813L274.173 182.292L274.257 181.523L274.341 180.688L259.484 178.524Z" fill="#F49D8B"/>
<path d="M245.037 226.329C245.149 226.327 245.256 226.285 245.339 226.209C245.421 226.133 245.472 226.03 245.482 225.919C245.597 223.042 245.409 220.161 244.92 217.323C244.911 217.264 244.89 217.208 244.859 217.158C244.827 217.107 244.786 217.064 244.738 217.029C244.689 216.995 244.634 216.971 244.576 216.958C244.518 216.945 244.458 216.944 244.399 216.955C244.282 216.976 244.177 217.041 244.108 217.138C244.038 217.235 244.011 217.356 244.03 217.473C244.507 220.231 244.696 223.031 244.592 225.828C244.587 225.886 244.592 225.945 244.61 226C244.627 226.056 244.655 226.108 244.692 226.153C244.73 226.199 244.776 226.236 244.828 226.263C244.88 226.29 244.937 226.307 244.995 226.312L245.037 226.329Z" fill="#E8705A"/>
<path d="M247.908 223.163C248.001 223.165 248.093 223.135 248.168 223.079C248.264 223.009 248.329 222.904 248.348 222.786C248.367 222.669 248.338 222.549 248.269 222.453C248.269 222.453 245.952 219.328 244.861 217.523C244.831 217.472 244.792 217.428 244.745 217.393C244.698 217.357 244.644 217.332 244.587 217.318C244.529 217.304 244.47 217.301 244.412 217.311C244.353 217.32 244.298 217.341 244.248 217.373C244.197 217.402 244.152 217.441 244.117 217.488C244.081 217.535 244.055 217.588 244.04 217.645C244.025 217.701 244.022 217.761 244.03 217.819C244.039 217.877 244.058 217.933 244.089 217.983C245.205 219.821 247.446 222.854 247.547 222.996C247.589 223.05 247.644 223.093 247.707 223.122C247.77 223.152 247.839 223.165 247.908 223.163Z" fill="#E8705A"/>
<path d="M252.785 196.42L253.28 196.553L254.237 196.812L270.84 201.265C270.84 201.265 282.826 170.086 268.489 165.007C268.489 165.007 262.773 162.843 258.165 174.364C258.098 174.539 258.022 174.715 257.955 174.899V175.007C257.896 175.149 257.846 175.291 257.787 175.442L257.737 175.575C255.219 182.693 253.263 193.755 252.885 196.002C252.885 196.002 252.885 196.069 252.885 196.102L252.785 196.42Z" fill="#E8E2FF"/>
<path d="M252.785 196.42L253.28 196.553C254.28 196.439 255.247 196.124 256.121 195.627C256.996 195.13 257.759 194.462 258.367 193.663C260.045 191.424 260.045 188.842 258.367 186.921C257.754 186.351 257.39 185.565 257.351 184.732C257.426 183.821 258.266 183.111 259.164 182.359C260.406 181.315 261.808 180.137 261.346 178.182C261.185 177.43 260.816 176.738 260.281 176.185C259.745 175.631 259.065 175.238 258.316 175.049C258.19 175.049 258.064 174.982 257.93 174.948V175.057C257.871 175.199 257.821 175.341 257.762 175.492L258.19 175.592C258.84 175.759 259.43 176.102 259.895 176.583C260.36 177.063 260.683 177.663 260.826 178.315C261.212 179.986 260.045 180.93 258.828 181.958C257.88 182.793 256.906 183.57 256.814 184.715C256.823 185.206 256.93 185.689 257.128 186.138C257.327 186.587 257.614 186.992 257.972 187.33C259.76 189.368 259.122 191.774 257.93 193.353C257.336 194.138 256.578 194.785 255.708 195.251C254.839 195.717 253.879 195.99 252.894 196.052C252.894 196.052 252.894 196.119 252.894 196.152L252.785 196.42Z" fill="#AEAAD6"/>
<path d="M251.333 192.652H193.432C192.63 192.652 191.98 193.299 191.98 194.097V196.344C191.98 197.143 192.63 197.79 193.432 197.79H251.333C252.134 197.79 252.785 197.143 252.785 196.344V194.097C252.785 193.299 252.134 192.652 251.333 192.652Z" fill="#414F50"/>
<path d="M236.215 197.79H194.07C193.581 197.794 193.102 197.656 192.691 197.393C192.279 197.131 191.954 196.755 191.753 196.311L180.237 171.248C180.056 170.862 179.976 170.436 180.006 170.011C180.036 169.586 180.174 169.176 180.408 168.819C180.641 168.461 180.963 168.17 181.341 167.97C181.719 167.771 182.143 167.671 182.57 167.68H224.716C225.204 167.676 225.684 167.814 226.095 168.077C226.506 168.339 226.832 168.715 227.032 169.159L238.557 194.223C238.739 194.609 238.818 195.035 238.788 195.461C238.758 195.887 238.619 196.298 238.384 196.655C238.15 197.012 237.827 197.304 237.448 197.503C237.068 197.701 236.644 197.8 236.215 197.79Z" fill="#1D1526"/>
<path d="M210.791 182.735C210.791 183.455 210.576 184.16 210.174 184.759C209.772 185.358 209.2 185.824 208.531 186.1C207.863 186.376 207.127 186.448 206.417 186.307C205.707 186.167 205.055 185.82 204.543 185.311C204.031 184.801 203.683 184.152 203.542 183.445C203.4 182.739 203.473 182.006 203.75 181.341C204.027 180.675 204.496 180.106 205.098 179.706C205.7 179.306 206.407 179.092 207.131 179.092C208.102 179.092 209.032 179.476 209.719 180.159C210.405 180.842 210.791 181.769 210.791 182.735Z" fill="#414F50"/>
<path d="M225.043 201.324C224.308 202.287 223.321 203.03 222.19 203.472C221.059 203.914 219.828 204.038 218.63 203.83C217.284 203.611 215.979 203.189 214.761 202.577C213.821 202.1 212.654 201.248 211.831 201.34C209.792 201.557 209.045 200.154 208.524 200.029C207.901 200.326 207.206 200.445 206.518 200.371C205.657 200.266 204.823 200.003 204.059 199.594C202.019 199.594 200.248 199.644 199.677 199.243C198.527 198.45 197.411 190.672 199.367 190.346C201.952 189.92 200.643 195.659 203.001 196.745C203.001 196.745 201.222 189.494 204.134 188.959C206.124 188.591 206.443 195.826 208.549 197.138C208.549 197.138 206.552 190.454 208.692 189.335C210.833 188.215 210.833 196.361 213.032 196.57C213.477 196.57 211.252 190.83 213.821 190.521C216.389 190.212 214.962 197.113 222.567 196.962C225.648 196.887 226.898 198.834 225.043 201.324Z" fill="#F49D8B"/>
<path d="M255.723 250.783C256.285 251.309 256.889 251.818 257.536 252.32L257.997 252.671C259.072 253.475 260.193 254.217 261.355 254.893L261.875 255.185C266.949 257.958 272.439 259.896 278.134 260.925C279.553 261.192 280.996 261.418 282.465 261.593C284.144 261.794 285.823 261.936 287.502 262.003C288.752 262.053 290.02 262.069 291.279 262.044H292.059C299.588 261.896 307.003 260.189 313.833 257.032L314.093 256.906L314.244 256.48C315.629 252.303 317.09 242.428 318.139 234.09C318.139 233.898 318.139 233.706 318.206 233.514C318.668 229.829 319.045 226.488 319.297 224.123C319.297 223.898 319.348 223.689 319.364 223.488C319.364 223.096 319.448 222.745 319.473 222.427C319.608 221.124 319.717 219.829 319.801 218.526C320.159 212.126 320.159 205.71 319.801 199.31L319.75 198.233C319.75 198.132 319.75 198.032 319.75 197.923C319.75 197.815 319.75 197.522 319.75 197.33C319.65 195.487 319.541 193.613 319.423 191.708C319.423 191.516 319.423 191.323 319.423 191.131L319.322 189.527L319.272 188.692C319.113 186.244 318.945 183.738 318.785 181.173C318.198 171.924 315.646 165.449 311.231 162.542C311.029 162.408 310.828 162.283 310.626 162.175C309.55 161.559 308.369 161.146 307.143 160.955L306.74 160.888C306.547 160.888 306.354 160.821 306.169 160.788C304.52 160.498 302.899 160.064 301.326 159.493L300.881 159.317L300.327 159.092C300.042 158.975 299.765 158.849 299.488 158.724L298.833 158.407C297.606 157.803 296.439 157.084 295.35 156.26H279.989C278.784 157.993 277.131 159.37 275.205 160.245C275.012 160.337 274.81 160.428 274.6 160.512C274.39 160.596 273.996 160.763 273.694 160.88C272.972 161.147 272.233 161.381 271.503 161.59C271.302 161.657 271.1 161.707 270.899 161.765C266.567 163.002 262.505 163.854 261.472 168.942C260.986 171.398 261.909 175.391 262.664 181.858C262.664 182.108 262.723 182.359 262.757 182.618C262.883 183.788 263.008 185.032 263.118 186.369L263.168 187.046C263.42 190.388 263.562 194.248 263.479 198.675C263.479 199.929 263.411 201.24 263.353 202.594C263.294 203.947 263.21 205.167 263.109 206.52C263.008 207.874 262.899 209.085 262.765 210.422C262.647 211.591 262.522 212.795 262.362 214.023C262.27 214.8 262.177 215.585 262.068 216.387L261.968 217.047C261.968 217.331 261.892 217.615 261.85 217.882C261.691 219.019 261.481 220.389 261.237 221.951C261.237 222.135 261.179 222.327 261.145 222.528C260.86 224.357 260.524 226.412 260.163 228.568C260.121 228.768 260.087 228.961 260.062 229.153C259.357 233.288 258.535 237.8 257.695 241.96C257.695 242.211 257.594 242.461 257.544 242.704C256.94 245.678 256.319 248.468 255.723 250.783Z" fill="#E8E2FF"/>
<path d="M286.477 166.586C292.621 166.586 297.339 159.902 297.54 159.643C297.573 159.597 297.596 159.545 297.608 159.49C297.62 159.435 297.622 159.378 297.612 159.323C297.602 159.267 297.582 159.214 297.551 159.167C297.521 159.119 297.482 159.078 297.435 159.046C297.389 159.013 297.337 158.99 297.281 158.978C297.226 158.966 297.169 158.964 297.113 158.974C297.058 158.984 297.004 159.004 296.957 159.035C296.909 159.065 296.868 159.104 296.835 159.15C296.835 159.217 291.983 165.992 286.125 165.717C280.266 165.441 278.998 160.896 278.948 160.704C278.917 160.596 278.843 160.504 278.744 160.449C278.645 160.394 278.528 160.381 278.419 160.412C278.364 160.425 278.312 160.45 278.266 160.484C278.221 160.518 278.183 160.561 278.154 160.61C278.126 160.659 278.108 160.714 278.102 160.77C278.095 160.827 278.101 160.884 278.117 160.938C278.696 162.582 279.773 164.007 281.2 165.017C282.626 166.027 284.332 166.572 286.083 166.577L286.477 166.586Z" fill="#AEAAD6"/>
<path d="M275.96 245.686C281.727 245.686 288.039 244.057 294.687 240.816C300.385 237.994 305.702 234.466 310.509 230.314C310.589 230.234 310.634 230.126 310.634 230.013C310.634 229.9 310.589 229.792 310.509 229.712C310.427 229.632 310.317 229.587 310.202 229.587C310.088 229.587 309.978 229.632 309.896 229.712C305.142 233.812 299.884 237.296 294.25 240.08C285.982 244.116 273.895 247.658 263.252 241.634C263.202 241.606 263.148 241.588 263.091 241.582C263.035 241.575 262.977 241.58 262.923 241.595C262.868 241.611 262.817 241.637 262.773 241.672C262.728 241.708 262.691 241.752 262.664 241.801C262.636 241.85 262.618 241.904 262.612 241.959C262.605 242.015 262.61 242.071 262.625 242.125C262.641 242.179 262.667 242.229 262.703 242.272C262.738 242.316 262.782 242.352 262.832 242.378C266.839 244.611 271.368 245.752 275.96 245.686Z" fill="#AEAAD6"/>
<path d="M274.684 240.841C283.699 240.699 291.06 228.735 291.371 228.225C291.43 228.129 291.448 228.013 291.421 227.904C291.394 227.794 291.325 227.699 291.228 227.641C291.13 227.582 291.013 227.563 290.901 227.59C290.789 227.617 290.693 227.686 290.632 227.783C290.565 227.908 283.212 239.847 274.684 239.989C274.587 240.008 274.5 240.06 274.437 240.136C274.375 240.213 274.34 240.308 274.34 240.406C274.34 240.505 274.375 240.6 274.437 240.676C274.5 240.752 274.587 240.805 274.684 240.824V240.841Z" fill="#AEAAD6"/>
<path d="M261.968 217.014C263.213 216.504 264.371 215.805 265.401 214.942C267.843 212.853 268.641 210.364 267.642 207.924L267.08 206.579C265.031 201.658 264.813 201.14 266.568 194.122C266.864 193.193 266.949 192.209 266.817 191.242C266.685 190.276 266.339 189.351 265.804 188.533C265.1 187.593 264.178 186.837 263.118 186.328L263.168 187.004C264.022 187.455 264.762 188.092 265.334 188.867C265.822 189.617 266.136 190.466 266.254 191.352C266.372 192.238 266.289 193.138 266.014 193.989C264.209 201.19 264.477 201.825 266.551 206.796C266.727 207.214 266.912 207.632 267.105 208.141C268.322 211.099 266.324 213.396 265.023 214.507C264.133 215.259 263.138 215.878 262.068 216.345L261.968 217.014Z" fill="#AEAAD6"/>
<path d="M308.779 221.5C309.493 222.565 310.469 223.431 311.613 224.016C312.757 224.6 314.033 224.885 315.318 224.842C316.678 224.828 318.025 224.576 319.297 224.098C319.297 223.872 319.347 223.664 319.364 223.463C314.596 225.276 310.928 223.789 309.292 221.224C308.504 220.135 308.18 218.781 308.39 217.455C308.601 216.13 309.329 214.941 310.416 214.148C313.505 211.842 312.691 209.971 311.826 207.974C310.962 205.977 310.097 203.997 312.204 200.956C312.703 200.153 313.36 199.46 314.137 198.919C314.913 198.377 315.792 197.999 316.72 197.806C317.74 197.642 318.782 197.687 319.784 197.94C319.784 197.74 319.784 197.539 319.784 197.339C318.759 197.101 317.698 197.07 316.661 197.247C315.661 197.446 314.712 197.845 313.871 198.419C313.03 198.994 312.314 199.731 311.768 200.588C309.485 203.93 310.509 206.253 311.331 208.158C312.154 210.062 312.834 211.616 310.106 213.647C308.903 214.528 308.093 215.84 307.845 217.306C307.598 218.772 307.933 220.276 308.779 221.5Z" fill="#AEAAD6"/>
<path d="M281.618 218.576C282.102 219.93 283.024 221.087 284.239 221.866C285.453 222.644 286.893 223 288.333 222.878C288.812 222.84 289.288 222.776 289.76 222.686C293.688 221.901 298.624 219.16 301.108 215.276C302.05 213.834 302.629 212.187 302.796 210.476C302.962 208.764 302.712 207.037 302.065 205.442C300.134 200.346 299.345 195.826 299.79 192.368C299.912 191.396 299.714 190.411 299.225 189.561C298.737 188.71 297.985 188.041 297.082 187.652C296.178 187.263 295.173 187.176 294.216 187.405C293.259 187.633 292.402 188.163 291.774 188.917L291.564 189.168C288.14 193.345 288.87 197.079 289.508 200.354C290.188 203.78 290.767 206.737 286.36 209.503C282.348 212.009 280.585 215.401 281.618 218.576ZM286.654 209.97C291.396 207.005 290.75 203.713 290.062 200.237C289.416 196.896 288.744 193.554 292.001 189.519L292.211 189.268C292.753 188.599 293.503 188.128 294.343 187.928C295.182 187.729 296.065 187.812 296.852 188.165C297.65 188.496 298.314 189.08 298.741 189.827C299.168 190.574 299.333 191.442 299.211 192.292C298.972 194.576 299.102 196.884 299.597 199.126C300.058 201.344 300.701 203.521 301.519 205.635C302.148 207.146 302.395 208.787 302.24 210.415C302.085 212.043 301.532 213.608 300.63 214.975C297.927 219.152 292.236 222.018 288.299 222.31C286.987 222.423 285.675 222.099 284.568 221.39C283.461 220.681 282.621 219.627 282.18 218.392C281.223 215.468 282.894 212.343 286.654 209.97Z" fill="#AEAAD6"/>
<path d="M262.664 181.816C262.664 182.067 262.723 182.317 262.756 182.576C264.265 183.592 266.047 184.131 267.868 184.122C268.548 184.121 269.226 184.051 269.891 183.913C273.811 183.078 276.95 180.321 277.32 178.307C277.402 177.972 277.375 177.62 277.242 177.301C277.109 176.983 276.877 176.715 276.581 176.536C273.014 174.33 271.973 171.456 272.611 165.558C272.726 164.854 272.69 164.134 272.507 163.444C272.323 162.755 271.995 162.111 271.545 161.556L270.94 161.723L271.058 161.857C271.479 162.357 271.787 162.94 271.963 163.569C272.138 164.197 272.176 164.856 272.074 165.5C271.41 171.657 272.518 174.69 276.27 177.021C276.471 177.138 276.627 177.318 276.713 177.532C276.8 177.747 276.812 177.984 276.749 178.207C276.422 180.037 273.391 182.626 269.782 183.353C268.554 183.617 267.284 183.616 266.056 183.351C264.828 183.086 263.672 182.562 262.664 181.816Z" fill="#AEAAD6"/>
<path d="M282.457 186.929C282.754 187.379 283.163 187.745 283.644 187.991C284.125 188.236 284.661 188.354 285.202 188.332C285.6 188.331 285.996 188.272 286.377 188.157C288.358 187.547 289.457 185.651 289.298 183.052C289.139 180.454 290.733 179.426 292.261 178.516C293.612 177.68 295.006 176.895 294.469 174.873C294.279 174.122 293.849 173.453 293.243 172.968C292.637 172.483 291.888 172.207 291.111 172.183C290.055 172.065 288.987 172.219 288.008 172.63C287.029 173.041 286.173 173.696 285.521 174.531C283.187 177.438 280.283 183.361 282.457 186.929ZM285.999 174.898C286.531 174.228 287.206 173.685 287.976 173.308C288.746 172.931 289.59 172.729 290.448 172.718C290.646 172.705 290.845 172.705 291.044 172.718C291.706 172.727 292.347 172.955 292.866 173.364C293.385 173.774 293.754 174.342 293.915 174.982C294.343 176.586 293.344 177.179 291.967 177.989C290.448 178.892 288.551 180.02 288.727 183.061C288.861 185.358 287.888 187.054 286.209 187.572C285.633 187.784 285.003 187.804 284.414 187.63C283.825 187.455 283.309 187.095 282.944 186.603C280.929 183.32 283.733 177.672 285.966 174.898H285.999Z" fill="#AEAAD6"/>
<path d="M269.958 204.991C269.899 205.658 269.979 206.33 270.195 206.964C270.41 207.599 270.755 208.181 271.209 208.676C272.259 209.755 273.66 210.427 275.163 210.572C275.637 210.586 276.104 210.451 276.497 210.188C277.614 209.403 277.681 207.59 276.682 205.175C275.532 202.418 277.32 201.198 279.2 199.895C280.812 198.792 282.474 197.656 282.121 195.542C281.869 194.022 280.745 193.103 278.864 192.877C277.302 192.716 275.731 193.083 274.404 193.92C273.078 194.757 272.073 196.014 271.553 197.489C270.631 199.891 270.093 202.423 269.958 204.991ZM272.107 197.723C272.552 196.476 273.37 195.395 274.449 194.623C275.51 193.862 276.784 193.45 278.092 193.445C278.33 193.429 278.568 193.429 278.806 193.445C280.484 193.638 281.324 194.356 281.567 195.626C281.861 197.389 280.417 198.383 278.881 199.427C276.984 200.731 274.827 202.218 276.162 205.392C277.001 207.498 277.001 209.06 276.162 209.67C275.322 210.28 273.308 209.762 271.595 208.208C270.026 206.829 270.202 203.087 272.107 197.723Z" fill="#AEAAD6"/>
<path d="M260.062 229.136C262.488 228.802 263.008 230.08 263.764 231.943C264.435 233.614 265.275 235.678 267.877 236.889C268.71 237.285 269.622 237.49 270.546 237.49C271.66 237.463 272.754 237.185 273.746 236.677C274.737 236.169 275.6 235.445 276.27 234.558C277.949 232.327 277.949 229.746 276.27 227.816C275.964 227.536 275.716 227.199 275.542 226.823C275.368 226.447 275.27 226.041 275.255 225.627C275.322 224.725 276.161 224.015 277.059 223.263C278.302 222.218 279.703 221.032 279.242 219.085C279.076 218.335 278.705 217.645 278.171 217.091C277.636 216.537 276.958 216.14 276.212 215.944C273.559 215.184 270.168 216.362 267.558 218.943C265.875 220.672 263.628 221.745 261.22 221.968C261.22 222.152 261.162 222.344 261.128 222.544C263.718 222.347 266.146 221.212 267.952 219.353C269.667 217.529 272.02 216.432 274.525 216.287C275.041 216.283 275.556 216.354 276.052 216.496C276.701 216.66 277.292 217.001 277.757 217.481C278.223 217.96 278.545 218.559 278.688 219.211C279.074 220.882 277.916 221.834 276.69 222.862C275.742 223.655 274.768 224.474 274.676 225.619C274.686 226.108 274.793 226.59 274.992 227.038C275.191 227.485 275.477 227.889 275.834 228.225C277.622 230.272 276.984 232.678 275.834 234.249C274.239 236.363 271.083 237.774 268.154 236.413C265.745 235.285 264.989 233.413 264.318 231.768C263.562 229.905 262.907 228.284 260.188 228.585L260.062 229.136Z" fill="#AEAAD6"/>
<path d="M293.747 226.446C293.714 226.895 293.814 227.344 294.035 227.738C294.256 228.131 294.587 228.452 294.989 228.66C295.461 228.89 295.982 229.005 296.508 228.994C298.01 228.918 299.451 228.378 300.63 227.448C302.015 226.421 303.098 226.813 304.592 227.365C306.437 228.177 308.493 228.391 310.467 227.975C311.033 227.882 311.574 227.678 312.06 227.374C312.545 227.071 312.965 226.675 313.295 226.208C313.625 225.741 313.858 225.214 313.98 224.656C314.103 224.099 314.113 223.523 314.01 222.962C313.951 222.472 313.796 221.998 313.554 221.568C313.311 221.138 312.985 220.76 312.595 220.456C312.205 220.151 311.759 219.927 311.281 219.795C310.803 219.663 310.304 219.626 309.813 219.687C308.366 219.884 306.967 220.339 305.683 221.032C304.004 221.867 302.535 222.561 299.698 221.792C299.101 221.586 298.465 221.516 297.837 221.588C297.209 221.66 296.606 221.873 296.072 222.21C294.141 223.497 293.78 226.279 293.764 226.387L293.747 226.446ZM294.318 226.446C294.318 226.237 294.729 223.781 296.383 222.678C296.85 222.394 297.374 222.217 297.919 222.159C298.463 222.101 299.013 222.164 299.53 222.344C300.59 222.671 301.709 222.769 302.81 222.633C303.912 222.496 304.971 222.127 305.918 221.55C307.143 220.883 308.48 220.444 309.863 220.255C310.283 220.203 310.709 220.234 311.117 220.346C311.524 220.459 311.905 220.651 312.238 220.911C312.571 221.171 312.848 221.495 313.054 221.863C313.26 222.23 313.391 222.635 313.439 223.054C313.526 223.542 313.516 224.043 313.407 224.526C313.298 225.01 313.093 225.468 312.805 225.872C312.517 226.277 312.151 226.62 311.728 226.882C311.304 227.144 310.833 227.319 310.341 227.398C308.476 227.798 306.531 227.59 304.793 226.805C304.03 226.474 303.215 226.276 302.384 226.22C301.62 226.231 300.882 226.496 300.286 226.972C298.54 228.275 296.466 228.752 295.249 228.133C294.947 227.976 294.698 227.734 294.532 227.437C294.366 227.14 294.292 226.801 294.318 226.462V226.446Z" fill="#AEAAD6"/>
<path d="M311.835 246.973C309.233 249.738 309.317 253.447 310.87 255.427C311.224 255.886 311.673 256.263 312.188 256.531C312.702 256.799 313.269 256.953 313.85 256.981L314.11 256.856L314.261 256.422C313.698 256.452 313.137 256.345 312.625 256.111C312.113 255.877 311.666 255.522 311.323 255.077C309.905 253.28 309.863 249.905 312.255 247.365C314.647 244.826 313.455 243.572 312.163 242.286C310.87 240.999 309.737 239.896 310.484 237.273C310.641 236.678 310.921 236.122 311.307 235.642C311.693 235.161 312.176 234.766 312.725 234.483C313.715 234.016 314.803 233.789 315.898 233.823C316.643 233.829 317.387 233.896 318.122 234.023C318.122 233.831 318.172 233.639 318.189 233.455C316.274 233.028 314.271 233.209 312.465 233.973C311.848 234.293 311.305 234.737 310.871 235.278C310.438 235.819 310.123 236.445 309.947 237.114C309.107 240.047 310.551 241.509 311.743 242.687C312.935 243.865 313.866 244.801 311.835 246.973Z" fill="#AEAAD6"/>
<path d="M261.354 254.893L261.875 255.185C262.174 253.724 263.012 252.427 264.225 251.551C265.518 250.716 267.205 250.674 269.261 251.334C271.182 251.912 272.822 253.173 273.87 254.876C275.372 256.965 276.488 258.034 282.012 255.895C283.752 255.178 285.61 254.785 287.493 254.734C290.011 254.734 291.765 255.62 292.529 256.814C293.461 258.293 292.991 260.215 291.278 262.036H292.051C293.662 260.131 294.032 258.118 293.016 256.53C291.665 254.4 287.568 253.13 281.777 255.369C276.405 257.458 275.616 256.363 274.315 254.534C273.192 252.733 271.45 251.4 269.413 250.782C267.205 250.064 265.35 250.156 263.906 251.067C262.61 251.985 261.702 253.348 261.354 254.893Z" fill="#AEAAD6"/>
<path d="M294.804 252.512C295.15 253.484 295.788 254.327 296.632 254.925C297.476 255.523 298.485 255.847 299.522 255.854H299.815C303.316 255.611 305.783 253.347 306.757 249.463C307.512 246.463 307.865 243.431 305.313 241.559C305.3 241.555 305.285 241.555 305.271 241.559C305.145 241.492 302.191 240.089 299.975 240.999C299.507 241.193 299.088 241.487 298.748 241.861C298.408 242.235 298.156 242.68 298.011 243.163C297.527 244.486 297.497 245.932 297.927 247.274C298.229 248.435 298.363 248.945 296.517 249.73C295.148 250.281 294.519 251.3 294.804 252.512ZM296.735 250.248C298.934 249.337 298.833 248.468 298.481 247.115C298.08 245.887 298.103 244.56 298.548 243.347C298.674 242.938 298.891 242.561 299.181 242.245C299.471 241.928 299.828 241.68 300.227 241.517C302.115 240.749 304.759 241.918 305.028 242.052C306.849 243.406 307.202 245.519 306.237 249.337C305.59 251.902 303.953 255.018 299.807 255.302C298.856 255.341 297.917 255.079 297.125 254.554C296.334 254.029 295.73 253.267 295.4 252.378C295.148 251.443 295.618 250.699 296.726 250.248H296.735Z" fill="#AEAAD6"/>
<path d="M257.536 252.32L257.997 252.671C258.676 252.204 259.241 251.591 259.65 250.878C260.06 250.166 260.304 249.371 260.364 248.552C260.541 245.945 258.862 243.38 257.704 241.943C257.653 242.194 257.603 242.445 257.544 242.695C258.618 244.116 259.936 246.329 259.802 248.543C259.741 249.294 259.51 250.02 259.128 250.67C258.746 251.319 258.222 251.874 257.594 252.295L257.536 252.32Z" fill="#AEAAD6"/>
<path d="M285.37 215.092L286.058 215.551L286.696 215.977L287.963 216.813C288.803 217.339 289.642 217.866 290.481 218.367C292.16 219.386 293.906 220.364 295.669 221.308C299.264 223.264 302.992 224.969 306.824 226.412C308.885 227.174 310.99 227.813 313.128 228.325C315.54 228.902 318.009 229.204 320.489 229.228C321.948 229.236 323.405 229.101 324.837 228.827C326.509 228.498 328.125 227.935 329.639 227.156C330.464 226.738 331.253 226.251 331.997 225.702C332.375 225.426 332.744 225.126 333.097 224.817L333.617 224.34L333.693 224.257C333.794 224.163 333.889 224.062 333.978 223.956C334.168 223.762 334.345 223.556 334.507 223.338C334.813 222.963 335.091 222.567 335.338 222.151C335.439 221.968 335.548 221.767 335.623 221.592C335.699 221.416 335.783 221.258 335.85 221.09L335.951 220.84L336.026 220.614C336.077 220.472 336.127 220.322 336.169 220.171C336.252 219.913 336.322 219.651 336.379 219.386C336.429 219.161 336.471 218.943 336.505 218.718C336.603 218.051 336.654 217.378 336.656 216.704C336.656 216.153 336.656 215.685 336.589 215.259C336.521 214.833 336.496 214.424 336.446 214.089C336.253 212.851 335.993 211.624 335.665 210.413C335.38 209.319 335.069 208.3 334.742 207.305C334.104 205.334 333.433 203.462 332.727 201.624C331.326 197.965 329.832 194.44 328.304 190.947C326.776 187.455 325.198 184.013 323.595 180.596C322.756 178.883 321.983 177.179 321.169 175.475L319.935 172.918L318.643 170.353C317.563 168.158 315.651 166.479 313.328 165.686C311.004 164.893 308.46 165.051 306.253 166.126C304.047 167.201 302.36 169.104 301.564 171.416C300.767 173.729 300.926 176.262 302.006 178.457L302.166 178.775L302.233 178.892L303.525 181.256L304.818 183.671C305.657 185.283 306.497 186.895 307.336 188.516C309.015 191.758 310.646 195.01 312.23 198.274C313.799 201.524 315.319 204.791 316.695 208.016C317.375 209.62 318.021 211.224 318.584 212.761V212.836C317.894 212.775 317.207 212.677 316.527 212.544C315.023 212.246 313.54 211.853 312.087 211.366C308.903 210.298 305.798 209.008 302.795 207.506C301.245 206.749 299.706 205.941 298.179 205.083C297.423 204.665 296.668 204.248 295.921 203.788L294.813 203.128L293.797 202.502L293.579 202.368C291.886 201.358 289.865 201.042 287.942 201.486C286.02 201.931 284.345 203.101 283.273 204.75C282.201 206.4 281.814 208.399 282.194 210.327C282.574 212.255 283.692 213.96 285.311 215.084L285.37 215.092Z" fill="#F49D8B"/>
<path d="M325.358 216.128C325.43 216.128 325.501 216.11 325.565 216.075C325.628 216.04 325.681 215.989 325.719 215.928C325.748 215.882 325.767 215.83 325.776 215.777C325.785 215.723 325.784 215.668 325.771 215.616C325.759 215.563 325.736 215.513 325.704 215.469C325.672 215.425 325.631 215.388 325.584 215.359C323.543 214.227 321.38 213.325 319.138 212.669C319.031 212.638 318.916 212.651 318.819 212.704C318.721 212.757 318.649 212.847 318.618 212.953C318.601 213.006 318.595 213.061 318.601 213.116C318.606 213.171 318.623 213.225 318.649 213.273C318.676 213.321 318.712 213.364 318.756 213.398C318.799 213.432 318.849 213.457 318.903 213.471C321.069 214.11 323.16 214.979 325.14 216.061C325.203 216.107 325.28 216.131 325.358 216.128Z" fill="#E8705A"/>
<path d="M319.448 213.488C319.528 213.489 319.606 213.469 319.675 213.429C321.295 212.385 324.174 212.636 324.207 212.636C324.262 212.641 324.318 212.635 324.371 212.618C324.424 212.602 324.473 212.575 324.515 212.54C324.558 212.505 324.593 212.461 324.618 212.413C324.644 212.364 324.66 212.31 324.665 212.256C324.67 212.201 324.664 212.145 324.647 212.093C324.631 212.04 324.604 211.991 324.569 211.949C324.533 211.907 324.49 211.872 324.441 211.846C324.392 211.821 324.338 211.805 324.283 211.8C324.149 211.8 321.085 211.533 319.247 212.719C319.153 212.781 319.087 212.877 319.063 212.986C319.04 213.095 319.06 213.21 319.121 213.304C319.157 213.358 319.206 213.403 319.263 213.434C319.319 213.466 319.383 213.485 319.448 213.488Z" fill="#E8705A"/>
<path d="M277.295 203.771C280.409 206.278 279.234 210.839 282.507 212.402C284.899 213.555 289.65 214.156 292.429 210.338C293.385 208.983 293.905 207.369 293.918 205.713C293.932 204.057 293.438 202.435 292.504 201.065C290.356 197.694 287.79 194.606 284.866 191.875C280.149 187.814 274.701 184.982 273.836 186.62C272.972 188.257 277.975 190.22 279.603 192.86C279.603 192.86 278.764 192.134 278.092 193.429C277.884 193.774 277.759 194.163 277.727 194.564C277.695 194.966 277.756 195.369 277.907 195.743C277.623 195.828 277.361 195.972 277.138 196.167C276.915 196.362 276.737 196.602 276.615 196.871C276.493 197.522 276.548 198.194 276.774 198.817C276.774 198.817 275.28 199.435 275.179 200.588C275.079 201.741 275.188 202.101 277.295 203.771Z" fill="#F49D8B"/>
<path d="M293.679 204.089C293.679 204.089 291.447 194.256 288.374 193.003C286.95 192.348 285.437 191.904 283.884 191.683L293.679 204.089Z" fill="#F49D8B"/>
<path d="M296.726 204.507C296.726 204.507 293.923 212.652 288.668 217.147C287.383 216.982 286.214 216.322 285.412 215.309C289.182 211.717 292.024 207.272 293.696 202.351C294.325 202.48 294.919 202.738 295.441 203.11C295.963 203.481 296.401 203.957 296.726 204.507Z" fill="#1D1526"/>
<path d="M290.532 204.047C289.466 205.718 290.381 208.225 292.588 209.603C294.796 210.982 297.448 210.789 298.514 209.119C299.58 207.448 298.665 204.941 296.466 203.563C294.267 202.184 291.606 202.376 290.532 204.047Z" fill="#1D1526"/>
<path d="M293.134 208.784C294.712 209.787 296.634 209.62 297.398 208.433C298.161 207.247 297.507 205.442 295.92 204.432C294.334 203.421 292.42 203.596 291.648 204.782C290.876 205.969 291.547 207.757 293.134 208.784Z" fill="white"/>
<path d="M309.762 200.188L311.13 199.645L311.667 199.427L320.749 195.835L321.303 195.609L331.258 191.666C330.366 188.964 329.269 186.333 327.976 183.796L327.473 182.743C326.365 180.446 324.954 177.513 322.982 173.645C321.978 171.461 320.626 169.452 318.978 167.697C318.838 167.547 318.695 167.404 318.55 167.271C317.717 166.506 316.806 165.831 315.83 165.257C313.832 164.018 311.48 163.465 309.136 163.68C306.791 163.896 304.582 164.87 302.845 166.452C301.826 167.39 301.004 168.519 300.428 169.776C299.852 171.032 299.532 172.39 299.488 173.771C299.018 182.568 309.762 200.188 309.762 200.188Z" fill="#E8E2FF"/>
<path d="M299.026 163.904C299.546 167.58 301.897 173.737 305.968 174.639C306.502 174.731 307.05 174.683 307.561 174.502C308.071 174.32 308.525 174.011 308.88 173.603C309.148 173.313 309.374 172.987 309.552 172.634C310.467 170.78 309.82 168.683 307.823 167.02C305.825 165.357 306.144 163.494 306.53 161.757C306.597 161.473 306.664 161.18 306.715 160.921C306.522 160.921 306.329 160.854 306.144 160.821C306.102 161.088 306.035 161.364 305.976 161.656C305.59 163.386 305.137 165.533 307.462 167.505C309.241 168.992 309.829 170.846 309.04 172.434C308.794 172.99 308.375 173.453 307.844 173.754C307.314 174.055 306.7 174.178 306.094 174.105C302.3 173.269 300.092 167.371 299.588 163.854C299.472 163.04 299.53 162.211 299.76 161.421C299.99 160.632 300.387 159.9 300.923 159.275L300.369 159.05C299.817 159.721 299.413 160.499 299.182 161.335C298.95 162.171 298.897 163.046 299.026 163.904Z" fill="#AEAAD6"/>
<path d="M310.912 198.525C310.988 198.901 311.063 199.277 311.13 199.645L311.667 199.427C311.609 199.093 311.542 198.751 311.474 198.408C310.828 195.066 310.157 191.724 313.413 187.698L313.623 187.447C314.171 186.786 314.92 186.321 315.756 186.12C316.593 185.92 317.473 185.995 318.263 186.336C319.052 186.676 319.71 187.262 320.136 188.007C320.561 188.751 320.733 189.613 320.624 190.463C320.426 192.251 320.468 194.058 320.75 195.835L321.304 195.609C321.046 193.931 321.006 192.227 321.186 190.538C321.318 189.564 321.128 188.573 320.643 187.716C320.158 186.859 319.406 186.183 318.501 185.79C317.595 185.397 316.586 185.309 315.625 185.539C314.665 185.768 313.806 186.303 313.178 187.063C313.111 187.146 313.036 187.23 312.968 187.322C309.544 191.541 310.274 195.25 310.912 198.525Z" fill="#AEAAD6"/>
<path d="M315.193 181.632C315.439 181.875 315.757 182.034 316.099 182.085C316.442 182.136 316.792 182.077 317.099 181.916C320.691 180.103 323.604 180.588 328.011 183.796L327.507 182.743C323.31 179.919 320.431 179.602 316.838 181.407C316.636 181.518 316.402 181.559 316.174 181.523C315.946 181.487 315.736 181.375 315.579 181.206C314.178 179.97 313.531 176.035 314.74 172.601C315.475 170.487 316.994 168.732 318.987 167.697C318.847 167.546 318.705 167.404 318.559 167.271C317.114 168.051 315.907 169.206 315.067 170.613C314.727 171.193 314.445 171.806 314.228 172.442C312.843 176.202 313.615 180.279 315.193 181.632Z" fill="#AEAAD6"/>
<path d="M309.762 200.605C309.833 200.604 309.902 200.587 309.964 200.555C310.012 200.529 310.055 200.493 310.09 200.45C310.125 200.408 310.151 200.358 310.166 200.306C310.182 200.253 310.187 200.198 310.181 200.143C310.175 200.088 310.158 200.035 310.132 199.987L301.016 182.885C300.99 182.836 300.955 182.793 300.913 182.757C300.87 182.722 300.821 182.695 300.767 182.679C300.714 182.662 300.659 182.657 300.603 182.662C300.548 182.667 300.494 182.684 300.445 182.71C300.397 182.736 300.354 182.772 300.319 182.814C300.284 182.857 300.258 182.906 300.243 182.959C300.227 183.012 300.222 183.067 300.228 183.122C300.234 183.177 300.251 183.23 300.277 183.278L309.393 200.346C309.423 200.42 309.474 200.483 309.54 200.529C309.605 200.575 309.682 200.602 309.762 200.605Z" fill="#AEAAD6"/>
<path d="M302.837 187.639C302.934 187.641 303.029 187.608 303.104 187.547C303.179 187.486 303.23 187.4 303.248 187.305C303.259 187.251 303.259 187.196 303.249 187.142C303.239 187.088 303.217 187.037 303.187 186.991C303.157 186.945 303.118 186.906 303.072 186.875C303.026 186.844 302.975 186.823 302.921 186.812L300.084 186.227C299.972 186.205 299.857 186.228 299.762 186.29C299.668 186.353 299.602 186.45 299.58 186.561C299.558 186.672 299.581 186.787 299.644 186.881C299.707 186.975 299.805 187.04 299.916 187.062L302.728 187.631L302.837 187.639Z" fill="#AEAAD6"/>
<path d="M273.585 132.758C273.585 132.758 269.178 130.845 269.388 127.612C269.369 127.34 269.413 127.067 269.515 126.814C269.617 126.56 269.775 126.333 269.978 126.149C270.18 125.965 270.422 125.829 270.685 125.751C270.947 125.673 271.224 125.655 271.495 125.699C271.495 125.699 268.817 122.457 269.959 121.129C270.094 120.952 270.267 120.809 270.467 120.711C270.666 120.612 270.886 120.561 271.109 120.561C271.332 120.561 271.551 120.612 271.751 120.711C271.95 120.809 272.124 120.952 272.259 121.129C272.259 121.129 271.495 114.445 273.602 113.501C275.709 112.557 277.052 115.79 277.052 115.79C277.052 115.79 279.159 110.644 282.415 111.02C285.672 111.396 285.093 113.885 285.093 113.885C285.093 113.885 288.92 111.379 292.563 112.933C296.206 114.487 294.477 116.551 294.477 116.551C294.477 116.551 298.674 117.127 300.798 119.408C302.921 121.689 299.841 123.585 299.841 123.585C299.841 123.585 304.038 124.537 304.038 127.595C304.038 130.653 300.781 129.876 300.781 129.876C300.781 129.876 304.978 135.599 302.695 137.888C300.412 140.177 298.498 136.693 298.498 136.693C298.498 136.693 303.24 145.324 299.791 147.036C296.341 148.749 293.47 143.987 293.47 143.987L273.585 132.758Z" fill="#1D1526"/>
<path d="M278.109 135.891C278.109 135.891 277.049 132.103 273.8 132.81C270.55 133.517 269.959 143.627 276.05 143.583L278.109 135.891Z" fill="#E8705A"/>
<path d="M295.644 157.396C295.644 157.396 296.483 158.858 289.961 160.654C288.099 161.185 286.139 161.281 284.233 160.935C282.327 160.589 280.527 159.809 278.974 158.658C280.04 153.737 279.184 150.545 278.932 149.785C278.915 149.726 278.896 149.667 278.873 149.61L295.837 141.255L295.644 157.396Z" fill="#FCAF9D"/>
<path d="M293.428 147.797C293.428 147.797 289.348 158.942 280.3 159.493C279.842 159.24 279.399 158.961 278.974 158.658C280.04 153.737 279.183 150.545 278.932 149.785L293.428 147.797Z" fill="#1D1526"/>
<path d="M286.847 153.644C279.855 154.931 274.324 151.89 273.711 145.925C273.568 144.488 273.509 142.408 273.501 140.244V140.177C273.501 139.717 273.501 139.25 273.501 138.782C273.501 138.448 273.501 138.113 273.501 137.779C273.501 133.911 273.686 130.411 273.686 130.411C274.794 120.828 284.371 117.344 291.984 121.07C299.597 124.796 296.534 136.443 296.45 142.149C296.366 147.855 292.849 152.525 286.847 153.644Z" fill="#FCAF9D"/>
<g style="mix-blend-mode:multiply">
<path d="M286.759 137.817C286.788 137.811 286.815 137.795 286.834 137.772C286.853 137.749 286.863 137.719 286.863 137.689C286.863 137.659 286.853 137.63 286.834 137.607C286.815 137.583 286.788 137.567 286.759 137.561C286.383 137.588 286.007 137.523 285.663 137.37C285.635 137.354 285.601 137.35 285.569 137.358C285.538 137.366 285.51 137.386 285.493 137.414C285.484 137.428 285.478 137.443 285.475 137.459C285.472 137.475 285.473 137.491 285.476 137.507C285.48 137.522 285.487 137.537 285.496 137.55C285.506 137.564 285.518 137.575 285.532 137.583C285.913 137.767 286.336 137.848 286.759 137.817Z" fill="#EBA492"/>
</g>
<g style="mix-blend-mode:multiply">
<path d="M277.903 137.392C277.936 137.392 277.968 137.379 277.992 137.355C278.016 137.332 278.029 137.3 278.029 137.267C278.027 137.234 278.014 137.203 277.99 137.18C277.967 137.156 277.936 137.143 277.903 137.141C277.527 137.17 277.151 137.104 276.807 136.951C276.778 136.934 276.744 136.93 276.711 136.938C276.678 136.946 276.65 136.966 276.632 136.994C276.623 137.008 276.617 137.023 276.614 137.039C276.611 137.055 276.611 137.071 276.615 137.087C276.619 137.103 276.625 137.118 276.635 137.131C276.644 137.144 276.657 137.155 276.67 137.163C277.055 137.344 277.479 137.423 277.903 137.392Z" fill="#EBA492"/>
</g>
<g style="mix-blend-mode:multiply">
<path d="M282.898 143.683C283.094 143.688 283.289 143.64 283.46 143.544C283.632 143.448 283.774 143.308 283.873 143.138C283.996 142.894 284.05 142.622 284.03 142.351C284.009 142.079 283.915 141.818 283.758 141.595C283.749 141.581 283.737 141.569 283.723 141.559C283.71 141.55 283.694 141.543 283.678 141.54C283.662 141.536 283.645 141.536 283.628 141.539C283.612 141.542 283.596 141.548 283.582 141.557C283.554 141.574 283.534 141.601 283.526 141.633C283.518 141.664 283.522 141.698 283.538 141.726C283.673 141.91 283.755 142.127 283.775 142.353C283.795 142.58 283.753 142.808 283.653 143.012C283.571 143.147 283.454 143.256 283.314 143.329C283.174 143.402 283.017 143.436 282.859 143.427C282.843 143.425 282.826 143.427 282.811 143.433C282.795 143.438 282.781 143.447 282.769 143.458C282.757 143.469 282.747 143.483 282.741 143.499C282.735 143.514 282.732 143.53 282.733 143.547C282.733 143.563 282.735 143.58 282.741 143.595C282.746 143.611 282.755 143.625 282.766 143.637C282.778 143.649 282.791 143.659 282.806 143.666C282.821 143.673 282.837 143.677 282.854 143.678L282.898 143.683Z" fill="#EBA492"/>
</g>
<path d="M286.222 137.321C285.807 137.321 285.471 136.728 285.471 135.997C285.471 135.265 285.807 134.672 286.222 134.672C286.636 134.672 286.972 135.265 286.972 135.997C286.972 136.728 286.636 137.321 286.222 137.321Z" fill="#1D1526"/>
<path d="M287.937 136.204C287.96 136.211 287.985 136.211 288.008 136.204C288.035 136.184 288.053 136.155 288.059 136.123C288.065 136.091 288.059 136.057 288.041 136.029C287.356 135.026 286.737 134.514 286.146 134.454C285.913 134.444 285.681 134.489 285.468 134.583C285.255 134.678 285.067 134.82 284.919 134.999C284.907 135.01 284.898 135.024 284.891 135.039C284.885 135.054 284.881 135.07 284.881 135.086C284.881 135.103 284.885 135.119 284.891 135.134C284.898 135.149 284.907 135.162 284.919 135.173C284.944 135.195 284.976 135.207 285.009 135.207C285.043 135.207 285.075 135.195 285.1 135.173C285.222 135.023 285.377 134.903 285.554 134.822C285.731 134.742 285.924 134.703 286.118 134.71C286.633 134.759 287.214 135.255 287.833 136.177C287.847 136.188 287.864 136.197 287.882 136.202C287.9 136.207 287.919 136.207 287.937 136.204Z" fill="#1D1526"/>
<path d="M277.36 136.901C276.946 136.901 276.61 136.308 276.61 135.577C276.61 134.845 276.946 134.252 277.36 134.252C277.775 134.252 278.111 134.845 278.111 135.577C278.111 136.308 277.775 136.901 277.36 136.901Z" fill="#1D1526"/>
<path d="M279.074 135.784C279.097 135.792 279.122 135.792 279.145 135.784C279.16 135.775 279.172 135.764 279.181 135.75C279.191 135.736 279.197 135.72 279.201 135.704C279.204 135.688 279.203 135.671 279.199 135.654C279.196 135.638 279.188 135.623 279.178 135.61C278.499 134.606 277.875 134.094 277.283 134.034C277.051 134.024 276.82 134.068 276.608 134.163C276.396 134.258 276.209 134.4 276.062 134.579C276.05 134.59 276.04 134.604 276.034 134.619C276.027 134.634 276.024 134.65 276.024 134.666C276.024 134.683 276.027 134.699 276.034 134.714C276.04 134.729 276.05 134.742 276.062 134.754C276.087 134.776 276.119 134.788 276.152 134.788C276.185 134.788 276.218 134.776 276.243 134.754C276.365 134.603 276.522 134.482 276.7 134.402C276.878 134.321 277.072 134.283 277.267 134.29C277.776 134.339 278.362 134.835 278.976 135.757C279.004 135.778 279.039 135.787 279.074 135.784Z" fill="#1D1526"/>
<path d="M283.27 130.141C284.059 131.335 285.04 131.902 287.225 131.526C289.028 131.274 290.862 131.689 292.379 132.693C290.801 130.392 289.597 129.509 287.411 130.076C286.054 130.413 284.638 130.435 283.27 130.141Z" fill="#1D1526"/>
<path d="M279.25 130.485C278.587 131.308 277.859 131.777 276.342 131.401C274.825 131.025 274.063 131.777 274.063 131.777C274.534 130.174 274.474 130.016 279.25 130.485Z" fill="#1D1526"/>
<g style="mix-blend-mode:multiply">
<path d="M283.408 131.346C283.431 131.345 283.454 131.337 283.473 131.324C283.493 131.311 283.508 131.293 283.518 131.271C283.528 131.25 283.533 131.227 283.53 131.203C283.528 131.18 283.52 131.158 283.506 131.139C282.887 130.348 282.958 129.634 283.654 128.756C283.677 128.733 283.689 128.702 283.689 128.669C283.689 128.637 283.677 128.605 283.654 128.582C283.643 128.57 283.629 128.561 283.614 128.554C283.599 128.548 283.583 128.544 283.566 128.544C283.55 128.544 283.534 128.548 283.519 128.554C283.504 128.561 283.49 128.57 283.479 128.582C282.679 129.552 282.63 130.386 283.325 131.281C283.344 131.311 283.373 131.334 283.408 131.346Z" fill="#EBA492"/>
</g>
<g style="mix-blend-mode:multiply">
<path d="M282.18 149.915C282.208 149.914 282.235 149.905 282.258 149.889C282.28 149.872 282.297 149.849 282.306 149.822C282.314 149.791 282.31 149.757 282.293 149.728C282.277 149.7 282.25 149.679 282.218 149.67C281.498 149.413 280.72 149.362 279.973 149.523C279.957 149.528 279.942 149.536 279.929 149.546C279.917 149.557 279.906 149.57 279.898 149.585C279.891 149.599 279.886 149.615 279.885 149.632C279.883 149.648 279.885 149.665 279.89 149.681C279.895 149.697 279.904 149.711 279.914 149.724C279.925 149.737 279.938 149.747 279.953 149.755C279.968 149.762 279.984 149.767 280 149.768C280.017 149.77 280.033 149.768 280.049 149.763C280.749 149.625 281.473 149.676 282.147 149.91L282.18 149.915Z" fill="#EBA492"/>
</g>
<path d="M278.166 141.333C278.506 140.807 278.777 140.239 278.971 139.643C279.176 138.994 279.335 138.331 279.447 137.659C279.523 137.096 279.674 136.546 279.897 136.024C280.11 135.593 279.957 135.244 279.699 134.661C279.454 134.121 279.261 133.559 279.124 132.982C279.119 132.949 279.126 132.915 279.144 132.887C279.162 132.859 279.19 132.838 279.223 132.829C279.256 132.824 279.29 132.831 279.318 132.849C279.347 132.867 279.367 132.895 279.376 132.927C279.499 133.49 279.683 134.039 279.924 134.563C280.187 135.168 280.379 135.604 280.11 136.138C279.903 136.647 279.759 137.18 279.683 137.725C279.571 138.408 279.41 139.082 279.201 139.742C278.999 140.355 278.721 140.941 278.374 141.486C278.204 141.753 278.084 141.949 278.122 142.031C278.215 142.282 279.765 142.833 281.704 142.74C281.721 142.739 281.737 142.742 281.753 142.747C281.768 142.753 281.783 142.762 281.795 142.773C281.807 142.784 281.817 142.797 281.824 142.812C281.831 142.827 281.835 142.843 281.835 142.86C281.834 142.892 281.822 142.923 281.8 142.947C281.777 142.971 281.747 142.987 281.715 142.991H281.271C280.413 142.998 279.558 142.876 278.735 142.631C278.396 142.849 278.467 143.1 278.472 143.127C278.483 143.158 278.481 143.192 278.467 143.222C278.452 143.251 278.427 143.274 278.396 143.285H278.352C278.325 143.284 278.3 143.276 278.278 143.26C278.257 143.244 278.24 143.223 278.231 143.198C278.202 143.075 278.207 142.946 278.246 142.825C278.286 142.705 278.359 142.598 278.456 142.516C278.23 142.444 278.036 142.296 277.908 142.097C277.815 141.9 277.958 141.704 278.166 141.333Z" fill="#1D1526"/>
<g style="mix-blend-mode:multiply">
<path d="M277.098 146.086C277.027 145.96 276.956 145.835 276.884 145.699C279.623 146.626 282.571 146.752 285.379 146.064C285.297 146.206 285.21 146.326 285.122 146.451C282.462 147.041 279.693 146.915 277.098 146.086Z" fill="#EBA492"/>
</g>
<path d="M285.012 146.429C282.428 146.974 279.749 146.875 277.213 146.14C278.768 148.784 281.047 148.495 281.047 148.495C281.831 148.521 282.608 148.344 283.303 147.982C283.998 147.62 284.586 147.085 285.012 146.429Z" fill="white"/>
<path d="M273.702 131.087C273.456 129.401 273.586 127.682 274.084 126.051C274.581 124.421 275.434 122.92 276.581 121.655C281.408 116.133 291.254 116.442 295.182 122.056C299.11 127.67 297.18 132.558 297.18 132.558C297.18 132.558 295.593 133.126 294.829 136.209L292.731 136.125C292.219 133.893 292.219 131.574 292.731 129.341C293.57 125.164 286.1 120.937 281.038 121.889C279.554 122.19 278.169 122.853 277.005 123.818C275.842 124.783 274.938 126.021 274.374 127.42C274.004 128.611 273.778 129.843 273.702 131.087Z" fill="#1D1526"/>
<path d="M290.012 124.312C290.012 124.312 286.487 122.942 284.783 123.61C283.079 124.279 280.586 125.147 278.756 123.819C276.926 122.491 274.769 126.434 274.769 126.434C274.769 126.434 277.128 119.4 282.961 120.862C288.795 122.324 288.787 121.781 290.012 124.312Z" fill="#1D1526"/>
<path d="M295.295 142.859C292.648 140.575 294.49 132.073 298.979 131.889C301.316 131.794 301.959 135.164 301.447 138.196C300.958 140.996 298.723 143.606 295.295 142.859Z" fill="#FCAF9D"/>
<g style="mix-blend-mode:multiply">
<path d="M296.636 142.242H296.69C298.419 141.559 298.693 140.539 298.705 139.999C298.706 139.633 298.6 139.274 298.4 138.966C298.2 138.659 297.914 138.416 297.578 138.267C297.289 138.14 296.971 138.092 296.657 138.127C296.343 138.163 296.043 138.28 295.79 138.468C295.951 136.487 296.982 134.535 298.234 133.941C298.508 133.798 298.818 133.738 299.125 133.77C299.433 133.802 299.724 133.923 299.963 134.119C299.977 134.131 299.993 134.139 300.011 134.143C300.028 134.148 300.047 134.149 300.064 134.146C300.082 134.143 300.1 134.137 300.115 134.127C300.13 134.117 300.143 134.105 300.153 134.09C300.178 134.064 300.192 134.03 300.192 133.995C300.192 133.959 300.178 133.925 300.153 133.9C299.873 133.675 299.534 133.537 299.176 133.501C298.818 133.465 298.458 133.534 298.138 133.698C296.72 134.369 295.593 136.552 295.522 138.771C295.521 138.798 295.529 138.824 295.543 138.847C295.558 138.87 295.579 138.888 295.604 138.899C295.629 138.91 295.656 138.913 295.683 138.908C295.71 138.903 295.735 138.891 295.754 138.872C295.973 138.645 296.256 138.489 296.566 138.425C296.876 138.362 297.197 138.393 297.489 138.516C297.777 138.646 298.022 138.856 298.193 139.122C298.364 139.387 298.455 139.696 298.454 140.011C298.454 140.486 298.192 141.375 296.607 142.004C296.573 142.019 296.547 142.045 296.534 142.079C296.521 142.112 296.521 142.149 296.535 142.182C296.546 142.199 296.561 142.213 296.579 142.223C296.596 142.234 296.616 142.24 296.636 142.242Z" fill="#EBA492"/>
</g>
</g>
<defs>
<clipPath id="clip0_4943_45402">
<rect width="476" height="432" fill="white"/>
</clipPath>
</defs>
</svg>
