<svg width="476" height="264" viewBox="0 0 476 264" fill="none" xmlns="http://www.w3.org/2000/svg">
<g clip-path="url(#clip0_4632_46398)">
<path opacity="0.7" d="M34 200H475" stroke="#E8E2FF" stroke-miterlimit="10"/>
<path opacity="0.7" d="M34 166H475" stroke="#E8E2FF" stroke-miterlimit="10"/>
<path opacity="0.7" d="M34 132H475" stroke="#E8E2FF" stroke-miterlimit="10"/>
<path opacity="0.7" d="M34 99H475" stroke="#E8E2FF" stroke-miterlimit="10"/>
<path opacity="0.7" d="M34 65H475" stroke="#E8E2FF" stroke-miterlimit="10"/>
<path opacity="0.7" d="M34 32H475" stroke="#E8E2FF" stroke-miterlimit="10"/>
<path opacity="0.7" d="M420 -103V233" stroke="#E8E2FF" stroke-miterlimit="10"/>
<path opacity="0.7" d="M365 -103V233" stroke="#E8E2FF" stroke-miterlimit="10"/>
<path opacity="0.7" d="M310 -103V233" stroke="#E8E2FF" stroke-miterlimit="10"/>
<path opacity="0.7" d="M255 -103V233" stroke="#E8E2FF" stroke-miterlimit="10"/>
<path opacity="0.7" d="M200 -103V233" stroke="#E8E2FF" stroke-miterlimit="10"/>
<path opacity="0.7" d="M145 -103V233" stroke="#E8E2FF" stroke-miterlimit="10"/>
<path opacity="0.7" d="M89 -103V233" stroke="#E8E2FF" stroke-miterlimit="10"/>
<path d="M13 146.589H4.6V145.305L10.732 141.633V142.305L4.6 138.693L4.6 137.409L13 137.397V138.873L6.916 138.885V138.573L12.04 141.645V142.341L6.916 145.461V145.101H13V146.589ZM13.12 131.192C13.12 131.848 13.012 132.452 12.796 133.004C12.58 133.556 12.28 134.036 11.896 134.444C11.504 134.852 11.048 135.168 10.528 135.392C10 135.616 9.424 135.728 8.8 135.728C8.176 135.728 7.604 135.616 7.084 135.392C6.556 135.168 6.1 134.852 5.716 134.444C5.324 134.036 5.02 133.556 4.804 133.004C4.588 132.452 4.48 131.852 4.48 131.204C4.48 130.548 4.588 129.948 4.804 129.404C5.02 128.852 5.324 128.372 5.716 127.964C6.1 127.556 6.556 127.24 7.084 127.016C7.604 126.792 8.176 126.68 8.8 126.68C9.424 126.68 10 126.792 10.528 127.016C11.056 127.24 11.512 127.556 11.896 127.964C12.28 128.372 12.58 128.852 12.796 129.404C13.012 129.948 13.12 130.544 13.12 131.192ZM11.752 131.204C11.752 130.78 11.68 130.388 11.536 130.028C11.392 129.668 11.188 129.356 10.924 129.092C10.652 128.828 10.34 128.624 9.988 128.48C9.628 128.328 9.232 128.252 8.8 128.252C8.368 128.252 7.976 128.328 7.624 128.48C7.264 128.624 6.952 128.828 6.688 129.092C6.416 129.356 6.208 129.668 6.064 130.028C5.92 130.388 5.848 130.78 5.848 131.204C5.848 131.628 5.92 132.02 6.064 132.38C6.208 132.732 6.416 133.044 6.688 133.316C6.952 133.58 7.264 133.788 7.624 133.94C7.976 134.084 8.368 134.156 8.8 134.156C9.224 134.156 9.616 134.084 9.976 133.94C10.336 133.788 10.652 133.58 10.924 133.316C11.188 133.052 11.392 132.74 11.536 132.38C11.68 132.02 11.752 131.628 11.752 131.204ZM13 125.027H4.6V123.743L11.068 118.475V119.111H4.6V117.563H13V118.847L6.532 124.115V123.479H13V125.027ZM8.092 113.872V109.696H9.376V113.872H8.092ZM11.692 113.752V109.012H13V115.312H4.6V109.18H5.908V113.752H11.692ZM13 105.302H9.676L10.636 104.954L4.6 108.602L4.6 106.934L9.46 104.006V104.942L4.6 101.99V100.454L10.636 104.102L9.676 103.742H13V105.302Z" fill="#AEAAD6"/>
<path d="M241.057 259V251.92H238.273V250.6H245.401V251.92H242.617V259H241.057ZM246.571 259V250.6H248.131V259H246.571ZM250.403 259V250.6H251.687L255.359 256.732H254.687L258.299 250.6H259.583L259.595 259H258.119L258.107 252.916H258.419L255.347 258.04H254.651L251.531 252.916H251.891V259H250.403ZM263.304 254.092H267.48V255.376H263.304V254.092ZM263.424 257.692H268.164V259H261.864V250.6H267.996V251.908H263.424V257.692Z" fill="#AEAAD6"/>
<path d="M36.032 259.12C35.368 259.12 34.768 258.952 34.232 258.616C33.704 258.28 33.288 257.792 32.984 257.152C32.68 256.504 32.528 255.72 32.528 254.8C32.528 253.88 32.68 253.1 32.984 252.46C33.288 251.812 33.704 251.32 34.232 250.984C34.768 250.648 35.368 250.48 36.032 250.48C36.704 250.48 37.304 250.648 37.832 250.984C38.36 251.32 38.776 251.812 39.08 252.46C39.392 253.1 39.548 253.88 39.548 254.8C39.548 255.72 39.392 256.504 39.08 257.152C38.776 257.792 38.36 258.28 37.832 258.616C37.304 258.952 36.704 259.12 36.032 259.12ZM36.032 257.764C36.424 257.764 36.764 257.66 37.052 257.452C37.34 257.236 37.564 256.908 37.724 256.468C37.892 256.028 37.976 255.472 37.976 254.8C37.976 254.12 37.892 253.564 37.724 253.132C37.564 252.692 37.34 252.368 37.052 252.16C36.764 251.944 36.424 251.836 36.032 251.836C35.656 251.836 35.32 251.944 35.024 252.16C34.736 252.368 34.508 252.692 34.34 253.132C34.18 253.564 34.1 254.12 34.1 254.8C34.1 255.472 34.18 256.028 34.34 256.468C34.508 256.908 34.736 257.236 35.024 257.452C35.32 257.66 35.656 257.764 36.032 257.764Z" fill="#AEAAD6"/>
<path d="M116.745 109.051L35 124.415V234H476V104.063V-2L398.737 44.9652L346.56 56.3151L291.372 66.0497L237.962 89.1085H178.99L116.745 109.051Z" fill="url(#paint0_linear_4632_46398)"/>
<path d="M34.5 124.205L115.967 108.867L177.5 88.9576H236.772L291 65.937L338.5 57L396.5 44.8874L477 -1.60928" stroke="#342A98" stroke-width="3"/>
<g filter="url(#filter0_d_4632_46398)">
<path d="M118 108.841C118 108.049 117.765 107.275 117.325 106.617C116.884 105.959 116.258 105.446 115.526 105.144C114.794 104.842 113.989 104.763 113.213 104.919C112.436 105.075 111.724 105.458 111.165 106.019C110.606 106.58 110.227 107.295 110.075 108.072C109.922 108.849 110.004 109.654 110.31 110.385C110.615 111.115 111.131 111.739 111.791 112.176C112.451 112.613 113.227 112.845 114.019 112.841C114.543 112.841 115.062 112.737 115.546 112.536C116.031 112.335 116.47 112.04 116.84 111.668C117.21 111.297 117.503 110.856 117.702 110.37C117.901 109.885 118.002 109.365 118 108.841Z" fill="#FC1264"/>
</g>
<g filter="url(#filter1_d_4632_46398)">
<path d="M179 88.5232C179 87.7312 178.765 86.9572 178.325 86.299C177.884 85.6408 177.258 85.1281 176.526 84.8259C175.794 84.5237 174.989 84.4456 174.213 84.6014C173.436 84.7573 172.724 85.1401 172.165 85.7013C171.606 86.2626 171.227 86.9771 171.075 87.7542C170.922 88.5313 171.004 89.3362 171.31 90.0668C171.615 90.7973 172.131 91.4208 172.791 91.858C173.451 92.2953 174.227 92.5268 175.019 92.5231C175.543 92.5232 176.062 92.4196 176.546 92.2183C177.031 92.0171 177.47 91.7221 177.84 91.3505C178.21 90.9788 178.503 90.5377 178.702 90.0525C178.901 89.5673 179.002 89.0476 179 88.5232Z" fill="#FC1264"/>
</g>
<g filter="url(#filter2_d_4632_46398)">
<path d="M240 88.5232C240 87.7312 239.765 86.9572 239.325 86.299C238.884 85.6408 238.258 85.1281 237.526 84.8259C236.794 84.5237 235.989 84.4456 235.213 84.6014C234.436 84.7573 233.724 85.1401 233.165 85.7013C232.606 86.2626 232.227 86.9771 232.075 87.7542C231.922 88.5313 232.004 89.3362 232.31 90.0668C232.615 90.7973 233.131 91.4208 233.791 91.858C234.451 92.2953 235.227 92.5268 236.019 92.5231C236.543 92.5232 237.062 92.4196 237.546 92.2183C238.031 92.0171 238.47 91.7221 238.84 91.3505C239.21 90.9788 239.503 90.5377 239.702 90.0525C239.901 89.5673 240.002 89.0476 240 88.5232Z" fill="#FC1264"/>
</g>
<g filter="url(#filter3_d_4632_46398)">
<path d="M297 65.8609C297 65.069 296.765 64.2949 296.325 63.6367C295.884 62.9785 295.258 62.4658 294.526 62.1636C293.794 61.8614 292.989 61.7833 292.213 61.9392C291.436 62.095 290.724 62.4778 290.165 63.0391C289.606 63.6003 289.227 64.3148 289.075 65.0919C288.922 65.8691 289.004 66.6739 289.31 67.4045C289.615 68.1351 290.131 68.7585 290.791 69.1958C291.451 69.6331 292.227 69.8646 293.019 69.8609C293.543 69.8609 294.062 69.7573 294.546 69.5561C295.031 69.3548 295.47 69.0599 295.84 68.6882C296.21 68.3165 296.503 67.8754 296.702 67.3902C296.901 66.905 297.002 66.3853 297 65.8609Z" fill="#FC1264"/>
</g>
<g filter="url(#filter4_d_4632_46398)">
<path d="M399 44.7616C399 43.9696 398.765 43.1956 398.325 42.5374C397.884 41.8792 397.258 41.3665 396.526 41.0643C395.794 40.7621 394.989 40.684 394.213 40.8398C393.436 40.9957 392.724 41.3785 392.165 41.9397C391.606 42.501 391.227 43.2155 391.075 43.9926C390.922 44.7697 391.004 45.5746 391.31 46.3052C391.615 47.0357 392.131 47.6592 392.791 48.0965C393.451 48.5337 394.227 48.7652 395.019 48.7616C395.543 48.7616 396.062 48.658 396.546 48.4567C397.031 48.2555 397.47 47.9605 397.84 47.5889C398.21 47.2172 398.503 46.7761 398.702 46.2909C398.901 45.8057 399.002 45.286 399 44.7616Z" fill="#FC1264"/>
</g>
<path d="M397.5 191.801L475 210.947V232.828H34V141.007L115 151.166L175 170.311L238.5 179.689L288.5 187.894L397.5 191.801Z" fill="url(#paint1_linear_4632_46398)"/>
<path d="M476.5 210.166L394 192.192L292.5 188.285L236 179.298L175 170.311L114.5 151.947L35 141.007" stroke="#FDB42B" stroke-width="3"/>
<g filter="url(#filter5_d_4632_46398)">
<path d="M118 151.821C118 151.029 117.765 150.255 117.325 149.597C116.884 148.939 116.258 148.426 115.526 148.124C114.794 147.822 113.989 147.744 113.213 147.899C112.436 148.055 111.724 148.438 111.165 148.999C110.606 149.561 110.227 150.275 110.075 151.052C109.922 151.829 110.004 152.634 110.31 153.365C110.615 154.095 111.131 154.719 111.791 155.156C112.451 155.593 113.227 155.825 114.019 155.821C114.543 155.821 115.062 155.718 115.546 155.516C116.031 155.315 116.47 155.02 116.84 154.648C117.21 154.277 117.503 153.836 117.702 153.35C117.901 152.865 118.002 152.346 118 151.821Z" fill="#FC1264"/>
</g>
<g filter="url(#filter6_d_4632_46398)">
<path d="M179 169.795C179 169.003 178.765 168.229 178.325 167.57C177.884 166.912 177.258 166.4 176.526 166.097C175.794 165.795 174.989 165.717 174.213 165.873C173.436 166.029 172.724 166.412 172.165 166.973C171.606 167.534 171.227 168.249 171.075 169.026C170.922 169.803 171.004 170.608 171.31 171.338C171.615 172.069 172.131 172.692 172.791 173.13C173.451 173.567 174.227 173.798 175.019 173.795C175.543 173.795 176.062 173.691 176.546 173.49C177.031 173.289 177.47 172.994 177.84 172.622C178.21 172.25 178.503 171.809 178.702 171.324C178.901 170.839 179.002 170.319 179 169.795Z" fill="#FC1264"/>
</g>
<g filter="url(#filter7_d_4632_46398)">
<path d="M240 179.172C240 178.38 239.765 177.606 239.325 176.948C238.884 176.29 238.258 175.777 237.526 175.475C236.794 175.173 235.989 175.095 235.213 175.25C234.436 175.406 233.724 175.789 233.165 176.35C232.606 176.912 232.227 177.626 232.075 178.403C231.922 179.18 232.004 179.985 232.31 180.716C232.615 181.446 233.131 182.07 233.791 182.507C234.451 182.944 235.227 183.176 236.019 183.172C236.543 183.172 237.062 183.069 237.546 182.867C238.031 182.666 238.47 182.371 238.84 181.999C239.21 181.628 239.503 181.187 239.702 180.701C239.901 180.216 240.002 179.697 240 179.172Z" fill="#FC1264"/>
</g>
<g filter="url(#filter8_d_4632_46398)">
<path d="M297 187.768C297 186.976 296.765 186.202 296.325 185.544C295.884 184.886 295.258 184.373 294.526 184.071C293.794 183.769 292.989 183.691 292.213 183.846C291.436 184.002 290.724 184.385 290.165 184.946C289.606 185.508 289.227 186.222 289.075 186.999C288.922 187.776 289.004 188.581 289.31 189.312C289.615 190.042 290.131 190.666 290.791 191.103C291.451 191.54 292.227 191.772 293.019 191.768C293.543 191.768 294.062 191.665 294.546 191.463C295.031 191.262 295.47 190.967 295.84 190.595C296.21 190.224 296.503 189.783 296.702 189.298C296.901 188.812 297.002 188.293 297 187.768Z" fill="#FC1264"/>
</g>
<g filter="url(#filter9_d_4632_46398)">
<path d="M399 191.675C399 190.884 398.765 190.109 398.325 189.451C397.884 188.793 397.258 188.28 396.526 187.978C395.794 187.676 394.989 187.598 394.213 187.754C393.436 187.91 392.724 188.292 392.165 188.854C391.606 189.415 391.227 190.129 391.075 190.907C390.922 191.684 391.004 192.488 391.31 193.219C391.615 193.95 392.131 194.573 392.791 195.01C393.451 195.448 394.227 195.679 395.019 195.675C395.543 195.675 396.062 195.572 396.546 195.371C397.031 195.169 397.47 194.874 397.84 194.503C398.21 194.131 398.503 193.69 398.702 193.205C398.901 192.72 399.002 192.2 399 191.675Z" fill="#FC1264"/>
</g>
<path d="M34.7071 1.29289C34.3166 0.902369 33.6834 0.902369 33.2929 1.29289L26.9289 7.65685C26.5384 8.04738 26.5384 8.68054 26.9289 9.07107C27.3195 9.46159 27.9526 9.46159 28.3431 9.07107L34 3.41421L39.6569 9.07107C40.0474 9.46159 40.6805 9.46159 41.0711 9.07107C41.4616 8.68054 41.4616 8.04738 41.0711 7.65685L34.7071 1.29289ZM473.707 233.707C474.098 233.317 474.098 232.683 473.707 232.293L467.343 225.929C466.953 225.538 466.319 225.538 465.929 225.929C465.538 226.319 465.538 226.953 465.929 227.343L471.586 233L465.929 238.657C465.538 239.047 465.538 239.681 465.929 240.071C466.319 240.462 466.953 240.462 467.343 240.071L473.707 233.707ZM34 233H33V234H34V233ZM473 232H34V234H473V232ZM35 233V2H33V233H35Z" fill="#AEAAD6"/>
<path d="M278.364 120.403V112.003H281.82C282.564 112.003 283.2 112.123 283.728 112.363C284.264 112.603 284.676 112.947 284.964 113.395C285.252 113.843 285.396 114.375 285.396 114.991C285.396 115.607 285.252 116.139 284.964 116.587C284.676 117.027 284.264 117.367 283.728 117.607C283.2 117.839 282.564 117.955 281.82 117.955H279.228L279.924 117.247V120.403H278.364ZM283.86 120.403L281.736 117.355H283.404L285.54 120.403H283.86ZM279.924 117.415L279.228 116.671H281.748C282.436 116.671 282.952 116.523 283.296 116.227C283.648 115.931 283.824 115.519 283.824 114.991C283.824 114.455 283.648 114.043 283.296 113.755C282.952 113.467 282.436 113.323 281.748 113.323H279.228L279.924 112.555V117.415ZM288.582 115.495H292.758V116.779H288.582V115.495ZM288.702 119.095H293.442V120.403H287.142V112.003H293.274V113.311H288.702V119.095ZM297.548 120.403L293.876 112.003H295.568L298.844 119.599H297.872L301.184 112.003H302.744L299.084 120.403H297.548ZM305.07 115.495H309.246V116.779H305.07V115.495ZM305.19 119.095H309.93V120.403H303.63V112.003H309.762V113.311H305.19V119.095ZM311.669 120.403V112.003H312.953L318.221 118.471H317.585V112.003H319.133V120.403H317.849L312.581 113.935H313.217V120.403H311.669ZM324.996 120.523C323.844 120.523 322.94 120.199 322.284 119.551C321.636 118.903 321.312 117.967 321.312 116.743V112.003H322.872V116.683C322.872 117.547 323.056 118.175 323.424 118.567C323.8 118.959 324.328 119.155 325.008 119.155C325.688 119.155 326.212 118.959 326.58 118.567C326.948 118.175 327.132 117.547 327.132 116.683V112.003H328.668V116.743C328.668 117.967 328.34 118.903 327.684 119.551C327.036 120.199 326.14 120.523 324.996 120.523ZM332.293 115.495H336.469V116.779H332.293V115.495ZM332.413 119.095H337.153V120.403H330.853V112.003H336.985V113.311H332.413V119.095Z" fill="#342A98"/>
<path d="M49.7516 182.092H53.9276V183.376H49.7516V182.092ZM49.8716 185.692H54.6116V187H48.3116V178.6H54.4436V179.908H49.8716V185.692ZM55.2369 187L58.7769 182.128V183.304L55.4049 178.6H57.1689L59.6769 182.08L58.9569 182.092L61.4409 178.6H63.1329L59.7849 183.22V182.092L63.3489 187H61.5489L58.9089 183.304H59.6169L57.0129 187H55.2369ZM64.296 187V178.6H67.752C68.496 178.6 69.132 178.72 69.66 178.96C70.196 179.2 70.608 179.544 70.896 179.992C71.184 180.44 71.328 180.972 71.328 181.588C71.328 182.204 71.184 182.736 70.896 183.184C70.608 183.632 70.196 183.976 69.66 184.216C69.132 184.456 68.496 184.576 67.752 184.576H65.16L65.856 183.844V187H64.296ZM65.856 184.012L65.16 183.256H67.68C68.368 183.256 68.884 183.112 69.228 182.824C69.58 182.528 69.756 182.116 69.756 181.588C69.756 181.052 69.58 180.64 69.228 180.352C68.884 180.064 68.368 179.92 67.68 179.92H65.16L65.856 179.152V184.012ZM74.3258 182.092H78.5018V183.376H74.3258V182.092ZM74.4458 185.692H79.1858V187H72.8858V178.6H79.0178V179.908H74.4458V185.692ZM80.9249 187V178.6H82.2089L87.4769 185.068H86.8409V178.6H88.3889V187H87.1049L81.8369 180.532H82.4729V187H80.9249ZM94.5277 187.12C93.8877 187.12 93.2917 187.016 92.7397 186.808C92.1957 186.592 91.7197 186.292 91.3117 185.908C90.9117 185.516 90.5997 185.056 90.3757 184.528C90.1517 184 90.0397 183.424 90.0397 182.8C90.0397 182.176 90.1517 181.6 90.3757 181.072C90.5997 180.544 90.9157 180.088 91.3237 179.704C91.7317 179.312 92.2077 179.012 92.7517 178.804C93.2957 178.588 93.8917 178.48 94.5397 178.48C95.2277 178.48 95.8557 178.6 96.4237 178.84C96.9917 179.072 97.4717 179.42 97.8637 179.884L96.8557 180.832C96.5517 180.504 96.2117 180.26 95.8357 180.1C95.4597 179.932 95.0517 179.848 94.6117 179.848C94.1717 179.848 93.7677 179.92 93.3997 180.064C93.0397 180.208 92.7237 180.412 92.4517 180.676C92.1877 180.94 91.9797 181.252 91.8277 181.612C91.6837 181.972 91.6117 182.368 91.6117 182.8C91.6117 183.232 91.6837 183.628 91.8277 183.988C91.9797 184.348 92.1877 184.66 92.4517 184.924C92.7237 185.188 93.0397 185.392 93.3997 185.536C93.7677 185.68 94.1717 185.752 94.6117 185.752C95.0517 185.752 95.4597 185.672 95.8357 185.512C96.2117 185.344 96.5517 185.092 96.8557 184.756L97.8637 185.716C97.4717 186.172 96.9917 186.52 96.4237 186.76C95.8557 187 95.2237 187.12 94.5277 187.12ZM100.798 182.092H104.974V183.376H100.798V182.092ZM100.918 185.692H105.658V187H99.3585V178.6H105.49V179.908H100.918V185.692ZM110.002 187.12C109.346 187.12 108.718 187.028 108.118 186.844C107.518 186.652 107.042 186.408 106.69 186.112L107.23 184.9C107.566 185.164 107.982 185.384 108.478 185.56C108.974 185.736 109.482 185.824 110.002 185.824C110.442 185.824 110.798 185.776 111.07 185.68C111.342 185.584 111.542 185.456 111.67 185.296C111.798 185.128 111.862 184.94 111.862 184.732C111.862 184.476 111.77 184.272 111.586 184.12C111.402 183.96 111.162 183.836 110.866 183.748C110.578 183.652 110.254 183.564 109.894 183.484C109.542 183.404 109.186 183.312 108.826 183.208C108.474 183.096 108.15 182.956 107.854 182.788C107.566 182.612 107.33 182.38 107.146 182.092C106.962 181.804 106.87 181.436 106.87 180.988C106.87 180.532 106.99 180.116 107.23 179.74C107.478 179.356 107.85 179.052 108.346 178.828C108.85 178.596 109.486 178.48 110.254 178.48C110.758 178.48 111.258 178.544 111.754 178.672C112.25 178.8 112.682 178.984 113.05 179.224L112.558 180.436C112.182 180.212 111.794 180.048 111.394 179.944C110.994 179.832 110.61 179.776 110.242 179.776C109.81 179.776 109.458 179.828 109.186 179.932C108.922 180.036 108.726 180.172 108.598 180.34C108.478 180.508 108.418 180.7 108.418 180.916C108.418 181.172 108.506 181.38 108.682 181.54C108.866 181.692 109.102 181.812 109.39 181.9C109.686 181.988 110.014 182.076 110.374 182.164C110.734 182.244 111.09 182.336 111.442 182.44C111.802 182.544 112.126 182.68 112.414 182.848C112.71 183.016 112.946 183.244 113.122 183.532C113.306 183.82 113.398 184.184 113.398 184.624C113.398 185.072 113.274 185.488 113.026 185.872C112.786 186.248 112.414 186.552 111.91 186.784C111.406 187.008 110.77 187.12 110.002 187.12Z" fill="#FFA600"/>
</g>
<defs>
<filter id="filter0_d_4632_46398" x="104" y="102.841" width="20" height="20" filterUnits="userSpaceOnUse" color-interpolation-filters="sRGB">
<feFlood flood-opacity="0" result="BackgroundImageFix"/>
<feColorMatrix in="SourceAlpha" type="matrix" values="0 0 0 0 0 0 0 0 0 0 0 0 0 0 0 0 0 0 127 0" result="hardAlpha"/>
<feOffset dy="4"/>
<feGaussianBlur stdDeviation="3"/>
<feColorMatrix type="matrix" values="0 0 0 0 0.103243 0 0 0 0 0.0808159 0 0 0 0 0.327517 0 0 0 0.4 0"/>
<feBlend mode="normal" in2="BackgroundImageFix" result="effect1_dropShadow_4632_46398"/>
<feBlend mode="normal" in="SourceGraphic" in2="effect1_dropShadow_4632_46398" result="shape"/>
</filter>
<filter id="filter1_d_4632_46398" x="165" y="82.5232" width="20" height="20" filterUnits="userSpaceOnUse" color-interpolation-filters="sRGB">
<feFlood flood-opacity="0" result="BackgroundImageFix"/>
<feColorMatrix in="SourceAlpha" type="matrix" values="0 0 0 0 0 0 0 0 0 0 0 0 0 0 0 0 0 0 127 0" result="hardAlpha"/>
<feOffset dy="4"/>
<feGaussianBlur stdDeviation="3"/>
<feColorMatrix type="matrix" values="0 0 0 0 0.103243 0 0 0 0 0.0808159 0 0 0 0 0.327517 0 0 0 0.4 0"/>
<feBlend mode="normal" in2="BackgroundImageFix" result="effect1_dropShadow_4632_46398"/>
<feBlend mode="normal" in="SourceGraphic" in2="effect1_dropShadow_4632_46398" result="shape"/>
</filter>
<filter id="filter2_d_4632_46398" x="226" y="82.5232" width="20" height="20" filterUnits="userSpaceOnUse" color-interpolation-filters="sRGB">
<feFlood flood-opacity="0" result="BackgroundImageFix"/>
<feColorMatrix in="SourceAlpha" type="matrix" values="0 0 0 0 0 0 0 0 0 0 0 0 0 0 0 0 0 0 127 0" result="hardAlpha"/>
<feOffset dy="4"/>
<feGaussianBlur stdDeviation="3"/>
<feColorMatrix type="matrix" values="0 0 0 0 0.103243 0 0 0 0 0.0808159 0 0 0 0 0.327517 0 0 0 0.4 0"/>
<feBlend mode="normal" in2="BackgroundImageFix" result="effect1_dropShadow_4632_46398"/>
<feBlend mode="normal" in="SourceGraphic" in2="effect1_dropShadow_4632_46398" result="shape"/>
</filter>
<filter id="filter3_d_4632_46398" x="283" y="59.8609" width="20" height="20" filterUnits="userSpaceOnUse" color-interpolation-filters="sRGB">
<feFlood flood-opacity="0" result="BackgroundImageFix"/>
<feColorMatrix in="SourceAlpha" type="matrix" values="0 0 0 0 0 0 0 0 0 0 0 0 0 0 0 0 0 0 127 0" result="hardAlpha"/>
<feOffset dy="4"/>
<feGaussianBlur stdDeviation="3"/>
<feColorMatrix type="matrix" values="0 0 0 0 0.103243 0 0 0 0 0.0808159 0 0 0 0 0.327517 0 0 0 0.4 0"/>
<feBlend mode="normal" in2="BackgroundImageFix" result="effect1_dropShadow_4632_46398"/>
<feBlend mode="normal" in="SourceGraphic" in2="effect1_dropShadow_4632_46398" result="shape"/>
</filter>
<filter id="filter4_d_4632_46398" x="385" y="38.7616" width="20" height="20" filterUnits="userSpaceOnUse" color-interpolation-filters="sRGB">
<feFlood flood-opacity="0" result="BackgroundImageFix"/>
<feColorMatrix in="SourceAlpha" type="matrix" values="0 0 0 0 0 0 0 0 0 0 0 0 0 0 0 0 0 0 127 0" result="hardAlpha"/>
<feOffset dy="4"/>
<feGaussianBlur stdDeviation="3"/>
<feColorMatrix type="matrix" values="0 0 0 0 0.103243 0 0 0 0 0.0808159 0 0 0 0 0.327517 0 0 0 0.4 0"/>
<feBlend mode="normal" in2="BackgroundImageFix" result="effect1_dropShadow_4632_46398"/>
<feBlend mode="normal" in="SourceGraphic" in2="effect1_dropShadow_4632_46398" result="shape"/>
</filter>
<filter id="filter5_d_4632_46398" x="104" y="145.821" width="20" height="20" filterUnits="userSpaceOnUse" color-interpolation-filters="sRGB">
<feFlood flood-opacity="0" result="BackgroundImageFix"/>
<feColorMatrix in="SourceAlpha" type="matrix" values="0 0 0 0 0 0 0 0 0 0 0 0 0 0 0 0 0 0 127 0" result="hardAlpha"/>
<feOffset dy="4"/>
<feGaussianBlur stdDeviation="3"/>
<feColorMatrix type="matrix" values="0 0 0 0 0.103243 0 0 0 0 0.0808159 0 0 0 0 0.327517 0 0 0 0.4 0"/>
<feBlend mode="normal" in2="BackgroundImageFix" result="effect1_dropShadow_4632_46398"/>
<feBlend mode="normal" in="SourceGraphic" in2="effect1_dropShadow_4632_46398" result="shape"/>
</filter>
<filter id="filter6_d_4632_46398" x="165" y="163.795" width="20" height="20" filterUnits="userSpaceOnUse" color-interpolation-filters="sRGB">
<feFlood flood-opacity="0" result="BackgroundImageFix"/>
<feColorMatrix in="SourceAlpha" type="matrix" values="0 0 0 0 0 0 0 0 0 0 0 0 0 0 0 0 0 0 127 0" result="hardAlpha"/>
<feOffset dy="4"/>
<feGaussianBlur stdDeviation="3"/>
<feColorMatrix type="matrix" values="0 0 0 0 0.103243 0 0 0 0 0.0808159 0 0 0 0 0.327517 0 0 0 0.4 0"/>
<feBlend mode="normal" in2="BackgroundImageFix" result="effect1_dropShadow_4632_46398"/>
<feBlend mode="normal" in="SourceGraphic" in2="effect1_dropShadow_4632_46398" result="shape"/>
</filter>
<filter id="filter7_d_4632_46398" x="226" y="173.172" width="20" height="20" filterUnits="userSpaceOnUse" color-interpolation-filters="sRGB">
<feFlood flood-opacity="0" result="BackgroundImageFix"/>
<feColorMatrix in="SourceAlpha" type="matrix" values="0 0 0 0 0 0 0 0 0 0 0 0 0 0 0 0 0 0 127 0" result="hardAlpha"/>
<feOffset dy="4"/>
<feGaussianBlur stdDeviation="3"/>
<feColorMatrix type="matrix" values="0 0 0 0 0.103243 0 0 0 0 0.0808159 0 0 0 0 0.327517 0 0 0 0.4 0"/>
<feBlend mode="normal" in2="BackgroundImageFix" result="effect1_dropShadow_4632_46398"/>
<feBlend mode="normal" in="SourceGraphic" in2="effect1_dropShadow_4632_46398" result="shape"/>
</filter>
<filter id="filter8_d_4632_46398" x="283" y="181.768" width="20" height="20" filterUnits="userSpaceOnUse" color-interpolation-filters="sRGB">
<feFlood flood-opacity="0" result="BackgroundImageFix"/>
<feColorMatrix in="SourceAlpha" type="matrix" values="0 0 0 0 0 0 0 0 0 0 0 0 0 0 0 0 0 0 127 0" result="hardAlpha"/>
<feOffset dy="4"/>
<feGaussianBlur stdDeviation="3"/>
<feColorMatrix type="matrix" values="0 0 0 0 0.103243 0 0 0 0 0.0808159 0 0 0 0 0.327517 0 0 0 0.4 0"/>
<feBlend mode="normal" in2="BackgroundImageFix" result="effect1_dropShadow_4632_46398"/>
<feBlend mode="normal" in="SourceGraphic" in2="effect1_dropShadow_4632_46398" result="shape"/>
</filter>
<filter id="filter9_d_4632_46398" x="385" y="185.676" width="20" height="20" filterUnits="userSpaceOnUse" color-interpolation-filters="sRGB">
<feFlood flood-opacity="0" result="BackgroundImageFix"/>
<feColorMatrix in="SourceAlpha" type="matrix" values="0 0 0 0 0 0 0 0 0 0 0 0 0 0 0 0 0 0 127 0" result="hardAlpha"/>
<feOffset dy="4"/>
<feGaussianBlur stdDeviation="3"/>
<feColorMatrix type="matrix" values="0 0 0 0 0.103243 0 0 0 0 0.0808159 0 0 0 0 0.327517 0 0 0 0.4 0"/>
<feBlend mode="normal" in2="BackgroundImageFix" result="effect1_dropShadow_4632_46398"/>
<feBlend mode="normal" in="SourceGraphic" in2="effect1_dropShadow_4632_46398" result="shape"/>
</filter>
<linearGradient id="paint0_linear_4632_46398" x1="255.5" y1="-17.9355" x2="255.5" y2="192.123" gradientUnits="userSpaceOnUse">
<stop stop-color="#AEAAD6" stop-opacity="0.5"/>
<stop offset="1" stop-color="#AEAAD6" stop-opacity="0"/>
</linearGradient>
<linearGradient id="paint1_linear_4632_46398" x1="254.5" y1="64.3798" x2="254.5" y2="232.828" gradientUnits="userSpaceOnUse">
<stop stop-color="#E4B061" stop-opacity="0.5"/>
<stop offset="1" stop-color="#FDB42B" stop-opacity="0"/>
</linearGradient>
<clipPath id="clip0_4632_46398">
<rect width="476" height="264" fill="white"/>
</clipPath>
</defs>
</svg>
