<svg width="476" height="440" viewBox="0 0 476 440" fill="none" xmlns="http://www.w3.org/2000/svg">
<path d="M476 433H0V437H476V433Z" fill="#3C74B5"/>
<path d="M294.861 320.168L287.043 319.657C287.976 318.429 289.054 318.075 291.706 317.853L294.861 320.168Z" fill="#848B98"/>
<path d="M300.668 325.314C305.271 326.866 308.622 328.207 312.04 329.886C312.065 329.006 312.065 329.006 312.081 328.471C308.337 327.774 305.172 326.153 300.668 325.314Z" fill="#848B98"/>
<path d="M288.278 330.926L310.771 333.669C310.771 333.669 298.94 333.817 293.517 335.109C292.905 333.886 290.692 332.078 288.278 330.926Z" fill="#FAFAFF"/>
<path d="M407.13 365.021H319.43V433.26H407.13V365.021Z" fill="#E8E2FF"/>
<path d="M443.303 365.021H407.13V433.26H443.303V365.021Z" fill="#AEAAD6"/>
<g style="mix-blend-mode:multiply">
<path d="M443.303 354.42H319.43V369.978H443.303V354.42Z" fill="#848B98"/>
</g>
<path d="M406.019 353.627H314.232V369.183H406.019V353.627Z" fill="#E8E2FF"/>
<path d="M447.752 353.627H406.02V369.183H447.752V353.627Z" fill="#AEAAD6"/>
<path d="M340.069 348.303L329.33 346.953C330.521 345.713 332.197 345.815 335.052 345.56L340.069 348.303Z" fill="#848B98"/>
<path d="M341.076 338.985L329.042 338.033C330.054 336.727 331.237 336.453 333.705 336.228L341.076 338.985Z" fill="#848B98"/>
<path d="M436.056 347.617C435.65 346.204 434.555 344.729 433.461 343.256L417.203 346.794L434.174 348.701L436.056 347.617Z" fill="#848B98"/>
<path d="M436.566 326.402C436.566 326.402 431.055 322.343 421.775 321.054L387.74 324.175L434.736 327.716L436.566 326.402Z" fill="#848B98"/>
<path d="M326.952 312.224C327.086 313.51 327.276 315.351 327.594 317.894C329.602 318.113 331.741 317.762 334.364 319.726C331.854 318.941 328.751 319.065 327.953 319.493C327.813 319.561 327.747 319.644 327.758 319.726C328.365 325.434 328.751 331.016 329.028 336.656C332.358 337.059 335.721 338.066 338.028 338.543C335.809 338.186 330.573 337.523 329.042 338.033C329.152 340.625 329.248 343.299 329.344 346.084C331.396 346.185 338.253 347.729 339.339 348.056C338.028 347.765 331.11 346.802 329.344 346.959C329.371 347.579 329.445 353.416 329.473 354.049C343.994 354.049 339.43 354.049 352.221 354.049C352.374 347.943 352.95 322.757 353.205 312.224H326.952Z" fill="#E8E2FF"/>
<path d="M436.566 323.157C436.881 318.494 437.52 317.024 438.168 312.224H353.194L352.201 354.044C385.845 354.044 407.13 353.523 436.05 353.687C436.05 351.575 436.05 349.573 436.05 347.617C434.953 346.61 428.466 345.376 419.164 346.885C423.528 345.925 433.134 344.21 436.05 344.712C436.102 338.368 436.259 332.24 436.571 326.402C434.684 324.905 420.626 322.675 395.264 324.175C399.466 323.177 432.907 322.378 436.566 323.157Z" fill="#E8E2FF"/>
<path d="M344.291 340.762C348.891 342.318 348.998 342.891 352.418 344.57C359.66 343.13 366.992 342.182 374.362 341.733C365.81 341.774 359.693 342.057 352.492 343.154C348.748 342.458 348.789 341.604 344.291 340.762Z" fill="#848B98"/>
<path d="M352.292 350.182C361.761 347.395 369.779 349.6 381.324 348.689C369.702 348.964 361.487 346.802 352.328 348.999C352.328 349.378 352.328 349.378 352.292 350.182Z" fill="#848B98"/>
<path d="M329.039 330.926L351.532 333.669C351.532 333.669 339.784 334.936 334.358 336.228C333.749 335.005 331.453 332.078 329.039 330.926Z" fill="#848B98"/>
<path d="M406.115 323.371L407.064 333.408L418.11 332.541L418.209 323.476L406.115 323.371Z" fill="#848B98"/>
<path d="M406.115 323.371L408.984 331.419L419.825 330.426L417.984 323.267L406.115 323.371Z" fill="#FDB42B"/>
<path d="M365.472 333.581C372.878 332.078 377.44 331.277 385.222 331.592C376.079 332.116 373.75 332.552 365.472 333.581Z" fill="#848B98"/>
<path d="M370.275 332.758L371.232 340.949L383.436 340.587L381.999 331.622L370.275 332.758Z" fill="#848B98"/>
<path d="M368.984 331.738L372.202 338.977L383.997 338.338L380.708 330.602L368.984 331.738Z" fill="#FC1264"/>
<path d="M72.4813 334.953H72.0342V346.597H72.4813V334.953Z" fill="#F2F6F8"/>
<path d="M82.2989 301.315H81.8518V312.959H82.2989V301.315Z" fill="#F2F6F8"/>
<path d="M77.6165 301.315H77.1694V312.959H77.6165V301.315Z" fill="#F2F6F8"/>
<path opacity="0.2" d="M103.859 384.171H29.3142C29.4212 383.419 28.4666 382.854 29.2484 382.854L102.325 382.838C102.698 382.838 103.059 382.973 103.341 383.218C103.623 383.463 103.806 383.801 103.859 384.171Z" fill="white"/>
<path d="M77.4381 318.135H76.991V329.779H77.4381V318.135Z" fill="#F2F6F8"/>
<path d="M206.053 346.975H191.331V369.27H206.053V346.975Z" fill="#C9D6ED"/>
<path d="M187.532 392.345V403.449L147.904 406.414C146.863 406.489 145.888 406.954 145.176 407.717C144.464 408.48 144.066 409.485 144.064 410.528V418.343H133.341L133.5 414.626L134.065 401.891C134.14 400.096 134.88 398.393 136.141 397.114C137.402 395.835 139.094 395.071 140.887 394.97L187.532 392.345Z" fill="#7C7A9F"/>
<path d="M253.294 410.429C253.296 409.412 252.912 408.432 252.22 407.687C251.527 406.942 250.578 406.488 249.563 406.416L212.598 403.671L209.836 403.462V392.358L212.598 392.517L256.486 394.986C258.28 395.09 259.971 395.855 261.233 397.133C262.496 398.411 263.239 400.112 263.319 401.907L263.868 414.629L264.027 418.36H253.294V410.429Z" fill="#7C7A9F"/>
<path d="M211.882 346.975H185.503C184.079 346.975 182.715 346.409 181.709 345.402C180.702 344.396 180.137 343.031 180.137 341.607V335.523H217.25V341.607C217.25 343.031 216.685 344.396 215.678 345.403C214.671 346.41 213.306 346.975 211.882 346.975Z" fill="#AEAAD6"/>
<path d="M262.178 321.41C262.175 325.151 260.688 328.739 258.043 331.384C255.398 334.03 251.811 335.517 248.07 335.52H149.305C146.652 335.522 144.053 334.774 141.807 333.363C139.561 331.953 137.758 329.936 136.607 327.546C135.675 325.636 135.193 323.537 135.198 321.41H262.178Z" fill="#312F5C"/>
<g style="mix-blend-mode:multiply">
<path d="M264.027 418.343H253.293V415.238C254.927 413.943 256.95 413.239 259.034 413.239C260.743 413.23 262.418 413.706 263.868 414.61L264.027 418.343Z" fill="#F2F6F8"/>
</g>
<path d="M262.603 432.361C267.35 430.394 269.604 424.951 267.638 420.204C265.672 415.457 260.229 413.202 255.481 415.169C250.734 417.135 248.479 422.578 250.446 427.325C252.412 432.073 257.855 434.327 262.603 432.361Z" fill="#454287"/>
<path d="M259.04 428.394C261.596 428.394 263.667 426.322 263.667 423.766C263.667 421.21 261.596 419.139 259.04 419.139C256.484 419.139 254.412 421.21 254.412 423.766C254.412 426.322 256.484 428.394 259.04 428.394Z" fill="#7C7A9F"/>
<g style="mix-blend-mode:multiply">
<path d="M212.598 392.504V403.657L209.836 403.449V392.345L212.598 392.504Z" fill="#F2F6F8"/>
</g>
<g style="mix-blend-mode:multiply">
<path d="M209.836 392.504V403.657L212.598 403.449V392.345L209.836 392.504Z" fill="#F2F6F8"/>
</g>
<g style="mix-blend-mode:multiply">
<path d="M185.248 392.504V403.657L188.01 403.449V392.345L185.248 392.504Z" fill="#F2F6F8"/>
</g>
<g style="mix-blend-mode:multiply">
<path d="M144.077 415.213V418.343H133.341L133.5 414.626C134.957 413.716 136.64 413.235 138.358 413.238C140.432 413.238 142.446 413.934 144.077 415.213Z" fill="#F2F6F8"/>
</g>
<path d="M144.085 431.114C148.136 427.952 148.856 422.105 145.693 418.054C142.531 414.004 136.684 413.284 132.634 416.446C128.583 419.608 127.863 425.455 131.026 429.506C134.188 433.556 140.035 434.276 144.085 431.114Z" fill="#454287"/>
<path d="M138.364 428.394C140.919 428.394 142.991 426.322 142.991 423.766C142.991 421.21 140.919 419.139 138.364 419.139C135.808 419.139 133.736 421.21 133.736 423.766C133.736 426.322 135.808 428.394 138.364 428.394Z" fill="#7C7A9F"/>
<path d="M210.197 369.27V401.553C210.197 402.915 209.655 404.222 208.692 405.185C207.729 406.148 206.422 406.69 205.06 406.691H192.327C190.964 406.69 189.658 406.148 188.695 405.185C187.731 404.222 187.19 402.915 187.189 401.553V369.27H210.197Z" fill="#AEAAD6"/>
<g style="mix-blend-mode:multiply">
<path d="M262.178 321.41C262.182 323.537 261.7 325.636 260.768 327.546H136.607C135.675 325.636 135.193 323.537 135.198 321.41H262.178Z" fill="#F2F6F8"/>
</g>
<g style="mix-blend-mode:multiply">
<path d="M217.25 335.52H180.137V339.613H217.25V335.52Z" fill="#F2F6F8"/>
</g>
<g style="mix-blend-mode:multiply">
<path d="M206.053 346.975H191.331V351.166H206.053V346.975Z" fill="#E8E8E8"/>
</g>
<g style="mix-blend-mode:multiply">
<path d="M206.053 365.178H191.331V369.271H206.053V365.178Z" fill="#E8E8E8"/>
</g>
<g style="mix-blend-mode:multiply">
<path d="M193.034 369.27V406.688H192.327C190.964 406.687 189.658 406.146 188.695 405.182C187.731 404.219 187.19 402.913 187.189 401.55V369.27H193.034Z" fill="#F2F6F8"/>
</g>
<g style="mix-blend-mode:multiply">
<path d="M204.342 369.27V406.688H205.049C206.412 406.687 207.718 406.146 208.681 405.182C209.645 404.219 210.186 402.913 210.187 401.55V369.27H204.342Z" fill="#F2F6F8"/>
</g>
<path d="M204.363 398.001V419.265H193.018V398.001H193.035C193.035 396.501 193.63 395.062 194.691 394.002C195.752 392.941 197.191 392.345 198.691 392.345C200.191 392.345 201.629 392.941 202.69 394.002C203.751 395.062 204.347 396.501 204.347 398.001H204.363Z" fill="#7C7A9F"/>
<g style="mix-blend-mode:multiply">
<path d="M204.363 398.001V419.265H198.688V392.348C199.431 392.347 200.166 392.493 200.853 392.777C201.539 393.061 202.163 393.477 202.688 394.002C203.214 394.527 203.631 395.151 203.915 395.837C204.2 396.523 204.346 397.258 204.347 398.001H204.363Z" fill="#F2F6F8"/>
</g>
<g style="mix-blend-mode:multiply">
<path d="M204.366 415.191V419.276H193.015V415.191C194.64 413.934 196.636 413.252 198.691 413.252C200.745 413.252 202.741 413.934 204.366 415.191Z" fill="#F2F6F8"/>
</g>
<path d="M209.863 423.766C209.863 425.606 209.317 427.405 208.295 428.935C207.273 430.465 205.82 431.658 204.119 432.362C202.419 433.066 200.548 433.251 198.744 432.892C196.939 432.533 195.281 431.646 193.98 430.345C192.678 429.044 191.792 427.386 191.433 425.581C191.074 423.776 191.258 421.906 191.963 420.205C192.667 418.505 193.859 417.052 195.39 416.03C196.92 415.007 198.718 414.462 200.559 414.462C203.026 414.462 205.393 415.442 207.138 417.187C208.883 418.932 209.863 421.298 209.863 423.766Z" fill="#454287"/>
<path d="M205.054 424.808C205.641 422.32 204.101 419.828 201.613 419.241C199.126 418.654 196.634 420.194 196.047 422.682C195.46 425.169 197 427.661 199.487 428.248C201.975 428.835 204.467 427.295 205.054 424.808Z" fill="#7C7A9F"/>
<path d="M205.235 423.766C205.235 425.606 204.69 427.405 203.667 428.935C202.645 430.465 201.192 431.658 199.492 432.362C197.792 433.066 195.921 433.251 194.116 432.892C192.311 432.533 190.653 431.646 189.352 430.345C188.051 429.044 187.165 427.386 186.805 425.581C186.446 423.776 186.631 421.906 187.335 420.205C188.039 418.505 189.232 417.052 190.762 416.03C192.292 415.007 194.091 414.462 195.931 414.462C197.153 414.461 198.363 414.702 199.492 415.169C200.621 415.637 201.647 416.322 202.511 417.186C203.375 418.05 204.06 419.076 204.528 420.205C204.995 421.334 205.236 422.544 205.235 423.766Z" fill="#AEAAD6"/>
<path d="M200.475 424.635C200.958 422.125 199.316 419.699 196.806 419.216C194.296 418.733 191.87 420.375 191.387 422.885C190.904 425.395 192.546 427.821 195.056 428.304C197.566 428.787 199.992 427.145 200.475 424.635Z" fill="#7C7A9F"/>
<path opacity="0.2" d="M202.026 346.975H195.237V369.27H202.026V346.975Z" fill="white"/>
<path d="M260.025 275.149C259.879 275.398 259.681 275.612 259.444 275.776C259.207 275.941 258.937 276.052 258.653 276.101C258.401 276.15 258.142 276.15 257.891 276.101H257.869C257.408 276.01 257.062 275.75 257.013 275.371C256.19 268.654 252.158 257.725 240.281 256.881C238.869 256.78 237.451 256.849 236.056 257.086C228.815 258.288 214.817 264.992 212.699 267.071L207.995 267.913C207.995 267.913 215.525 255.419 229.86 253.128C232.773 252.662 235.894 251.282 239.735 251.282C252.901 251.282 258.508 265.806 260.209 272.678C260.458 273.802 260.335 274.598 260.025 275.149Z" fill="#17124B"/>
<path d="M257.537 273.303H247.662C249.522 281.532 246.565 297.603 242.969 320.576H252.844C258.209 286.437 259.051 279.993 257.537 273.303Z" fill="#A3B6D9"/>
<path d="M258.033 273.303H248.158C250.018 281.532 247.061 297.603 243.465 320.576H253.34C258.705 286.437 259.547 279.993 258.033 273.303Z" fill="#C9D6ED"/>
<path d="M260.025 275.149C259.879 275.398 259.681 275.612 259.444 275.777C259.207 275.941 258.937 276.052 258.653 276.101H257.89L248.493 276.134L248.164 271.874L244.716 262.603L236.07 257.081L229.851 253.134L229.895 251.288H239.726C252.893 251.288 258.499 265.812 260.2 272.683C260.458 273.802 260.335 274.598 260.025 275.149Z" fill="#E8E2FF"/>
<path d="M250.356 272.694C251.318 276.589 247.308 276.718 247.144 275.377C246.321 268.659 242.286 257.731 230.411 256.886C220.78 256.198 209.891 265.664 207.962 267.919C206.865 268.881 204.643 264.627 206.316 262.084C206.316 262.084 216.984 251.29 229.884 251.288C243.054 251.285 248.655 265.809 250.356 272.694Z" fill="#AEAAD6"/>
<path d="M253.362 320.576H242.925V325.061H253.362V320.576Z" fill="#567AB0"/>
<path d="M254.744 322.817C254.744 324.057 254.124 325.061 253.373 325.061C252.621 325.061 252.001 324.057 252.001 322.817C252.001 321.578 252.621 320.576 253.373 320.576C254.124 320.576 254.744 321.58 254.744 322.817Z" fill="#567AB0"/>
<path d="M244.307 322.817C244.307 324.057 243.687 325.061 242.935 325.061C242.184 325.061 241.55 324.057 241.55 322.817C241.55 321.578 242.17 320.576 242.935 320.576C243.701 320.576 244.307 321.58 244.307 322.817Z" fill="#3C557A"/>
<path d="M279.975 335.142C279.701 335.166 279.426 335.166 279.152 335.142C267.05 333.858 263.371 327.538 255.337 326.567C255.063 326.534 254.821 326.507 254.553 326.49C253.28 326.401 252.002 326.401 250.729 326.49C242.113 327.072 232.181 330.939 223.968 328.449C223.581 328.339 223.2 328.213 222.83 328.068C221.633 327.608 220.464 327.082 219.327 326.49C214.971 324.203 211.723 321.13 209.545 317.216C207.866 314.213 206.823 310.705 206.415 306.691C205.044 293.621 209.175 283.696 208.489 275.67C207.803 267.644 204.432 256.285 204.432 256.285H209.883C210.675 259.761 211.443 263.763 211.74 267.164C212.414 275.188 208.305 285.104 209.655 298.177C210.557 306.869 214.381 313.148 221.233 317.224C222.778 318.137 224.399 318.917 226.077 319.553C234.803 322.905 242.736 317.773 252.062 317.241C253.079 317.175 254.1 317.175 255.118 317.241H255.142C255.403 317.241 255.675 317.274 255.935 317.301C267.127 318.382 279.303 325.53 280.384 326.043C280.636 326.162 280.872 326.312 281.086 326.49C283.78 328.676 283.585 334.711 279.975 335.142Z" fill="#17124B"/>
<path d="M120.303 266.865L118.828 300.377L126.95 321.841L154.517 325.061L221.153 322.949L208.176 305.229L207.649 293.623L210.285 269.677L207.861 261.028L120.303 266.865Z" fill="#17124B"/>
<path d="M279.975 339.21H190.003L190.511 328.449L190.431 326.018L281.085 326.49C285.845 328.01 284.58 339.21 279.975 339.21Z" fill="#342A98"/>
<path d="M281.072 326.49C281.28 326.669 194.941 326.49 194.941 326.49C191.043 326.49 191.57 326.367 164.768 317.191C184.676 315.776 242.631 316.316 255.946 317.301C267.159 318.124 279.313 325.53 280.394 326.043C280.638 326.164 280.865 326.314 281.072 326.49Z" fill="#342A98"/>
<path d="M191.219 326.043C190.267 325.33 177.962 318.382 166.767 317.298C155.71 316.231 146.82 323.361 136.91 319.55C126.999 315.74 121.59 308.74 120.498 298.18C119.146 285.106 123.241 275.185 122.572 267.161C122.281 263.763 121.51 259.755 120.715 256.285H117.972C117.972 256.285 118.633 267.65 119.313 275.673C119.993 283.696 115.887 293.618 117.239 306.694C118.337 317.255 123.743 328.638 133.654 332.443C143.564 336.247 156.278 329.763 166.158 330.948C174.198 331.913 177.13 337.501 189.172 339.155C196.488 340.159 194.79 328.718 191.219 326.043Z" fill="#FDB42B"/>
<path d="M205.645 285.298C206.531 263.98 198.362 248.309 197.799 224.296C197.465 209.972 199.333 190.53 200.896 177.171C201.125 175.218 200.948 173.238 200.376 171.357C199.804 169.475 198.85 167.731 197.574 166.235C196.297 164.739 194.725 163.523 192.957 162.662C191.188 161.802 189.261 161.316 187.296 161.234L129.372 158.831C125.779 158.681 122.262 159.892 119.522 162.221C116.783 164.55 115.022 167.827 114.593 171.397C112.999 184.745 110.884 205.581 111.238 220.711C111.787 244.724 119.969 260.394 119.083 281.713C118.197 303.032 204.761 306.617 205.645 285.298Z" fill="#6C64BA"/>
<path d="M213.265 285.298C214.148 263.98 205.982 248.309 205.42 224.296C205.082 209.972 206.95 190.53 208.514 177.171C208.742 175.218 208.565 173.238 207.993 171.357C207.422 169.475 206.468 167.731 205.191 166.235C203.914 164.739 202.343 163.523 200.574 162.662C198.806 161.802 196.879 161.316 194.914 161.234L136.989 158.831C133.397 158.682 129.88 159.893 127.14 162.222C124.401 164.551 122.64 167.827 122.21 171.397C120.605 184.745 118.501 205.581 118.855 220.703C119.42 244.715 127.586 260.386 126.703 281.705C125.82 303.024 212.379 306.617 213.265 285.298Z" fill="#342A98"/>
<path d="M162.373 142.968C163.166 141.556 166.614 140.999 166.614 140.999L167.615 148.339L162.266 146.798L162.373 142.968Z" fill="#A5A2CF"/>
<path d="M160.895 150.553C165.037 153.087 174.105 161.465 181.146 161.525C184.899 161.555 189.425 158.42 190.006 153.296C194.376 154.517 204.188 158.84 216.849 165.746C218.66 203.699 228.11 245.456 220.478 279.612C198.534 279.22 177.218 279.714 154.939 281.428C155.167 259.484 155.186 237.013 152.142 222.763C149.05 208.293 136.471 181.705 130.634 170.168C143.594 158.332 159.103 150.797 160.895 150.553Z" fill="#F0F0F9"/>
<path d="M191.071 151.505L197.934 162.993L188.627 158.338L191.071 151.505Z" fill="#FAFAFF"/>
<path d="M190.785 153.524C190.8 153.301 190.738 153.08 190.61 152.898L189.512 156.19L190.785 153.524Z" fill="#17124B"/>
<path d="M189.609 150.446C189.609 150.446 190.786 150.885 191.071 151.505L187.96 160.891C189.856 155.702 189.622 152.983 189.609 150.446Z" fill="#C6C5D9"/>
<path d="M162.26 129.051C163.7 134.773 163.911 152.842 163.66 155.063C163.409 157.283 169.906 163.431 177.094 163.89C189.806 164.019 191.225 152.088 189.685 147.613C188.144 143.138 162.26 129.051 162.26 129.051Z" fill="#FCAF9D"/>
<path d="M196.808 119.011C198.07 122.557 199.652 128.161 199.056 131.074C198.46 133.987 197.861 139.87 198.383 142.562C198.905 145.253 196.78 147.327 191.052 148.704C185.324 150.082 177.231 148.518 173.25 144.635C169.27 140.751 169.392 140.078 167.921 136.171C167.048 133.804 165.61 131.687 163.732 130.001L156.511 116.959C153.873 114.143 151.523 98.1838 157.354 99.1718C156.48 95.1661 161.743 87.692 171.252 87.5737C180.76 87.4554 187.669 91.2389 192.458 93.0638C197.247 94.8887 199.561 97.2181 199.108 99.0845C198.655 100.951 197.414 101.574 197.364 101.967C197.861 105.196 196.811 113.629 196.811 113.629L196.808 119.011Z" fill="#1D1526"/>
<path d="M170.869 102.646C169.623 103.368 169.199 102.466 169.012 102.489C167.732 103.471 166.526 104.51 167.652 108.493C168.779 112.477 168.96 114.413 167.871 114.869C166.782 115.325 164.853 117.655 165.711 117.927C166.568 118.2 167.281 118.3 166.322 118.74C165.363 119.18 165.626 119.773 166.437 119.673C167.249 119.572 166.16 122.563 168.631 124.092C171.102 125.62 171.875 129.269 173.22 131.958C174.566 134.647 179.417 136.893 183.651 134.211C187.885 131.53 191.337 130.657 193.854 131.488C196.371 132.32 197.559 131.662 198.273 130.241C198.987 128.819 198.414 124.709 197.545 121.278C196.676 117.846 197.357 115.153 197.468 112.983C197.579 110.813 195.273 103.412 193.25 100.914C191.228 98.4159 190.167 99.1071 189 100.396C187.832 101.685 181.793 105.759 170.869 102.646Z" fill="#FCAF9D"/>
<path d="M196.656 135.192C194.883 133.188 191.044 136.819 188.586 136.614C179.104 135.821 182.394 138.823 182.987 140.414C183.751 142.461 184.743 144.488 186.536 143.911C188.961 143.116 190.148 142.318 192.792 142.624C195.436 142.931 197.595 136.518 196.656 135.192Z" fill="#FCAF9D"/>
<path d="M166.692 102.099C166.664 102.109 166.633 102.113 166.603 102.11C163.893 101.078 161.106 100.261 158.268 99.6658C158.244 99.6612 158.221 99.6519 158.2 99.6384C158.179 99.6248 158.161 99.6073 158.147 99.5869C158.119 99.5456 158.108 99.4947 158.117 99.4455C158.126 99.3963 158.155 99.3527 158.196 99.3244C158.238 99.2961 158.288 99.2854 158.338 99.2946C161.198 99.8971 164.007 100.72 166.74 101.755C166.777 101.773 166.807 101.802 166.826 101.837C166.846 101.873 166.854 101.914 166.849 101.955C166.844 101.995 166.826 102.033 166.799 102.063C166.771 102.093 166.735 102.114 166.695 102.123L166.692 102.099Z" fill="#F4B2C8"/>
<path d="M169.499 115.196C169.471 115.207 169.44 115.211 169.41 115.207C169.41 115.207 168.386 114.601 164.417 113.848C164.393 113.844 164.37 113.835 164.349 113.821C164.328 113.808 164.31 113.79 164.296 113.77C164.282 113.749 164.272 113.726 164.267 113.702C164.262 113.678 164.262 113.653 164.266 113.628C164.27 113.603 164.278 113.579 164.292 113.558C164.305 113.536 164.322 113.518 164.343 113.504C164.364 113.49 164.387 113.48 164.412 113.475C164.437 113.471 164.462 113.471 164.487 113.477C168.487 114.217 169.504 114.833 169.585 114.823C169.608 114.831 169.63 114.844 169.648 114.861C169.666 114.878 169.68 114.899 169.69 114.921C169.7 114.944 169.705 114.969 169.705 114.993C169.705 115.018 169.699 115.043 169.689 115.065C169.676 115.105 169.651 115.14 169.617 115.163C169.582 115.187 169.541 115.198 169.499 115.196Z" fill="#F4B2C8"/>
<path d="M169.392 116.853C169.364 116.865 169.333 116.868 169.303 116.864C169.303 116.864 168.28 116.265 164.31 115.505C164.285 115.502 164.261 115.493 164.24 115.48C164.218 115.467 164.2 115.449 164.186 115.428C164.172 115.408 164.162 115.384 164.157 115.359C164.153 115.335 164.153 115.309 164.159 115.285C164.164 115.26 164.173 115.237 164.187 115.216C164.2 115.195 164.218 115.177 164.238 115.163C164.259 115.149 164.282 115.14 164.306 115.134C164.33 115.129 164.355 115.129 164.38 115.134C168.383 115.898 169.398 116.498 169.44 116.509C169.477 116.527 169.507 116.556 169.526 116.591C169.546 116.627 169.554 116.668 169.549 116.709C169.544 116.749 169.526 116.787 169.499 116.817C169.471 116.848 169.435 116.868 169.395 116.877L169.392 116.853Z" fill="#F4B2C8"/>
<path d="M163.687 130.131C166.904 126.564 162.963 115.263 156.823 115.769C153.627 116.034 153.319 120.746 154.528 124.8C155.666 128.542 159.149 131.73 163.687 130.131Z" fill="#FCAF9D"/>
<g style="mix-blend-mode:multiply">
<path d="M161.758 129.512L161.685 129.522C159.218 128.881 158.673 127.534 158.565 126.799C158.502 126.299 158.586 125.791 158.806 125.338C159.026 124.884 159.374 124.504 159.806 124.243C160.178 124.021 160.602 123.902 161.036 123.897C161.469 123.893 161.896 124.003 162.272 124.217C161.719 121.538 159.987 119.047 158.184 118.448C157.787 118.298 157.355 118.269 156.942 118.364C156.529 118.459 156.153 118.674 155.862 118.982C155.845 119 155.824 119.014 155.801 119.023C155.778 119.033 155.753 119.037 155.728 119.036C155.703 119.035 155.679 119.029 155.656 119.019C155.634 119.008 155.614 118.993 155.598 118.974C155.56 118.943 155.535 118.899 155.529 118.851C155.523 118.802 155.536 118.754 155.565 118.715C155.909 118.361 156.347 118.114 156.828 118.005C157.308 117.896 157.81 117.929 158.272 118.099C160.316 118.775 162.217 121.567 162.688 124.585C162.694 124.622 162.688 124.659 162.672 124.693C162.656 124.726 162.63 124.754 162.598 124.773C162.566 124.792 162.529 124.801 162.492 124.799C162.455 124.797 162.419 124.784 162.389 124.762C162.053 124.488 161.642 124.324 161.21 124.289C160.777 124.255 160.345 124.352 159.969 124.568C159.599 124.795 159.302 125.123 159.113 125.514C158.925 125.906 158.854 126.343 158.908 126.773C158.988 127.421 159.495 128.592 161.758 129.183C161.805 129.197 161.845 129.229 161.869 129.273C161.893 129.316 161.899 129.367 161.885 129.414C161.873 129.439 161.855 129.461 161.833 129.478C161.81 129.495 161.785 129.507 161.758 129.512Z" fill="#E8705A"/>
</g>
<g style="mix-blend-mode:multiply">
<path d="M179.309 124.204C179.264 124.201 179.222 124.182 179.189 124.15C179.157 124.119 179.136 124.078 179.13 124.033C179.125 123.988 179.135 123.943 179.159 123.904C179.183 123.866 179.219 123.837 179.262 123.823C179.823 123.794 180.369 123.627 180.851 123.338C180.89 123.308 180.939 123.296 180.988 123.302C181.036 123.308 181.08 123.333 181.111 123.371C181.126 123.39 181.138 123.411 181.146 123.434C181.153 123.458 181.155 123.482 181.153 123.506C181.151 123.53 181.143 123.554 181.132 123.575C181.12 123.596 181.104 123.615 181.085 123.63C180.554 123.974 179.941 124.172 179.309 124.204Z" fill="#E8705A"/>
</g>
<g style="mix-blend-mode:multiply">
<path d="M192.377 121.956C192.327 121.962 192.277 121.948 192.238 121.917C192.199 121.887 192.173 121.842 192.167 121.792C192.163 121.743 192.178 121.694 192.208 121.655C192.238 121.617 192.282 121.59 192.331 121.582C192.892 121.555 193.439 121.388 193.92 121.097C193.96 121.067 194.01 121.054 194.06 121.06C194.11 121.066 194.155 121.091 194.187 121.13C194.203 121.148 194.215 121.17 194.222 121.193C194.23 121.216 194.232 121.24 194.23 121.265C194.227 121.289 194.22 121.312 194.208 121.333C194.197 121.355 194.181 121.373 194.162 121.388C193.626 121.728 193.011 121.923 192.377 121.956Z" fill="#E8705A"/>
</g>
<g style="mix-blend-mode:multiply">
<path d="M186.123 132.207C185.833 132.25 185.536 132.214 185.264 132.103C184.993 131.992 184.756 131.81 184.579 131.576C184.352 131.237 184.222 130.842 184.202 130.435C184.182 130.027 184.274 129.622 184.466 129.262C184.477 129.239 184.492 129.219 184.51 129.202C184.529 129.186 184.55 129.173 184.574 129.165C184.597 129.156 184.622 129.153 184.647 129.154C184.672 129.156 184.696 129.162 184.719 129.173C184.763 129.193 184.798 129.23 184.816 129.275C184.834 129.32 184.834 129.371 184.815 129.416C184.649 129.714 184.568 130.052 184.579 130.392C184.591 130.733 184.695 131.064 184.881 131.349C185.027 131.534 185.221 131.675 185.441 131.758C185.662 131.841 185.901 131.862 186.133 131.819C186.157 131.814 186.182 131.814 186.206 131.819C186.23 131.824 186.253 131.834 186.273 131.849C186.293 131.864 186.309 131.883 186.321 131.904C186.333 131.926 186.34 131.95 186.341 131.974C186.346 131.999 186.345 132.024 186.339 132.048C186.334 132.072 186.323 132.095 186.309 132.115C186.295 132.135 186.277 132.152 186.256 132.165C186.235 132.178 186.211 132.187 186.187 132.191L186.123 132.207Z" fill="#E8705A"/>
</g>
<path d="M180.012 123.37C180.626 123.294 181.014 122.351 180.88 121.263C180.746 120.176 180.139 119.356 179.526 119.432C178.912 119.509 178.523 120.452 178.658 121.539C178.792 122.626 179.399 123.446 180.012 123.37Z" fill="#1D1526"/>
<path d="M177.264 122.027C177.231 122.042 177.194 122.047 177.159 122.04C177.116 122.016 177.084 121.976 177.069 121.929C177.054 121.882 177.057 121.831 177.078 121.787C177.908 120.168 178.732 119.291 179.598 119.093C179.942 119.036 180.294 119.06 180.627 119.161C180.96 119.263 181.264 119.44 181.517 119.679C181.537 119.694 181.554 119.712 181.566 119.733C181.579 119.754 181.586 119.778 181.589 119.802C181.592 119.826 181.59 119.851 181.584 119.874C181.577 119.898 181.565 119.92 181.549 119.939C181.516 119.976 181.471 120 181.422 120.006C181.372 120.012 181.323 120 181.281 119.972C181.073 119.77 180.82 119.62 180.543 119.533C180.266 119.446 179.973 119.424 179.686 119.47C178.931 119.637 178.162 120.482 177.413 121.967C177.395 121.988 177.371 122.004 177.345 122.014C177.32 122.024 177.292 122.029 177.264 122.027Z" fill="#1D1526"/>
<path d="M193.09 121.129C193.703 121.053 194.092 120.11 193.957 119.022C193.823 117.935 193.217 117.115 192.603 117.191C191.989 117.267 191.601 118.211 191.735 119.298C191.87 120.385 192.476 121.205 193.09 121.129Z" fill="#1D1526"/>
<path d="M190.341 119.786C190.309 119.802 190.271 119.807 190.236 119.799C190.213 119.789 190.193 119.774 190.176 119.755C190.159 119.736 190.147 119.714 190.139 119.69C190.132 119.666 190.129 119.641 190.132 119.616C190.135 119.591 190.142 119.567 190.155 119.546C190.978 117.928 191.809 117.05 192.675 116.852C193.018 116.795 193.369 116.818 193.7 116.92C194.032 117.022 194.336 117.2 194.587 117.439C194.606 117.454 194.623 117.472 194.635 117.493C194.648 117.514 194.656 117.538 194.659 117.562C194.662 117.586 194.66 117.611 194.653 117.634C194.646 117.658 194.634 117.68 194.619 117.699C194.586 117.736 194.54 117.76 194.491 117.766C194.442 117.772 194.392 117.76 194.351 117.732C194.14 117.53 193.886 117.379 193.608 117.292C193.33 117.205 193.035 117.184 192.747 117.231C192 117.397 191.223 118.243 190.483 119.727C190.444 119.764 190.394 119.785 190.341 119.786Z" fill="#1D1526"/>
<path d="M181.347 111.174C181.142 113.31 180.244 114.747 177.092 115.774C174.532 116.699 172.4 118.531 171.1 120.923C171.571 116.767 172.544 114.753 175.829 113.979C177.859 113.478 179.746 112.519 181.347 111.174Z" fill="#1D1526"/>
<path d="M189.724 110.112C190.199 111.623 190.958 112.674 193.276 112.97C195.594 113.267 196.244 114.732 196.244 114.732C196.462 112.235 196.632 112.046 189.724 110.112Z" fill="#1D1526"/>
<g style="mix-blend-mode:multiply">
<path d="M183.087 113.986C183.052 113.988 183.017 113.981 182.986 113.965C182.955 113.949 182.929 113.925 182.91 113.895C182.891 113.866 182.881 113.832 182.879 113.797C182.878 113.761 182.887 113.727 182.903 113.696C183.674 112.408 183.437 111.36 182.247 110.184C182.209 110.153 182.184 110.109 182.178 110.061C182.172 110.012 182.186 109.964 182.215 109.925C182.229 109.905 182.248 109.888 182.269 109.876C182.29 109.864 182.313 109.856 182.338 109.853C182.362 109.85 182.387 109.852 182.41 109.859C182.433 109.865 182.455 109.877 182.474 109.893C183.835 111.188 184.061 112.418 183.197 113.873C183.175 113.923 183.136 113.962 183.087 113.986Z" fill="#E8705A"/>
</g>
<g style="mix-blend-mode:multiply">
<path d="M188.419 141.927C188.377 141.931 188.335 141.922 188.299 141.901C188.262 141.88 188.233 141.849 188.215 141.811C188.197 141.766 188.197 141.714 188.216 141.669C188.235 141.623 188.271 141.587 188.317 141.568C189.337 141.053 190.481 140.834 191.62 140.936C191.644 140.941 191.668 140.95 191.689 140.963C191.709 140.977 191.727 140.994 191.741 141.015C191.755 141.036 191.765 141.059 191.77 141.083C191.775 141.107 191.776 141.132 191.771 141.157C191.767 141.181 191.757 141.205 191.744 141.225C191.73 141.246 191.713 141.264 191.692 141.278C191.672 141.292 191.649 141.302 191.624 141.307C191.6 141.312 191.575 141.313 191.551 141.308C190.487 141.232 189.423 141.44 188.467 141.912L188.419 141.927Z" fill="#E8705A"/>
</g>
<path d="M192.704 127.856C192.103 127.137 191.599 126.342 191.202 125.493C190.78 124.565 190.422 123.609 190.133 122.632C189.918 121.81 189.593 121.02 189.168 120.285C188.772 119.684 188.935 119.137 189.209 118.223C189.474 117.376 189.655 116.505 189.751 115.623C189.753 115.573 189.736 115.524 189.704 115.486C189.672 115.447 189.627 115.422 189.578 115.414C189.527 115.413 189.478 115.43 189.44 115.462C189.401 115.494 189.376 115.539 189.369 115.588C189.29 116.448 189.119 117.296 188.859 118.119C188.581 119.066 188.377 119.749 188.873 120.494C189.273 121.213 189.583 121.978 189.796 122.773C190.087 123.767 190.449 124.739 190.88 125.681C191.291 126.556 191.81 127.375 192.424 128.121C192.724 128.487 192.939 128.757 192.897 128.885C192.805 129.275 190.613 130.377 187.727 130.595C187.702 130.597 187.678 130.604 187.656 130.615C187.634 130.626 187.615 130.642 187.599 130.661C187.583 130.679 187.571 130.701 187.563 130.725C187.555 130.748 187.552 130.773 187.554 130.797C187.562 130.846 187.587 130.889 187.624 130.921C187.661 130.953 187.708 130.97 187.757 130.97L188.413 130.888C189.685 130.741 190.928 130.404 192.099 129.889C192.642 130.15 192.583 130.536 192.58 130.578C192.57 130.626 192.579 130.676 192.606 130.717C192.632 130.758 192.674 130.788 192.722 130.798L192.787 130.79C192.826 130.784 192.863 130.767 192.892 130.74C192.921 130.713 192.941 130.677 192.949 130.639C192.971 130.45 192.94 130.259 192.859 130.088C192.778 129.916 192.651 129.771 192.492 129.667C192.813 129.519 193.073 129.263 193.225 128.943C193.327 128.634 193.08 128.369 192.704 127.856Z" fill="#1D1526"/>
<g style="mix-blend-mode:multiply">
<path d="M194.411 137.784C194.566 137.989 194.722 138.195 194.885 138.42C191.274 137.718 187.92 138.57 185.22 140.876C185.224 140.584 185.248 140.331 185.269 140.067C187.865 137.998 191.02 137.21 194.411 137.784Z" fill="#E8705A"/>
</g>
<path d="M146.672 96.498C148.333 92.9187 149.66 89.0467 152.331 86.1281C155.002 83.2096 159.575 81.5185 162.985 83.5233C165.349 84.9128 166.533 87.6451 167.403 90.243C168.146 92.462 168.711 95.1008 167.319 96.9826C165.221 99.8255 160.602 98.6845 157.55 100.444C154.498 102.203 153.809 106.397 151.436 109.049C149.256 111.483 145.886 112.39 142.714 113.179C141.915 111.396 141.115 109.612 140.312 107.827C139.154 105.285 139.127 105.509 141.221 103.973C143.738 102.129 145.385 99.275 146.672 96.498Z" fill="#FCAF9D"/>
<path d="M201.493 88.3295C199.43 84.9556 196.408 83.1699 193.42 80.575C189.402 77.0831 182.764 77.8018 179.058 79.678C175.199 81.6311 175.1 83.0273 174.801 84.4454C173.018 92.8774 187.018 92.3096 187.816 92.658C191.081 94.0789 195.022 99.0575 197.691 101.436C200.133 103.605 201.789 104.497 204.947 106.494C207.964 100.459 210.822 98.0343 210.822 97.1977C207.243 94.1941 205.136 94.2901 201.493 88.3295Z" fill="#FCAF9D"/>
<path d="M152.489 161.841C145.367 158.168 135.464 153.161 120.089 140.003C115.885 136.402 150.245 114.984 150.245 114.984L142.104 100.105C142.104 100.105 88.7813 131.148 96.2009 144.03C108.611 165.569 146.16 200.713 156.59 211.126C156.59 211.126 157 193.113 152.489 161.841Z" fill="#F0F0F9"/>
<path d="M205.254 169.057C208.022 167.384 233.716 143.168 234.879 139.465C236.116 135.551 197.938 104.179 197.938 104.179L205.666 91.0123C205.666 91.0123 256.294 121.586 258.033 134.547C259.703 147.003 227.089 196.051 217.943 213.047C217.949 213.033 199.93 199.096 205.254 169.057Z" fill="#F0F0F9"/>
<path d="M308.239 408.902C316.366 410.128 333.409 408.145 337.142 405.443C338.744 409.892 340.277 412.171 345.168 415.183C350.059 418.195 360.597 420.686 366.328 421.04C368.346 421.163 370.442 421.182 372.283 422.002C374.123 422.823 375.69 424.721 375.38 426.72C371.383 431.057 355.035 432.481 344.211 431.581C338.829 431.131 332.481 428.811 327.116 428.193C321.421 427.538 315.687 427.269 309.956 427.39C308.414 427.423 305.677 429.527 305.468 427.549C305.145 424.51 305.433 420.25 305.808 418.11C305.945 417.326 308.085 408.882 308.239 408.902Z" fill="#342A98"/>
<path d="M375.506 426.569C367.044 431.94 351.886 431.91 340.332 430.41C334.298 429.631 329.006 427.439 322.991 426.476C318.53 425.79 314.001 425.651 309.506 426.062C307.893 426.194 305.625 425.653 305.477 427.535C305.318 429.526 305.115 431.765 305.019 433.759C314.131 433.759 320.805 433.962 326.302 433.962C326.123 432.566 326.049 430.569 325.931 429.206C327.555 430.13 330.26 433.825 333.102 433.869C350.026 434.192 371.704 435.514 374.025 430.717C374.475 429.793 375.618 427.615 375.506 426.569Z" fill="#11151B"/>
<path d="M290.379 320.412C291.945 323.539 303.545 387.566 305.328 411.409C320.1 413.145 325.832 411.916 339.89 407.195C333.601 375.376 332.61 328.078 324.082 297.993C321.375 288.45 313.464 284.314 299.856 284.242C261.794 284.045 192.963 283.589 154.476 284.045C153.812 294.002 163.728 318.3 174.807 318.278C203.683 318.223 289.043 317.737 290.379 320.412Z" fill="#11151B"/>
<path d="M231.047 432.448C237.833 434.307 244.924 434.774 251.894 433.819C253.348 433.619 255.419 433.246 256.319 432.086C256.75 431.537 256.667 430.229 256.593 428.838C256.489 427.192 255.403 425.659 254.835 424.331C253.943 422.249 253.337 421.533 251.148 420.946C244.08 419.063 236.6 419.434 229.753 422.008C228.743 422.389 227.654 420.784 226.908 421.561C225.638 422.877 225.537 426.959 226.253 428.572C227.246 430.851 228.691 431.8 231.047 432.448Z" fill="#11151B"/>
<path d="M227.196 399.032C226.548 406.781 226.373 413.921 225.934 421.684C225.835 423.475 225.726 426.015 226.62 427.571C227.698 429.441 229.969 430.344 232.128 430.437C234.287 430.53 236.873 430.851 238.985 430.437C244.39 429.414 249.921 429.247 255.378 429.941C255.544 429.961 255.712 429.945 255.872 429.894C256.031 429.842 256.177 429.757 256.3 429.643C256.422 429.529 256.518 429.389 256.581 429.234C256.644 429.079 256.673 428.912 256.664 428.745C256.324 422.485 253.537 413.825 252.865 412.147C251.68 409.192 250.311 406.008 249.214 403.021C248.117 400.034 248.325 396.78 248.956 393.661H227.69C227.328 396.229 227.308 397.675 227.196 399.032Z" fill="#342A98"/>
<path d="M243.27 322.299C245.229 319.77 244.055 315.716 244.115 312.504C244.197 308.093 245.563 304.129 243.701 300.127C241.69 295.801 236.355 294.21 231.931 292.425C223.597 289.059 209.078 287.246 197.668 287.062C193.682 286.996 158.475 284.272 154.498 284.045C154.498 296.358 148.762 318.793 173.4 320.653C184.043 321.457 203.45 322.976 213.997 324.795C221.622 326.106 238.547 328.399 243.27 322.299Z" fill="#11151B"/>
<path d="M212.598 342.093L224.843 407.618C234.748 408.885 242.217 408.91 251.68 406.855C248.893 374.386 247.796 339.997 245.794 302.703C245.267 292.888 238.643 281.834 228.11 282.5C200.531 284.242 207.084 315.515 212.598 342.093Z" fill="#11151B"/>
<path d="M221.096 278.773H153.919V284.042H221.096V278.773Z" fill="#17124B"/>
<path d="M197.879 278.575H187.507V284.245H197.879V278.575Z" fill="#F2F6F8"/>
<path d="M164.545 278.515H163.311V284.242H164.545V278.515Z" fill="#342A98"/>
<path d="M177.641 278.515H176.406V284.242H177.641V278.515Z" fill="#342A98"/>
<path d="M205.036 278.515H203.801V284.242H205.036V278.515Z" fill="#342A98"/>
<path d="M216.572 278.515H215.338V284.242H216.572V278.515Z" fill="#342A98"/>
<path d="M191.219 326.043C190.267 325.33 177.962 318.382 166.767 317.298C155.71 316.231 146.82 323.361 136.91 319.55C126.999 315.74 121.59 308.74 120.498 298.18C119.146 285.106 123.241 275.185 122.572 267.161C122.281 263.763 121.51 259.755 120.715 256.285H117.972C117.972 256.285 118.633 267.65 119.313 275.673C119.993 283.696 115.887 293.618 117.239 306.694C118.337 317.255 123.743 328.638 133.654 332.443C143.564 336.247 156.278 329.763 166.158 330.948C174.198 331.913 177.13 337.501 189.172 339.155C196.488 340.159 194.79 328.718 191.219 326.043Z" fill="#6C64BA"/>
<path d="M170.981 275.149C170.835 275.398 170.636 275.612 170.4 275.776C170.163 275.941 169.893 276.051 169.609 276.101C169.357 276.15 169.098 276.15 168.846 276.101H168.824C168.364 276.01 168.018 275.75 167.969 275.371C167.146 268.654 163.114 257.725 151.236 256.881C149.826 256.78 148.409 256.849 147.015 257.086C139.77 258.288 126.84 263.944 123.726 267.864L118.954 267.913C118.954 267.913 126.483 255.419 140.815 253.128C143.729 252.662 146.85 251.282 150.69 251.282C163.857 251.282 169.461 265.806 171.162 272.678C171.425 273.802 171.304 274.598 170.981 275.149Z" fill="#17124B"/>
<path d="M168.509 273.303H158.634C160.494 281.532 157.537 297.603 153.941 320.576H163.816C169.179 286.437 170.021 279.993 168.509 273.303Z" fill="#A3B6D9"/>
<path d="M169.005 273.303H159.131C160.99 281.532 158.047 297.603 154.437 320.576H164.312C169.675 286.437 170.517 279.993 169.005 273.303Z" fill="#C9D6ED"/>
<path d="M170.981 275.149C170.835 275.398 170.637 275.612 170.4 275.776C170.163 275.941 169.893 276.052 169.609 276.101H168.847L159.449 276.134L159.117 271.874L155.669 262.603L147.012 257.092L140.813 253.134L140.857 251.288H150.688C163.854 251.288 169.458 265.812 171.159 272.683C171.425 273.802 171.304 274.598 170.981 275.149Z" fill="#E8E2FF"/>
<path d="M161.328 272.694C162.291 276.589 158.28 276.718 158.116 275.377C157.293 268.659 153.258 257.731 141.383 256.886C131.753 256.198 120.863 265.664 118.935 267.919C117.837 268.881 115.616 264.627 117.289 262.084C117.289 262.084 127.959 251.29 140.86 251.288C154.023 251.285 159.63 265.809 161.328 272.694Z" fill="#AEAAD6"/>
<path d="M164.943 320.288H153.639V325.146H164.943V320.288Z" fill="#D5E1F7"/>
<path d="M166.441 322.716C166.441 324.057 165.772 325.144 164.943 325.144C164.115 325.144 163.446 324.046 163.446 322.716C163.446 321.386 164.115 320.288 164.943 320.288C165.772 320.288 166.441 321.38 166.441 322.716Z" fill="#D5E1F7"/>
<path d="M155.137 322.716C155.137 324.057 154.467 325.144 153.639 325.144C152.811 325.144 152.141 324.046 152.141 322.716C152.141 321.386 152.811 320.288 153.639 320.288C154.467 320.288 155.137 321.38 155.137 322.716Z" fill="#A3B6D9"/>
<path d="M351.538 251.609H221.729L233.234 170.053H363.042L351.538 251.609Z" fill="#B6C6E4"/>
<path d="M229.654 172.829L219.063 247.933C218.998 248.39 219.032 248.856 219.163 249.299C219.294 249.741 219.518 250.151 219.821 250.499C220.124 250.848 220.498 251.127 220.918 251.319C221.338 251.51 221.794 251.609 222.256 251.609C223.036 251.612 223.791 251.333 224.38 250.823C224.97 250.312 225.354 249.605 225.463 248.833L236.056 173.729C236.121 173.272 236.086 172.806 235.955 172.364C235.824 171.921 235.6 171.512 235.297 171.164C234.995 170.815 234.621 170.536 234.201 170.344C233.781 170.153 233.325 170.053 232.863 170.053C232.083 170.05 231.329 170.33 230.739 170.84C230.149 171.35 229.763 172.057 229.654 172.829Z" fill="#DFEAFD"/>
<path d="M358.938 172.829L348.35 247.933C348.286 248.39 348.32 248.856 348.452 249.299C348.583 249.742 348.807 250.151 349.11 250.499C349.413 250.848 349.787 251.127 350.208 251.319C350.628 251.51 351.084 251.609 351.546 251.609C352.324 251.609 353.075 251.328 353.662 250.818C354.248 250.308 354.631 249.603 354.739 248.833L365.332 173.729C365.397 173.272 365.362 172.806 365.231 172.363C365.1 171.92 364.875 171.511 364.573 171.163C364.27 170.814 363.895 170.535 363.475 170.343C363.055 170.152 362.599 170.053 362.137 170.053C361.358 170.052 360.606 170.333 360.018 170.843C359.43 171.353 359.047 172.058 358.938 172.829Z" fill="#91B0DE"/>
<g style="mix-blend-mode:multiply">
<path d="M284.328 207.528L276.151 251.609H302.155L292.195 207.528H284.328Z" fill="#C6D1E6"/>
</g>
<path d="M283.099 267.011H305.622C310.985 267.011 315.903 263.475 318.789 257.547C321.674 251.619 322.017 244.301 319.721 237.937L304.574 207.819C303.954 206.708 302.986 206.025 301.938 205.956H285.261C285.222 206.749 285.23 207.281 284.611 207.407L297.917 246.86C297.039 259.849 287.655 264.213 287.655 264.213L283.099 267.011ZM301.894 222.722C304.851 221.679 308.25 223.685 309.487 227.196C310.724 230.707 309.328 234.399 306.371 235.441C303.414 236.484 300.015 234.478 298.778 230.967C297.541 227.456 298.937 223.761 301.894 222.722Z" fill="#91B0DE"/>
<path d="M282.825 267.011H259.301C259.172 267.011 259.095 266.827 259.166 266.687C259.233 266.533 259.338 266.398 259.472 266.297C259.607 266.196 259.765 266.132 259.932 266.111L282.863 264.575C288.604 264.575 300.438 253.625 295.377 239.534C288.196 219.548 285.192 210.362 284.328 207.528C283.922 206.206 285.518 205.402 285.897 206.461L297.198 237.94C302.023 251.365 294.672 267.011 282.825 267.011Z" fill="#DFEAFD"/>
<path d="M304.396 235.441C307.353 234.399 308.746 230.707 307.509 227.196C306.632 224.699 304.659 222.966 302.531 222.546C305.323 221.976 308.338 223.934 309.487 227.196C310.724 230.707 309.328 234.399 306.371 235.441C305.531 235.734 304.628 235.794 303.757 235.614C303.974 235.572 304.188 235.514 304.396 235.441Z" fill="#6B8EA3"/>
<path d="M432.317 267.01H138.257V277.664H432.317V267.01Z" fill="#403D72"/>
<path d="M138.254 267.01H9.29346V277.664H138.254V267.01Z" fill="#58549C"/>
<path d="M92.0859 277.667L53.0225 433.106H46.656L78.4778 277.667H92.0859Z" fill="#DFEAFD"/>
<path d="M86.0622 277.667L83.8953 288.261H123.197L118.904 277.667H86.0622Z" fill="#B6C6E4"/>
<path d="M328.411 277.667L289.348 433.106H282.984L314.806 277.667H328.411Z" fill="#DFEAFD"/>
<path d="M332.045 277.667L292.982 433.106H286.618L318.44 277.667H332.045Z" fill="#B6C6E4"/>
<path d="M123.546 277.667L118.016 288.261H356.302L353.82 277.667H123.546Z" fill="#B6C6E4"/>
<path d="M345.08 277.667L384.144 433.106H390.51L358.688 277.667H345.08Z" fill="#768BB1"/>
<path d="M349.524 277.667L388.59 433.106H394.954L363.132 277.667H349.524Z" fill="#DFEAFD"/>
<path d="M110.511 277.667L149.574 433.106H155.938L124.116 277.667H110.511Z" fill="#768BB1"/>
<path d="M114.955 277.667L154.018 433.106H160.382L128.56 277.667H114.955Z" fill="#DFEAFD"/>
<path d="M252.473 263.008V262.954H179.805V267.024H252.473V266.969C253.296 266.969 253.982 266.083 253.982 264.989C253.982 263.894 253.307 263.008 252.473 263.008Z" fill="#C6DCF7"/>
<path d="M147.459 266.967C147.425 266.967 147.391 266.959 147.36 266.945C147.329 266.931 147.301 266.91 147.279 266.884C147.257 266.858 147.241 266.827 147.231 266.794C147.222 266.761 147.22 266.726 147.226 266.692C147.3 266.221 147.591 265.39 148.663 265.39L179.761 262.948L178.886 266.599L147.459 266.967Z" fill="#DCEFFA"/>
<path d="M179.805 267.024C180.64 267.024 181.316 266.113 181.316 264.989C181.316 263.865 180.64 262.954 179.805 262.954C178.97 262.954 178.293 263.865 178.293 264.989C178.293 266.113 178.97 267.024 179.805 267.024Z" fill="#DCEFFA"/>
<path d="M124.133 250.103H50.4226C49.5612 250.103 50.5707 250.799 50.5707 251.661V265.444C50.5705 265.518 50.576 265.591 50.5871 265.664C50.6388 266.036 50.8234 266.377 51.1067 266.623C51.3901 266.87 51.7531 267.005 52.1287 267.005H124.133C124.509 267.005 124.872 266.87 125.156 266.623C125.44 266.377 125.625 266.036 125.677 265.664C125.688 265.591 125.694 265.518 125.694 265.444V251.661C125.694 251.456 125.653 251.253 125.575 251.064C125.496 250.874 125.381 250.703 125.237 250.558C125.092 250.413 124.919 250.298 124.73 250.22C124.541 250.142 124.338 250.102 124.133 250.103Z" fill="#848B98"/>
<g style="mix-blend-mode:multiply">
<path d="M125.677 265.664H50.5864C50.6381 266.036 50.8227 266.376 51.106 266.623C51.3894 266.87 51.7524 267.005 52.128 267.005H124.132C124.508 267.005 124.872 266.87 125.155 266.623C125.439 266.377 125.624 266.036 125.677 265.664Z" fill="#F2F6F8"/>
</g>
<path opacity="0.2" d="M125.677 251.433H50.5869C50.6911 250.676 49.731 250.105 50.5183 250.105L124.133 250.092C124.509 250.091 124.872 250.227 125.156 250.473C125.44 250.72 125.625 251.061 125.677 251.433Z" fill="white"/>
<path d="M120.997 252.687H85.3269V264.418H120.997V252.687Z" fill="#F2F6F8"/>
<path d="M120.995 252.687H116.943V264.418H120.995V252.687Z" fill="#F2F6F8"/>
<path d="M112.48 252.687H112.027V264.418H112.48V252.687Z" fill="#F2F6F8"/>
<path d="M107.765 252.687H107.313V264.418H107.765V252.687Z" fill="#F2F6F8"/>
<path d="M103.05 252.687H102.597V264.418H103.05V252.687Z" fill="#F2F6F8"/>
<path d="M98.332 252.687H97.8794V264.418H98.332V252.687Z" fill="#F2F6F8"/>
<path d="M93.6164 252.687H93.1638V264.418H93.6164V252.687Z" fill="#F2F6F8"/>
<path d="M67.8814 253.88C66.9591 253.88 66.0575 254.153 65.2907 254.666C64.5239 255.178 63.9262 255.906 63.5732 256.758C63.2203 257.61 63.1279 258.548 63.3079 259.453C63.4878 260.357 63.9319 261.188 64.5841 261.84C65.2362 262.492 66.0671 262.937 66.9717 263.116C67.8762 263.296 68.8138 263.204 69.6659 262.851C70.518 262.498 71.2463 261.9 71.7586 261.134C72.271 260.367 72.5445 259.465 72.5445 258.543C72.5445 257.306 72.0532 256.12 71.1787 255.246C70.3042 254.371 69.1181 253.88 67.8814 253.88Z" fill="white"/>
<path d="M67.8815 254.692C67.1181 254.692 66.3718 254.918 65.7369 255.342C65.102 255.766 64.607 256.368 64.3143 257.073C64.0217 257.779 63.9446 258.555 64.0927 259.303C64.2408 260.052 64.6076 260.74 65.1466 261.281C65.6857 261.822 66.3728 262.19 67.1213 262.341C67.8697 262.491 68.6459 262.416 69.3519 262.125C70.0578 261.835 70.6617 261.341 71.0874 260.708C71.5131 260.074 71.7414 259.328 71.7436 258.565C71.7451 258.057 71.6462 257.553 71.4528 257.084C71.2593 256.614 70.9751 256.187 70.6163 255.827C70.2575 255.467 69.8313 255.182 69.362 254.987C68.8927 254.792 68.3896 254.692 67.8815 254.692Z" fill="#11151B"/>
<path d="M20.01 267.005H52.2406C53.3597 267.109 54.317 266.029 54.317 264.866V252.069C54.3233 251.583 54.1484 251.112 53.8264 250.748C53.5044 250.384 53.0584 250.153 52.5752 250.1L19.9031 249.902C19.6644 249.902 19.6123 250.13 19.6123 250.295V251.118C19.6123 251.257 19.84 251.425 19.9744 251.441H39.79L38.9671 265.675L20.1253 265.817C19.9689 265.817 19.7467 265.933 19.7467 266.092V266.679C19.7447 266.755 19.7701 266.83 19.8184 266.89C19.8666 266.95 19.9346 266.991 20.01 267.005Z" fill="#848B98"/>
<path d="M52.5699 252.804V264.295C52.5699 265.118 51.4233 265.905 50.6223 265.828H20.8523L20.8907 251.452H51.0091C51.714 251.515 52.5699 252.067 52.5699 252.804Z" fill="#F2F6F8"/>
<path d="M112.047 233.17H38.3336C37.4723 233.17 38.4844 233.869 38.4844 234.731V248.514C38.4802 248.587 38.4802 248.659 38.4844 248.731C38.5393 249.102 38.7262 249.441 39.011 249.686C39.2957 249.93 39.659 250.064 40.0343 250.061H112.039C112.415 250.062 112.778 249.926 113.062 249.68C113.346 249.433 113.531 249.092 113.583 248.72C113.594 248.648 113.6 248.576 113.599 248.503V234.731C113.599 234.318 113.436 233.922 113.145 233.63C112.854 233.337 112.459 233.172 112.047 233.17Z" fill="#FEE7C9"/>
<g style="mix-blend-mode:multiply">
<path d="M113.591 248.731H38.498C38.5525 249.1 38.7375 249.437 39.0193 249.681C39.3012 249.925 39.6613 250.06 40.0341 250.061H112.038C112.414 250.064 112.778 249.931 113.063 249.687C113.349 249.442 113.536 249.103 113.591 248.731Z" fill="#F2F6F8"/>
</g>
<path opacity="0.2" d="M113.591 234.511H38.498C38.605 233.754 37.6449 233.186 38.4322 233.186L112.047 233.17C112.423 233.17 112.786 233.305 113.07 233.552C113.354 233.798 113.539 234.139 113.591 234.511Z" fill="white"/>
<path d="M108.911 235.756H73.2412V247.488H108.911V235.756Z" fill="#F2F6F8"/>
<path d="M108.909 235.756H104.857V247.488H108.909V235.756Z" fill="#FEE7C9"/>
<path d="M100.394 235.756H99.9419V247.488H100.394V235.756Z" fill="#F2F6F8"/>
<path d="M95.6796 235.756H95.2271V247.488H95.6796V235.756Z" fill="#F2F6F8"/>
<path d="M90.9611 235.756H90.5085V247.488H90.9611V235.756Z" fill="#F2F6F8"/>
<path d="M86.2463 235.756H85.7937V247.488H86.2463V235.756Z" fill="#F2F6F8"/>
<path d="M81.5307 235.756H81.0781V247.488H81.5307V235.756Z" fill="#F2F6F8"/>
<path d="M55.7957 236.95C54.8734 236.95 53.9719 237.223 53.205 237.736C52.4382 238.248 51.8405 238.976 51.4875 239.828C51.1346 240.68 51.0422 241.618 51.2222 242.523C51.4021 243.427 51.8462 244.258 52.4984 244.91C53.1505 245.562 53.9814 246.006 54.886 246.186C55.7905 246.366 56.7281 246.274 57.5802 245.921C58.4323 245.568 59.1606 244.97 59.673 244.204C60.1854 243.437 60.4589 242.535 60.4589 241.613C60.4589 240.376 59.9676 239.19 59.0931 238.316C58.2185 237.441 57.0325 236.95 55.7957 236.95Z" fill="white"/>
<path d="M55.7954 237.759C55.0308 237.758 54.2831 237.985 53.6471 238.409C53.0111 238.834 52.5153 239.437 52.2225 240.144C51.9296 240.85 51.8528 241.627 52.0019 242.377C52.1509 243.127 52.5191 243.816 53.0597 244.357C53.6004 244.898 54.2893 245.266 55.0393 245.415C55.7893 245.564 56.5666 245.487 57.273 245.194C57.9793 244.901 58.5829 244.405 59.0074 243.769C59.4318 243.133 59.6581 242.386 59.6576 241.621C59.6576 241.114 59.5577 240.612 59.3636 240.143C59.1695 239.675 58.885 239.249 58.5264 238.89C58.1677 238.532 57.742 238.247 57.2734 238.053C56.8048 237.859 56.3026 237.759 55.7954 237.759Z" fill="#11151B"/>
<path d="M7.9412 250.061H40.1717C41.2909 250.166 42.2482 249.088 42.2482 247.925V235.139C42.2551 234.653 42.0804 234.182 41.7583 233.818C41.4362 233.453 40.9897 233.222 40.5063 233.17L7.83422 232.972C7.59557 232.972 7.54346 233.2 7.54346 233.362V234.185C7.54346 234.327 7.76839 234.492 7.90554 234.508H27.7211L26.8982 248.745L8.05641 248.887C7.90006 248.887 7.67787 249 7.67787 249.162V249.751C7.67868 249.826 7.70545 249.897 7.75354 249.954C7.80164 250.011 7.86803 250.049 7.9412 250.061Z" fill="#FEE7C9"/>
<path d="M40.4817 235.866V247.357C40.4817 248.18 39.3379 248.967 38.5369 248.888H8.76416L8.8053 234.511H38.9237C39.6286 234.585 40.4817 235.134 40.4817 235.866Z" fill="#F2F6F8"/>
<path d="M123.118 216.262H49.4072C48.5459 216.262 49.5553 216.959 49.5553 217.82V231.607C49.5552 231.679 49.5607 231.752 49.5718 231.823C49.624 232.196 49.8092 232.536 50.093 232.783C50.3768 233.029 50.7402 233.165 51.1161 233.165H123.118C123.494 233.165 123.857 233.029 124.141 232.783C124.425 232.536 124.61 232.196 124.662 231.823C124.673 231.752 124.679 231.679 124.678 231.607V217.82C124.678 217.615 124.638 217.412 124.56 217.223C124.481 217.034 124.366 216.862 124.221 216.717C124.076 216.573 123.904 216.458 123.715 216.38C123.525 216.302 123.323 216.262 123.118 216.262Z" fill="#58549C"/>
<g style="mix-blend-mode:multiply">
<path d="M124.662 231.823H49.5715C49.6238 232.195 49.8089 232.536 50.0927 232.783C50.3766 233.029 50.7399 233.165 51.1159 233.164H123.117C123.493 233.165 123.857 233.029 124.141 232.783C124.424 232.536 124.609 232.195 124.662 231.823Z" fill="#F2F6F8"/>
</g>
<path opacity="0.2" d="M124.662 217.603H49.5715C49.6757 216.846 48.7157 216.276 49.5029 216.276L123.117 216.262C123.493 216.262 123.857 216.397 124.14 216.644C124.424 216.89 124.609 217.231 124.662 217.603Z" fill="white"/>
<path d="M119.982 218.849H84.312V230.58H119.982V218.849Z" fill="#F2F6F8"/>
<path d="M119.98 218.849H115.928V230.58H119.98V218.849Z" fill="#AEAAD6"/>
<path d="M111.465 218.849H111.013V230.58H111.465V218.849Z" fill="#F2F6F8"/>
<path d="M106.75 218.849H106.298V230.58H106.75V218.849Z" fill="#F2F6F8"/>
<path d="M102.035 218.849H101.582V230.58H102.035V218.849Z" fill="#F2F6F8"/>
<path d="M97.3171 218.849H96.8645V230.58H97.3171V218.849Z" fill="#F2F6F8"/>
<path d="M92.6015 218.849H92.1489V230.58H92.6015V218.849Z" fill="#F2F6F8"/>
<path d="M66.8663 220.039C65.944 220.039 65.0424 220.313 64.2756 220.825C63.5087 221.337 62.911 222.066 62.5581 222.918C62.2051 223.77 62.1128 224.707 62.2927 225.612C62.4727 226.516 62.9168 227.347 63.5689 228C64.2211 228.652 65.052 229.096 65.9565 229.276C66.8611 229.456 67.7987 229.363 68.6508 229.01C69.5028 228.657 70.2311 228.06 70.7435 227.293C71.2559 226.526 71.5294 225.624 71.5294 224.702C71.5294 223.465 71.0381 222.279 70.1636 221.405C69.2891 220.53 68.103 220.039 66.8663 220.039Z" fill="white"/>
<path d="M66.8666 220.851C66.1027 220.851 65.356 221.078 64.7209 221.502C64.0857 221.926 63.5907 222.53 63.2984 223.235C63.0061 223.941 62.9296 224.718 63.0786 225.467C63.2276 226.216 63.5955 226.904 64.1356 227.444C64.6757 227.984 65.3639 228.352 66.1131 228.501C66.8623 228.65 67.6388 228.574 68.3446 228.282C69.0503 227.989 69.6535 227.494 70.0779 226.859C70.5022 226.224 70.7288 225.477 70.7288 224.713C70.7288 223.689 70.3218 222.707 69.5975 221.982C68.8732 221.258 67.8909 220.851 66.8666 220.851Z" fill="#11151B"/>
<path d="M19.0034 233.164H51.234C52.3531 233.269 53.3104 232.188 53.3104 231.028V218.242C53.3168 217.756 53.1419 217.285 52.8198 216.921C52.4978 216.557 52.0518 216.326 51.5686 216.273L18.8965 216.075C18.6578 216.075 18.6057 216.303 18.6057 216.468V217.291C18.6057 217.431 18.8334 217.598 18.9678 217.614H38.7834L37.9605 231.848L19.1214 231.99C18.9651 231.99 18.7401 232.106 18.7401 232.265V232.852C18.7413 232.926 18.7682 232.998 18.8162 233.055C18.8641 233.112 18.9303 233.151 19.0034 233.164Z" fill="#AEAAD6"/>
<path d="M51.5552 218.956V230.446C51.5552 231.269 50.4086 232.056 49.6077 231.979H19.8376L19.8788 217.603H49.9972C50.6994 217.675 51.5552 218.226 51.5552 218.956Z" fill="#F2F6F8"/>
<path d="M350.693 261.201L331.618 258.162C332.849 256.93 334.665 257.1 336.958 256.867L350.693 261.201Z" fill="#848B98"/>
<path d="M337.507 233.137L330.205 232.671C330.241 232.618 330.282 232.569 330.328 232.525C330.328 232.509 330.347 232.509 330.347 232.509C330.896 231.807 331.551 231.447 332.703 231.231C333.321 231.104 333.946 231.02 334.574 230.978L337.507 233.137Z" fill="#848B98"/>
<path d="M342.59 250.731L336.113 250.21L331.343 249.831C331.686 249.357 332.145 248.979 332.676 248.734C333.359 248.429 334.276 248.268 335.694 248.141L336.396 248.416L342.59 250.731Z" fill="#848B98"/>
<path d="M431.337 258.784C430.956 257.468 429.933 256.088 428.91 254.714L413.722 258.005L429.579 259.788L431.337 258.784Z" fill="#848B98"/>
<path d="M431.823 238.963C431.823 238.963 426.674 235.172 418.004 233.968L386.185 236.887L430.092 240.187L431.823 238.963Z" fill="#848B98"/>
<path d="M353.913 222.453C353.812 227.001 353.011 262.471 352.906 267.014H331.618C331.618 266.931 331.618 258.263 331.618 258.178C334.383 258.178 347.099 260.403 348.545 260.716C347.099 260.304 334.045 257.572 331.618 257.353C331.527 254.744 331.437 252.262 331.343 249.831C332.869 249.302 338.261 250.075 339.765 250.3C337.48 249.834 334.506 248.929 331.327 248.537C331.075 243.267 330.715 238.05 330.156 232.723C330.139 232.652 330.211 232.58 330.318 232.525C330.318 232.509 330.337 232.509 330.337 232.509C331.091 232.111 333.971 232.004 336.308 232.723C333.84 230.866 331.763 231.242 329.999 231.014C329.794 229.569 330.208 228.973 328.806 222.448C330.929 222.519 354.08 222.437 353.913 222.453Z" fill="#FAFAFF"/>
<path d="M353.926 222.458C385.594 222.458 404.916 222.458 433.551 222.458C432.87 228.529 432.154 231.025 431.823 235.943C428.394 235.219 397.151 235.965 393.231 236.898C416.925 235.493 430.059 237.578 431.823 238.974C431.529 244.43 431.384 250.155 431.337 256.082C428.61 255.613 419.638 257.215 415.559 258.112C424.252 256.702 430.311 257.857 431.337 258.795C431.337 260.611 431.82 265.052 431.823 267.024H352.906L353.926 222.458Z" fill="#E8E2FF"/>
<path d="M342.929 237.948C346.567 239.128 350.119 240.555 353.561 242.219C353.586 241.396 353.586 241.396 353.6 240.897C350.094 240.247 347.134 238.733 342.929 237.948Z" fill="#848B98"/>
<path d="M345.607 254.16C349.905 255.613 349.996 256.148 353.2 257.725C359.966 256.381 366.816 255.497 373.701 255.078C365.714 255.117 359.986 255.38 353.268 256.406C349.766 255.742 349.807 254.947 345.607 254.16Z" fill="#848B98"/>
<path d="M331.006 228.227C339.169 229.571 344.145 230.515 352.061 233.73C342.45 230.805 339.896 230.345 331.006 228.227Z" fill="#848B98"/>
<path d="M383.855 248.844C396.827 246.8 404.798 245.744 418.333 246.649C402.387 247.028 398.308 247.609 383.855 248.844Z" fill="#848B98"/>
<path d="M333.716 242.79C340.165 243.851 344.095 244.597 350.35 247.137C342.757 244.828 340.738 244.466 333.716 242.79Z" fill="#848B98"/>
<path d="M356.955 232.918C363.264 238.593 366.909 244.833 368.81 250.396C390.598 237.946 404.003 231.744 429.348 226.963L356.955 232.918Z" fill="#848B98"/>
<path d="M356.955 232.918C363.264 238.593 366.909 243.399 368.81 248.964C390.598 236.511 404.159 231.708 429.505 226.932L356.955 232.918Z" fill="#FAFAFF"/>
<path d="M108.009 167.919L114.82 167.497C114.784 167.449 114.745 167.404 114.702 167.362C114.702 167.358 114.701 167.354 114.697 167.351C114.694 167.348 114.69 167.346 114.686 167.346C114.165 166.693 113.561 166.356 112.491 166.155C111.916 166.037 111.333 165.958 110.747 165.919L108.009 167.919Z" fill="#848B98"/>
<path d="M95.6653 184.106L109.301 183.831L113.745 183.48C113.427 183.037 113 182.684 112.505 182.457C111.868 182.183 111.012 182.021 109.685 181.908L109.032 182.158L95.6653 184.106Z" fill="#848B98"/>
<path d="M12.478 173.136C12.478 173.136 17.2783 169.6 25.3702 168.473L55.0388 171.194L14.0909 174.28L12.478 173.136Z" fill="#848B98"/>
<path d="M113.616 186.999C113.66 185.809 113.704 184.64 113.745 183.486C112.324 182.992 107.296 183.711 105.897 183.922C108.023 183.486 110.796 182.649 113.762 182.276C113.998 177.363 114.332 172.497 114.859 167.532C114.875 167.466 114.809 167.401 114.708 167.348C114.708 167.344 114.706 167.34 114.703 167.337C114.7 167.334 114.696 167.332 114.691 167.332C113.987 166.964 111.301 166.863 109.123 167.532C111.422 165.801 113.361 166.161 115.01 165.941C115.202 164.592 114.897 163.821 116.203 157.74C114.077 157.74 84.9654 157.723 85.1217 157.74C85.1848 160.518 85.525 175.687 85.7828 186.999H113.616Z" fill="#E8E2FF"/>
<path d="M48.4581 171.197C26.3658 169.888 14.121 171.831 12.4779 173.136C12.7165 177.574 12.8455 182.216 12.9058 186.999H85.7714L85.1021 157.745C55.5762 157.745 37.5628 157.745 10.865 157.745C11.4986 163.404 12.1679 165.733 12.4779 170.319C15.6735 169.631 44.8044 170.327 48.4581 171.197Z" fill="#FAFAFF"/>
<path d="M95.3584 172.187C91.9686 173.287 88.6583 174.617 85.4506 176.17C85.4287 175.402 85.4287 175.402 85.4177 174.939C88.6764 174.33 91.4359 172.92 95.3584 172.187Z" fill="#848B98"/>
<path d="M114.071 163.341C106.462 164.592 94.2225 165.261 86.8438 168.254C95.8025 165.527 105.782 165.316 114.071 163.341Z" fill="#848B98"/>
<path d="M57.2002 182.347C45.1062 180.441 37.6726 179.456 25.0547 180.292C39.9191 180.663 43.7237 181.192 57.2002 182.347Z" fill="#848B98"/>
<path d="M111.545 176.919C105.532 177.909 94.2637 178.386 88.4375 180.759C95.5172 178.6 104.997 178.469 111.545 176.919Z" fill="#848B98"/>
<path d="M116.117 197.182L122.926 196.745C122.893 196.696 122.854 196.651 122.81 196.611C122.81 196.607 122.809 196.602 122.806 196.599C122.803 196.596 122.798 196.595 122.794 196.595C122.273 195.939 121.669 195.604 120.6 195.404C120.025 195.284 119.443 195.205 118.858 195.168L116.117 197.182Z" fill="#848B98"/>
<path d="M103.774 213.368L117.407 213.094L121.854 212.756C121.534 212.315 121.106 211.962 120.611 211.733C119.975 211.459 119.119 211.297 117.794 211.185L117.141 211.437L103.774 213.368Z" fill="#848B98"/>
<path d="M20.5837 202.396C20.5837 202.396 25.384 198.86 33.476 197.733L63.1445 200.451L22.2049 203.543L20.5837 202.396Z" fill="#848B98"/>
<path d="M121.724 216.262C121.768 215.071 121.811 213.899 121.853 212.745C120.432 212.252 115.404 212.973 114.002 213.181C116.131 212.748 118.904 211.909 121.869 211.536C122.105 206.62 122.44 201.757 122.967 196.792C122.986 196.726 122.917 196.657 122.819 196.608C122.819 196.604 122.817 196.6 122.814 196.596C122.811 196.593 122.806 196.592 122.802 196.592C122.094 196.221 119.412 196.12 117.231 196.792C119.53 195.058 121.469 195.42 123.12 195.198C123.312 193.849 122.926 193.295 124.218 187.211C122.243 187.276 93.0595 186.983 93.2214 186.997C93.2817 189.778 93.6246 204.944 93.8797 216.259L121.724 216.262Z" fill="#D4CCED"/>
<path d="M56.5665 200.457C34.4742 199.151 22.2294 201.093 20.5835 202.396C20.8222 206.834 20.9511 211.478 21.0115 216.262H93.8798L93.2105 187.008C63.6846 187.008 45.6712 187.008 18.9734 187.008C19.607 192.667 20.2736 194.993 20.5835 199.582C23.7819 198.893 52.9101 199.59 56.5665 200.457Z" fill="#E8E2FF"/>
<path d="M103.464 201.447C100.075 202.548 96.7644 203.879 93.5561 205.43C93.5369 204.664 93.5369 204.664 93.5232 204.198C96.7846 203.592 99.5414 202.179 103.464 201.447Z" fill="#848B98"/>
<path d="M122.177 192.601C114.568 193.854 102.331 194.521 94.9495 197.514C103.911 194.79 113.89 194.579 122.177 192.601Z" fill="#848B98"/>
<path d="M65.3061 211.607C53.2012 209.704 45.795 208.716 33.1606 209.555C48.0278 209.912 51.8297 210.455 65.3061 211.607Z" fill="#848B98"/>
<path d="M119.65 206.173C113.64 207.163 102.369 207.643 96.5432 210.013C103.623 207.863 113.103 207.742 119.65 206.173Z" fill="#848B98"/>
<path d="M106.563 109.394L113.374 108.958C113.338 108.91 113.299 108.865 113.256 108.823C113.256 108.819 113.254 108.815 113.251 108.812C113.248 108.809 113.244 108.807 113.24 108.807C112.719 108.154 112.115 107.817 111.045 107.616C110.47 107.498 109.887 107.419 109.301 107.38L106.563 109.394Z" fill="#848B98"/>
<path d="M94.2202 125.58L107.856 125.306L112.299 124.955C111.982 124.512 111.555 124.159 111.06 123.932C110.423 123.658 109.567 123.496 108.24 123.383L107.587 123.633L94.2202 125.58Z" fill="#848B98"/>
<path d="M11.0295 114.611C11.0295 114.611 15.8326 111.075 23.9217 109.948L53.5903 112.669L12.6452 115.755L11.0295 114.611Z" fill="#848B98"/>
<path d="M112.176 128.474C112.219 127.284 112.263 126.115 112.304 124.96C110.884 124.467 105.856 125.185 104.457 125.397C106.583 124.96 109.356 124.124 112.321 123.751C112.557 118.838 112.892 113.972 113.418 109.01C113.435 108.941 113.369 108.875 113.267 108.823C113.267 108.819 113.266 108.815 113.262 108.812C113.259 108.809 113.255 108.807 113.251 108.807C112.546 108.439 109.86 108.338 107.682 109.01C109.981 107.276 111.92 107.638 113.569 107.416C113.761 106.067 113.457 105.296 114.762 99.2145C112.636 99.2145 83.5247 99.2008 83.681 99.2145C83.7441 101.993 84.0843 117.162 84.3421 128.474H112.176Z" fill="#E8E2FF"/>
<path d="M47.0122 112.672C24.9199 111.363 12.6751 113.305 11.0293 114.611C11.2707 119.049 11.3996 123.69 11.4599 128.474H84.3256L83.648 99.22C54.1222 99.22 36.1087 99.22 9.41089 99.22C10.0445 104.879 10.7138 107.208 11.021 111.794C14.2276 111.105 43.3585 111.813 47.0122 112.672Z" fill="#FAFAFF"/>
<path d="M93.9129 113.662C90.5235 114.762 87.2132 116.093 84.0051 117.645C83.9831 116.877 83.9831 116.877 83.9722 116.413C87.2309 115.804 89.9904 114.394 93.9129 113.662Z" fill="#848B98"/>
<path d="M112.626 104.816C105.017 106.069 92.7772 106.736 85.3984 109.729C94.3462 107.002 104.336 106.791 112.626 104.816Z" fill="#848B98"/>
<path d="M55.7546 123.822C43.6606 121.916 36.227 120.931 23.6091 121.768C38.4736 122.127 42.2781 122.67 55.7546 123.822Z" fill="#848B98"/>
<path d="M110.099 118.397C104.087 119.387 92.8184 119.864 86.9922 122.237C94.0719 120.075 103.552 119.955 110.099 118.397Z" fill="#848B98"/>
<path d="M114.672 138.656L121.481 138.22C121.448 138.171 121.409 138.126 121.365 138.086C121.365 138.081 121.364 138.077 121.361 138.074C121.357 138.071 121.353 138.069 121.349 138.069C120.828 137.414 120.224 137.079 119.154 136.879C118.58 136.759 117.998 136.68 117.413 136.643L114.672 138.656Z" fill="#848B98"/>
<path d="M102.328 154.843L115.961 154.569L120.405 154.22C120.085 153.778 119.657 153.426 119.162 153.197C118.526 152.923 117.67 152.761 116.345 152.648L115.692 152.901L102.328 154.843Z" fill="#848B98"/>
<path d="M19.1382 143.871C19.1382 143.871 23.9385 140.338 32.0304 139.208L61.7044 141.932L20.7538 145.017L19.1382 143.871Z" fill="#848B98"/>
<path d="M120.279 157.737C120.322 156.546 120.365 155.374 120.407 154.22C118.987 153.727 113.959 154.448 112.557 154.657C114.686 154.223 117.459 153.384 120.424 153.011C120.66 148.095 120.994 143.232 121.521 138.267C121.54 138.201 121.472 138.133 121.373 138.083C121.373 138.079 121.371 138.075 121.368 138.072C121.365 138.068 121.361 138.067 121.357 138.067C120.649 137.696 117.966 137.598 115.785 138.267C118.084 136.533 120.023 136.895 121.675 136.673C121.867 135.324 121.48 134.77 122.772 128.686C120.797 128.751 91.614 128.458 91.7758 128.472C91.8362 131.253 92.179 146.419 92.4341 157.734L120.279 157.737Z" fill="#D4CCED"/>
<path d="M55.1209 141.932C33.0286 140.626 20.7837 142.568 19.1379 143.871C19.3766 148.312 19.5055 152.953 19.5658 157.737H92.426L91.7567 128.483C62.2308 128.483 44.2174 128.483 17.5195 128.483C18.1532 134.141 18.8197 136.467 19.1297 141.057C22.3363 140.368 51.4644 141.062 55.1209 141.932Z" fill="#E8E2FF"/>
<path d="M102.027 142.922C98.6379 144.024 95.3277 145.355 92.1189 146.905C92.0997 146.139 92.0997 146.139 92.0859 145.673C95.3392 145.067 98.0959 143.654 102.027 142.922Z" fill="#848B98"/>
<path d="M120.731 134.076C113.122 135.329 100.886 135.996 93.5042 138.991C102.466 136.264 112.45 136.053 120.731 134.076Z" fill="#848B98"/>
<path d="M63.8598 153.082C51.7658 151.178 44.335 150.191 31.7144 151.03C46.5815 151.387 50.3834 151.93 63.8598 153.082Z" fill="#848B98"/>
<path d="M118.21 147.653C112.201 148.644 100.929 149.124 95.1033 151.494C102.178 149.338 111.657 149.217 118.21 147.653Z" fill="#848B98"/>
<path d="M471.096 143.412C449.698 148.447 427.532 149.444 405.76 146.351C395.961 133.438 392.439 127.857 384.631 115.169C406.03 120.206 428.197 121.203 449.97 118.109C461.991 130.62 464.156 133.961 471.096 143.412Z" fill="#E8E2FF"/>
<path d="M5.8313 29.6666C22.7553 15.0028 46.6832 5.18842 69.1529 4C72.0726 12.2826 73.4779 18.2974 75.8268 27.0422C52.7897 29.5081 40.4216 36.8103 27.8556 53.4086C15.9527 41.4518 14.2669 39.2334 5.8313 29.6666Z" fill="#E8E2FF"/>
<path d="M312.093 25.9594C333.907 31.5842 355.711 45.7322 369.534 63.6024C364.347 70.726 360.174 75.3086 354.28 82.2303C339.064 64.6215 325.949 58.5732 305.028 57.6534C308.126 41.0206 308.995 38.367 312.093 25.9594Z" fill="#E8E2FF"/>
<path d="M174.873 158.184L180.826 168.544C181.808 187.287 183.78 225.791 183.643 255.484L191.872 263.025L199.613 255.855L186.786 167.691L190.788 153.524C189.299 156.253 187.321 157.655 184.386 158.316C181.451 158.977 174.873 158.184 174.873 158.184Z" fill="#342A98"/>
<path d="M162.373 142.969C162.255 144.299 165.665 147.05 167.982 149.083C170.3 151.115 181.132 157.586 181.132 157.586L175.539 172.283C175.539 172.283 163.037 160.639 157.403 152.136L162.373 142.969Z" fill="#FAFAFF"/>
</svg>
