<svg width="476" height="652" viewBox="0 0 476 652" fill="none" xmlns="http://www.w3.org/2000/svg">
<g clip-path="url(#clip0_4631_45016)">
<path d="M412.002 136.702V260.809H375.91" stroke="#342A98" stroke-width="3" stroke-miterlimit="10" stroke-linecap="round"/>
<path d="M429.833 80.3823V128.181C429.833 129.301 429.613 130.41 429.187 131.445C428.76 132.48 428.135 133.42 427.347 134.211C426.558 135.002 425.623 135.63 424.593 136.057C423.564 136.485 422.461 136.704 421.347 136.702H305.607C304.493 136.704 303.389 136.485 302.359 136.057C301.329 135.63 300.392 135.003 299.603 134.212C298.814 133.42 298.187 132.481 297.759 131.446C297.331 130.411 297.11 129.302 297.108 128.181V80.3823C297.11 79.2616 297.331 78.1523 297.759 77.1175C298.187 76.0828 298.814 75.143 299.603 74.3518C300.392 73.5605 301.329 72.9333 302.359 72.506C303.389 72.0787 304.493 71.8596 305.607 71.8613H421.359C422.472 71.8613 423.574 72.0817 424.602 72.5099C425.63 72.9381 426.564 73.5658 427.351 74.357C428.138 75.1483 428.762 76.0876 429.188 77.1214C429.614 78.1553 429.833 79.2633 429.833 80.3823Z" fill="#AEAAD6"/>
<path d="M429.833 80.3823V83.4555H297.096V80.3823C297.097 79.2606 297.319 78.1502 297.748 77.1146C298.177 76.0791 298.804 75.1387 299.595 74.3473C300.385 73.5559 301.323 72.9289 302.355 72.5024C303.387 72.0758 304.492 71.858 305.607 71.8613H421.359C422.472 71.8613 423.574 72.0817 424.602 72.5099C425.63 72.9381 426.564 73.5658 427.351 74.357C428.138 75.1483 428.762 76.0876 429.188 77.1215C429.614 78.1553 429.833 79.2633 429.833 80.3823Z" fill="#342A98"/>
<path d="M424.213 128.956V81.8681C424.213 80.0867 422.777 78.6426 421.006 78.6426L305.936 78.6426C304.164 78.6426 302.728 80.0867 302.728 81.8681V128.956C302.728 130.737 304.164 132.181 305.936 132.181H421.006C422.777 132.181 424.213 130.737 424.213 128.956Z" fill="#E8E2FF"/>
<path d="M335.785 103.516V99.7976L350.66 93.2475V97.5262L340.475 101.615L340.613 101.393V101.921L340.475 101.699L350.66 105.788V110.066L335.785 103.516ZM364.552 87.6588L357.58 113.563H353.702L360.675 87.6588H364.552ZM382.472 103.516L367.597 110.066V105.788L377.782 101.699L377.644 101.921V101.393L377.782 101.615L367.597 97.5262V93.2475L382.472 99.7976V103.516Z" fill="#342A98"/>
<path d="M405.296 75.3916C405.296 75.7722 405.146 76.1372 404.878 76.4063C404.611 76.6754 404.248 76.8266 403.869 76.8266C403.491 76.8266 403.128 76.6754 402.86 76.4063C402.593 76.1372 402.442 75.7722 402.442 75.3916C402.442 75.0111 402.593 74.6461 402.86 74.377C403.128 74.1078 403.491 73.9567 403.869 73.9567C404.248 73.9567 404.611 74.1078 404.878 74.377C405.146 74.6461 405.296 75.0111 405.296 75.3916Z" fill="#E8E2FF"/>
<path d="M412.002 75.3916C412.004 75.6785 411.922 75.9596 411.765 76.1994C411.609 76.4391 411.385 76.6266 411.122 76.7381C410.859 76.8497 410.569 76.8802 410.289 76.8257C410.009 76.7713 409.751 76.6345 409.549 76.4325C409.346 76.2306 409.208 75.9726 409.151 75.6915C409.095 75.4103 409.122 75.1186 409.231 74.8533C409.339 74.588 409.524 74.3612 409.761 74.2015C409.998 74.0419 410.277 73.9567 410.562 73.9567C410.751 73.955 410.938 73.9909 411.112 74.0622C411.287 74.1336 411.445 74.239 411.579 74.3724C411.713 74.5059 411.819 74.6646 411.892 74.8396C411.964 75.0145 412.002 75.2021 412.002 75.3916Z" fill="#E8E2FF"/>
<path d="M417.268 76.8266C418.056 76.8266 418.695 76.1842 418.695 75.3916C418.695 74.5991 418.056 73.9567 417.268 73.9567C416.48 73.9567 415.841 74.5991 415.841 75.3916C415.841 76.1842 416.48 76.8266 417.268 76.8266Z" fill="#E8E2FF"/>
<path d="M148.611 542.993V546.333" stroke="#342A98" stroke-width="3" stroke-miterlimit="10" stroke-linecap="round"/>
<path d="M156.289 549.673H313.614" stroke="#342A98" stroke-width="3" stroke-miterlimit="10" stroke-linecap="round"/>
<path d="M317.44 541.634V505.455" stroke="#342A98" stroke-width="3" stroke-miterlimit="10" stroke-linecap="round"/>
<path d="M48.2276 136.715H21.228V480" stroke="#342A98" stroke-width="3" stroke-miterlimit="10" stroke-linecap="round"/>
<path d="M433.786 202.255H400.498C398.882 202.251 397.334 201.603 396.193 200.454C395.052 199.304 394.411 197.745 394.411 196.121C394.411 194.498 395.052 192.941 396.193 191.793C397.335 190.645 398.883 190 400.498 190H433.786C435.4 190 436.949 190.645 438.09 191.793C439.232 192.941 439.873 194.498 439.873 196.121C439.873 197.745 439.232 199.304 438.091 200.454C436.95 201.603 435.402 202.251 433.786 202.255Z" fill="#E8E2FF"/>
<path d="M407.953 196.095C407.953 196.479 407.84 196.855 407.628 197.173C407.416 197.492 407.115 197.74 406.764 197.886C406.412 198.033 406.026 198.071 405.653 197.997C405.28 197.922 404.938 197.738 404.668 197.467C404.399 197.196 404.215 196.851 404.141 196.474C404.066 196.098 404.104 195.707 404.25 195.353C404.396 194.998 404.643 194.696 404.96 194.483C405.276 194.271 405.648 194.157 406.028 194.157C406.538 194.157 407.027 194.361 407.388 194.724C407.749 195.087 407.953 195.581 407.953 196.095Z" fill="#AEAAD6" stroke="#AEAAD6"/>
<path d="M419.066 196.095C419.066 196.479 418.953 196.855 418.741 197.173C418.529 197.492 418.228 197.74 417.877 197.886C417.526 198.033 417.139 198.071 416.767 197.997C416.394 197.922 416.051 197.738 415.781 197.467C415.512 197.196 415.328 196.851 415.254 196.474C415.179 196.098 415.218 195.707 415.364 195.353C415.51 194.998 415.757 194.696 416.073 194.483C416.39 194.271 416.761 194.157 417.141 194.157C417.651 194.157 418.14 194.361 418.501 194.724C418.863 195.087 419.066 195.581 419.066 196.095Z" fill="#AEAAD6" stroke="#AEAAD6"/>
<path d="M430.129 196.095C430.129 196.479 430.015 196.855 429.804 197.173C429.592 197.492 429.291 197.74 428.94 197.886C428.588 198.033 428.202 198.071 427.829 197.997C427.456 197.922 427.113 197.738 426.844 197.467C426.575 197.196 426.391 196.851 426.316 196.474C426.242 196.098 426.28 195.707 426.426 195.353C426.572 194.998 426.819 194.696 427.136 194.483C427.452 194.271 427.824 194.157 428.204 194.157C428.456 194.157 428.706 194.207 428.94 194.304C429.173 194.402 429.385 194.544 429.564 194.724L429.918 194.371L429.564 194.724C429.743 194.904 429.885 195.117 429.982 195.353C430.079 195.588 430.129 195.841 430.129 196.095Z" fill="#AEAAD6" stroke="#AEAAD6"/>
<path d="M174.375 60.2545H141.087C140.287 60.2545 139.494 60.0958 138.755 59.7874C138.015 59.479 137.344 59.027 136.778 58.4572C136.213 57.8875 135.765 57.2113 135.46 56.4672C135.155 55.7231 134.998 54.9258 135 54.1209C135 53.3171 135.157 52.5212 135.463 51.7785C135.769 51.0359 136.218 50.3611 136.783 49.7928C137.348 49.2244 138.019 48.7735 138.758 48.4659C139.496 48.1583 140.288 48 141.087 48H174.375C175.99 48 177.538 48.6449 178.679 49.7928C179.821 50.9407 180.462 52.4975 180.462 54.1209C180.464 54.9258 180.308 55.7231 180.003 56.4672C179.697 57.2113 179.249 57.8875 178.684 58.4572C178.119 59.027 177.447 59.479 176.708 59.7874C175.968 60.0958 175.176 60.2545 174.375 60.2545Z" fill="#E8E2FF"/>
<path d="M148.543 54.1209L148.543 54.1235C148.545 54.5079 148.433 54.884 148.222 55.2041C148.012 55.5242 147.712 55.7738 147.361 55.9217C147.009 56.0696 146.623 56.1093 146.249 56.0359C145.876 55.9625 145.532 55.7791 145.262 55.5087C144.991 55.2382 144.806 54.8928 144.731 54.516C144.656 54.1392 144.694 53.7484 144.839 53.3933C144.985 53.0383 145.232 52.7351 145.549 52.522C145.865 52.309 146.238 52.1954 146.618 52.1954L146.621 52.1954C146.872 52.1941 147.122 52.2427 147.354 52.3387C147.587 52.4346 147.799 52.576 147.978 52.7548C148.157 52.9336 148.299 53.1463 148.396 53.3808C148.493 53.6153 148.543 53.8668 148.543 54.1209Z" fill="#AEAAD6" stroke="#AEAAD6"/>
<path d="M159.655 54.1209L159.655 54.1235C159.657 54.5079 159.546 54.884 159.335 55.2041C159.125 55.5242 158.825 55.7738 158.473 55.9217C158.122 56.0696 157.735 56.1093 157.362 56.0359C156.989 55.9625 156.645 55.7791 156.374 55.5087C156.104 55.2382 155.919 54.8928 155.844 54.516C155.769 54.1392 155.806 53.7484 155.952 53.3933C156.098 53.0383 156.345 52.7351 156.662 52.522C156.978 52.309 157.35 52.1954 157.731 52.1954L157.733 52.1954C157.985 52.1941 158.234 52.2427 158.467 52.3387C158.7 52.4346 158.912 52.576 159.091 52.7548C159.27 52.9336 159.412 53.1463 159.509 53.3808C159.605 53.6153 159.655 53.8668 159.655 54.1209Z" fill="#AEAAD6" stroke="#AEAAD6"/>
<path d="M170.768 54.1209L170.768 54.1235C170.77 54.5079 170.659 54.884 170.448 55.2041C170.237 55.5242 169.937 55.7738 169.586 55.9217C169.235 56.0696 168.848 56.1093 168.475 56.0359C168.101 55.9625 167.758 55.7791 167.487 55.5087C167.217 55.2382 167.032 54.8928 166.957 54.516C166.881 54.1392 166.919 53.7484 167.065 53.3933C167.211 53.0383 167.458 52.7351 167.774 52.522C168.091 52.309 168.463 52.1954 168.844 52.1954L168.846 52.1954C169.098 52.1941 169.347 52.2427 169.58 52.3387C169.813 52.4346 170.025 52.576 170.204 52.7548C170.382 52.9336 170.524 53.1463 170.621 53.3808C170.718 53.6153 170.768 53.8668 170.768 54.1209Z" fill="#AEAAD6" stroke="#AEAAD6"/>
<path d="M364.19 353.397C369.014 353.829 373.763 352.47 378.081 354.667C385.733 358.644 392.118 364.705 396.507 372.159C400.895 379.612 403.109 388.156 402.896 396.815C410.355 396.049 417.834 398.054 423.923 402.454C430.004 407.035 434.229 413.675 435.819 421.146C442.853 420.981 449.849 427.318 452.614 433.845C455.38 440.373 455.342 447.687 454.85 454.748H255.321C255.321 454.748 252.883 425.54 279.883 421.286C279.883 421.286 281.007 397.387 298.636 392.485C316.265 387.583 327.126 403.482 327.126 403.482C327.126 403.482 326.76 369.589 344.806 371.227C344.818 371.189 350.299 352.153 364.19 353.397Z" fill="#E8E2FF"/>
<path d="M92.5659 250.091C86.1412 250.472 79.9548 252.673 74.722 256.441C68.0488 261.357 62.5872 267.748 58.7578 275.121C54.9285 282.495 52.8337 290.654 52.6349 298.97C46.4787 298.272 40.2455 298.905 34.3522 300.826C28.4589 302.747 23.0415 305.911 18.4624 310.107C14.038 314.332 10.5781 319.472 8.32149 325.172C6.0649 330.872 5.0654 336.997 5.392 343.124H182.455C182.455 343.124 181.192 311.44 142.246 304.659C142.246 304.595 142.524 246.853 92.5659 250.091Z" fill="#E8E2FF"/>
<path d="M86.6939 261.343L81.2006 260.631C80.9577 260.6 80.7294 260.497 80.5433 260.337C80.3572 260.177 80.2214 259.966 80.1524 259.73C79.7024 258.191 79.0796 256.708 78.296 255.311C78.1801 255.096 78.128 254.853 78.1459 254.61C78.1639 254.367 78.251 254.134 78.3971 253.939L81.7815 249.545C81.9634 249.307 82.0557 249.012 82.0418 248.712C82.0279 248.412 81.9088 248.127 81.7057 247.907L77.753 243.92C77.5342 243.707 77.2463 243.581 76.9424 243.564C76.6384 243.548 76.3388 243.643 76.0987 243.831L71.7293 247.247C71.5356 247.394 71.304 247.481 71.0622 247.499C70.8203 247.517 70.5784 247.465 70.3654 247.348C68.9626 246.563 67.4755 245.941 65.9328 245.494C65.6996 245.426 65.4909 245.291 65.3319 245.107C65.1729 244.922 65.0702 244.695 65.0362 244.453L64.4048 238.929C64.3676 238.619 64.2182 238.334 63.9853 238.128C63.7524 237.922 63.4522 237.809 63.1419 237.811H57.5349C57.2266 237.809 56.928 237.92 56.6953 238.123C56.4627 238.327 56.3122 238.609 56.2721 238.916L55.5649 244.453C55.5309 244.695 55.4282 244.922 55.2692 245.107C55.1101 245.291 54.9015 245.426 54.6683 245.494C53.1394 245.957 51.6657 246.587 50.2736 247.374C50.0606 247.49 49.8187 247.543 49.5768 247.525C49.3349 247.507 49.1034 247.419 48.9097 247.272L44.5403 243.869C44.3026 243.682 44.0065 243.588 43.7054 243.602C43.4044 243.616 43.1182 243.737 42.8986 243.945L38.9459 247.933C38.7357 248.15 38.61 248.436 38.5915 248.739C38.5729 249.042 38.6628 249.341 38.8449 249.583L42.2419 253.977C42.3899 254.171 42.4794 254.403 42.4995 254.646C42.5197 254.889 42.4697 255.133 42.3556 255.349C41.5792 256.761 40.9608 258.256 40.5118 259.806C40.4438 260.041 40.3099 260.25 40.1262 260.41C39.9425 260.57 39.7169 260.673 39.4763 260.708L33.9829 261.406C33.6749 261.444 33.3914 261.594 33.1864 261.828C32.9815 262.062 32.8694 262.364 32.8716 262.676V268.302C32.8686 268.61 32.9771 268.909 33.177 269.142C33.3768 269.376 33.6543 269.528 33.9577 269.572L39.4763 270.283C39.7169 270.317 39.9425 270.42 40.1262 270.58C40.3099 270.74 40.4438 270.95 40.5118 271.184C40.9608 272.734 41.5792 274.229 42.3556 275.642C42.4697 275.857 42.5197 276.101 42.4995 276.344C42.4794 276.587 42.3899 276.82 42.2419 277.013L38.8449 281.407C38.6629 281.645 38.5707 281.94 38.5845 282.24C38.5984 282.54 38.7175 282.825 38.9207 283.045L42.9365 286.931C43.1545 287.141 43.4399 287.265 43.741 287.281C44.0421 287.297 44.339 287.205 44.5782 287.02L48.9476 283.604C49.1728 283.443 49.4415 283.354 49.7179 283.35C49.9313 283.347 50.1412 283.404 50.3241 283.515C51.7294 284.292 53.216 284.909 54.7567 285.356C54.9917 285.426 55.2015 285.562 55.3607 285.749C55.5199 285.937 55.6216 286.166 55.6533 286.41L56.3479 291.922C56.3851 292.231 56.5344 292.517 56.7673 292.723C57.0002 292.929 57.3004 293.042 57.6107 293.039H63.1419C63.4503 293.042 63.7489 292.931 63.9815 292.727C64.2142 292.524 64.3647 292.242 64.4048 291.934L65.112 286.41C65.1437 286.166 65.2453 285.937 65.4045 285.749C65.5637 285.562 65.7736 285.426 66.0086 285.356C67.5468 284.914 69.0297 284.296 70.4285 283.515C70.643 283.396 70.8874 283.342 71.1318 283.36C71.3762 283.378 71.6101 283.467 71.805 283.617L76.1745 287.033C76.4126 287.214 76.7069 287.305 77.0052 287.288C77.3034 287.272 77.5863 287.15 77.8035 286.944L81.7183 282.931C81.9266 282.712 82.0501 282.425 82.0663 282.122C82.0825 281.819 81.9904 281.52 81.8067 281.28L78.4097 276.886C78.2637 276.691 78.1765 276.459 78.1586 276.215C78.1406 275.972 78.1928 275.729 78.3087 275.515C79.0902 274.104 79.7089 272.609 80.1524 271.057C80.2205 270.823 80.3544 270.613 80.538 270.453C80.7217 270.293 80.9474 270.19 81.1879 270.156L86.6813 269.457C86.9893 269.42 87.2728 269.27 87.4778 269.035C87.6828 268.801 87.7948 268.499 87.7926 268.187V262.613C87.7952 262.302 87.6849 262.002 87.4825 261.768C87.2802 261.534 86.9996 261.383 86.6939 261.343ZM60.3384 277.978C57.8672 277.981 55.4507 277.246 53.3949 275.867C51.3391 274.488 49.7363 272.527 48.7894 270.231C47.8426 267.936 47.5942 265.409 48.0757 262.972C48.5572 260.534 49.747 258.295 51.4944 256.538C53.2418 254.781 55.4684 253.585 57.8923 253.1C60.3162 252.616 62.8285 252.866 65.1112 253.818C67.3938 254.77 69.3443 256.382 70.7157 258.449C72.0871 260.517 72.8178 262.947 72.8153 265.432C72.8086 268.757 71.492 271.945 69.1535 274.296C66.8151 276.648 63.6454 277.972 60.3384 277.978Z" fill="#AEAAD6"/>
<g filter="url(#filter0_dddd_4631_45016)">
<path d="M364.519 125.591H104.373C98.0893 125.591 92.9951 130.713 92.9951 137.032V490C92.9951 496.319 98.0893 501.442 104.373 501.442H364.519C370.803 501.442 375.897 496.319 375.897 490V137.032C375.897 130.713 370.803 125.591 364.519 125.591Z" fill="#FAFAFF"/>
</g>
<path d="M375.91 137.02V153.401H93.0337V137.02C93.0337 133.989 94.2311 131.082 96.3626 128.938C98.494 126.795 101.385 125.591 104.399 125.591H364.544C367.559 125.591 370.45 126.795 372.581 128.938C374.713 131.082 375.91 133.989 375.91 137.02Z" fill="#AEAAD6"/>
<path d="M333.112 140.334C333.115 141.053 332.905 141.756 332.51 142.355C332.114 142.954 331.551 143.422 330.891 143.699C330.232 143.975 329.505 144.049 328.804 143.91C328.102 143.772 327.457 143.427 326.951 142.919C326.445 142.412 326.099 141.765 325.959 141.06C325.819 140.355 325.889 139.624 326.162 138.96C326.435 138.296 326.898 137.728 327.493 137.328C328.087 136.928 328.786 136.715 329.5 136.715C330.456 136.715 331.373 137.096 332.05 137.774C332.727 138.453 333.109 139.373 333.112 140.334Z" fill="#FC1264"/>
<path d="M343.088 143.966C345.083 143.966 346.7 142.34 346.7 140.334C346.7 138.328 345.083 136.702 343.088 136.702C341.094 136.702 339.477 138.328 339.477 140.334C339.477 142.34 341.094 143.966 343.088 143.966Z" fill="#342A98"/>
<path d="M356.677 143.966C358.672 143.966 360.289 142.34 360.289 140.334C360.289 138.328 358.672 136.702 356.677 136.702C354.682 136.702 353.065 138.328 353.065 140.334C353.065 142.34 354.682 143.966 356.677 143.966Z" fill="#41B883"/>
<path d="M356.677 190.343H112.229V290.449H356.677V190.343Z" fill="#E8E2FF"/>
<g filter="url(#filter1_dddd_4631_45016)">
<path d="M234.887 170.038L234.817 169.966C225.45 179.997 210.507 188.227 194.514 191.722C194.514 192.791 194.483 198.709 194.361 225.982C194.2 262.367 228.825 280.146 234.202 282.874C267.423 259.596 254.991 188.338 234.887 170.038Z" fill="#41B883"/>
<path d="M235.28 170.429V282.356C243.026 278.544 274.482 260.809 274.636 226.342C274.757 199.067 274.784 193.155 274.789 192.082C259.075 188.492 244.578 180.331 235.28 170.429Z" fill="#AAECCE"/>
<path d="M275.472 189.093C260.501 185.672 246.173 177.772 237.142 167.96L237.047 167.86L234.827 165.462L232.576 167.872C223.484 177.613 209.01 185.409 193.86 188.728L191.459 189.255L191.449 191.713C191.449 192.454 191.433 195.53 191.384 206.463L191.296 225.97C191.234 234.698 193.188 243.324 197.004 251.174C200.114 257.592 204.497 263.663 210.034 269.215C214.485 273.678 222.051 280.146 232.815 285.608L234.137 286.279L235.484 285.659C237.553 284.708 248.383 279.454 258.461 269.538C264.08 264.016 268.538 257.963 271.727 251.552C275.635 243.726 277.678 235.103 277.697 226.356C277.82 198.677 277.844 193.169 277.85 192.096L277.862 189.637L275.472 189.093ZM274.636 226.342C274.473 262.725 239.41 280.478 234.202 282.883C228.826 280.154 194.2 262.375 194.362 225.991C194.485 198.717 194.511 192.803 194.514 191.73C210.508 188.229 225.451 180.006 234.817 169.974L234.887 170.046C244.166 180.12 258.868 188.443 274.789 192.082C274.784 193.149 274.758 199.067 274.636 226.342Z" fill="white"/>
<path d="M234.257 276.381L233.637 276.06C226.972 272.556 220.86 268.087 215.5 262.799C204.748 252.096 199.329 239.738 199.391 226.057L199.524 195.936L200.536 195.674C213.475 192.338 225.279 186.208 233.772 178.415L234.673 177.59L235.686 178.491C244.114 186.326 255.828 192.538 268.698 195.978L269.706 196.247L269.57 226.37C269.511 240.052 263.979 252.358 253.135 262.965C247.866 268.068 241.894 272.39 235.4 275.8L234.257 276.381ZM202.225 198.031L202.098 226.068C202.04 238.995 207.191 250.707 217.41 260.878C222.41 265.807 228.086 270 234.267 273.329C240.477 270.056 246.19 265.917 251.237 261.037C261.544 250.96 266.799 239.295 266.864 226.368L266.977 198.319C254.51 194.833 243.115 188.809 234.668 181.242C226.174 188.731 214.734 194.651 202.225 198.031Z" fill="#F2FDF8"/>
</g>
<path d="M228.953 305.586H112.229V308.964H228.953V305.586Z" fill="#AEAAD6"/>
<path d="M228.953 322.552H112.229V325.93H228.953V322.552Z" fill="#AEAAD6"/>
<path d="M228.953 339.517H112.229V342.895H228.953V339.517Z" fill="#AEAAD6"/>
<path d="M228.953 356.496H112.229V359.874H228.953V356.496Z" fill="#AEAAD6"/>
<path d="M228.953 373.462H112.229V376.84H228.953V373.462Z" fill="#AEAAD6"/>
<path d="M123.696 233.418L117.861 239.958L123.696 247.374V233.418Z" fill="#342A98"/>
<path d="M346.701 233.418L352.535 239.958L346.701 247.374V233.418Z" fill="#342A98"/>
<path d="M356.677 312.138V312.672C356.677 317.599 353.28 321.561 349.1 321.561H245.13C240.938 321.561 237.553 317.561 237.553 312.672V312.138C237.553 307.224 240.95 303.249 245.13 303.249H349.087C350.062 303.25 351.025 303.471 351.903 303.897C353.388 304.682 354.622 305.871 355.467 307.329C356.311 308.786 356.73 310.453 356.677 312.138Z" fill="#E8E2FF"/>
<path d="M255.384 312.367C255.384 313.736 254.98 315.074 254.224 316.212C253.468 317.35 252.393 318.237 251.135 318.761C249.878 319.285 248.494 319.422 247.159 319.155C245.824 318.888 244.598 318.229 243.635 317.261C242.672 316.293 242.017 315.06 241.751 313.717C241.486 312.375 241.622 310.983 242.143 309.719C242.664 308.454 243.546 307.373 244.678 306.612C245.81 305.852 247.14 305.446 248.502 305.446C250.327 305.446 252.078 306.175 253.368 307.473C254.659 308.771 255.384 310.531 255.384 312.367Z" fill="#342A98"/>
<path d="M347.547 350.959H246.671C244.249 350.959 241.927 349.992 240.215 348.27C238.502 346.548 237.541 344.213 237.541 341.778C237.541 339.343 238.502 337.008 240.215 335.286C241.927 333.564 244.249 332.597 246.671 332.597H347.547C348.746 332.597 349.933 332.834 351.041 333.295C352.148 333.757 353.155 334.433 354.003 335.286C354.851 336.138 355.523 337.15 355.982 338.264C356.441 339.378 356.677 340.572 356.677 341.778C356.677 342.984 356.441 344.177 355.982 345.291C355.523 346.405 354.851 347.418 354.003 348.27C353.155 349.123 352.148 349.799 351.041 350.26C349.933 350.722 348.746 350.959 347.547 350.959Z" fill="#E8E2FF"/>
<path d="M255.384 341.778C255.384 343.147 254.98 344.485 254.224 345.623C253.468 346.761 252.393 347.648 251.135 348.172C249.878 348.696 248.494 348.833 247.159 348.566C245.824 348.299 244.598 347.64 243.635 346.672C242.672 345.704 242.017 344.471 241.751 343.128C241.486 341.786 241.622 340.394 242.143 339.129C242.664 337.865 243.546 336.784 244.678 336.023C245.81 335.263 247.14 334.857 248.502 334.857C250.327 334.857 252.078 335.586 253.368 336.884C254.659 338.182 255.384 339.942 255.384 341.778Z" fill="#342A98"/>
<path d="M347.547 380.383H246.671C245.471 380.383 244.282 380.145 243.174 379.683C242.065 379.22 241.058 378.543 240.21 377.689C239.362 376.835 238.69 375.822 238.232 374.706C237.774 373.591 237.539 372.396 237.541 371.189C237.541 368.754 238.502 366.418 240.215 364.697C241.927 362.975 244.249 362.007 246.671 362.007H347.547C348.746 362.007 349.933 362.245 351.041 362.706C352.148 363.168 353.155 363.844 354.003 364.697C354.851 365.549 355.523 366.561 355.982 367.675C356.441 368.789 356.677 369.983 356.677 371.189C356.677 373.625 355.715 375.962 354.004 377.685C352.292 379.409 349.969 380.379 347.547 380.383Z" fill="#E8E2FF"/>
<path d="M255.384 371.189C255.384 372.557 254.98 373.896 254.224 375.034C253.468 376.172 252.393 377.059 251.135 377.583C249.878 378.107 248.494 378.244 247.159 377.977C245.824 377.71 244.598 377.05 243.635 376.083C242.672 375.115 242.017 373.881 241.751 372.539C241.486 371.196 241.622 369.805 242.143 368.54C242.664 367.275 243.546 366.195 244.678 365.434C245.81 364.674 247.14 364.268 248.502 364.268C250.327 364.268 252.078 364.997 253.368 366.295C254.659 367.593 255.384 369.353 255.384 371.189Z" fill="#342A98"/>
<path d="M219.204 400.18H117.52C110.804 400.18 105.359 405.656 105.359 412.41V473.923C105.359 480.677 110.804 486.152 117.52 486.152H219.204C225.92 486.152 231.365 480.677 231.365 473.923V412.41C231.365 405.656 225.92 400.18 219.204 400.18Z" fill="#AEAAD6"/>
<path d="M351.386 400.18H249.702C242.985 400.18 237.541 405.656 237.541 412.41V473.923C237.541 480.677 242.985 486.152 249.702 486.152H351.386C358.102 486.152 363.547 480.677 363.547 473.923V412.41C363.547 405.656 358.102 400.18 351.386 400.18Z" fill="#AEAAD6"/>
<path d="M118.012 398.86V421.248L125.046 415.584L132.08 421.248V398.86H118.012Z" fill="#FDB42B"/>
<path d="M171.595 475.244H221.464V472.844H171.595V475.244Z" fill="#342A98"/>
<path d="M171.595 480.476H201.612V478.076H171.595V480.476Z" fill="#342A98"/>
<path d="M306.807 475.244H356.676V472.844H306.807V475.244Z" fill="#342A98"/>
<path d="M306.807 480.476H336.825V478.076H306.807V480.476Z" fill="#342A98"/>
<path d="M248.502 398.86V421.248L255.536 415.584L262.557 421.248V398.86H248.502Z" fill="#FDB42B"/>
<g style="mix-blend-mode:multiply" opacity="0.1" filter="url(#filter2_f_4631_45016)">
<path d="M161.858 459H100.85C96.5119 459 92.9951 462.536 92.9951 466.899V577.392C92.9951 581.755 96.5119 585.291 100.85 585.291H161.858C166.196 585.291 169.713 581.755 169.713 577.392V466.899C169.713 462.536 166.196 459 161.858 459Z" fill="#342A98"/>
</g>
<path d="M142.385 468.753H14.9899C6.71122 468.753 0 475.502 0 483.826V611.934C0 620.259 6.71122 627.007 14.9899 627.007H142.385C150.664 627.007 157.375 620.259 157.375 611.934V483.826C157.375 475.502 150.664 468.753 142.385 468.753Z" fill="#E8E2FF"/>
<path d="M142.385 468.753H14.9899C6.71122 468.753 0 475.502 0 483.826V602.181C0 610.506 6.71122 617.254 14.9899 617.254H142.385C150.664 617.254 157.375 610.506 157.375 602.181V483.826C157.375 475.502 150.664 468.753 142.385 468.753Z" fill="white"/>
<path d="M157.388 483.826V493.897H0V483.826C0.00334742 479.828 1.58545 475.993 4.39861 473.167C7.21177 470.34 11.0258 468.753 15.0025 468.753H142.385C146.362 468.753 150.176 470.34 152.989 473.167C155.802 475.993 157.385 479.828 157.388 483.826Z" fill="#E8E2FF"/>
<path d="M111.458 486.341C113.453 486.341 115.07 484.715 115.07 482.709C115.07 480.703 113.453 479.077 111.458 479.077C109.464 479.077 107.847 480.703 107.847 482.709C107.847 484.715 109.464 486.341 111.458 486.341Z" fill="#FC1264"/>
<path d="M125.046 486.341C127.04 486.341 128.658 484.715 128.658 482.709C128.658 480.703 127.04 479.077 125.046 479.077C123.051 479.077 121.434 480.703 121.434 482.709C121.434 484.715 123.051 486.341 125.046 486.341Z" fill="#342A98"/>
<path d="M142.246 482.709C142.246 483.427 142.035 484.129 141.638 484.727C141.241 485.324 140.677 485.789 140.017 486.064C139.357 486.339 138.631 486.411 137.93 486.271C137.229 486.131 136.586 485.785 136.081 485.277C135.576 484.769 135.232 484.122 135.092 483.417C134.953 482.713 135.025 481.983 135.298 481.319C135.571 480.655 136.034 480.088 136.628 479.689C137.222 479.29 137.92 479.077 138.635 479.077C139.593 479.077 140.511 479.46 141.189 480.141C141.866 480.822 142.246 481.746 142.246 482.709Z" fill="#41B883"/>
<path d="M146.136 620.328C156.618 620.328 165.116 611.782 165.116 601.241C165.116 590.7 156.618 582.155 146.136 582.155C135.653 582.155 127.155 590.7 127.155 601.241C127.155 611.782 135.653 620.328 146.136 620.328Z" fill="#342A98"/>
<path d="M155.203 604.53L142.575 591.831C142.538 591.794 142.495 591.765 142.447 591.745C142.4 591.725 142.348 591.715 142.297 591.715C142.245 591.715 142.194 591.725 142.146 591.745C142.099 591.765 142.055 591.794 142.019 591.831C141.983 591.868 141.954 591.912 141.934 591.959C141.915 592.007 141.905 592.059 141.905 592.111V610.372C141.906 610.45 141.929 610.526 141.971 610.591C142.014 610.657 142.074 610.708 142.145 610.74C142.22 610.771 142.303 610.778 142.382 610.76C142.462 610.742 142.533 610.699 142.587 610.638L147.639 605.203H154.963C155.016 605.205 155.068 605.196 155.117 605.177C155.166 605.158 155.21 605.129 155.248 605.092C155.286 605.056 155.316 605.012 155.336 604.963C155.357 604.915 155.367 604.862 155.367 604.81C155.36 604.754 155.342 604.701 155.314 604.653C155.286 604.605 155.248 604.563 155.203 604.53Z" fill="white"/>
<path d="M128.279 515.116H28.3506V518.672H128.279V515.116Z" fill="#AEAAD6"/>
<path d="M128.279 526.52H28.3506V530.075H128.279V526.52Z" fill="#AEAAD6"/>
<path d="M128.279 537.49H28.3506V541.045H128.279V537.49Z" fill="#AEAAD6"/>
<path d="M128.279 548.893H28.3506V552.449H128.279V548.893Z" fill="#AEAAD6"/>
<path d="M128.279 559.863H28.3506V563.419H128.279V559.863Z" fill="#AEAAD6"/>
<path d="M128.279 571.267H28.3506V574.823H128.279V571.267Z" fill="#AEAAD6"/>
<g style="mix-blend-mode:multiply" opacity="0.05" filter="url(#filter3_f_4631_45016)">
<path d="M139.708 125.591H92.9951V184.311H139.708V125.591Z" fill="#342A98"/>
</g>
<path d="M97.5798 35.502V89.2949H37.999V25H85.9996L97.5798 35.502Z" fill="#AEAAD6"/>
<path d="M97.5796 35.502L85.4185 38.1815L85.9994 25L97.5796 35.502Z" fill="#E8E2FF"/>
<path d="M83.4362 42.1055H42.6465V44.1627H83.4362V42.1055Z" fill="#E8E2FF"/>
<path opacity="0.2" d="M97.5795 53.6362H44.0981V89.2949H97.5795V53.6362Z" fill="#17124B"/>
<g filter="url(#filter4_dddd_4631_45016)">
<path d="M120.235 71.5671V145.374H48.228V57.1411H106.243L120.235 71.5671Z" fill="#FAFAFF"/>
</g>
<path d="M120.235 71.5671L105.536 75.2498L106.243 57.1411L120.235 71.5671Z" fill="#E8E2FF"/>
<path d="M110.561 80.6215H54.605V83.4534H110.561V80.6215Z" fill="#AEAAD6"/>
<path d="M110.561 96.4571H54.605V99.2889H110.561V96.4571Z" fill="#AEAAD6"/>
<path d="M110.561 112.293H54.605V115.125H110.561V112.293Z" fill="#AEAAD6"/>
<path d="M110.561 128.128H54.605V130.96H110.561V128.128Z" fill="#AEAAD6"/>
<path d="M450.834 419.077L446.338 418.505C446.139 418.479 445.953 418.396 445.8 418.265C445.648 418.134 445.536 417.962 445.479 417.769C445.119 416.502 444.619 415.28 443.989 414.124C443.889 413.949 443.842 413.749 443.856 413.547C443.869 413.346 443.942 413.153 444.065 412.994L446.843 409.413C447.004 409.226 447.093 408.987 447.093 408.74C447.093 408.492 447.004 408.253 446.843 408.067L443.535 404.841C443.362 404.661 443.128 404.553 442.88 404.539C442.632 404.524 442.388 404.605 442.196 404.765L438.622 407.559C438.463 407.681 438.273 407.755 438.073 407.77C437.874 407.786 437.674 407.743 437.498 407.647C436.356 407.004 435.144 406.492 433.887 406.124C433.694 406.072 433.521 405.963 433.39 405.811C433.26 405.66 433.178 405.472 433.154 405.273L432.586 400.765C432.553 400.514 432.431 400.284 432.243 400.116C432.055 399.949 431.814 399.854 431.563 399.85H427.004C426.756 399.854 426.518 399.947 426.333 400.113C426.147 400.278 426.027 400.505 425.994 400.752L425.425 405.273C425.4 405.471 425.317 405.658 425.187 405.809C425.057 405.961 424.885 406.07 424.693 406.124C423.43 406.483 422.214 406.99 421.069 407.635C420.894 407.734 420.693 407.778 420.493 407.763C420.293 407.747 420.102 407.671 419.945 407.546L416.384 404.765C416.194 404.604 415.95 404.521 415.702 404.532C415.454 404.544 415.219 404.65 415.045 404.828L411.812 408.079C411.633 408.255 411.524 408.491 411.508 408.742C411.492 408.993 411.569 409.241 411.724 409.438L414.502 413.019C414.627 413.177 414.702 413.369 414.717 413.571C414.733 413.772 414.689 413.973 414.59 414.149C413.951 415.302 413.447 416.525 413.088 417.794C413.034 417.987 412.926 418.16 412.775 418.291C412.625 418.422 412.439 418.505 412.241 418.53L407.746 419.102C407.5 419.135 407.275 419.256 407.11 419.443C406.946 419.629 406.853 419.869 406.849 420.118V424.715C406.85 424.961 406.941 425.199 407.103 425.384C407.266 425.568 407.49 425.687 407.733 425.718L412.241 426.302C412.439 426.328 412.625 426.411 412.775 426.542C412.926 426.673 413.034 426.846 413.088 427.039C413.447 428.304 413.951 429.523 414.59 430.671C414.689 430.847 414.733 431.048 414.717 431.249C414.702 431.451 414.627 431.643 414.502 431.801L411.686 435.319C411.548 435.505 411.48 435.735 411.494 435.967C411.508 436.199 411.603 436.419 411.762 436.588L414.994 439.852C415.168 440.03 415.402 440.136 415.649 440.15C415.897 440.164 416.14 440.085 416.333 439.928L419.907 437.134C420.089 436.996 420.31 436.92 420.538 436.919C420.712 436.921 420.881 436.969 421.031 437.058C422.18 437.691 423.396 438.194 424.655 438.557C424.847 438.614 425.019 438.726 425.149 438.879C425.279 439.033 425.362 439.221 425.388 439.42L425.956 443.928C425.986 444.178 426.105 444.408 426.291 444.576C426.477 444.744 426.716 444.838 426.966 444.843H431.525C431.774 444.842 432.013 444.749 432.199 444.583C432.385 444.418 432.505 444.189 432.535 443.941L433.104 439.42C433.132 439.22 433.217 439.031 433.35 438.878C433.482 438.725 433.655 438.613 433.849 438.557C435.104 438.194 436.316 437.692 437.46 437.058C437.635 436.961 437.834 436.916 438.034 436.929C438.233 436.943 438.424 437.014 438.584 437.134L442.146 439.928C442.338 440.084 442.58 440.164 442.827 440.152C443.073 440.14 443.307 440.038 443.484 439.865L446.73 436.601C446.906 436.426 447.012 436.192 447.026 435.943C447.04 435.694 446.961 435.449 446.805 435.255L444.027 431.661C443.905 431.502 443.832 431.31 443.817 431.109C443.801 430.909 443.843 430.708 443.939 430.531C444.578 429.383 445.082 428.164 445.442 426.899C445.498 426.708 445.607 426.537 445.757 426.406C445.907 426.275 446.091 426.191 446.288 426.163L450.783 425.591C451.031 425.561 451.26 425.441 451.427 425.254C451.594 425.067 451.688 424.826 451.693 424.575V420.08C451.687 419.838 451.599 419.606 451.442 419.423C451.285 419.24 451.07 419.118 450.834 419.077ZM429.29 432.652C427.271 432.654 425.297 432.055 423.617 430.929C421.938 429.803 420.628 428.201 419.854 426.326C419.08 424.452 418.876 422.388 419.268 420.397C419.66 418.406 420.631 416.576 422.058 415.14C423.484 413.704 425.302 412.725 427.282 412.328C429.262 411.931 431.314 412.134 433.179 412.91C435.044 413.686 436.639 415.001 437.76 416.689C438.882 418.377 439.481 420.361 439.481 422.391C439.478 425.109 438.403 427.715 436.493 429.638C434.583 431.561 431.993 432.645 429.29 432.652Z" fill="#AEAAD6"/>
<path d="M474.115 315.546L466.247 314.542C465.902 314.499 465.576 314.356 465.309 314.131C465.043 313.905 464.846 313.607 464.744 313.272C464.12 311.062 463.242 308.931 462.13 306.923C461.953 306.617 461.872 306.264 461.896 305.911C461.921 305.558 462.051 305.22 462.269 304.942L467.118 298.592C467.392 298.258 467.532 297.834 467.511 297.402C467.489 296.97 467.309 296.561 467.005 296.256L463.406 292.637L461.347 290.541C461.04 290.228 460.628 290.041 460.191 290.018C459.754 289.994 459.324 290.136 458.986 290.414L452.747 295.303C452.467 295.513 452.133 295.638 451.784 295.665C451.436 295.692 451.087 295.619 450.777 295.456C448.781 294.327 446.662 293.432 444.463 292.789C444.129 292.697 443.83 292.506 443.605 292.241C443.379 291.976 443.239 291.65 443.2 291.303L442.203 283.404C442.148 282.967 441.937 282.563 441.61 282.269C441.283 281.975 440.861 281.81 440.422 281.804H432.428C431.994 281.807 431.575 281.968 431.25 282.258C430.925 282.547 430.715 282.946 430.66 283.379L429.663 291.291C429.619 291.636 429.476 291.962 429.252 292.228C429.028 292.494 428.732 292.689 428.4 292.789C426.202 293.431 424.084 294.321 422.086 295.443C421.782 295.611 421.436 295.686 421.091 295.658C420.745 295.631 420.415 295.504 420.141 295.291L413.827 290.414C413.492 290.136 413.067 289.992 412.633 290.011C412.199 290.03 411.787 290.21 411.478 290.516L405.833 296.23C405.518 296.534 405.329 296.945 405.301 297.382C405.273 297.819 405.408 298.251 405.681 298.592L410.543 304.942C410.757 305.222 410.885 305.558 410.912 305.91C410.939 306.262 410.864 306.614 410.695 306.923C409.579 308.93 408.697 311.061 408.068 313.272C407.97 313.607 407.776 313.906 407.512 314.131C407.247 314.357 406.922 314.5 406.578 314.542L398.71 315.546C398.28 315.6 397.884 315.809 397.595 316.133C397.305 316.457 397.141 316.875 397.132 317.311V325.362C397.135 325.797 397.295 326.217 397.584 326.541C397.872 326.866 398.268 327.074 398.698 327.127L406.578 328.143C406.922 328.181 407.247 328.323 407.511 328.549C407.774 328.776 407.964 329.077 408.055 329.413C408.697 331.622 409.582 333.752 410.695 335.762C410.864 336.072 410.939 336.424 410.912 336.775C410.885 337.127 410.757 337.464 410.543 337.743L405.845 343.826L405.681 344.029C405.411 344.364 405.273 344.788 405.294 345.219C405.315 345.651 405.493 346.059 405.795 346.366L411.465 352.08C411.774 352.385 412.183 352.566 412.616 352.59C413.048 352.613 413.474 352.477 413.814 352.207L420.128 347.318C420.444 347.075 420.829 346.941 421.227 346.937C421.529 346.943 421.825 347.026 422.086 347.179C424.086 348.292 426.204 349.178 428.4 349.82C428.731 349.922 429.026 350.117 429.25 350.383C429.474 350.648 429.617 350.973 429.663 351.319L430.66 359.217C430.712 359.654 430.92 360.057 431.245 360.351C431.57 360.646 431.991 360.811 432.428 360.817H440.422C440.858 360.812 441.276 360.648 441.601 360.356C441.926 360.064 442.135 359.664 442.19 359.23L443.188 351.319C443.228 350.972 443.37 350.644 443.595 350.378C443.819 350.111 444.117 349.917 444.45 349.82C446.648 349.184 448.767 348.298 450.765 347.179C451.071 347.006 451.422 346.928 451.773 346.955C452.123 346.982 452.458 347.113 452.735 347.331L458.973 352.22C459.314 352.487 459.74 352.621 460.171 352.598C460.603 352.575 461.011 352.395 461.322 352.093L466.98 346.391C467.292 346.086 467.48 345.675 467.505 345.237C467.531 344.8 467.393 344.369 467.118 344.029L462.269 337.781C462.057 337.5 461.931 337.163 461.907 336.812C461.882 336.46 461.96 336.109 462.13 335.8C463.244 333.792 464.126 331.661 464.757 329.451C464.857 329.117 465.051 328.819 465.315 328.594C465.579 328.369 465.903 328.225 466.247 328.181L474.102 327.178C474.537 327.128 474.94 326.92 475.233 326.592C475.526 326.265 475.69 325.841 475.693 325.4V317.374C475.703 316.927 475.546 316.492 475.255 316.154C474.963 315.816 474.556 315.599 474.115 315.546ZM436.394 339.293C431.659 339.286 427.119 337.392 423.77 334.027C420.421 330.661 418.534 326.098 418.524 321.336C418.524 317.785 419.571 314.314 421.533 311.362C423.494 308.409 426.282 306.107 429.545 304.748C432.807 303.389 436.396 303.032 439.86 303.724C443.323 304.416 446.505 306.125 449.003 308.635C451.501 311.145 453.202 314.343 453.893 317.825C454.583 321.308 454.231 324.918 452.882 328.199C451.532 331.48 449.246 334.286 446.311 336.26C443.376 338.235 439.925 339.29 436.394 339.293Z" fill="#FC1264"/>
<path d="M475.681 317.374V325.425C475.677 325.866 475.513 326.29 475.22 326.618C474.927 326.945 474.525 327.154 474.089 327.203L466.234 328.206C465.891 328.251 465.567 328.394 465.302 328.619C465.038 328.845 464.844 329.142 464.744 329.476C464.113 331.687 463.232 333.817 462.118 335.826C461.947 336.134 461.869 336.485 461.894 336.837C461.919 337.189 462.045 337.526 462.257 337.807L467.118 344.093C467.393 344.433 467.531 344.864 467.505 345.301C467.48 345.738 467.292 346.15 466.98 346.455L461.322 352.157C461.011 352.459 460.603 352.638 460.171 352.662C459.74 352.685 459.314 352.551 458.973 352.284L452.735 347.395C452.458 347.176 452.123 347.046 451.773 347.018C451.422 346.991 451.071 347.069 450.765 347.242C448.767 348.361 446.648 349.247 444.45 349.884C444.117 349.981 443.819 350.175 443.595 350.442C443.37 350.708 443.228 351.035 443.188 351.382L442.19 359.294C442.135 359.728 441.926 360.128 441.601 360.42C441.276 360.711 440.858 360.875 440.422 360.881H432.428C431.991 360.875 431.57 360.709 431.245 360.415C430.92 360.121 430.712 359.718 430.66 359.281L429.663 351.382C429.617 351.037 429.474 350.712 429.25 350.446C429.026 350.181 428.731 349.985 428.4 349.884C426.204 349.242 424.086 348.356 422.086 347.242C421.824 347.089 421.529 347.006 421.227 347.001C420.829 347.005 420.444 347.138 420.128 347.382L413.814 352.271C413.474 352.541 413.048 352.676 412.616 352.653C412.183 352.63 411.774 352.449 411.465 352.144L405.795 346.429C405.493 346.122 405.315 345.714 405.294 345.283C405.273 344.852 405.411 344.428 405.681 344.093L405.845 343.89C412.065 342.357 418.068 340.044 423.715 337.007C424.434 336.626 425.154 336.245 425.861 335.826C428.919 338.103 432.626 339.328 436.431 339.318C439.526 339.318 442.568 338.509 445.258 336.97C447.949 335.431 450.194 333.215 451.775 330.539C453.356 327.863 454.217 324.82 454.275 321.708C454.332 318.596 453.584 315.523 452.103 312.79C456.298 307.302 459.833 301.334 462.635 295.011C462.951 294.287 463.204 293.462 463.444 292.713L467.043 296.332C467.347 296.638 467.527 297.046 467.548 297.478C467.569 297.91 467.43 298.335 467.156 298.669L462.307 305.018C462.089 305.296 461.959 305.634 461.934 305.987C461.909 306.34 461.991 306.693 462.168 306.999C463.28 309.007 464.157 311.138 464.782 313.349C464.884 313.684 465.08 313.982 465.347 314.207C465.614 314.432 465.939 314.575 466.285 314.619L474.152 315.622C474.572 315.685 474.956 315.896 475.236 316.216C475.516 316.537 475.673 316.948 475.681 317.374Z" fill="#F4B2C8"/>
<g filter="url(#filter5_dddd_4631_45016)">
<path d="M444.596 536.216H349.769C347.356 536.216 345.399 538.183 345.399 540.61V597.07C345.399 599.496 347.356 601.463 349.769 601.463H444.596C447.009 601.463 448.965 599.496 448.965 597.07V540.61C448.965 538.183 447.009 536.216 444.596 536.216Z" fill="white"/>
</g>
<path d="M418.24 572.967L385.166 592.206C385.041 592.286 384.897 592.331 384.748 592.336C384.6 592.34 384.453 592.304 384.323 592.231C384.193 592.158 384.086 592.051 384.012 591.921C383.938 591.792 383.901 591.644 383.903 591.495V553.004C383.902 552.855 383.941 552.709 384.015 552.58C384.089 552.451 384.196 552.344 384.324 552.271C384.453 552.197 384.599 552.159 384.747 552.161C384.895 552.162 385.039 552.204 385.166 552.28L407.594 565.31L418.303 571.532C418.426 571.61 418.527 571.719 418.594 571.848C418.662 571.977 418.694 572.122 418.688 572.268C418.681 572.414 418.636 572.556 418.558 572.678C418.479 572.801 418.37 572.901 418.24 572.967Z" fill="#FC1264"/>
<path d="M418.24 572.967L385.166 592.206C385.041 592.286 384.897 592.331 384.748 592.336C384.6 592.34 384.453 592.304 384.323 592.231C384.193 592.158 384.086 592.051 384.012 591.921C383.938 591.791 383.901 591.644 383.903 591.495V578.186L407.569 565.31L418.278 571.532C418.402 571.607 418.504 571.715 418.574 571.842C418.644 571.97 418.678 572.115 418.674 572.261C418.671 572.406 418.628 572.549 418.552 572.673C418.476 572.797 418.368 572.898 418.24 572.967Z" fill="#F4B2C8"/>
<path d="M349.175 536.216H446.818C447.388 536.216 447.934 536.444 448.336 536.848C448.739 537.253 448.965 537.802 448.965 538.375V544.064H345.412V540C345.419 538.999 345.817 538.04 346.522 537.332C347.226 536.624 348.179 536.223 349.175 536.216Z" fill="#AEAAD6"/>
<path d="M426.841 540.064C426.842 540.34 426.761 540.61 426.608 540.839C426.455 541.068 426.236 541.245 425.981 541.347C425.726 541.449 425.447 541.472 425.179 541.411C424.911 541.351 424.668 541.211 424.48 541.009C424.293 540.808 424.17 540.554 424.129 540.281C424.087 540.008 424.128 539.729 424.247 539.48C424.365 539.232 424.556 539.024 424.793 538.886C425.031 538.748 425.304 538.685 425.578 538.705C425.919 538.731 426.239 538.885 426.473 539.136C426.707 539.388 426.838 539.719 426.841 540.064Z" fill="white"/>
<path d="M433.344 541.435C434.098 541.435 434.708 540.821 434.708 540.064C434.708 539.307 434.098 538.693 433.344 538.693C432.591 538.693 431.98 539.307 431.98 540.064C431.98 540.821 432.591 541.435 433.344 541.435Z" fill="white"/>
<path d="M442.537 540.064C442.54 540.336 442.462 540.603 442.313 540.831C442.164 541.058 441.951 541.236 441.701 541.341C441.451 541.447 441.176 541.475 440.91 541.422C440.645 541.37 440.401 541.239 440.209 541.046C440.018 540.854 439.887 540.608 439.835 540.341C439.783 540.074 439.811 539.797 439.916 539.546C440.021 539.295 440.197 539.081 440.424 538.931C440.65 538.781 440.915 538.703 441.186 538.705C441.544 538.705 441.888 538.848 442.141 539.103C442.395 539.358 442.537 539.704 442.537 540.064Z" fill="white"/>
<path d="M186.661 71.239C182.837 71.2392 179.094 72.3377 175.87 74.4053C172.647 76.4729 170.078 79.4235 168.466 82.9097C166.854 86.396 166.265 90.2729 166.771 94.0839C167.276 97.8949 168.853 101.482 171.317 104.421C171.964 105.207 172.678 105.934 173.451 106.593C173.787 103.303 175.324 100.256 177.766 98.0402C180.207 95.8244 183.378 94.5979 186.667 94.5979C189.956 94.5979 193.127 95.8244 195.568 98.0402C198.01 100.256 199.547 103.303 199.883 106.593C200.673 105.939 201.4 105.212 202.055 104.421C204.527 101.48 206.11 97.888 206.616 94.0704C207.122 90.2529 206.531 86.3695 204.911 82.8793C203.292 79.3891 200.713 76.4381 197.479 74.3753C194.245 72.3125 190.491 71.2242 186.661 71.239ZM186.661 92.1669C185.344 92.1669 184.058 91.7744 182.963 91.0391C181.869 90.3037 181.016 89.2585 180.512 88.0356C180.008 86.8128 179.877 85.4672 180.133 84.169C180.39 82.8708 181.024 81.6783 181.955 80.7424C182.885 79.8064 184.071 79.169 185.362 78.9108C186.653 78.6526 187.991 78.7851 189.207 79.2917C190.424 79.7982 191.463 80.656 192.194 81.7565C192.926 82.8571 193.316 84.151 193.316 85.4746C193.312 87.2485 192.61 88.9487 191.363 90.2031C190.116 91.4574 188.425 92.1636 186.661 92.1669Z" fill="#AEAAD6"/>
<path d="M199.882 106.593C196.23 109.825 191.532 111.608 186.667 111.608C181.802 111.608 177.103 109.825 173.451 106.593C173.787 103.303 175.324 100.256 177.765 98.0401C180.207 95.8244 183.378 94.5979 186.667 94.5979C189.955 94.5979 193.127 95.8244 195.568 98.0401C198.009 100.256 199.547 103.303 199.882 106.593Z" fill="white"/>
<path d="M193.316 85.4746C193.318 86.7988 192.93 88.0939 192.2 89.1962C191.471 90.2984 190.432 91.1581 189.216 91.6666C188 92.1751 186.662 92.3094 185.37 92.0526C184.078 91.7959 182.891 91.1595 181.959 90.224C181.027 89.2886 180.392 88.0962 180.134 86.7976C179.876 85.4991 180.007 84.1528 180.511 82.9292C181.014 81.7056 181.867 80.6597 182.962 79.9237C184.057 79.1878 185.344 78.795 186.661 78.795C188.422 78.7983 190.111 79.5027 191.358 80.7543C192.605 82.0059 193.309 83.703 193.316 85.4746Z" fill="white"/>
<path d="M240.684 71.239C236.861 71.2392 233.117 72.3377 229.893 74.4053C226.67 76.4728 224.101 79.4235 222.489 82.9097C220.877 86.396 220.289 90.2729 220.794 94.0839C221.299 97.8949 222.877 101.482 225.341 104.421C225.987 105.207 226.701 105.934 227.475 106.593C227.811 103.303 229.348 100.256 231.789 98.0401C234.23 95.8244 237.402 94.5979 240.69 94.5979C243.979 94.5979 247.151 95.8244 249.592 98.0401C252.033 100.256 253.57 103.303 253.906 106.593C254.679 105.937 255.389 105.21 256.028 104.421C258.497 101.483 260.079 97.8959 260.587 94.083C261.095 90.2702 260.508 86.3907 258.895 82.9024C257.282 79.4141 254.71 76.4625 251.484 74.3959C248.257 72.3293 244.51 71.2339 240.684 71.239ZM240.684 92.1669C239.368 92.1669 238.081 91.7744 236.987 91.0391C235.892 90.3037 235.039 89.2585 234.536 88.0356C234.032 86.8128 233.9 85.4672 234.157 84.169C234.414 82.8708 235.047 81.6783 235.978 80.7424C236.909 79.8064 238.095 79.169 239.386 78.9108C240.677 78.6526 242.015 78.7851 243.231 79.2916C244.447 79.7982 245.486 80.6559 246.218 81.7565C246.949 82.8571 247.339 84.151 247.339 85.4746C247.336 87.2485 246.634 88.9487 245.386 90.2031C244.139 91.4574 242.448 92.1636 240.684 92.1669Z" fill="#FC1264"/>
<path d="M253.906 106.593C250.254 109.825 245.556 111.608 240.691 111.608C235.826 111.608 231.127 109.825 227.475 106.593C227.811 103.303 229.348 100.256 231.789 98.0401C234.231 95.8244 237.402 94.5979 240.691 94.5979C243.979 94.5979 247.151 95.8244 249.592 98.0401C252.033 100.256 253.571 103.303 253.906 106.593Z" fill="white"/>
<path d="M247.34 85.4746C247.342 86.7988 246.954 88.0939 246.224 89.1962C245.494 90.2984 244.456 91.1581 243.24 91.6666C242.024 92.1751 240.686 92.3094 239.394 92.0526C238.102 91.7959 236.915 91.1595 235.983 90.224C235.051 89.2886 234.416 88.0962 234.158 86.7976C233.9 85.4991 234.031 84.1528 234.535 82.9292C235.038 81.7056 235.891 80.6597 236.986 79.9237C238.08 79.1878 239.368 78.795 240.684 78.795C242.446 78.7983 244.135 79.5027 245.382 80.7543C246.629 82.0059 247.333 83.703 247.34 85.4746Z" fill="white"/>
</g>
<defs>
<filter id="filter0_dddd_4631_45016" x="67.5136" y="124.294" width="333.865" height="441.148" filterUnits="userSpaceOnUse" color-interpolation-filters="sRGB">
<feFlood flood-opacity="0" result="BackgroundImageFix"/>
<feColorMatrix in="SourceAlpha" type="matrix" values="0 0 0 0 0 0 0 0 0 0 0 0 0 0 0 0 0 0 127 0" result="hardAlpha"/>
<feOffset dy="1.85185"/>
<feGaussianBlur stdDeviation="1.57407"/>
<feColorMatrix type="matrix" values="0 0 0 0 0.203922 0 0 0 0 0.164706 0 0 0 0 0.596078 0 0 0 0.0168519 0"/>
<feBlend mode="normal" in2="BackgroundImageFix" result="effect1_dropShadow_4631_45016"/>
<feColorMatrix in="SourceAlpha" type="matrix" values="0 0 0 0 0 0 0 0 0 0 0 0 0 0 0 0 0 0 127 0" result="hardAlpha"/>
<feOffset dy="8.14815"/>
<feGaussianBlur stdDeviation="3.25926"/>
<feColorMatrix type="matrix" values="0 0 0 0 0.203922 0 0 0 0 0.164706 0 0 0 0 0.596078 0 0 0 0.0274815 0"/>
<feBlend mode="normal" in2="effect1_dropShadow_4631_45016" result="effect2_dropShadow_4631_45016"/>
<feColorMatrix in="SourceAlpha" type="matrix" values="0 0 0 0 0 0 0 0 0 0 0 0 0 0 0 0 0 0 127 0" result="hardAlpha"/>
<feOffset dy="20"/>
<feGaussianBlur stdDeviation="6.5"/>
<feColorMatrix type="matrix" values="0 0 0 0 0.203922 0 0 0 0 0.164706 0 0 0 0 0.596078 0 0 0 0.035 0"/>
<feBlend mode="normal" in2="effect2_dropShadow_4631_45016" result="effect3_dropShadow_4631_45016"/>
<feColorMatrix in="SourceAlpha" type="matrix" values="0 0 0 0 0 0 0 0 0 0 0 0 0 0 0 0 0 0 127 0" result="hardAlpha"/>
<feOffset dy="38.5185"/>
<feGaussianBlur stdDeviation="12.7407"/>
<feColorMatrix type="matrix" values="0 0 0 0 0.203922 0 0 0 0 0.164706 0 0 0 0 0.596078 0 0 0 0.0425185 0"/>
<feBlend mode="normal" in2="effect3_dropShadow_4631_45016" result="effect4_dropShadow_4631_45016"/>
<feBlend mode="normal" in="SourceGraphic" in2="effect4_dropShadow_4631_45016" result="shape"/>
</filter>
<filter id="filter1_dddd_4631_45016" x="165.813" y="164.165" width="137.53" height="186.114" filterUnits="userSpaceOnUse" color-interpolation-filters="sRGB">
<feFlood flood-opacity="0" result="BackgroundImageFix"/>
<feColorMatrix in="SourceAlpha" type="matrix" values="0 0 0 0 0 0 0 0 0 0 0 0 0 0 0 0 0 0 127 0" result="hardAlpha"/>
<feOffset dy="1.85185"/>
<feGaussianBlur stdDeviation="1.57407"/>
<feColorMatrix type="matrix" values="0 0 0 0 0.203922 0 0 0 0 0.164706 0 0 0 0 0.596078 0 0 0 0.0168519 0"/>
<feBlend mode="normal" in2="BackgroundImageFix" result="effect1_dropShadow_4631_45016"/>
<feColorMatrix in="SourceAlpha" type="matrix" values="0 0 0 0 0 0 0 0 0 0 0 0 0 0 0 0 0 0 127 0" result="hardAlpha"/>
<feOffset dy="8.14815"/>
<feGaussianBlur stdDeviation="3.25926"/>
<feColorMatrix type="matrix" values="0 0 0 0 0.203922 0 0 0 0 0.164706 0 0 0 0 0.596078 0 0 0 0.0274815 0"/>
<feBlend mode="normal" in2="effect1_dropShadow_4631_45016" result="effect2_dropShadow_4631_45016"/>
<feColorMatrix in="SourceAlpha" type="matrix" values="0 0 0 0 0 0 0 0 0 0 0 0 0 0 0 0 0 0 127 0" result="hardAlpha"/>
<feOffset dy="20"/>
<feGaussianBlur stdDeviation="6.5"/>
<feColorMatrix type="matrix" values="0 0 0 0 0.203922 0 0 0 0 0.164706 0 0 0 0 0.596078 0 0 0 0.035 0"/>
<feBlend mode="normal" in2="effect2_dropShadow_4631_45016" result="effect3_dropShadow_4631_45016"/>
<feColorMatrix in="SourceAlpha" type="matrix" values="0 0 0 0 0 0 0 0 0 0 0 0 0 0 0 0 0 0 127 0" result="hardAlpha"/>
<feOffset dy="38.5185"/>
<feGaussianBlur stdDeviation="12.7407"/>
<feColorMatrix type="matrix" values="0 0 0 0 0.203922 0 0 0 0 0.164706 0 0 0 0 0.596078 0 0 0 0.0425185 0"/>
<feBlend mode="normal" in2="effect3_dropShadow_4631_45016" result="effect4_dropShadow_4631_45016"/>
<feBlend mode="normal" in="SourceGraphic" in2="effect4_dropShadow_4631_45016" result="shape"/>
</filter>
<filter id="filter2_f_4631_45016" x="88.9951" y="455" width="84.7178" height="134.291" filterUnits="userSpaceOnUse" color-interpolation-filters="sRGB">
<feFlood flood-opacity="0" result="BackgroundImageFix"/>
<feBlend mode="normal" in="SourceGraphic" in2="BackgroundImageFix" result="shape"/>
<feGaussianBlur stdDeviation="2" result="effect1_foregroundBlur_4631_45016"/>
</filter>
<filter id="filter3_f_4631_45016" x="84.9951" y="117.591" width="62.7124" height="74.72" filterUnits="userSpaceOnUse" color-interpolation-filters="sRGB">
<feFlood flood-opacity="0" result="BackgroundImageFix"/>
<feBlend mode="normal" in="SourceGraphic" in2="BackgroundImageFix" result="shape"/>
<feGaussianBlur stdDeviation="4" result="effect1_foregroundBlur_4631_45016"/>
</filter>
<filter id="filter4_dddd_4631_45016" x="22.7465" y="55.8448" width="122.97" height="153.529" filterUnits="userSpaceOnUse" color-interpolation-filters="sRGB">
<feFlood flood-opacity="0" result="BackgroundImageFix"/>
<feColorMatrix in="SourceAlpha" type="matrix" values="0 0 0 0 0 0 0 0 0 0 0 0 0 0 0 0 0 0 127 0" result="hardAlpha"/>
<feOffset dy="1.85185"/>
<feGaussianBlur stdDeviation="1.57407"/>
<feColorMatrix type="matrix" values="0 0 0 0 0.203922 0 0 0 0 0.164706 0 0 0 0 0.596078 0 0 0 0.0168519 0"/>
<feBlend mode="normal" in2="BackgroundImageFix" result="effect1_dropShadow_4631_45016"/>
<feColorMatrix in="SourceAlpha" type="matrix" values="0 0 0 0 0 0 0 0 0 0 0 0 0 0 0 0 0 0 127 0" result="hardAlpha"/>
<feOffset dy="8.14815"/>
<feGaussianBlur stdDeviation="3.25926"/>
<feColorMatrix type="matrix" values="0 0 0 0 0.203922 0 0 0 0 0.164706 0 0 0 0 0.596078 0 0 0 0.0274815 0"/>
<feBlend mode="normal" in2="effect1_dropShadow_4631_45016" result="effect2_dropShadow_4631_45016"/>
<feColorMatrix in="SourceAlpha" type="matrix" values="0 0 0 0 0 0 0 0 0 0 0 0 0 0 0 0 0 0 127 0" result="hardAlpha"/>
<feOffset dy="20"/>
<feGaussianBlur stdDeviation="6.5"/>
<feColorMatrix type="matrix" values="0 0 0 0 0.203922 0 0 0 0 0.164706 0 0 0 0 0.596078 0 0 0 0.035 0"/>
<feBlend mode="normal" in2="effect2_dropShadow_4631_45016" result="effect3_dropShadow_4631_45016"/>
<feColorMatrix in="SourceAlpha" type="matrix" values="0 0 0 0 0 0 0 0 0 0 0 0 0 0 0 0 0 0 127 0" result="hardAlpha"/>
<feOffset dy="38.5185"/>
<feGaussianBlur stdDeviation="12.7407"/>
<feColorMatrix type="matrix" values="0 0 0 0 0.203922 0 0 0 0 0.164706 0 0 0 0 0.596078 0 0 0 0.0425185 0"/>
<feBlend mode="normal" in2="effect3_dropShadow_4631_45016" result="effect4_dropShadow_4631_45016"/>
<feBlend mode="normal" in="SourceGraphic" in2="effect4_dropShadow_4631_45016" result="shape"/>
</filter>
<filter id="filter5_dddd_4631_45016" x="319.918" y="534.92" width="154.528" height="130.544" filterUnits="userSpaceOnUse" color-interpolation-filters="sRGB">
<feFlood flood-opacity="0" result="BackgroundImageFix"/>
<feColorMatrix in="SourceAlpha" type="matrix" values="0 0 0 0 0 0 0 0 0 0 0 0 0 0 0 0 0 0 127 0" result="hardAlpha"/>
<feOffset dy="1.85185"/>
<feGaussianBlur stdDeviation="1.57407"/>
<feColorMatrix type="matrix" values="0 0 0 0 0.203922 0 0 0 0 0.164706 0 0 0 0 0.596078 0 0 0 0.0168519 0"/>
<feBlend mode="normal" in2="BackgroundImageFix" result="effect1_dropShadow_4631_45016"/>
<feColorMatrix in="SourceAlpha" type="matrix" values="0 0 0 0 0 0 0 0 0 0 0 0 0 0 0 0 0 0 127 0" result="hardAlpha"/>
<feOffset dy="8.14815"/>
<feGaussianBlur stdDeviation="3.25926"/>
<feColorMatrix type="matrix" values="0 0 0 0 0.203922 0 0 0 0 0.164706 0 0 0 0 0.596078 0 0 0 0.0274815 0"/>
<feBlend mode="normal" in2="effect1_dropShadow_4631_45016" result="effect2_dropShadow_4631_45016"/>
<feColorMatrix in="SourceAlpha" type="matrix" values="0 0 0 0 0 0 0 0 0 0 0 0 0 0 0 0 0 0 127 0" result="hardAlpha"/>
<feOffset dy="20"/>
<feGaussianBlur stdDeviation="6.5"/>
<feColorMatrix type="matrix" values="0 0 0 0 0.203922 0 0 0 0 0.164706 0 0 0 0 0.596078 0 0 0 0.035 0"/>
<feBlend mode="normal" in2="effect2_dropShadow_4631_45016" result="effect3_dropShadow_4631_45016"/>
<feColorMatrix in="SourceAlpha" type="matrix" values="0 0 0 0 0 0 0 0 0 0 0 0 0 0 0 0 0 0 127 0" result="hardAlpha"/>
<feOffset dy="38.5185"/>
<feGaussianBlur stdDeviation="12.7407"/>
<feColorMatrix type="matrix" values="0 0 0 0 0.203922 0 0 0 0 0.164706 0 0 0 0 0.596078 0 0 0 0.0425185 0"/>
<feBlend mode="normal" in2="effect3_dropShadow_4631_45016" result="effect4_dropShadow_4631_45016"/>
<feBlend mode="normal" in="SourceGraphic" in2="effect4_dropShadow_4631_45016" result="shape"/>
</filter>
<clipPath id="clip0_4631_45016">
<rect width="476" height="652" fill="white"/>
</clipPath>
</defs>
</svg>
