<svg width="576" height="404" viewBox="0 0 576 404" fill="none" xmlns="http://www.w3.org/2000/svg">
<path d="M34.8375 135.7C3.64013 216.205 48.6434 382.218 291.221 397.148C533.798 412.079 591.861 226.521 510.494 165.203C429.126 103.886 347.449 195.186 332.175 102.392C306.503 -53.5701 88.8754 -3.75169 34.8375 135.7Z" fill="#C8CEFF" fill-opacity="0.2"/>
<path d="M363.72 279.46C384.283 278.747 412.89 269.436 430.135 242.779C447.38 216.121 473.233 211.718 474.808 192.58C476.383 173.443 446.806 157.166 407.907 183.309C369.009 209.452 349.02 232.062 349.02 232.062L363.72 279.46Z" fill="#AEAAD6"/>
<path opacity="0.5" d="M356.736 256.938C401.003 244.431 415.633 203.238 441.754 196.954" stroke="#1D1526" stroke-width="1.5" stroke-linecap="round" stroke-linejoin="round"/>
<path d="M375.358 94.9941H222.558C216.738 94.9941 212.019 99.7079 212.019 105.523V371.939C212.019 377.754 216.738 382.468 222.558 382.468H375.358C381.179 382.468 385.897 377.754 385.897 371.939V105.523C385.897 99.7079 381.179 94.9941 375.358 94.9941Z" fill="white"/>
<path d="M210.646 136.206C206.177 135.391 201.917 133.69 198.117 131.203C194.317 128.717 191.054 125.495 188.521 121.729C185.987 117.962 184.235 113.726 183.367 109.272C182.498 104.818 182.532 100.235 183.466 95.7939C187.428 76.7358 160.476 58.4694 171.183 34.7211C181.891 10.9728 217.421 28.2002 229.179 67.8698C240.937 107.539 234.924 129.457 234.924 129.457L210.646 136.206Z" fill="#AEAAD6"/>
<path opacity="0.5" d="M194.431 51.9487C194.431 51.9487 218.967 78.7547 222.107 133.039" stroke="#1D1526" stroke-width="1.5" stroke-linecap="round" stroke-linejoin="round"/>
<path d="M244.004 59.3516C244.004 59.3516 245.331 70.6221 240.378 84.7623" stroke="#AEAAD6" stroke-width="1.5" stroke-linecap="round" stroke-linejoin="round"/>
<path d="M171.694 121.176C171.694 121.176 184.155 131.16 200.36 130.379" stroke="#AEAAD6" stroke-width="1.5" stroke-linecap="round" stroke-linejoin="round"/>
<path d="M365.709 336.298C379.933 340.602 394.633 339.82 403.835 335.308C413.037 330.796 421.843 334.398 415.989 345.292C408.936 358.403 384.44 359.146 367.205 352.526L365.709 336.298Z" fill="#867FCE"/>
<path d="M366.532 344.708C366.532 344.708 381.737 350.377 397.605 346.469" stroke="#AEAAD6" stroke-width="1.5" stroke-linecap="round" stroke-linejoin="round"/>
<path d="M245.411 363.894C245.411 363.894 248.848 386.109 262.379 394.421C272.561 400.684 279.812 390.898 271.977 382.467C264.726 374.67 261.784 367.506 262.765 360.015L245.411 363.894Z" fill="#867FCE"/>
<path d="M254.78 360.015C254.78 360.015 251.809 368.584 260.327 379.934" stroke="#AEAAD6" stroke-width="1.5" stroke-linecap="round" stroke-linejoin="round"/>
<path d="M198.248 251.716C181.445 227.75 119.523 238.233 116.7 210.281C113.877 182.33 168.676 171.154 218.796 200.988V256.758L198.248 251.716Z" fill="#AEAAD6"/>
<path opacity="0.5" d="M138.451 204.961C138.451 204.961 194.311 216.386 216.042 238.299" stroke="#1D1526" stroke-width="1.5" stroke-linecap="round" stroke-linejoin="round"/>
<path d="M365.452 79.1621H212.652C206.832 79.1621 202.113 83.8759 202.113 89.6905V356.107C202.113 361.922 206.832 366.636 212.652 366.636H365.452C371.273 366.636 375.991 361.922 375.991 356.107V89.6905C375.991 83.8759 371.273 79.1621 365.452 79.1621Z" fill="#AEAAD6" stroke="#AEAAD6" stroke-width="1.5" stroke-linecap="round" stroke-linejoin="round"/>
<path d="M359.549 79.1621H206.749C200.928 79.1621 196.21 83.8759 196.21 89.6905V356.107C196.21 361.922 200.928 366.636 206.749 366.636H359.549C365.37 366.636 370.088 361.922 370.088 356.107V89.6905C370.088 83.8759 365.37 79.1621 359.549 79.1621Z" fill="white" stroke="#AEAAD6" stroke-width="1.5" stroke-linecap="round" stroke-linejoin="round"/>
<path d="M206.749 366.635H359.549C360.937 366.642 362.313 366.374 363.597 365.848C364.882 365.322 366.049 364.547 367.033 363.569C368.017 362.591 368.798 361.428 369.331 360.147C369.863 358.867 370.138 357.494 370.138 356.107V333.704H196.21V356.107C196.21 357.489 196.482 358.858 197.012 360.136C197.542 361.413 198.318 362.574 199.297 363.551C200.275 364.529 201.437 365.305 202.716 365.834C203.995 366.363 205.365 366.635 206.749 366.635Z" fill="#FDB42B" stroke="#AEAAD6" stroke-width="1.5" stroke-linecap="round" stroke-linejoin="round"/>
<path d="M283.149 359.739C288.214 359.739 292.321 355.637 292.321 350.576C292.321 345.515 288.214 341.413 283.149 341.413C278.083 341.413 273.976 345.515 273.976 350.576C273.976 355.637 278.083 359.739 283.149 359.739Z" fill="white"/>
<path d="M359.549 79.1622H206.749C205.363 79.1622 203.991 79.4352 202.711 79.9655C201.431 80.4959 200.269 81.2732 199.29 82.2529C198.311 83.2327 197.535 84.3957 197.006 85.6753C196.478 86.955 196.207 88.3262 196.21 89.7104V96.8349H370.138V89.7104C370.14 88.322 369.868 86.9467 369.336 85.6638C368.805 84.3809 368.024 83.2158 367.04 82.2354C366.056 81.255 364.888 80.4787 363.602 79.9513C362.316 79.4239 360.939 79.1557 359.549 79.1622Z" fill="#FDB42B" stroke="#AEAAD6" stroke-width="1.5" stroke-linecap="round" stroke-linejoin="round"/>
<path d="M262.655 86.0488H303.643C304.305 86.0488 304.94 86.3115 305.408 86.7792C305.876 87.2468 306.139 87.8811 306.139 88.5424C306.14 88.8707 306.077 89.196 305.952 89.4997C305.827 89.8034 305.643 90.0794 305.411 90.312C305.18 90.5446 304.904 90.7292 304.6 90.8551C304.297 90.9811 303.972 91.0459 303.643 91.0459H262.655C261.997 91.0355 261.37 90.7671 260.908 90.2988C260.447 89.8304 260.188 89.1996 260.188 88.5424C260.191 87.887 260.45 87.2586 260.912 86.7924C261.373 86.3261 261.999 86.0592 262.655 86.0488Z" fill="white"/>
<path d="M356.657 88.5425C356.657 88.047 356.51 87.5625 356.234 87.1506C355.958 86.7387 355.566 86.4179 355.107 86.2287C354.649 86.0395 354.145 85.9905 353.658 86.0879C353.172 86.1853 352.725 86.4247 352.375 86.7758C352.025 87.1269 351.787 87.5739 351.692 88.0602C351.596 88.5465 351.647 89.0502 351.838 89.5074C352.029 89.9647 352.352 90.355 352.766 90.6289C353.179 90.9028 353.665 91.0479 354.161 91.046C354.489 91.046 354.815 90.9812 355.118 90.8552C355.422 90.7293 355.697 90.5447 355.929 90.3121C356.161 90.0795 356.345 89.8035 356.47 89.4998C356.594 89.1961 356.658 88.8708 356.657 88.5425Z" fill="white"/>
<path d="M253.76 117.594H212.613V128.152H253.76V117.594Z" fill="#867FCE"/>
<path d="M356.657 135.228H212.613V139.601H356.657V135.228Z" fill="#E8E2FF"/>
<path d="M356.657 145.588H212.613V149.962H356.657V145.588Z" fill="#E8E2FF"/>
<path d="M278.365 155.938H212.613V160.312H278.365V155.938Z" fill="#E8E2FF"/>
<path d="M356.657 287.702H212.613V292.076H356.657V287.702Z" fill="#E8E2FF"/>
<path d="M356.657 298.062H212.613V302.436H356.657V298.062Z" fill="#E8E2FF"/>
<path d="M233.256 308.412H212.613V312.786H233.256V308.412Z" fill="#E8E2FF"/>
<path d="M252.304 255.899H212.613V266.457H252.304V255.899Z" fill="#867FCE"/>
<path d="M279.336 270.069H212.613V280.627H279.336V270.069Z" fill="#867FCE"/>
<path d="M334.518 255.899H255.84V266.457H334.518V255.899Z" fill="#867FCE"/>
<path d="M225.401 174.947H212.613V185.505H225.401V174.947Z" fill="#867FCE"/>
<path d="M269.47 174.947H229.294V185.505H269.47V174.947Z" fill="#867FCE"/>
<path d="M277.325 192.58H212.613V196.954H277.325V192.58Z" fill="#E8E2FF"/>
<path d="M277.325 202.94H212.613V207.314H277.325V202.94Z" fill="#E8E2FF"/>
<path d="M277.325 213.291H212.613V217.664H277.325V213.291Z" fill="#E8E2FF"/>
<path d="M277.325 223.65H212.613V228.024H277.325V223.65Z" fill="#E8E2FF"/>
<path d="M253.899 234.011H212.613V238.385H253.899V234.011Z" fill="#E8E2FF"/>
<path d="M356.547 176.193H288.785V238.384H356.547V176.193Z" fill="white" stroke="#AEAAD6" stroke-width="1.5" stroke-linecap="round" stroke-linejoin="round"/>
<path d="M291.599 173.383H285.972V179.004H291.599V173.383Z" fill="white" stroke="#AEAAD6" stroke-width="1.5" stroke-linecap="round" stroke-linejoin="round"/>
<path d="M359.469 173.383H353.843V179.004H359.469V173.383Z" fill="white" stroke="#AEAAD6" stroke-width="1.5" stroke-linecap="round" stroke-linejoin="round"/>
<path d="M291.599 235.574H285.972V241.195H291.599V235.574Z" fill="white" stroke="#AEAAD6" stroke-width="1.5" stroke-linecap="round" stroke-linejoin="round"/>
<path d="M359.469 235.575H353.843V241.195H359.469V235.575Z" fill="white" stroke="#AEAAD6" stroke-width="1.5" stroke-linecap="round" stroke-linejoin="round"/>
<path d="M338.787 207.284C338.787 204.1 337.842 200.987 336.071 198.34C334.3 195.692 331.783 193.629 328.838 192.41C325.894 191.192 322.653 190.873 319.527 191.494C316.401 192.115 313.529 193.648 311.275 195.9C309.021 198.152 307.487 201.02 306.865 204.143C306.243 207.266 306.562 210.503 307.782 213.445C309.002 216.387 311.067 218.901 313.717 220.67C316.368 222.439 319.484 223.383 322.671 223.383" fill="white"/>
<path d="M338.787 207.284C338.787 204.1 337.842 200.987 336.071 198.34C334.3 195.692 331.783 193.629 328.838 192.41C325.894 191.192 322.653 190.873 319.527 191.494C316.401 192.115 313.529 193.648 311.275 195.9C309.021 198.152 307.487 201.02 306.865 204.143C306.243 207.266 306.562 210.503 307.782 213.445C309.002 216.387 311.067 218.901 313.717 220.67C316.368 222.439 319.484 223.383 322.671 223.383" stroke="#41B883" stroke-width="1.5" stroke-linecap="round" stroke-linejoin="round"/>
<path d="M322.671 217.615C328.383 217.615 333.012 212.99 333.012 207.284C333.012 201.579 328.383 196.954 322.671 196.954C316.96 196.954 312.33 201.579 312.33 207.284C312.33 212.99 316.96 217.615 322.671 217.615Z" fill="#41B883"/>
<path d="M301.85 183.309H296.293V187.682H301.85V183.309Z" fill="#E8E2FF"/>
<path d="M316.034 228.994H296.293V233.367H316.034V228.994Z" fill="#E8E2FF"/>
<g style="mix-blend-mode:multiply" opacity="0.45">
<g style="mix-blend-mode:multiply" opacity="0.45">
<path d="M530.956 19.3853H350.886C346.696 19.3853 343.299 22.7788 343.299 26.9649V79.3795C343.299 83.5656 346.696 86.9591 350.886 86.9591H530.956C535.146 86.9591 538.543 83.5656 538.543 79.3795V26.9649C538.543 22.7788 535.146 19.3853 530.956 19.3853Z" fill="#867FCE"/>
</g>
</g>
<path d="M525.687 14.1211H345.618C341.427 14.1211 338.03 17.5146 338.03 21.7008V74.1153C338.03 78.3014 341.427 81.695 345.618 81.695H525.687C529.877 81.695 533.274 78.3014 533.274 74.1153V21.7008C533.274 17.5146 529.877 14.1211 525.687 14.1211Z" fill="white"/>
<path d="M525.687 14.1211H345.618C341.427 14.1211 338.03 17.5146 338.03 21.7008V74.1153C338.03 78.3014 341.427 81.695 345.618 81.695H525.687C529.877 81.695 533.274 78.3014 533.274 74.1153V21.7008C533.274 17.5146 529.877 14.1211 525.687 14.1211Z" stroke="#AEAAD6" stroke-width="1.5" stroke-linecap="round" stroke-linejoin="round"/>
<path d="M347.271 28.0169L352.908 22.3965" stroke="#AEAAD6" stroke-width="1.5" stroke-linecap="round" stroke-linejoin="round"/>
<path d="M347.271 22.6606L352.908 28.2811" stroke="#AEAAD6" stroke-width="1.5" stroke-linecap="round" stroke-linejoin="round"/>
<path d="M515.801 23.9072H362.971V28.2809H515.801V23.9072Z" fill="#867FCE"/>
<path d="M515.801 34.2676H362.971V38.6412H515.801V34.2676Z" fill="#E8E2FF"/>
<path d="M457.676 44.6182H362.971V48.9918H457.676V44.6182Z" fill="#E8E2FF"/>
<path d="M515.801 44.6182H464.729V48.9918H515.801V44.6182Z" fill="#867FCE"/>
<path d="M431.487 54.978H362.971V59.3517H431.487V54.978Z" fill="#867FCE"/>
<path d="M515.801 54.978H438.816V59.3517H515.801V54.978Z" fill="#E8E2FF"/>
<path d="M482.361 65.3379H362.971V69.7115H482.361V65.3379Z" fill="#E8E2FF"/>
<path d="M311.415 108.78C311.415 89.265 348.676 90.2097 348.676 72.584" stroke="#1D1526" stroke-width="1.5" stroke-linecap="round" stroke-linejoin="round"/>
<path d="M348.305 69.3901C347.558 69.3901 346.842 69.6859 346.313 70.2126C345.783 70.7394 345.485 71.4541 345.482 72.2004C345.485 72.9466 345.783 73.6614 346.313 74.1881C346.842 74.7148 347.558 75.0106 348.305 75.0106C349.051 75.0106 349.767 74.7145 350.294 74.1875C350.822 73.6605 351.118 72.9457 351.118 72.2004C351.118 71.455 350.822 70.7402 350.294 70.2132C349.767 69.6862 349.051 69.3901 348.305 69.3901Z" fill="#1D1526" stroke="#1D1526" stroke-width="1.5" stroke-linecap="round" stroke-linejoin="round"/>
<path d="M311.409 108.273C310.663 108.273 309.947 108.57 309.42 109.097C308.892 109.624 308.596 110.338 308.596 111.084C308.596 111.83 308.892 112.546 309.419 113.074C309.946 113.603 310.662 113.901 311.409 113.904C312.157 113.901 312.873 113.603 313.402 113.075C313.931 112.547 314.229 111.831 314.232 111.084C314.229 110.337 313.931 109.623 313.402 109.096C312.872 108.569 312.156 108.273 311.409 108.273Z" fill="#1D1526" stroke="#1D1526" stroke-width="1.5" stroke-linecap="round" stroke-linejoin="round"/>
<g style="mix-blend-mode:multiply" opacity="0.45">
<g style="mix-blend-mode:multiply" opacity="0.45">
<path d="M152.843 91.6875H43.221C39.0306 91.6875 35.6335 95.081 35.6335 99.2672V151.682C35.6335 155.868 39.0306 159.261 43.221 159.261H152.843C157.034 159.261 160.431 155.868 160.431 151.682V99.2672C160.431 95.081 157.034 91.6875 152.843 91.6875Z" fill="#867FCE"/>
</g>
</g>
<path d="M147.573 86.4233H37.9511C33.7607 86.4233 30.3636 89.8169 30.3636 94.003V146.418C30.3636 150.604 33.7607 153.997 37.9511 153.997H147.573C151.764 153.997 155.161 150.604 155.161 146.418V94.003C155.161 89.8169 151.764 86.4233 147.573 86.4233Z" fill="white"/>
<path d="M147.573 86.4233H37.9511C33.7607 86.4233 30.3636 89.8169 30.3636 94.003V146.418C30.3636 150.604 33.7607 153.997 37.9511 153.997H147.573C151.764 153.997 155.161 150.604 155.161 146.418V94.003C155.161 89.8169 151.764 86.4233 147.573 86.4233Z" stroke="#AEAAD6" stroke-width="1.5" stroke-linecap="round" stroke-linejoin="round"/>
<path d="M39.6055 100.583L45.2417 94.9629" stroke="#AEAAD6" stroke-width="1.5" stroke-linecap="round" stroke-linejoin="round"/>
<path d="M39.6055 94.9629L45.2417 100.583" stroke="#AEAAD6" stroke-width="1.5" stroke-linecap="round" stroke-linejoin="round"/>
<path d="M62.4252 132.551L86.8883 107.504L101.748 132.551L126.238 121.185" stroke="#FC1264" stroke-width="1.5" stroke-linecap="round" stroke-linejoin="round"/>
<path d="M65.4186 132.551C65.4212 131.956 65.2468 131.373 64.9174 130.877C64.588 130.381 64.1185 129.994 63.5685 129.765C63.0185 129.536 62.4127 129.475 61.8282 129.591C61.2436 129.706 60.7065 129.993 60.2852 130.414C59.8638 130.834 59.5771 131.371 59.4615 131.955C59.3459 132.539 59.4066 133.144 59.6359 133.694C59.8652 134.243 60.2527 134.712 60.7493 135.041C61.2459 135.37 61.8291 135.544 62.425 135.542C63.219 135.542 63.9804 135.227 64.5418 134.666C65.1032 134.105 65.4186 133.344 65.4186 132.551Z" fill="white" stroke="#FC1264" stroke-width="1.5" stroke-linecap="round" stroke-linejoin="round"/>
<path d="M129.231 121.185C129.231 120.59 129.053 120.009 128.721 119.516C128.389 119.023 127.918 118.64 127.367 118.416C126.816 118.192 126.21 118.136 125.628 118.257C125.046 118.378 124.512 118.67 124.097 119.095C123.681 119.52 123.401 120.059 123.293 120.644C123.186 121.228 123.255 121.831 123.492 122.377C123.729 122.922 124.123 123.384 124.624 123.704C125.125 124.025 125.71 124.188 126.305 124.175C127.087 124.157 127.831 123.834 128.378 123.276C128.925 122.717 129.231 121.966 129.231 121.185Z" fill="white" stroke="#FC1264" stroke-width="1.5" stroke-linecap="round" stroke-linejoin="round"/>
<path d="M104.741 132.551C104.741 131.96 104.566 131.381 104.237 130.89C103.908 130.398 103.44 130.015 102.893 129.788C102.346 129.562 101.745 129.503 101.164 129.618C100.583 129.733 100.05 130.018 99.6311 130.436C99.2124 130.855 98.9273 131.388 98.8118 131.968C98.6963 132.548 98.7556 133.149 98.9821 133.695C99.2087 134.242 99.5924 134.709 100.085 135.037C100.577 135.366 101.156 135.541 101.748 135.541C102.542 135.541 103.303 135.226 103.865 134.666C104.426 134.105 104.741 133.344 104.741 132.551Z" fill="white" stroke="#FC1264" stroke-width="1.5" stroke-linecap="round" stroke-linejoin="round"/>
<path d="M89.9088 107.504C89.9088 106.913 89.7332 106.335 89.4043 105.843C89.0753 105.351 88.6078 104.968 88.0608 104.741C87.5138 104.515 86.9119 104.456 86.3312 104.571C85.7505 104.687 85.2171 104.971 84.7985 105.39C84.3798 105.808 84.0947 106.341 83.9792 106.921C83.8637 107.501 83.923 108.102 84.1496 108.649C84.3761 109.195 84.7598 109.662 85.2521 109.991C85.7444 110.319 86.3232 110.495 86.9152 110.495C87.7092 110.495 88.4706 110.18 89.032 109.619C89.5934 109.058 89.9088 108.297 89.9088 107.504Z" fill="white" stroke="#FC1264" stroke-width="1.5" stroke-linecap="round" stroke-linejoin="round"/>
<path d="M146.404 143.911C206.097 143.911 203.207 180.107 257.121 180.107" stroke="#1D1526" stroke-width="1.5" stroke-linecap="round" stroke-linejoin="round"/>
<path d="M263.16 179.756C263.16 179.387 263.087 179.022 262.946 178.681C262.804 178.34 262.597 178.03 262.336 177.769C262.075 177.508 261.765 177.301 261.423 177.16C261.082 177.019 260.716 176.946 260.347 176.946C259.976 176.943 259.608 177.014 259.264 177.154C258.921 177.294 258.608 177.501 258.345 177.762C258.081 178.023 257.872 178.334 257.73 178.676C257.587 179.018 257.514 179.385 257.514 179.756C257.514 180.501 257.81 181.216 258.338 181.743C258.865 182.27 259.581 182.566 260.327 182.566C260.698 182.569 261.066 182.498 261.41 182.358C261.753 182.218 262.066 182.011 262.329 181.75C262.592 181.489 262.801 181.178 262.944 180.836C263.086 180.494 263.16 180.127 263.16 179.756Z" fill="#1D1526" stroke="#1D1526" stroke-width="1.5" stroke-linecap="round" stroke-linejoin="round"/>
<path d="M148.876 143.528C148.876 143.155 148.802 142.787 148.658 142.443C148.514 142.1 148.304 141.788 148.038 141.527C147.773 141.265 147.458 141.059 147.112 140.92C146.766 140.781 146.396 140.712 146.023 140.718C145.277 140.718 144.562 141.014 144.034 141.541C143.507 142.068 143.21 142.782 143.21 143.528C143.208 143.898 143.278 144.266 143.419 144.609C143.559 144.953 143.766 145.265 144.027 145.528C144.289 145.791 144.6 146 144.942 146.142C145.285 146.284 145.652 146.358 146.023 146.358C146.398 146.363 146.769 146.294 147.117 146.154C147.464 146.013 147.78 145.805 148.045 145.542C148.311 145.278 148.521 144.964 148.664 144.619C148.807 144.273 148.879 143.902 148.876 143.528Z" fill="#1D1526" stroke="#1D1526" stroke-width="1.5" stroke-linecap="round" stroke-linejoin="round"/>
<g style="mix-blend-mode:multiply" opacity="0.45">
<g style="mix-blend-mode:multiply" opacity="0.45">
<path d="M112.346 236.472H17.6709C13.4804 236.472 10.0834 239.865 10.0834 244.051V378.566C10.0834 382.752 13.4804 386.145 17.6709 386.145H112.346C116.537 386.145 119.934 382.752 119.934 378.566V244.051C119.934 239.865 116.537 236.472 112.346 236.472Z" fill="#867FCE"/>
</g>
</g>
<path d="M107.076 231.208H12.401C8.21051 231.208 4.81348 234.601 4.81348 238.787V373.302C4.81348 377.488 8.21051 380.881 12.401 380.881H107.076C111.267 380.881 114.664 377.488 114.664 373.302V238.787C114.664 234.601 111.267 231.208 107.076 231.208Z" fill="white"/>
<path d="M107.076 231.208H12.401C8.21051 231.208 4.81348 234.601 4.81348 238.787V373.302C4.81348 377.488 8.21051 380.881 12.401 380.881H107.076C111.267 380.881 114.664 377.488 114.664 373.302V238.787C114.664 234.601 111.267 231.208 107.076 231.208Z" stroke="#AEAAD6" stroke-width="1.5" stroke-linecap="round" stroke-linejoin="round"/>
<path d="M14.0554 245.368L19.6816 239.747" stroke="#AEAAD6" stroke-width="1.5" stroke-linecap="round" stroke-linejoin="round"/>
<path d="M14.0554 239.747L19.6816 245.368" stroke="#AEAAD6" stroke-width="1.5" stroke-linecap="round" stroke-linejoin="round"/>
<path d="M71.6943 285.651V289.678C68.1424 292.006 63.9868 293.247 59.7385 293.247C55.4902 293.247 51.3346 292.006 47.7828 289.678V285.651C47.7828 282.483 49.0424 279.445 51.2845 277.205C53.5267 274.966 56.5677 273.707 59.7385 273.707C62.9094 273.707 65.9504 274.966 68.1925 277.205C70.4346 279.445 71.6943 282.483 71.6943 285.651ZM59.7385 271.322C61.0805 271.322 62.3923 270.925 63.5081 270.18C64.624 269.435 65.4936 268.377 66.0072 267.138C66.5207 265.9 66.6551 264.537 66.3933 263.222C66.1315 261.907 65.4853 260.699 64.5363 259.751C63.5874 258.803 62.3784 258.158 61.0622 257.896C59.746 257.635 58.3818 257.769 57.1419 258.282C55.9021 258.795 54.8424 259.664 54.0969 260.779C53.3513 261.893 52.9534 263.204 52.9534 264.544C52.9534 266.342 53.6682 268.066 54.9407 269.337C56.2132 270.608 57.939 271.322 59.7385 271.322Z" fill="#342A98"/>
<path fill-rule="evenodd" clip-rule="evenodd" d="M59.7389 250.354C48.085 250.354 38.639 259.791 38.639 271.431C38.639 283.071 48.085 292.509 59.7389 292.509C71.3927 292.509 80.8387 283.071 80.8387 271.431C80.8387 259.791 71.3927 250.354 59.7389 250.354ZM37.1562 271.431C37.1562 258.971 47.2675 248.871 59.7389 248.871C72.2102 248.871 82.3215 258.971 82.3215 271.431C82.3215 283.892 72.2102 293.991 59.7389 293.991C47.2675 293.991 37.1562 283.892 37.1562 271.431Z" fill="#1D1526"/>
<path d="M19.6816 311.902H14.0554V317.523H19.6816V311.902Z" fill="white" stroke="#AEAAD6" stroke-width="1.5" stroke-linecap="round" stroke-linejoin="round"/>
<path d="M99.9242 313.149H26.5851V317.523H99.9242V313.149Z" fill="#E8E2FF"/>
<path d="M99.9242 323.509H26.5851V327.883H99.9242V323.509Z" fill="#E8E2FF"/>
<path d="M73.3779 333.87H26.5851V338.243H73.3779V333.87Z" fill="#E8E2FF"/>
<path d="M19.6816 348.168H14.0554V353.788H19.6816V348.168Z" fill="white" stroke="#AEAAD6" stroke-width="1.5" stroke-linecap="round" stroke-linejoin="round"/>
<path d="M99.9242 349.415H26.5851V353.789H99.9242V349.415Z" fill="#E8E2FF"/>
<path d="M91.0292 359.775H26.5851V364.149H91.0292V359.775Z" fill="#867FCE"/>
<path d="M102.223 299.341C185.449 299.341 171.954 342.457 259.783 300.938" stroke="#1D1526" stroke-width="1.5" stroke-linecap="round" stroke-linejoin="round"/>
<path d="M263.16 300.081C263.16 300.827 262.864 301.543 262.336 302.071C261.809 302.6 261.093 302.898 260.346 302.901C259.6 302.898 258.884 302.6 258.357 302.071C257.829 301.543 257.533 300.827 257.533 300.081C257.533 299.335 257.83 298.621 258.357 298.094C258.885 297.567 259.6 297.271 260.346 297.271C261.093 297.271 261.808 297.567 262.336 298.094C262.863 298.621 263.16 299.335 263.16 300.081Z" fill="#1D1526" stroke="#1D1526" stroke-width="1.5" stroke-linecap="round" stroke-linejoin="round"/>
<path d="M105.188 298.968C105.188 299.713 104.892 300.428 104.364 300.955C103.837 301.482 103.121 301.778 102.375 301.778C101.629 301.778 100.913 301.482 100.386 300.955C99.8583 300.428 99.562 299.713 99.562 298.968C99.5618 298.228 99.8525 297.518 100.371 296.991C100.89 296.463 101.595 296.161 102.335 296.148C102.709 296.144 103.079 296.214 103.425 296.354C103.771 296.494 104.086 296.701 104.351 296.963C104.616 297.225 104.827 297.538 104.97 297.882C105.114 298.226 105.188 298.595 105.188 298.968Z" fill="#1D1526" stroke="#1D1526" stroke-width="1.5" stroke-linecap="round" stroke-linejoin="round"/>
<g style="mix-blend-mode:multiply" opacity="0.45">
<g style="mix-blend-mode:multiply" opacity="0.45">
<path d="M563.774 265.216H454.152C449.962 265.216 446.565 268.609 446.565 272.795V325.21C446.565 329.396 449.962 332.79 454.152 332.79H563.774C567.965 332.79 571.362 329.396 571.362 325.21V272.795C571.362 268.609 567.965 265.216 563.774 265.216Z" fill="#867FCE"/>
</g>
</g>
<path d="M558.505 259.952H448.883C444.692 259.952 441.295 263.345 441.295 267.531V319.946C441.295 324.132 444.692 327.526 448.883 327.526H558.505C562.696 327.526 566.093 324.132 566.093 319.946V267.531C566.093 263.345 562.696 259.952 558.505 259.952Z" fill="white"/>
<path d="M558.505 259.952H448.883C444.692 259.952 441.295 263.345 441.295 267.531V319.946C441.295 324.132 444.692 327.526 448.883 327.526H558.505C562.696 327.526 566.093 324.132 566.093 319.946V267.531C566.093 263.345 562.696 259.952 558.505 259.952Z" stroke="#AEAAD6" stroke-width="1.5" stroke-linecap="round" stroke-linejoin="round"/>
<path d="M450.537 274.122L456.173 268.491" stroke="#AEAAD6" stroke-width="1.5" stroke-linecap="round" stroke-linejoin="round"/>
<path d="M450.537 268.491L456.173 274.122" stroke="#AEAAD6" stroke-width="1.5" stroke-linecap="round" stroke-linejoin="round"/>
<path d="M469.768 297.482V287.682H472.036V295.634H476.95V297.482H469.768ZM481.593 297.594C480.79 297.594 480.076 297.426 479.451 297.09C478.835 296.754 478.345 296.297 477.981 295.718C477.626 295.13 477.449 294.463 477.449 293.716C477.449 292.96 477.626 292.293 477.981 291.714C478.345 291.126 478.835 290.669 479.451 290.342C480.076 290.006 480.79 289.838 481.593 289.838C482.386 289.838 483.095 290.006 483.721 290.342C484.346 290.669 484.836 291.122 485.191 291.7C485.545 292.279 485.723 292.951 485.723 293.716C485.723 294.463 485.545 295.13 485.191 295.718C484.836 296.297 484.346 296.754 483.721 297.09C483.095 297.426 482.386 297.594 481.593 297.594ZM481.593 295.802C481.957 295.802 482.283 295.718 482.573 295.55C482.862 295.382 483.091 295.144 483.259 294.836C483.427 294.519 483.511 294.146 483.511 293.716C483.511 293.278 483.427 292.904 483.259 292.596C483.091 292.288 482.862 292.05 482.573 291.882C482.283 291.714 481.957 291.63 481.593 291.63C481.229 291.63 480.902 291.714 480.613 291.882C480.323 292.05 480.09 292.288 479.913 292.596C479.745 292.904 479.661 293.278 479.661 293.716C479.661 294.146 479.745 294.519 479.913 294.836C480.09 295.144 480.323 295.382 480.613 295.55C480.902 295.718 481.229 295.802 481.593 295.802ZM488.699 297.482L485.983 289.95H488.041L490.295 296.432H489.315L491.667 289.95H493.515L495.797 296.432H494.817L497.141 289.95H499.073L496.343 297.482H494.229L492.227 291.924H492.871L490.799 297.482H488.699ZM508.897 297.65C508.141 297.65 507.437 297.529 506.783 297.286C506.139 297.034 505.579 296.68 505.103 296.222C504.627 295.765 504.254 295.228 503.983 294.612C503.722 293.996 503.591 293.32 503.591 292.582C503.591 291.845 503.722 291.168 503.983 290.552C504.254 289.936 504.627 289.4 505.103 288.942C505.589 288.485 506.153 288.135 506.797 287.892C507.441 287.64 508.146 287.514 508.911 287.514C509.761 287.514 510.526 287.664 511.207 287.962C511.898 288.252 512.477 288.681 512.943 289.25L511.487 290.594C511.151 290.212 510.778 289.927 510.367 289.74C509.957 289.544 509.509 289.446 509.023 289.446C508.566 289.446 508.146 289.521 507.763 289.67C507.381 289.82 507.049 290.034 506.769 290.314C506.489 290.594 506.27 290.926 506.111 291.308C505.962 291.691 505.887 292.116 505.887 292.582C505.887 293.049 505.962 293.474 506.111 293.856C506.27 294.239 506.489 294.57 506.769 294.85C507.049 295.13 507.381 295.345 507.763 295.494C508.146 295.644 508.566 295.718 509.023 295.718C509.509 295.718 509.957 295.625 510.367 295.438C510.778 295.242 511.151 294.948 511.487 294.556L512.943 295.9C512.477 296.47 511.898 296.904 511.207 297.202C510.526 297.501 509.756 297.65 508.897 297.65ZM517.645 297.594C516.843 297.594 516.129 297.426 515.503 297.09C514.887 296.754 514.397 296.297 514.033 295.718C513.679 295.13 513.501 294.463 513.501 293.716C513.501 292.96 513.679 292.293 514.033 291.714C514.397 291.126 514.887 290.669 515.503 290.342C516.129 290.006 516.843 289.838 517.645 289.838C518.439 289.838 519.148 290.006 519.773 290.342C520.399 290.669 520.889 291.122 521.243 291.7C521.598 292.279 521.775 292.951 521.775 293.716C521.775 294.463 521.598 295.13 521.243 295.718C520.889 296.297 520.399 296.754 519.773 297.09C519.148 297.426 518.439 297.594 517.645 297.594ZM517.645 295.802C518.009 295.802 518.336 295.718 518.625 295.55C518.915 295.382 519.143 295.144 519.311 294.836C519.479 294.519 519.563 294.146 519.563 293.716C519.563 293.278 519.479 292.904 519.311 292.596C519.143 292.288 518.915 292.05 518.625 291.882C518.336 291.714 518.009 291.63 517.645 291.63C517.281 291.63 516.955 291.714 516.665 291.882C516.376 292.05 516.143 292.288 515.965 292.596C515.797 292.904 515.713 293.278 515.713 293.716C515.713 294.146 515.797 294.519 515.965 294.836C516.143 295.144 516.376 295.382 516.665 295.55C516.955 295.718 517.281 295.802 517.645 295.802ZM526.469 297.594C525.76 297.594 525.12 297.436 524.551 297.118C523.982 296.792 523.529 296.339 523.193 295.76C522.866 295.182 522.703 294.5 522.703 293.716C522.703 292.923 522.866 292.237 523.193 291.658C523.529 291.08 523.982 290.632 524.551 290.314C525.12 289.997 525.76 289.838 526.469 289.838C527.104 289.838 527.659 289.978 528.135 290.258C528.611 290.538 528.98 290.963 529.241 291.532C529.502 292.102 529.633 292.83 529.633 293.716C529.633 294.594 529.507 295.322 529.255 295.9C529.003 296.47 528.639 296.894 528.163 297.174C527.696 297.454 527.132 297.594 526.469 297.594ZM526.847 295.802C527.202 295.802 527.524 295.718 527.813 295.55C528.102 295.382 528.331 295.144 528.499 294.836C528.676 294.519 528.765 294.146 528.765 293.716C528.765 293.278 528.676 292.904 528.499 292.596C528.331 292.288 528.102 292.05 527.813 291.882C527.524 291.714 527.202 291.63 526.847 291.63C526.483 291.63 526.156 291.714 525.867 291.882C525.578 292.05 525.344 292.288 525.167 292.596C524.999 292.904 524.915 293.278 524.915 293.716C524.915 294.146 524.999 294.519 525.167 294.836C525.344 295.144 525.578 295.382 525.867 295.55C526.156 295.718 526.483 295.802 526.847 295.802ZM528.821 297.482V295.942L528.863 293.702L528.723 291.476V287.094H530.907V297.482H528.821ZM536.666 297.594C535.808 297.594 535.052 297.426 534.398 297.09C533.754 296.754 533.255 296.297 532.9 295.718C532.546 295.13 532.368 294.463 532.368 293.716C532.368 292.96 532.541 292.293 532.886 291.714C533.241 291.126 533.722 290.669 534.328 290.342C534.935 290.006 535.621 289.838 536.386 289.838C537.124 289.838 537.786 289.997 538.374 290.314C538.972 290.622 539.443 291.07 539.788 291.658C540.134 292.237 540.306 292.932 540.306 293.744C540.306 293.828 540.302 293.926 540.292 294.038C540.283 294.141 540.274 294.239 540.264 294.332H534.146V293.058H539.116L538.276 293.436C538.276 293.044 538.197 292.704 538.038 292.414C537.88 292.125 537.66 291.901 537.38 291.742C537.1 291.574 536.774 291.49 536.4 291.49C536.027 291.49 535.696 291.574 535.406 291.742C535.126 291.901 534.907 292.13 534.748 292.428C534.59 292.718 534.51 293.063 534.51 293.464V293.8C534.51 294.211 534.599 294.575 534.776 294.892C534.963 295.2 535.22 295.438 535.546 295.606C535.882 295.765 536.274 295.844 536.722 295.844C537.124 295.844 537.474 295.784 537.772 295.662C538.08 295.541 538.36 295.359 538.612 295.116L539.774 296.376C539.429 296.768 538.995 297.072 538.472 297.286C537.95 297.492 537.348 297.594 536.666 297.594Z" fill="#1D1526"/>
<path d="M325.255 276.985C392.983 276.985 389.705 316.375 450.877 316.375" stroke="#1D1526" stroke-width="1.5" stroke-linecap="round" stroke-linejoin="round"/>
<path d="M454.383 315.991C454.383 315.246 454.087 314.531 453.56 314.004C453.032 313.477 452.316 313.181 451.57 313.181C450.823 313.181 450.107 313.477 449.578 314.004C449.049 314.53 448.75 315.245 448.747 315.991C448.75 316.738 449.049 317.452 449.578 317.979C450.107 318.506 450.823 318.802 451.57 318.802C452.316 318.802 453.032 318.506 453.56 317.978C454.087 317.451 454.383 316.737 454.383 315.991Z" fill="#1D1526" stroke="#1D1526" stroke-width="1.5" stroke-linecap="round" stroke-linejoin="round"/>
<path d="M325.563 276.649C325.563 275.903 325.267 275.188 324.74 274.661C324.212 274.134 323.496 273.838 322.75 273.838C322.004 273.838 321.289 274.134 320.761 274.661C320.234 275.188 319.937 275.903 319.937 276.649C319.937 277.394 320.234 278.109 320.761 278.636C321.289 279.163 322.004 279.459 322.75 279.459C323.496 279.459 324.212 279.163 324.74 278.636C325.267 278.109 325.563 277.394 325.563 276.649Z" fill="#1D1526" stroke="#1D1526" stroke-width="1.5" stroke-linecap="round" stroke-linejoin="round"/>
<g style="mix-blend-mode:multiply" opacity="0.45">
<g style="mix-blend-mode:multiply" opacity="0.45">
<path d="M464.357 358.383H333.29C329.1 358.383 325.703 361.776 325.703 365.962V371.286C325.703 375.472 329.1 378.866 333.29 378.866H464.357C468.548 378.866 471.945 375.472 471.945 371.286V365.962C471.945 361.776 468.548 358.383 464.357 358.383Z" fill="#867FCE"/>
</g>
</g>
<path d="M459.088 353.119H328.021C323.83 353.119 320.433 356.512 320.433 360.698V366.022C320.433 370.208 323.83 373.602 328.021 373.602H459.088C463.278 373.602 466.676 370.208 466.676 366.022V360.698C466.676 356.512 463.278 353.119 459.088 353.119Z" stroke="#AEAAD6" stroke-width="1.5" stroke-linecap="round" stroke-linejoin="round"/>
<path d="M459.087 353.119H328.02C323.83 353.119 320.433 356.512 320.433 360.698V366.022C320.433 370.208 323.83 373.602 328.02 373.602H459.087C463.278 373.602 466.675 370.208 466.675 366.022V360.698C466.675 356.512 463.278 353.119 459.087 353.119Z" fill="white"/>
<path d="M329.674 366.23L335.311 360.609" stroke="#AEAAD6" stroke-width="1.5" stroke-linecap="round" stroke-linejoin="round"/>
<path d="M329.674 360.609L335.311 366.23" stroke="#AEAAD6" stroke-width="1.5" stroke-linecap="round" stroke-linejoin="round"/>
<path d="M454.778 360.016H347.969C347.081 360.016 346.229 360.368 345.602 360.995C344.974 361.622 344.621 362.473 344.621 363.36C344.621 364.247 344.974 365.098 345.602 365.725C346.229 366.352 347.081 366.705 347.969 366.705H454.778C455.666 366.705 456.518 366.352 457.146 365.725C457.773 365.098 458.126 364.247 458.126 363.36C458.123 362.474 457.77 361.625 457.143 360.998C456.515 360.371 455.665 360.018 454.778 360.016Z" fill="#E8E2FF"/>
<path d="M433.937 360.016H347.969C347.081 360.016 346.229 360.368 345.602 360.995C344.974 361.622 344.621 362.473 344.621 363.36C344.621 364.247 344.974 365.098 345.602 365.725C346.229 366.352 347.081 366.705 347.969 366.705H433.937V360.016Z" fill="#FC1264"/>
<path d="M286.497 351.189C303.266 351.189 302.454 363.894 317.609 363.894" stroke="#1D1526" stroke-width="1.5" stroke-linecap="round" stroke-linejoin="round"/>
<path d="M323.246 363.894C323.246 363.149 322.95 362.434 322.422 361.907C321.895 361.38 321.179 361.084 320.433 361.084C319.686 361.084 318.969 361.38 318.44 361.906C317.911 362.433 317.613 363.148 317.61 363.894C317.613 364.64 317.911 365.355 318.44 365.882C318.969 366.409 319.686 366.704 320.433 366.704C321.179 366.704 321.895 366.408 322.422 365.881C322.95 365.354 323.246 364.64 323.246 363.894Z" fill="#1D1526" stroke="#1D1526" stroke-width="1.5" stroke-linecap="round" stroke-linejoin="round"/>
<path d="M286.497 351.189C286.494 350.442 286.196 349.728 285.667 349.201C285.138 348.674 284.421 348.378 283.674 348.378C282.928 348.378 282.212 348.674 281.685 349.202C281.157 349.729 280.861 350.443 280.861 351.189C280.861 351.934 281.157 352.649 281.685 353.176C282.212 353.703 282.928 353.999 283.674 353.999C284.421 353.999 285.138 353.703 285.667 353.176C286.196 352.65 286.494 351.935 286.497 351.189Z" fill="#1D1526" stroke="#1D1526" stroke-width="1.5" stroke-linecap="round" stroke-linejoin="round"/>
<g style="mix-blend-mode:multiply" opacity="0.45">
<g style="mix-blend-mode:multiply" opacity="0.45">
<path d="M500.476 108.721H446.7C442.51 108.721 439.113 112.115 439.113 116.301V211.71C439.113 215.896 442.51 219.289 446.7 219.289H500.476C504.667 219.289 508.064 215.896 508.064 211.71V116.301C508.064 112.115 504.667 108.721 500.476 108.721Z" fill="#867FCE"/>
</g>
</g>
<path d="M495.207 103.457H441.431C437.24 103.457 433.843 106.851 433.843 111.037V206.446C433.843 210.632 437.24 214.025 441.431 214.025H495.207C499.397 214.025 502.794 210.632 502.794 206.446V111.037C502.794 106.851 499.397 103.457 495.207 103.457Z" fill="white"/>
<path d="M495.207 103.457H441.431C437.24 103.457 433.843 106.851 433.843 111.037V206.446C433.843 210.632 437.24 214.025 441.431 214.025H495.207C499.397 214.025 502.794 210.632 502.794 206.446V111.037C502.794 106.851 499.397 103.457 495.207 103.457Z" stroke="#AEAAD6" stroke-width="1.5" stroke-linecap="round" stroke-linejoin="round"/>
<path d="M443.085 117.617L448.721 111.997" stroke="#AEAAD6" stroke-width="1.5" stroke-linecap="round" stroke-linejoin="round"/>
<path d="M443.085 111.997L448.721 117.617" stroke="#AEAAD6" stroke-width="1.5" stroke-linecap="round" stroke-linejoin="round"/>
<path d="M451.19 159.049L462.224 163.391V160.428L455.124 157.747L462.224 155.039V152.102L451.19 156.419V159.049ZM470.021 146.994L464.632 165H467.263L472.677 146.994H470.021ZM475.059 160.428V163.391L486.093 159.049V156.419L475.059 152.102V155.039L482.159 157.747L475.059 160.428Z" fill="#1D1526"/>
<path d="M341.224 229.079C380.631 229.079 378.519 215.062 422.15 215.062C427.788 215.062 433.195 214.113 437.184 212.424C441.173 210.736 443.418 208.445 443.424 206.055V202.464" stroke="#1D1526" stroke-width="1.5" stroke-linecap="round" stroke-linejoin="round"/>
<path d="M335.469 229.231C335.469 228.486 335.766 227.771 336.293 227.244C336.821 226.717 337.536 226.421 338.283 226.421C339.029 226.421 339.744 226.717 340.272 227.244C340.799 227.771 341.096 228.486 341.096 229.231C341.096 229.976 340.799 230.691 340.272 231.218C339.744 231.745 339.029 232.041 338.283 232.041C337.536 232.041 336.821 231.745 336.293 231.218C335.766 230.691 335.469 229.976 335.469 229.231Z" fill="#1D1526" stroke="#1D1526" stroke-width="1.5" stroke-linecap="round" stroke-linejoin="round"/>
<path d="M440.231 203.145C440.231 202.399 440.527 201.685 441.055 201.158C441.582 200.631 442.298 200.334 443.044 200.334C443.79 200.334 444.505 200.631 445.033 201.158C445.561 201.685 445.857 202.399 445.857 203.145C445.857 203.891 445.561 204.607 445.034 205.135C444.506 205.664 443.791 205.962 443.044 205.965C442.297 205.962 441.581 205.664 441.054 205.135C440.527 204.607 440.231 203.891 440.231 203.145Z" fill="#1D1526" stroke="#1D1526" stroke-width="1.5" stroke-linecap="round" stroke-linejoin="round"/>
</svg>
