<svg width="576" height="320" viewBox="0 0 576 320" fill="none" xmlns="http://www.w3.org/2000/svg">
<g clip-path="url(#clip0_7120_55265)">
<path opacity="0.5" d="M204.045 79.4929C282.734 40.754 363.602 -9.92953 455.042 10.812C483.37 17.2685 509.196 33.329 526.628 56.6531C573.276 119.12 569.483 214.756 544.141 285.052C540.832 294.252 536.716 303.13 531.39 311.281C505.725 350.989 462.386 352.845 420.58 341.384C385.231 331.7 353.917 321.692 317.357 331.538C297.1 337.026 277.488 344.532 257.392 350.262C229.952 358.01 201.705 363.337 173.054 363.902C97.4325 365.354 11.0769 326.777 4.37831 242.358C3.97478 236.87 3.89407 231.382 4.13619 225.894C5.66961 192.159 16.8071 158.424 47.6368 140.91C78.7087 123.316 115.511 116.376 148.681 103.866C167.566 96.8448 185.887 88.3706 204.045 79.4929Z" fill="#E8E2FF"/>
<path d="M46.2781 240.794C42.6647 238.528 38.5795 237.122 34.3369 236.683C32.3859 236.483 30.252 236.535 28.6842 237.72C28.5047 237.823 28.3564 237.973 28.2552 238.154C28.154 238.335 28.1036 238.54 28.1094 238.747C28.1964 239.044 28.3925 239.296 28.6581 239.453C31.1932 241.263 34.1752 242.344 37.2811 242.581C40.3869 242.817 43.4983 242.199 46.2781 240.794Z" fill="#AEAAD6"/>
<path d="M45.9733 240.455C43.2048 238.426 40.6223 236.156 38.2564 233.67C35.8838 231.167 34.216 228.081 33.4224 224.725C33.266 224.229 33.2193 223.704 33.2855 223.189C33.3516 222.673 33.5291 222.178 33.8057 221.737C39.9548 226.536 44.7801 232.746 45.9995 240.455" fill="#AEAAD6"/>
<path d="M46.2172 240.707C45.6402 237.354 45.6874 233.923 46.3565 230.586C47.0441 227.223 48.9678 224.239 51.7479 222.225C52.8105 224.707 52.3576 227.573 51.6086 230.168C50.4466 234.187 48.6406 237.99 46.2607 241.43" fill="#AEAAD6"/>
<path d="M52.2357 251.542C48.5776 251.986 45.3985 253.92 42.6549 256.393C39.9124 258.891 38.0056 262.172 37.1938 265.791C40.7822 265.574 43.8307 263.039 46.0343 260.2C48.2379 257.36 49.7708 254.251 52.2009 251.594" fill="#AEAAD6"/>
<path d="M53.5509 253.267C52.1094 249.61 51.6037 245.652 52.0798 241.75C52.5559 237.849 53.9986 234.128 56.2771 230.926C58.3588 238.347 57.5923 246.717 53.5509 253.267Z" fill="#AEAAD6"/>
<path d="M61.5117 262.752C58.1681 262.545 54.8375 263.326 51.9339 264.997C49.0304 266.668 46.682 269.155 45.1807 272.15C44.9804 272.559 44.7975 273.073 45.0675 273.43C45.2096 273.568 45.3828 273.669 45.5724 273.725C45.7619 273.781 45.9622 273.79 46.1562 273.753C49.3701 273.544 52.2531 271.61 54.5786 269.398C56.9042 267.185 58.9858 264.651 61.5465 262.743" fill="#AEAAD6"/>
<path d="M61.2591 262.238C59.5439 256.718 59.4381 250.823 60.9543 245.245C61.5552 243.059 62.5569 240.759 64.5776 239.731C64.6591 239.678 64.7505 239.643 64.8464 239.626C64.9422 239.61 65.0405 239.613 65.135 239.636C65.2995 239.718 65.4247 239.862 65.4834 240.036C66.1716 241.565 66.4708 243.241 66.3544 244.914C66.2361 246.578 65.9826 248.229 65.5966 249.852C64.9521 252.866 64.6211 256.106 62.9837 258.702C62.5932 259.33 62.2413 259.981 61.9298 260.653C61.6162 261.314 61.6162 261.524 61.3288 262.072" fill="#AEAAD6"/>
<path d="M82.337 265.374C80.7692 259.433 82.4328 252.23 86.178 247.362C86.448 247.004 86.8138 246.621 87.2667 246.665C87.9548 246.726 88.1377 247.649 88.1377 248.337C87.8531 254.445 85.8549 260.349 82.3718 265.374" fill="#AEAAD6"/>
<path d="M84.227 266.671C87.9118 267.543 91.7418 267.605 95.4529 266.853C99.1641 266.101 102.668 264.553 105.723 262.316C102.126 260.51 98.0139 260.005 94.0865 260.888C90.2019 261.759 86.6483 263.501 84.227 266.689" fill="#AEAAD6"/>
<path d="M85.8383 262.717C89.8797 256.132 97.6315 251.83 105.348 251.394C104.477 254.539 101.864 256.977 98.9641 258.449C95.9835 259.788 92.833 260.712 89.601 261.193C88.3555 261.428 86.6483 261.698 85.8383 262.674" fill="#AEAAD6"/>
<path d="M82.7376 243.529C83.9627 239.817 84.7975 235.987 85.2286 232.102C85.6637 228.183 84.8693 224.226 82.9553 220.779C79.184 228.087 78.8008 236.623 82.6244 243.904" fill="#AEAAD6"/>
<path d="M95.4453 237.101C99.8612 229.08 108.867 222.669 117.986 221.772C114.502 230.482 104.878 237.293 95.4453 237.101Z" fill="#AEAAD6"/>
<path d="M92.6668 238.678C99.2515 239.679 104.861 243.904 111.018 246.429C112.307 247.054 113.736 247.33 115.164 247.231C115.829 247.223 116.476 247.012 117.017 246.625C117.558 246.238 117.967 245.695 118.19 245.068C118.412 244.441 118.436 243.761 118.26 243.12C118.083 242.479 117.714 241.907 117.202 241.482C116.328 240.68 115.304 240.059 114.189 239.653C107.482 236.866 100.253 236.796 93.233 238.486" fill="#AEAAD6"/>
<path d="M88.8607 243.32C90.35 243.747 90.8639 244.522 92.0398 245.524C96.0718 248.95 100.841 251.397 105.976 252.675C106.516 252.805 107.212 252.857 107.474 252.378C107.735 251.899 107.413 251.446 107.108 251.072C104.875 248.45 101.973 246.482 98.7115 245.376C95.4976 244.174 92.7191 242.763 88.8868 243.041" fill="#AEAAD6"/>
<path d="M84.558 215.449C87.2594 217.936 90.4508 219.831 93.9276 221.013C97.4043 222.195 101.09 222.638 104.747 222.312C105.068 222.309 105.377 222.192 105.618 221.981C106.132 221.432 105.523 220.579 104.93 220.117C99.0338 215.449 91.8481 213.524 84.558 215.449Z" fill="#AEAAD6"/>
<path d="M89.6619 213.532C93.2332 210.898 97.377 209.146 101.755 208.42C106.133 207.693 110.62 208.012 114.851 209.352C111.548 212.388 107.322 214.229 102.849 214.578C98.4258 215.006 93.9621 214.652 89.6619 213.532Z" fill="#AEAAD6"/>
<path d="M87.6325 200.72C87.049 194.797 87.4235 190.12 87.0141 184.171C87.0141 183.701 86.8835 183.126 86.4393 182.952C85.8209 182.717 85.2983 183.475 85.098 184.11C84.2342 186.869 84.0128 189.789 84.4505 192.647C84.8883 195.505 85.9737 198.224 87.6238 200.598" fill="#AEAAD6"/>
<path d="M87.2058 201.373C91.0803 198.862 94.417 195.605 97.0218 191.793C98.9554 189.18 100.593 185.966 100.149 182.708C98.7864 182.741 97.4477 183.07 96.225 183.672C95.0024 184.273 93.925 185.133 93.0675 186.192C91.3635 188.357 90.1322 190.856 89.4529 193.526C88.669 196.139 88.1203 198.813 87.1971 201.365" fill="#AEAAD6"/>
<path d="M96.8476 198.691C105.684 195.423 113.863 190.6 121 184.45C118.108 183.292 114.807 183.988 111.924 185.156C105.377 187.634 99.9656 192.428 96.7169 198.63" fill="#AEAAD6"/>
<path d="M89.9146 204.614C94.3617 205.246 98.8743 205.27 103.328 204.683C107.683 203.952 111.785 202.227 115.844 200.52C116.206 200.424 116.517 200.193 116.715 199.876C116.779 199.687 116.785 199.484 116.73 199.292C116.676 199.101 116.564 198.93 116.41 198.804C116.096 198.556 115.73 198.383 115.339 198.299C110.923 197.071 106.158 197.646 101.812 199.109C97.6705 200.523 93.6886 202.368 89.932 204.614" fill="#AEAAD6"/>
<path d="M64.4643 215.605C61.4159 209.465 61.6162 202.297 64.2466 195.973C66.0931 198.787 66.3195 202.375 65.9886 205.737C65.6576 209.099 64.6298 212.54 64.5601 215.91" fill="#AEAAD6"/>
<path d="M52.3054 209.474C48.4996 209.428 44.7259 210.174 41.2245 211.666C37.7231 213.158 34.5707 215.363 31.9679 218.14C35.8077 218.607 39.6984 217.886 43.1165 216.076C46.5174 214.276 49.7273 212.137 52.6973 209.691" fill="#AEAAD6"/>
<path d="M44.1617 206.739C40.4426 206.434 36.8715 205.972 33.3005 207.07C31.4913 207.572 29.8124 208.46 28.3795 209.674C26.9466 210.887 25.7936 212.397 25 214.099C28.5052 214.382 32.0221 213.717 35.1818 212.174C38.3303 210.632 41.3354 208.813 44.1617 206.739Z" fill="#AEAAD6"/>
<path d="M56.2336 206.869C52.8716 204.674 49.466 202.445 45.5727 201.513C41.6794 200.581 37.1677 201.278 34.4589 204.213C37.6032 206.059 41.4268 206.277 45.0762 206.277C48.7257 206.277 53.2112 206.277 56.6516 207.453" fill="#AEAAD6"/>
<path d="M56.2597 207.043C50.546 201.434 48.4208 191.366 50.6766 183.684C55.1789 190.592 57.1515 198.846 56.2597 207.043Z" fill="#AEAAD6"/>
<path d="M71.9635 191.148C73.0435 188.64 73.8013 186.018 74.7681 183.466C75.6502 180.875 77.0058 178.471 78.7659 176.376C80.5522 174.275 83.0916 172.958 85.8383 172.709C84.961 176.576 83.2863 180.217 80.9211 183.4C78.5559 186.582 75.5525 189.236 72.1029 191.192" fill="#AEAAD6"/>
<path d="M69.1241 194.458C67.3822 192.011 65.2831 188.675 62.8617 186.846C60.4404 185.017 57.2961 183.902 54.3435 184.607C55.875 187.288 58.0109 189.574 60.5814 191.285C63.1519 192.995 66.086 194.081 69.1503 194.458" fill="#AEAAD6"/>
<path d="M69.6902 191.348C68.4091 188.422 67.4653 185.36 66.8769 182.22C66.2835 179.056 66.7874 175.784 68.3054 172.944C71.4409 178.876 72.4513 185.234 69.8557 191.418" fill="#AEAAD6"/>
<path d="M72.0332 172.945C73.7752 167.065 79.184 162.737 85.0022 160.751C85.7231 160.462 86.5016 160.346 87.2754 160.411C87.661 160.455 88.0252 160.611 88.3226 160.861C88.62 161.11 88.8374 161.441 88.9477 161.813C89.1568 162.815 88.338 163.703 87.5542 164.374C83.0131 168.251 77.7331 171.166 72.0332 172.945Z" fill="#AEAAD6"/>
<path d="M72.0332 168.137C72.2596 164.348 72.4948 160.507 73.7316 156.91C74.9684 153.312 77.3375 149.942 80.7953 148.383C81.3789 152.206 79.6891 156.021 77.651 159.313C75.6129 162.606 73.1655 165.715 71.9374 169.391" fill="#AEAAD6"/>
<path d="M71.9635 170.75C70.5003 166.464 70.3435 161.021 67.7828 157.293C65.9885 154.68 63.1143 152.938 61.5727 150.142C60.6397 152.793 60.7676 155.701 61.9298 158.26C63.0999 160.786 64.7069 163.086 66.6766 165.053C68.5754 167.074 70.1606 168.598 71.9635 170.75Z" fill="#AEAAD6"/>
<path d="M72.0332 296.886C71.92 296.886 71.8155 268.309 71.8068 233.069C71.7981 197.829 71.8503 169.286 71.9636 169.286C72.0768 169.286 72.1813 197.855 72.19 233.103C72.1987 268.352 72.1116 296.886 72.0332 296.886Z" fill="#AEAAD6"/>
<path d="M96.9608 211.294C96.6161 211.459 96.2576 211.593 95.8895 211.695L92.9369 212.696C90.4371 213.567 87.0142 214.769 83.3038 216.293C79.5934 217.818 76.153 219.159 74.1758 220.866C73.3837 221.52 72.7545 222.349 72.3381 223.287C72.0506 223.958 72.0071 224.367 71.9635 224.359C71.9482 224.261 71.9482 224.161 71.9635 224.063C71.9999 223.765 72.0701 223.473 72.1726 223.192C72.5318 222.192 73.1298 221.295 73.9145 220.579C75.1087 219.571 76.4438 218.744 77.8775 218.122C79.4627 217.382 81.2221 216.607 83.1034 215.84C86.8313 214.316 90.2804 213.123 92.7975 212.357C94.0604 211.965 95.0882 211.668 95.8024 211.486C96.1819 211.386 96.5696 211.322 96.9608 211.294Z" fill="#AEAAD6"/>
<path d="M105.131 191.192C105.044 191.31 104.945 191.418 104.835 191.514L103.911 192.385L100.488 195.494C97.5357 198.107 93.5204 201.696 89.0958 205.641C84.6712 209.587 80.8215 213.367 78.1301 216.215C76.7975 217.635 75.7436 218.828 75.0294 219.638L74.202 220.579C74.1122 220.697 74.0068 220.803 73.8884 220.892C73.959 220.764 74.0406 220.641 74.1323 220.527C74.3065 220.3 74.5591 219.96 74.9075 219.534C75.5868 218.663 76.6059 217.469 77.9124 216.05C81.3605 212.279 85.0094 208.697 88.8432 205.319C93.3027 201.365 97.3615 197.82 100.314 195.259L103.798 192.254L104.765 191.444C105.017 191.27 105.131 191.174 105.131 191.192Z" fill="#AEAAD6"/>
<path d="M84.3141 209.648C84.2009 209.596 85.1241 207.453 86.0561 204.744C86.988 202.036 87.4235 199.771 87.5455 199.771C87.4465 201.525 87.0763 203.252 86.448 204.892C86.0574 206.053 85.6068 207.193 85.098 208.307C84.9036 208.79 84.6395 209.242 84.3141 209.648Z" fill="#AEAAD6"/>
<path d="M72.0332 226.946C71.7751 226.705 71.5443 226.436 71.3451 226.144L69.6032 223.897C68.1312 221.99 66.1192 219.359 63.8111 216.476C61.503 213.593 59.4562 211.015 57.8971 209.151C57.1829 208.28 56.5819 207.514 56.1029 206.93C55.867 206.662 55.6597 206.37 55.4845 206.059C55.757 206.282 56.0052 206.533 56.2248 206.808C56.6865 207.305 57.331 208.036 58.1236 208.942C59.7001 210.763 61.8427 213.297 64.1334 216.206C66.4241 219.115 68.4273 221.754 69.8383 223.705C70.5525 224.681 71.11 225.447 71.4932 226.04C71.6982 226.326 71.8788 226.629 72.0332 226.946Z" fill="#AEAAD6"/>
<path d="M66.546 219.917C65.4443 218.693 64.6579 217.219 64.2553 215.623C63.8203 214.214 63.6432 212.739 63.7327 211.268H63.9156C63.8372 211.599 63.7763 211.773 63.7414 211.764C63.7066 211.755 63.7414 211.573 63.7414 211.233H63.9243C64.0168 212.657 64.2621 214.068 64.656 215.44C65.1741 216.977 65.8059 218.473 66.546 219.917Z" fill="#AEAAD6"/>
<path d="M59.4823 211.024C58.9839 210.656 58.4465 210.343 57.8797 210.092C56.437 209.665 54.9206 209.546 53.429 209.744C51.9193 209.861 50.4219 210.103 48.9521 210.467C48.3511 210.657 47.7368 210.803 47.1143 210.902C47.6565 210.577 48.2434 210.334 48.8563 210.179C50.3299 209.725 51.8485 209.433 53.3854 209.308C54.9303 209.104 56.5015 209.275 57.9668 209.805C58.5983 210.023 59.1342 210.454 59.4823 211.024Z" fill="#AEAAD6"/>
<path d="M57.8013 208.873C57.8013 208.934 56.8693 208.498 55.3451 208.002C51.3737 206.636 47.1182 206.312 42.9858 207.061C41.4006 207.34 40.4425 207.636 40.4251 207.575C40.4077 207.514 40.6516 207.444 41.0784 207.296C41.6817 207.081 42.2985 206.907 42.9249 206.774C47.1118 205.84 51.4811 206.164 55.4845 207.705C56.0823 207.923 56.6643 208.182 57.2264 208.481C57.601 208.716 57.8187 208.846 57.8013 208.873Z" fill="#AEAAD6"/>
<path d="M71.9635 199.771C71.2412 197.739 70.6449 195.666 70.178 193.561C69.5836 191.487 69.1181 189.378 68.7844 187.246C69.517 189.275 70.1163 191.349 70.5787 193.456C71.177 195.529 71.6396 197.638 71.9635 199.771Z" fill="#AEAAD6"/>
<path d="M72.0768 199.771C71.5038 198.487 70.8431 197.245 70.0996 196.052C69.2584 194.928 68.2779 193.915 67.1818 193.038C67.5959 193.145 67.9802 193.344 68.3054 193.622C69.1345 194.229 69.8559 194.971 70.4393 195.817C71.3264 196.966 71.8916 198.331 72.0768 199.771Z" fill="#AEAAD6"/>
<path d="M72.0332 281.643C71.9897 281.643 71.9026 280.955 71.5803 279.745C71.108 278.037 70.4691 276.38 69.6728 274.798C66.9199 269.626 63.5156 264.828 59.5433 260.522C57.2787 257.909 55.0838 255.496 53.2199 253.162C51.5483 251.11 50.0371 248.932 48.6995 246.647C47.8006 245.105 47.0371 243.488 46.4175 241.813C46.2085 241.221 46.0604 240.751 45.9733 240.428C45.9159 240.271 45.8778 240.107 45.8601 239.941C45.8601 239.941 46.104 240.594 46.5743 241.752C47.2472 243.392 48.042 244.979 48.9521 246.499C50.3087 248.737 51.8222 250.877 53.4812 252.901C55.3538 255.209 57.5487 257.639 59.8133 260.226C64.3947 265.365 67.9744 270.538 69.8993 274.641C70.6823 276.248 71.2869 277.936 71.7022 279.675C71.8329 280.293 71.92 280.781 71.9548 281.112C71.9983 281.286 72.0245 281.464 72.0332 281.643Z" fill="#AEAAD6"/>
<path d="M94.5569 256.167C94.1752 256.411 93.7797 256.632 93.3723 256.829C92.3094 257.432 91.2907 258.111 90.3239 258.858C88.887 259.975 87.5415 261.204 86.2999 262.534C84.8802 264.023 83.4257 265.757 81.945 267.621C78.9662 271.348 76.1878 274.649 74.5242 277.28C73.6532 278.586 73.0697 279.684 72.6603 280.459C72.4756 280.866 72.2662 281.262 72.0332 281.643C72.0332 281.643 72.0332 281.521 72.1377 281.304C72.2422 281.086 72.3468 280.772 72.5384 280.381C73.0511 279.257 73.6329 278.166 74.2803 277.114C76.5321 273.722 78.9808 270.465 81.614 267.359C83.1034 265.495 84.5754 263.762 86.0125 262.264C87.2834 260.936 88.6645 259.718 90.141 258.623C91.1396 257.888 92.2004 257.241 93.3114 256.69C93.7033 256.489 94.0256 256.367 94.2346 256.28C94.4437 256.193 94.5569 256.15 94.5569 256.167Z" fill="#AEAAD6"/>
<path d="M95.0011 264.433C94.1775 264.613 93.3422 264.736 92.5014 264.799C90.4926 265.005 88.507 265.395 86.57 265.966C84.6563 266.587 82.8625 267.529 81.2657 268.753C80.0376 269.694 79.4627 270.495 79.4105 270.434C79.3582 270.373 79.5063 270.207 79.7763 269.859C80.1645 269.371 80.6024 268.924 81.0828 268.526C82.6652 267.207 84.4868 266.205 86.448 265.574C88.4097 264.988 90.4319 264.629 92.4752 264.502C93.3132 264.401 94.1588 264.378 95.0011 264.433Z" fill="#AEAAD6"/>
<path d="M80.1333 269.52C80.0114 269.45 81.135 267.725 82.006 265.417C82.8769 263.109 83.0163 261.062 83.1644 261.062C83.2409 261.506 83.2409 261.96 83.1644 262.404C83.0453 263.482 82.8027 264.543 82.4415 265.565C82.0602 266.581 81.5726 267.553 80.9869 268.466C80.4992 269.145 80.1856 269.554 80.1333 269.52Z" fill="#AEAAD6"/>
<path d="M101.864 233.966C101.742 234.057 101.607 234.131 101.464 234.184L100.288 234.715C99.7741 234.933 99.1557 235.22 98.4502 235.586C97.7447 235.952 96.9172 236.326 96.0637 236.84L94.6962 237.615C94.2259 237.885 93.7556 238.216 93.2591 238.486C92.2575 239.096 91.2471 239.854 90.1758 240.62C85.5692 244.044 81.5532 248.199 78.2869 252.918C77.5552 254.016 76.841 255.052 76.2662 256.08C75.9701 256.585 75.6565 257.064 75.3952 257.543L74.6462 258.998C74.1584 259.869 73.7752 260.74 73.4703 261.428C73.1655 262.116 72.8606 262.778 72.6603 263.301C72.46 263.823 72.2945 264.172 72.1726 264.485C72.1208 264.628 72.0537 264.766 71.9722 264.895C71.991 264.744 72.0321 264.597 72.0942 264.459C72.1987 264.137 72.338 263.736 72.5122 263.24C72.6864 262.743 72.9303 262.064 73.2613 261.332C73.5923 260.601 73.9058 259.756 74.3849 258.867L75.0904 257.456C75.3429 256.969 75.6391 256.481 75.9613 255.967C76.5275 254.922 77.233 253.877 77.9646 252.762C81.2249 247.981 85.2747 243.79 89.9407 240.368C91.0294 239.61 92.0484 238.861 93.0675 238.26C93.5727 237.955 94.043 237.633 94.5307 237.389L95.9156 236.631C96.7866 236.126 97.6576 235.76 98.337 235.42C99.0163 235.081 99.6957 234.811 100.218 234.61L101.429 234.149C101.568 234.074 101.714 234.012 101.864 233.966Z" fill="#AEAAD6"/>
<path d="M84.0092 245.933C84.178 245.355 84.5219 244.844 84.9935 244.47C86.0929 243.516 87.4926 242.98 88.9477 242.954C90.3752 242.948 91.7899 243.224 93.111 243.764C93.6696 243.945 94.2002 244.203 94.6875 244.531C94.1155 244.423 93.5554 244.26 93.0152 244.043C91.7091 243.594 90.3376 243.365 88.9564 243.364C87.5896 243.395 86.2685 243.862 85.1851 244.696C84.7651 245.081 84.3722 245.494 84.0092 245.933Z" fill="#AEAAD6"/>
<path d="M81.3353 248.686C81.8736 247.533 82.26 246.315 82.485 245.062C82.5664 243.785 82.4845 242.503 82.2412 241.247C82.2412 241.247 82.5112 241.613 82.7028 242.31C82.9414 243.222 83.0094 244.169 82.9031 245.106C82.7867 246.047 82.4911 246.958 82.0321 247.788C81.6837 248.389 81.3789 248.72 81.3353 248.686Z" fill="#AEAAD6"/>
<path d="M52.2618 285.746C52.8715 296.668 56.1639 307.773 61.2243 319H83.2341C88.068 307.878 91.1252 296.79 91.6739 285.746H52.2618Z" fill="#AEAAD6"/>
<path d="M88.1029 303.418C88.1029 303.531 80.8563 303.618 71.92 303.618C62.9837 303.618 55.7371 303.531 55.7371 303.418C55.7371 303.305 62.9837 303.209 71.92 303.209C80.8563 303.209 88.1029 303.296 88.1029 303.418Z" fill="#E8E2FF"/>
<path d="M87.6151 307.372C87.6151 307.486 80.8215 307.573 72.4426 307.573C64.0637 307.573 57.27 307.486 57.27 307.372C57.27 307.259 64.0637 307.163 72.4426 307.163C80.8215 307.163 87.6151 307.259 87.6151 307.372Z" fill="#E8E2FF"/>
<path d="M61.5814 292.914C61.7883 294.595 61.8583 296.29 61.7904 297.983C61.8586 299.676 61.7887 301.371 61.5814 303.052C61.3798 301.37 61.3128 299.675 61.3811 297.983C61.3132 296.291 61.3802 294.596 61.5814 292.914Z" fill="#E8E2FF"/>
<path d="M73.3745 292.914C73.5803 294.648 73.6502 296.395 73.5836 298.14C73.6502 299.884 73.5803 301.632 73.3745 303.366C73.1688 301.632 73.0989 299.884 73.1655 298.14C73.0989 296.395 73.1688 294.648 73.3745 292.914Z" fill="#E8E2FF"/>
<path d="M84.4448 292.827C84.6519 294.604 84.7218 296.395 84.6538 298.183C84.7218 299.969 84.6519 301.757 84.4448 303.531C84.2351 301.76 84.1624 299.975 84.227 298.192C84.1615 296.401 84.2343 294.607 84.4448 292.827Z" fill="#E8E2FF"/>
<path d="M90.9771 292.914C90.9771 293.027 82.4763 293.123 71.9896 293.123C61.503 293.123 53.0109 293.027 53.0109 292.914C53.0109 292.801 61.503 292.705 71.9896 292.705C82.4763 292.705 90.9771 292.801 90.9771 292.914Z" fill="#E8E2FF"/>
<path d="M61.9016 319.929H20.7414C20.4993 319.929 20.3379 319.768 20.3379 319.526C20.3379 319.284 20.4993 319.122 20.7414 319.122H61.9016C62.1437 319.122 62.3051 319.284 62.3051 319.526C62.3051 319.687 62.1437 319.929 61.9016 319.929Z" fill="#1D1526"/>
<path d="M566.719 319.929H69.2458C69.0037 319.929 68.8423 319.768 68.8423 319.526C68.8423 319.284 69.0037 319.122 69.2458 319.122H566.719C566.961 319.122 567.122 319.284 567.122 319.526C567.122 319.687 566.961 319.929 566.719 319.929Z" fill="#1D1526"/>
<path d="M458.581 59.255L454.36 61.8313L451.575 58.4698C449.622 59.1962 447.557 59.5238 445.48 59.3934L443.883 63.4315L439.117 62.2784L439.542 57.9567C437.654 57.0449 435.997 55.8584 434.592 54.3191L430.579 56.036L428.002 51.8151L431.364 49.0308C430.637 47.0769 430.31 45.0127 430.44 42.9354L426.402 41.338L427.555 36.5721L431.877 36.9975C432.789 35.1091 433.975 33.4527 435.515 32.047L433.798 28.034L438.019 25.4576L440.803 28.8192C442.757 28.0928 444.821 27.7651 446.898 27.8956L448.496 23.8574L453.262 25.0106L452.836 29.3323C454.725 30.2441 456.381 31.4306 457.787 32.9699L461.8 31.253L464.376 35.4739L461.014 38.2582C461.741 40.2121 462.069 42.2763 461.938 44.3536L465.976 45.951L464.823 50.7169L460.501 50.2915C459.59 52.1798 458.403 53.8363 456.864 55.242L458.581 59.255ZM454.452 61.1093L457.848 59.0364L456.19 55.1204L456.355 54.9534C457.943 53.5181 459.226 51.8024 460.108 49.8656L460.195 49.6797L464.438 50.0862L465.364 46.2578L461.404 44.6794L461.413 44.4746C461.562 42.3191 461.205 40.2064 460.449 38.204L460.379 37.9803L463.692 35.2257L461.619 31.8295L457.703 33.4872L457.536 33.3227C456.101 31.7349 454.385 30.4514 452.448 29.5692L452.262 29.4829L452.669 25.2393L448.84 24.313L447.262 28.273L447.057 28.2648C444.902 28.1155 442.789 28.4727 440.787 29.2287L440.563 29.2987L437.808 25.9857L434.412 28.0586L436.07 31.9746L435.905 32.1415C434.317 33.5768 433.034 35.2925 432.152 37.2294L432.065 37.4152L427.822 37.0088L426.895 40.8371L430.856 42.4155L430.847 42.6203C430.698 44.7758 431.055 46.8885 431.811 48.8909L431.881 49.1146L428.568 51.8692L430.641 55.2654L434.557 53.6078L434.724 53.7722C436.159 55.36 437.875 56.6436 439.812 57.5257L439.998 57.612L439.591 61.8556L443.42 62.7819L444.998 58.8219L445.203 58.8301C447.358 58.9794 449.471 58.6222 451.473 57.8662L451.697 57.7962L454.452 61.1093ZM451.934 53.0568C446.743 56.2254 439.897 54.6103 436.699 49.3705C433.53 44.1792 435.145 37.3334 440.385 34.1352C445.576 30.9666 452.422 32.5816 455.62 37.8215C458.789 43.0128 457.125 49.8882 451.934 53.0568ZM440.681 34.6204C435.732 37.6409 434.163 44.1257 437.184 49.0744C440.204 54.0231 446.689 55.5921 451.638 52.5716C456.587 49.5511 458.156 43.0663 455.135 38.1176C452.115 33.1689 445.63 31.5998 440.681 34.6204Z" fill="#AEAAD6"/>
<path d="M484.583 68.6891L481.429 70.614L479.412 68.1824C478.051 68.6802 476.591 68.9057 475.157 68.8484L474 71.7524L470.406 70.8828L470.704 67.7708C469.403 67.1666 468.207 66.2983 467.224 65.2334L464.367 66.4444L462.442 63.2908L464.874 61.2739C464.376 59.913 464.151 58.4524 464.208 57.019L461.304 55.8615L462.174 52.2675L465.286 52.5656C465.938 51.2349 466.758 50.0686 467.823 49.0857L466.612 46.2289L469.766 44.304L471.782 46.7356C473.143 46.2378 474.604 46.0123 476.037 46.0696L477.195 43.1656L480.789 44.0352L480.491 47.1472C481.792 47.7514 482.988 48.6197 483.971 49.6846L486.827 48.4736L488.752 51.6272L486.321 53.6441C486.819 55.005 487.044 56.4656 486.987 57.899L489.891 59.0565L489.021 62.6505L485.909 62.3524C485.305 63.6535 484.437 64.8494 483.372 65.8323L484.583 68.6891ZM481.57 69.8623L483.85 68.4705L482.669 65.6622L482.833 65.4952C483.946 64.4827 484.863 63.2572 485.486 61.878L485.573 61.6921L488.607 61.9713L489.23 59.393L486.405 58.2544L486.413 58.0496C486.489 56.538 486.282 54.9994 485.706 53.6195L485.637 53.3958L487.971 51.4382L486.579 49.1579L483.771 50.3392L483.604 50.1748C482.591 49.0614 481.366 48.1446 479.987 47.5214L479.801 47.4351L480.08 44.4013L477.502 43.7774L476.363 46.6033L476.158 46.5951C474.647 46.5189 473.108 46.7255 471.728 47.3014L471.505 47.3713L469.547 45.0368L467.267 46.4286L468.448 49.2369L468.284 49.4039C467.17 50.4164 466.253 51.6419 465.63 53.0211L465.544 53.207L462.51 52.9278L461.886 55.5061L464.712 56.6447L464.704 56.8495C464.628 58.3611 464.834 59.8997 465.41 61.2796L465.48 61.5033L463.194 63.4313L464.586 65.7116L467.394 64.5303L467.561 64.6947C468.574 65.8081 469.799 66.7249 471.178 67.3481L471.364 67.4344L471.085 70.4682L473.663 71.092L474.802 68.2661L475.007 68.2744C476.518 68.3506 478.057 68.144 479.437 67.5681L479.661 67.4982L481.57 69.8623ZM479.773 64.2999C475.988 66.6097 471.066 65.4187 468.756 61.6344C466.447 57.8501 467.638 52.9279 471.422 50.6181C475.206 48.3083 480.128 49.4993 482.438 53.2836C484.748 57.0679 483.509 62.0197 479.773 64.2999ZM471.748 51.1518C468.254 53.2839 467.139 57.8936 469.271 61.3868C471.403 64.88 476.013 65.9954 479.506 63.8632C482.999 61.7311 484.115 57.1214 481.983 53.6282C479.851 50.135 475.241 49.0197 471.748 51.1518Z" fill="#AEAAD6"/>
<path d="M31.5561 113.928H24.5347L23.6469 107.794C20.7415 107.229 17.9975 106.1 15.5763 104.405L10.6532 108.117L5.73014 103.194L9.44262 98.2711C7.8285 95.7692 6.69861 93.1059 6.13367 90.2005L0 89.3127V82.2913L6.13367 81.4035C6.69861 78.4981 7.8285 75.7541 9.52333 73.3329L5.81085 68.4098L10.7339 63.4867L15.657 67.1992C18.1589 65.5851 20.8222 64.4552 23.7276 63.8903L24.6154 57.7566H31.6368L32.5246 63.8903C35.43 64.4552 38.174 65.5851 40.5952 67.2799L45.5183 63.5674L50.4414 68.4905L46.7289 73.4136C48.343 75.9155 49.4729 78.5788 50.0378 81.4842L56.1715 82.372V89.3934L50.0378 90.2812C49.4729 93.1866 48.343 95.9306 46.6482 98.3518L50.3607 103.275L45.4376 108.198L40.5145 104.485C38.0126 106.1 35.3493 107.229 32.4439 107.794L31.5561 113.928ZM25.261 113.121H30.9105L31.7982 107.149L32.1211 107.068C35.1072 106.503 37.9319 105.373 40.4338 103.678L40.6759 103.517L45.5183 107.149L49.4729 103.194L45.8411 98.3518L46.0025 98.1097C47.7781 95.6078 48.9079 92.7831 49.4729 89.7969L49.5536 89.4741L55.5259 88.5864V82.9369L49.5536 82.0491L49.4729 81.7263C48.9079 78.7402 47.7781 75.9155 46.0832 73.4136L45.9218 73.1715L49.5536 68.3291L45.599 64.3745L40.7566 68.0063L40.5145 67.8449C38.0126 66.0693 35.1879 64.9394 32.2018 64.3745L31.8789 64.2938L30.9912 58.3215H25.3417L24.454 64.2938L24.1312 64.3745C21.145 64.9394 18.3203 66.0693 15.8184 67.7642L15.5763 67.9256L10.7339 64.2938L6.77932 68.2484L10.4111 73.0908L10.2497 73.3329C8.47415 75.8348 7.34426 78.6595 6.77932 81.6456L6.69861 81.9684L0.726357 82.8562V88.5056L6.69861 89.3934L6.77932 89.7162C7.34426 92.7024 8.47415 95.5271 10.169 98.029L10.3304 98.2711L6.69861 103.113L10.6532 107.068L15.4956 103.436L15.7377 103.598C18.2396 105.373 21.0643 106.503 24.0504 107.068L24.3733 107.149L25.261 113.121ZM28.1665 101.499C24.1312 101.499 20.0958 99.9659 17.029 96.8991C10.8953 90.7654 10.8953 80.7579 17.029 74.7049C23.1627 68.5712 33.1702 68.5712 39.2232 74.7049C45.3569 80.8386 45.3569 90.8461 39.2232 96.8991C36.1564 99.9659 32.2018 101.499 28.1665 101.499ZM28.1665 70.9117C24.3733 70.9117 20.4994 72.3644 17.5939 75.2698C11.7831 81.0807 11.7831 90.5233 17.5939 96.3342C23.4048 102.145 32.8474 102.145 38.6583 96.3342C44.4691 90.5233 44.4691 81.0807 38.6583 75.2698C35.7528 72.3644 31.9597 70.9117 28.1665 70.9117Z" fill="#AEAAD6"/>
<path d="M40.0303 60.7425H34.7844L34.1387 56.3037C32.1211 55.9002 30.1841 55.0931 28.4893 53.9632L24.9382 56.6265L21.2257 52.914L23.889 49.363C22.7592 47.6681 21.9521 45.7312 21.5486 43.7135L17.1904 43.0679V37.822L21.6293 37.1763C22.0328 35.1587 22.8399 33.2217 23.9698 31.5269L21.3064 27.9758L25.0189 24.2633L28.57 26.9266C30.2648 25.7968 32.2018 24.9897 34.2194 24.5862L34.8651 20.228H40.111L40.7566 24.6669C42.7743 25.0704 44.7112 25.8775 46.4061 27.0073L49.9571 24.344L53.6696 28.0565L51.0063 31.6076C52.1362 33.3024 52.9433 35.2394 53.3468 37.257L57.7049 37.9027V43.1486L53.2661 43.7942C52.8626 45.8119 52.0555 47.7488 50.9256 49.4437L53.5889 52.9947L49.8764 56.7072L46.3254 54.0439C44.6305 55.1738 42.6936 55.9809 40.6759 56.3844L40.0303 60.7425ZM35.5107 59.9355H39.3039L39.9496 55.658L40.2724 55.5773C42.3708 55.1738 44.3884 54.3667 46.164 53.1562L46.4061 52.9947L49.8764 55.5773L52.5397 52.914L49.9571 49.4437L50.1186 49.2015C51.3291 47.426 52.2169 45.4083 52.5397 43.31L52.6204 42.9872L56.8979 42.3415V38.5483L52.6204 37.9027V37.7413C52.2169 35.6429 51.4099 33.6252 50.1993 31.8497L50.0378 31.6076L52.6204 28.1372L49.9571 25.4739L46.4868 28.0565L46.2447 27.8951C44.4691 26.6845 42.4515 25.7968 40.3531 25.4739L40.0303 25.3932L39.3846 21.1158H35.5914L34.9458 25.3932L34.623 25.4739C32.5246 25.8775 30.507 26.6845 28.7314 27.8951L28.4893 28.0565L25.0189 25.4739L22.3556 28.1372L24.9382 31.6076L24.7768 31.8497C23.5662 33.6252 22.6785 35.6429 22.3556 37.7413L22.2749 38.0641L17.9975 38.7097V42.5029L22.2749 43.1486L22.3556 43.4714C22.7592 45.5698 23.5662 47.5874 24.7768 49.363L24.9382 49.6051L22.3556 53.0754L25.0189 55.7388L28.4893 53.1562L28.7314 53.3176C30.507 54.5282 32.5246 55.4159 34.623 55.7388L34.9458 55.8194L35.5107 59.9355ZM37.4477 51.8648C34.5423 51.8648 31.6368 50.735 29.3771 48.5559C27.198 46.3768 26.0681 43.5521 26.0681 40.4853C26.0681 37.4184 27.2787 34.5937 29.3771 32.4147C31.5561 30.2356 34.3808 29.1057 37.4477 29.1057C40.5145 29.1057 43.3392 30.3163 45.5183 32.4147C49.9571 36.8535 49.9571 44.0364 45.5183 48.4752C43.2585 50.735 40.3531 51.8648 37.4477 51.8648ZM37.4477 29.9935C34.623 29.9935 31.9597 31.1234 30.0227 33.0603C28.0051 35.078 26.9559 37.7413 26.9559 40.4853C26.9559 43.31 28.0858 45.9733 30.0227 47.9103C34.1387 52.0263 40.8373 52.0263 44.9534 47.9103C49.0694 43.7942 49.0694 37.0956 44.9534 32.9796C42.9357 31.0427 40.2724 29.9935 37.4477 29.9935Z" fill="#AEAAD6"/>
<path d="M251 233H45V22.2838C45 18.2563 48.0662 15 51.8586 15H244.141C247.934 15 251 18.2563 251 22.2838V233Z" fill="#58549C"/>
<path d="M255 228H49V17.2838C49 13.2563 52.0662 10 55.8586 10H248.141C251.934 10 255 13.2563 255 17.2838V228Z" fill="white"/>
<path d="M255.435 30.0152H49.3921V17.2636C49.3921 13.4704 52.4589 10.4036 56.2521 10.4036H248.575C252.368 10.4036 255.435 13.4704 255.435 17.2636V30.0152Z" fill="#AEAAD6"/>
<path d="M222.265 20.8147C222.265 19.0391 220.812 17.5864 219.037 17.5864C217.261 17.5864 215.808 19.0391 215.808 20.8147C215.808 22.5902 217.261 24.0429 219.037 24.0429C220.893 23.9622 222.265 22.5902 222.265 20.8147Z" fill="white"/>
<path d="M231.869 20.8147C231.869 19.0391 230.416 17.5864 228.641 17.5864C226.865 17.5864 225.412 19.0391 225.412 20.8147C225.412 22.5902 226.865 24.0429 228.641 24.0429C230.497 23.9622 231.869 22.5902 231.869 20.8147Z" fill="#FC1264"/>
<path d="M241.473 20.8147C241.473 19.0391 240.02 17.5864 238.245 17.5864C236.469 17.5864 235.016 19.0391 235.016 20.8147C235.016 22.5902 236.469 24.0429 238.245 24.0429C240.101 23.9622 241.473 22.5902 241.473 20.8147Z" fill="#342A98"/>
<path d="M85.7099 42.9283H70.5371C69.8915 42.9283 69.3265 42.3633 69.3265 41.7177C69.3265 41.072 69.8915 40.5071 70.5371 40.5071H85.7099C86.3555 40.5071 86.9205 41.072 86.9205 41.7177C86.9205 42.3633 86.3555 42.9283 85.7099 42.9283Z" fill="#1D1526"/>
<path d="M127.435 51.806H70.5371C69.8915 51.806 69.3265 51.241 69.3265 50.5954C69.3265 49.9497 69.8915 49.3848 70.5371 49.3848H127.435C128.081 49.3848 128.646 49.9497 128.646 50.5954C128.646 51.241 128.081 51.806 127.435 51.806Z" fill="#AAECCE"/>
<path d="M215.485 51.806H158.588C157.942 51.806 157.377 51.241 157.377 50.5954C157.377 49.9497 157.942 49.3848 158.588 49.3848H215.485C216.131 49.3848 216.696 49.9497 216.696 50.5954C216.696 51.241 216.131 51.806 215.485 51.806Z" fill="#AAECCE"/>
<path d="M153.665 51.806H131.147C130.502 51.806 129.937 51.241 129.937 50.5954C129.937 49.9497 130.502 49.3848 131.147 49.3848H153.665C154.31 49.3848 154.875 49.9497 154.875 50.5954C154.875 51.241 154.31 51.806 153.665 51.806Z" fill="#1D1526"/>
<path d="M103.304 60.6836H70.5371C69.8915 60.6836 69.3265 60.1187 69.3265 59.473C69.3265 58.8274 69.8915 58.2625 70.5371 58.2625H103.304C103.949 58.2625 104.514 58.8274 104.514 59.473C104.514 60.1187 103.949 60.6836 103.304 60.6836Z" fill="#1D1526"/>
<path d="M140.106 60.6836H107.339C106.694 60.6836 106.129 60.1187 106.129 59.473C106.129 58.8274 106.694 58.2625 107.339 58.2625H140.106C140.752 58.2625 141.316 58.8274 141.316 59.473C141.316 60.1187 140.832 60.6836 140.106 60.6836Z" fill="#1D1526"/>
<path d="M176.989 60.6836H144.222C143.576 60.6836 143.011 60.1187 143.011 59.473C143.011 58.8274 143.576 58.2625 144.222 58.2625H176.989C177.634 58.2625 178.199 58.8274 178.199 59.473C178.199 60.1187 177.634 60.6836 176.989 60.6836Z" fill="#1D1526"/>
<path d="M194.986 60.6836H181.024C180.378 60.6836 179.813 60.1187 179.813 59.473C179.813 58.8274 180.378 58.2625 181.024 58.2625H194.986C195.632 58.2625 196.197 58.8274 196.197 59.473C196.197 60.1187 195.712 60.6836 194.986 60.6836Z" fill="#1D1526"/>
<path d="M104.918 42.9283H89.7452C89.0996 42.9283 88.5346 42.3633 88.5346 41.7177C88.5346 41.072 89.0996 40.5071 89.7452 40.5071H104.918C105.564 40.5071 106.129 41.072 106.129 41.7177C106.129 42.3633 105.564 42.9283 104.918 42.9283Z" fill="#1D1526"/>
<path d="M194.986 42.9283H179.813C179.168 42.9283 178.603 42.3633 178.603 41.7177C178.603 41.072 179.168 40.5071 179.813 40.5071H194.986C195.632 40.5071 196.197 41.072 196.197 41.7177C196.197 42.3633 195.712 42.9283 194.986 42.9283Z" fill="#1D1526"/>
<path d="M174.971 42.9283H159.798C159.153 42.9283 158.588 42.3633 158.588 41.7177C158.588 41.072 159.153 40.5071 159.798 40.5071H174.971C175.617 40.5071 176.182 41.072 176.182 41.7177C176.182 42.3633 175.617 42.9283 174.971 42.9283Z" fill="#AAECCE"/>
<path d="M153.261 42.9283H109.034C108.388 42.9283 107.823 42.3633 107.823 41.7177C107.823 41.072 108.388 40.5071 109.034 40.5071H153.261C153.907 40.5071 154.472 41.072 154.472 41.7177C154.472 42.3633 153.907 42.9283 153.261 42.9283Z" fill="#1D1526"/>
<path d="M85.7099 97.2435H70.5371C69.8915 97.2435 69.3265 96.6785 69.3265 96.0329C69.3265 95.3872 69.8915 94.8223 70.5371 94.8223H85.7099C86.3555 94.8223 86.9205 95.3872 86.9205 96.0329C86.9205 96.6785 86.3555 97.2435 85.7099 97.2435Z" fill="#1D1526"/>
<path d="M127.435 106.121H70.5371C69.8915 106.121 69.3265 105.556 69.3265 104.911C69.3265 104.265 69.8915 103.7 70.5371 103.7H127.435C128.081 103.7 128.646 104.265 128.646 104.911C128.646 105.556 128.081 106.121 127.435 106.121Z" fill="#AAECCE"/>
<path d="M215.485 106.121H158.588C157.942 106.121 157.377 105.556 157.377 104.911C157.377 104.265 157.942 103.7 158.588 103.7H215.485C216.131 103.7 216.696 104.265 216.696 104.911C216.696 105.556 216.131 106.121 215.485 106.121Z" fill="#1D1526"/>
<path d="M153.665 106.121H131.147C130.502 106.121 129.937 105.556 129.937 104.911C129.937 104.265 130.502 103.7 131.147 103.7H153.665C154.31 103.7 154.875 104.265 154.875 104.911C154.875 105.556 154.31 106.121 153.665 106.121Z" fill="#1D1526"/>
<path d="M103.304 115.08H70.5371C69.8915 115.08 69.3265 114.515 69.3265 113.869C69.3265 113.223 69.8915 112.658 70.5371 112.658H103.304C103.949 112.658 104.514 113.223 104.514 113.869C104.514 114.515 103.949 115.08 103.304 115.08Z" fill="#1D1526"/>
<path d="M140.106 115.08H107.339C106.694 115.08 106.129 114.515 106.129 113.869C106.129 113.223 106.694 112.658 107.339 112.658H140.106C140.752 112.658 141.316 113.223 141.316 113.869C141.316 114.515 140.832 115.08 140.106 115.08Z" fill="#1D1526"/>
<path d="M176.989 115.08H144.222C143.576 115.08 143.011 114.515 143.011 113.869C143.011 113.223 143.576 112.658 144.222 112.658H176.989C177.634 112.658 178.199 113.223 178.199 113.869C178.199 114.515 177.634 115.08 176.989 115.08Z" fill="#AAECCE"/>
<path d="M194.986 115.08H181.024C180.378 115.08 179.813 114.515 179.813 113.869C179.813 113.223 180.378 112.658 181.024 112.658H194.986C195.632 112.658 196.197 113.223 196.197 113.869C196.197 114.515 195.712 115.08 194.986 115.08Z" fill="#1D1526"/>
<path d="M104.918 97.2435H89.7452C89.0996 97.2435 88.5346 96.6785 88.5346 96.0329C88.5346 95.3872 89.0996 94.8223 89.7452 94.8223H104.918C105.564 94.8223 106.129 95.3872 106.129 96.0329C106.129 96.6785 105.564 97.2435 104.918 97.2435Z" fill="#1D1526"/>
<path d="M194.986 97.2435H179.813C179.168 97.2435 178.603 96.6785 178.603 96.0329C178.603 95.3872 179.168 94.8223 179.813 94.8223H194.986C195.632 94.8223 196.197 95.3872 196.197 96.0329C196.197 96.6785 195.712 97.2435 194.986 97.2435Z" fill="#1D1526"/>
<path d="M174.971 97.2435H159.798C159.153 97.2435 158.588 96.6785 158.588 96.0329C158.588 95.3872 159.153 94.8223 159.798 94.8223H174.971C175.617 94.8223 176.182 95.3872 176.182 96.0329C176.182 96.6785 175.617 97.2435 174.971 97.2435Z" fill="#AAECCE"/>
<path d="M153.261 97.2435H109.034C108.388 97.2435 107.823 96.6785 107.823 96.0329C107.823 95.3872 108.388 94.8223 109.034 94.8223H153.261C153.907 94.8223 154.472 95.3872 154.472 96.0329C154.472 96.6785 153.907 97.2435 153.261 97.2435Z" fill="#1D1526"/>
<path d="M85.7099 177.385H70.5371C69.8915 177.385 69.3265 176.82 69.3265 176.174C69.3265 175.528 69.8915 174.963 70.5371 174.963H85.7099C86.3555 174.963 86.9205 175.528 86.9205 176.174C86.9205 176.82 86.3555 177.385 85.7099 177.385Z" fill="#1D1526"/>
<path d="M127.435 186.262H70.5371C69.8915 186.262 69.3265 185.697 69.3265 185.052C69.3265 184.406 69.8915 183.841 70.5371 183.841H127.435C128.081 183.841 128.646 184.406 128.646 185.052C128.646 185.697 128.081 186.262 127.435 186.262Z" fill="#AAECCE"/>
<path d="M153.665 186.262H131.147C130.502 186.262 129.937 185.697 129.937 185.052C129.937 184.406 130.502 183.841 131.147 183.841H153.665C154.31 183.841 154.875 184.406 154.875 185.052C154.875 185.697 154.31 186.262 153.665 186.262Z" fill="#1D1526"/>
<path d="M103.304 195.14H70.5371C69.8915 195.14 69.3265 194.575 69.3265 193.929C69.3265 193.284 69.8915 192.719 70.5371 192.719H103.304C103.949 192.719 104.514 193.284 104.514 193.929C104.514 194.656 103.949 195.14 103.304 195.14Z" fill="#1D1526"/>
<path d="M140.106 195.14H107.339C106.694 195.14 106.129 194.575 106.129 193.929C106.129 193.284 106.694 192.719 107.339 192.719H140.106C140.752 192.719 141.316 193.284 141.316 193.929C141.316 194.656 140.832 195.14 140.106 195.14Z" fill="#1D1526"/>
<path d="M176.989 195.14H144.222C143.576 195.14 143.011 194.575 143.011 193.929C143.011 193.284 143.576 192.719 144.222 192.719H176.989C177.634 192.719 178.199 193.284 178.199 193.929C178.199 194.656 177.634 195.14 176.989 195.14Z" fill="#AAECCE"/>
<path d="M194.986 195.14H181.024C180.378 195.14 179.813 194.575 179.813 193.929C179.813 193.284 180.378 192.719 181.024 192.719H194.986C195.632 192.719 196.197 193.284 196.197 193.929C196.197 194.656 195.712 195.14 194.986 195.14Z" fill="#1D1526"/>
<path d="M104.918 177.385H89.7452C89.0996 177.385 88.5346 176.82 88.5346 176.174C88.5346 175.528 89.0996 174.963 89.7452 174.963H104.918C105.564 174.963 106.129 175.528 106.129 176.174C106.129 176.82 105.564 177.385 104.918 177.385Z" fill="#1D1526"/>
<path d="M174.971 177.385H159.798C159.153 177.385 158.588 176.82 158.588 176.174C158.588 175.528 159.153 174.963 159.798 174.963H174.971C175.617 174.963 176.182 175.528 176.182 176.174C176.182 176.82 175.617 177.385 174.971 177.385Z" fill="#AAECCE"/>
<path d="M153.261 177.385H109.034C108.388 177.385 107.823 176.82 107.823 176.174C107.823 175.528 108.388 174.963 109.034 174.963H153.261C153.907 174.963 154.472 175.528 154.472 176.174C154.472 176.82 153.907 177.385 153.261 177.385Z" fill="#1D1526"/>
<path d="M85.7099 204.421H70.5371C69.8915 204.421 69.3265 203.856 69.3265 203.211C69.3265 202.565 69.8915 202 70.5371 202H85.7099C86.3555 202 86.9205 202.565 86.9205 203.211C86.9205 203.856 86.3555 204.421 85.7099 204.421Z" fill="#1D1526"/>
<path d="M127.435 213.299H70.5371C69.8915 213.299 69.3265 212.734 69.3265 212.088C69.3265 211.443 69.8915 210.878 70.5371 210.878H127.435C128.081 210.878 128.646 211.443 128.646 212.088C128.646 212.734 128.081 213.299 127.435 213.299Z" fill="#AAECCE"/>
<path d="M153.665 213.299H131.147C130.502 213.299 129.937 212.734 129.937 212.088C129.937 211.443 130.502 210.878 131.147 210.878H153.665C154.31 210.878 154.875 211.443 154.875 212.088C154.875 212.734 154.31 213.299 153.665 213.299Z" fill="#1D1526"/>
<path d="M104.918 204.421H89.7452C89.0996 204.421 88.5346 203.856 88.5346 203.211C88.5346 202.565 89.0996 202 89.7452 202H104.918C105.564 202 106.129 202.565 106.129 203.211C106.129 203.856 105.564 204.421 104.918 204.421Z" fill="#1D1526"/>
<path d="M174.971 204.421H159.798C159.153 204.421 158.588 203.856 158.588 203.211C158.588 202.565 159.153 202 159.798 202H174.971C175.617 202 176.182 202.565 176.182 203.211C176.182 203.856 175.617 204.421 174.971 204.421Z" fill="#AAECCE"/>
<path d="M153.261 204.421H109.034C108.388 204.421 107.823 203.856 107.823 203.211C107.823 202.565 108.388 202 109.034 202H153.261C153.907 202 154.472 202.565 154.472 203.211C154.472 203.856 153.907 204.421 153.261 204.421Z" fill="#1D1526"/>
<path d="M170.855 70.1263H155.682C155.037 70.1263 154.472 69.5613 154.472 68.9157C154.472 68.27 155.037 67.7051 155.682 67.7051H170.855C171.501 67.7051 172.066 68.27 172.066 68.9157C172.066 69.5613 171.501 70.1263 170.855 70.1263Z" fill="#1D1526"/>
<path d="M150.759 70.1263H135.586C134.941 70.1263 134.376 69.5613 134.376 68.9157C134.376 68.27 134.941 67.7051 135.586 67.7051H150.759C151.405 67.7051 151.97 68.27 151.97 68.9157C151.97 69.5613 151.485 70.1263 150.759 70.1263Z" fill="#1D1526"/>
<path d="M129.049 70.1263H84.8222C84.1765 70.1263 83.6116 69.5613 83.6116 68.9157C83.6116 68.27 84.1765 67.7051 84.8222 67.7051H129.049C129.695 67.7051 130.26 68.27 130.26 68.9157C130.26 69.5613 129.776 70.1263 129.049 70.1263Z" fill="#1D1526"/>
<path d="M170.855 86.0252H155.682C155.037 86.0252 154.472 85.4602 154.472 84.8146C154.472 84.1689 155.037 83.604 155.682 83.604H170.855C171.501 83.604 172.066 84.1689 172.066 84.8146C172.066 85.4602 171.501 86.0252 170.855 86.0252Z" fill="#1D1526"/>
<path d="M150.759 86.0252H135.586C134.941 86.0252 134.376 85.4602 134.376 84.8146C134.376 84.1689 134.941 83.604 135.586 83.604H150.759C151.405 83.604 151.97 84.1689 151.97 84.8146C151.97 85.4602 151.485 86.0252 150.759 86.0252Z" fill="#1D1526"/>
<path d="M129.049 86.0252H84.8222C84.1765 86.0252 83.6116 85.4602 83.6116 84.8146C83.6116 84.1689 84.1765 83.604 84.8222 83.604H129.049C129.695 83.604 130.26 84.1689 130.26 84.8146C130.26 85.4602 129.776 86.0252 129.049 86.0252Z" fill="#AAECCE"/>
<path d="M99.9949 78.0354H84.8222C84.1765 78.0354 83.6116 77.4705 83.6116 76.8249C83.6116 76.1792 84.1765 75.6143 84.8222 75.6143H99.9949C100.641 75.6143 101.206 76.1792 101.206 76.8249C101.206 77.4705 100.721 78.0354 99.9949 78.0354Z" fill="#1D1526"/>
<path d="M120.091 78.0354H104.918C104.272 78.0354 103.707 77.4705 103.707 76.8249C103.707 76.1792 104.272 75.6143 104.918 75.6143H120.091C120.736 75.6143 121.301 76.1792 121.301 76.8249C121.301 77.4705 120.736 78.0354 120.091 78.0354Z" fill="#1D1526"/>
<path d="M170.855 78.0354H126.628C125.982 78.0354 125.417 77.4705 125.417 76.8249C125.417 76.1792 125.982 75.6143 126.628 75.6143H170.855C171.501 75.6143 172.066 76.1792 172.066 76.8249C172.066 77.4705 171.501 78.0354 170.855 78.0354Z" fill="#AAECCE"/>
<path d="M170.855 125.814H155.682C155.037 125.814 154.472 125.249 154.472 124.603C154.472 123.957 155.037 123.392 155.682 123.392H170.855C171.501 123.392 172.066 123.957 172.066 124.603C172.066 125.329 171.501 125.814 170.855 125.814Z" fill="#1D1526"/>
<path d="M150.759 125.814H135.586C134.941 125.814 134.376 125.249 134.376 124.603C134.376 123.957 134.941 123.392 135.586 123.392H150.759C151.405 123.392 151.97 123.957 151.97 124.603C151.97 125.329 151.485 125.814 150.759 125.814Z" fill="#1D1526"/>
<path d="M129.049 125.814H84.8222C84.1765 125.814 83.6116 125.249 83.6116 124.603C83.6116 123.957 84.1765 123.392 84.8222 123.392H129.049C129.695 123.392 130.26 123.957 130.26 124.603C130.26 125.329 129.776 125.814 129.049 125.814Z" fill="#1D1526"/>
<path d="M170.855 141.793H155.682C155.037 141.793 154.472 141.228 154.472 140.583C154.472 139.937 155.037 139.372 155.682 139.372H170.855C171.501 139.372 172.066 139.937 172.066 140.583C172.066 141.228 171.501 141.793 170.855 141.793Z" fill="#1D1526"/>
<path d="M150.759 141.793H135.586C134.941 141.793 134.376 141.228 134.376 140.583C134.376 139.937 134.941 139.372 135.586 139.372H150.759C151.405 139.372 151.97 139.937 151.97 140.583C151.97 141.228 151.485 141.793 150.759 141.793Z" fill="#1D1526"/>
<path d="M129.049 141.793H84.8222C84.1765 141.793 83.6116 141.228 83.6116 140.583C83.6116 139.937 84.1765 139.372 84.8222 139.372H129.049C129.695 139.372 130.26 139.937 130.26 140.583C130.26 141.228 129.776 141.793 129.049 141.793Z" fill="#AAECCE"/>
<path d="M99.9949 133.803H84.8222C84.1765 133.803 83.6116 133.238 83.6116 132.593C83.6116 131.947 84.1765 131.382 84.8222 131.382H99.9949C100.641 131.382 101.206 131.947 101.206 132.593C101.206 133.238 100.721 133.803 99.9949 133.803Z" fill="#1D1526"/>
<path d="M120.091 133.803H104.918C104.272 133.803 103.707 133.238 103.707 132.593C103.707 131.947 104.272 131.382 104.918 131.382H120.091C120.736 131.382 121.301 131.947 121.301 132.593C121.301 133.238 120.736 133.803 120.091 133.803Z" fill="#1D1526"/>
<path d="M170.855 133.803H126.628C125.982 133.803 125.417 133.238 125.417 132.593C125.417 131.947 125.982 131.382 126.628 131.382H170.855C171.501 131.382 172.066 131.947 172.066 132.593C172.066 133.238 171.501 133.803 170.855 133.803Z" fill="#AAECCE"/>
<path d="M99.9949 151.155H84.8222C84.1765 151.155 83.6116 150.59 83.6116 149.944C83.6116 149.299 84.1765 148.734 84.8222 148.734H99.9949C100.641 148.734 101.206 149.299 101.206 149.944C101.206 150.59 100.721 151.155 99.9949 151.155Z" fill="#1D1526"/>
<path d="M120.091 151.155H104.918C104.272 151.155 103.707 150.59 103.707 149.944C103.707 149.299 104.272 148.734 104.918 148.734H120.091C120.736 148.734 121.301 149.299 121.301 149.944C121.301 150.59 120.736 151.155 120.091 151.155Z" fill="#1D1526"/>
<path d="M170.855 151.155H126.628C125.982 151.155 125.417 150.59 125.417 149.944C125.417 149.299 125.982 148.734 126.628 148.734H170.855C171.501 148.734 172.066 149.299 172.066 149.944C172.066 150.59 171.501 151.155 170.855 151.155Z" fill="#AAECCE"/>
<path d="M99.9949 167.054H84.8222C84.1765 167.054 83.6116 166.489 83.6116 165.844C83.6116 165.198 84.1765 164.633 84.8222 164.633H99.9949C100.641 164.633 101.206 165.198 101.206 165.844C101.206 166.489 100.721 167.054 99.9949 167.054Z" fill="#1D1526"/>
<path d="M120.091 167.054H104.918C104.272 167.054 103.707 166.489 103.707 165.844C103.707 165.198 104.272 164.633 104.918 164.633H120.091C120.736 164.633 121.301 165.198 121.301 165.844C121.301 166.489 120.736 167.054 120.091 167.054Z" fill="#1D1526"/>
<path d="M170.855 167.054H126.628C125.982 167.054 125.417 166.489 125.417 165.844C125.417 165.198 125.982 164.633 126.628 164.633H170.855C171.501 164.633 172.066 165.198 172.066 165.844C172.066 166.489 171.501 167.054 170.855 167.054Z" fill="#AAECCE"/>
<path d="M170.855 159.064H155.682C155.037 159.064 154.472 158.499 154.472 157.854C154.472 157.208 155.037 156.643 155.682 156.643H170.855C171.501 156.643 172.066 157.208 172.066 157.854C172.066 158.499 171.501 159.064 170.855 159.064Z" fill="#1D1526"/>
<path d="M150.759 159.064H135.586C134.941 159.064 134.376 158.499 134.376 157.854C134.376 157.208 134.941 156.643 135.586 156.643H150.759C151.405 156.643 151.97 157.208 151.97 157.854C151.97 158.499 151.485 159.064 150.759 159.064Z" fill="#1D1526"/>
<path d="M129.049 159.064H84.8222C84.1765 159.064 83.6116 158.499 83.6116 157.854C83.6116 157.208 84.1765 156.643 84.8222 156.643H129.049C129.695 156.643 130.26 157.208 130.26 157.854C130.26 158.499 129.776 159.064 129.049 159.064Z" fill="#AAECCE"/>
<path d="M64.8877 38.6506H60.0453V44.1387H64.8877V38.6506Z" fill="#1D1526"/>
<path d="M64.8877 47.6091H60.0453V53.0972H64.8877V47.6091Z" fill="#1D1526"/>
<path d="M64.8877 56.5674H60.0453V62.0554H64.8877V56.5674Z" fill="#1D1526"/>
<path d="M64.8877 65.5259H60.0453V71.0139H64.8877V65.5259Z" fill="#1D1526"/>
<path d="M64.8877 74.5649H60.0453V80.053H64.8877V74.5649Z" fill="#1D1526"/>
<path d="M64.8877 83.5234H60.0453V89.0115H64.8877V83.5234Z" fill="#1D1526"/>
<path d="M64.8877 92.4817H60.0453V97.9697H64.8877V92.4817Z" fill="#1D1526"/>
<path d="M64.8877 101.44H60.0453V106.928H64.8877V101.44Z" fill="#1D1526"/>
<path d="M64.8877 110.479H60.0453V115.967H64.8877V110.479Z" fill="#1D1526"/>
<path d="M64.8877 119.438H60.0453V124.926H64.8877V119.438Z" fill="#1D1526"/>
<path d="M64.8877 128.396H60.0453V133.884H64.8877V128.396Z" fill="#1D1526"/>
<path d="M64.8877 137.354H60.0453V142.843H64.8877V137.354Z" fill="#1D1526"/>
<path d="M64.8877 146.394H60.0453V151.882H64.8877V146.394Z" fill="#1D1526"/>
<path d="M64.8877 155.352H60.0453V160.84H64.8877V155.352Z" fill="#1D1526"/>
<path d="M64.8877 164.31H60.0453V169.798H64.8877V164.31Z" fill="#1D1526"/>
<path d="M64.8877 173.269H60.0453V178.757H64.8877V173.269Z" fill="#1D1526"/>
<path d="M64.8877 182.308H60.0453V187.796H64.8877V182.308Z" fill="#1D1526"/>
<path d="M64.8877 191.266H60.0453V196.754H64.8877V191.266Z" fill="#1D1526"/>
<path d="M64.8877 200H60.0453V205.488H64.8877V200Z" fill="#1D1526"/>
<path d="M64.8877 208.958H60.0453V214.446H64.8877V208.958Z" fill="#1D1526"/>
<path d="M399.98 133.902L404.741 151.98C404.741 151.98 401.917 155.37 398.043 161.342C394.25 167.233 387.228 178.29 384.161 181.357C381.094 184.424 379.803 184.989 379.803 184.989C379.803 184.989 372.943 184.424 369.876 185.392C366.81 186.361 363.178 189.428 362.613 189.993C362.048 190.558 386.179 189.993 386.179 189.993C386.179 189.993 387.712 189.993 389.246 187.491C390.779 184.989 406.921 174.739 412.489 167.153C417.977 159.566 419.753 154.563 419.753 154.563C419.753 154.563 407.405 137.211 406.033 135.516C404.741 133.66 400.383 131.803 399.98 133.902Z" fill="#FCAF9D"/>
<path d="M416.847 150.366C413.135 145.12 407.001 136.646 406.113 135.435C404.741 133.74 400.383 131.804 400.06 133.902L404.176 149.478C406.759 150.608 412.166 152.303 416.847 150.366Z" fill="#9994CB"/>
<path d="M367.052 190.638C366.729 190.638 365.034 190.638 364.388 189.831C364.227 189.589 364.146 189.266 364.146 189.024C364.308 188.056 365.76 187.571 368.504 187.571C368.827 187.571 369.554 187.249 370.28 187.006C371.087 186.684 371.813 186.361 372.459 186.28C373.67 186.119 377.543 186.441 377.705 186.441C377.947 186.441 378.108 186.684 378.108 186.845C378.108 187.087 377.866 187.249 377.705 187.249C376.575 187.168 373.589 186.926 372.701 187.087C372.217 187.168 371.41 187.491 370.683 187.733C369.796 188.056 369.069 188.378 368.585 188.378C365.195 188.378 365.034 189.105 364.953 189.185C364.953 189.266 364.953 189.347 365.034 189.347C365.357 189.67 366.406 189.831 367.052 189.831C367.294 189.831 367.455 189.993 367.455 190.235C367.455 190.396 367.294 190.638 367.052 190.638Z" fill="#E8705A"/>
<path d="M422.255 174.174C422.255 174.174 401.029 231.798 400.222 235.269C399.415 238.739 396.429 280.626 396.187 281.352C395.944 282.159 393.523 304.434 393.523 304.434C393.523 304.434 389.246 308.711 386.26 310.89C383.274 313.07 377.14 313.877 376.091 316.782C375.042 319.768 382.224 319.768 383.354 319.445C384.403 319.203 404.499 318.396 404.499 318.396C404.499 318.396 410.633 319.768 411.198 316.782C411.763 313.877 409.342 301.771 409.342 301.771C409.342 301.771 412.005 294.83 412.57 292.651C413.135 290.472 413.135 287.566 413.377 286.759C413.619 285.952 424.676 240.676 424.676 240.676L443.965 205.972L450.663 208.959L465.675 243.339L497.554 295.637L495.132 300.157L497.554 306.048C497.554 306.048 494.083 317.831 495.132 319.203C496.182 320.575 514.986 319.203 514.986 319.203C514.986 319.203 516.842 319.768 517.165 316.54C517.407 313.312 516.358 310.406 516.358 310.406C516.358 310.406 514.179 305.887 513.937 305.08C513.695 304.273 513.937 300.802 513.695 298.946C513.453 297.09 510.709 293.054 509.902 290.875C509.095 288.696 489.806 238.013 489.806 238.013L477.216 169.735L425.725 167.879L422.255 174.174Z" fill="#1D1526"/>
<path d="M501.266 320.252C497.957 320.252 495.374 320.091 494.89 319.526C493.76 318.154 496.343 309.115 497.231 306.129L494.89 300.399C494.81 300.318 494.89 300.156 494.89 300.076L497.231 295.718L465.432 243.662L450.421 209.362L444.207 206.618L425.079 240.918C424.434 243.42 414.103 286.194 413.781 287.001C413.7 287.324 413.619 288.051 413.538 288.938C413.458 290.149 413.296 291.682 412.973 292.893C412.489 294.911 410.149 301.044 409.745 301.932C409.987 303.223 412.086 314.119 411.601 317.024C411.521 317.67 411.117 318.154 410.552 318.557C408.696 319.768 404.984 319.042 404.419 318.961C396.348 319.284 384.161 319.849 383.354 320.01C382.547 320.252 377.463 320.333 375.929 318.638C375.445 318.154 375.364 317.508 375.607 316.782C376.333 314.764 378.996 313.715 381.659 312.747C383.193 312.101 384.807 311.536 385.937 310.729C388.6 308.792 392.393 305.08 393.039 304.434C393.362 301.609 395.46 282.24 395.702 281.433C395.783 281.029 396.348 274.169 396.913 266.986C397.962 253.831 399.253 237.528 399.738 235.349C400.545 231.879 420.883 176.595 421.77 174.174C421.77 174.174 421.77 174.174 421.77 174.093L425.241 167.637C425.322 167.475 425.402 167.395 425.644 167.395L477.135 169.251C477.296 169.251 477.458 169.412 477.538 169.574L490.129 237.851C490.29 238.255 509.417 288.454 510.224 290.633C510.547 291.521 511.193 292.651 511.839 293.861C512.807 295.718 513.856 297.574 514.018 298.784C514.179 299.753 514.179 301.125 514.179 302.336C514.179 303.385 514.179 304.515 514.26 304.918C514.502 305.564 515.955 308.631 516.681 310.245C516.762 310.406 517.811 313.312 517.488 316.621C517.407 317.993 517.004 318.88 516.277 319.365C515.712 319.768 515.147 319.687 514.905 319.687C512.323 319.849 506.108 320.252 501.266 320.252ZM495.617 300.237L497.957 305.967C497.957 306.048 497.957 306.129 497.957 306.209C496.343 311.778 494.89 318.235 495.455 318.961C496.262 319.687 506.028 319.445 514.986 318.8C515.067 318.8 515.067 318.8 515.147 318.8C515.147 318.8 515.551 318.88 515.955 318.638C516.439 318.315 516.681 317.589 516.762 316.459C517.004 313.392 515.955 310.487 515.955 310.487C515.874 310.325 513.775 305.967 513.533 305.08C513.372 304.676 513.372 303.708 513.372 302.255C513.372 301.044 513.372 299.753 513.211 298.865C513.049 297.816 512 295.96 511.112 294.265C510.467 292.974 509.821 291.844 509.498 290.956C508.691 288.858 489.564 238.658 489.402 238.093L476.812 170.058L425.886 168.202L422.578 174.336C422.013 175.869 401.352 231.96 400.625 235.349C400.141 237.448 398.769 254.477 397.801 266.825C396.994 277.236 396.671 281.19 396.59 281.513C396.429 282.24 394.895 295.637 393.927 304.515C393.927 304.595 393.846 304.676 393.846 304.757C393.685 304.918 389.488 309.115 386.583 311.213C385.372 312.101 383.758 312.747 382.144 313.312C379.723 314.28 377.14 315.249 376.575 316.863C376.414 317.266 376.494 317.589 376.736 317.912C377.866 319.203 382.386 319.284 383.354 319.042C384.403 318.8 402.562 318.073 404.661 317.993H404.741C404.741 317.993 408.615 318.8 410.31 317.67C410.714 317.428 410.875 317.105 410.956 316.701C411.44 313.876 409.1 301.932 409.1 301.851C409.1 301.771 409.1 301.69 409.1 301.609C409.1 301.528 411.763 294.668 412.328 292.57C412.651 291.359 412.731 289.907 412.893 288.696C412.973 287.728 413.054 287.001 413.135 286.598C413.377 285.871 420.56 256.172 424.353 240.515V240.434L443.642 205.73C443.723 205.569 443.965 205.488 444.126 205.569L450.825 208.555C450.905 208.636 450.986 208.636 451.067 208.797L466.078 243.178L497.957 295.395C498.038 295.556 498.038 295.637 497.957 295.798L495.617 300.237Z" fill="#1D1526"/>
<path d="M402.078 106.139C402.078 106.139 394.088 109.932 393.523 121.715C392.958 133.498 406.84 141.73 406.84 141.73C406.84 141.73 414.426 150.689 419.43 156.177C424.353 161.665 422.255 162.553 422.658 163.521C423.062 164.489 422.335 174.255 422.335 174.255C422.335 174.255 444.61 179.985 458.088 178.855C471.566 177.725 477.861 174.094 477.861 174.094C477.861 174.094 479.314 168.283 476.812 160.454C474.31 152.626 471.97 148.59 471.728 146.896C471.566 145.201 461.801 115.501 461.801 115.501C461.801 115.501 474.956 117.761 481.251 118.326C487.546 118.89 487.546 118.89 487.546 118.89C487.546 118.89 491.339 136.242 494.245 145.362C497.069 154.482 498.603 164.974 500.298 166.104C501.992 167.233 505.624 167.233 506.754 167.798C507.884 168.363 509.821 172.56 511.516 173.529C513.21 174.497 513.211 172.56 513.211 172.56C513.211 172.56 515.309 172.722 515.47 171.592C515.632 170.462 517.972 167.96 516.6 165.7C515.228 163.44 502.719 159.647 502.719 159.647C502.719 159.647 501.024 117.196 500.055 111.869C499.087 106.542 499.087 106.542 499.087 106.542C499.087 106.542 485.044 99.2789 481.009 98.149C476.973 97.0191 465.997 94.1137 465.997 94.1137C465.997 94.1137 457.604 87.8186 447.354 88.7871C437.105 89.7556 428.146 92.4189 426.209 92.9838C424.272 93.5487 420.156 96.2121 420.156 96.2121L402.078 106.139Z" fill="#FCAF9D"/>
<path d="M513.211 172.883C513.049 172.883 512.888 172.721 512.807 172.56L511.516 167.395C510.063 166.507 508.287 165.619 507.884 165.619C507.642 165.619 507.48 165.458 507.48 165.216C507.48 164.974 507.642 164.812 507.884 164.812C508.691 164.812 511.274 166.346 512.081 166.749C512.161 166.83 512.242 166.911 512.242 166.991L513.614 172.318C513.695 172.56 513.533 172.721 513.291 172.802C513.291 172.883 513.291 172.883 513.211 172.883Z" fill="#E8705A"/>
<path d="M471.728 146.815C471.566 145.12 461.801 115.42 461.801 115.42C461.801 115.42 468.176 116.55 474.149 117.357L476.408 96.7771C471.728 95.4858 465.997 94.0331 465.997 94.0331C465.997 94.0331 457.604 87.738 447.354 88.7065C437.105 89.675 428.146 92.3383 426.209 92.9032C424.272 93.4682 420.156 96.1315 420.156 96.1315L402.078 106.139C402.078 106.139 394.088 109.932 393.523 121.715C392.958 133.498 406.84 141.73 406.84 141.73C406.84 141.73 414.426 150.689 419.43 156.177C424.353 161.665 422.255 162.553 422.658 163.521C423.062 164.49 422.335 174.255 422.335 174.255C422.335 174.255 444.61 179.985 458.088 178.855C471.566 177.725 477.861 174.094 477.861 174.094C477.861 174.094 479.314 168.283 476.812 160.454C474.31 152.626 471.889 148.51 471.728 146.815Z" fill="#C6C2ED"/>
<path d="M387.955 83.8641C387.955 83.8641 393.927 97.4228 395.137 100.248C396.267 103.153 404.257 111.95 405.791 113.403C408.292 115.824 413.296 114.371 413.296 114.371C413.296 114.371 418.865 118.003 423.142 115.501C427.42 112.999 428.953 108.964 427.743 103.879C426.613 98.8755 423.707 93.4682 423.707 93.4682C423.788 93.6296 426.048 90.8049 426.209 90.4821C427.016 88.5451 426.774 85.4783 425.886 83.5413C425.483 82.7343 424.999 82.0079 424.111 81.6851C424.03 81.6851 422.9 81.5237 422.981 81.6044C422.981 81.6044 418.381 70.2248 415.072 66.7544C411.763 63.2841 402.966 63.1227 395.622 68.1264C388.197 73.2916 386.018 79.0218 387.955 83.8641Z" fill="#FCAF9D"/>
<path d="M422.9 81.7658C422.9 81.7658 418.3 70.3862 414.991 66.9158C411.682 63.4455 402.885 63.284 395.541 68.2878C388.197 73.2916 386.018 79.1025 387.955 83.9448C387.955 83.9448 388.116 84.2677 388.358 84.9133C388.358 84.9133 388.519 82.8149 389.891 83.0571C391.264 83.3799 397.155 85.8011 401.029 83.2185C404.822 80.6359 406.194 78.2147 408.777 78.2147C411.359 78.2147 413.942 82.6535 415.314 85.0747C416.686 87.4959 419.995 85.9625 419.995 85.9625C419.995 85.9625 421.125 82.3307 422.9 81.7658Z" fill="#1D1526"/>
<path d="M417.897 86.7694C416.767 86.7694 415.637 86.3658 414.991 85.1552C413.942 83.3797 411.279 78.5373 408.777 78.5373C407.243 78.5373 406.194 79.4251 404.58 80.8778C403.692 81.6849 402.643 82.5726 401.19 83.5411C397.801 85.8816 392.958 84.4289 390.618 83.7025C390.295 83.6218 389.972 83.5411 389.811 83.4604C389.569 83.3797 389.407 83.4604 389.327 83.5411C388.923 83.8639 388.762 84.671 388.762 84.9131C388.762 84.9938 388.681 85.1552 388.6 85.1552C388.519 85.2359 388.439 85.2359 388.277 85.2359C388.116 85.2359 388.035 85.1552 387.955 84.9938L387.551 84.0253C385.372 78.618 388.197 72.7265 395.299 67.8841C402.885 62.7189 411.924 63.0417 415.314 66.5928C418.462 69.9018 423.385 81.362 423.385 81.7656C423.385 81.927 423.304 82.0884 423.062 82.1691C421.77 82.5726 420.721 85.0745 420.398 86.043C420.398 86.1237 420.318 86.2851 420.156 86.2851C419.672 86.5272 418.784 86.7694 417.897 86.7694ZM408.777 77.7303C411.359 77.7303 413.861 81.5235 415.637 84.7517C416.686 86.6079 419.026 85.8009 419.672 85.5588C419.914 84.8324 420.883 82.3305 422.335 81.5235C421.528 79.5865 417.493 70.1439 414.668 67.1577C411.521 63.8488 402.966 63.6067 395.702 68.6105C389.004 73.2107 386.34 78.618 388.197 83.6218C388.358 83.299 388.519 83.0569 388.762 82.8955C389.084 82.6533 389.488 82.5726 389.891 82.6533C390.134 82.734 390.376 82.8148 390.779 82.8955C392.958 83.5411 397.559 84.9131 400.625 82.8147C401.997 81.927 402.966 81.0392 403.934 80.2321C405.791 78.7794 407.001 77.7303 408.777 77.7303Z" fill="#1D1526"/>
<path d="M413.296 114.371C413.296 114.371 415.96 113.725 417.493 112.03C419.026 110.336 420.398 106.704 420.398 106.704L419.914 115.985C419.914 115.985 419.591 116.308 417.493 115.985C415.314 115.662 413.296 114.371 413.296 114.371Z" fill="#E3806C"/>
<path d="M405.629 105.816C405.145 105.816 404.741 105.735 404.499 105.574C403.289 104.928 402.966 101.862 402.966 101.297C402.966 101.054 403.127 100.893 403.369 100.893C403.612 100.893 403.773 101.054 403.773 101.297C403.854 102.588 404.338 104.606 404.903 104.928C405.306 105.17 406.84 105.09 408.212 104.525C409.1 104.202 409.826 103.718 409.907 103.314C409.987 103.072 410.229 102.991 410.391 103.072C410.633 103.153 410.714 103.395 410.633 103.556C410.391 104.363 409.261 104.928 408.454 105.251C407.647 105.574 406.517 105.816 405.629 105.816Z" fill="#1D1526"/>
<path d="M406.759 108.399C406.275 108.399 405.871 108.318 405.871 108.318C405.629 108.318 405.468 108.076 405.548 107.834C405.548 107.591 405.791 107.43 406.033 107.511C406.033 107.511 409.907 108.076 412.166 105.09C412.328 104.928 412.57 104.847 412.731 105.009C412.893 105.17 412.973 105.412 412.812 105.574C410.875 108.076 408.131 108.399 406.759 108.399Z" fill="#1D1526"/>
<path d="M409.665 96.5349C409.1 96.5349 408.777 96.4542 408.777 96.4542C408.535 96.3735 408.454 96.212 408.454 95.9699C408.535 95.7278 408.696 95.5664 408.938 95.6471C409.019 95.6471 411.924 96.1313 413.538 93.8716C413.7 93.7102 413.942 93.6295 414.103 93.7909C414.265 93.9523 414.345 94.1944 414.184 94.3558C412.812 96.212 410.794 96.5349 409.665 96.5349Z" fill="#1D1526"/>
<path d="M406.517 93.5488C406.275 93.5488 406.113 93.4681 405.952 93.3067C405.629 92.9839 405.71 92.4997 406.033 92.1768C406.113 92.0961 408.292 90.1592 412.489 90.1592C412.973 90.1592 413.296 90.482 413.296 90.9662C413.296 91.4505 412.973 91.7733 412.489 91.7733C408.938 91.7733 407.082 93.3874 407.082 93.3874C406.92 93.4681 406.678 93.5488 406.517 93.5488Z" fill="#1D1526"/>
<path d="M394.815 96.4542C394.653 96.4542 394.492 96.3735 394.33 96.2928C394.008 96.0506 393.927 95.4857 394.169 95.1629C396.187 92.4189 400.303 94.1944 400.464 94.2751C400.868 94.4365 401.029 94.9208 400.868 95.3243C400.706 95.7278 400.222 95.8892 399.818 95.7278C399.738 95.7278 396.752 94.3558 395.46 96.0506C395.299 96.2928 395.057 96.4542 394.815 96.4542Z" fill="#1D1526"/>
<path d="M397.72 99.8437C396.59 99.8437 396.025 99.2787 396.025 99.2787C395.864 99.1173 395.864 98.8752 396.025 98.7138C396.187 98.5524 396.429 98.5524 396.59 98.7138C396.671 98.7945 397.801 99.763 400.464 98.0682C400.625 97.9874 400.868 97.9874 401.029 98.1489C401.19 98.3103 401.11 98.5524 400.948 98.7138C399.576 99.6016 398.527 99.8437 397.72 99.8437Z" fill="#1D1526"/>
<path d="M491.339 250.684C486.416 250.684 482.3 247.697 482.058 247.455C481.251 246.81 481.09 245.68 481.654 244.873C482.3 244.066 483.43 243.904 484.237 244.469C484.479 244.631 490.613 249.15 495.778 245.518C499.571 242.855 500.055 224.777 499.248 212.832C499.168 211.783 499.975 210.976 500.943 210.895C501.992 210.815 502.8 211.622 502.88 212.59C503.284 217.755 504.736 243.662 497.876 248.505C495.697 250.119 493.438 250.684 491.339 250.684Z" fill="#565B70"/>
<path d="M468.661 250.361H462.527V295.395H468.661V250.361Z" fill="#565B70"/>
<path d="M489.806 246.003H441.382C439.687 246.003 438.315 244.631 438.315 242.936V235.914C438.315 234.219 439.687 232.847 441.382 232.847H489.806C491.501 232.847 492.873 234.219 492.873 235.914V242.936C492.873 244.631 491.501 246.003 489.806 246.003Z" fill="#768BB1"/>
<path d="M497.715 171.592C497.231 172.641 496.827 173.771 496.504 174.981C494.164 182.971 494.002 191.607 493.922 199.839C493.922 203.148 493.034 208.394 494.325 211.46C495.939 215.254 503.042 217.029 505.059 212.752C507.561 207.344 506.028 200.162 507.238 194.431C508.53 187.975 512.242 179.985 510.628 173.529C509.095 167.314 504.091 162.31 499.248 169.009C498.603 169.816 498.119 170.704 497.715 171.592Z" fill="#768BB1"/>
<path d="M476.812 246H454.295V252.298H476.812V246Z" fill="#565B70"/>
<path d="M439.122 316.621C439.122 318.235 437.831 319.526 436.217 319.526C434.603 319.526 433.312 318.235 433.312 316.621C433.312 315.007 434.603 313.715 436.217 313.715C437.831 313.715 439.122 315.007 439.122 316.621Z" fill="white"/>
<path d="M436.298 319.93C434.522 319.93 432.989 318.477 432.989 316.621C432.989 314.764 434.441 313.312 436.298 313.312C438.073 313.312 439.607 314.764 439.607 316.621C439.607 318.477 438.073 319.93 436.298 319.93ZM436.298 314.119C434.926 314.119 433.796 315.249 433.796 316.621C433.796 317.993 434.926 319.123 436.298 319.123C437.67 319.123 438.8 317.993 438.8 316.621C438.8 315.249 437.67 314.119 436.298 314.119Z" fill="#1D1526"/>
<path d="M498.28 316.621C498.28 318.235 496.989 319.526 495.375 319.526C493.76 319.526 492.469 318.235 492.469 316.621C492.469 315.007 493.76 313.715 495.375 313.715C496.989 313.715 498.28 315.007 498.28 316.621Z" fill="white"/>
<path d="M495.455 319.93C493.68 319.93 492.146 318.477 492.146 316.621C492.146 314.764 493.599 313.312 495.455 313.312C497.231 313.312 498.764 314.764 498.764 316.621C498.764 318.477 497.231 319.93 495.455 319.93ZM495.455 314.119C494.083 314.119 492.953 315.249 492.953 316.621C492.953 317.993 494.083 319.123 495.455 319.123C496.827 319.123 497.957 317.993 497.957 316.621C497.957 315.249 496.747 314.119 495.455 314.119Z" fill="#1D1526"/>
<path d="M468.338 316.621C468.338 318.235 467.047 319.526 465.433 319.526C463.818 319.526 462.527 318.235 462.527 316.621C462.527 315.007 463.818 313.715 465.433 313.715C467.047 313.715 468.338 315.007 468.338 316.621Z" fill="white"/>
<path d="M465.513 319.93C463.738 319.93 462.204 318.477 462.204 316.621C462.204 314.764 463.657 313.312 465.513 313.312C467.289 313.312 468.822 314.764 468.822 316.621C468.822 318.477 467.289 319.93 465.513 319.93ZM465.513 314.119C464.141 314.119 463.011 315.249 463.011 316.621C463.011 317.993 464.141 319.123 465.513 319.123C466.885 319.123 468.015 317.993 468.015 316.621C468.015 315.249 466.885 314.119 465.513 314.119Z" fill="#1D1526"/>
<path d="M467.531 295.314L465.594 295.395L463.657 295.314L432.02 313.231V315.814H436.298V313.554L465.594 303.223L494.89 313.554V315.814H499.168V313.231L467.531 295.314Z" fill="#565B70"/>
<path d="M462.769 295.234H468.419L467.531 315.814H463.657L462.769 295.234Z" fill="#565B70"/>
<path d="M433.231 108.721C433.231 108.721 432.424 114.855 434.764 118.244C437.105 121.634 437.75 123.571 437.75 125.185C437.75 126.718 436.701 129.382 437.75 130.189C438.8 130.996 441.947 130.189 441.947 130.189C441.947 130.189 447.596 135.919 449.533 135.435C451.47 134.951 453.488 133.336 453.488 133.336C453.488 133.336 459.38 139.309 460.187 141.084C460.994 142.86 461.478 144.07 461.478 144.07L470.194 130.189C470.194 130.189 464.464 125.992 461.72 118.729C458.976 111.384 458.976 101.78 450.583 99.6819C442.27 97.5029 434.199 105.251 433.231 108.721Z" fill="#FCAF9D"/>
<path d="M444.126 129.705C443.965 129.705 443.803 129.624 443.723 129.462C443.642 129.301 443.723 129.059 443.884 128.898C443.884 128.898 446.144 127.768 446.144 125.75C446.144 125.508 446.305 125.346 446.547 125.346C446.789 125.346 446.951 125.508 446.951 125.75C446.951 128.333 444.368 129.624 444.207 129.624C444.207 129.624 444.207 129.705 444.126 129.705Z" fill="#1D1526"/>
<path d="M437.589 119.374C437.347 119.374 437.185 119.213 437.185 118.971C437.185 118.89 437.105 117.599 438.073 116.711C438.719 116.146 439.526 115.985 440.656 116.146C440.898 116.146 441.059 116.388 440.979 116.63C440.979 116.872 440.736 117.034 440.494 116.953C439.607 116.792 438.961 116.953 438.557 117.276C437.912 117.841 437.912 118.89 437.912 118.89C437.992 119.132 437.831 119.374 437.589 119.374Z" fill="#1D1526"/>
<path d="M440.979 121.392C441.463 122.118 441.544 123.006 441.14 123.248C440.736 123.49 440.01 123.087 439.526 122.36C439.042 121.634 438.961 120.746 439.364 120.504C439.768 120.262 440.494 120.666 440.979 121.392Z" fill="#1D1526"/>
<path d="M453.488 133.337L457.039 130.673V136.565L453.488 133.337Z" fill="#E3806C"/>
<path d="M400.383 228.086L392.797 304.676C392.797 304.676 381.982 304.918 377.463 304.434C372.943 303.949 368.666 302.174 369.15 304.676C369.634 307.178 376.333 311.213 378.835 312.343C381.337 313.473 384.484 314.118 386.502 315.248C388.52 316.378 392.797 319.526 394.573 319.041C396.348 318.557 400.464 302.174 400.464 302.174L421.367 234.865L444.772 233.089C444.772 233.089 409.422 223.647 405.791 223.163C402.159 222.678 400.383 228.086 400.383 228.086Z" fill="#F38D7A"/>
<path d="M388.681 310.971C381.014 309.196 378.351 306.936 378.351 306.936L380.368 304.676C379.238 304.595 378.27 304.595 377.463 304.515C372.943 304.03 368.666 302.255 369.15 304.757C369.634 307.259 376.333 311.294 378.835 312.424C381.337 313.554 384.484 314.199 386.502 315.329C388.52 316.459 392.797 319.607 394.573 319.122C395.299 318.961 396.429 315.975 397.559 312.585C395.541 312.343 392.636 311.94 388.681 310.971Z" fill="#C6C2ED"/>
<path d="M456.232 193.705L453.246 205.407C453.246 205.407 439.768 205.891 424.434 209.039C409.1 212.186 394.976 216.464 394.492 219.208C394.008 221.871 411.602 254.073 425.322 278.85C428.308 284.176 434.764 297.735 434.764 297.735C434.764 297.735 432.262 304.514 429.841 308.307C427.339 312.101 423.546 315.732 422.658 316.217C421.77 316.701 419.026 317.831 419.995 318.88C420.883 320.01 430.164 318.88 430.81 318.88C431.455 318.88 438.719 312.585 440.736 310.809C442.754 309.034 450.663 303.142 450.421 300.883C450.179 298.623 443.238 293.7 442.754 292.086C442.27 290.471 433.311 270.941 432.827 269.084C432.343 267.309 420.479 231.959 420.479 231.959C420.479 231.959 469.306 234.623 479.96 233.735C490.532 232.847 491.354 228.632 492 225C492.646 221.368 488 192.5 488 192.5L457.201 192.091L456.232 193.705Z" fill="#FCAF9D"/>
<path d="M420.399 232.363C420.318 232.363 420.318 232.363 420.237 232.363L409.422 227.843C409.18 227.763 409.1 227.521 409.18 227.278C409.261 227.036 409.503 226.956 409.745 227.036L420.56 231.556C420.802 231.637 420.883 231.879 420.802 232.121C420.721 232.282 420.56 232.363 420.399 232.363Z" fill="#E8705A"/>
<path d="M450.34 300.802C450.26 299.672 448.484 297.977 446.709 296.282C445.982 297.17 445.175 298.219 444.287 299.268C441.624 302.416 430.083 313.715 430.083 313.715L426.451 312.746C424.757 314.603 423.223 315.975 422.658 316.217C421.77 316.701 419.026 317.831 419.995 318.88C420.883 320.01 430.164 318.88 430.81 318.88C431.455 318.88 438.719 312.585 440.736 310.809C442.673 308.953 450.583 303.062 450.34 300.802Z" fill="#C6C2ED"/>
<path d="M457.12 192.091L456.232 193.705L453.246 205.407C453.246 205.407 439.768 205.891 424.434 209.039C419.834 210.007 415.395 211.057 411.279 212.106L421.77 232.04C429.76 232.444 470.275 234.542 479.798 233.735C490.371 232.847 491.985 228.812 492.631 225.18C493.276 221.548 488.595 192.333 488.595 192.333L457.12 192.091Z" fill="#FC1264"/>
<path d="M479.153 215.253C479.072 215.253 478.991 215.253 478.91 215.173C471.889 209.2 456.071 206.941 455.909 206.941C455.667 206.941 455.506 206.698 455.586 206.456C455.586 206.214 455.829 206.053 456.071 206.134C456.716 206.214 472.293 208.474 479.475 214.527C479.637 214.688 479.637 214.931 479.556 215.092C479.395 215.173 479.233 215.253 479.153 215.253Z" fill="#FFF3F7"/>
<path d="M474.875 209.604C474.794 209.604 474.714 209.604 474.633 209.523C471.566 207.344 461.639 205.972 461.559 205.972C461.317 205.972 461.155 205.73 461.236 205.488C461.236 205.246 461.478 205.084 461.72 205.165C462.124 205.245 471.97 206.537 475.198 208.877C475.359 209.039 475.44 209.281 475.279 209.442C475.117 209.523 475.037 209.604 474.875 209.604Z" fill="#FFF3F7"/>
<path d="M415.556 172.237C415.556 172.237 412.005 171.914 410.391 172.963C408.696 174.012 400.625 179.5 398.446 181.357C396.267 183.213 394.33 186.441 394.169 186.845C394.008 187.329 395.057 187.49 395.541 187.329C396.025 187.168 397.962 185.634 397.397 186.441C396.752 187.168 397.881 187.41 397.881 187.41C397.881 187.41 409.18 180.792 410.149 180.953C411.037 181.115 412.893 180.469 414.103 179.581C415.314 178.693 418.542 176.999 418.542 176.999L454.618 184.02L460.106 178.936L458.895 166.668L450.825 173.367L415.556 172.237Z" fill="#F38D7A"/>
<path d="M466.078 132.449C466.078 132.449 459.38 146.088 455.99 156.58C452.6 167.072 454.376 169.412 455.183 170.058C455.99 170.623 457.765 171.995 457.765 171.995C457.765 171.995 454.779 192.171 456.151 193.705C457.523 195.238 468.984 195.884 478.265 195.884C487.546 195.884 489.725 192.091 489.725 190.154C489.725 188.217 485.609 156.338 482.381 146.088C479.395 135.758 470.84 129.059 466.078 132.449Z" fill="white"/>
<path d="M465.755 148.025L461.559 177.725C461.559 177.725 417.897 175.385 417.089 175.385C416.282 175.385 407.566 179.339 404.015 181.276C400.464 183.213 398.124 184.666 397.478 186.038C396.913 187.41 396.913 187.41 396.913 187.41C396.913 187.41 399.657 187.975 402.24 187.41C404.822 186.845 406.759 185.796 406.759 185.796C406.759 185.796 411.924 185.231 413.7 184.02C415.475 182.81 419.43 179.501 419.43 179.501C419.43 179.501 453.811 188.782 457.362 189.347C460.913 189.912 469.387 193.463 471.405 191.526C473.019 189.912 478.023 161.1 479.556 151.496C479.96 149.155 479.395 146.734 477.861 144.797C476.651 143.263 475.037 141.891 473.1 141.649C467.369 141.004 465.755 148.025 465.755 148.025Z" fill="#FCAF9D"/>
<path d="M402.24 187.813C401.997 187.813 401.836 187.652 401.836 187.41C401.836 187.329 401.755 185.876 402.805 185.311C403.612 184.827 407.889 182.89 408.293 182.729C408.535 182.648 408.696 182.809 408.777 182.971C408.857 183.213 408.696 183.374 408.535 183.455C408.212 183.536 404.015 185.473 403.208 185.957C402.562 186.28 402.643 187.329 402.643 187.329C402.643 187.652 402.482 187.813 402.24 187.813Z" fill="#E8705A"/>
<path d="M399.818 188.136H399.738C399.496 188.055 399.415 187.813 399.496 187.652C399.657 187.168 400.141 185.553 400.706 185.15C401.19 184.746 405.791 182.164 406.275 181.841C406.436 181.76 406.678 181.76 406.84 182.002C406.921 182.164 406.921 182.406 406.678 182.567C404.661 183.697 401.513 185.553 401.19 185.796C400.948 185.957 400.545 187.006 400.222 187.894C400.222 188.055 400.061 188.136 399.818 188.136Z" fill="#E8705A"/>
<path d="M441.543 93.4675C441.543 93.4675 426.451 101.78 426.774 106.542C427.016 111.304 447.354 114.29 449.13 114.29C450.905 114.29 451.147 109.77 453.407 111.061C455.667 112.353 456.151 115.339 455.909 116.549C455.667 117.841 455.183 119.294 455.183 119.294C455.183 119.294 460.187 133.821 465.19 136.323C470.194 138.824 476.893 140.923 481.412 135.112C485.932 129.301 484.802 122.441 482.058 119.455C478.265 115.339 469.468 115.42 467.289 110.174C465.029 104.928 465.755 96.8572 460.752 91.8534C455.586 86.9303 441.543 93.4675 441.543 93.4675Z" fill="#1D1526"/>
<path d="M473.907 139.309C471.324 139.309 468.338 138.421 464.948 136.726C459.864 134.144 454.941 120.02 454.699 119.455C454.699 119.374 454.699 119.294 454.699 119.213C454.699 119.213 455.183 117.68 455.425 116.469C455.586 115.5 455.264 112.595 453.085 111.384C452.277 110.9 451.874 111.465 451.067 112.756C450.502 113.725 450.018 114.693 448.968 114.693C447.839 114.693 426.532 111.869 426.209 106.542C425.967 101.538 440.575 93.4677 441.221 93.1449C441.786 92.9028 455.586 86.527 460.752 91.6922C464.061 95.0011 464.868 99.44 465.755 103.798C466.159 106.139 466.643 108.318 467.37 110.174C468.58 112.999 471.728 114.209 475.037 115.42C477.619 116.388 480.363 117.437 482.058 119.294C484.641 122.118 486.335 129.221 481.493 135.435C479.637 138.018 477.054 139.309 473.907 139.309ZM455.506 119.294C455.99 120.746 460.752 133.74 465.271 136C472.535 139.632 477.538 139.309 480.928 134.951C485.448 129.14 483.995 122.522 481.574 119.859C479.96 118.083 477.377 117.115 474.875 116.146C471.566 114.855 468.096 113.564 466.724 110.416C465.917 108.479 465.513 106.219 465.029 103.879C464.222 99.6821 463.415 95.3239 460.267 92.2571C455.586 87.5761 442.108 93.6291 441.624 93.8712C437.508 96.131 426.855 102.83 427.016 106.542C427.259 110.739 446.467 113.967 448.968 113.967C449.533 113.967 449.937 113.16 450.34 112.434C450.986 111.304 451.793 109.851 453.407 110.739C455.828 112.111 456.393 115.339 456.151 116.711C456.071 117.68 455.667 118.89 455.506 119.294Z" fill="#1D1526"/>
<path d="M362.936 190.154H344.938C343.808 190.154 342.84 189.589 342.194 188.62C341.629 187.652 341.629 186.522 342.113 185.473L361.887 149.639C362.209 149.074 362.855 148.913 363.42 149.236C363.985 149.558 364.146 150.204 363.823 150.769L344.05 186.603C343.808 187.006 343.97 187.329 344.05 187.49C344.131 187.652 344.373 187.894 344.857 187.894H362.855C363.501 187.894 363.985 188.378 363.985 189.024C364.066 189.669 363.581 190.154 362.936 190.154Z" fill="#1D1526"/>
<path d="M360.634 117.032L356.672 117.8L369.283 182.933L373.245 182.166L360.634 117.032Z" fill="#768BB1"/>
<path d="M418.784 188.701L386.502 187.733V189.912H418.784V188.701Z" fill="white"/>
<path d="M325.892 319.929H320.646L319.516 197.579H327.021L325.892 319.929Z" fill="#768BB1"/>
<path d="M422.255 319.929H417.009L415.879 197.579H423.385L422.255 319.929Z" fill="#768BB1"/>
<path d="M431.778 190.154H312.091V198.224H431.778V190.154Z" fill="#58549C"/>
<path d="M253.256 149.397L246.719 240.595L244.943 296.201C244.943 296.201 242.199 296.686 242.199 298.461C242.199 300.237 242.441 303.223 242.441 305.483C242.441 307.742 238.406 319.041 238.406 319.041H256.968C256.968 319.041 256.726 312.504 256.968 308.469C257.211 304.434 257.211 302.416 257.695 301.447C258.179 300.479 259.47 297.896 259.47 295.637C259.47 293.377 259.955 288.373 260.197 285.871C260.439 283.369 277.226 199.354 277.226 199.354C277.226 199.354 280.777 245.518 281.503 252.297C282.229 259.077 281.745 269.891 281.987 277.478C282.229 285.064 286.991 307.339 286.991 307.339C286.991 307.339 286.023 317.911 286.023 319.122H319.919C319.919 319.122 321.211 317.347 319.919 316.862C318.628 316.378 316.126 315.894 315.4 315.571C314.673 315.329 302.083 305.563 302.083 305.563C302.083 305.563 302.325 300.802 302.083 300.075C301.841 299.349 299.581 296.524 299.581 294.022C299.581 291.521 302.81 266.824 302.81 254.073C302.81 241.241 302.81 231.717 302.81 226.471C302.81 221.225 303.294 168.201 303.294 168.201L302.81 147.864L253.256 149.397Z" fill="#1D1526"/>
<path d="M250.835 147.541C250.835 147.541 250.996 153.191 252.287 154.24C253.579 155.289 272.141 157.387 284.893 156.984C297.644 156.58 302.729 153.998 303.536 151.496C304.343 148.994 302.729 144.958 302.729 144.958L252.53 144.071C252.449 143.99 251.238 145.281 250.835 147.541Z" fill="#C6C2ED"/>
<path d="M271.319 62.5617C271.319 62.5617 251.385 69.8253 249.206 70.7938C247.026 71.7622 245.251 72.7307 244.928 73.9413C244.605 75.0712 233.871 101.624 233.871 101.624L211.193 79.3486C211.193 79.3486 208.53 76.6853 207.077 75.5554C205.624 74.4256 202.961 74.587 201.185 74.2641C199.41 73.9413 198.038 71.1166 197.392 72.8114C196.747 74.5063 196.908 75.3133 197.554 75.7976C198.199 76.2818 199.006 77.2503 199.006 77.2503C199.006 77.2503 195.697 76.4432 194.406 75.7976C193.115 75.1519 191.42 70.8745 190.613 72.9728C189.806 75.1519 194.729 80.3978 196.02 81.5277C197.311 82.6576 198.199 82.4962 200.782 82.819C203.445 83.1418 207.561 83.3032 207.561 83.3032C207.561 83.3032 228.625 121.558 230.32 122.688C231.934 123.818 232.436 124.392 233.727 123.827C235.018 123.343 249 109 249 109C249 109 250.578 146.012 251.143 147.787C251.627 149.563 253.274 148.839 254 149C254.726 149.161 272.156 151 279.5 151C286.925 151 297.902 148.388 300 147.5C302.098 146.612 303.037 147.545 303.037 145.043C303.037 142.542 304.166 120.347 304.166 120.347C304.166 120.347 314.416 129.225 316.837 129.386C319.339 129.548 320.953 128.418 321.76 126.723C322.567 125.109 334.27 84.9173 334.27 84.9173C334.27 84.9173 340 80.1557 340 79.6714C340 79.1872 340.807 65.6286 339.193 66.1935C337.579 66.6778 333.624 67.969 333.624 67.969C333.624 67.969 335.238 64.9829 334.108 62.4003C332.979 59.737 330.799 58.93 330.799 60.6248C330.799 62.3196 330.8 66.3549 330.477 67.8884C330.154 69.3411 328.863 72.9728 329.024 75.6361C329.185 78.2994 329.185 78.9451 329.185 79.9136C329.185 80.882 314.497 105.417 314.497 105.417C314.497 105.417 305.276 76.3606 304.227 74.8271C303.259 73.3744 287.727 65.8271 287.727 65.8271L271.319 62.5617Z" fill="#FCAF9D"/>
<path d="M334.124 74.6634C334.043 74.6634 334.043 74.6634 333.962 74.6634C333.72 74.5827 333.639 74.3406 333.72 74.0985C335.011 70.9509 332.994 68.0455 332.994 68.0455C332.832 67.8841 332.913 67.642 333.074 67.4806C333.236 67.3191 333.478 67.3999 333.639 67.5613C333.72 67.7227 335.98 70.8702 334.446 74.4213C334.446 74.5827 334.285 74.6634 334.124 74.6634Z" fill="#E8705A"/>
<path d="M341.064 64.4943C341.064 64.4943 337.11 66.1084 336.948 66.8347C336.787 67.4804 336.464 69.1752 337.917 69.1752C339.369 69.1752 342.356 68.0453 342.921 66.9962C343.728 65.382 342.598 64.1714 341.064 64.4943Z" fill="#E08772"/>
<path d="M340.822 69.256C340.822 69.256 336.868 70.8701 336.706 71.5965C336.545 72.2421 336.222 73.9369 337.675 73.9369C339.127 73.9369 342.113 72.8071 342.678 71.7579C343.485 70.1438 342.275 68.9332 340.822 69.256Z" fill="#E08772"/>
<path d="M340.419 73.0492C340.419 73.0492 336.464 74.6633 336.303 75.3897C336.141 76.0353 335.818 77.7302 337.271 77.7302C338.724 77.7302 341.71 76.6003 342.275 75.5511C343.082 73.8563 341.952 72.6457 340.419 73.0492Z" fill="#E08772"/>
<path d="M340.257 77.1655C340.257 77.1655 337.352 78.3761 337.271 78.8603C337.19 79.3446 336.948 80.5552 337.997 80.5552C339.047 80.5552 341.226 79.7481 341.629 78.941C342.194 77.7305 341.306 76.9234 340.257 77.1655Z" fill="#E08772"/>
<path d="M327.99 105.331L318.789 97.503C316.207 101.861 314.189 105.251 314.189 105.251C314.189 105.251 305.15 75.9544 304.101 74.421C303.132 72.9683 287.475 65.2205 287.475 65.2205L271.011 62.2344C271.011 62.2344 251.077 69.4979 248.898 70.4664C246.719 71.4349 244.943 72.4034 244.62 73.614C244.298 74.7438 233.564 101.296 233.564 101.296L227.349 95.2432L219.279 104.686C224.282 113.564 229.125 121.876 229.932 122.36C231.546 123.49 232.595 124.701 233.886 124.136C235.178 123.652 248.575 109.609 248.575 109.609C248.575 109.609 250.189 145.685 250.754 147.46C251.238 149.236 252.53 149.074 253.256 149.236C253.982 149.397 271.576 151.173 278.92 151.173C286.345 151.173 299.016 148.59 301.195 147.783C303.374 146.976 304.666 146.169 304.666 143.667C304.666 141.165 303.859 120.101 303.859 120.101C303.859 120.101 314.108 128.978 316.53 129.14C319.031 129.301 320.646 128.171 321.453 126.477C321.856 125.831 325.004 115.5 327.99 105.331Z" fill="#342A98"/>
<path d="M248.656 110.093C248.414 110.093 248.252 109.932 248.252 109.771L245.427 84.5902C245.427 84.3481 245.589 84.1867 245.75 84.106C245.992 84.106 246.154 84.2674 246.235 84.4288L249.059 109.609C249.059 109.851 248.898 110.013 248.656 110.093Z" fill="#1D1526"/>
<path d="M303.859 120.585C303.617 120.585 303.455 120.424 303.455 120.182L304.101 87.415C304.101 87.1729 304.262 87.0115 304.504 87.0115C304.746 87.0115 304.908 87.1729 304.908 87.415L304.262 120.182C304.262 120.424 304.101 120.585 303.859 120.585Z" fill="#1D1526"/>
<path d="M275.047 80.1513C279.647 85.72 283.763 90.401 283.763 90.401C283.763 90.401 290.784 75.2282 292.802 67.8032C289.897 66.2698 287.556 65.1399 287.556 65.1399L271.092 62.1538C271.092 62.1538 268.913 62.9609 265.846 64.0908C267.299 67.2383 271.334 75.7124 275.047 80.1513Z" fill="#1D1526"/>
<path d="M247.364 101.216C247.203 101.216 247.042 101.135 246.961 100.893L243.006 87.8184C242.926 87.5763 243.087 87.4149 243.248 87.3342C243.491 87.2535 243.652 87.4149 243.733 87.5763L247.687 100.651C247.768 100.893 247.607 101.054 247.445 101.135C247.445 101.216 247.364 101.216 247.364 101.216Z" fill="#1D1526"/>
<path d="M304.182 109.851C304.182 109.851 304.101 109.851 304.182 109.851C303.859 109.771 303.778 109.609 303.778 109.367L306.845 91.4503C306.845 91.2081 307.087 91.1274 307.329 91.1274C307.571 91.1274 307.733 91.3696 307.652 91.6117L304.585 109.528C304.504 109.69 304.343 109.851 304.182 109.851Z" fill="#1D1526"/>
<path d="M311.526 111.062C311.445 111.062 311.445 111.062 311.364 110.981C311.203 110.9 311.122 110.658 311.203 110.416L313.947 104.928C314.028 104.767 314.27 104.686 314.512 104.767C314.673 104.847 314.754 105.09 314.673 105.332L311.929 110.82C311.849 110.981 311.687 111.062 311.526 111.062Z" fill="#1D1526"/>
<path d="M237.276 106.623C237.115 106.623 237.034 106.542 236.953 106.462L233.322 101.538C233.16 101.377 233.241 101.135 233.402 100.973C233.564 100.812 233.806 100.893 233.967 101.054L237.599 105.977C237.76 106.139 237.68 106.381 237.518 106.542C237.438 106.542 237.357 106.623 237.276 106.623Z" fill="#1D1526"/>
<path d="M208.787 80.3937C208.706 80.3937 208.625 80.3937 208.545 80.313C207.657 79.5059 204.913 77.569 203.46 77.569C201.604 77.569 197.569 79.1024 197.488 79.1831C197.327 79.2638 197.246 79.1831 197.084 79.1024L194.744 77.4883C194.583 77.3269 194.502 77.0847 194.663 76.9233C194.825 76.7619 195.067 76.6812 195.228 76.8426L197.407 78.2953C198.295 77.9725 201.685 76.7619 203.46 76.7619C205.559 76.7619 208.948 79.5866 209.11 79.748C209.271 79.9095 209.271 80.1516 209.19 80.313C209.029 80.3937 208.868 80.3937 208.787 80.3937Z" fill="#E8705A"/>
<path d="M301.034 34.7136C301.034 34.7136 303.294 41.8157 303.455 43.9948C303.617 46.2546 302.567 47.6266 302.729 49.0793C302.89 50.6127 304.827 53.5989 304.262 54.4866C303.697 55.3744 299.904 56.1007 299.904 56.1007C299.904 56.1007 298.29 64.3328 296.434 64.6556C294.658 64.9784 288.767 64.6556 288.767 64.6556C288.767 64.6556 283.682 81.039 282.875 81.5232C282.149 82.0074 269.801 66.5118 269.801 64.0906C269.801 61.6695 273.271 49.8057 273.271 49.8057L269.397 37.4576C269.397 37.4576 266.815 33.4223 272.383 29.9519C277.952 26.4816 289.332 28.3378 292.963 28.7413C296.595 29.1449 301.034 34.7136 301.034 34.7136Z" fill="#FCAF9D"/>
<path d="M302.602 41.4487C301.915 42.9044 301.003 43.8587 298.622 43.8431C296.241 43.8275 295.382 45.2135 295.382 45.2135C295.507 42.6716 295.362 42.459 302.602 41.4487Z" fill="#1D1526"/>
<path d="M300.227 47.9495C300.227 48.9987 299.743 49.8058 299.178 49.8058C298.613 49.8058 298.129 48.9987 298.129 47.9495C298.129 46.9003 298.613 46.0933 299.178 46.0933C299.823 46.0933 300.227 46.9003 300.227 47.9495Z" fill="#1D1526"/>
<path d="M297.16 57.6343C297.16 57.6343 297.079 57.6343 297.16 57.6343C295.304 57.4729 294.174 56.1816 294.174 56.1816C294.013 56.0202 294.013 55.7781 294.174 55.6167C294.335 55.4553 294.577 55.4553 294.739 55.6167C294.739 55.6167 295.707 56.6658 297.16 56.8273C297.402 56.8273 297.564 57.0694 297.564 57.2308C297.483 57.4729 297.321 57.6343 297.16 57.6343Z" fill="#1D1526"/>
<path d="M288.439 65.6141L284 64L287.5 70L288.439 65.6141Z" fill="#E3806C"/>
<path d="M281.665 55.6972C281.422 55.6972 281.261 55.4551 281.261 55.2937L281.503 52.0655C280.938 51.9848 279.889 51.8233 279.243 51.6619C278.194 51.3391 277.387 50.2092 277.387 50.1285C277.226 49.9671 277.306 49.725 277.468 49.5636C277.629 49.4022 277.871 49.4829 278.033 49.6443C278.033 49.6443 278.759 50.6127 279.485 50.8549C280.293 51.1777 281.907 51.2584 281.987 51.2584C282.229 51.2584 282.391 51.5005 282.391 51.6619L282.068 55.2937C282.068 55.5358 281.826 55.6972 281.665 55.6972Z" fill="#E8705A"/>
<path d="M277.791 43.6723C279.163 42.7038 281.019 43.2687 281.907 44.7215C282.068 44.9636 282.229 45.2057 282.391 45.2057C282.956 45.3671 284.166 46.0935 284.812 44.8829C285.377 43.6723 284.651 41.009 285.377 40.2019C286.103 39.4755 288.847 39.4755 289.17 38.265C289.493 37.0544 286.749 33.7454 287.556 33.0191C288.282 32.2927 297.967 35.2788 299.581 35.6017C301.195 35.9245 307.41 32.6155 307.813 27.6117C308.217 22.608 303.778 18.0077 300.308 18.8955C296.837 19.7832 294.335 20.4289 289.493 22.5273C284.651 24.6256 273.836 23.7378 269.639 29.6294C265.443 35.5209 268.752 44.2372 269.801 45.5285C270.85 46.9005 272.625 52.3078 274.482 51.985C276.257 51.6622 277.791 49.8866 277.791 49.8866C277.791 49.8866 275.369 45.4478 277.791 43.6723Z" fill="#1D1526"/>
<path d="M274.32 52.3884C272.868 52.3884 271.657 49.9672 270.608 47.7881C270.204 46.9003 269.801 46.0933 269.478 45.7705C268.429 44.3985 264.878 35.5208 269.316 29.3871C272.222 25.3518 277.952 24.464 283.036 23.657C285.458 23.2534 287.798 22.9306 289.332 22.2043C293.851 20.2673 296.353 19.541 299.501 18.7339L300.227 18.5725C301.68 18.1689 303.455 18.7339 304.989 20.0252C307.248 21.8814 308.459 24.9483 308.217 27.6923C307.975 30.7591 305.634 33.0189 304.262 34.0681C302.487 35.4401 300.469 36.2471 299.501 36.0857C299.016 36.005 297.886 35.6822 296.514 35.2787C293.932 34.5523 288.525 33.0996 287.798 33.4224C287.637 33.6645 288.363 34.9558 288.686 35.5208C289.251 36.6507 289.816 37.6998 289.654 38.4262C289.412 39.3947 288.282 39.7175 287.233 39.9596C286.668 40.121 286.023 40.2824 285.781 40.5246C285.538 40.7667 285.538 41.7352 285.538 42.5422C285.538 43.43 285.619 44.3985 285.216 45.1248C284.57 46.4161 283.279 45.9319 282.714 45.7705C282.552 45.6898 282.472 45.6897 282.391 45.6897C282.149 45.609 281.907 45.3669 281.664 44.9634C281.261 44.3177 280.615 43.8335 279.889 43.6721C279.243 43.5107 278.678 43.6721 278.113 44.0756C276.015 45.609 278.194 49.7251 278.194 49.8058C278.275 49.9672 278.275 50.1286 278.113 50.29C278.033 50.3707 276.499 52.2269 274.562 52.5498C274.401 52.3884 274.401 52.3884 274.32 52.3884ZM301.195 19.2181C300.953 19.2181 300.63 19.2181 300.388 19.2988L299.662 19.4602C296.514 20.2673 294.013 20.913 289.574 22.8499C287.879 23.5763 285.538 23.9798 283.036 24.3833C278.113 25.1904 272.545 26.0782 269.881 29.7906C265.765 35.5208 269.155 44.1563 270.043 45.2055C270.366 45.6897 270.769 46.4968 271.253 47.3846C272.06 48.9987 273.352 51.662 274.32 51.5006C275.612 51.2585 276.822 50.2093 277.226 49.7251C276.741 48.6759 275.208 44.9634 277.548 43.2686C278.275 42.7843 279.082 42.6229 279.97 42.7843C280.938 42.9457 281.745 43.5914 282.229 44.4792C282.391 44.802 282.472 44.802 282.472 44.802C282.552 44.802 282.714 44.8827 282.875 44.9634C283.682 45.2862 284.086 45.2862 284.409 44.7213C284.651 44.237 284.651 43.3493 284.651 42.5422C284.651 41.493 284.57 40.4438 285.135 39.9596C285.538 39.5561 286.184 39.3947 286.91 39.1525C287.717 38.9104 288.686 38.6683 288.767 38.1841C288.847 37.7805 288.363 36.7314 287.879 35.8436C287.233 34.4716 286.588 33.3417 287.233 32.7768C287.798 32.2118 289.816 32.6154 296.676 34.4716C297.967 34.7944 299.178 35.1172 299.581 35.1979C300.146 35.2787 301.841 34.7944 303.697 33.3417C304.989 32.3732 307.087 30.3556 307.329 27.5309C307.571 25.029 306.361 22.2043 304.343 20.5094C303.374 19.7024 302.245 19.2181 301.195 19.2181Z" fill="#1D1526"/>
</g>
<defs>
<clipPath id="clip0_7120_55265">
<rect width="576" height="320" fill="white"/>
</clipPath>
</defs>
</svg>
